<?xml version="1.0" encoding="UTF-8"?>
<svg width="263px" height="219px" viewBox="0 0 263 219" version="1.1" xmlns="http://www.w3.org/2000/svg" xmlns:xlink="http://www.w3.org/1999/xlink">
    <g id="Workspace" stroke="none" stroke-width="1" fill="none" fill-rule="evenodd">
        <g id="Root---Workspace---0.1---Sem-workspace" transform="translate(-1047.000000, -162.000000)">
            <g id="Group-8" transform="translate(811.000000, 102.000000)">
                <g id="illustration/workspaces" transform="translate(236.000000, 60.000000)">
                    <g id="cards" transform="translate(0.000000, 64.000000)">
                        <g id="card-built" transform="translate(166.000000, 32.000000)">
                            <path d="M2.1,0.7 L79.9,0.6 C80.9,0.6 81.7,1.3 81.7,2.2 L81.7,26.7 C81.7,27.6 80.9,28.3 79.9,28.3 L2.1,28.4 C1.1,28.4 0.3,27.7 0.3,26.8 L0.3,2.3 C0.3,1.4 1.1,0.7 2.1,0.7 Z" id="bg-card-built" fill="#2C2C2E"></path>
                            <path d="M18.7,17.3 C20.7,17.3 22.3,18.9 22.3,20.9 C22.3,22.9 20.7,24.5 18.7,24.5 C16.7,24.5 15.1,22.9 15.1,20.9 C15.1,18.9 16.7,17.3 18.7,17.3 Z M27.9,17.3 C29.9,17.3 31.5,18.9 31.5,20.9 C31.5,22.9 29.9,24.5 27.9,24.5 C25.9,24.5 24.3,22.9 24.3,20.9 C24.3,18.9 25.9,17.3 27.9,17.3 Z M8.6,17 C10.6,17 12.2,18.6 12.2,20.6 C12.2,22.6 10.6,24.2 8.6,24.2 C6.6,24.2 5,22.6 5,20.6 C5,18.6 6.6,17 8.6,17 Z M32.2,11 C33.0526316,11 33.8155125,11.6282548 33.8934539,12.5446567 L33.9,12.7 C33.9,13.6 33.2,14.4 32.2,14.4 L6.7,14.4 C5.84736842,14.4 5.08448753,13.7717452 5.00654614,12.8553433 L5,12.7 C5,11.8 5.7,11 6.7,11 L32.2,11 Z M7,4 C8.1045695,4 9,4.8954305 9,6 C9,7.1045695 8.1045695,8 7,8 C5.8954305,8 5,7.1045695 5,6 C5,4.8954305 5.8954305,4 7,4 Z M77.5,2.9 C78.35,2.9 79.0216049,3.52438272 79.0936043,4.35193759 L79.1,4.5 C79.2,5.4 78.4,6.1 77.5,6.1 L61.6,6.1 C60.75,6.1 60.0783951,5.47561728 60.0063957,4.64806241 L60,4.5 C60,3.6 60.7,2.9 61.6,2.9 L77.5,2.9 Z" id="elements-card-built" fill="#3A3A3C"></path>
                        </g>
                        <g id="card-feature" transform="translate(26.000000, 36.000000)">
                            <path d="M2.1,0.7 L79.9,0.6 C80.9,0.6 81.7,1.3 81.7,2.2 L81.7,26.7 C81.7,27.6 80.9,28.3 79.9,28.3 L2.1,28.4 C1.1,28.4 0.3,27.7 0.3,26.8 L0.3,2.3 C0.3,1.4 1.1,0.7 2.1,0.7 Z" id="bg-card-feature" fill="#2C2C2E"></path>
                            <path d="M9.6,17.3 C11.6,17.3 13.2,18.9 13.2,20.9 C13.2,22.9 11.6,24.5 9.6,24.5 C7.6,24.5 6,22.9 6,20.9 C6,18.9 7.6,17.3 9.6,17.3 Z M18.7,17.3 C20.7,17.3 22.3,18.9 22.3,20.9 C22.3,22.9 20.7,24.5 18.7,24.5 C16.7,24.5 15.1,22.9 15.1,20.9 C15.1,18.9 16.7,17.3 18.7,17.3 Z M27.9,17.3 C29.9,17.3 31.5,18.9 31.5,20.9 C31.5,22.9 29.9,24.5 27.9,24.5 C25.9,24.5 24.3,22.9 24.3,20.9 C24.3,18.9 25.9,17.3 27.9,17.3 Z M32.6,10.7 C33.4526316,10.7 34.2155125,11.3282548 34.2934539,12.2446567 L34.3,12.4 C34.3,13.3 33.6,14.1 32.6,14.1 L7.1,14.1 C6.24736842,14.1 5.48448753,13.4717452 5.40654614,12.5553433 L5.4,12.4 C5.4,11.5 6.1,10.7 7.1,10.7 L32.6,10.7 Z M8,3.5 C9.1045695,3.5 10,4.3954305 10,5.5 C10,6.6045695 9.1045695,7.5 8,7.5 C6.8954305,7.5 6,6.6045695 6,5.5 C6,4.3954305 6.8954305,3.5 8,3.5 Z M77.5,2.9 C78.35,2.9 79.0216049,3.52438272 79.0936043,4.35193759 L79.1,4.5 C79.2,5.4 78.4,6.1 77.5,6.1 L61.6,6.1 C60.75,6.1 60.0783951,5.47561728 60.0063957,4.64806241 L60,4.5 C60,3.6 60.7,2.9 61.6,2.9 L77.5,2.9 Z" id="elements-card-feature" fill="#3A3A3C"></path>
                        </g>
                        <g id="card-action">
                            <path d="M2.1,0.7 L79.9,0.6 C80.9,0.6 81.7,1.3 81.7,2.2 L81.7,26.7 C81.7,27.6 80.9,28.3 79.9,28.3 L2.1,28.4 C1.1,28.4 0.3,27.7 0.3,26.8 L0.3,2.3 C0.3,1.4 1.1,0.7 2.1,0.7 Z" id="bg-card-action" fill="#2C2C2E"></path>
                            <path d="M9.6,17.3 C11.6,17.3 13.2,18.9 13.2,20.9 C13.2,22.9 11.6,24.5 9.6,24.5 C7.6,24.5 6,22.9 6,20.9 C6,18.9 7.6,17.3 9.6,17.3 Z M18.7,17.3 C20.7,17.3 22.3,18.9 22.3,20.9 C22.3,22.9 20.7,24.5 18.7,24.5 C16.7,24.5 15.1,22.9 15.1,20.9 C15.1,18.9 16.7,17.3 18.7,17.3 Z M27.9,17.3 C29.9,17.3 31.5,18.9 31.5,20.9 C31.5,22.9 29.9,24.5 27.9,24.5 C25.9,24.5 24.3,22.9 24.3,20.9 C24.3,18.9 25.9,17.3 27.9,17.3 Z M32.6,10.7 C33.4526316,10.7 34.2155125,11.3282548 34.2934539,12.2446567 L34.3,12.4 C34.3,13.3 33.6,14.1 32.6,14.1 L7.1,14.1 C6.24736842,14.1 5.48448753,13.4717452 5.40654614,12.5553433 L5.4,12.4 C5.4,11.5 6.1,10.7 7.1,10.7 L32.6,10.7 Z M8,3.5 C9.1045695,3.5 10,4.3954305 10,5.5 C10,6.6045695 9.1045695,7.5 8,7.5 C6.8954305,7.5 6,6.6045695 6,5.5 C6,4.3954305 6.8954305,3.5 8,3.5 Z M77.5,2.9 C78.35,2.9 79.0216049,3.52438272 79.0936043,4.35193759 L79.1,4.5 C79.2,5.4 78.4,6.1 77.5,6.1 L61.6,6.1 C60.75,6.1 60.0783951,5.47561728 60.0063957,4.64806241 L60,4.5 C60,3.6 60.7,2.9 61.6,2.9 L77.5,2.9 Z" id="elements-card-action" fill="#3A3A3C"></path>
                        </g>
                        <g id="card-release" transform="translate(181.000000, 7.000000)">
                            <path d="M2.3,0.6 L80.1,0.5 C81.1,0.5 81.9,1.3 81.9,2.3 L81.9,16.5 C81.9,17.5 81.1,18.3 80.1,18.3 L2.3,18.4 C1.3,18.4 0.5,17.6 0.5,16.6 L0.5,2.4 C0.5,1.5 1.3,0.6 2.3,0.6 Z" id="bg-release" fill="#2C2C2E"></path>
                            <path d="M32.8,10.6 C33.6526316,10.6 34.4155125,11.2282548 34.4934539,12.1446567 L34.5,12.3 C34.5,13.3 33.7,14 32.8,14 L7.3,14 C6.44736842,14 5.68448753,13.3717452 5.60654614,12.4553433 L5.6,12.3 C5.6,11.4 6.3,10.6 7.3,10.6 L32.8,10.6 Z M8,3.4 C9.2,3.4 10.1,4.3 10.1,5.5 C10.2,6.6 9.2,7.6 8,7.6 C6.8,7.6 5.9,6.7 5.9,5.5 C5.9,4.3 6.8,3.4 8,3.4 Z M77.7,2.9 C78.55,2.9 79.2216049,3.52438272 79.2936043,4.35193759 L79.3,4.5 C79.3,5.3 78.6,6.1 77.7,6.1 L61.8,6.1 C60.95,6.1 60.2783951,5.47561728 60.2063957,4.64806241 L60.2,4.5 C60.2,3.6 60.9,2.9 61.8,2.9 L77.7,2.9 Z" id="elements-card-card-release" fill="#3A3A3C"></path>
                        </g>
                    </g>
                    <g id="Group-2" transform="translate(83.000000, 0.000000)">
                        <path d="M11.1756387,87.8881781 C12.3595974,89.0721368 12.3595974,90.991889 11.1756387,92.1758477 C9.99168,93.3598065 8.07192774,93.3598065 6.88796903,92.1758477 C5.70401032,90.991889 5.70401032,89.0721368 6.88796903,87.8881781 C8.07192774,86.7039406 9.99168,86.7039406 11.1756387,87.8881781" id="Fill-27" fill="#0A84FF"></path>
                        <polygon id="Fill-29" fill="#0A84FF" points="107.81675 36.2260955 102.171765 35.6452645 102.752596 30 108.397581 30.5811097"></polygon>
                        <path d="M4.24549285e-13,43 L2.26033548,51.4357058 L8.43570581,45.2603355 L4.24549285e-13,43 Z M1.38546581,44.3854658 L6.54298839,45.7673084 L2.76730839,49.5429884 L1.38546581,44.3854658 Z" id="Fill-32" fill="#FFD60A"></path>
                        <path d="M81.5397905,73.7797605 C79.9087814,73.7797605 78.586304,75.1019592 78.586304,76.733247 C78.586304,78.364256 79.9087814,79.6864547 81.5397905,79.6864547 C83.1710782,79.6864547 84.4929982,78.364256 84.4929982,76.733247 C84.4929982,75.1019592 83.1710782,73.7797605 81.5397905,73.7797605 M81.5397905,74.4971592 C82.7725234,74.4971592 83.7755995,75.5002354 83.7755995,76.733247 C83.7755995,77.9659799 82.7725234,78.969056 81.5397905,78.969056 C80.3067788,78.969056 79.3039814,77.9659799 79.3039814,76.733247 C79.3039814,75.5002354 80.3067788,74.4971592 81.5397905,74.4971592" id="Fill-35" fill="#0A84FF"></path>
                        <path d="M90.1051045,84 L87,87.1048258 L90.1051045,90.2099303 L93.2099303,87.1048258 L90.1051045,84 Z M90.1051045,84.9389729 L92.2709574,87.1048258 L90.1051045,89.2709574 L87.9392516,87.1048258 L90.1051045,84.9389729 Z" id="Fill-39" fill="#FFD60A"></path>
                        <g id="illustration-workspace" transform="translate(0.000000, 0.213305)">
                            <path d="M24.4172675,215.900804 C31.3646359,214.800804 38.1291789,213.000804 45.16796,212.500804 C49.8300099,212.100804 53.9435833,211.600804 58.2399822,210.700804 C63.267683,209.700804 71.2205916,208.800804 76.2482924,208.000804 C80.6361041,207.300804 81.6416442,207.900804 85.2981539,207.900804 C81.4588188,208.500804 76.9795944,209.600804 73.2316719,210.000804 C67.6554947,210.700804 61.8964919,210.900804 56.3203146,211.700804 C54.766298,211.900804 53.0294559,212.100804 51.566852,212.800804 C49.8300099,213.600804 48.2759933,214.300804 46.3563257,214.400804 C44.2538326,214.500804 42.2427523,214.200804 40.1402592,214.400804 C38.1291789,214.600804 36.2095113,214.900804 34.1984309,215.300804 C29.2621429,216.200804 24.3258548,216.500804 19.2981539,217.100804" id="Path" fill="#000000" fill-rule="nonzero" opacity="0.260904948" transform="translate(52.298154, 212.381136) rotate(-3.000000) translate(-52.298154, -212.381136) "></path>
                            <path d="M79.7137,100.213995 C79.7137,101.910995 78.3367,103.286995 76.6397,103.286995 C74.9417,103.286995 73.5657,101.910995 73.5657,100.213995 C73.5657,98.515995 74.9417,97.139995 76.6397,97.139995 C78.3367,97.139995 79.7137,98.515995 79.7137,100.213995 Z" id="Stroke-21" stroke="#3945D8" stroke-width="0.5" stroke-linecap="round" stroke-linejoin="round" transform="translate(76.639700, 100.213495) scale(-1, 1) translate(-76.639700, -100.213495) "></path>
                            <polygon id="Fill-23" fill="#3945D8" transform="translate(76.640100, 100.213595) scale(-1, 1) translate(-76.640100, -100.213595) " points="77.7096 100.438595 76.8486 100.438595 76.8486 101.290595 76.4276 101.290595 76.4276 100.438595 75.5706 100.438595 75.5706 99.993595 76.4276 99.993595 76.4276 99.136595 76.8486 99.136595 76.8486 99.993595 77.7096 99.993595"></polygon>
                            <path d="M2.91742951,14.6020865 C4.52940328,14.6020865 5.83567213,15.9086308 5.83567213,17.5203291 C5.83567213,19.1320275 4.52940328,20.4388472 2.91742951,20.4388472 C1.30573115,20.4388472 -0.00108852459,19.1320275 -0.00108852459,17.5203291 C-0.00108852459,15.9086308 1.30573115,14.6020865 2.91742951,14.6020865 Z M2.91742951,15.3109914 C1.69901639,15.3109914 0.708091803,16.3021914 0.708091803,17.5203291 C0.708091803,18.7387423 1.69901639,19.7296668 2.91742951,19.7296668 C4.13556721,19.7296668 5.1264918,18.7387423 5.1264918,17.5203291 C5.1264918,16.3021914 4.13556721,15.3109914 2.91742951,15.3109914 Z" id="Combined-Shape" fill="#0062FF"></path>
                            <path d="M25.8103489,204.318841 C25.6899948,206.406998 22.7717521,218.64566 21.5772997,218.22566 C19.4530636,217.477096 21.367162,205.701673 21.9314767,204.617936 C22.4993718,203.535024 25.9351095,202.230683 25.8103489,204.318841" id="Fill-8" fill="#3A3A3C"></path>
                            <path d="M75.1528026,194.942182 C76.853183,196.191441 85.6693272,205.298694 84.6850125,206.034589 C82.9306518,207.345815 73.9737731,199.308805 73.3552026,198.252333 C72.7404879,197.196412 73.448842,193.693199 75.1528026,194.942182" id="Fill-9" fill="#3A3A3C"></path>
                            <path d="M61.3445246,84.6567645 C69.1570754,104.22904 77.8685639,182.532738 76.0244197,195.615256 C75.8999344,196.513919 74.2695082,198.157014 73.9390164,196.311768 C71.9585443,185.222391 53.5749377,117.730732 38.6576393,91.3125941 C37.7512656,89.7028236 60.7727738,83.2180236 61.3445246,84.6567645" id="Fill-10" fill="#2C2C2E"></path>
                            <path d="M61.3212525,84.6835895 C61.4961377,125.395222 29.3508525,200.139799 24.475823,204.278108 C23.7327672,204.910724 22.4837836,204.709399 22.740741,203.929714 C28.1486885,187.364914 38.8012656,117.298999 38.5762557,89.18296 C38.5679934,88.1187764 61.3132656,82.4706714 61.3212525,84.6835895" id="Fill-12" fill="#48484A"></path>
                            <path d="M23.0363384,205.826131 C23.176522,205.826131 23.3125744,205.749843 23.3825285,205.616544 C26.1140433,200.329777 31.3506859,182.468072 37.8641285,148.192216 C43.1825679,120.195705 46.3340826,96.6919541 45.8906728,88.3139868 C45.8788302,88.0994426 45.6918269,87.9366754 45.48224,87.9456548 C45.2679711,87.9576065 45.1043777,88.1404786 45.1162203,88.3552983 C46.1043908,107.05122 29.969781,191.177633 22.6940039,205.257685 C22.5967843,205.448269 22.6703187,205.683193 22.8611777,205.782616 C22.9159843,205.812085 22.9776761,205.826131 23.0363384,205.826131" id="Fill-13" fill="#3A3A3C"></path>
                            <path d="M57.426379,38.5156747 C63.110838,49.540055 73.5692511,61.4826518 96.3495003,54.8785993 C96.878838,54.725196 97.1547987,56.0972878 96.3495003,56.6197403 C80.9461036,66.5837927 66.6823528,65.6815501 56.3836774,57.6640944 C55.2321889,56.7695632 54.4034807,38.3110452 57.426379,38.5156747" id="Fill-14" fill="#3A3A3C"></path>
                            <path d="M57.426379,38.4130019 C55.6599003,47.7226806 56.4112184,76.8847265 61.5115331,84.8206609 C62.0058938,87.0401888 42.396438,94.6563724 39.354261,91.435179 C34.4946544,86.2905232 23.3243069,54.9177626 25.8845167,40.8501036 C26.3047921,38.5198609 38.5057233,33.3047003 40.7428774,32.9653954 C45.8944184,32.1826806 55.5084249,36.6209101 57.426379,38.4130019" id="Fill-15" fill="#3A3A3C"></path>
                            <path d="M43.9607659,22.2465272 C43.9607659,22.2465272 46.0615921,24.9593141 47.6490544,24.398855 C50.4777889,23.4013206 51.2324118,8.50247471 48.8823397,6.87425176 C47.6297757,6.00891406 43.3421954,6.09208783 41.1945495,7.7965993 C38.0854479,10.262619 38.4707462,32.7068682 33.8174216,35.4670255 C37.265002,36.9512091 44.1667725,36.062737 47.341697,33.6223305 C41.7897102,30.6666321 43.9607659,22.2465272 43.9607659,22.2465272" id="Fill-16" fill="#FFAEA9"></path>
                            <path d="M44,22.786695 C42.4122885,20.0219248 41.3525705,18.0050872 40.8208459,16.7361823 C40.5149574,18.8204839 41.4228,22.3221364 43.5443738,27.2411396 L44,22.786695 Z" id="Fill-17" fill="#FF887D"></path>
                            <path d="M38.1205351,19.1722582 C38.5138203,19.2090045 42.4706334,12.7925062 43.6535187,9.94862422 C45.3106597,10.6905783 50.4230925,11.2736209 51.3413089,11.1786045 C56.8002072,10.613739 57.3796695,1.25751603 53.4930859,0.110709468 C50.5709875,-0.751323319 47.9369679,3.69076193 46.4194597,4.1071816 C45.2252826,4.43629635 40.6300695,3.7907357 38.1205351,5.64424389 C35.1326138,7.85192914 37.7275252,19.1354701 38.1205351,19.1722582" id="Fill-18" fill="#0B0B0B"></path>
                            <path d="M42.3771593,14.0125993 C41.7349036,13.1544223 40.5291593,12.0417665 39.6536315,12.4562583 C38.7042938,12.9060026 40.7117561,17.7163108 41.9880052,17.51416 C42.6258544,17.4130845 43.0194151,14.8707764 42.3771593,14.0125993" id="Fill-19" fill="#171717"></path>
                            <path d="M25.3122426,40.3174609 C29.2613443,38.8977232 34.5996131,48.1234019 32.6502623,51.3635986 C20.8420656,70.9912314 25.1332262,99.3069429 28.4403475,104.377238 C28.8760459,105.044281 27.5105639,105.557369 27.0517311,105.073749 C13.7453049,91.0834806 12.3754164,44.9707855 25.3122426,40.3174609" id="Fill-20" fill="#3A3A3C"></path>
                            <path d="M27.1187677,107.176861 L138.329339,21.4307413 C139.005259,20.883238 139.886146,20.8505099 140.296635,21.3572416 C140.707123,21.8639734 140.492171,22.719066 139.816252,23.2665693 L28.4356602,109.138332 L27.1187677,107.176861 Z" id="Fill-4" fill="#202CBF"></path>
                            <path d="M127.376998,86.1770027 C126.804533,87.5088724 126.740463,87.5255139 127.809676,86.54672 C144.407846,71.3580793 146.501894,45.6709099 132.151704,27.9544347 C117.801792,10.2382369 92.239711,6.95183025 73.9352384,20.0339422 C72.7556378,20.8768311 72.785315,20.8174766 74.2070486,20.5340174 C77.3561634,19.9052484 81.4208347,21.6958672 84.3394656,25.2990159 C87.2583739,28.9027194 88.165887,33.2505725 86.8966999,36.2005448 C86.3239571,37.5321372 86.2787479,37.476111 87.700204,37.1926518 C90.8498736,36.5641602 94.9142675,38.3545016 97.8328984,41.958205 C100.751807,45.5616311 101.65932,49.9094842 100.389855,52.8591792 C99.8173899,54.1910489 99.7721807,54.1353001 101.193914,53.8518409 C104.343306,53.2230719 108.4077,55.0134133 111.326331,58.6168394 C114.24524,62.2205429 115.152753,66.5681186 113.883566,69.5180909 C113.3111,70.8499607 113.265614,70.7939345 114.687347,70.5104753 C117.837017,69.8819837 121.901133,71.6723251 124.819764,75.2757512 C127.738672,78.8791773 128.646185,83.2270304 127.376998,86.1770027" id="Fill-1" fill="#3945D8"></path>
                            <path d="M26.5887657,106.425916 L30.7355347,103.641526 L33.0769851,107.12874 L28.930216,109.91313 C26.1028357,111.811363 25.347037,115.655813 27.2455477,118.482916 C28.8439579,120.863751 31.8222206,121.775979 34.4116284,120.87124 C35.2323287,120.584452 36.2089037,120.753363 36.6937243,121.475878 L37.2792256,122.347612 C37.7640462,123.069851 37.5757205,124.060849 36.7885805,124.431398 C32.2316,126.577589 26.6506163,125.131725 23.7586117,120.824366 C20.5692801,116.074345 21.8387445,109.615248 26.5887657,106.425916" id="Fill-6" fill="#3945D8"></path>
                            <path d="M34.2065757,103.499589 C34.6111528,103.919314 35.0743921,105.168298 34.9848839,105.833963 C34.8951003,106.499904 31.603402,108.485334 31.0938938,108.557491 C30.5843856,108.629924 29.9267069,107.00115 29.9267069,107.00115 C29.9267069,107.00115 28.1797823,106.660744 27.5923331,105.833963 C27.3317954,105.469871 27.522379,105.029491 27.5923331,104.666776 C27.7245298,103.970816 33.8019987,103.079865 34.2065757,103.499589" id="Fill-21" fill="#FFC3C0"></path>
                            <path d="M100.763384,52.1362885 C97.4212852,54.0501114 94.3044721,58.3792786 94.5264525,58.5761967 C95.1643016,59.1435409 99.9539541,56.9113442 100.763384,56.0002885 C101.572538,55.0889573 101.961692,51.4496918 100.763384,52.1362885" id="Fill-24" fill="#FFAEA9"></path>
                            <polygon id="Path" fill="#2C2C2D" points="10.3690348 54.7050295 15.4654938 56.0705114 11.7345167 59.8014885"></polygon>
                            <path d="M34.2065757,103.499589 C34.6111528,103.919314 35.0743921,105.168298 34.9848839,105.833963 C34.8951003,106.499904 31.603402,108.485334 31.0938938,108.557491 C30.5843856,108.629924 29.9267069,107.00115 29.9267069,107.00115 C29.9267069,107.00115 28.1797823,106.660744 27.5923331,105.833963 C27.3317954,105.469871 27.522379,105.029491 27.5923331,104.666776 C27.7245298,103.970816 33.8019987,103.079865 34.2065757,103.499589" id="Fill-29" fill="#FFAEA9"></path>
                        </g>
                    </g>
                </g>
            </g>
        </g>
    </g>
</svg>