<?xml version="1.0" encoding="UTF-8"?>
<svg width="10px" height="10px" viewBox="0 0 10 10" version="1.1" xmlns="http://www.w3.org/2000/svg" xmlns:xlink="http://www.w3.org/1999/xlink">
    <defs>
        <path d="M6.25,0 C6.48041667,0 6.66666667,0.186666667 6.66666667,0.416666667 C6.66666667,0.646666667 6.48041667,0.833333333 6.25,0.833333333 L6.25,0.833333333 L5.41666667,0.833333333 L5.41666667,1.27125 C6.25333333,1.35458333 7.01791667,1.68666667 7.635,2.1925 L7.635,2.1925 L8.03875,1.78875 C8.20166667,1.62583333 8.465,1.62583333 8.62791667,1.78875 C8.79083333,1.95125 8.79083333,2.215 8.62791667,2.37791667 L8.62791667,2.37791667 L8.22416667,2.78166667 C8.8125,3.5 9.16666667,4.41791667 9.16666667,5.41666667 C9.16666667,7.71416667 7.2975,9.58333333 5,9.58333333 C2.7025,9.58333333 0.833333333,7.71416667 0.833333333,5.41666667 C0.833333333,3.25958333 2.48083333,1.48083333 4.58333333,1.27125 L4.58333333,1.27125 L4.58333333,0.833333333 L3.75,0.833333333 C3.51958333,0.833333333 3.33333333,0.646666667 3.33333333,0.416666667 C3.33333333,0.186666667 3.51958333,0 3.75,0 L3.75,0 Z M5,2.08333333 C3.16208333,2.08333333 1.66666667,3.57875 1.66666667,5.41666667 C1.66666667,7.25458333 3.16208333,8.75 5,8.75 C6.83791667,8.75 8.33333333,7.25458333 8.33333333,5.41666667 C8.33333333,3.57875 6.83791667,2.08333333 5,2.08333333 Z M6.37208333,3.45541667 C6.535,3.2925 6.79833333,3.2925 6.96125,3.45541667 C7.12416667,3.61833333 7.12416667,3.88166667 6.96125,4.04458333 L6.96125,4.04458333 L5.29458333,5.71125 C5.21333333,5.7925 5.10666667,5.83333333 5,5.83333333 C4.89333333,5.83333333 4.78666667,5.7925 4.70541667,5.71125 C4.5425,5.54833333 4.5425,5.285 4.70541667,5.12208333 L4.70541667,5.12208333 Z" id="path-latency"></path>
    </defs>
    <g id="Modules---Create-module---2" stroke="none" stroke-width="1" fill="none" fill-rule="evenodd">
        <g id="Modules---0.0---2-components" transform="translate(-530.000000, -413.000000)">
            <g id="Group-4" transform="translate(469.000000, 155.000000)">
                <g id="Group-Copy-3">
                    <g id="card/groups-copy" transform="translate(44.000000, 191.000000)">
                        <g id="card/workspace">
                            <g id="Icon/Card/Info-Copy" transform="translate(17.000000, 67.000000)">
                                <mask id="mask-latency" fill="white">
                                    <use xlink:href="#path-latency"></use>
                                </mask>
                                <use id="Icon-Timer" fill="currentColor" xlink:href="#path-latency"></use>
                            </g>
                        </g>
                    </g>
                </g>
            </g>
        </g>
    </g>
</svg>