<?xml version="1.0" encoding="UTF-8"?>
<svg width="29px" height="26px" viewBox="0 0 29 26" version="1.1" xmlns="http://www.w3.org/2000/svg" xmlns:xlink="http://www.w3.org/1999/xlink">
    <!-- Generator: sketchtool 63.1 (101010) - https://sketch.com -->
    <title>checkmark</title>
    <desc>Created with sketchtool.</desc>
    <defs>
        <filter x="-16.0%" y="-17.2%" width="131.9%" height="134.3%" filterUnits="objectBoundingBox" id="filter-1">
            <feOffset dx="0" dy="2" in="SourceAlpha" result="shadowOffsetOuter1"></feOffset>
            <feGaussianBlur stdDeviation="5" in="shadowOffsetOuter1" result="shadowBlurOuter1"></feGaussianBlur>
            <feColorMatrix values="0 0 0 0 0   0 0 0 0 0   0 0 0 0 0  0 0 0 0.320886145 0" type="matrix" in="shadowBlurOuter1" result="shadowMatrixOuter1"></feColorMatrix>
            <feMerge>
                <feMergeNode in="shadowMatrixOuter1"></feMergeNode>
                <feMergeNode in="SourceGraphic"></feMergeNode>
            </feMerge>
        </filter>
        <path d="M4.625,8.875 C4.465,8.875 4.305,8.81375 4.183125,8.691875 L1.058125,5.566875 C0.81375,5.3225 0.81375,4.9275 1.058125,4.683125 C1.3025,4.43875 1.6975,4.43875 1.941875,4.683125 L4.625,7.36625 L11.058125,0.933125 C11.3025,0.68875 11.6975,0.68875 11.941875,0.933125 C12.18625,1.1775 12.18625,1.5725 11.941875,1.816875 L5.066875,8.691875 C4.945,8.81375 4.785,8.875 4.625,8.875" id="path-checkmark"></path>
    </defs>
    <g id="Circles---Home" stroke="none" stroke-width="1" fill="none" fill-rule="evenodd">
        <g id="Circles---0.2---Expand---Filter" transform="translate(-266.000000, -90.000000)">
            <g id="Group-13" filter="url(#filter-1)" transform="translate(263.000000, 81.000000)">
                <g id="Group-10" transform="translate(10.000000, 12.000000)">
                    <g id="Icon/Miscellaneous/Placeholder" transform="translate(1.000000, 3.000000)">
                        <mask id="mask-checkmark" fill="white">
                            <use xlink:href="#path-checkmark"></use>
                        </mask>
                        <use id="Icon-Checkmark" fill="currentColor" xlink:href="#path-checkmark"></use>
                    </g>
                </g>
            </g>
        </g>
    </g>
</svg>