<?xml version="1.0" encoding="UTF-8"?>
<svg width="15px" height="15px" viewBox="0 0 15 15" version="1.1" xmlns="http://www.w3.org/2000/svg" xmlns:xlink="http://www.w3.org/1999/xlink">
    <!-- Generator: sketchtool 63.1 (101010) - https://sketch.com -->
    <defs>
        <path d="M10.5,3.625 C14.290625,3.625 17.375,6.709375 17.375,10.5 C17.375,14.290625 14.290625,17.375 10.5,17.375 C6.709375,17.375 3.625,14.290625 3.625,10.5 C3.625,6.709375 6.709375,3.625 10.5,3.625 Z M4.875,10.5 C4.875,13.601875 7.39875,16.125 10.5,16.125 C13.601875,16.125 16.125,13.601875 16.125,10.5 C16.125,8.40214385 14.9704397,6.56854673 13.2631809,5.60165089 L11.5792119,8.96754478 C12.060257,9.30733372 12.375,9.86763245 12.375,10.5 C12.375,11.5338068 11.5338068,12.375 10.5,12.375 C9.46619318,12.375 8.625,11.5338068 8.625,10.5 C8.625,9.86763245 8.93974302,9.30733372 9.42078809,8.96754478 L7.73809825,5.60108378 C6.03029799,6.56782965 4.875,8.40173363 4.875,10.5 Z M10.5,6.125 C10.1553977,6.125 9.875,6.40539773 9.875,6.75 C9.875,7.09460227 10.1553977,7.375 10.5,7.375 C10.8446023,7.375 11.125,7.09460227 11.125,6.75 C11.125,6.40539773 10.8446023,6.125 10.5,6.125 Z" id="path-1"></path>
    </defs>
    <g id="Circles---Home" stroke="none" stroke-width="1" fill="none" fill-rule="evenodd">
        <g id="Circles---0.0---Expand" transform="translate(-372.000000, -61.000000)">
            <g id="sidebar/expand/circles/open" transform="translate(135.000000, 0.000000)">
                <g id="Options-circles" transform="translate(16.000000, 58.000000)">
                    <g id="Icon/Menu/Burger-Copy-4" transform="translate(218.000000, 0.000000)">
                        <mask id="mask-2" fill="white">
                            <use xlink:href="#path-1"></use>
                        </mask>
                        <use id="Combined-Shape" fill="currentColor" transform="translate(10.500000, 10.500000) rotate(-324.000000) translate(-10.500000, -10.500000) " xlink:href="#path-1"></use>
                    </g>
                </g>
            </g>
        </g>
    </g>
</svg>