<?xml version="1.0" encoding="UTF-8"?>
<svg width="15px" height="14px" viewBox="0 0 15 14" version="1.1" xmlns="http://www.w3.org/2000/svg" xmlns:xlink="http://www.w3.org/1999/xlink">
    <!-- Generator: Sketch 64 (93537) - https://sketch.com -->
    <title>Icon/Card/Git Copy 2</title>
    <desc>Created with Sketch.</desc>
    <defs>
        <path d="M7.5,0.625 C11.290625,0.625 14.375,3.709375 14.375,7.5 C14.375,11.290625 11.290625,14.375 7.5,14.375 C3.709375,14.375 0.625,11.290625 0.625,7.5 C0.625,3.709375 3.709375,0.625 7.5,0.625 Z M7.5,1.875 C4.39875,1.875 1.875,4.39875 1.875,7.5 C1.875,10.601875 4.39875,13.125 7.5,13.125 C10.601875,13.125 13.125,10.601875 13.125,7.5 C13.125,4.39875 10.601875,1.875 7.5,1.875 Z M7.15084722,3.8914717 C7.33963581,3.70284277 7.64546842,3.70284277 7.83393052,3.8914717 L7.83393052,3.8914717 L11.1084698,7.1659917 C11.2971767,7.35453901 11.2971767,7.66062231 11.1084698,7.84925125 L11.1084698,7.84925125 L7.84927521,11.1085895 C7.660405,11.2971368 7.35465401,11.2971368 7.16611029,11.1085895 L7.16611029,11.1085895 L3.89140779,7.83406952 C3.70286407,7.64544058 3.70286407,7.33960215 3.89140779,7.15080996 L3.89140779,7.15080996 L6.13679214,4.90554609 L6.98711618,5.75604957 C6.89994531,5.96483919 6.94083726,6.21443992 7.1108531,6.38437737 C7.16643677,6.44012534 7.23059061,6.48175267 7.29907034,6.50974909 L7.29907034,6.50974909 L7.29907034,8.56891432 C7.23059061,8.59699236 7.16627353,8.63894618 7.1108531,8.69436766 C6.88639628,8.91882875 6.88639628,9.28253734 7.1108531,9.50732491 C7.33514667,9.73170438 7.69909319,9.73170438 7.92355001,9.50732491 C8.14800682,9.28253734 8.14800682,8.91882875 7.92355001,8.69436766 C7.87792406,8.64890409 7.82625818,8.61274544 7.77157234,8.58564687 L7.77157234,8.58564687 L7.77157234,6.545418 L8.54696861,7.32074741 C8.46143016,7.52872082 8.50313831,7.77685235 8.67201146,7.94581033 C8.89671314,8.17043467 9.2604148,8.17043467 9.48503485,7.94581033 C9.70949167,7.72126762 9.70949167,7.35747741 9.48503485,7.13309794 C9.32432377,6.97213894 9.09235786,6.92732834 8.89116293,6.99670722 L8.89116293,6.99670722 L8.05985651,6.16538497 C8.12923407,5.96418621 8.08426109,5.73237912 7.92355001,5.57158336 C7.76381838,5.41184869 7.53389298,5.36638512 7.33343264,5.43413155 L7.33343264,5.43413155 L6.47094713,4.57154799 Z" id="path-git"></path>
    </defs>
    <g id="Add-user-group" stroke="none" stroke-width="1" fill="currentColor" fill-rule="evenodd">
        <g id="Settings---Workspace---11.4---Add-group-permissions" transform="translate(-1214.000000, -465.000000)">
            <g id="card/release/deployed/expand" transform="translate(1197.000000, 394.500000)">
                <g id="Group" transform="translate(0.000000, 55.000000)">
                    <g id="Icon/logos/Git" transform="translate(17.000000, 15.000000)">
                        <mask id="mask-git" fill="currentColor">
                            <use xlink:href="#path-git"></use>
                        </mask>
                        <use id="icon-card-git" fill="currentColor" fill-rule="evenodd" xlink:href="#path-git"></use>
                    </g>
                </g>
            </g>
        </g>
    </g>
</svg>