<?xml version="1.0" encoding="UTF-8"?>
<svg width="22px" height="14px" viewBox="0 0 22 14" version="1.1" xmlns="http://www.w3.org/2000/svg" xmlns:xlink="http://www.w3.org/1999/xlink">
    <defs>
        <path d="M19.7026022,-4.1591619e-11 C20.9185526,-4.1591619e-11 21.9138679,0.944650745 21.9946998,2.14010382 L22,2.29739777 L22,11.2936803 C22,12.5096306 21.0553493,13.504946 19.8598962,13.5857779 L19.7026022,13.5910781 L2.29739777,13.5910781 C1.08144742,13.5910781 0.0861320808,12.6464273 0.00530016051,11.4509743 L0,11.2936803 L0,2.29739777 C0,1.08144742 0.944650745,0.0861320808 2.14010382,0.00530016047 L2.29739777,-4.1591619e-11 L19.7026022,-4.1591619e-11 Z M19.7026022,2 L2.29739777,2 C2.15661355,2 2.03867739,2.09782413 2.00785449,2.22920719 L2,2.29739777 L2,11.2936803 C2,11.4344645 2.09782413,11.5524007 2.22920719,11.5832236 L2.29739777,11.5910781 L19.7026022,11.5910781 C19.8433864,11.5910781 19.9613226,11.4932539 19.9921455,11.3618709 L20,11.2936803 L20,2.29739777 C20,2.13314952 19.8668505,2 19.7026022,2 Z M4,8.85873606 C4.55228475,8.85873606 5,9.30645131 5,9.85873606 C5,10.4110208 4.55228475,10.8587361 4,10.8587361 C3.44771525,10.8587361 3,10.4110208 3,9.85873606 C3,9.30645131 3.44771525,8.85873606 4,8.85873606 Z M12,6 C12.5522847,6 13,6.44771525 13,7 C13,7.55228475 12.5522847,8 12,8 L4,8 C3.44771525,8 3,7.55228475 3,7 C3,6.44771525 3.44771525,6 4,6 L12,6 Z M12,3 C12.5522847,3 13,3.44771525 13,4 C13,4.55228475 12.5522847,5 12,5 L4,5 C3.44771525,5 3,4.55228475 3,4 C3,3.44771525 3.44771525,3 4,3 L12,3 Z" id="path-card-1"></path>
    </defs>
    <g id="Hypothesis-card" stroke="none" stroke-width="1" fill="none" fill-rule="evenodd">
        <g id="Hypotheses-card---8.0---Card-aberto" transform="translate(-491.000000, -171.000000)">
            <g id="Group-card-19" transform="translate(384.000000, 80.000000)">
                <g id="Group-card-5" transform="translate(106.000000, 86.000000)">
                    <g id="Icon/User/Circle" transform="translate(1.000000, 5.000000)">
                        <mask id="mask-2-card" fill="white">
                            <use xlink:href="#path-card-1"></use>
                        </mask>
                        <use id="Combined-Shape" fill="currentColor" xlink:href="#path-card-1"></use>
                    </g>
                </g>
            </g>
        </g>
    </g>
</svg>