<?xml version="1.0" encoding="UTF-8"?>
<svg width="24px" height="24px" viewBox="0 0 24 24" version="1.1" xmlns="http://www.w3.org/2000/svg" xmlns:xlink="http://www.w3.org/1999/xlink">
    <defs>
        <path d="M21,13 C21.553,13 22,13.447 22,14 L22,21 C22,21.553 21.553,22 21,22 L14,22 C13.447,22 13,21.553 13,21 L13,14 C13,13.447 13.447,13 14,13 L21,13 Z M10,13 C10.552,13 11,13.447 11,14 L11,21 C11,21.553 10.552,22 10,22 L3,22 C2.448,22 2,21.553 2,21 L2,14 C2,13.447 2.448,13 3,13 L10,13 Z M20,15 L15,15 L15,20 L20,20 L20,15 Z M9,15 L4,15 L4,20 L9,20 L9,15 Z M10,2 C10.552,2 11,2.448 11,3 L11,10 C11,10.552 10.552,11 10,11 L3,11 C2.448,11 2,10.552 2,10 L2,3 C2,2.448 2.448,2 3,2 L10,2 Z M21,2 C21.553,2 22,2.448 22,3 L22,10 C22,10.552 21.553,11 21,11 L14,11 C13.447,11 13,10.552 13,10 L13,3 C13,2.448 13.447,2 14,2 L21,2 Z M9,4 L4,4 L4,9 L9,9 L9,4 Z M20,4 L15,4 L15,9 L20,9 L20,4 Z" id="path-grid"></path>
    </defs>
    <g id="Symbols" stroke="none" stroke-width="1" fill="none" fill-rule="evenodd">
        <g id="Icon/Layout/Grid">
            <mask id="mask-grid" fill="white">
                <use xlink:href="#path-grid"></use>
            </mask>
            <use id="Icon-Grid" fill="currentColor" xlink:href="#path-grid"></use>
        </g>
    </g>
</svg>
