<?xml version="1.0" encoding="UTF-8"?>
<svg width="12px" height="12px" viewBox="0 0 12 12" version="1.1" xmlns="http://www.w3.org/2000/svg" xmlns:xlink="http://www.w3.org/1999/xlink">
    <!-- Generator: sketchtool 64 (101010) - https://sketch.com -->
    <title>4FBD4E7E-4B1D-4D05-B7B2-C01EC53DEC22</title>
    <desc>Created with sketchtool.</desc>
    <defs>
        <filter x="-8.6%" y="-18.5%" width="117.1%" height="137.1%" filterUnits="objectBoundingBox" id="filter-1">
            <feOffset dx="0" dy="2" in="SourceAlpha" result="shadowOffsetOuter1"></feOffset>
            <feGaussianBlur stdDeviation="5" in="shadowOffsetOuter1" result="shadowBlurOuter1"></feGaussianBlur>
            <feColorMatrix values="0 0 0 0 0   0 0 0 0 0   0 0 0 0 0  0 0 0 0.320886145 0" type="matrix" in="shadowBlurOuter1" result="shadowMatrixOuter1"></feColorMatrix>
            <feMerge>
                <feMergeNode in="shadowMatrixOuter1"></feMergeNode>
                <feMergeNode in="SourceGraphic"></feMergeNode>
            </feMerge>
        </filter>
        <path d="M6,0.5 C9.03250089,0.5 11.5,2.96803613 11.5,6 C11.5,9.03196387 9.03250089,11.5 6,11.5 C2.96749911,11.5 0.5,9.03196387 0.5,6 C0.5,2.96803613 2.96749911,0.5 6,0.5 Z M6,1.50026563 C3.51886291,1.50026563 1.49946865,3.51930228 1.49946865,6 C1.49946865,8.48167168 3.51886291,10.4997344 6,10.4997344 C8.48211123,10.4997344 10.5005313,8.48167168 10.5005313,6 C10.5005313,3.51930228 8.48211123,1.50026563 6,1.50026563 Z M6.2483816,3.07882504 L7.3356447,3.07955552 C7.49345554,3.07955552 7.64055083,3.10877457 7.77011158,3.20324951 C7.86362912,3.27240128 7.92305172,3.36590225 7.9795519,3.46135116 L7.9795519,3.46135116 L8.76178711,4.76549495 C8.94784803,5.07716487 9.1348831,5.38688684 9.31996989,5.69855676 C9.44271165,5.9040641 9.43784095,6.11054542 9.31412504,6.31605277 C8.95758944,6.90919957 8.60202798,7.50234638 8.24646652,8.09744112 C8.14028516,8.27372941 8.03702621,8.45293961 7.92694828,8.62825394 C7.8061548,8.82012573 7.62593872,8.91947052 7.39214488,8.92044448 C6.92650549,8.92239242 6.4608661,8.92141845 5.99522671,8.92141845 L4.63240347,8.92141845 C4.38010096,8.92141845 4.18916932,8.82012573 4.062531,8.60974854 C3.73424548,8.06335222 3.40595997,7.51598194 3.07767446,6.96861165 C2.94616543,6.74849478 2.81270811,6.53032584 2.68314736,6.31020896 C2.5604056,6.10470161 2.5604056,5.89822029 2.68314736,5.69173898 C3.07085547,5.04502391 3.45856358,4.39928281 3.84724584,3.75256774 C3.92517712,3.62302993 3.99921183,3.49154418 4.08103967,3.36492828 C4.19404003,3.18961395 4.36061814,3.09611298 4.57590329,3.08442536 C4.77073149,3.07371171 4.96458555,3.08052948 5.16038789,3.07955552 C5.88612292,3.07858155 6.61088381,3.07858155 7.3356447,3.07955552 Z M5.14382749,6.10664955 L4.45316153,6.10664955 C4.40348034,6.10664955 4.4025062,6.10664955 4.42783386,6.14853019 C4.65578286,6.52935187 4.8827577,6.91017354 5.1107067,7.29196919 C5.12921537,7.32411015 5.15162062,7.33384983 5.18961211,7.33384983 L5.18961211,7.33384983 L6.58263372,7.33384983 C6.60016826,7.33384983 6.60503897,7.32605808 6.5962717,7.31047459 C6.59140099,7.30268284 6.58750443,7.29489109 6.58360786,7.28807331 C6.35565887,6.90725164 6.12868402,6.52545599 5.90073503,6.14463432 C5.88417464,6.11638923 5.86469182,6.10567558 5.83059688,6.10664955 C5.60264789,6.10762352 5.37275062,6.10664955 5.14382749,6.10664955 L5.14382749,6.10664955 Z M6.88461743,4.8102975 C6.86221219,4.77133876 6.85831562,4.77231273 6.8339621,4.81127147 C6.60601311,5.19404108 6.37708998,5.5768107 6.1471927,5.95958031 C6.12868402,5.9907473 6.12770988,6.01509651 6.14621856,6.04723747 C6.34104676,6.36962104 6.53490081,6.69297857 6.72778073,7.01731008 C6.76479809,7.07964406 6.80278959,7.14197804 6.83980694,7.20528599 C6.85344492,7.22768727 6.86416047,7.23158314 6.87877258,7.20723393 L6.87877258,7.20723393 L6.89046227,7.18775456 L7.57820581,6.03554985 C7.58405066,6.0248362 7.59184378,6.01509651 7.59184378,5.99756508 L7.59184378,5.99756508 L7.58015409,5.9751638 C7.34830854,5.58655038 7.11646298,5.19793696 6.88461743,4.8102975 Z M6.5582802,4.67296795 L5.18474141,4.67296795 C5.15064648,4.67296795 5.13116366,4.6836816 5.1155774,4.71192669 L5.1155774,4.71192669 L4.42588558,5.86315743 C4.40348034,5.89919426 4.40445448,5.90016823 4.44731668,5.90016823 L4.44731668,5.90016823 L5.82475204,5.90016823 C5.85300213,5.90016823 5.87248495,5.89432442 5.8880712,5.86900124 C6.11991676,5.48525766 6.35176231,5.10151408 6.584582,4.7177705 C6.61088381,4.67491588 6.60990967,4.67296795 6.5582802,4.67296795 L6.5582802,4.67296795 Z" id="path-stackdriver"></path>
    </defs>
    <g id="Workspaces" stroke="none" stroke-width="1" fill="currentColor" fill-rule="evenodd">
        <g id="Settings---Workspace---12.0---Add-metrics-provider" transform="translate(-524.000000, -341.000000)">
            <g id="Group-10" transform="translate(514.000000, 239.000000)">
                <g id="Icon/logos/Prometheus-Copy-3" transform="translate(10.000000, 102.000000)">
                    <mask id="mask-stackdriver" fill="currentColor">
                        <use xlink:href="#path-stackdriver"></use>
                    </mask>
                    <use id="Mask" fill="currentColor" fill-rule="evenodd" xlink:href="#path-stackdriver"></use>
                </g>
            </g>
        </g>
    </g>
</svg>