<?xml version="1.0" encoding="UTF-8"?>
<svg width="12px" height="12px" viewBox="0 0 12 12" version="1.1" xmlns="http://www.w3.org/2000/svg" xmlns:xlink="http://www.w3.org/1999/xlink">
    <defs>
        <path d="M4.67,1.5001 C4.946,1.5001 5.17,1.7241 5.17,2.0001 C5.17,2.2761 4.946,2.5001 4.67,2.5001 L4.67,2.5001 L2,2.5001 C1.7245,2.5001 1.5,2.7246 1.5,3.0001 L1.5,3.0001 L1.5,10.0001 C1.5,10.2761 1.7245,10.5001 2,10.5001 L2,10.5001 L9,10.5001 C9.276,10.5001 9.5,10.2761 9.5,10.0001 L9.5,10.0001 L9.5,7.3301 C9.5,7.0536 9.7235,6.8301 10,6.8301 C10.2765,6.8301 10.5,7.0536 10.5,7.3301 L10.5,7.3301 L10.5,10.0001 C10.5,10.8271 9.827,11.5001 9,11.5001 L9,11.5001 L2,11.5001 C1.173,11.5001 0.5,10.8271 0.5,10.0001 L0.5,10.0001 L0.5,3.0001 C0.5,2.1731 1.173,1.5001 2,1.5001 L2,1.5001 Z M8.64645,0.6465 C8.84195,0.451 9.15795,0.451 9.35345,0.6465 L9.35345,0.6465 L11.35345,2.6465 C11.54895,2.842 11.54895,3.158 11.35345,3.3535 L11.35345,3.3535 L6.35345,8.3535 C6.25995,8.4475 6.13245,8.5 5.99995,8.5 L5.99995,8.5 L3.99995,8.5 C3.72395,8.5 3.49995,8.2765 3.49995,8 L3.49995,8 L3.49995,6 C3.49995,5.8675 3.55295,5.74 3.64645,5.6465 L3.64645,5.6465 Z M8.99995,1.707 L4.49995,6.207 L4.49995,7.5 L5.79295,7.5 L10.29295,3 L8.99995,1.707 Z" id="path-edit"></path>
    </defs>
    <g id="Circles---Home-edit" stroke="none" stroke-width="1" fill="none" fill-rule="evenodd">
        <g id="Circles---3.0---Expand---3-circles---Options-edit" transform="translate(-961.000000, -52.000000)">
            <g id="Group-10" transform="translate(952.000000, 39.000000)">
                <g id="Menu-lateral-edit" transform="translate(9.000000, 12.000000)">
                    <g id="Archive-edit">
                        <g id="Icon/Controls/Edit/Box-edit" transform="translate(0.000000, 1.000000)">
                            <mask id="mask-edit" fill="white">
                                <use xlink:href="#path-edit"></use>
                            </mask>
                            <use id="Icon-Edit-3" fill="currentColor" fill-rule="evenodd" xlink:href="#path-edit"></use>
                        </g>
                    </g>
                </g>
            </g>
        </g>
    </g>
</svg>