<?xml version="1.0" encoding="UTF-8"?>
<svg width="167px" height="225px" viewBox="0 0 167 225" version="1.1" xmlns="http://www.w3.org/2000/svg" xmlns:xlink="http://www.w3.org/1999/xlink">
    <!-- Generator: Sketch 63.1 (92452) - https://sketch.com -->
    <title>illustration-workspace</title>
    <desc>Created with Sketch.</desc>
    <g id="Symbols" stroke="none" stroke-width="1" fill="none" fill-rule="evenodd">
        <g id="illustration/workspaces" transform="translate(-231.000000, -60.000000)">
            <g id="illustration-workspace" transform="translate(232.000000, 60.213305)">
                <path d="M17.2793766,214.757246 C32.6477977,213.657246 47.6117866,211.857246 63.1824237,211.357246 C73.4954431,210.957246 82.5951661,210.457246 92.0993212,209.557246 C103.221205,208.557246 120.814003,207.657246 131.935886,206.857246 C141.642258,206.157246 143.866634,206.757246 151.955277,206.757246 C143.462202,207.357246 133.553615,208.457246 125.262756,208.857246 C112.927576,209.557246 100.187964,209.757246 87.8527838,210.557246 C84.4151107,210.757246 80.5730054,210.957246 77.3375484,211.657246 C73.4954431,212.457246 70.05777,213.157246 65.8112326,213.257246 C61.1602631,213.357246 56.7115096,213.057246 52.0605401,213.257246 C47.6117866,213.457246 43.3652492,213.757246 38.9164957,214.157246 C27.9968282,215.057246 17.0771606,215.357246 5.95527691,215.957246" id="Path" fill="#000000" fill-rule="nonzero" opacity="0.260904948" transform="translate(78.955277, 211.237579) rotate(-7.000000) translate(-78.955277, -211.237579) "></path>
                <path d="M122.8272,128.467895 C122.8272,138.992895 114.2952,147.524895 103.7692,147.524895 C93.2452,147.524895 84.7132,138.992895 84.7132,128.467895 C84.7132,117.942895 93.2452,109.410895 103.7692,109.410895 C114.2952,109.410895 122.8272,117.942895 122.8272,128.467895 Z" id="Stroke-1" stroke="#FFFFFF" stroke-width="3" opacity="0.160039993" stroke-linecap="round" stroke-linejoin="round" transform="translate(103.770200, 128.467895) scale(-1, 1) translate(-103.770200, -128.467895) "></path>
                <path d="M45,89.286695 C45,101.712904 34.9262091,111.786695 22.5,111.786695 C10.0737909,111.786695 0,101.712904 0,89.286695 C0,76.8604859 10.0737909,66.786695 22.5,66.786695 C34.9262091,66.786695 45,76.8604859 45,89.286695 Z" id="Stroke-6" stroke="#FFFFFF" stroke-width="1.8" opacity="0.160039993" stroke-linecap="round" stroke-linejoin="round" transform="translate(22.500000, 89.286695) scale(-1, 1) translate(-22.500000, -89.286695) "></path>
                <polygon id="Fill-8" fill="#FFFFFF" opacity="0.160039993" transform="translate(23.000000, 89.286695) scale(-1, 1) translate(-23.000000, -89.286695) " points="31 91.0649622 24.5556123 91.0649622 24.5556123 97.786695 21.4075926 97.786695 21.4075926 91.0649622 15 91.0649622 15 87.5478696 21.4075926 87.5478696 21.4075926 80.786695 24.5556123 80.786695 24.5556123 87.5478696 31 87.5478696"></polygon>
                <polygon id="Fill-3" fill="#FFFFFF" opacity="0.160039993" transform="translate(103.770900, 128.467895) scale(-1, 1) translate(-103.770900, -128.467895) " points="110.4019 129.864395 105.0599 129.864395 105.0599 135.144395 102.4519 135.144395 102.4519 129.864395 97.1399 129.864395 97.1399 127.101395 102.4519 127.101395 102.4519 121.791395 105.0599 121.791395 105.0599 127.101395 110.4019 127.101395"></polygon>
                <path d="M103.7137,220.213995 C103.7137,221.910995 102.3367,223.286995 100.6397,223.286995 C98.9417,223.286995 97.5657,221.910995 97.5657,220.213995 C97.5657,218.515995 98.9417,217.139995 100.6397,217.139995 C102.3367,217.139995 103.7137,218.515995 103.7137,220.213995 Z" id="Stroke-21" stroke="#FFFFFF" opacity="0.160039993" stroke-linecap="round" stroke-linejoin="round" transform="translate(100.639700, 220.213495) scale(-1, 1) translate(-100.639700, -220.213495) "></path>
                <polygon id="Fill-23" fill="#FFFFFF" opacity="0.160039993" transform="translate(100.640100, 220.213595) scale(-1, 1) translate(-100.640100, -220.213595) " points="101.7096 220.438595 100.8486 220.438595 100.8486 221.290595 100.4276 221.290595 100.4276 220.438595 99.5706 220.438595 99.5706 219.993595 100.4276 219.993595 100.4276 219.136595 100.8486 219.136595 100.8486 219.993595 101.7096 219.993595"></polygon>
                <path d="M26.9174295,14.6020865 C25.3057311,14.6020865 23.9989115,15.9086308 23.9989115,17.5203291 C23.9989115,19.1320275 25.3057311,20.4388472 26.9174295,20.4388472 C28.5294033,20.4388472 29.8356721,19.1320275 29.8356721,17.5203291 C29.8356721,15.9086308 28.5294033,14.6020865 26.9174295,14.6020865" id="Path" fill="#0062FF"></path>
                <path d="M26.9174295,15.3109914 C28.1355672,15.3109914 29.1264918,16.3021914 29.1264918,17.5203291 C29.1264918,18.7387423 28.1355672,19.7296668 26.9174295,19.7296668 C25.6990164,19.7296668 24.7080918,18.7387423 24.7080918,17.5203291 C24.7080918,16.3021914 25.6990164,15.3109914 26.9174295,15.3109914" id="Path" fill="#0062FF"></path>
                <polygon id="Path" fill="#0062FF" points="107.938059 84.4329114 112.640682 84.4329114 112.640682 79.7302885 107.938059 79.7302885"></polygon>
                <polygon id="Path" fill="#0062FF" points="108.575908 83.7950623 112.003108 83.7950623 112.003108 80.3675868 108.575908 80.3675868"></polygon>
                <polygon id="Path" fill="#161616" points="155.129466 94.3184996 152.061125 97.3865652 155.129466 100.454906 158.197532 97.3865652"></polygon>
                <polygon id="Path" fill="#161616" points="155.129466 95.2463554 157.269676 97.3865652 155.129466 99.5270505 152.989256 97.3865652"></polygon>
                <path d="M49.8103489,204.318841 C49.6899948,206.406998 46.7717521,218.64566 45.5772997,218.22566 C43.4530636,217.477096 45.367162,205.701673 45.9314767,204.617936 C46.4993718,203.535024 49.9351095,202.230683 49.8103489,204.318841" id="Fill-8" fill="#0B0B0B"></path>
                <path d="M99.1528026,194.942182 C100.853183,196.191441 109.669327,205.298694 108.685012,206.034589 C106.930652,207.345815 97.9737731,199.308805 97.3552026,198.252333 C96.7404879,197.196412 97.448842,193.693199 99.1528026,194.942182" id="Fill-9" fill="#0B0B0B"></path>
                <path d="M85.3445246,84.6567645 C93.1570754,104.22904 101.868564,182.532738 100.02442,195.615256 C99.8999344,196.513919 98.2695082,198.157014 97.9390164,196.311768 C95.9585443,185.222391 77.5749377,117.730732 62.6576393,91.3125941 C61.7512656,89.7028236 84.7727738,83.2180236 85.3445246,84.6567645" id="Fill-10" fill="#000000"></path>
                <path d="M85.3212525,84.6835895 C85.4961377,125.395222 53.3508525,200.139799 48.475823,204.278108 C47.7327672,204.910724 46.4837836,204.709399 46.740741,203.929714 C52.1486885,187.364914 62.8012656,117.298999 62.5762557,89.18296 C62.5679934,88.1187764 85.3132656,82.4706714 85.3212525,84.6835895" id="Fill-12" fill="#000000"></path>
                <path d="M47.0363384,205.826131 C47.176522,205.826131 47.3125744,205.749843 47.3825285,205.616544 C50.1140433,200.329777 55.3506859,182.468072 61.8641285,148.192216 C67.1825679,120.195705 70.3340826,96.6919541 69.8906728,88.3139868 C69.8788302,88.0994426 69.6918269,87.9366754 69.48224,87.9456548 C69.2679711,87.9576065 69.1043777,88.1404786 69.1162203,88.3552983 C70.1043908,107.05122 53.969781,191.177633 46.6940039,205.257685 C46.5967843,205.448269 46.6703187,205.683193 46.8611777,205.782616 C46.9159843,205.812085 46.9776761,205.826131 47.0363384,205.826131" id="Fill-13" fill="#161616"></path>
                <path d="M81.426379,38.5156747 C87.110838,49.540055 97.5692511,61.4826518 120.3495,54.8785993 C120.878838,54.725196 121.154799,56.0972878 120.3495,56.6197403 C104.946104,66.5837927 90.6823528,65.6815501 80.3836774,57.6640944 C79.2321889,56.7695632 78.4034807,38.3110452 81.426379,38.5156747" id="Fill-14" fill="#161616"></path>
                <path d="M81.426379,38.4130019 C79.6599003,47.7226806 80.4112184,76.8847265 85.5115331,84.8206609 C86.0058938,87.0401888 66.396438,94.6563724 63.354261,91.435179 C58.4946544,86.2905232 47.3243069,54.9177626 49.8845167,40.8501036 C50.3047921,38.5198609 62.5057233,33.3047003 64.7428774,32.9653954 C69.8944184,32.1826806 79.5084249,36.6209101 81.426379,38.4130019" id="Fill-15" fill="#161616"></path>
                <path d="M67.9607659,22.2465272 C67.9607659,22.2465272 70.0615921,24.9593141 71.6490544,24.398855 C74.4777889,23.4013206 75.2324118,8.50247471 72.8823397,6.87425176 C71.6297757,6.00891406 67.3421954,6.09208783 65.1945495,7.7965993 C62.0854479,10.262619 62.4707462,32.7068682 57.8174216,35.4670255 C61.265002,36.9512091 68.1667725,36.062737 71.341697,33.6223305 C65.7897102,30.6666321 67.9607659,22.2465272 67.9607659,22.2465272" id="Fill-16" fill="#171717"></path>
                <path d="M68.7115607,22.9612708 C67.0736984,20.7610216 65.6184328,18.6395396 64.8208459,16.7361823 C64.3620131,19.8626347 65.984177,26.5859396 67.5443738,27.2411396 C69.1045705,27.8963396 69.061882,23.4316708 68.7115607,22.9612708" id="Fill-17" fill="#0B0B0B"></path>
                <path d="M62.1205351,19.1722582 C62.5138203,19.2090045 66.4706334,12.7925062 67.6535187,9.94862422 C69.3106597,10.6905783 74.4230925,11.2736209 75.3413089,11.1786045 C80.8002072,10.613739 81.3796695,1.25751603 77.4930859,0.110709468 C74.5709875,-0.751323319 71.9369679,3.69076193 70.4194597,4.1071816 C69.2252826,4.43629635 64.6300695,3.7907357 62.1205351,5.64424389 C59.1326138,7.85192914 61.7275252,19.1354701 62.1205351,19.1722582" id="Fill-18" fill="#0B0B0B"></path>
                <path d="M66.3771593,14.0125993 C65.7349036,13.1544223 64.5291593,12.0417665 63.6536315,12.4562583 C62.7042938,12.9060026 64.7117561,17.7163108 65.9880052,17.51416 C66.6258544,17.4130845 67.0194151,14.8707764 66.3771593,14.0125993" id="Fill-19" fill="#171717"></path>
                <path d="M49.3122426,40.3174609 C53.2613443,38.8977232 58.5996131,48.1234019 56.6502623,51.3635986 C44.8420656,70.9912314 49.1332262,99.3069429 52.4403475,104.377238 C52.8760459,105.044281 51.5105639,105.557369 51.0517311,105.073749 C37.7453049,91.0834806 36.3754164,44.9707855 49.3122426,40.3174609" id="Fill-20" fill="#161616"></path>
                <path d="M151.376998,86.1770027 C150.804533,87.5088724 150.740463,87.5255139 151.809676,86.54672 C168.407846,71.3580793 170.501894,45.6709099 156.151704,27.9544347 C141.801792,10.2382369 116.239711,6.95183025 97.9352384,20.0339422 C96.7556378,20.8768311 96.785315,20.8174766 98.2070486,20.5340174 C101.356163,19.9052484 105.420835,21.6958672 108.339466,25.2990159 C111.258374,28.9027194 112.165887,33.2505725 110.8967,36.2005448 C110.323957,37.5321372 110.278748,37.476111 111.700204,37.1926518 C114.849874,36.5641602 118.914268,38.3545016 121.832898,41.958205 C124.751807,45.5616311 125.65932,49.9094842 124.389855,52.8591792 C123.81739,54.1910489 123.772181,54.1353001 125.193914,53.8518409 C128.343306,53.2230719 132.4077,55.0134133 135.326331,58.6168394 C138.24524,62.2205429 139.152753,66.5681186 137.883566,69.5180909 C137.3111,70.8499607 137.265614,70.7939345 138.687347,70.5104753 C141.837017,69.8819837 145.901133,71.6723251 148.819764,75.2757512 C151.738672,78.8791773 152.646185,83.2270304 151.376998,86.1770027" id="Fill-1" fill="#000000"></path>
                <path d="M51.1187677,107.176861 L162.329339,21.4307413 C163.005259,20.883238 163.886146,20.8505099 164.296635,21.3572416 C164.707123,21.8639734 164.492171,22.719066 163.816252,23.2665693 L52.4356602,109.138332 L51.1187677,107.176861 Z" id="Fill-4" fill="#000000"></path>
                <path d="M50.5887657,106.425916 L54.7355347,103.641526 L57.0769851,107.12874 L52.930216,109.91313 C50.1028357,111.811363 49.347037,115.655813 51.2455477,118.482916 C52.8439579,120.863751 55.8222206,121.775979 58.4116284,120.87124 C59.2323287,120.584452 60.2089037,120.753363 60.6937243,121.475878 L61.2792256,122.347612 C61.7640462,123.069851 61.5757205,124.060849 60.7885805,124.431398 C56.2316,126.577589 50.6506163,125.131725 47.7586117,120.824366 C44.5692801,116.074345 45.8387445,109.615248 50.5887657,106.425916" id="Fill-6" fill="#000000"></path>
                <path d="M58.2065757,103.499589 C58.6111528,103.919314 59.0743921,105.168298 58.9848839,105.833963 C58.8951003,106.499904 55.603402,108.485334 55.0938938,108.557491 C54.5843856,108.629924 53.9267069,107.00115 53.9267069,107.00115 C53.9267069,107.00115 52.1797823,106.660744 51.5923331,105.833963 C51.3317954,105.469871 51.522379,105.029491 51.5923331,104.666776 C51.7245298,103.970816 57.8019987,103.079865 58.2065757,103.499589" id="Fill-21" fill="#FFC3C0"></path>
                <path d="M124.763384,52.1362885 C121.421285,54.0501114 118.304472,58.3792786 118.526452,58.5761967 C119.164302,59.1435409 123.953954,56.9113442 124.763384,56.0002885 C125.572538,55.0889573 125.961692,51.4496918 124.763384,52.1362885" id="Fill-24" fill="#141416"></path>
                <polygon id="Path" fill="#2C2C2D" points="32.9999725 53.3359672 35.2335462 61.6717967 41.335802 55.5695409"></polygon>
                <polygon id="Path" fill="#2C2C2D" points="34.3690348 54.7050295 39.4654938 56.0705114 35.7345167 59.8014885"></polygon>
                <path d="M58.2065757,103.499589 C58.6111528,103.919314 59.0743921,105.168298 58.9848839,105.833963 C58.8951003,106.499904 55.603402,108.485334 55.0938938,108.557491 C54.5843856,108.629924 53.9267069,107.00115 53.9267069,107.00115 C53.9267069,107.00115 52.1797823,106.660744 51.5923331,105.833963 C51.3317954,105.469871 51.522379,105.029491 51.5923331,104.666776 C51.7245298,103.970816 57.8019987,103.079865 58.2065757,103.499589" id="Fill-29" fill="#141416"></path>
            </g>
        </g>
    </g>
</svg>