<?xml version="1.0" encoding="UTF-8"?>
<svg width="14px" height="12px" viewBox="0 0 14 12" version="1.1" xmlns="http://www.w3.org/2000/svg" xmlns:xlink="http://www.w3.org/1999/xlink">
    <!-- Generator: Sketch 63.1 (92452) - https://sketch.com -->
    <title>Icon/Miscellaneous/Rocket</title>
    <desc>Created with Sketch.</desc>
    <defs>
        <path d="M12.0634921,7.33333333 C12.7644444,7.33333333 13.3333333,7.93066667 13.3333333,8.66666667 L13.3333333,10 C13.3333333,10.736 12.7644444,11.3333333 12.0634921,11.3333333 L1.26984127,11.3333333 C0.568888889,11.3333333 0,10.736 0,10 L0,8.66666667 C0,7.93066667 0.568888889,7.33333333 1.26984127,7.33333333 L12.0634921,7.33333333 Z M11.7460317,8.66666667 L1.58730159,8.66666667 C1.41206349,8.66666667 1.26984127,8.816 1.26984127,9 L1.26984127,9.66666667 C1.26984127,9.85066667 1.41206349,10 1.58730159,10 L11.7460317,10 C11.9212698,10 12.0634921,9.85066667 12.0634921,9.66666667 L12.0634921,9 C12.0634921,8.816 11.9212698,8.66666667 11.7460317,8.66666667 Z M7.95435721,0.384442527 C8.82101236,0.713886747 9.62290646,1.25750381 10.2584536,1.94162918 L12.09208,3.79279194 L12.09208,1.33389668 C12.09208,0.966256024 12.3701715,0.668187445 12.7130241,0.668187445 C13.0552418,0.668187445 13.3333333,0.966256024 13.3333333,1.33389668 L13.3333333,5.33360869 C13.3333333,5.36634849 13.3200002,5.39431373 13.3155558,5.42500729 C13.3092067,5.47752739 13.3053972,5.52868332 13.2876197,5.57779302 C13.2692072,5.62553856 13.2400012,5.66509915 13.2127,5.70738805 C13.1955574,5.73398914 13.1866686,5.76400062 13.1650816,5.78991963 C13.162542,5.79196587 13.1593674,5.79264794 13.1568277,5.79469418 C13.1009555,5.85744546 13.0349246,5.90791932 12.9593701,5.94338743 C12.9581002,5.94475159 12.9568304,5.94611575 12.9549257,5.94747991 C12.880006,5.98158386 12.7981024,6 12.7130241,6 L8.989899,6 C8.64768133,6 8.36958979,5.70124934 8.36958979,5.33360869 C8.36958979,4.96596804 8.64768133,4.6665353 8.989899,4.6665353 L11.1466957,4.6665353 L9.39497298,2.8985862 C8.8749799,2.33928131 8.23371858,1.90479691 7.54039446,1.64151436 C6.28961744,1.16610521 4.94296867,1.24249807 3.74679409,1.85568721 C2.54998461,2.46887635 1.64713946,3.54656137 1.20524058,4.8888931 C1.09159129,5.23607137 0.736040463,5.41955066 0.413505068,5.29541226 C0.0903347603,5.17195594 -0.0785518837,4.79135578 0.0357323115,4.44485958 C0.588740834,2.76626285 1.71634489,1.41915657 3.21219803,0.653181704 C4.70741625,-0.114157317 6.3918383,-0.207602157 7.95435721,0.384442527 Z" id="path-1"></path>
    </defs>
    <g id="Symbols" stroke="none" stroke-width="1" fill="none" fill-rule="evenodd">
        <g id="header/circle" transform="translate(-489.000000, -15.000000)">
            <g id="Header">
                <g id="Group">
                    <g id="override" transform="translate(488.000000, 13.000000)">
                        <g id="Icon/Controls/Refresh/override">
                            <g id="Combined-Shape" transform="translate(1.333333, 2.000000)">
                                <mask id="mask-2" fill="white">
                                    <use xlink:href="#path-1"></use>
                                </mask>
                                <use id="Mask" fill="#636366" xlink:href="#path-1"></use>
                            </g>
                        </g>
                    </g>
                </g>
            </g>
        </g>
    </g>
</svg>