<?xml version="1.0" encoding="UTF-8"?>
<svg width="15px" height="15px" viewBox="0 0 15 15" version="1.1" xmlns="http://www.w3.org/2000/svg" xmlns:xlink="http://www.w3.org/1999/xlink">
    <!-- Generator: sketchtool 63.1 (101010) - https://sketch.com -->
    <defs>
        <path d="M7.5,0.625 C11.290625,0.625 14.375,3.709375 14.375,7.5 C14.375,11.290625 11.290625,14.375 7.5,14.375 C3.709375,14.375 0.625,11.290625 0.625,7.5 C0.625,3.709375 3.709375,0.625 7.5,0.625 Z M7.5,1.875 C4.39875,1.875 1.875,4.39875 1.875,7.5 C1.875,10.601875 4.39875,13.125 7.5,13.125 C10.601875,13.125 13.125,10.601875 13.125,7.5 C13.125,4.39875 10.601875,1.875 7.5,1.875 Z M7.5,4.375 C7.845,4.375 8.125,4.655 8.125,5 L8.125,5 L8.125,6.875 L10,6.875 C10.345625,6.875 10.625,7.155 10.625,7.5 C10.625,7.845 10.345625,8.125 10,8.125 L10,8.125 L8.125,8.125 L8.125,10 C8.125,10.345625 7.845,10.625 7.5,10.625 C7.155,10.625 6.875,10.345625 6.875,10 L6.875,10 L6.875,8.125 L5,8.125 C4.655,8.125 4.375,7.845 4.375,7.5 C4.375,7.155 4.655,6.875 5,6.875 L5,6.875 L6.875,6.875 L6.875,5 C6.875,4.655 7.155,4.375 7.5,4.375 Z" id="path-1"></path>
    </defs>
    <g id="Circles---Create-circle" stroke="none" stroke-width="1" fill="none" fill-rule="evenodd">
        <g id="Circles---Create-Circle---0.0---Expand" transform="translate(-151.000000, -61.000000)">
            <g id="sidebar/expand/circles/open" transform="translate(135.000000, 0.000000)">
                <g id="Options-circles" transform="translate(16.000000, 58.000000)">
                    <g id="Group-2" transform="translate(0.000000, 3.000000)">
                        <g id="Group">
                            <g id="Icon/Menu/Burger-Copy">
                                <mask id="mask-2" fill="white">
                                    <use xlink:href="#path-1"></use>
                                </mask>
                                <use id="Icon-Plus-Circle" fill="currentColor" xlink:href="#path-1"></use>
                            </g>
                        </g>
                    </g>
                </g>
            </g>
        </g>
    </g>
</svg>