<?xml version="1.0" encoding="UTF-8"?>
<svg width="20px" height="14px" viewBox="0 0 20 14" version="1.1" xmlns="http://www.w3.org/2000/svg" xmlns:xlink="http://www.w3.org/1999/xlink">
    <defs>
        <path d="M18,8 C19.1045695,8 20,8.8954305 20,10 L20,12 C20,13.1045695 19.1045695,14 18,14 L2,14 C0.8954305,14 1.3527075e-16,13.1045695 0,12 L0,10 C-1.3527075e-16,8.8954305 0.8954305,8 2,8 L18,8 Z M17.5,10 L2.5,10 C2.22385763,10 2,10.2238576 2,10.5 L2,10.5 L2,11.5 C2,11.7761424 2.22385763,12 2.5,12 L2.5,12 L17.5,12 C17.7761424,12 18,11.7761424 18,11.5 L18,11.5 L18,10.5 C18,10.2238576 17.7761424,10 17.5,10 L17.5,10 Z M18,0 C19.1045695,-2.02906125e-16 20,0.8954305 20,2 L20,4 C20,5.1045695 19.1045695,6 18,6 L2,6 C0.8954305,6 1.3527075e-16,5.1045695 0,4 L0,2 C-1.3527075e-16,0.8954305 0.8954305,2.02906125e-16 2,0 L18,0 Z M17.5,2 L2.5,2 C2.22385763,2 2,2.22385763 2,2.5 L2,2.5 L2,3.5 C2,3.77614237 2.22385763,4 2.5,4 L2.5,4 L17.5,4 C17.7761424,4 18,3.77614237 18,3.5 L18,3.5 L18,2.5 C18,2.22385763 17.7761424,2 17.5,2 L17.5,2 Z" id="parth-release"></path>
    </defs>
    <g id="Circles---Home" stroke="none" stroke-width="1" fill="none" fill-rule="evenodd">
        <g id="Circles---2.0---Expand---0.1-circle-release-" transform="translate(-471.000000, -407.000000)">
            <g id="group/circles/active" transform="translate(438.000000, 0.000000)">
                <g id="circle-release">
                    <g id="Release" transform="translate(33.000000, 402.000000)">
                        <g id="Icon/User/Release" transform="translate(0.000000, 5.000000)">
                            <mask id="mask-release" fill="white">
                                <use xlink:href="#parth-release"></use>
                            </mask>
                            <use id="Icon-Schedule" fill="currentColor" xlink:href="#parth-release"></use>
                        </g>
                    </g>
                </g>
            </g>
        </g>
    </g>
</svg>