<?xml version="1.0" encoding="UTF-8"?>
<svg width="4px" height="12px" viewBox="0 0 4 12" version="1.1" xmlns="http://www.w3.org/2000/svg" xmlns:xlink="http://www.w3.org/1999/xlink">
    <defs>
        <path d="M2,9.33333333 C2.73637967,9.33333333 3.33333333,9.930287 3.33333333,10.6666667 C3.33333333,11.4030463 2.73637967,12 2,12 C1.26362033,12 0.666666667,11.4030463 0.666666667,10.6666667 C0.666666667,9.930287 1.26362033,9.33333333 2,9.33333333 Z M2,4.66666667 C2.73637967,4.66666667 3.33333333,5.26362033 3.33333333,6 C3.33333333,6.73637967 2.73637967,7.33333333 2,7.33333333 C1.26362033,7.33333333 0.666666667,6.73637967 0.666666667,6 C0.666666667,5.26362033 1.26362033,4.66666667 2,4.66666667 Z M2,3.10862447e-15 C2.73637967,3.06353422e-15 3.33333333,0.596953667 3.33333333,1.33333333 C3.33333333,2.069713 2.73637967,2.66666667 2,2.66666667 C1.26362033,2.66666667 0.666666667,2.069713 0.666666667,1.33333333 C0.666666667,0.596953667 1.26362033,3.15371472e-15 2,3.10862447e-15 Z" id="path-vertical-dots"></path>
    </defs>
    <g id="Circles---Home-vertical-dots" stroke="none" stroke-width="1" fill="none" fill-rule="evenodd">
        <g id="Circles---2.0---Expand---0.1-circle-vertical-dots" transform="translate(-1072.000000, -15.000000)">
            <g id="group/circles/active-vertical-dots" transform="translate(438.000000, 0.000000)">
                <g id="circle-vertical-dots">
                    <g id="header/circle-vertical-dots">
                        <g id="Header-vertical-dots">
                            <g id="Group-vertical-dots">
                                <g id="more-vertical-dots" transform="translate(634.000000, 15.000000)">
                                    <g id="Icon/User/Group-vertical-dots-Copy">
                                        <mask id="mask-vertical-dots" fill="white">
                                            <use xlink:href="#path-vertical-dots"></use>
                                        </mask>
                                        <use id="Icon-More-Vertical" fill="currentColor" xlink:href="#path-vertical-dots"></use>
                                    </g>
                                </g>
                            </g>
                        </g>
                    </g>
                </g>
            </g>
        </g>
    </g>
</svg>