<?xml version="1.0" encoding="UTF-8"?>
<svg width="24px" height="24px" viewBox="0 0 24 24" version="1.1" xmlns="http://www.w3.org/2000/svg" xmlns:xlink="http://www.w3.org/1999/xlink">
    <defs>
        <path d="M22.8954,16.553 C23.1424,17.047 22.9414,17.647 22.4474,17.895 L12.4474,22.895 C12.3074,22.965 12.1534,23 12.0004,23 C11.8474,23 11.6934,22.965 11.5534,22.895 L1.5534,17.895 C1.0594,17.647 0.8584,17.047 1.1054,16.553 C1.3534,16.059 1.9534,15.86 2.4474,16.105 L12.0004,20.882 L21.5534,16.105 C22.0484,15.86 22.6464,16.059 22.8954,16.553 Z M22.8954,11.553 C23.1424,12.047 22.9414,12.647 22.4474,12.895 L12.4474,17.895 C12.3074,17.965 12.1534,18 12.0004,18 C11.8474,18 11.6934,17.965 11.5534,17.895 L1.5534,12.895 C1.0594,12.647 0.8584,12.047 1.1054,11.553 C1.3534,11.06 1.9534,10.857 2.4474,11.105 L12.0004,15.882 L21.5534,11.105 C22.0484,10.859 22.6464,11.059 22.8954,11.553 Z M12.4472,1.105 L22.4472,6.105 C22.7862,6.275 23.0002,6.621 23.0002,7 C23.0002,7.379 22.7862,7.725 22.4472,7.895 L12.4472,12.895 C12.3072,12.965 12.1532,13 12.0002,13 C11.8472,13 11.6942,12.965 11.5532,12.895 L1.5532,7.895 C1.2142,7.725 1.0002,7.379 1.0002,7 C1.0002,6.621 1.2142,6.275 1.5532,6.105 L11.5532,1.105 C11.8342,0.965 12.1662,0.965 12.4472,1.105 Z M12.0002,3.118 L4.2362,7 L12.0002,10.882 L19.7642,7 L12.0002,3.118 Z" id="path-workspace"></path>
    </defs>
    <g id="Symbols" stroke="none" stroke-width="1" fill="none" fill-rule="evenodd">
        <g id="Icon/Layout/Layers">
            <mask id="mask-workspace" fill="white">
                <use xlink:href="#path-workspace"></use>
            </mask>
            <use id="Icon-workspace" fill="currentColor" xlink:href="#path-workspace"></use>
        </g>
    </g>
</svg>
