<?xml version="1.0" encoding="UTF-8"?>
<svg width="14px" height="12px" viewBox="0 0 14 12" version="1.1" xmlns="http://www.w3.org/2000/svg" xmlns:xlink="http://www.w3.org/1999/xlink">
    <title>Icon/Arrow/Straight/Left Copy 3</title>
    <defs>
        <path d="M8.75705833,2.00783333 L13.6996417,10.2596667 C13.854225,10.528 13.9358917,10.82375 13.9395046,11.123 C13.9446417,11.5914167 13.766725,12.0324167 13.439475,12.3666667 C13.1128083,12.7003333 12.6753083,12.8875833 12.2080583,12.8928333 L2.319975,12.8928333 C2.01314167,12.8893333 1.717975,12.80825 1.45780833,12.6583333 C0.622475,12.1753333 0.334891667,11.1025833 0.817891667,10.2678333 L5.76339167,2.01133333 C5.763975,2.01016667 5.76455833,2.009 5.76514167,2.00783333 C5.910975,1.76808333 6.11455833,1.5645 6.353725,1.41983333 C7.177975,0.919916667 8.25714167,1.18358333 8.75705833,2.00783333 Z M6.95864167,2.41733333 C6.87930833,2.46516667 6.81105833,2.53283333 6.76264167,2.61275 L1.822975,10.85875 C1.667225,11.1294167 1.76289167,11.487 2.041725,11.648 C2.127475,11.6981667 2.22664167,11.725 2.326975,11.7261667 L12.2016417,11.7261667 C12.3515583,11.7244167 12.4968083,11.662 12.606475,11.5505833 C12.714975,11.4391667 12.774475,11.2915833 12.7727625,11.1364167 C12.7715583,11.0366667 12.7441417,10.9380833 12.693975,10.8511667 L7.75839167,2.61041667 C7.592725,2.33858333 7.233975,2.2505 6.95864167,2.41733333 Z M7.67526667,9.56293333 C7.72776667,9.61543333 7.7686,9.6796 7.79776667,9.75543333 C7.82693333,9.82543333 7.84443333,9.90126667 7.84443333,9.9771 C7.84443333,10.1346 7.7861,10.2804333 7.67526667,10.3854333 C7.56443333,10.4962667 7.4186,10.5604333 7.2611,10.5604333 C7.1036,10.5604333 6.95776667,10.4962667 6.84693333,10.3854333 C6.79443333,10.33235 6.7536,10.2687667 6.72443333,10.1987667 C6.69526667,10.1287667 6.67776667,10.0529333 6.67776667,9.9771 C6.67776667,9.90126667 6.69526667,9.82543333 6.72443333,9.75543333 C6.7536,9.6796 6.79443333,9.61543333 6.84693333,9.56293333 C7.0686,9.3471 7.45943333,9.3471 7.67526667,9.56293333 Z M7.2611,4.72593333 C7.5831,4.72593333 7.84443333,4.98726667 7.84443333,5.30926667 L7.84443333,7.6426 C7.84443333,7.96518333 7.5831,8.22593333 7.2611,8.22593333 C6.9391,8.22593333 6.67776667,7.96518333 6.67776667,7.6426 L6.67776667,5.30926667 C6.67776667,4.98726667 6.9391,4.72593333 7.2611,4.72593333 Z" id="path-1-alert"></path>
    </defs>
    <g id="Circles---Create-circle" stroke="none" stroke-width="1" fill="none" fill-rule="evenodd">
        <g id="Circles----Create-segments---Circle-home---9.0---Need-first-deploy" transform="translate(-1173.000000, -313.000000)">
            <g id="Group-16-alert" transform="translate(1098.000000, 0.000000)">
                <g id="Icon/Arrow/Straight/Left-Copy-3" transform="translate(75.000000, 312.000000)">
                    <mask id="mask-2-alert" fill="white">
                        <use xlink:href="#path-1-alert"></use>
                    </mask>
                    <use id="Icon-Alert-Triangle" fill="currentColor" xlink:href="#path-1-alert"></use>
                </g>
            </g>
        </g>
    </g>
</svg>