<?xml version="1.0" encoding="UTF-8"?>
<svg width="16px" height="16px" viewBox="0 0 16 16" version="1.1" xmlns="http://www.w3.org/2000/svg" xmlns:xlink="http://www.w3.org/1999/xlink">
    <defs>
        <path d="M7.33333333,-1.2126596e-12 C11.3766667,-1.2126596e-12 14.6666667,3.29 14.6666667,7.33333333 C14.6666667,11.3766667 11.3766667,14.6666667 7.33333333,14.6666667 C3.29,14.6666667 -7.57912251e-14,11.3766667 -7.57912251e-14,7.33333333 C-7.57912251e-14,3.29 3.29,-1.2126596e-12 7.33333333,-1.2126596e-12 Z M7.33333333,1.33333333 C4.02533333,1.33333333 1.33333333,4.02533333 1.33333333,7.33333333 C1.33333333,10.642 4.02533333,13.3333333 7.33333333,13.3333333 C10.642,13.3333333 13.3333333,10.642 13.3333333,7.33333333 C13.3333333,4.02533333 10.642,1.33333333 7.33333333,1.33333333 Z M8.00562273,4.42544446 C8.00724859,4.42230239 8.68929309,5.56208593 9.65830031,7.18832404 L11.320733,9.97874713 L11.3333333,10 L8.24950039,9.99960643 L5.16566745,9.99921286 L7.03417674,9.67963267 L8.92097687,9.35651033 L8.93845476,9.35257461 L7.96822816,8.23483109 C7.64304118,7.86198831 7.31962888,7.4876977 6.99800156,7.11197114 C6.99800156,7.10646113 7.99993226,4.43489669 8.00562273,4.42544446 Z M7.73776378,4 C7.73341131,4.01618826 7.72699402,4.03178876 7.71866003,4.04644146 L6.43261186,6.71682519 L5.16973207,9.33919318 L4.2515327,9.34037389 L3.48183669,9.34016691 C3.4114548,9.33992207 3.36311261,9.33959739 3.34334038,9.33920885 L3.334,9.338 C3.38748149,9.24660442 3.8234796,8.51380395 4.34949023,7.63109216 L5.36564712,5.92574615 L6.54967314,4.96346343 C7.20082647,4.43450312 7.735325,4.00078714 7.73776378,4 Z" id="path-azure"></path>
    </defs>
    <g id="Workspaces" stroke="none" stroke-width="1" fill="none" fill-rule="evenodd">
        <g id="Settings---Workspace---6.0---Registry---AWS" transform="translate(-660.000000, -235.000000)">
            <g id="Group-7" transform="translate(513.000000, 156.000000)">
                <g id="Group-6" transform="translate(0.000000, 67.000000)">
                    <g id="1.-Buttons/3.-Small/1.-Button/2.-Rounded/1.-White-Copy" transform="translate(116.000000, 0.000000)">
                        <g id="Group" transform="translate(31.000000, 12.000000)">
                            <g id="Icon/Math/Plus/Circle">
                                <g id="icon-card-info-copy" transform="translate(0.666667, 0.666667)">
                                    <mask id="mask-azure" fill="currentColor">
                                        <use xlink:href="#path-azure"></use>
                                    </mask>
                                    <use id="Icon-azure" fill="currentColor" fill-rule="evenodd" xlink:href="#path-azure"></use>
                                </g>
                            </g>
                        </g>
                    </g>
                </g>
            </g>
        </g>
    </g>
</svg>