<?xml version="1.0" encoding="UTF-8"?>
<svg width="85px" height="59px" viewBox="0 0 85 59" version="1.1" xmlns="http://www.w3.org/2000/svg" xmlns:xlink="http://www.w3.org/1999/xlink">
    <defs>
        <path d="M24.575,10.0739 L24.9807634,10.0771984 C38.2117315,10.2924387 48.9336516,21.0147261 49.1467669,34.2461869 L49.15,34.6479 L49.1467013,35.0536634 C48.9314416,48.2846315 38.2081934,59.0065516 24.9767134,59.2196669 L24.575,59.2229 L24.1692366,59.2196013 C10.8046224,59.0021673 3.24007488e-12,48.06339 3.24007488e-12,34.6479 C3.24007488e-12,21.0969 11.024,10.0739 24.575,10.0739 Z M62.376,41.2379 L62.6378224,41.2416994 C67.3342567,41.3781643 71.1297357,45.1736433 71.2662006,49.8700776 L71.27,50.1319 L71.2662006,50.3937224 C71.1297357,55.0901567 67.3342567,58.8856357 62.6378224,59.0221006 L62.376,59.0259 L62.1141776,59.0221006 C57.3307723,58.8831085 53.482,54.9483286 53.482,50.1319 C53.482,45.2279 57.472,41.2379 62.376,41.2379 Z M62.376,44.0169 L62.1522202,44.020942 C58.8844435,44.1391652 56.262,46.8358111 56.262,50.1319 C56.262,53.4289667 58.8844435,56.1246783 62.1522202,56.2428595 L62.376,56.2469 L62.5998435,56.2428595 C65.792497,56.1274267 68.3677203,53.5529546 68.4857715,50.3609274 L68.49,50.1319 L68.485961,49.9081188 C68.3678222,46.6402995 65.6730667,44.0169 62.376,44.0169 Z M24.575,14.9099 L24.2319775,14.9128355 C13.5055811,15.0965458 4.837,23.8794579 4.837,34.6479 C4.837,45.4173316 13.5055811,54.2002541 24.2319775,54.3839645 L24.575,54.3869 L24.9180225,54.3839645 C35.5303083,54.2022085 44.1283292,45.6032291 44.3100648,34.9909228 L44.313,34.6479 L44.3100648,34.3049084 C44.1263751,23.5794601 35.3444316,14.9099 24.575,14.9099 Z M66.856,1.4679 L67.18419,1.47089776 C76.6812186,1.64451618 84.3743839,9.33769236 84.5480022,18.8356766 L84.551,19.1639 L84.5480022,19.4921237 C84.3743839,28.9901297 76.6812186,36.6842617 67.18419,36.8579019 L66.856,36.8609 L66.5277766,36.8579019 C56.9206201,36.6822659 49.16,28.8122596 49.16,19.1639 C49.16,9.4059 57.098,1.4679 66.856,1.4679 Z M66.856,4.2019 L66.5394236,4.20519925 C58.4340007,4.37428067 51.893,11.0206564 51.893,19.1639 C51.893,27.3081308 58.4340007,33.9545192 66.5394236,34.1236007 L66.856,34.1269 L67.1725009,34.1236007 C75.1693995,33.9567439 81.6455724,27.4819143 81.8146135,19.4845935 L81.818,19.1639 L81.8147008,18.8473991 C81.6456193,10.7438752 74.9992436,4.2019 66.856,4.2019 Z" id="path-charles"></path>
    </defs>
    <g id="Symbols" stroke="none" stroke-width="1" fill="none" fill-rule="evenodd">
        <g id="Brand/Charles/Sign/White" transform="translate(0.000000, -1.000000)">
            <mask id="mask-charles" fill="white">
                <use xlink:href="#path-charles"></use>
            </mask>
            <use id="logo-charles" fill="currentColor" xlink:href="#path-charles"></use>
        </g>
    </g>
</svg>
