<?xml version="1.0" encoding="UTF-8"?>
<svg width="16px" height="15px" viewBox="0 0 16 15" version="1.1" xmlns="http://www.w3.org/2000/svg" xmlns:xlink="http://www.w3.org/1999/xlink">
    <defs>
        <path d="M8,0.657402812 C12.0433333,0.657402812 15.3333333,3.90168569 15.3333333,7.88883375 C15.3333333,11.8759818 12.0433333,15.1202647 8,15.1202647 C3.95666667,15.1202647 0.666666667,11.8759818 0.666666667,7.88883375 C0.666666667,3.90168569 3.95666667,0.657402812 8,0.657402812 Z M8,1.97220844 C4.692,1.97220844 2,4.62680099 2,7.88883375 C2,11.1515239 4.692,13.8054591 8,13.8054591 C11.3086667,13.8054591 14,11.1515239 14,7.88883375 C14,4.62680099 11.3086667,1.97220844 8,1.97220844 Z M8,3.28694832 C8.368,3.28694832 8.66666667,3.58146478 8.66666667,3.94435113 L8.66666667,3.94435113 L8.66666667,7.61660324 L10.4713333,9.39619266 C10.732,9.65323715 10.732,10.0687157 10.4713333,10.3257602 C10.3413333,10.4539538 10.1706667,10.5183793 10,10.5183793 C9.82933333,10.5183793 9.65866667,10.4539538 9.52866667,10.3257602 L9.52866667,10.3257602 L7.52866667,8.35355179 C7.40333333,8.23061747 7.33333333,8.06297975 7.33333333,7.88876801 L7.33333333,7.88876801 L7.33333333,3.94435113 C7.33333333,3.58146478 7.632,3.28694832 8,3.28694832 Z" id="path-clock"></path>
    </defs>
    <g id="Page-1" stroke="none" stroke-width="1" fill="none" fill-rule="evenodd">
        <g id="Circles---1.0---History" transform="translate(-968.000000, -13.000000)">
            <g id="Group-22" transform="translate(968.000000, 12.819355)">
                <g id="Group" transform="translate(0.000000, 0.000000)">
                    <g id="Icon/Miscellaneous/Rocket" transform="translate(0.000000, 0.000000)">
                        <mask id="mask-2" fill="white">
                            <use xlink:href="#path-clock"></use>
                        </mask>
                        <use id="Icon-Clock" fill="currentColor" xlink:href="#path-clock"></use>
                    </g>
                </g>
            </g>
        </g>
    </g>
</svg>