<?xml version="1.0" encoding="UTF-8"?>
<svg width="12px" height="12px" viewBox="0 0 12 12" version="1.1" xmlns="http://www.w3.org/2000/svg" xmlns:xlink="http://www.w3.org/1999/xlink">
    <!-- Generator: Sketch 64 (93537) - https://sketch.com -->
    <title>collapse</title>
    <defs>
        <path d="M5.83321667,7.58345 C5.90905,7.58345 5.98488333,7.59861667 6.05605,7.62836667 C6.19896667,7.68728333 6.31213333,7.80103333 6.37163333,7.94395 C6.40138333,8.01511667 6.41655,8.09095 6.41655,8.16678333 L6.41655,8.16678333 L6.41655,11.6667833 C6.41655,11.9893667 6.15521667,12.2501167 5.83321667,12.2501167 C5.51121667,12.2501167 5.24988333,11.9893667 5.24988333,11.6667833 L5.24988333,11.6667833 L5.24988333,9.57495 L2.1623,12.6625333 C2.04855,12.7762833 1.89921667,12.83345 1.74988333,12.83345 C1.60055,12.83345 1.45121667,12.7762833 1.33746667,12.6625333 C1.10996667,12.43445 1.10996667,12.0652 1.33746667,11.8377 L1.33746667,11.8377 L4.42505,8.75011667 L2.33321667,8.75011667 C2.01121667,8.75011667 1.74988333,8.48936667 1.74988333,8.16678333 C1.74988333,7.8442 2.01121667,7.58345 2.33321667,7.58345 L2.33321667,7.58345 Z M11.8375833,1.33758333 C12.0656667,1.1095 12.4343333,1.1095 12.6624167,1.33758333 C12.8905,1.56566667 12.8905,1.93433333 12.6624167,2.16241667 L12.6624167,2.16241667 L9.57483333,5.25 L11.6666667,5.25 C11.98925,5.25 12.25,5.51133333 12.25,5.83333333 C12.25,6.15533333 11.98925,6.41666667 11.6666667,6.41666667 L11.6666667,6.41666667 L8.16666667,6.41666667 C8.09083333,6.41666667 8.015,6.40091667 7.94383333,6.37175 C7.80091667,6.31225 7.68775,6.1985 7.62825,6.05616667 C7.5985,5.985 7.58333333,5.90916667 7.58333333,5.83333333 L7.58333333,5.83333333 L7.58333333,2.33333333 C7.58333333,2.01133333 7.84408333,1.75 8.16666667,1.75 C8.48925,1.75 8.75,2.01133333 8.75,2.33333333 L8.75,2.33333333 L8.75,4.42516667 Z" id="path-collapse"></path>
    </defs>
    <g id="Modules" stroke="none" stroke-width="1" fill="none" fill-rule="evenodd">
        <g id="Circles---Create-Circle---0.0---Expand" transform="translate(-905.000000, -743.000000)">
            <g id="Icon/Controls/Layout-Controls/Minimize/Minimize-2" transform="translate(904.000000, 742.000000)">
                <mask id="mask-collapse" fill="currentColor">
                    <use xlink:href="#path-collapse"></use>
                </mask>
                <use id="Icon-Minimize-2" fill="currentColor" fill-rule="evenodd" xlink:href="#path-collapse"></use>
            </g>
        </g>
    </g>
</svg>