<?xml version="1.0" encoding="UTF-8"?>
<svg width="12px" height="12px" viewBox="0 0 12 12" version="1.1" xmlns="http://www.w3.org/2000/svg" xmlns:xlink="http://www.w3.org/1999/xlink">
    <defs>
        <path d="M10,4 C10.827,4 11.5,4.673 11.5,5.5 L11.5,5.5 L11.5,10 C11.5,10.827 10.827,11.5 10,11.5 L10,11.5 L5.5,11.5 C4.673,11.5 4,10.827 4,10 L4,10 L4,5.5 C4,4.673 4.673,4 5.5,4 L5.5,4 Z M10,5 L5.5,5 C5.2245,5 5,5.2245 5,5.5 L5,5.5 L5,10 C5,10.276 5.2245,10.5 5.5,10.5 L5.5,10.5 L10,10.5 C10.276,10.5 10.5,10.276 10.5,10 L10.5,10 L10.5,5.5 C10.5,5.2245 10.276,5 10,5 L10,5 Z M6.5,0.5 C7.327,0.5 8,1.173 8,2 L8,2 L8,2.5 C8,2.776 7.7765,3 7.5,3 C7.2235,3 7,2.776 7,2.5 L7,2.5 L7,2 C7,1.7245 6.776,1.5 6.5,1.5 L6.5,1.5 L2,1.5 C1.7245,1.5 1.5,1.7245 1.5,2 L1.5,2 L1.5,6.5 C1.5,6.776 1.7245,7 2,7 L2,7 L2.5,7 C2.776,7 3,7.2235 3,7.5 C3,7.7765 2.776,8 2.5,8 L2.5,8 L2,8 C1.173,8 0.5,7.327 0.5,6.5 L0.5,6.5 L0.5,2 C0.5,1.173 1.173,0.5 2,0.5 L2,0.5 Z" id="path-copy"></path>
    </defs>
    <g id="Circles---Home-copy" stroke="none" stroke-width="1" fill="none" fill-rule="evenodd">
        <g id="Circles---3.0---Expand---3-circles---Options-copy" transform="translate(-961.000000, -84.000000)">
            <g id="Group-10-copy" transform="translate(952.000000, 39.000000)">
                <g id="Menu-lateral-copy" transform="translate(9.000000, 12.000000)">
                    <g id="Copy-copy" transform="translate(0.000000, 31.000000)">
                        <g id="Icon/Controls/Copy-copy" transform="translate(0.000000, 2.000000)">
                            <mask id="mask-2" fill="white">
                                <use xlink:href="#path-copy"></use>
                            </mask>
                            <use id="Icon-Copy-copy" fill="currentColor" xlink:href="#path-copy"></use>
                        </g>
                    </g>
                </g>
            </g>
        </g>
    </g>
</svg>