<?xml version="1.0" encoding="UTF-8"?>
<svg width="15px" height="15px" viewBox="0 0 15 15" version="1.1" xmlns="http://www.w3.org/2000/svg" xmlns:xlink="http://www.w3.org/1999/xlink">
    <!-- Generator: sketchtool 64 (101010) - https://sketch.com -->
    <title>33BE9A66-3582-4FA0-AA4D-E69B4694518E</title>
    <desc>Created with sketchtool.</desc>
    <defs>
        <path d="M10.0874375,0.625 C10.2530625,0.625 10.4118125,0.690625 10.5293125,0.808125 L14.1918125,4.470625 C14.3093125,4.5875 14.3749375,4.746875 14.3749375,4.9125 L14.3749375,10.0875 C14.3749375,10.253125 14.3093125,10.411875 14.1918125,10.529375 L10.5293125,14.191875 C10.4118125,14.309375 10.2530625,14.375 10.0874375,14.375 L4.9124375,14.375 C4.7468125,14.375 4.5874375,14.309375 4.4705625,14.191875 L0.8080625,10.529375 C0.6911875,10.411875 0.6249375,10.253125 0.6249375,10.0875 L0.6249375,4.9125 C0.6249375,4.746875 0.6911875,4.5875 0.8080625,4.470625 L4.4705625,0.808125 C4.5874375,0.690625 4.7468125,0.625 4.9124375,0.625 L10.0874375,0.625 Z M9.8286875,1.875 L5.1711875,1.875 L1.8749375,5.17125 L1.8749375,9.82875 L5.1711875,13.125 L9.8286875,13.125 L13.1249375,9.82875 L13.1249375,5.17125 L9.8286875,1.875 Z M7.94375,9.5575 C8,9.61375 8.04375,9.6825 8.075,9.76375 C8.1125,9.83875 8.125,9.92 8.125,10.00125 C8.125,10.17 8.0625,10.32625 7.94375,10.43875 C7.825,10.5575 7.66875,10.62625 7.5,10.62625 C7.33125,10.62625 7.175,10.5575 7.05625,10.43875 C6.9375,10.32625 6.875,10.17 6.875,10.00125 C6.875,9.92 6.89375,9.83875 6.925,9.76375 C6.95625,9.6825 7,9.61375 7.05625,9.5575 C7.11875,9.50125 7.18125,9.45125 7.2625,9.419375 C7.4875,9.32625 7.76875,9.3825 7.94375,9.5575 Z M7.5,4.375 C7.845,4.375 8.125,4.655 8.125,5 L8.125,7.5 C8.125,7.845 7.845,8.125 7.5,8.125 C7.155,8.125 6.875,7.845 6.875,7.5 L6.875,5 C6.875,4.655 7.155,4.375 7.5,4.375 Z" id="path-danger"></path>
    </defs>
    <g id="Circles---Home" stroke="none" stroke-width="1" fill="none" fill-rule="evenodd">
        <g id="Circles---3.1---Expand---3-circles---Erro" transform="translate(-795.000000, -1667.000000)">
            <g id="Group" transform="translate(0.000000, 1657.000000)" fill="#3A3A3C">
            </g>
            <g id="Group-2" transform="translate(0.000000, 1657.000000)" fill="#FF453A">
            </g>
            <g id="Group-3" transform="translate(795.000000, 1667.000000)">
                <g id="Group-14">
                    <g id="Icon/Miscellaneous/Placeholder">
                        <mask id="mask-danger" fill="white">
                            <use xlink:href="#path-danger"></use>
                        </mask>
                        <use id="Icon-danger-Octagon" fill="currentColor" xlink:href="#path-danger"></use>
                    </g>
                </g>
            </g>
        </g>
    </g>
</svg>