<?xml version="1.0" encoding="UTF-8"?>
<svg width="12px" height="12px" viewBox="0 0 12 12" version="1.1" xmlns="http://www.w3.org/2000/svg" xmlns:xlink="http://www.w3.org/1999/xlink">
    <!-- Generator: sketchtool 64 (101010) - https://sketch.com -->
    <title>D7BA2D19-6822-411B-99F3-5752FB067F49</title>
    <desc>Created with sketchtool.</desc>
    <defs>
        <filter x="-8.6%" y="-18.5%" width="117.1%" height="137.1%" filterUnits="objectBoundingBox" id="filter-1">
            <feOffset dx="0" dy="2" in="SourceAlpha" result="shadowOffsetOuter1"></feOffset>
            <feGaussianBlur stdDeviation="5" in="shadowOffsetOuter1" result="shadowBlurOuter1"></feGaussianBlur>
            <feColorMatrix values="0 0 0 0 0   0 0 0 0 0   0 0 0 0 0  0 0 0 0.320886145 0" type="matrix" in="shadowBlurOuter1" result="shadowMatrixOuter1"></feColorMatrix>
            <feMerge>
                <feMergeNode in="shadowMatrixOuter1"></feMergeNode>
                <feMergeNode in="SourceGraphic"></feMergeNode>
            </feMerge>
        </filter>
        <path d="M6,0.5 C9.03250089,0.5 11.5,2.96803613 11.5,6 C11.5,9.03196387 9.03250089,11.5 6,11.5 C2.96749911,11.5 0.5,9.03196387 0.5,6 C0.5,2.96803613 2.96749911,0.5 6,0.5 Z M6,1.50026563 C3.51886291,1.50026563 1.49946865,3.51930228 1.49946865,6 C1.49946865,8.48167168 3.51886291,10.4997344 6,10.4997344 C8.48211123,10.4997344 10.5005313,8.48167168 10.5005313,6 C10.5005313,3.51930228 8.48211123,1.50026563 6,1.50026563 Z M6.30393199,3.42428986 L6.52603613,3.42706747 C6.68287283,3.43778112 6.83970953,3.45726049 6.99654623,3.47479192 C7.08227063,3.48550558 7.16896918,3.49524526 7.25371945,3.5127767 C7.34236628,3.5312821 7.42906482,3.55757925 7.51673751,3.58192846 C7.57128941,3.59751195 7.6258413,3.61309545 7.6803932,3.63160085 C7.74566064,3.65497609 7.81092809,3.68127324 7.87716968,3.70757039 C7.92879915,3.72802373 7.97945448,3.74847707 8.03010981,3.77282628 C8.09829968,3.80496724 8.16941197,3.83516026 8.23370528,3.874119 C8.3554729,3.94716664 8.47918881,4.0192403 8.59413744,4.10202763 C8.78409493,4.24033115 8.95554375,4.40298389 9.10458732,4.58608996 C9.20687212,4.7146538 9.29746723,4.85295732 9.37247609,5.00002656 C9.41241587,5.07794404 9.44261424,5.16170533 9.47378675,5.24449265 C9.50301098,5.31851426 9.52833865,5.39545777 9.55171803,5.47142731 C9.56633015,5.5240216 9.57899398,5.57758987 9.58776125,5.63115814 C9.61601134,5.79478484 9.62964931,5.96035948 9.6199079,6.12593412 C9.61601134,6.2038516 9.60821821,6.28176908 9.59750266,6.35871259 C9.58873539,6.43663007 9.5770457,6.51552152 9.55756288,6.59246503 C9.53613177,6.67817425 9.50788169,6.76193554 9.4796316,6.84569683 C9.46014878,6.90608288 9.43774354,6.96452098 9.41241587,7.02198512 C9.38026922,7.09600673 9.34520014,7.16710643 9.30818278,7.23820613 C9.27798441,7.29664424 9.24486362,7.35216044 9.21174283,7.40865061 C9.12894084,7.5450062 9.03639745,7.67454401 8.92924194,7.79336816 C8.825983,7.90732247 8.72077577,8.01932885 8.6097237,8.12354347 C8.51425788,8.21314857 8.41392136,8.29788383 8.30676585,8.3728794 C8.16356713,8.47222419 8.01354942,8.56280326 7.8635317,8.65046042 C7.76027276,8.71182044 7.65019483,8.7653887 7.54109104,8.81603506 C7.46023734,8.85401983 7.37548707,8.88518682 7.29171095,8.91635382 C7.22059865,8.94362493 7.14948636,8.96894811 7.07739993,8.99329733 L7.07739993,8.99329733 L6.93322706,9.03517797 C6.89426142,9.04589162 6.85626993,9.05465734 6.81827843,9.06537099 C6.76080411,9.08095449 6.70527807,9.09653798 6.64780375,9.11114751 L6.64780375,9.11114751 L6.55915693,9.12575704 C6.47440666,9.14134053 6.39160468,9.15984594 6.30685441,9.17348149 C6.26399221,9.18127324 6.21918172,9.18029927 6.17534538,9.18322118 C6.01753454,9.19588277 5.85874956,9.20757039 5.70093872,9.21925801 C5.70093872,9.21438817 5.69996458,9.21146627 5.69996458,9.20757039 C5.60352462,9.20757039 5.50708466,9.21146627 5.4106447,9.20659642 C5.33758413,9.20367452 5.2654977,9.19101293 5.19243712,9.18224721 C5.10184201,9.17153356 5.00929862,9.16276784 4.91967765,9.14718435 C4.85830677,9.13647069 4.79888417,9.11893926 4.73848742,9.10335576 C4.68296139,9.08972021 4.62840949,9.07705862 4.5738576,9.06147512 C4.5193057,9.04686559 4.46475381,9.03030813 4.41117605,9.01180273 C4.34688275,8.99037542 4.2816153,8.96797415 4.21829614,8.94265097 C4.15497697,8.91927572 4.09360609,8.8920046 4.03223521,8.86375952 C3.96209706,8.83161856 3.89098477,8.79752966 3.8227949,8.76051886 C3.75460503,8.72350806 3.68933758,8.68454932 3.62504428,8.64266867 C3.44580234,8.52579246 3.28117251,8.39138481 3.13212894,8.23944572 C3.01328374,8.11769966 2.90417995,7.98718789 2.81455898,7.84206658 C2.73760184,7.72032052 2.66941197,7.59467859 2.61973078,7.45929697 C2.59440312,7.39014521 2.56712717,7.32196742 2.54277365,7.25281565 C2.53108395,7.21677882 2.52134254,7.17976802 2.51452356,7.14178325 C2.50088558,7.07360545 2.48822175,7.0073756 2.4775062,6.9391978 C2.46873893,6.8836816 2.46191994,6.82719143 2.45704924,6.77070126 C2.44341126,6.6119444 2.44146298,6.45221356 2.47263549,6.2934567 C2.48822175,6.21553922 2.49504074,6.13567381 2.51062699,6.05678236 C2.52134254,6.00516203 2.53887708,5.9535417 2.55446334,5.90386931 C2.57589444,5.83666549 2.59829968,5.76946166 2.62362735,5.7032318 C2.64505845,5.6447937 2.66843783,5.58538162 2.69571378,5.52889145 C2.7366277,5.44610413 2.78143819,5.36429077 2.82819695,5.28345139 C2.86618845,5.21916947 2.90612823,5.15586152 2.94899044,5.09450151 C3.00646475,5.01463609 3.06393907,4.93477067 3.12823238,4.8597751 C3.2928622,4.66887728 3.47015586,4.48966708 3.67277719,4.33870197 C3.80818278,4.23838321 3.94553666,4.14098636 4.08873539,4.0533292 C4.20563231,3.98125553 4.33227063,3.92379139 4.4550124,3.86145741 C4.50761601,3.83516026 4.56021962,3.80886311 4.61477152,3.78548787 C4.67516826,3.76016469 4.73848742,3.73873738 4.79985831,3.71536214 C4.83200496,3.70367452 4.86415161,3.69296086 4.89727241,3.68224721 C4.97033298,3.65692403 5.04436769,3.62965291 5.11840241,3.60627767 C5.1680836,3.59166814 5.22068721,3.58192846 5.27134254,3.56926687 C5.33855827,3.55173543 5.405774,3.534204 5.47298973,3.51862051 C5.50416224,3.51082876 5.53630889,3.50985479 5.56845554,3.50498495 C5.66586964,3.48940145 5.7623096,3.46505224 5.8597237,3.45726049 C6.08182784,3.44070303 6.30393199,3.41148397 6.52603613,3.42706747 Z M6.36238045,4.32018414 C5.22555792,4.31630069 4.28356358,5.22890916 4.29720156,6.40351514 C4.30986539,7.48072428 5.20802338,8.45664069 6.42667375,8.42060386 C7.48166844,8.3884629 8.41197308,7.5079954 8.40905752,6.37527005 C8.40905752,5.233779 7.485565,4.32409244 6.36238045,4.32018414 Z M6.35088558,4.82693594 C7.1974141,4.82987427 7.89198068,5.51652205 7.89198068,6.37848415 C7.8939249,7.23362848 7.19449168,7.89884895 6.39861849,7.92319816 C5.48097768,7.95046928 4.8039497,7.21414911 4.79420829,6.39991146 C4.78446688,5.51262617 5.49364152,4.82305649 6.35088558,4.82693594 Z M6.11222104,5.40159377 C5.59690046,5.40159377 5.17801984,5.82040021 5.17801984,6.33660351 C5.17801984,6.85183283 5.59592632,7.26966531 6.11222104,7.26966531 C6.62851576,7.26966531 7.04642225,6.85183283 7.04642225,6.33562954 C7.04642225,5.81942624 6.62851576,5.40159377 6.11222104,5.40159377 Z" id="path-datadog"></path>
    </defs>
    <g id="Workspaces" stroke="none" stroke-width="1" fill="currentColor" fill-rule="evenodd">
        <g id="Settings---Workspace---12.0---Add-metrics-provider" transform="translate(-524.000000, -309.000000)">
            <g id="Group-10" transform="translate(514.000000, 239.000000)">
                <g id="Icon/logos/Prometheus-Copy-2" transform="translate(10.000000, 70.000000)">
                    <mask id="mask-datadog" fill="currentColor">
                        <use xlink:href="#path-datadog"></use>
                    </mask>
                    <use id="Mask" fill="currentColor" fill-rule="evenodd" xlink:href="#path-datadog"></use>
                </g>
            </g>
        </g>
    </g>
</svg>