<?xml version="1.0" encoding="UTF-8"?>
<svg width="22px" height="22px" viewBox="0 0 22 22" version="1.1" xmlns="http://www.w3.org/2000/svg" xmlns:xlink="http://www.w3.org/1999/xlink">
    <defs>
        <path d="M16,11.9995 C16,13.1025 16.897,13.9995 18,13.9995 C19.103,13.9995 20,13.1025 20,11.9995 L20,10.9995 C20,6.0375 15.962,2.0005 11,2.0005 C8.596,2.0005 6.335,2.9365 4.636,4.6365 C2.936,6.3365 2,8.5965 2,11.0005 C2.001,15.9635 6.038,20.0005 11.001,20.0005 C12.968,19.9995 14.911,19.3415 16.473,18.1465 C16.91,17.8115 17.54,17.8945 17.874,18.3325 C18.21,18.7715 18.127,19.3975 17.688,19.7335 C15.78,21.1945 13.405,21.9995 11.001,22.0005 C4.936,22.0005 0.001,17.0655 0,11.0005 C0,8.0625 1.144,5.3005 3.221,3.2225 C5.299,1.1445 8.061,0.0005 11,0.0005 C17.065,0.0005 22,4.9345 22,10.9995 L22,11.9995 C22,14.2055 20.206,15.9995 18,15.9995 C16.656085,15.9995 15.4650779,15.3336828 14.7394476,14.3145173 C13.8233502,15.3475533 12.4863743,15.9995 11,15.9995 C8.243,15.9995 6,13.7565 6,10.9995 C6,8.2425 8.243,5.9995 11,5.9995 C13.757,5.9995 16,8.2425 16,10.9995 L16,11.9995 Z M11,7.9995 C9.346,7.9995 8,9.3455 8,10.9995 C8,12.6535 9.346,13.9995 11,13.9995 C12.654,13.9995 14,12.6535 14,10.9995 C14,9.3455 12.654,7.9995 11,7.9995 Z" id="path-email"></path>
    </defs>
    <g id="Settings-email" stroke="none" stroke-width="1" fill="none" fill-rule="evenodd">
        <g id="Settings-email---Workspace---16.0---Profile" transform="translate(-470.000000, -264.000000)">
            <g id="Group-email-13" transform="translate(438.000000, 0.000000)">
                <g id="Group-email-2" transform="translate(31.000000, 263.000000)">
                    <g id="Icon/User/Group-email" transform="translate(1.000000, 1.000000)">
                        <mask id="mask-email" fill="white">
                            <use xlink:href="#path-email"></use>
                        </mask>
                        <use id="Icon-At-Sign" fill="currentColor" xlink:href="#path-email"></use>
                    </g>
                </g>
            </g>
        </g>
    </g>
</svg>