<?xml version="1.0" encoding="UTF-8"?>
<svg width="300px" height="218px" viewBox="0 0 300 218" version="1.1" xmlns="http://www.w3.org/2000/svg" xmlns:xlink="http://www.w3.org/1999/xlink">
    <defs>
        <path d="M31.232073,0.0938722295 C14.1082138,0.0962190352 0.227249022,13.9756193 0.222946545,31.0990874 L0.222946545,31.0990874 C0.220599739,48.2249022 14.1019557,62.1097784 31.2277705,62.1121252 L31.2277705,62.1121252 C48.3535854,62.114472 62.2392438,48.2327249 62.2408083,31.10691 L62.2408083,31.10691 C62.2431551,13.9810952 48.3617992,0.0962190352 31.2359844,0.0938722295 L31.2359844,0.0938722295" id="path-empty-groups-1"></path>
        <polygon id="path-empty-groups-3" points="-0.000971414746 0.328818023 42.6739244 0.328818023 42.6739244 43.0051064 -0.000971414746 43.0051064"></polygon>
        <path d="M24.5202086,3.32816167 C8.35462842,16.2359844 0.316818774,50.6558018 0.316818774,50.6558018 L0.316818774,50.6558018 C0.316818774,50.6558018 5.726206,49.5606258 18.742764,51.273794 L18.742764,51.273794 C32.0061278,53.0182529 32.9370274,52.5919166 32.9370274,52.5919166 L32.9370274,52.5919166 C32.9370274,52.5919166 48.8878748,9.55932203 48.7271186,5.42112125 L48.7271186,5.42112125 C48.5667536,1.28292047 44.7340287,0.590612777 44.7340287,0.590612777 L44.7340287,0.590612777 L35.1078227,0.227249022 L35.1078227,0.219035202 C35.1078227,0.219035202 34.4937419,0.0977835724 33.4799218,0.0977835724 L33.4799218,0.0977835724 C31.4917862,0.0977835724 27.9657106,0.56440678 24.5202086,3.32816167" id="path-empty-groups-5"></path>
        <polygon id="path-empty-groups-7" points="0.129074316 0.132985658 43.3228912 0.132985658 43.3228912 61.5725277 0.129074316 61.5725277"></polygon>
        <polygon id="path-empty-groups-9" points="0.105606258 0.132985658 10.2398957 0.132985658 10.2398957 4.60000938 0.105606258 4.60000938"></polygon>
        <path d="M0.580382968,6.22603974 L0.580382968,-5.77315973e-15 L6.80619974,-5.77315973e-15 L6.80619974,6.22603974 L0.580382968,6.22603974 Z" id="path-empty-groups-11"></path>
    </defs>
    <g id="User-group" stroke="none" stroke-width="1" fill="none" fill-rule="evenodd">
        <g id="Root---User-group---0.0" transform="translate(-1029.000000, -165.000000)">
            <g id="illustration/user-group" transform="translate(1029.000000, 155.000000)">
                <g id="Group-empty-groups-2">
                    <g id="illustration/htpothesis" transform="translate(140.500000, 55.500000) rotate(9.000000) translate(-140.500000, -55.500000) translate(94.000000, 7.000000)" fill-rule="nonzero">
                        <g id="Group-empty-groups-57" transform="translate(0.898069, 0.107413)">
                            <g id="Group-empty-groups-56">
                                <g id="Group" transform="translate(0.062133, 0.000000)">
                                    <path d="M56.2505315,12.6143501 C64.2271262,10.9600091 71.9965366,-5.58340088 80.2839077,2.17132256 C100.173598,20.7826588 79.8695391,56.6611793 77.6941042,59.3494834 C75.4150772,62.0377876 78.3156571,74.5487414 73.3432344,80.2355386 C67.2312982,87.1630915 58.4259664,79.718557 50.6565559,85.5087505 C47.0308311,88.1970547 47.2380154,95.3314002 39.2614207,95.5381928 C30.559681,95.7449855 29.2129832,89.3344141 24.4477448,89.8513957 C14.3993073,90.9887551 8.39096326,99.7774417 3.00417203,92.953285 C-3.10776417,84.991769 9.32329251,75.065723 10.462806,71.1366631 C12.9490174,62.5547691 -2.69339561,61.2106171 0.414368556,48.9064559 C3.31494845,37.3260689 16.2639658,37.3260689 22.6866784,31.432479 C30.9740495,23.9879445 28.2806539,10.7532165 36.2572486,7.44453451 C45.1661726,3.61887094 47.7559761,14.4754838 56.2505315,12.6143501 Z" id="Path" fill="#0E0E0E"></path>
                                    <path d="M82.4593426,12.9245391 C89.2964238,16.6468063 92.5077801,32.6732348 90.1251609,33.8105942 C88.3640945,34.6377647 85.8778832,32.8800274 85.8778832,32.8800274 C85.8778832,32.8800274 84.268642,40.5843927 89.9662097,43.1693005 C87.997959,45.7542083 82.2014085,47.516029 79.0936443,43.7937618 C83.0301456,41.0020613 81.1126448,31.742668 80.491092,29.4679491 C75.6222614,12.7177465 79.2479863,11.0634054 82.4593426,12.9245391 Z" id="Path" fill="#FFAEA9"></path>
                                    <path d="M87.3281731,33.6038016 C85.6706989,32.8800274 82.6665269,30.9154975 80.8018684,27.0898339 C81.0090527,28.0204007 79.9731313,29.6747417 79.9731313,29.6747417 L80.8018684,37.2226725 C80.6982762,37.2226725 81.7341976,36.0853131 87.3281731,33.6038016 Z" id="Path" fill="#FF887D"></path>
                                    <path d="M81.5270134,11.1668018 C82.4593426,13.0279354 82.0449741,30.9154975 78.2120649,34.4309721 C74.3791558,37.9464467 71.2713916,27.7102118 71.2713916,27.7102118 L74.2755636,13.6483133 C74.2755636,13.6483133 80.5946841,9.20227182 81.5270134,11.1668018 Z" id="Path" fill="#0E0E0E"></path>
                                    <path d="M79.765947,28.9509675 C80.6982762,29.8629475 83.5988561,39.726561 79.765947,41.358525 C75.9330379,42.9904891 70.4426545,37.8973682 70.4426545,37.8973682 L73.4468265,31.3695119 C73.4468265,31.3695119 78.8336177,28.0389876 79.765947,28.9509675 Z" id="Path-Copy-2" fill="#0E0E0E"></path>
                                </g>
                            </g>
                        </g>
                    </g>
                    <g id="Ativo-4" transform="translate(109.000000, 39.500000) rotate(11.000000) translate(-109.000000, -39.500000) translate(92.000000, 15.000000)">
                        <path d="M24.085931,31.4182494 C24.085931,31.4182494 29.9914267,32.5021165 30.676886,31.4182494 C32.9178107,27.8470464 28.9500558,3.29328842 22.0690988,2.23721281 C13.4744936,0.847639635 10.3108352,10.5746518 14.1599529,19.6346689 C18.4836193,29.8063445 21.7395511,39.4916695 16.1504213,48.1903976 C17.9827068,48.843497 29.0291472,48.7879141 30.0441543,46.0921421 C24.244114,40.8534512 24.085931,31.4182494 24.085931,31.4182494 Z" id="Path" fill="#FFAEA9" fill-rule="nonzero"></path>
                        <path d="M6.25080697,4.26598964 C5.8948954,3.47393293 3.04760286,-0.653099391 2.296234,0.097270122 C1.54486514,0.847639635 -0.656513813,4.97467195 0.305765608,6.36424513 C1.26804503,7.7538183 5.57852956,7.05903171 5.57852956,7.05903171 C5.57852956,7.05903171 6.61990044,5.05804635 6.25080697,4.26598964 Z" id="Path" fill="#050505"></path>
                        <path d="M8.20172963,4.26598964 C7.02853965,3.77963903 5.19625417,3.34887134 4.94579789,4.96077622 C4.73371318,5.61158789 4.8378036,6.33065935 5.22443993,6.8851393 C5.61104728,7.43961926 6.23099813,7.75902377 6.88353864,7.73992257 C8.35991255,7.7538183 9.42764725,4.75234025 8.20172963,4.26598964 Z" id="Path" fill="#222222" fill-rule="nonzero"></path>
                        <path d="M17.4686123,28.6391031 C17.8245238,28.1944397 18.1277078,17.8560153 18.1277078,17.8560153 L18.7868033,16.4664421 C18.7868033,16.4664421 18.1804354,11.4778744 18.1277078,10.5468604 C20.3159048,10.5468604 26.8936778,5.51660549 26.0368537,2.8903122 C24.9163914,-0.611412196 11.5367528,-1.72307073 8.1621839,4.97467195 C2.81032849,15.743864 13.856769,26.2629329 17.4686123,28.6391031 Z" id="Path" fill="#050505"></path>
                        <path d="M18.9977138,17.8004323 C18.536347,16.8694183 13.7249499,14.4376653 13.553585,15.8411342 C12.9867629,20.0098537 18.1804354,23.4559951 18.9977138,23.0252275 C19.8149922,22.5944598 19.4327168,18.7314464 18.9977138,17.8004323 Z" id="Path" fill="#FFAEA9" fill-rule="nonzero"></path>
                        <path d="M18.7868033,23.7617012 C19.4590807,34.1557086 31.2700719,35.5452817 32.6937182,34.2112915 C34.1173645,32.8773012 32.2323513,22.010839 31.3755272,21.7051329 C30.5187031,21.3994268 27.302317,23.1919762 26.7486768,23.7894927 C26.3328892,24.3973904 26.1029533,25.1245524 26.0895813,25.8738525 C26.0895813,25.8738525 21.7131873,25.2068573 18.7999852,16.1468403 C18.6766658,15.858266 18.3922312,15.6850197 18.0934766,15.716513 C17.794722,15.7480062 17.5484636,15.9771956 17.4817942,16.2857976 C17.4158846,17.8977025 18.7472575,22.8167915 18.7868033,23.7617012 Z" id="Path" fill="#050505"></path>
                    </g>
                    <g id="Group-empty-groups-149" transform="translate(0.000000, 55.000000)">
                        <path d="M231.774368,128.749635 C231.772021,145.87545 245.653377,159.760717 262.779583,159.762673 C279.905398,159.76502 293.790665,145.883272 293.792621,128.757458 C293.794576,111.631643 279.91322,97.7467666 262.787405,97.7444198 L262.783494,97.7444198 C245.660026,97.7467666 231.77867,111.626167 231.774368,128.749635" id="Fill-1" fill="#08B98E"></path>
                        <g id="Group-empty-groups-5" transform="translate(231.551499, 97.650587)">
                            <mask id="mask-empty-groups-2" fill="white">
                                <use xlink:href="#path-empty-groups-1"></use>
                            </mask>
                            <use id="Clip-4" fill="#0A936D" xlink:href="#path-empty-groups-1"></use>
                            <path d="M38.4482269,34.7758279 L62.2409257,27.8840417 C60.4569622,10.8513168 45.2027249,-1.51009126 28.17,0.274654498 C24.7643937,0.63136897 21.441708,1.54975228 18.3361017,2.99225554 L38.4482269,34.7758279" id="Fill-3" fill="#0AA67D" mask="url(#mask-empty-groups-2)"></path>
                        </g>
                        <g id="Group-empty-groups-112" transform="translate(0.000000, 3.258149)">
                            <polygon id="Fill-6" fill="#FFFFFF" points="259.174394 157.329817 258.787562 157.263325 266.342581 110.777014 266.730196 110.839596"></polygon>
                            <g id="Group-empty-groups-10" transform="translate(256.975228, 75.226858)">
                                <mask id="mask-empty-groups-4" fill="white">
                                    <use xlink:href="#path-empty-groups-3"></use>
                                </mask>
                                <g id="Clip-9"></g>
                                <path d="M1.56050847,29.6676141 C5.97915254,40.5892568 18.4148761,45.8609648 29.3365189,41.4423207 C40.2581617,37.0236767 45.5298696,24.5879531 41.1112256,13.6663103 C36.6925815,2.74466754 24.2568579,-2.52704042 13.3352151,1.89160365 C13.3309126,1.89355932 13.326219,1.89512386 13.3219166,1.89707953 C2.41005215,6.32237288 -2.85344198,18.7510561 1.56050847,29.6676141" id="Fill-8" fill="#10AA80" mask="url(#mask-empty-groups-4)"></path>
                            </g>
                            <polygon id="Fill-11" fill="#FFFFFF" points="262.865711 133.955671 262.701434 133.599739 285.395046 123.003911 285.562842 123.359844"></polygon>
                            <polygon id="Fill-13" fill="#FFFFFF" points="245.680639 112.115359 245.913364 111.800887 264.255997 125.354081 264.023664 125.668553"></polygon>
                            <polygon id="Fill-15" fill="#FFFFFF" points="269.623846 116.590287 280.806767 85.4266623 281.174433 85.5584746 269.991904 116.72249"></polygon>
                            <polygon id="Fill-17" fill="#FFFFFF" points="275.627992 100.124081 291.543638 94.2997001 291.678188 94.6669752 275.762542 100.491356"></polygon>
                            <polygon id="Fill-19" fill="#FFFFFF" points="272.561186 88.6526597 272.837718 88.3761278 278.150887 93.6889048 277.874355 93.9654368"></polygon>
                            <path d="M53.5221512,63.7184355 C61.8228031,43.6794524 84.7964668,34.1631551 104.835841,42.463807 C124.875215,50.7640678 134.391121,73.7381226 126.090469,93.7774967 C117.790209,113.81648 94.8161538,123.332777 74.7771708,115.032125 C54.7377966,106.731473 45.2214993,83.7578096 53.5221512,63.7184355" id="Fill-21" fill="#0A936D"></path>
                            <path d="M56.546206,57.8487223 C45.0175228,76.2371186 50.5786701,100.4894 68.9670665,112.017692 C77.5078748,117.372321 87.7794524,119.239987 97.6583312,117.234641 L56.546206,57.8487223 Z" id="Fill-23" fill="#0A936D"></path>
                            <polygon id="Fill-25" fill="#FFFFFF" points="83.4887093 112.26661 90.7696741 65.4490091 91.1572881 65.4986832 83.8763233 112.316284"></polygon>
                            <polygon id="Fill-27" fill="#FFFFFF" points="86.9060887 96.2108214 114.425515 75.9367666 114.657458 76.2516297 87.1384224 96.5256845"></polygon>
                            <polygon id="Fill-29" fill="#FFFFFF" points="65.3570535 73.0447197 65.4927771 72.6782269 88.9745241 81.364146 88.8384094 81.73103"></polygon>
                            <path d="M62.2295046,135.148553 C47.9929987,149.384276 24.9117731,149.383103 10.6760495,135.146597 C-3.55928292,120.910091 -3.55850065,97.8284746 10.6780052,83.5931421 C24.9141199,69.3585919 47.993781,69.3585919 62.2295046,83.5931421 C76.4660104,97.8284746 76.4667927,120.910091 62.2314602,135.146597 C62.230678,135.147379 62.2298957,135.148162 62.2295046,135.148553" id="Fill-31" fill="#10AA80"></path>
                            <polygon id="Fill-33" fill="#FFFFFF" points="39.5577836 142.326023 32.0923338 84.8957757 32.4795567 84.8410169 39.9450065 142.267353"></polygon>
                            <polygon id="Fill-35" fill="#FFFFFF" points="37.5253846 118.783572 37.2238201 118.537158 52.8066102 99.4615385 53.112086 99.7118644"></polygon>
                            <polygon id="Fill-37" fill="#FFFFFF" points="8.49704042 98.6714472 8.60655802 98.2959583 35.560013 106.167536 35.4504954 106.543025"></polygon>
                            <path d="M163.399948,121.85781 L158.553794,129.16811 L162.050926,137.475802 L169.482477,140.765241 C170.205293,139.460026 170.018331,137.839166 169.016636,136.732647 L166.740235,134.221565 L166.325632,129.16811 L168.543364,122.687014 L163.399948,121.85781 Z" id="Fill-39" fill="#3A3A3C"></path>
                            <path d="M158.55395,62.6049935 L184.686023,82.8227249 L161.945085,121.857927 L168.042868,125.061317 C168.042868,125.061317 196.231917,90.4263755 198.257992,84.8683572 C200.284068,79.310339 201.68824,76.0991265 198.883807,72.8722686 C196.079374,69.6454107 158.55395,62.6049935 158.55395,62.6049935" id="Fill-41" fill="#2C2C2E"></path>
                            <path d="M218.205724,58.8422425 L199.474302,58.8422425 L197.909765,52.4002608 L191.831538,52.4002608 C190.885385,52.4014342 190.117979,51.6352021 190.116804,50.6890482 C190.115632,49.7428944 190.881864,48.9750978 191.828018,48.9739244 L191.831538,48.9739244 L200.620326,48.9739244 L202.184863,55.4159061 L215.436493,55.4159061 L216.766349,48.9739244 L221.95279,48.9739244 C222.898944,48.9750978 223.665176,49.7428944 223.664004,50.6890482 C223.66322,51.6336375 222.897379,52.3990874 221.95279,52.4002608 L219.539492,52.4002608 L218.205724,58.8422425 Z" id="Fill-43" fill="#3A3A3C"></path>
                            <path d="M220.337484,45.2073403 C220.337484,45.2073403 221.088462,45.4928683 222.829009,47.4915645 C224.569557,49.4902608 224.209713,51.3559713 223.220143,53.0104694 C222.078031,54.9465841 219.105802,54.3481486 219.105802,54.3481486 L219.527836,52.3924772 C219.527836,52.3924772 220.118449,50.82794 218.792503,49.9517992 C217.466558,49.0756584 216.402673,48.3872621 216.402673,48.3872621 L220.337484,45.2073403 Z" id="Fill-45" fill="#FFAEA9"></path>
                            <path d="M189.926832,1.6896219 L198.101538,27.8525945 L220.752516,44.8708475 C220.461904,46.2116558 219.693325,47.400704 218.589153,48.2150456 L216.80558,49.439296 C216.80558,49.439296 196.231917,37.3884485 192.16412,33.8565059 C188.096323,30.3245632 181.306232,10.3884485 181.306232,10.3884485 L189.926832,1.6896219 Z" id="Fill-47" fill="#2C2C2E"></path>
                            <path d="M92.2058801,126.766662 L87.9034029,136.118683 L96.5552934,142.103038 L101.248905,144.058709 C102.068331,142.562621 101.864941,140.71412 100.74043,139.431591 L96.8721121,135.023507 L98.4366493,126.762751 L92.2058801,126.766662 Z" id="Fill-49" fill="#3A3A3C"></path>
                            <path d="M171.731421,143.272412 L163.951369,140.385841 C163.456193,140.171108 163.228553,139.595359 163.443286,139.099791 C163.641982,138.640991 164.15515,138.40631 164.632334,138.555332 L171.042634,140.933429 L179.612386,129.54751 C179.937027,129.115698 180.549544,129.028083 180.981356,129.351943 C181.413559,129.676193 181.501565,130.2891 181.176923,130.720913 L171.731421,143.272412 Z" id="Fill-51" fill="#48484A"></path>
                            <path d="M155.276284,58.8422425 L136.525306,58.8422425 L134.980326,52.4002608 L128.894276,52.4002608 C127.948123,52.4014342 127.180326,51.6352021 127.179151,50.6890482 C127.177979,49.7428944 127.944211,48.9750978 128.890365,48.9739244 L128.894276,48.9739244 L137.675241,48.9739244 L139.239778,55.4159061 L152.491408,55.4159061 L153.825176,48.9739244 L159.011617,48.9739244 C159.957771,48.9750978 160.724003,49.7428944 160.722831,50.6890482 C160.721656,51.6336375 159.956206,52.3990874 159.011617,52.4002608 L156.606141,52.4002608 L155.276284,58.8422425 Z" id="Fill-53" fill="#3A3A3C"></path>
                            <path d="M150.242347,47.1668449 C150.242347,47.1668449 153.398801,47.9491134 154.564381,48.8174316 C155.729961,49.6857497 154.231917,54.0195176 155.737784,54.5866623 C157.243651,55.153807 159.414446,54.8956584 160.040261,54.0273403 C160.666076,53.1590222 160.486154,49.2202999 160.063729,47.2450717 C159.641304,45.2698435 151.427484,42.9034811 151.427484,42.9034811 L150.242347,47.1668449 Z" id="Fill-55" fill="#FBAC82"></path>
                            <path d="M100.959426,145.795306 C100.824485,145.793351 100.691499,145.764016 100.568292,145.709257 L93.4261799,142.494133 L103.169335,129.547588 C103.493585,129.115385 104.106493,129.027771 104.538305,129.352021 C104.970508,129.676271 105.058123,130.288787 104.733872,130.720991 L96.461382,141.715776 L101.37794,143.925684 C101.870378,144.147066 102.090587,144.725945 101.868814,145.218383 C101.71236,145.566493 101.368162,145.791395 100.986806,145.795306 L100.959426,145.795306 Z" id="Fill-57" fill="#48484A"></path>
                            <path d="M98.362412,51.8291265 C98.362412,51.8291265 121.114694,66.1681095 122.569713,73.8578096 C124.024342,81.5475098 98.5184746,131.507093 98.5184746,131.507093 L90.9621512,127.779583 L108.340248,82.6935332 C108.340248,82.6935332 90.8721904,70.4275619 83.9686701,64.1928814 C77.0651499,57.9582008 98.362412,51.8291265 98.362412,51.8291265" id="Fill-59" fill="#2C2C2E"></path>
                            <path d="M118.40425,2.56588005 C118.40425,2.56588005 112.572438,3.39899609 109.744146,7.36509778 C106.916636,11.3311995 121.193038,37.4824381 121.193038,37.4824381 L150.52811,48.2073403 C150.52811,48.2073403 151.87322,46.9635332 152.217419,45.4107301 C152.430978,44.4004302 152.551838,43.3725293 152.577262,42.3403259 L128.847145,31.4785267 C128.847145,31.4785267 121.266962,6.05479791 120.320417,4.34162973 C119.209987,2.33119948 118.40425,2.56588005 118.40425,2.56588005" id="Fill-61" fill="#2C2C2E"></path>
                            <path d="M50.0611604,117.790052 C44.3991004,117.800222 39.6026206,121.964237 38.7964928,127.568409 L39.0781095,129.473233 L39.0781095,129.175971 C39.0734159,123.103611 43.9923207,118.177666 50.0646806,118.172973 C56.1366493,118.168279 61.0629857,123.087184 61.0676793,129.159544 C61.0719817,135.231904 56.1534681,140.15824 50.0811082,140.162542 C45.1254368,140.166063 40.7795437,136.853937 39.4692438,132.074276 L39.7469492,133.967366 C42.3972751,139.66502 49.1650717,142.135033 54.8623338,139.484707 C60.5603781,136.83399 63.0303911,130.066584 60.3796741,124.368931 C58.512399,120.355502 54.487236,117.78927 50.0611604,117.790052 M38.6791525,129.500613 C38.7049674,130.394355 38.8363885,131.281838 39.0702868,132.144681 L38.6791525,129.500613" id="Fill-63" fill="#12BCA1"></path>
                            <path d="M38.7847197,127.560587 C38.7092308,128.093312 38.6712907,128.630339 38.6712907,129.168149 L38.6712907,129.500613 L39.062425,132.144681 C39.2329596,132.767366 39.455515,133.374407 39.7273533,133.959544 L39.449648,132.066454 C39.2153585,131.218475 39.0839374,130.345072 39.0585137,129.465411 L38.776897,127.560587" id="Fill-65" fill="#E4EAF5"></path>
                            <path d="M71.7026597,118.689778 C71.6518123,118.881434 71.6009648,119.080913 71.546206,119.268657 C77.0095698,131.14545 71.8106128,145.202816 59.9338201,150.666571 C54.3969231,153.213638 48.0906649,153.526936 42.3284746,151.541147 L42.3910561,151.975306 C54.9844068,156.206597 68.6232595,149.427849 72.8545502,136.834889 C74.8591134,130.868527 74.4456845,124.354185 71.7026597,118.689778 M32.5070926,145.615463 C35.1253455,148.409335 38.371369,150.539844 41.9764537,151.830587 L41.9099609,151.392516 C38.5857106,150.165919 35.5778879,148.212203 33.105528,145.674133 L32.5070926,145.615463" id="Fill-67" fill="#8E8E93"></path>
                            <path d="M50.0573272,105.109518 C49.5918774,105.109518 49.1342503,105.109518 48.6766232,105.148631 L48.3363364,105.563233 C48.9073924,105.520209 49.4784485,105.500652 50.0573272,105.500652 C59.2990482,105.503781 67.6963103,110.877966 71.5697132,119.268579 C71.624472,119.076923 71.6753194,118.877445 71.7257757,118.6897 C67.701395,110.387093 59.2880965,105.113038 50.0612386,105.109518 M48.1407692,105.187744 C43.8175619,105.529205 39.6680183,107.039374 36.1368579,109.556714 L36.1990482,109.994785 C39.6026988,107.52086 43.607914,106.006389 47.7965711,105.610169 L48.1407692,105.187744 M35.7691917,109.818774 C25.0845763,117.691917 22.8054368,132.736115 30.67897,143.42073 C31.2441591,144.188136 31.8547197,144.92073 32.5071317,145.615385 L33.1055671,145.674055 C23.9894003,136.32751 24.1763625,121.360365 33.5229074,112.244589 C34.252764,111.532334 35.027601,110.868579 35.8435072,110.256845 L35.7766232,109.818774" id="Fill-69" fill="#8E8E93"></path>
                            <path d="M36.1289179,109.541108 L35.7690743,109.803168 L35.8355671,110.241239 L36.1914993,109.979179 L36.1289179,109.541108 L36.1289179,109.541108 Z M41.9098827,151.392477 L41.9763755,151.830548 L42.3909778,151.975267 L42.3283963,151.541108 L41.9098827,151.392477 Z" id="Fill-71" fill="#E4EAF5"></path>
                            <path d="M48.6688787,105.152503 L48.1330248,105.191617 L47.7888266,105.614042 C47.9644459,105.594485 48.1486701,105.57884 48.3285919,105.567106 L48.6688787,105.152503" id="Fill-73" fill="#E4EAF5"></path>
                            <path d="M239.209713,105.359883 C226.082855,107.418814 217.110626,119.728983 219.169557,132.855841 C221.228096,145.982308 233.538657,154.954928 246.665515,152.895997 C247.05,152.835763 247.433312,152.766141 247.814668,152.687132 L247.29837,152.393781 C234.521186,155.149322 221.929009,147.024681 219.173077,134.247497 C216.417927,121.469922 224.542177,108.878136 237.319752,106.122595 C237.817275,106.015033 238.3191,105.923898 238.82249,105.848801 C238.947653,105.696258 239.072816,105.543716 239.213625,105.395085" id="Fill-75" fill="#8E8E93"></path>
                            <path d="M242.68678,105.097862 C241.527066,105.097862 240.368918,105.181173 239.221721,105.348188 C239.092647,105.496819 238.967093,105.649361 238.830587,105.801904 C246.370874,104.558488 254.047275,107.035541 259.439061,112.451186 L258.598514,111.12133 C254.208422,107.227197 248.543233,105.078696 242.675437,105.082212 M265.020939,121.28691 L265.020939,121.333846 C265.901773,123.847666 266.350013,126.492516 266.346493,129.156532 C266.347275,130.096428 266.292516,131.03515 266.182216,131.968787 L266.59721,131.77322 C266.936323,128.666832 266.670352,125.524068 265.814941,122.518983 L265.032673,121.28691 M266.534628,132.242581 L266.115724,132.438149 C265.54545,136.532934 263.908162,140.405945 261.367744,143.667614 L261.23867,144.449883 C264.12133,140.960965 265.957314,136.727327 266.534628,132.23867 M260.882738,144.285606 C257.422373,148.456271 252.635671,151.312725 247.322112,152.378175 L247.838409,152.671525 C252.844928,151.563833 257.366832,148.886128 260.745841,145.028761 L260.866701,144.285606" id="Fill-77" fill="#8E8E93"></path>
                            <path d="M258.60219,111.160443 L259.443129,112.4903 C261.748866,114.805815 263.552777,117.571134 264.742999,120.614159 L264.86425,119.874915 C263.456558,116.53854 261.317836,113.560443 258.606102,111.160443 M265.141956,120.563312 L265.020704,121.298644 L265.802973,122.530717 C265.610143,121.863051 265.390717,121.21103 265.145867,120.575046" id="Fill-79" fill="#15A187"></path>
                            <path d="M264.860339,119.867014 L264.739087,120.606258 C264.83296,120.852673 264.926832,121.099087 265.012881,121.349413 L265.012881,121.302477 L265.134133,120.567145 C265.044172,120.328553 264.9503,120.097784 264.852516,119.867014 M261.36751,143.667536 C261.203233,143.874837 261.038957,144.082138 260.866858,144.285528 L260.745606,145.028683 C260.913794,144.840939 261.07807,144.637549 261.238435,144.453716 L261.36751,143.671447" id="Fill-81" fill="#E4EAF5"></path>
                            <path d="M266.589113,131.784954 L266.174511,131.980522 L266.115841,132.438149 L266.534355,132.242581 C266.534355,132.090039 266.573468,131.937497 266.589113,131.784954" id="Fill-83" fill="#E4EAF5"></path>
                            <polygon id="Fill-85" fill="#3A3A3C" points="208.275372 57.7824641 211.62309 56.2625163 235.041082 107.839048 231.693364 109.358996"></polygon>
                            <polygon id="Fill-87" fill="#3A3A3C" points="149.356936 58.7356584 152.599048 57.4891134 173.17193 110.999413 169.929817 112.245958"></polygon>
                            <polygon id="Fill-89" fill="#A7C1DB" points="80.6146936 68.3140678 83.877927 67.1238462 99.9386832 111.155789 96.6758409 112.34601"></polygon>
                            <path d="M50.0611604,163.239935 C31.451382,163.237588 16.3665059,148.149583 16.3688527,129.539804 C16.3708083,110.930026 31.4588136,95.8451499 50.0689831,95.8474967 C68.677588,95.8498435 83.7612907,110.935111 83.7612907,129.543716 C83.7612907,148.153494 68.6748501,163.239935 50.0650717,163.239935 L50.0611604,163.239935 Z M50.0611604,89.7888247 C28.1052282,89.7821773 10.3011864,107.57605 10.2945353,129.531982 C10.2878879,151.487914 28.0817601,169.291956 50.0376923,169.298607 C71.9936245,169.304863 89.7980574,151.511382 89.8043155,129.55545 L89.8043155,129.543716 C89.8043155,107.592477 72.012399,89.7954759 50.0611604,89.7888247 L50.0611604,89.7888247 Z" id="Fill-91" fill="#3A3A3C"></path>
                            <polygon id="Fill-93" fill="#FF375F" points="104.596897 130.791473 47.7298827 130.791473 84.3869883 75.4264146 86.4678227 76.8032073 52.3726467 128.296037 104.596897 128.296037"></polygon>
                            <polygon id="Fill-95" fill="#FF375F" points="86.0491525 78.3754889 218.588918 78.3754889 218.588918 73.8578879 86.0491525 73.8578879"></polygon>
                            <polygon id="Fill-97" fill="#FF375F" points="155.498996 76.1655802 159.716988 74.5482399 181.565359 131.523598 177.346975 133.140939"></polygon>
                            <path d="M242.675319,163.239935 C224.065541,163.239935 208.9791,148.153494 208.9791,129.543716 C208.9791,110.933937 224.065541,95.8474967 242.675319,95.8474967 C261.285098,95.8474967 276.371147,110.933937 276.371147,129.543716 C276.369583,148.152712 261.284316,163.237979 242.675319,163.239935 M242.675319,89.7888266 C220.718996,89.7868709 202.918475,107.583872 202.916519,129.539804 C202.914563,151.495737 220.711565,169.296258 242.667106,169.298605 C264.623429,169.300952 282.42395,151.503559 282.426297,129.547627 L282.426297,129.543716 C282.42395,107.59013 264.628905,89.7931291 242.675319,89.7888266" id="Fill-98" fill="#3A3A3C"></path>
                            <path d="M50.049309,121.357236 C54.3631291,121.357236 57.8606519,124.854368 57.8606519,129.168188 C57.8606519,133.482008 54.3631291,136.97914 50.049309,136.97914 C45.7354889,136.97914 42.2383572,133.482008 42.2383572,129.168188 C42.2383572,124.854368 45.7354889,121.357236 50.049309,121.357236" id="Fill-99" fill="#48484A"></path>
                            <polygon id="Fill-100" fill="#FF375F" points="181.748136 131.507249 102.958435 131.507249 82.306545 74.4642243 86.7025033 72.8723077 106.23575 126.829283 179.54605 126.829283 218.999765 79.0404954 222.606023 82.0170274"></polygon>
                            <path d="M191.831695,129.168266 C191.831695,135.344276 186.825176,140.350795 180.649166,140.350795 C174.473155,140.350795 169.466636,135.344276 169.466636,129.168266 C169.466636,122.992256 174.473155,117.985737 180.649166,117.985737 C186.825176,117.985737 191.831695,122.992256 191.831695,129.168266" id="Fill-101" fill="#8E8E93"></path>
                            <path d="M115.771721,129.168266 C115.771721,135.344276 110.765202,140.350795 104.589192,140.350795 C98.4131812,140.350795 93.4066623,135.344276 93.4066623,129.168266 C93.4066623,122.992256 98.4131812,117.985737 104.589192,117.985737 C110.765202,117.985737 115.771721,122.992256 115.771721,129.168266" id="Fill-102" fill="#8E8E93"></path>
                            <polygon id="Fill-103" fill="#FF375F" points="210.764237 64.5230378 215.020169 62.5908344 244.802699 128.185228 240.546767 130.117432"></polygon>
                            <polygon id="Fill-104" fill="#000000" points="13.3924381 169.490222 280.998696 169.490222 280.998696 169.099087 13.3924381 169.099087"></polygon>
                            <path d="M75.4104172,61.6936115 C73.2415776,61.6122555 71.3254107,63.0942634 70.8576141,65.2138201 C70.7144589,65.8615385 70.7410561,66.5354628 70.9362321,67.1694915 C71.7846023,69.7548892 78.5125033,69.7822686 81.9505737,68.2333768 C85.3886441,66.684485 90.2269752,68.464146 92.5342764,67.2477184 C94.8423598,66.0312907 94.5177184,64.8461538 88.5564407,63.2033898 C84.5473142,62.0886571 78.7663494,61.7757497 75.4104172,61.6936115" id="Fill-105" fill="#3945D8"></path>
                            <path d="M149.456245,61.6936115 C147.287405,61.6122555 145.370847,63.0942634 144.903051,65.2138201 C144.759896,65.8615385 144.786884,66.5354628 144.981669,67.1694915 C145.830039,69.7548892 152.55794,69.7822686 155.99601,68.2333768 C159.434081,66.684485 164.272412,68.464146 166.584016,67.2477184 C168.895619,66.0312907 168.563155,64.8461538 162.602269,63.2033898 C158.593142,62.0886571 152.812177,61.7757497 149.456245,61.6936115" id="Fill-106" fill="#3945D8"></path>
                            <path d="M246.977797,129.168266 C246.977797,131.544407 245.05146,133.470743 242.675319,133.470743 C240.299179,133.470743 238.372842,131.544407 238.372842,129.168266 C238.372842,126.792125 240.299179,124.865789 242.675319,124.865789 C245.05146,124.865789 246.977797,126.792125 246.977797,129.168266" id="Fill-107" fill="#48484A"></path>
                            <path d="M104.596897,122.921773 C108.046701,122.921773 110.843703,125.718383 110.843703,129.168188 C110.843703,132.617992 108.046701,135.414602 104.596897,135.414602 C101.147484,135.414602 98.3504824,132.617992 98.3504824,129.168188 C98.3504824,125.718383 101.147484,122.921773 104.596897,122.921773" id="Fill-108" fill="#3A3A3C"></path>
                            <path d="M180.649205,122.921773 C184.099009,122.921773 186.895619,125.718383 186.895619,129.168188 C186.895619,132.617992 184.099009,135.414602 180.649205,135.414602 C177.1994,135.414602 174.40279,132.617992 174.40279,129.168188 C174.40279,125.718383 177.1994,122.921773 180.649205,122.921773" id="Fill-109" fill="#3A3A3C"></path>
                            <path d="M104.596897,130.146134 C104.059087,130.150404 103.619452,129.71781 103.61511,129.18 C103.613194,128.964094 103.683598,128.753272 103.814628,128.581565 L113.260522,116.026154 L121.036271,118.912725 C121.54279,119.100469 121.800939,119.663703 121.613194,120.170222 C121.425059,120.676741 120.862216,120.934889 120.355698,120.747145 L113.945007,118.369048 L105.379166,129.754967 C105.193377,129.999426 104.904329,130.144146 104.596897,130.146134" id="Fill-110" fill="#48484A"></path>
                        </g>
                        <g id="Group-empty-groups-115" transform="translate(71.968709, 3.778357)">
                            <mask id="mask-empty-groups-6" fill="white">
                                <use xlink:href="#path-empty-groups-5"></use>
                            </mask>
                            <use id="Clip-114" fill="#3A3A3C" xlink:href="#path-empty-groups-5"></use>
                            <path d="M0.316818774,50.6205997 C0.316818774,50.6205997 5.17079531,49.6388527 16.7444589,50.988266 L30.6453716,23.5619296 L26.1199478,2.19426336 C25.5625815,2.536897 25.028292,2.91590613 24.5202086,3.3285528 C8.35462842,16.2359844 0.316818774,50.6205997 0.316818774,50.6205997" id="Fill-113" fill="#2F2F30" mask="url(#mask-empty-groups-6)"></path>
                        </g>
                        <g id="Group-empty-groups-148" transform="translate(72.750978, 0.258149)">
                            <path d="M57.7936897,48.766545 C57.7936897,48.766545 59.2721773,49.2593742 59.5850847,50.4014863 C59.8983833,51.5435984 58.0205476,53.8943155 58.2243286,55.1420339 C58.4273272,56.3897523 59.7888657,57.6335593 62.5268057,56.9099609 C65.2647458,56.1863625 66.9462321,52.9595046 66.5320209,50.6752803 C66.1170274,48.3910561 60.2969492,44.546206 60.2969492,44.546206 L57.7936897,48.766545 Z" id="Fill-116" fill="#FFAEA9"></path>
                            <path d="M30.050691,4.26336375 C30.050691,4.26336375 24.2188787,5.09647979 21.3909778,9.05867014 C18.5630769,13.0208605 32.9959322,40.6036506 32.9959322,40.6036506 L58.2749413,49.9126467 C58.2749413,49.9126467 61.4705085,47.1747066 61.818618,45.6101695 L62.1632073,44.0456323 L38.4444329,33.1916558 C38.4444329,33.1916558 32.913794,7.76792699 31.9633377,6.04302477 C30.8568188,4.02477184 30.050691,4.26336375 30.050691,4.26336375" id="Fill-118" fill="#48484A"></path>
                            <path d="M40.3416297,104.166845 L37.994824,112.380665 L41.7340678,119.726167 L46.8774837,121.681838 C47.5459322,120.11339 47.4297653,118.320821 46.5641851,116.85133 L44.2643155,112.939987 L45.637588,104.632295 L40.3416297,104.166845 Z" id="Fill-120" fill="#3A3A3C"></path>
                            <path d="M0.570821382,53.9843937 C0.570821382,53.9843937 0.437835724,54.0313299 0.293116037,58.0130769 C0.0740808344,64.0443677 6.23835724,68.5267666 17.5738201,70.2516688 C28.9085007,71.9765711 45.4339244,73.9244198 45.4339244,73.9244198 L39.5004172,104.632373 L46.513455,106.850104 C46.513455,106.850104 60.293116,78.9700522 57.1957236,70.8266362 C48.6764276,48.4928683 0.570821382,53.9843937 0.570821382,53.9843937" id="Fill-122" fill="#48484A"></path>
                            <g id="Group-empty-groups-126" transform="translate(74.315515, 0.000000)">
                                <mask id="mask-empty-groups-8" fill="white">
                                    <use xlink:href="#path-empty-groups-7"></use>
                                </mask>
                                <g id="Clip-125"></g>
                                <path d="M27.4850065,0.132946545 L23.7848761,1.41977836 C18.5906128,3.22720991 14.2337679,6.86632334 11.5306389,11.6557627 C7.30638853,19.1342503 2.05697523,32.5579791 0.129074316,54.8291656 C0.129074316,54.8291656 20.3425033,65.3232986 34.5993481,60.1290352 C34.5993481,60.1290352 35.8787484,22.5175619 41.5345502,12.7509387 C47.190352,2.98431551 37.6232073,0.273754889 37.6232073,0.273754889 L27.4850065,0.132946545 Z" id="Fill-124" fill="#3A3A3C" mask="url(#mask-empty-groups-8)"></path>
                            </g>
                            <path d="M96.7585658,27.8370274 L87.9580443,8.55801825 C87.1695176,9.5303781 86.4631291,10.5664928 85.8463103,11.6558018 C81.62206,19.1342894 76.3726467,32.5580183 74.4443546,54.8292047 C78.6060235,56.8787484 82.956219,58.5215124 87.4339244,59.7340287 L96.7585658,27.8370274 Z" id="Fill-127" fill="#2F2F30"></path>
                            <g id="Group-empty-groups-131" transform="translate(101.694915, 0.000000)">
                                <mask id="mask-empty-groups-10" fill="white">
                                    <use xlink:href="#path-empty-groups-9"></use>
                                </mask>
                                <g id="Clip-130"></g>
                                <path d="M0.105606258,0.132946545 C0.105606258,0.132946545 2.18604954,4.43542373 5.91003911,4.59578879 C9.63324641,4.75615385 10.2398957,0.293311604 10.2398957,0.293311604 L0.105606258,0.132946545 Z" id="Fill-129" fill="#FFAEA9" mask="url(#mask-empty-groups-10)"></path>
                            </g>
                            <path d="M33.8955411,3.65718383 C33.8955411,3.65718383 36.7156193,8.59720991 40.4157497,8.44075619 C44.1158801,8.28430248 43.9359583,4.10307692 43.9359583,4.10307692 L33.8955411,3.65718383 Z" id="Fill-132" fill="#FFAEA9"></path>
                            <path d="M123.324368,47.7653977 C123.324368,47.7653977 126.027106,48.3364537 126.805463,50.3116819 C127.584211,52.28691 126.704159,55.0913429 125.714198,56.1786962 C124.724628,57.2660495 121.924107,56.8514472 121.090991,56.5932986 C120.257875,56.3351499 122.960613,53.6676141 122.288253,52.8188527 C121.615502,51.9700913 120.989296,51.9700913 120.989296,51.9700913 L119.48734,51.9700913 L118.846271,50.5268057 L123.324368,47.7653977 Z" id="Fill-134" fill="#FFAEA9"></path>
                            <path d="M95.8590352,9.3559322 C94.349648,5.96870926 89.3427379,5.589309 87.6804172,8.90221643 C87.6491265,8.96088657 86.2253977,11.0495437 86.1941069,11.1082138 C83.1901956,17.1864407 98.3857627,35.714472 98.3857627,35.714472 L118.900756,51.7275098 C118.900756,51.7275098 121.93987,50.3624511 122.874681,49.220339 C123.324876,48.6926988 123.741434,48.1376793 124.122399,47.5580183 L105.093716,31.5567145 L95.8590352,9.3559322 Z" id="Fill-136" fill="#48484A"></path>
                            <path d="M76.1926858,55.6702216 C76.1926858,55.6702216 74.9297132,59.7341069 79.5685658,66.8918644 C84.2070274,74.0496219 122.984472,77.9374967 122.984472,77.9374967 L116.944967,109.893168 L123.922803,111.766701 C123.922803,111.766701 136.365176,82.2986441 135.539492,73.9674837 C134.937145,67.9401043 117.966219,62.0613559 108.633364,59.2608344 C104.959439,58.1668318 101.17678,57.4760887 97.353442,57.1995567 L76.1926858,55.6702216 Z" id="Fill-138" fill="#48484A"></path>
                            <path d="M117.64146,109.349374 L116.350717,114.950417 L120.285528,120.668801 L127.376793,123.160326 C127.877053,121.684185 127.347066,120.05472 126.074316,119.155111 L123.559322,117.395007 L123.168188,111.007784 L117.64146,109.349374 Z" id="Fill-140" fill="#3A3A3C"></path>
                            <path d="M108.301213,133.146102 C107.761056,133.146102 107.323377,132.708031 107.323377,132.168266 C107.323377,131.956662 107.391825,131.750926 107.518944,131.581565 L116.964446,119.026154 L124.740196,121.912725 C125.251017,122.088735 125.521682,122.645711 125.345671,123.156141 C125.16927,123.666571 124.612686,123.937627 124.101864,123.761226 C124.088957,123.756923 124.076441,123.751838 124.063924,123.747145 L117.652842,121.369048 L109.083481,132.754967 C108.898475,133.000991 108.608644,133.146102 108.301213,133.146102" id="Fill-142" fill="#48484A"></path>
                            <path d="M11.4328162,53.3937027 C5.01430248,53.4758409 0.570625815,53.9804042 0.570625815,53.9804042 C0.570625815,53.9804042 0.438031291,54.0273403 0.293311604,58.0090874 C0.0742764016,64.0403781 6.2385528,68.5227771 17.5736245,70.2476793 C21.0425945,70.7757106 25.005176,71.3232986 28.826558,71.8122164 L11.4328162,53.3937027 Z" id="Fill-144" fill="#3A3A3C"></path>
                            <path d="M93.0626206,60.970013 L106.415945,58.6662321 C103.442934,57.9187744 100.410469,57.4306389 97.3533638,57.2073012 L76.1926076,55.6701434 C76.1926076,55.6701434 74.9296349,59.7340287 79.5684876,66.8917862 C80.2838722,67.9947849 81.809296,69.0195567 83.8709648,69.9621904 L93.0626206,60.970013 Z" id="Fill-146" fill="#3A3A3C"></path>
                        </g>
                    </g>
                    <g id="Group" transform="translate(46.000000, 10.000000)">
                        <path d="M25.1756387,33.8881781 C26.3595974,35.0721368 26.3595974,36.991889 25.1756387,38.1758477 C23.99168,39.3598065 22.0719277,39.3598065 20.887969,38.1758477 C19.7040103,36.991889 19.7040103,35.0721368 20.887969,33.8881781 C22.0719277,32.7039406 23.99168,32.7039406 25.1756387,33.8881781" id="Fill-27" fill="#0A84FF"></path>
                        <g id="Group-empty-groups-31" transform="translate(193.419617, 18.000000)">
                            <mask id="mask-empty-groups-12" fill="white">
                                <use xlink:href="#path-empty-groups-11"></use>
                            </mask>
                            <use id="Combined-Shape" fill="#0A84FF" xlink:href="#path-empty-groups-11"></use>
                        </g>
                        <g id="Group-empty-groups-34" transform="translate(0.000000, 0.345806)" fill="#FFD60A">
                            <path d="M-2.78709677e-05,0.220459355 L2.26030761,8.65616516 L8.43567794,2.48079484 L-2.78709677e-05,0.220459355 Z M1.38543794,1.60592516 L6.54296052,2.98776774 L2.76728052,6.76344774 L1.38543794,1.60592516 Z" id="Fill-32"></path>
                        </g>
                        <path d="M181.953486,27 C180.322477,27 179,28.3221987 179,29.9534865 C179,31.5844955 180.322477,32.9066942 181.953486,32.9066942 C183.584774,32.9066942 184.906694,31.5844955 184.906694,29.9534865 C184.906694,28.3221987 183.584774,27 181.953486,27 M181.953486,27.7173987 C183.186219,27.7173987 184.189295,28.7204748 184.189295,29.9534865 C184.189295,31.1862194 183.186219,32.1892955 181.953486,32.1892955 C180.720475,32.1892955 179.717677,31.1862194 179.717677,29.9534865 C179.717677,28.7204748 180.720475,27.7173987 181.953486,27.7173987" id="Fill-35" fill="#0A84FF"></path>
                        <path d="M37.845151,21.9157058 L42.6041187,21.9157058 L42.6041187,17.1567381 L37.845151,17.1567381 L37.845151,21.9157058 Z M38.4903639,21.2707716 L41.9589058,21.2707716 L41.9589058,17.8022297 L38.4903639,17.8022297 L38.4903639,21.2707716 Z" id="Fill-37" fill="#FFD60A"></path>
                        <path d="M172.105105,79 L169,82.1048258 L172.105105,85.2099303 L175.20993,82.1048258 L172.105105,79 Z M172.105105,79.9389729 L174.270957,82.1048258 L172.105105,84.2709574 L169.939252,82.1048258 L172.105105,79.9389729 Z" id="Fill-39" fill="#FFD60A"></path>
                    </g>
                </g>
            </g>
        </g>
    </g>
</svg>