<?xml version="1.0" encoding="UTF-8"?>
<svg width="247px" height="233px" viewBox="0 0 247 233" version="1.1" xmlns="http://www.w3.org/2000/svg" xmlns:xlink="http://www.w3.org/1999/xlink">
    <g id="Modules---Create-module" stroke="none" stroke-width="1" fill="none" fill-rule="evenodd">
        <g id="Module---0.0-" transform="translate(-1042.000000, -171.000000)">
            <g id="illustration/modules" transform="translate(1042.000000, 171.000000)">
                <path d="M135.288365,58.1534057 C134.345001,72.2395738 138.580705,89.3191309 164.746474,96.2713162 C165.353372,96.434307 164.815654,97.9325688 163.718208,97.9670476 C142.784963,98.6252798 129.370329,89.3630131 124.027745,75.4962557 C123.43657,73.9478429 132.458273,56.1755748 135.288365,58.1534057 Z" id="Path" fill="#333334" fill-rule="nonzero"></path>
                <path d="M171.959133,98.7955903 C172.111959,99.4337149 171.822227,100.905119 171.32236,101.496778 C170.822493,102.088437 166.390553,102.085339 165.842928,101.859208 C165.295304,101.633076 165.616874,99.6908233 165.616874,99.6908233 C165.616874,99.6908233 164.091803,98.346425 164.002654,97.2126697 C163.961264,96.7108436 164.413373,96.3979768 164.699921,96.0882076 C165.263465,95.4841576 171.809492,98.1574658 171.959133,98.7955903 Z" id="Path" fill="#FFC2BF" fill-rule="nonzero"></path>
                <path d="M153,95.9995858 C153,95.9995858 122.304645,96.4872223 122,64 C122,64 126.473466,88.9007229 153,95.9995858 Z" id="Path" fill="#272729" fill-rule="nonzero"></path>
                <path d="M39.0266407,130.252097 L169.97018,130 C171.652,130 173,131.764679 173,134.030361 L173,195.720733 C173,197.986415 171.652,199.747903 169.97018,199.747903 L39.0266407,200 C37.3448204,200 36,198.238512 36,195.97283 L36,134.282458 C36,132.013585 37.3575374,130.252097 39.0266407,130.252097 Z" id="bg-card-action" fill="#1DAA82" fill-rule="nonzero"></path>
                <path d="M43.7876815,137.054967 L164.212318,137 C165.759962,137 167,137.378664 167,137.86421 L167,151.080822 C167,151.566368 165.759962,151.945033 164.212318,151.945033 L43.7876815,152 C42.2400376,152 41,151.621336 41,151.13579 L41,137.916124 C41,137.430578 42.2400376,137.054967 43.7876815,137.054967 Z" id="bg-card-action-2" fill="#16936F" fill-rule="nonzero"></path>
                <path d="M159.117545,142.000228 C160.617585,141.982721 161.87711,142.975553 162,144.272258 L162,144.500017 C162.00679,145.16482 161.705334,145.804137 161.163286,146.274243 C160.621239,146.744349 159.884085,147.005795 159.117545,146.999806 L115.882455,146.999806 C114.383013,147.015945 113.124403,146.023834 113,144.727775 L113,144.500017 C112.99321,143.835214 113.294666,143.195896 113.836714,142.72579 C114.378761,142.255684 115.115915,141.994238 115.882455,142.000228 L159.117545,142.000228 Z" id="Path" fill="#1DAA82" fill-rule="nonzero"></path>
                <circle id="Oval" fill="#1DAA82" fill-rule="nonzero" cx="50.5" cy="144.5" r="4.5"></circle>
                <path d="M43.7876815,157.064129 L164.212318,157 C165.759962,157 167,157.378664 167,157.86421 L167,171.083876 C167,171.569422 165.759962,171.948086 164.212318,171.948086 L43.7876815,172 C42.2400376,172 41,171.624389 41,171.138844 L41,157.916124 C41,157.442793 42.2400376,157.064129 43.7876815,157.064129 Z" id="bg-card-action-3" fill="#16936F" fill-rule="nonzero"></path>
                <path d="M159.117543,163.000194 C160.616986,162.984055 161.875597,163.976165 162,165.272223 L162,165.499981 C162.00679,166.164784 161.705334,166.804101 161.163286,167.274207 C160.621238,167.744313 159.884084,168.005758 159.117543,167.999769 L115.88243,167.999769 C114.383524,168.017383 113.124451,167.026121 113,165.730517 L113,165.499981 C112.994058,164.835407 113.295796,164.196533 113.837652,163.726593 C114.379509,163.256654 115.116152,162.994964 115.88243,163.000194 L159.117543,163.000194 Z" id="Path" fill="#1DAA82" fill-rule="nonzero"></path>
                <circle id="Oval" fill="#1DAA82" fill-rule="nonzero" cx="50.5" cy="165.5" r="4.5"></circle>
                <path d="M43.7876815,178.054967 L164.212318,178 C165.759962,178 167,178.378664 167,178.86421 L167,192.080822 C167,192.566368 165.759962,192.945033 164.212318,192.945033 L43.7876815,193 C42.2400376,193 41,192.621336 41,192.13579 L41,178.916124 C41,178.430578 42.2400376,178.054967 43.7876815,178.054967 Z" id="bg-card-action-4" fill="#16936F" fill-rule="nonzero"></path>
                <path d="M159.117545,182.000228 C160.617585,181.982721 161.87711,182.975553 162,184.272258 L162,184.500017 C162.00679,185.16482 161.705334,185.804137 161.163286,186.274243 C160.621239,186.744349 159.884085,187.005795 159.117545,186.999806 L115.882455,186.999806 C114.383013,187.015945 113.124403,186.023834 113,184.727775 L113,184.500017 C112.99321,183.835214 113.294666,183.195896 113.836714,182.72579 C114.378761,182.255684 115.115915,181.994238 115.882455,182.000228 L159.117545,182.000228 Z" id="Path" fill="#1DAA82" fill-rule="nonzero"></path>
                <circle id="Oval" fill="#1DAA82" fill-rule="nonzero" cx="50.5" cy="185.5" r="4.5"></circle>
                <path d="M1.3927428,66.1181991 L61.6072572,66 C62.3820704,66 63,66.808226 63,67.8432664 L63,96.0449236 C63,97.0799641 62.3820704,97.8849955 61.6072572,97.8849955 L1.3927428,98 C0.617929562,98 0,97.1949686 0,96.1599281 L0,67.9582709 C0,66.9136468 0.617929562,66.1181991 1.3927428,66.1181991 Z" id="bg-card-action-5" fill="#0988FA" fill-rule="nonzero"></path>
                <path d="M4.2693464,69.0249666 L58.7306536,69 C59.4287941,69 60,69.1747659 60,69.4025858 L60,75.5724476 C60,75.7971467 59.4383142,75.9750334 58.7306536,75.9750334 L4.2693464,76 C3.56803251,76 3,75.8221132 3,75.5974142 L3,69.4275524 C3.0095201,69.2028533 3.56803251,69.0249666 4.2693464,69.0249666 Z" id="bg-card-action-6" fill="#49A4F9" fill-rule="nonzero"></path>
                <path d="M55.7113852,71.0000509 C56.3832791,70.9936656 56.9454803,71.5891808 57,72.3649582 L57,72.4999892 C57.0033396,72.8989927 56.8680107,73.2828019 56.6244372,73.5649538 C56.3808637,73.8471056 56.0495323,74.0038685 55.7050842,73.9999274 L36.2917378,73.9999274 C35.6203385,74.0066046 35.057608,73.4135724 35,72.6386696 L35,72.4999892 C34.9974948,72.101286 35.1331006,71.7180587 35.3764855,71.4361253 C35.6198704,71.1541919 35.9506994,70.9971083 36.2948882,71.0000509 L55.7113852,71.0000509 Z" id="Path" fill="#0988FA" fill-rule="nonzero"></path>
                <circle id="Oval" fill="#0988FA" fill-rule="nonzero" cx="7" cy="72" r="2"></circle>
                <path d="M4.2693464,78.060419 L58.7306536,78 C59.4287941,78 60,78.4292929 60,78.9794239 L60,93.9601571 C60,94.5102881 59.4383142,94.939581 58.7306536,94.939581 L4.2693464,95 C3.56803251,95 3,94.5707071 3,94.0205761 L3,79.0398429 C3.0095201,78.4897119 3.56803251,78.060419 4.2693464,78.060419 Z" id="bg-card-action-7" fill="#49A4F9" fill-rule="nonzero"></path>
                <path d="M55.7113852,80.0000863 C56.3827511,79.9917597 56.9454035,80.586873 57,81.3629785 L57,81.4981716 C57.0033396,81.8976541 56.8680107,82.2819242 56.6244372,82.5644148 C56.3808637,82.8469054 56.0495323,83.0038565 55.7050842,82.9999107 L36.291738,82.9999107 C35.6197536,83.0083761 35.0561353,82.4136952 35,81.6370185 L35,81.4981716 C34.9974837,81.0993198 35.133188,80.7159973 35.3766678,80.4343025 C35.6201476,80.1526076 35.9509914,79.9961553 36.2948885,80.0000863 L55.7113852,80.0000863 Z" id="Path" fill="#0988FA" fill-rule="nonzero"></path>
                <path d="M56.9935912,91.3649582 C56.9387476,90.5891808 56.3725565,89.9936656 55.695894,90.0000509 L6.30407823,90.0000509 C5.95744661,89.9971083 5.62426971,90.1541919 5.37915746,90.4361253 C5.13404521,90.7180587 4.99747703,91.101286 5,91.4999892 L5,91.6386696 C5.05644658,92.4130017 5.62219447,93.0064597 6.29773253,92.9999274 L55.695894,92.9999274 C56.0427867,93.0038685 56.3764696,92.8471056 56.6217718,92.5649538 C56.867074,92.2828019 57.0033633,91.8989927 57,91.4999892 L56.9935912,91.3649582 Z" id="Path" fill="#0988FA" fill-rule="nonzero"></path>
                <circle id="Oval" fill="#0988FA" fill-rule="nonzero" cx="7" cy="81" r="2"></circle>
                <path d="M168.603507,191.00229 C171.574841,191.288925 184.200665,199.954625 183.997577,201.694431 C183.794489,203.434237 168.834715,197.228263 167.92863,196.068392 C166.003981,193.685324 167.494334,190.908967 168.603507,191.00229 Z" id="Path" fill="#333334" fill-rule="nonzero"></path>
                <path d="M194.603795,179.002467 C197.575661,179.289205 210.203752,187.958025 209.997502,189.695123 C209.791253,191.432222 194.835044,185.230681 193.928797,184.070393 C192.003802,181.669796 193.494423,178.905776 194.603795,179.002467 Z" id="Path" fill="#333334" fill-rule="nonzero"></path>
                <path d="M109.135892,112.672314 C101.20959,119.280199 110.361042,130.735356 114.114075,130.30399 C167.432355,124.188182 144.348456,143.308869 165.567153,189.142278 C167.616613,193.570967 168.903182,193.762685 172,191.842308 C160.362689,144.74995 173.590433,108.262798 123.019851,115.730218 C105.547721,118.308827 112.846901,109.579262 109.135892,112.672314 Z" id="Path" fill="#272729" fill-rule="nonzero"></path>
                <path d="M134.958874,58.0963215 C131.222056,68.5243857 127.462823,101.622295 131.86247,111.731428 C132.025776,114.385962 108.045458,123.119506 105.144381,118.838104 C100.507781,111.998815 93.5080515,70.1415894 99.0284236,54.3657999 C99.9378121,51.7531462 114.901095,47.9807449 117.533198,48 C123.591518,48.0483968 135.797817,55.1099713 134.958874,58.0963215 Z" id="Path" fill="#333334" fill-rule="nonzero"></path>
                <path d="M123.003432,36.3448507 C123.003432,36.3448507 124.576228,39.9172949 126.458629,39.7258018 C129.814753,39.3836257 134.60435,23.0878809 132.471168,20.6518381 C131.334916,19.355336 126.628912,18.2879976 123.830078,19.5970567 C119.777342,21.4962911 115.826776,47.9568639 110,49.7493644 C115.696741,51.3974603 120.179829,51.4759411 124.297583,49.6300737 C119.021905,44.8678612 123.003432,36.3448507 123.003432,36.3448507 Z" id="Path" fill="#FDA39F" fill-rule="nonzero"></path>
                <path d="M123.959922,37.2369142 C122.627128,34.2526193 121.493054,31.4082641 121.088761,29 C119.615493,32.4626933 119.594935,40.6345193 121.287481,41.8223793 C122.980027,43.0102393 124.244297,37.8747787 123.959922,37.2369142 Z" id="Path" fill="#FD7C74" fill-rule="nonzero"></path>
                <path d="M118.159108,30.9972514 C118.584207,31.1500024 124.669992,24.8969633 126.739221,21.968695 C128.367724,23.2687031 133.847119,25.3779663 134.887985,25.5242172 C141.058165,26.4049727 144.212021,15.8391567 140.232973,13.4373917 C137.241655,11.6336305 133.143831,15.9886577 131.359042,16.037408 C129.955592,16.0796582 125.060707,14.0548956 121.794326,15.4784045 C117.90905,17.1814151 117.737135,30.8542505 118.159108,30.9972514 Z" id="Path" fill="#0E0E0E" fill-rule="nonzero"></path>
                <path d="M123.858674,26.3818304 C123.266416,25.3036155 121.988997,23.806764 120.657385,24.0205999 C119.209644,24.2525065 120.351579,29.8845232 122.15932,29.9989706 C123.065126,30.0592061 124.447061,27.4600454 123.858674,26.3818304 Z" id="Path" fill="#FDA39F" fill-rule="nonzero"></path>
                <circle id="Oval" fill="#0C7DF9" fill-rule="nonzero" cx="77.5" cy="113.5" r="3.5"></circle>
                <polygon id="Rectangle" fill="#0C7DF9" fill-rule="nonzero" transform="translate(243.166273, 62.083431) rotate(5.880000) translate(-243.166273, -62.083431) " points="239.913316 58.8296165 246.419052 58.8297949 246.419231 65.3372449 239.913494 65.3370665"></polygon>
                <path d="M84.5,28.0587971 L86.9412029,30.5 L84.5,32.9412029 L82.0587971,30.5 L84.5,28.0587971 M84.5,27 L81,30.5 L84.5,34 L88,30.5 L84.5,27 Z" id="Shape" fill="#0C7DF9" fill-rule="nonzero"></path>
                <polygon id="Path" fill="#FFCD31" fill-rule="nonzero" points="168 0 169.957336 6 174 1.24717286"></polygon>
                <path d="M194.5,112.852727 C195.966905,112.854484 197.154806,114.044759 197.153636,115.511664 C197.152465,116.978569 195.962664,118.166946 194.495759,118.166362 C193.028853,118.165777 191.84,116.976451 191.84,115.509545 C191.841756,114.041711 193.032164,112.852727 194.5,112.852727 M194.5,112 C192.567003,112 191,113.567003 191,115.5 C191,117.432997 192.567003,119 194.5,119 C196.432997,119 198,117.432997 198,115.5 C198,113.567003 196.432997,112 194.5,112 Z" id="Shape" fill="#FFCD31" fill-rule="nonzero"></path>
                <path d="M30,6.21230769 L32.8,9.01230769 L30,11.8123077 L27.2,9.01230769 L30,6.21230769 M30,5 L26,9 L30,13 L34,9 L30,5 Z" id="Shape" fill="#FFCD31" fill-rule="nonzero"></path>
                <path d="M129.321657,129.466055 C129.321657,129.466055 151.665023,127.810636 165,149 L162.119875,132.190401 L157.194862,126.388552 C157.194862,126.388552 131.968172,121.772297 131.593755,122.008786 C131.219339,122.245274 128,125.322777 128,125.322777 L129.321657,129.466055 Z" id="Path" fill="#1A1A1C" fill-rule="nonzero" opacity="0.3"></path>
                <path d="M110.70064,130.987125 C155.920102,129.812212 161.228946,119.870393 191.928191,181.103908 C193.954565,185.553169 196.316537,180.969082 195.964958,179.521307 C184.445949,132.22303 170.22937,106.862885 119.832108,111.552907 C94.3490171,114.987762 106.200428,131.391603 110.70064,130.987125 Z" id="Path" fill="#48484A" fill-rule="nonzero"></path>
                <path d="M99.9825011,102 L103,72.4208337 L96,70 C96,70 97.8911652,91.1601149 99.9825011,102 Z" id="Path" fill="#272728" fill-rule="nonzero"></path>
                <path d="M105.370885,51 C101.202656,66.3310122 101.523778,87.2796885 129.785708,100.326142 C130.44067,100.627996 129.499559,102.16904 128.243686,101.984751 C104.264445,98.40063 95.8485005,87.0509149 93.180961,69.9373746 C92.8375828,68.1071854 91.6611947,53.7071549 105.370885,51 Z" id="Path" fill="#333334" fill-rule="nonzero"></path>
                <path d="M136.999256,104.781813 C137.025889,105.563003 136.333432,107.225536 135.637647,107.813098 C134.941862,108.40066 129.695175,107.44921 129.102592,107.06863 C128.510009,106.688051 129.342288,104.468002 129.342288,104.468002 C129.342288,104.468002 127.860831,102.568441 128.010642,101.21972 C128.080553,100.622143 128.676465,100.351731 129.092604,100.051273 C129.884934,99.4703881 136.972623,104.000623 136.999256,104.781813 Z" id="Path" fill="#FDA39F" fill-rule="nonzero"></path>
                <path d="M124,100.999586 C124,100.999586 93.3046447,101.48727 93,69 C93,69 97.4766732,93.8969031 124,100.999586 Z" id="Path" fill="#272729" fill-rule="nonzero"></path>
                <path d="M179,106.189943 L179,108.813063 C179,109.393595 178.753411,109.950307 178.314569,110.360524 C177.875727,110.77074 177.280647,111.000796 176.660457,111 L117.336329,111 C116.04601,111 115,110.020874 115,108.813063 L115,106.189943 C115,104.981645 116.045491,104.00166 117.336329,104 L176.660457,104 C177.280942,104 177.876014,104.230726 178.314764,104.64142 C178.753513,105.052114 179,105.609134 179,106.189943 L179,106.189943 Z" id="Path" fill="#24379B"></path>
                <path d="M192.937026,80.4339909 L182.794849,106.068184 C182.373197,107.137582 180.982711,108 179.688787,108 L132.727707,108 C131.440221,108 129.640958,105.647951 130.06261,104.581689 L140.211224,78.9318159 C140.632876,77.8655539 142.023362,77 143.314067,77 L190.278366,77 C191.57229,77 193.358678,79.3677289 192.937026,80.4339909 Z" id="Path" fill="#374CD3"></path>
                <path d="M166.832489,95.5015535 C166.182088,97.4340879 163.970724,99 161.85692,99 C159.743116,99 158.536622,97.4465158 159.167511,95.5015535 C159.7984,93.5565912 162.029276,92 164.14308,92 C166.256884,92 167.463378,93.5659121 166.832489,95.5015535 Z" id="Path" fill="#24379B"></path>
                <path d="M159.370624,28.1127045 L218.626189,28 C219.388001,28 220,28.7826702 220,29.784488 L220,57.1028075 C220,58.107756 219.388001,58.8872955 218.626189,58.8872955 L159.370624,59 C158.608812,59 158,58.2173298 158,57.215512 L158,29.8971925 C158,28.892244 158.608812,28.1127045 159.370624,28.1127045 Z" id="bg-card-action-8" fill="#272729" fill-rule="nonzero"></path>
                <path d="M162.258972,31.084375 L216.73783,31 C217.437965,31 218,31.625 218,32.440625 L218,54.46875 C218,55.278125 217.437965,55.90625 216.73783,55.90625 L162.258972,56 C161.558837,56 161,55.375 161,54.5625 L161,32.525 C160.996802,31.715625 161.555626,31.084375 162.258972,31.084375 Z" id="bg-card-action-9" fill="#333334" fill-rule="nonzero"></path>
                <path d="M213.723399,46.000169 C214.391473,45.9978432 214.948081,46.5922539 215,47.3633159 L215,47.5 C215.005072,47.899601 214.870247,48.2846085 214.626135,48.5672014 C214.382022,48.8497943 214.04944,49.0058713 213.704252,48.999831 L194.276601,48.999831 C193.608527,49.0021568 193.051919,48.4077461 193,47.6366841 L193,47.5 C192.994928,47.100399 193.129753,46.7153915 193.373865,46.4327986 C193.617978,46.1502057 193.95056,45.9941287 194.295748,46.000169 L213.723399,46.000169 Z" id="Path" fill="#272729" fill-rule="nonzero"></path>
                <path d="M215.993433,52.3633159 C215.941357,51.5922539 215.381483,50.9978432 214.70949,51.000169 L165.303349,51.000169 C164.956136,50.9941287 164.621603,51.1502057 164.376059,51.4327986 C164.130514,51.7153915 163.994898,52.100399 164,52.5 L164,52.6366841 C164.052224,53.4077461 164.612097,54.0021568 165.28409,53.999831 L214.696651,53.999831 C215.043864,54.0058713 215.378397,53.8497943 215.623941,53.5672014 C215.869486,53.2846085 216.005102,52.899601 216,52.5 L215.993433,52.3633159 Z" id="Path" fill="#272729" fill-rule="nonzero"></path>
                <circle id="Oval" fill="#272729" fill-rule="nonzero" cx="168" cy="38" r="5"></circle>
                <circle id="Oval" fill="#272729" fill-rule="nonzero" cx="213" cy="35" r="2"></circle>
                <polygon id="Path" fill="#333334" fill-rule="nonzero" points="173.704655 45.625 169.40931 49 168.70305 43.5 168 38 172.998395 40.125 178 42.25"></polygon>
                <path d="M168.000086,44 C165.573039,44 163.385038,42.5377994 162.456566,40.2953679 C161.528093,38.0529364 162.042044,35.4720002 163.758713,33.7563053 C165.475381,32.0406103 168.056608,31.5281237 170.298512,32.4578685 C172.540415,33.3876134 174.001374,35.5764434 174,38.0034907 C173.998118,41.3158218 171.312417,44 168.000086,44 L168.000086,44 Z M168.000086,33.0755989 C165.278487,33.0755989 163.072195,35.2818912 163.072195,38.0034907 C163.072195,40.7250902 165.278487,42.9313826 168.000086,42.9313826 C170.721685,42.9313826 172.927977,40.7250902 172.927977,38.0034907 C172.9261,35.2826691 170.720907,33.077476 168.000086,33.0755989 L168.000086,33.0755989 Z" id="Shape" fill="#272729" fill-rule="nonzero"></path>
            </g>
        </g>
    </g>
</svg>