<?xml version="1.0" encoding="UTF-8"?>
<svg width="202px" height="229px" viewBox="0 0 202 229" version="1.1" xmlns="http://www.w3.org/2000/svg" xmlns:xlink="http://www.w3.org/1999/xlink">
    <title>User</title>
    <defs>
        <path d="M6.97259528,0.927883168 C-2.56334778,6.17058779 -0.664415398,53.7264597 2.96832482,59.7122248 C4.70213264,62.4780611 20.5128088,62.6019045 27.1590721,60.2488796 C25.342702,51.0019045 28.0259761,27.0175629 39.4608515,5.46880843 C33.3925241,1.75350594 13.3711718,-1.71410972 6.97259528,0.927883168 Z" id="path-empty-user1"></path>
        <path d="M5.94448399,1.99241587 C2.7658363,5.99668633 1.2797153,15.9454408 2.60071174,16.9361881 C3.88042705,17.9269354 6.15088968,17.0187504 6.15088968,17.0187504 C6.15088968,17.0187504 6.10960854,26.9262237 0,28.4536258 C3.3024911,33.6550493 11.4761566,32.1689283 12.6320285,29.8571845 C10.1964413,27.5454408 9.16441281,16.0692842 11.0220641,14.2116329 C14.4896797,10.7027362 17.3793594,4.46928419 15.0263345,1.90985359 C13.1686833,-0.112922212 8.46263345,-1.14495068 5.94448399,1.99241587 Z" id="path-empty-user3"></path>
        <path d="M0.580382968,6.22603974 L0.580382968,-5.77315973e-15 L6.80619974,-5.77315973e-15 L6.80619974,6.22603974 L0.580382968,6.22603974 Z" id="path-empty-user5"></path>
    </defs>
    <g id="Workspace---Normal-user---Em-análise" stroke="none" stroke-width="1" fill="none" fill-rule="evenodd">
        <g id="Normal-user----Workspace---1.0---Sem-acesso-ao-workspace" transform="translate(-1038.000000, -162.000000)">
            <g id="Group-empty-user-8" transform="translate(874.000000, 102.000000)">
                <g id="illustration/profile">
                    <g id="Group-empty-user-2" transform="translate(164.000000, 60.000000)">
                        <g id="Group-empty-user">
                            <g>
                                <path d="M110.373165,226.533932 C116.67397,226.07984 122.808965,225.336779 129.192676,225.130373 C133.420848,224.965249 137.151588,224.758843 141.048138,224.387313 C145.607932,223.974502 152.820696,223.602971 157.380489,223.272722 C161.359945,222.983754 162.271904,223.231441 165.588117,223.231441 C162.106093,223.479128 158.043732,223.93322 154.644613,224.098345 C149.587388,224.387313 144.364352,224.469875 139.307126,224.800124 C137.897736,224.882687 136.322534,224.965249 134.996049,225.254217 C133.420848,225.584466 132.011457,225.873434 130.270445,225.914715 C128.363622,225.955996 126.539705,225.832153 124.632882,225.914715 C122.808965,225.997277 121.067953,226.121121 119.244036,226.286245 C114.767148,226.657776 110.290259,226.781619 105.730466,227.029306" id="Path" fill="#000000" fill-rule="nonzero" opacity="0.260904948" transform="translate(135.659292, 225.080973) rotate(-171.000000) translate(-135.659292, -225.080973) "></path>
                                <path d="M114.390036,211.111744 C113.151601,211.978648 105.184342,221.762278 105.762278,222.298932 C106.381495,222.876868 118.064057,216.313167 116.701779,211.813523 C116.247687,210.203559 114.885409,210.781495 114.390036,211.111744 Z" id="Path" fill="#3A3A3C"></path>
                                <path d="M147.951601,99.8590747 C136.640569,119.096085 118.105338,196.952313 116.619217,210.946619 C116.495374,212.43274 114.55516,212.474021 114.390036,211.153025 C111.913167,193.525979 116.495374,107.454804 122.976512,93.7081851 C124.214947,90.9423488 149.891815,96.5153025 147.951601,99.8590747 Z" id="Path" fill="#2C2C2E"></path>
                                <path d="M162.688968,214.001423 C163.432028,215.074733 166.362989,227.29395 165.124555,228.243416 C163.84484,229.192883 158.478292,216.106762 158.849822,214.785765 C159.180071,213.464769 161.945907,212.928114 162.688968,214.001423 Z" id="Path" fill="#3A3A3C"></path>
                                <path d="M126.733096,35.8733096 C117.568683,44.9551601 83.594306,55.6469751 72.5309609,50.569395 C71.4576512,50.0740214 71.4576512,52.0142349 72.6135231,53.0049822 C80.911032,60.3530249 117.403559,61.0548043 129.41637,51.5188612 C132.553737,49.1245552 128.136655,34.4697509 126.733096,35.8733096 Z" id="Path" fill="#3A3A3C"></path>
                                <path d="M123.430605,91.7679715 C121.201423,101.345196 154.556584,211.359431 159.923132,214.827046 C161.367972,215.776512 162.854093,214.868327 162.358719,213.464769 C158.76726,203.185765 146.878292,107.000712 147.827758,94.7402135 C145.928826,93.5843416 124.256228,88.341637 123.430605,91.7679715 Z" id="Path" fill="#48484A"></path>
                                <g id="Path" transform="translate(120.462280, 34.656458)">
                                    <mask id="mask-empty-user2" fill="white">
                                        <use xlink:href="#path-empty-user1"></use>
                                    </mask>
                                    <use id="Mask-empty-user" fill="#3A3A3C" xlink:href="#path-empty-user1"></use>
                                    <path d="M28.5626309,16.5321536 C29.0992857,19.0503031 29.7185028,29.5769935 29.3882536,33.0446091 C29.0580045,36.5122248 33.5163675,23.9627586 33.5163675,23.9627586 L33.9291789,17.7705878 C33.9291789,17.7705878 28.0259761,14.0140042 28.5626309,16.5321536 Z" fill="#2C2C2E" mask="url(#mask-empty-user2)"></path>
                                </g>
                                <path d="M152.492527,93.2128114 C151.212811,92.6761566 145.061922,94.9053381 144.855516,96.1024911 C144.64911,97.2996441 145.061922,100.684698 145.970107,101.51032 C146.878292,102.335943 148.364413,102.707473 149.272598,102.253381 C150.222064,101.799288 148.240569,101.097509 148.570819,100.354448 C148.859786,99.6113879 153.400712,95.9786477 153.772242,95.194306 C154.143772,94.4512456 153.730961,93.7494662 152.492527,93.2128114 Z" id="Path" fill="#FFAEA9" fill-rule="nonzero"></path>
                                <path d="M150.965125,53.7893238 C182.545196,67.5359431 159.964413,89.3323843 152.61637,93.0064057 C151.460498,93.5843416 152.864057,95.6483986 153.896085,95.3594306 C158.230605,94.2448399 206.281851,69.4348754 158.973665,39.7950178 C151.666904,35.6256228 145.227046,51.3124555 150.965125,53.7893238 Z" id="Path" fill="#3A3A3C"></path>
                                <g id="Path" transform="translate(135.113167, 6.305093)">
                                    <mask id="mask-empty-user4" fill="white">
                                        <use xlink:href="#path-empty-user3"></use>
                                    </mask>
                                    <use id="Mask-empty-user" fill="#FFAEA9" fill-rule="nonzero" xlink:href="#path-empty-user3"></use>
                                    <path d="M6.17697143,17.2251561 C8.64581564,15.5739105 10.9933287,14.6657255 12.0755618,12.6842308 C12.5490387,11.858608 11.1822994,24.4493554 10.5735433,23.0045155 C9.9647872,21.5596757 7.02246602,20.3212415 6.17697143,20.5276472 C5.33147683,20.7340529 5.63585489,17.5554052 6.17697143,17.2251561 Z" fill="#FF887D" fill-rule="nonzero" mask="url(#mask-empty-user4)"></path>
                                </g>
                                <path d="M138.167972,2.06405694 C136.269039,3.05480427 136.145196,7.96725979 137.342349,9.08185053 C139.158719,10.7743772 144.360142,10.6505338 146.011388,11.1459075 C149.231317,12.0953737 145.598577,19.8562278 147.249822,20.6405694 C148.942349,21.424911 151.17153,20.1451957 151.790747,18.5765125 C152.451246,17.0078292 152.120996,15.769395 152.575089,14.86121 C152.9879,13.9530249 154.969395,11.1046263 154.267616,7.84341637 C153.68968,5.07758007 151.625623,5.44911032 150.965125,4.95373665 C150.304626,4.45836299 150.015658,1.40355872 148.075445,0.825622776 C146.176512,0.247686833 144.772954,3.01352313 143.53452,2.88967972 C142.048399,2.72455516 140.851246,0.660498221 138.167972,2.06405694 Z" id="Path" fill="#31383F" fill-rule="nonzero"></path>
                                <path d="M146.300356,14.5309609 C146.671886,13.7053381 149.272598,12.6733096 149.602856,13.4989324 C150.511032,15.7281139 146.382918,18.5765125 145.804982,18.0811388 C145.268327,17.6270463 145.928826,15.3565836 146.300356,14.5309609 Z" id="Path" fill="#FFAEA9" fill-rule="nonzero"></path>
                                <path d="M72.7373665,50.4455516 C69.6412811,47.7209964 56.1423488,45.0790036 57.4633452,47.886121 C58.7430605,50.6519573 71.2512456,53.9544484 72.6135231,53.3765125 C73.3153025,53.0462633 73.4391459,51.0647687 72.7373665,50.4455516 Z" id="Path" fill="#FFAEA9" fill-rule="nonzero"></path>
                                <path d="M6.35729537,7.84341637 L82.3145907,61.4676157 C82.686121,61.7565836 82.7686833,62.2519573 82.4797153,62.6234875 C82.2320285,62.9950178 81.6953737,63.0775801 81.3238434,62.7886121 L5.40782918,9.16441281 C5.03629893,8.87544484 4.95373665,8.38007117 5.20142349,8.00854093 C5.49039146,7.67829181 5.98576512,7.59572954 6.35729537,7.84341637 Z" id="Path" fill="#3A3A3C"></path>
                                <g id="Group-empty-user-15">
                                    <rect id="Rectangle" fill="#3A3A3C" x="0" y="0" width="14.4483986" height="9.49466192" rx="0.825622776"></rect>
                                    <rect id="Rectangle-Copy-3" stroke="#48484A" stroke-width="0.5" x="1.03202847" y="0.825622776" width="12.3843416" height="7.84341637" rx="0.825622776"></rect>
                                    <rect id="Rectangle-Copy-4" fill="#1C1C1E" x="2.06405694" y="1.65124555" width="1.65124555" height="1.65124555" rx="0.825622776"></rect>
                                </g>
                                <path d="M67.6597865,48.2576512 C65.430605,47.7209964 58.8256228,46.7715302 59.197153,47.5558719 C59.5686833,48.3402135 67.4946619,51.6014235 68.8569395,50.8996441 C70.1779359,50.1978648 69.888968,48.794306 67.6597865,48.2576512 Z" id="Path" fill="#FFAEA9" fill-rule="nonzero"></path>
                            </g>
                        </g>
                        <g id="Group-empty-user" transform="translate(64.000000, 3.000000)">
                            <path d="M25.1756387,33.8881781 C26.3595974,35.0721368 26.3595974,36.991889 25.1756387,38.1758477 C23.99168,39.3598065 22.0719277,39.3598065 20.887969,38.1758477 C19.7040103,36.991889 19.7040103,35.0721368 20.887969,33.8881781 C22.0719277,32.7039406 23.99168,32.7039406 25.1756387,33.8881781" id="Fill-27" fill="#0A84FF"></path>
                            <g id="Group-empty-user-31" transform="translate(130.419617, 18.000000)">
                                <mask id="mask-empty-user6" fill="white">
                                    <use xlink:href="#path-empty-user5"></use>
                                </mask>
                                <use id="Combined-Shape" fill="#0A84FF" xlink:href="#path-empty-user5"></use>
                            </g>
                            <g id="Group-empty-user-34" transform="translate(0.000000, 0.345806)" fill="#FFD60A">
                                <path d="M-2.78709677e-05,0.220459355 L2.26030761,8.65616516 L8.43567794,2.48079484 L-2.78709677e-05,0.220459355 Z M1.38543794,1.60592516 L6.54296052,2.98776774 L2.76728052,6.76344774 L1.38543794,1.60592516 Z" id="Fill-32"></path>
                            </g>
                            <path d="M118.953486,27 C117.322477,27 116,28.3221987 116,29.9534865 C116,31.5844955 117.322477,32.9066942 118.953486,32.9066942 C120.584774,32.9066942 121.906694,31.5844955 121.906694,29.9534865 C121.906694,28.3221987 120.584774,27 118.953486,27 M118.953486,27.7173987 C120.186219,27.7173987 121.189295,28.7204748 121.189295,29.9534865 C121.189295,31.1862194 120.186219,32.1892955 118.953486,32.1892955 C117.720475,32.1892955 116.717677,31.1862194 116.717677,29.9534865 C116.717677,28.7204748 117.720475,27.7173987 118.953486,27.7173987" id="Fill-35" fill="#0A84FF"></path>
                            <path d="M37.845151,21.9157058 L42.6041187,21.9157058 L42.6041187,17.1567381 L37.845151,17.1567381 L37.845151,21.9157058 Z M38.4903639,21.2707716 L41.9589058,21.2707716 L41.9589058,17.8022297 L38.4903639,17.8022297 L38.4903639,21.2707716 Z" id="Fill-37" fill="#FFD60A"></path>
                            <path d="M125.105105,79 L122,82.1048258 L125.105105,85.2099303 L128.20993,82.1048258 L125.105105,79 Z M125.105105,79.9389729 L127.270957,82.1048258 L125.105105,84.2709574 L122.939252,82.1048258 L125.105105,79.9389729 Z" id="Fill-39" fill="#FFD60A"></path>
                        </g>
                    </g>
                </g>
            </g>
        </g>
    </g>
</svg>