<?xml version="1.0" encoding="UTF-8"?>
<svg width="10px" height="10px" viewBox="0 0 10 10" version="1.1" xmlns="http://www.w3.org/2000/svg" xmlns:xlink="http://www.w3.org/1999/xlink">
    <defs>
        <path d="M5,0.416666667 C7.52708333,0.416666667 9.58333333,2.47291667 9.58333333,5 C9.58333333,7.52708333 7.52708333,9.58333333 5,9.58333333 C2.47291667,9.58333333 0.416666667,7.52708333 0.416666667,5 C0.416666667,2.47291667 2.47291667,0.416666667 5,0.416666667 Z M5,1.25 C2.9325,1.25 1.25,2.9325 1.25,5 C1.25,7.06791667 2.9325,8.75 5,8.75 C7.06791667,8.75 8.75,7.06791667 8.75,5 C8.75,2.9325 7.06791667,1.25 5,1.25 Z M5.29583333,6.37166667 C5.33333333,6.40916667 5.3625,6.455 5.38333333,6.50916667 C5.40833333,6.55916667 5.41666667,6.61333333 5.41666667,6.6675 C5.41666667,6.78 5.375,6.88416667 5.29583333,6.95916667 C5.21666667,7.03833333 5.1125,7.08416667 5,7.08416667 C4.8875,7.08416667 4.78333333,7.03833333 4.70416667,6.95916667 C4.625,6.88416667 4.58333333,6.78 4.58333333,6.6675 C4.58333333,6.61333333 4.59583333,6.55916667 4.61666667,6.50916667 C4.6375,6.455 4.66666667,6.40916667 4.70416667,6.37166667 C4.74583333,6.33416667 4.7875,6.30083333 4.84166667,6.27958333 C4.99166667,6.2175 5.17916667,6.255 5.29583333,6.37166667 Z M5,2.91666667 C5.23,2.91666667 5.41666667,3.10333333 5.41666667,3.33333333 L5.41666667,5 C5.41666667,5.23 5.23,5.41666667 5,5.41666667 C4.77,5.41666667 4.58333333,5.23 4.58333333,5 L4.58333333,3.33333333 C4.58333333,3.10333333 4.77,2.91666667 5,2.91666667 Z" id="path-error-threshold"></path>
    </defs>
    <g id="Modules---Create-module---2" stroke="none" stroke-width="1" fill="none" fill-rule="evenodd">
        <g id="Modules---0.0---2-components" transform="translate(-647.000000, -413.000000)">
            <g id="Group-4" transform="translate(469.000000, 155.000000)">
                <g id="Group-Copy-3">
                    <g id="card/groups-copy" transform="translate(44.000000, 191.000000)">
                        <g id="card/workspace">
                            <g id="Icon/Card/Info-Copy-2" transform="translate(134.000000, 67.000000)">
                                <mask id="mask-error-threshold" fill="white">
                                    <use xlink:href="#path-error-threshold"></use>
                                </mask>
                                <use id="Icon-Alert-Circle" fill="currentColor" xlink:href="#path-error-threshold"></use>
                            </g>
                        </g>
                    </g>
                </g>
            </g>
        </g>
    </g>
</svg>