<?xml version="1.0" encoding="UTF-8"?>
<svg viewBox="0 0 20 20" version="1.1" xmlns="http://www.w3.org/2000/svg" xmlns:xlink="http://www.w3.org/1999/xlink">
    <defs>
        <path d="M11,5 C11.552,5 12,5.448 12,6 C12,6.552 11.552,7 11,7 L11,7 L5,7 C4.449,7 4,7.449 4,8 L4,8 L4,19 C4,19.552 4.449,20 5,20 L5,20 L16,20 C16.552,20 17,19.552 17,19 L17,19 L17,13 C17,12.448 17.447,12 18,12 C18.553,12 19,12.448 19,13 L19,13 L19,19 C19,20.654 17.654,22 16,22 L16,22 L5,22 C3.346,22 2,20.654 2,19 L2,19 L2,8 C2,6.346 3.346,5 5,5 L5,5 Z M20.9999,2.0002 C21.1299,2.0002 21.2599,2.0262 21.3819,2.0772 C21.6269,2.1782 21.8209,2.3732 21.9229,2.6182 C21.9739,2.7402 21.9999,2.8692 21.9999,3.0002 L21.9999,3.0002 L21.9999,9.0002 C21.9999,9.5522 21.5529,10.0002 20.9999,10.0002 C20.4469,10.0002 19.9999,9.5522 19.9999,9.0002 L19.9999,9.0002 L19.9999,5.4142 L10.7069,14.7072 C10.5119,14.9022 10.2559,15.0002 9.9999,15.0002 C9.7439,15.0002 9.4879,14.9022 9.2929,14.7072 C8.9019,14.3162 8.9019,13.6832 9.2929,13.2932 L9.2929,13.2932 L18.5859,4.0002 L14.9999,4.0002 C14.4469,4.0002 13.9999,3.5522 13.9999,3.0002 C13.9999,2.4482 14.4469,2.0002 14.9999,2.0002 L14.9999,2.0002 Z" id="path-external-link"></path>
    </defs>
    <g id="Circles---Health" stroke="none" stroke-width="1" fill="none" fill-rule="evenodd">
        <g id="Circles---1.0---Expand---Health" transform="translate(-1439.000000, -82.000000)">
            <g id="Icon/Link/External-Link" transform="translate(1437.000000, 80.000000)">
                <mask id="mask-external-link" fill="white">
                    <use xlink:href="#path-external-link"></use>
                </mask>
                <use id="Icon-External-Link" fill="currentColor" fill-rule="evenodd" xlink:href="#path-external-link"></use>
            </g>
        </g>
    </g>
</svg>