<?xml version="1.0" encoding="UTF-8"?>
<svg width="16px" height="16px" viewBox="0 0 16 16" version="1.1" xmlns="http://www.w3.org/2000/svg" xmlns:xlink="http://www.w3.org/1999/xlink">
    <defs>
        <path d="M8,0.666666667 C12.0433333,0.666666667 15.3333333,3.95666667 15.3333333,8 C15.3333333,12.0433333 12.0433333,15.3333333 8,15.3333333 C3.95666667,15.3333333 0.666666667,12.0433333 0.666666667,8 C0.666666667,3.95666667 3.95666667,0.666666667 8,0.666666667 Z M6.33525243,13.2337988 C5.86704896,13.3341281 5.48475016,13.3407432 5.17376684,13.2919408 C5.54048148,13.4882411 5.92891162,13.6475236 6.33491238,13.7649763 Z M8,2 C4.692,2 2,4.692 2,8 C2,9.72554636 2.73218746,11.2831864 3.90208754,12.3787291 C3.614164,11.5152166 3.11291087,11.3003938 3.11291087,11.3003938 C2.54005014,10.9184867 3.04218732,10.8760526 3.16084571,10.8713377 L3.18451846,10.8707483 C3.90059436,10.9423559 4.25863231,11.6584318 4.25863231,11.6584318 C4.90310063,12.8041532 5.90560689,12.5177229 6.33525243,12.3029001 C6.40686002,11.801647 6.5500752,11.5152166 6.76489798,11.3003938 C5.1179234,11.0855711 3.47094882,10.4411028 3.47094882,7.64840673 C3.47094882,6.78911565 3.75737918,6.14464733 4.18702472,5.6433942 C4.11541713,5.42857143 3.82898677,4.71249552 4.18702472,3.63838167 C4.18702472,3.63838167 4.83149304,3.49516649 6.19203725,4.42606516 C6.76489798,4.28284998 7.40936629,4.21124239 7.98222701,4.21124239 C8.62669533,4.21124239 9.19955605,4.28284998 9.84402436,4.42606516 C11.2045686,3.4235589 11.7774293,3.63838167 11.7774293,3.63838167 C12.1354673,4.64088793 11.9206445,5.35696384 11.8490369,5.57178661 C12.2786824,6.14464733 12.5651128,6.78911565 12.5651128,7.57679914 C12.5651128,10.4411028 10.8465306,11.0139635 9.27116364,11.2287863 C9.557594,11.443609 9.77241677,11.8732546 9.77241677,12.5893305 C9.77241677,12.9995783 9.77241677,13.3959186 9.7846748,13.7293195 C12.2247609,12.9671704 14,10.6871858 14,8 C14,4.692 11.3086667,2 8,2 Z" id="path-github"></path>
    </defs>
    <g id="Workspaces-github" stroke="none" stroke-width="1" fill="none" fill-rule="evenodd">
        <g id="Settings---Workspace---4.1-github" transform="translate(-544.000000, -235.000000)">
            <rect fill="transparent" x="0" y="0" width="1920" height="1241"></rect>
            <g id="Group-github-7" transform="translate(513.000000, 156.000000)">
                <g id="Group-github-6" transform="translate(0.000000, 67.000000)">
                    <g id="1.-Buttons/3.-Small/1.-Button/2.-Rounded/1.-White-Copy">
                        <rect id="placeholder-github" fill="transparent" x="0" y="0" width="116" height="40" rx="20"></rect>
                        <g id="Group-github" transform="translate(31.000000, 12.000000)">
                            <g id="Icon/Math/Plus/Circle-github">
                                <mask id="mask-github" fill="white">
                                    <use xlink:href="#path-github"></use>
                                </mask>
                                <use id="icon-card-github" fill="currentColor" xlink:href="#path-github"></use>
                            </g>
                        </g>
                    </g>
                </g>
            </g>
        </g>
    </g>
</svg>