<?xml version="1.0" encoding="UTF-8"?>
<svg width="22px" height="22px" viewBox="0 0 22 22" version="1.1" xmlns="http://www.w3.org/2000/svg" xmlns:xlink="http://www.w3.org/1999/xlink">
    <defs>
        <path d="M11,0 C17.065,0 22,4.935 22,11 C22,17.065 17.065,22 11,22 C4.935,22 0,17.065 0,11 C0,4.935 4.935,0 11,0 Z M11,2 C6.038,2 2,6.038 2,11 C2,13.751087 3.24075612,16.2176421 5.19187415,17.8697819 L5.25913337,17.0983534 L9.75844371,19.0810135 L9.82632834,19.9238045 C10.2105479,19.9740676 10.6023062,20 11,20 C15.2252955,20 18.7794148,17.0739322 19.7426352,13.1415192 L19.6320726,13.1033452 L19.1926637,12.9509642 L9.71180989,9.66163745 L19.375915,10.3552335 C19.3516542,9.98828426 19.3055116,9.6232204 19.2377722,9.26198479 L19.1628444,8.90209722 L9.85814815,9.21881315 L18.2563091,6.51996258 L18.2383123,6.48528277 C17.9894913,6.03934679 17.7046686,5.61472796 17.3867856,5.21562358 L17.1422204,4.92114484 L9.71180989,8.76639936 L15.1079347,3.15470806 L15.2110078,3.04733127 C13.9538664,2.37895219 12.5203841,2 11,2 Z M5.36908411,15.8578936 L9.64914979,17.744002 L9.71180989,18.5120808 L5.30589856,16.5704059 L5.36908411,15.8578936 Z M5.47864076,14.6173025 L9.5397245,16.4067278 L9.60251596,17.1750693 L5.41571793,15.3299462 L5.47864076,14.6173025 Z M5.5885915,13.3767113 L9.43043058,15.0697163 L9.49322204,15.8379265 L5.52540595,14.0896177 L5.5885915,13.3767113 Z M7.4034355,5.20477242 C7.48620708,5.20477242 7.55692207,5.25753051 7.58328681,5.33158933 L7.5942401,5.39063581 L7.5942401,5.52988047 L9.61591498,7.5082056 L9.61591498,8.12771299 L9.25203977,8.12771299 L9.25203977,10.283378 L9.61591498,10.283378 L9.61591498,11.339667 L9.12540595,11.339667 L9.38379675,14.500915 L5.63522532,12.8490266 L5.76869002,11.339667 L5.1906933,11.339667 L5.1906933,10.283378 L5.55483123,10.283378 L5.55483123,8.12784435 L5.1906933,8.12784435 L5.1906933,7.5082056 L7.2126309,5.52988047 L7.2126309,5.39063581 C7.21534497,5.28720694 7.29997102,5.20477242 7.4034355,5.20477242 Z M8.66668673,8.12784435 L6.14005291,8.12784435 L6.14005291,10.283378 L6.73959314,10.283378 L6.73959314,9.36265552 C6.73622582,9.12330915 6.8619868,8.90068886 7.06872383,8.78003305 C7.27546086,8.65937725 7.53114742,8.65937725 7.73788445,8.78003305 C7.91508762,8.88345231 8.03279818,9.06178426 8.06069285,9.26135106 L8.06701514,9.36265552 L8.06701514,10.283378 L8.66668673,10.283378 L8.66668673,8.12784435 Z" id="path-harbor"></path>
    </defs>
    <g id="Symbols" stroke="none" stroke-width="1" fill="none" fill-rule="evenodd">
        <g id="Icon/Math/Plus/Circle-Copy">
            <mask id="mask-harbor" fill="white">
                <use xlink:href="#path-harbor"></use>
            </mask>
            <use id="icon-card-git-copy" fill="currentColor" xlink:href="#path-harbor"></use>
        </g>
    </g>
</svg>