<?xml version="1.0" encoding="UTF-8"?>
<svg width="24px" height="24px" viewBox="0 0 24 24" version="1.1" xmlns="http://www.w3.org/2000/svg" xmlns:xlink="http://www.w3.org/1999/xlink">
    <defs>
        <path d="M12,1 C18.065,1 23,5.935 23,12 C23,18.065 18.065,23 12,23 C5.935,23 1,18.065 1,12 C1,5.935 5.935,1 12,1 Z M12,3 C7.038,3 3,7.038 3,12 C3,16.963 7.038,21 12,21 C16.963,21 21,16.963 21,12 C21,7.038 16.963,3 12,3 Z M11.29,16.292 C11.67,15.922 12.34,15.922 12.71,16.292 C12.8,16.382 12.87,16.492 12.92,16.622 C12.97,16.742 13,16.872 13,17.002 C13,17.271 12.9,17.521 12.71,17.702 C12.52,17.892 12.27,18.002 12,18.002 C11.73,18.002 11.48,17.892 11.29,17.702 C11.2,17.611 11.13,17.502 11.08,17.382 C11.03,17.262 11,17.132 11,17.002 C11,16.872 11.03,16.742 11.08,16.622 C11.13,16.492 11.2,16.382 11.29,16.292 Z M8.1461,8.6682 C8.8791,6.5872 11.1681,5.4932 13.2471,6.2222 C14.8491,6.7852 15.9231,8.3042 15.9201063,10.0012 C15.9201063,12.6442 12.6131,13.8232 12.2361,13.9482 C12.1311,13.9832 12.0241,14.0002 11.9201,14.0002 C11.5011,14.0002 11.1111,13.7352 10.9711,13.3162 C10.7961,12.7922 11.0801,12.2262 11.6031,12.0512 C12.2031,11.8482 13.9201,11.0342 13.9201,10.0002 C13.9211,9.1502 13.3851,8.3902 12.5841,8.1092 C11.5441,7.7432 10.4001,8.2922 10.0331,9.3322 C9.8511,9.8522 9.2801,10.1262 8.7581,9.9432 C8.2371,9.7602 7.9631,9.1892 8.1461,8.6682 Z" id="path-help"></path>
    </defs>
    <g id="Symbols" stroke="none" stroke-width="1" fill="none" fill-rule="evenodd">
        <g id="Icon/Help/Help">
            <mask id="mask-help" fill="white">
                <use xlink:href="#path-help"></use>
            </mask>
            <use id="Icon-Help" fill="currentColor" xlink:href="#path-help"></use>
        </g>
    </g>
</svg>
