<?xml version="1.0" encoding="UTF-8"?>
<svg width="18px" height="4px" viewBox="0 0 18 4" version="1.1" xmlns="http://www.w3.org/2000/svg" xmlns:xlink="http://www.w3.org/1999/xlink">
    <defs>
        <path d="M12,17 C13.1045695,17 14,17.8954305 14,19 C14,20.1045695 13.1045695,21 12,21 C10.8954305,21 10,20.1045695 10,19 C10,17.8954305 10.8954305,17 12,17 Z M12,10 C13.1045695,10 14,10.8954305 14,12 C14,13.1045695 13.1045695,14 12,14 C10.8954305,14 10,13.1045695 10,12 C10,10.8954305 10.8954305,10 12,10 Z M12,3 C13.1045695,3 14,3.8954305 14,5 C14,6.1045695 13.1045695,7 12,7 C10.8954305,7 10,6.1045695 10,5 C10,3.8954305 10.8954305,3 12,3 Z" id="path-horizontal-dots"></path>
    </defs>
    <g id="horizontal-dots" stroke="none" stroke-width="1" fill="none" fill-rule="evenodd">
        <g id="graph/metrics/horizontal-dots" transform="translate(-1180.000000, -32.000000)">
            <g id="Group-16-horizontal-dots">
                <g id="Group-2-horizontal-dots">
                    <g id="Group-horizontal-dots" transform="translate(26.000000, 22.000000)">
                        <g id="Icon/Menu/More/horizontal-dots" transform="translate(1151.000000, 0.000000)">
                            <mask id="mask-horizontal-dots" fill="white">
                                <use xlink:href="#path-horizontal-dots"></use>
                            </mask>
                            <use id="Icon-horizontal-dots" fill="currentColor" fill-rule="evenodd" transform="translate(12.000000, 12.000000) rotate(90.000000) translate(-12.000000, -12.000000) " xlink:href="#path-horizontal-dots"></use>
                        </g>
                    </g>
                </g>
            </g>
        </g>
    </g>
</svg>