<?xml version="1.0" encoding="UTF-8"?>
<svg width="16px" height="16px" viewBox="0 0 12 12" version="1.1" xmlns="http://www.w3.org/2000/svg" xmlns:xlink="http://www.w3.org/1999/xlink">
    <title>Icon/Math/Plus/Circle</title>
    <defs>
        <path d="M9.66666667,7.33333333 C10.9533333,7.33333333 12,8.38 12,9.66666667 C12,10.9533333 10.9533333,12 9.66666667,12 C8.38,12 7.33333333,10.9533333 7.33333333,9.66666667 C7.33333333,8.38 8.38,7.33333333 9.66666667,7.33333333 Z M11.138,0.862 C11.3986667,1.12266667 11.3986667,1.544 11.138,1.80466667 L1.80466667,11.138 C1.67466667,11.268 1.504,11.3333333 1.33333333,11.3333333 C1.16266667,11.3333333 0.992,11.268 0.862,11.138 C0.601333333,10.8773333 0.601333333,10.456 0.862,10.1953333 L10.1953333,0.862 C10.456,0.601333333 10.8773333,0.601333333 11.138,0.862 Z M9.66666667,8.66666667 C9.11533333,8.66666667 8.66666667,9.11533333 8.66666667,9.66666667 C8.66666667,10.218 9.11533333,10.6666667 9.66666667,10.6666667 C10.218,10.6666667 10.6666667,10.218 10.6666667,9.66666667 C10.6666667,9.11533333 10.218,8.66666667 9.66666667,8.66666667 Z M2.33333333,0 C3.62,0 4.66666667,1.04666667 4.66666667,2.33333333 C4.66666667,3.62 3.62,4.66666667 2.33333333,4.66666667 C1.04666667,4.66666667 0,3.62 0,2.33333333 C0,1.04666667 1.04666667,0 2.33333333,0 Z M2.33333333,1.33333333 C1.782,1.33333333 1.33333333,1.782 1.33333333,2.33333333 C1.33333333,2.88466667 1.782,3.33333333 2.33333333,3.33333333 C2.88466667,3.33333333 3.33333333,2.88466667 3.33333333,2.33333333 C3.33333333,1.782 2.88466667,1.33333333 2.33333333,1.33333333 Z" id="path-1-percentage"></path>
    </defs>
    <g id="Circles---Create-circle" stroke="none" stroke-width="1" fill="none" fill-rule="evenodd">
        <g id="Group-percentage" transform="translate(-2.000000, -2.000000)">
            <g id="Icon/Math/Plus/Circle" transform="translate(8.000000, 8.000000) rotate(-270.000000) translate(-8.000000, -8.000000) ">
                <g id="Icons/Math/Percent" transform="translate(2.000000, 2.000000)">
                    <mask id="mask-2-percentage" fill="white">
                        <use xlink:href="#path-1-percentage"></use>
                    </mask>
                    <use id="Icon-Percent" fill="currentColor" xlink:href="#path-1-percentage"></use>
                </g>
            </g>
        </g>
    </g>
</svg>