<?xml version="1.0" encoding="UTF-8"?>
<svg width="20px" height="20px" viewBox="0 0 20 20" version="1.1" xmlns="http://www.w3.org/2000/svg" xmlns:xlink="http://www.w3.org/1999/xlink">
    <defs>
        <path d="M17,0 C18.654,0 20,1.346 20,3 L20,17 C20,18.654 18.654,20 17,20 L3,20 C1.346,20 0,18.654 0,17 L0,3 C0,1.346 1.346,0 3,0 L17,0 Z M14,9.414 L5.412,18 L17,18 C17.552,18 18,17.552 18,17 L18,13.414 L14,9.414 Z M17,2 L3,2 C2.449,2 2,2.449 2,3 L2,17 C2,17.4283551 2.27038089,17.7940829 2.64899006,17.9364329 L13.293,7.293 C13.684,6.902 14.316,6.902 14.707,7.293 L18,10.586 L18,3 C18,2.449 17.552,2 17,2 Z M6.5,4 C7.878,4 9,5.122 9,6.5 C9,7.878 7.878,9 6.5,9 C5.122,9 4,7.878 4,6.5 C4,5.122 5.122,4 6.5,4 Z M6.5,6 C6.224,6 6,6.224 6,6.5 C6,6.776 6.224,7 6.5,7 C6.776,7 7,6.776 7,6.5 C7,6.224 6.776,6 6.5,6 Z" id="path-picture"></path>
    </defs>
    <g id="Settings-picture" stroke="none" stroke-width="1" fill="none" fill-rule="evenodd">
        <g id="Settings-picture---Workspace---16.0---Profile" transform="translate(-471.000000, -117.000000)">
            <g id="Group-picture-13" transform="translate(438.000000, 0.000000)">
                <g id="Avartar" transform="translate(33.000000, 94.000000)">
                    <g id="Icon-picture/User/Circle" transform="translate(0.000000, 23.000000)">
                        <mask id="mask-2" fill="white">
                            <use xlink:href="#path-picture"></use>
                        </mask>
                        <use id="Icon-picture-Image" fill="currentColor" xlink:href="#path-picture"></use>
                    </g>
                </g>
            </g>
        </g>
    </g>
</svg>