<?xml version="1.0" encoding="UTF-8"?>
<svg width="217px" height="218px" viewBox="0 0 217 218" version="1.1" xmlns="http://www.w3.org/2000/svg" xmlns:xlink="http://www.w3.org/1999/xlink">
    <!-- Generator: Sketch 64 (93537) - https://sketch.com -->
    <title>metrics</title>
    <defs>
        <path d="M0.580382968,6.22603974 L0.580382968,-5.77315973e-15 L6.80619974,-5.77315973e-15 L6.80619974,6.22603974 L0.580382968,6.22603974 Z" id="path-homepage-metrics"></path>
        <linearGradient x1="50%" y1="0.267274716%" x2="50%" y2="99.2794552%" id="linearGradient-3">
            <stop stop-color="#30D158" offset="0%"></stop>
            <stop stop-color="#2C2C2E" stop-opacity="0" offset="100%"></stop>
        </linearGradient>
        <linearGradient x1="50%" y1="0.267274716%" x2="50%" y2="99.2794552%" id="linearGradient-4">
            <stop stop-color="#FF453A" offset="0%"></stop>
            <stop stop-color="#2C2C2E" stop-opacity="0" offset="100%"></stop>
        </linearGradient>
        <linearGradient x1="50%" y1="0.267274716%" x2="50%" y2="99.2794552%" id="linearGradient-5">
            <stop stop-color="#FF453A" offset="0%"></stop>
            <stop stop-color="#2C2C2E" stop-opacity="0" offset="100%"></stop>
        </linearGradient>
        <linearGradient x1="50%" y1="0.267274716%" x2="50%" y2="99.2794552%" id="linearGradient-6">
            <stop stop-color="#30D158" offset="0%"></stop>
            <stop stop-color="#2C2C2E" stop-opacity="0" offset="100%"></stop>
        </linearGradient>
    </defs>
    <g id="Illustrations" stroke="none" stroke-width="1" fill="none" fill-rule="evenodd">
        <g id="Galápagos---Dark-Mode---Illustrations" transform="translate(-428.000000, -750.000000)">
            <g id="illustration/metrics" transform="translate(236.000000, 696.000000)">
                <g id="Group" transform="translate(228.000000, 63.000000)">
                    <path d="M25.1756387,33.8881781 C26.3595974,35.0721368 26.3595974,36.991889 25.1756387,38.1758477 C23.99168,39.3598065 22.0719277,39.3598065 20.887969,38.1758477 C19.7040103,36.991889 19.7040103,35.0721368 20.887969,33.8881781 C22.0719277,32.7039406 23.99168,32.7039406 25.1756387,33.8881781" id="Fill-27" fill="#0A84FF"></path>
                    <g id="Group-31" transform="translate(130.419617, 18.000000)">
                        <mask id="mask-2" fill="white">
                            <use xlink:href="#path-1"></use>
                        </mask>
                        <use id="Combined-Shape" fill="#0A84FF" xlink:href="#path-1"></use>
                    </g>
                    <g id="Group-34" transform="translate(0.000000, 0.345806)" fill="#FFD60A">
                        <path d="M-2.78709677e-05,0.220459355 L2.26030761,8.65616516 L8.43567794,2.48079484 L-2.78709677e-05,0.220459355 Z M1.38543794,1.60592516 L6.54296052,2.98776774 L2.76728052,6.76344774 L1.38543794,1.60592516 Z" id="Fill-32"></path>
                    </g>
                    <path d="M118.953486,27 C117.322477,27 116,28.3221987 116,29.9534865 C116,31.5844955 117.322477,32.9066942 118.953486,32.9066942 C120.584774,32.9066942 121.906694,31.5844955 121.906694,29.9534865 C121.906694,28.3221987 120.584774,27 118.953486,27 M118.953486,27.7173987 C120.186219,27.7173987 121.189295,28.7204748 121.189295,29.9534865 C121.189295,31.1862194 120.186219,32.1892955 118.953486,32.1892955 C117.720475,32.1892955 116.717677,31.1862194 116.717677,29.9534865 C116.717677,28.7204748 117.720475,27.7173987 118.953486,27.7173987" id="Fill-35" fill="#0A84FF"></path>
                    <path d="M37.845151,21.9157058 L42.6041187,21.9157058 L42.6041187,17.1567381 L37.845151,17.1567381 L37.845151,21.9157058 Z M38.4903639,21.2707716 L41.9589058,21.2707716 L41.9589058,17.8022297 L38.4903639,17.8022297 L38.4903639,21.2707716 Z" id="Fill-37" fill="#FFD60A"></path>
                    <path d="M109.105105,79 L106,82.1048258 L109.105105,85.2099303 L112.20993,82.1048258 L109.105105,79 Z M109.105105,79.9389729 L111.270957,82.1048258 L109.105105,84.2709574 L106.939252,82.1048258 L109.105105,79.9389729 Z" id="Fill-39" fill="#FFD60A"></path>
                </g>
                <g id="Ativo-4" transform="translate(271.000000, 54.000000)">
                    <path d="M54.5005025,204.794152 C56.7466999,205.764341 64.8034832,212.450205 62.9369248,212.713843 C61.0703663,212.977482 51.9801213,207.441079 52.3913969,206.386527 C52.8026725,205.331974 52.2648505,203.813418 54.5005025,204.794152 Z" id="Path-homepage-metrics" fill="#3A3A3C"></path>
                    <path d="M51.853575,92.9061009 C55.2386894,108.186571 55.7237837,204.214148 55.0172333,205.321428 C54.310683,206.428709 52.9081277,205.848705 52.9081277,205.848705 C52.9081277,205.848705 34.9912758,109.67349 29.1279623,94.48793 C28.3159567,92.38937 51.4844815,91.2188164 51.853575,92.9061009 Z" id="Path-homepage-metrics" fill="#2C2C2E"></path>
                    <path d="M50.7252035,94.9730243 C47.4139077,120.197927 43.7546095,149.809769 42.2149624,150.199954 L37.6592944,130.005268 C37.6592944,130.005268 49.9342889,91.3980904 50.7252035,94.9730243 Z" id="Path-homepage-metrics" fill="#1C1C1E" opacity="0.596888951"></path>
                    <path d="M53.9732261,37.5709401 C60.3005428,58.3541104 75.6970192,72.9560689 86,76.4876598 C87.0545528,76.8456566 86.1581829,78.422778 84.9454472,78.422778 C80.8748734,78.3066709 59.8998127,76.1475228 52.3913969,59.3603719 C50.5459295,55.190192 53.3826765,35.5293904 53.9732261,37.5709401 Z" id="Path-homepage-metrics" fill="#1C1C1C" fill-rule="nonzero"></path>
                    <path d="M53.8956032,37.5730901 C63.6291254,64.6223692 89.0438477,74.387528 95.4344376,75.8639019 C96.9424481,76.2013588 92.9878751,78.7111945 92.9878751,78.7111945 L64.5149498,72.6053338 L55.150521,61.6063482 L52.2926829,50.5651805 C52.2926829,50.5651805 52.872687,34.6730699 53.8956032,37.5730901 Z" id="Path-homepage-metrics" fill="#2C2C2E"></path>
                    <g id="Group-6-Copy-9" transform="translate(31.000000, 47.000000)">
                        <rect id="Rectangle-Copy" fill="#3A3A3C" x="0" y="0" width="99" height="31.5755968" rx="1.57877984"></rect>
                        <path d="M25.2,21.4 L9.7,21.4 C8.8,21.4 8,20.7 8,19.7 C8,18.8 8.7,18 9.7,18 L25.2,18 C26.1,18 26.9,18.7 26.9,19.7 C26.9,20.6 26.2,21.4 25.2,21.4 Z" id="Path-homepage-metrics-Copy" fill="#48484A"></path>
                        <path d="M35.2,13.4 L9.7,13.4 C8.8,13.4 8,12.7 8,11.7 L8,11.7 C8,10.8 8.7,10 9.7,10 L35.2,10 C36.1,10 36.9,10.7 36.9,11.7 L36.9,11.7 C36.9,12.6 36.2,13.4 35.2,13.4 Z" id="Path-homepage-metrics" fill="#48484A"></path>
                        <path d="M54.2,21.4 L38.7,21.4 C37.8,21.4 37,20.7 37,19.7 C37,18.8 37.7,18 38.7,18 L54.2,18 C55.1,18 55.9,18.7 55.9,19.7 C55.9,20.6 55.2,21.4 54.2,21.4 Z" id="Path-homepage-metrics-Copy-2" fill="#48484A"></path>
                        <g id="Group" transform="translate(59.006366, 6.709814)">
                            <g id="coin_graph" transform="translate(17.561273, 9.500000) scale(-1, 1) translate(-17.561273, -9.500000) translate(0.561273, 0.000000)">
                                <path d="M0,3.64936091 C2.18440522,4.30051528 4.60908713,5.15271635 6.93890407,2.75314102 C9.26872101,0.35356568 12.2332272,0.35356568 13.1085237,0.35356568 C13.9838201,0.35356568 18.0327032,6.78495317 19.38834,6.47177143 C20.7439768,6.15858968 21.871146,9.79483915 24.5411324,10.2209397 C27.2111189,10.6470402 29.0056175,12.1056827 30.5156004,12.4708764 C31.5222557,12.7143389 32.6232283,12.4051335 33.8185182,11.5432601" id="Path-homepage-metrics-2" stroke="#30D158" stroke-width="0.615384615"></path>
                                <path d="M0,3.64936091 C3.07272475,4.65159787 5.38569278,4.35285791 6.93890407,2.75314102 C9.26872101,0.35356568 12.2332272,0.35356568 13.1085237,0.35356568 C13.9838201,0.35356568 18.7300934,6.94815315 19.38834,6.47177143 C20.0465865,5.99538971 22.3127293,9.97474076 24.9794193,10.2209397 C27.6461094,10.4671386 28.8283431,12.359903 30.3604817,12.5891094 C31.3819075,12.7419137 32.5345863,12.3932973 33.8185182,11.5432601 L33.8185182,18.5095338 L0,18.5095338 L0,3.64936091 Z" id="Path-homepage-metrics-2-Copy" fill="url(#linearGradient-3)"></path>
                            </g>
                        </g>
                    </g>
                    <path d="M11.8860242,206.618528 C13.5943997,208.35854 18.5718889,217.585877 16.7686036,217.164056 C14.9653183,216.742235 8.60636501,208.126539 9.32346091,207.314533 C10.0405568,206.502527 10.1460121,204.878516 11.8860242,206.618528 Z" id="Path-homepage-metrics" fill="#3A3A3C"></path>
                    <path d="M51.3262986,92.9061009 C44.9462542,127.368886 13.9740387,203.465415 11.2005649,207.95781 C10.50456,209.065091 9.09145929,208.326904 9.40782513,206.481436 C13.2042152,188.701676 24.5617487,122.328124 27.5355876,90.7864497 C27.7781347,88.4980702 51.7375741,90.69154 51.3262986,92.9061009 Z" id="Path-homepage-metrics" fill="#48484A"></path>
                    <path d="M19.6369872,38.6388142 C24.1188366,52.6643664 27.2930405,86.6315117 27.0188567,92.9061009 C27.0188567,94.1188366 43.7229729,97.124312 50.8095677,93.4333772 C53.5303139,92.0413676 55.4917821,39.4508199 53.9732261,37.5420793 C52.45467,35.6333388 37.5222025,33.5769609 35.4763701,34.378421 C31.1632492,36.0867965 22.8533732,39.85155 19.6369872,38.6388142 Z" id="Path-homepage-metrics" fill="#3A3A3C"></path>
                    <path d="M37.0687448,23.8434386 C37.0687448,23.8434386 41.7931413,24.6659898 42.3415088,23.8434386 C44.1342485,21.1332379 40.9600446,2.49929011 35.4552791,1.69782999 C28.5795949,0.643277202 26.0486682,8.02514674 29.1279623,14.9008309 C32.5868955,22.6201574 35.1916409,29.9703903 30.720337,36.5718908 C32.1861654,37.0675306 41.0233178,37.0253485 41.8353234,34.9795161 C37.1952912,31.003852 37.0687448,23.8434386 37.0687448,23.8434386 Z" id="Path-homepage-metrics" fill="#FFAEA9" fill-rule="nonzero"></path>
                    <path d="M41.46623,9.60697592 C40.7385885,9.448793 32.9138068,12.4542685 32.9138068,12.4542685 C31.859254,14.6371927 31.2897955,7.1815045 31.2897955,7.1815045 L40.6542243,6.77022892 L43.1007868,8.43642232 C43.1007868,8.43642232 42.2044169,9.76515884 41.46623,9.60697592 Z" id="Path-homepage-metrics" fill="#050505"></path>
                    <path d="M22.8006456,3.23747707 C22.5159163,2.63638198 20.2380823,-0.495639812 19.6369872,0.0738186953 C19.0358921,0.643277202 17.2747889,3.77529899 18.0446125,4.82985178 C18.814436,5.88440457 22.2628236,5.35712818 22.2628236,5.35712818 C22.2628236,5.35712818 23.0959204,3.83857216 22.8006456,3.23747707 Z" id="Path-homepage-metrics" fill="#050505"></path>
                    <path d="M24.3613837,3.23747707 C23.4228317,2.86838359 21.9570033,2.54147223 21.7566383,3.76475346 C21.5869705,4.25865711 21.6702429,4.8043634 21.9795519,5.22516051 C22.2888378,5.64595763 22.7847985,5.88835502 23.3068309,5.87385904 C24.48793,5.88440457 25.3421178,3.60657054 24.3613837,3.23747707 Z" id="Path-homepage-metrics" fill="#222222" fill-rule="nonzero"></path>
                    <path d="M31.7748898,21.734333 C32.0596191,21.3968761 32.3021662,13.5510034 32.3021662,13.5510034 L32.8294426,12.4964506 C32.8294426,12.4964506 32.3443483,8.71060605 32.3021662,8.00405568 C34.0527238,8.00405568 39.3149423,4.18657458 38.629483,2.1934698 C37.7331131,-0.464003228 27.0294023,-1.30764546 24.3297471,3.77529899 C20.0482628,11.9480831 28.8854152,19.9310477 31.7748898,21.734333 Z" id="Path-homepage-metrics" fill="#050505"></path>
                    <path d="M32.9981711,13.5088212 C32.6290776,12.8022709 28.7799599,10.9568035 28.642868,12.0219018 C28.1894103,15.1855602 32.3443483,17.8008511 32.9981711,17.4739397 C33.6519938,17.1470284 33.3461735,14.2153716 32.9981711,13.5088212 Z" id="Path-homepage-metrics" fill="#FFAEA9" fill-rule="nonzero"></path>
                    <path d="M32.8294426,18.0328527 C33.3672645,25.9209076 42.8160575,26.9754604 43.9549746,25.9630897 C45.0938916,24.950719 43.5858811,16.7041162 42.9004218,16.4721146 C42.2149624,16.240113 39.6418536,17.6004861 39.1989415,18.0539438 C38.8663113,18.5152798 38.6823626,19.067126 38.6716651,19.635773 C38.6716651,19.635773 35.1705498,19.1295876 32.8399881,12.2539034 C32.7413327,12.0349032 32.513785,11.9034259 32.2747813,11.9273263 C32.0357776,11.9512267 31.8387709,12.1251594 31.7854353,12.3593587 C31.7327077,13.5826399 32.797806,17.3157568 32.8294426,18.0328527 Z" id="Path-homepage-metrics" fill="#050505"></path>
                    <path d="M33.1985361,7.38186953 C35.3076417,8.27823941 40.2007666,9.43824748 41.5505942,8.88988002 C42.9004218,8.34151257 45.7688054,6.78077444 44.1131575,4.93530706 C42.6473291,3.19529496 41.46623,4.82985178 40.4116772,5.03021681 C37.9651147,5.46258346 34.3374531,4.84039731 33.4410832,5.28330948 C32.5447134,5.72622165 31.9014362,6.81241103 33.1985361,7.38186953 Z" id="Path-homepage-metrics" fill="#FFAEA9" fill-rule="nonzero"></path>
                    <path d="M23.8551984,55.0160191 C-22.7033073,34.9795161 11.9176608,1.8138308 33.915632,5.34658265 C34.8963661,5.51531109 34.4850905,8.17278413 33.3883556,7.99351015 C21.1239066,5.88440457 -2.25552873,26.3743653 25.4370275,39.693367 C27.0926754,40.5053727 26.0697592,55.9862077 23.8551984,55.0160191 Z" id="Path-homepage-metrics" fill="#3A3A3C"></path>
                    <path d="M19.0042555,216.373142 C24.1504731,215.708773 29.3916005,213.94767 34.4112718,214.211308 C37.6364068,214.338258 40.8645996,214.054773 44.0182477,213.367666 C47.8040922,212.576752 53.5830415,212.313113 57.3056129,211.870201 C60.564181,211.44838 61.0703663,212.502933 63.6329296,213.030209 C60.7961826,213.388757 57.3056129,214.411673 54.6270488,214.474947 C50.556475,214.728039 46.5175378,214.200763 42.4153275,214.612038 C41.1331388,214.579159 39.8690654,214.919909 38.7771203,215.592773 C37.4900085,216.051506 36.1072749,216.1749 34.7592742,215.95132 C33.2829003,215.793138 31.8908906,216.362596 30.3828801,216.362596 C28.9041341,216.388758 27.4314112,216.55828 25.985395,216.868781 C22.2944602,217.522604 18.7827994,217.269511 15.1235013,217.448785" id="Path-homepage-metrics-2" fill="#000000" fill-rule="nonzero"></path>
                    <path d="M34.094906,7.57168904 C34.094906,7.57168904 10.0511023,5.69458507 12.2551177,25.0983564 C12.2551177,25.0983564 13.90022,9.91279623 31.0156118,7.84587276 C31.1421581,7.84587276 33.7258125,8.01460121 33.8523588,7.99351015 C33.9789052,7.9724191 34.094906,7.57168904 34.094906,7.57168904 Z" id="Path-homepage-metrics" fill="#2C2C2E"></path>
                    <path d="M1.8361361,24.3074418 C1.8361361,24.3074418 -0.146423151,40.2417345 25.9643039,50.0385299 C25.9643039,50.0385299 25.7639389,54.4887427 24.2770195,55.3112939 C24.2981105,55.2796573 -5.19773102,45.0926773 1.8361361,24.3074418 Z" id="Path-homepage-metrics" fill="#2C2C2E"></path>
                </g>
                <g id="Group-6-Copy-9" transform="translate(192.000000, 113.000000)">
                    <rect id="Rectangle-Copy" fill="#2C2C2E" x="0" y="0" width="99" height="31.5755968" rx="1.57877984"></rect>
                    <g id="coin_graph" transform="translate(59.000000, 6.000000)">
                        <path d="M0,1.86371354 C2.26071948,2.59036041 4.77010993,3.54136262 7.18132123,0.863589122 C9.59253252,-1.81418437 12.6606065,2.59036041 13.5664823,2.59036041 C14.4723581,2.59036041 18.6626927,5.36283512 20.0656899,5.01334421 C21.4686871,4.66385329 22.6352351,8.72167649 25.3985,9.19717759 C28.161765,9.67267869 30.018956,13.5027033 31.5816916,13.9102363 C32.6235154,14.181925 33.7629515,13.8368714 35,12.8750755" id="Path-homepage-metrics-2" stroke="#FF453A" stroke-width="0.5"></path>
                        <path d="M0,1.91961249 C3.18007329,3.07159071 5.57384703,2.72821689 7.18132123,0.889491024 C9.59253252,-1.86859778 12.6606065,2.66805391 13.5664823,2.66805391 C14.4723581,2.66805391 19.3844469,5.71126753 20.0656899,5.16371103 C20.7469329,4.61615452 23.0922455,9.19004867 25.8520989,9.47303145 C28.6119523,9.75601423 29.8354884,14.1998968 31.4211538,14.4633483 C32.478264,14.6389826 33.6712127,14.2382804 35,13.2612417 L35,19 L0,19 L0,1.91961249 Z" id="Path-homepage-metrics-2-Copy" fill="url(#linearGradient-4)"></path>
                    </g>
                    <path d="M25.2,21.4 L9.7,21.4 C8.8,21.4 8,20.7 8,19.7 C8,18.8 8.7,18 9.7,18 L25.2,18 C26.1,18 26.9,18.7 26.9,19.7 C26.9,20.6 26.2,21.4 25.2,21.4 Z" id="Path-homepage-metrics-Copy" fill="#48484A"></path>
                    <path d="M35.2,13.4 L9.7,13.4 C8.8,13.4 8,12.7 8,11.7 L8,11.7 C8,10.8 8.7,10 9.7,10 L35.2,10 C36.1,10 36.9,10.7 36.9,11.7 L36.9,11.7 C36.9,12.6 36.2,13.4 35.2,13.4 Z" id="Path-homepage-metrics" fill="#48484A"></path>
                </g>
                <g id="Group-6-Copy-10" transform="translate(347.000000, 139.000000)">
                    <rect id="Rectangle-Copy" fill="#2C2C2E" x="0" y="0" width="61.875" height="19.734748" rx="0.986737401"></rect>
                    <g id="coin_graph" transform="translate(36.875000, 3.750000)">
                        <path d="M0,1.16482096 C1.41294967,1.61897526 2.98131871,2.21335164 4.48832577,0.539743201 C5.99533282,-1.13386523 7.91287908,1.61897526 8.47905144,1.61897526 C9.0452238,1.61897526 11.6641829,3.35177195 12.5410562,3.13334013 C13.4179295,2.91490831 14.1470219,5.4510478 15.8740625,5.74823599 C17.6011031,6.04542418 18.7618475,8.43918957 19.7385573,8.6938977 C20.3896971,8.86370313 21.1018447,8.64804462 21.875,8.04692219" id="Path-homepage-metrics-2" stroke="#FF453A" stroke-width="0.5"></path>
                        <path d="M0,1.1997578 C1.98754581,1.9197442 3.48365439,1.70513556 4.48832577,0.55593189 C5.99533282,-1.16787361 7.91287908,1.66753369 8.47905144,1.66753369 C9.0452238,1.66753369 12.1152793,3.56954221 12.5410562,3.22731939 C12.9668331,2.88509658 14.4326534,5.74378042 16.1575618,5.92064466 C17.8824702,6.0975089 18.6471803,8.87493552 19.6382211,9.03959269 C20.298915,9.14936414 21.044508,8.89892527 21.875,8.28827607 L21.875,11.875 L0,11.875 L0,1.1997578 Z" id="Path-homepage-metrics-2-Copy" fill="url(#linearGradient-5)"></path>
                    </g>
                    <path d="M15.75,13.375 L6.0625,13.375 C5.5,13.375 5,12.9375 5,12.3125 C5,11.75 5.4375,11.25 6.0625,11.25 L15.75,11.25 C16.3125,11.25 16.8125,11.6875 16.8125,12.3125 C16.8125,12.875 16.375,13.375 15.75,13.375 Z" id="Path-homepage-metrics-Copy" fill="#48484A"></path>
                    <path d="M22,8.375 L6.0625,8.375 C5.5,8.375 5,7.9375 5,7.3125 L5,7.3125 C5,6.75 5.4375,6.25 6.0625,6.25 L22,6.25 C22.5625,6.25 23.0625,6.6875 23.0625,7.3125 L23.0625,7.3125 C23.0625,7.875 22.625,8.375 22,8.375 Z" id="Path-homepage-metrics" fill="#48484A"></path>
                </g>
                <g id="Group-6-Copy-9" transform="translate(229.000000, 153.000000)">
                    <rect id="Rectangle-Copy" fill="#2C2C2E" x="0" y="0" width="61.875" height="19.734748" rx="0.986737401"></rect>
                    <path d="M15.75,13.375 L6.0625,13.375 C5.5,13.375 5,12.9375 5,12.3125 C5,11.75 5.4375,11.25 6.0625,11.25 L15.75,11.25 C16.3125,11.25 16.8125,11.6875 16.8125,12.3125 C16.8125,12.875 16.375,13.375 15.75,13.375 Z" id="Path-homepage-metrics-Copy" fill="#48484A"></path>
                    <path d="M22,8.375 L6.0625,8.375 C5.5,8.375 5,7.9375 5,7.3125 L5,7.3125 C5,6.75 5.4375,6.25 6.0625,6.25 L22,6.25 C22.5625,6.25 23.0625,6.6875 23.0625,7.3125 L23.0625,7.3125 C23.0625,7.875 22.625,8.375 22,8.375 Z" id="Path-homepage-metrics" fill="#48484A"></path>
                    <g id="Group" transform="translate(35.878979, 4.193634)">
                        <g id="coin_graph" transform="translate(11.600796, 6.000000) scale(-1, 1) translate(-11.600796, -6.000000) translate(0.600796, 0.000000)">
                            <path d="M0,2.28085057 C1.36525326,2.68782205 2.88067946,3.22044772 4.33681504,1.72071313 C5.79295063,0.22097855 7.645767,0.22097855 8.1928273,0.22097855 C8.73988759,0.22097855 11.2704395,4.24059573 12.1177125,4.04485714 C12.9649855,3.84911855 13.6694662,6.12177447 15.3382078,6.3880873 C17.0069493,6.65440014 18.1285109,7.56605167 19.0722502,7.79429777 C19.7014098,7.94646184 20.3895177,7.75320844 21.1365739,7.21453757" id="Path-homepage-metrics-2" stroke="#30D158" stroke-width="0.5"></path>
                            <path d="M0,2.28085057 C1.92045297,2.90724867 3.36605799,2.72053619 4.33681504,1.72071313 C5.79295063,0.22097855 7.645767,0.22097855 8.1928273,0.22097855 C8.73988759,0.22097855 11.7063084,4.34259572 12.1177125,4.04485714 C12.5291166,3.74711857 13.9454558,6.23421297 15.6121371,6.3880873 C17.2788184,6.54196163 18.0177144,7.72493939 18.9753011,7.8681934 C19.6136922,7.96369608 20.3341164,7.7458108 21.1365739,7.21453757 L21.1365739,11.5684587 L0,11.5684587 L0,2.28085057 Z" id="Path-homepage-metrics-2-Copy" fill="url(#linearGradient-6)"></path>
                        </g>
                    </g>
                </g>
            </g>
        </g>
    </g>
</svg>