<?xml version="1.0" encoding="UTF-8"?>
<svg width="12px" height="12px" viewBox="0 0 12 12" version="1.1" xmlns="http://www.w3.org/2000/svg" xmlns:xlink="http://www.w3.org/1999/xlink">
    <!-- Generator: sketchtool 64 (101010) - https://sketch.com -->
    <title>821A85D0-35DF-4603-8E31-715FCB6712AF</title>
    <desc>Created with sketchtool.</desc>
    <defs>
        <filter x="-8.6%" y="-18.5%" width="117.1%" height="137.1%" filterUnits="objectBoundingBox" id="filter-1">
            <feOffset dx="0" dy="2" in="SourceAlpha" result="shadowOffsetOuter1"></feOffset>
            <feGaussianBlur stdDeviation="5" in="shadowOffsetOuter1" result="shadowBlurOuter1"></feGaussianBlur>
            <feColorMatrix values="0 0 0 0 0   0 0 0 0 0   0 0 0 0 0  0 0 0 0.320886145 0" type="matrix" in="shadowBlurOuter1" result="shadowMatrixOuter1"></feColorMatrix>
            <feMerge>
                <feMergeNode in="shadowMatrixOuter1"></feMergeNode>
                <feMergeNode in="SourceGraphic"></feMergeNode>
            </feMerge>
        </filter>
        <path d="M6,0.5 C9.03250089,0.5 11.5,2.96803613 11.5,6 C11.5,9.03293784 9.03250089,11.5 6,11.5 C2.96749911,11.5 0.5,9.03293784 0.5,6 C0.5,2.96803613 2.96749911,0.5 6,0.5 Z M6,1.50026563 C3.51886291,1.50026563 1.49946865,3.51930228 1.49946865,6 C1.49946865,8.48167168 3.51886291,10.4997344 6,10.4997344 C8.48211123,10.4997344 10.5005313,8.48167168 10.5005313,6 C10.5005313,3.51930228 8.48211123,1.50026563 6,1.50026563 Z M6.91803046,8.3358686 C6.96381509,8.3358686 6.96478923,8.33781654 6.95991853,8.38261909 C6.9306943,8.67967948 6.75924548,8.88226492 6.49914984,9.02251638 C6.28678711,9.13744466 6.05396741,9.17542943 5.81043216,9.15400213 C5.58832802,9.13257482 5.3857067,9.06147512 5.21036132,8.92511953 C5.05352462,8.8023995 4.94734325,8.64851248 4.91032589,8.45469276 C4.90545519,8.42352577 4.90545519,8.39235877 4.90155863,8.36021781 C4.8986362,8.34073845 4.90837761,8.3358686 4.92786043,8.3358686 L4.92786043,8.3358686 Z M7.61288523,7.37426952 C7.64210946,7.37426952 7.64892844,7.38595715 7.64892844,7.41615017 C7.6479543,7.61581371 7.6479543,7.81547724 7.6479543,8.01416681 C7.6479543,8.0609173 7.6479543,8.0609173 7.60801452,8.0609173 L4.37118757,8.0600803 C4.35146121,8.05756928 4.35146121,8.04752523 4.35146121,8.00734903 L4.35146121,8.00734903 L4.35146121,7.41615017 C4.35146121,7.38400921 4.35925434,7.37426952 4.38750443,7.37426952 C5.46295608,7.37524349 6.53743358,7.37524349 7.61288523,7.37426952 Z M6.02805526,2.84054365 C6.01052072,2.88729414 5.98908962,2.92917478 5.97837407,2.97300336 C5.95012398,3.07429609 5.95986539,3.17656278 5.99298618,3.27395962 C6.04948636,3.43563839 6.11280553,3.59439525 6.17027984,3.75607402 C6.2238576,3.9050912 6.27840949,4.05313441 6.31834927,4.20604746 C6.3475735,4.3161059 6.35244421,4.43200815 6.36608218,4.54693643 C6.38459086,4.69790154 6.39920298,4.84886665 6.41576337,5.00080574 C6.41771165,5.00957145 6.42063408,5.01833717 6.42550478,5.02612892 L6.42550478,5.02612892 L6.43524619,4.85276253 C6.46057386,4.51576944 6.50148778,4.18267222 6.61059157,3.86126262 C6.66027276,3.71614131 6.72261778,3.57783779 6.82587673,3.46290951 C6.84633369,3.43953427 6.86971307,3.41908093 6.8940666,3.39473172 C6.89601488,3.40252346 6.89796316,3.40641934 6.89698902,3.40836727 C6.82003188,3.60510891 6.83172157,3.80477245 6.8823769,4.00540995 C6.92231668,4.16416681 6.98855827,4.31123605 7.06941197,4.45246148 C7.16390365,4.61901009 7.24962806,4.79042855 7.30028339,4.97645653 C7.34119731,5.12449973 7.36068013,5.27643882 7.36652497,5.43032584 C7.37236982,5.59882238 7.35873185,5.76439702 7.3100248,5.92704976 C7.25742118,6.09749424 7.17364506,6.25722508 7.06259299,6.39747654 C7.05772228,6.40234638 7.05382572,6.40819019 7.04700673,6.41792987 L7.04700673,6.41792987 L8.19844137,6.18515141 C8.19357067,6.20463078 8.19162239,6.21729237 8.18675168,6.23092793 C8.09713071,6.50850894 7.95198371,6.75589694 7.76592278,6.97893572 C7.73182784,7.01789446 7.70260361,7.06756685 7.65974141,7.08802019 C7.61882749,7.10749956 7.56232731,7.09581194 7.51264612,7.09581194 L7.51264612,7.09581194 L4.37591215,7.09581194 C4.3486362,7.09581194 4.33012752,7.08802019 4.31259299,7.06659288 C4.10217853,6.81141314 3.91611761,6.54162387 3.81188452,6.22118824 C3.8089621,6.21242253 3.80701382,6.20365681 3.80116897,6.18612538 L3.80116897,6.18612538 L4.8785689,6.41987781 C4.83473255,6.35656986 4.79381863,6.30202763 4.75777542,6.24456349 C4.64769748,6.07217106 4.57853348,5.8764034 4.55515409,5.67381796 C4.53177471,5.47805029 4.54930925,5.27838675 4.60678356,5.08943687 C4.6671803,4.88198158 4.74024088,4.6774482 4.80940489,4.47291482 C4.85324123,4.34435098 4.89707758,4.21578714 4.9214311,4.08137949 C4.94578463,3.94502391 4.94675877,3.81061626 4.9,3.67815654 C4.89902586,3.67426067 4.89805172,3.66939083 4.89805172,3.66354702 C4.91558626,3.66744289 4.93117251,3.67133876 4.94773291,3.67718257 C5.00520723,3.69958385 5.04612115,3.74243846 5.08216436,3.79113689 C5.16788877,3.90703914 5.21464754,4.04144679 5.24874247,4.17975031 C5.28478569,4.32584558 5.30426851,4.47486276 5.30913921,4.62582787 C5.30913921,4.63556756 5.31011335,4.64530724 5.3110875,4.65504693 C5.31206164,4.65991677 5.31303578,4.66381264 5.3159582,4.6745263 C5.32667375,4.6589428 5.33446688,4.64822915 5.34031173,4.63654153 C5.42408785,4.498238 5.47669146,4.34727289 5.5156571,4.19143793 C5.56728657,3.98398265 5.5916401,3.77360545 5.5965108,3.55933239 C5.60138151,3.33921551 5.67151966,3.14052594 5.8127701,2.96910749 C5.86050301,2.91261732 5.91602905,2.86586683 5.99006376,2.84638746 C6.00272759,2.84346556 6.01539143,2.84151762 6.02805526,2.84054365 Z" id="path-prometheus"></path>
    </defs>
    <g id="Workspaces" stroke="none" stroke-width="1" fill="currentColor" fill-rule="evenodd">
        <g id="Settings---Workspace---12.0---Add-metrics-provider" transform="translate(-524.000000, -249.000000)">
            <g id="Group-10" transform="translate(514.000000, 239.000000)">
                <g id="Icon/logos/Prometheus" transform="translate(10.000000, 10.000000)">
                    <mask id="mask-prometheus" fill="currentColor">
                        <use xlink:href="#path-prometheus"></use>
                    </mask>
                    <use id="Mask" fill="currentColor" fill-rule="evenodd" xlink:href="#path-prometheus"></use>
                </g>
            </g>
        </g>
    </g>
</svg>