<?xml version="1.0" encoding="UTF-8"?>
<svg width="16px" height="14px" viewBox="0 0 16 14" version="1.1" xmlns="http://www.w3.org/2000/svg" xmlns:xlink="http://www.w3.org/1999/xlink">
    <defs>
        <path d="M14.9538,5.785 C13.7324667,2.31766667 9.9178,0.492333333 6.45046667,1.71233333 C5.5178,2.041 4.65513333,2.58366667 3.97046667,3.26833333 L1.9998,5.119 L1.9998,2.66033333 C1.9998,2.29233333 1.7018,1.99366667 1.33313333,1.99366667 C0.965133333,1.99366667 0.666466667,2.29233333 0.666466667,2.66033333 L0.666466667,6.66033333 C0.666466667,6.693 0.680466667,6.72166667 0.685133333,6.753 C0.692466667,6.80433333 0.696466667,6.85566667 0.716466667,6.90566667 C0.735133333,6.953 0.767133333,6.99233333 0.796466667,7.03433333 C0.815133333,7.06166667 0.824466667,7.09233333 0.847133333,7.117 C0.8498,7.11966667 0.8538,7.12033333 0.8558,7.123 C0.895133333,7.16366667 0.944466667,7.191 0.993133333,7.22033333 C1.01913333,7.23633333 1.04113333,7.25966667 1.06913333,7.27166667 C1.09646667,7.28366667 1.12846667,7.28366667 1.1578,7.29166667 C1.21313333,7.307 1.26713333,7.32433333 1.32313333,7.32566667 C1.32713333,7.32566667 1.3298,7.327 1.33313333,7.327 L5.33313333,7.327 C5.7018,7.327 5.9998,7.029 5.9998,6.66033333 C5.9998,6.29233333 5.7018,5.99366667 5.33313333,5.99366667 L3.01646667,5.99366667 L4.8978,4.22566667 C5.45713333,3.667 6.14713333,3.23233333 6.89313333,2.96966667 C9.66713333,1.99233333 12.7191333,3.45433333 13.6958,6.22766667 C14.1691333,7.57166667 14.0911333,9.01966667 13.4758,10.3036667 C12.8604667,11.589 11.7818,12.557 10.4384667,13.0303333 C7.66246667,14.0076667 4.61246667,12.5463333 3.63513333,9.77233333 C3.51246667,9.425 3.1318,9.24433333 2.78513333,9.365 C2.4378,9.48766667 2.2558,9.86833333 2.3778,10.2156667 C3.34246667,12.9523333 5.92246667,14.667 8.6718,14.667 C9.4058,14.667 10.1511333,14.5456667 10.8811333,14.2883333 C14.3484667,13.067 16.1751333,9.25233333 14.9538,5.785" id="path-regenerate"></path>
    </defs>
    <g id="Page-1" stroke="none" stroke-width="1" fill="none" fill-rule="evenodd">
        <g id="Settings---Access-tokens---5.0" transform="translate(-1001.000000, -14.000000)">
            <g id="Icon/Miscellaneous/Rocket" transform="translate(1001.000000, 13.000000)">
                <mask id="mask-2" fill="white">
                    <use xlink:href="#path-regenerate"></use>
                </mask>
                <use id="Icon-Rotate-Left" fill="currentColor" xlink:href="#path-regenerate"></use>
            </g>
        </g>
    </g>
</svg>