<?xml version="1.0" encoding="UTF-8"?>
<svg width="22px" height="22px" viewBox="0 0 22 22" version="1.1" xmlns="http://www.w3.org/2000/svg" xmlns:xlink="http://www.w3.org/1999/xlink">
    <title>EF565CD3-16D9-4B00-ACEA-A6D82070FBB8</title>
    <defs>
        <path d="M11,0 C17.065,0 22,4.935 22,11 C22,17.065 17.065,22 11,22 C4.935,22 0,17.065 0,11 C0,4.935 4.935,0 11,0 Z M11,2 C6.038,2 2,6.038 2,11 C2,15.963 6.038,20 11,20 C15.963,20 20,15.963 20,11 C20,6.038 15.963,2 11,2 Z M11,7 C13.206,7 15,8.794 15,11 C15,13.206 13.206,15 11,15 C8.794,15 7,13.206 7,11 C7,8.794 8.794,7 11,7 Z M11,9 C9.897,9 9,9.897 9,11 C9,12.103 9.897,13 11,13 C12.103,13 13,12.103 13,11 C13,9.897 12.103,9 11,9 Z" id="path-1-scopes"></path>
    </defs>
    <g id="Page-1-scopes" stroke="none" stroke-width="1" fill="none" fill-rule="evenodd">
        <g id="Settings---Access-tokens---2.0-scopes" transform="translate(-470.000000, -482.000000)">
            <g id="Icons/Computer/Disc-scopes" transform="translate(470.000000, 482.000000)">
                <mask id="mask-2-scopes" fill="white">
                    <use xlink:href="#path-1-scopes"></use>
                </mask>
                <use id="Icon-Disc" fill="currentColor" xlink:href="#path-1-scopes"></use>
            </g>
        </g>
    </g>
</svg>