<?xml version="1.0" encoding="UTF-8"?>
<svg width="24px" height="25px" viewBox="0 0 24 25" version="1.1" xmlns="http://www.w3.org/2000/svg" xmlns:xlink="http://www.w3.org/1999/xlink">
    <defs>
        <path d="M19,12 C20.654,12 22,13.346 22,15 L22,15 L22,19 C22,20.654 20.654,22 19,22 L19,22 L3,22 C1.346,22 0,20.654 0,19 L0,19 L0,15 C0,13.346 1.346,12 3,12 L3,12 Z M19,14 L3,14 C2.449,14 2,14.448 2,15 L2,15 L2,19 C2,19.552 2.449,20 3,20 L3,20 L19,20 C19.552,20 20,19.552 20,19 L20,19 L20,15 C20,14.448 19.552,14 19,14 L19,14 Z M4.29,16.292 C4.67,15.922 5.34,15.922 5.71,16.292 C5.89,16.481 6,16.731 6,17.002 C6,17.271 5.9,17.521 5.71,17.702 C5.52,17.892 5.27,18.002 5,18.002 C4.73,18.002 4.48,17.892 4.29,17.702 C4.1,17.521 4,17.262 4,17.002 C4,16.742 4.11,16.481 4.29,16.292 Z M19,0 C20.654,0 22,1.346 22,3 L22,3 L22,7 C22,8.654 20.654,10 19,10 L19,10 L3,10 C1.346,10 0,8.654 0,7 L0,7 L0,3 C0,1.346 1.346,0 3,0 L3,0 Z M19,2 L3,2 C2.449,2 2,2.449 2,3 L2,3 L2,7 C2,7.551 2.449,8 3,8 L3,8 L19,8 C19.552,8 20,7.551 20,7 L20,7 L20,3 C20,2.449 19.552,2 19,2 L19,2 Z M4.29,4.292 C4.53,4.062 4.87,3.952 5.2,4.022 C5.26,4.032 5.32,4.052 5.38,4.072 C5.44,4.102 5.5,4.132 5.56,4.172 C5.61,4.202 5.66,4.242 5.71,4.292 C5.8,4.382 5.87,4.492 5.92,4.622 C5.98,4.742 6,4.872 6,5.002 C6,5.262 5.89,5.522 5.71,5.702 C5.66,5.752 5.61,5.792 5.56,5.832 C5.5,5.862 5.44,5.902 5.38,5.922 C5.32,5.952 5.26,5.972 5.2,5.982 C5.13,5.992 5.06,6.002 5,6.002 C4.87,6.002 4.74,5.972 4.62,5.922 C4.5,5.872 4.39,5.802 4.29,5.702 C4.11,5.522 4,5.262 4,5.002 C4,4.872 4.03,4.742 4.08,4.622 C4.13,4.492 4.2,4.382 4.29,4.292 Z" id="path-server"></path>
    </defs>
    <g id="Workspaces-server" stroke="none" stroke-width="1" fill="none" fill-rule="evenodd">
        <g id="Settings---Workspace---1.0-server" transform="translate(-469.000000, -283.000000)">
            <rect fill="transparent" x="0" y="0" width="1920" height="1241"></rect>
            <g id="Group-server-4" transform="translate(465.000000, 89.000000)">
                <g id="Group-server" transform="translate(4.000000, 194.000000)">
                    <g id="Group-server-11-server">
                        <g id="Icon/User/Release" transform="translate(1.000000, 1.000000)">
                            <mask id="mask-server" fill="white">
                                <use xlink:href="#path-server"></use>
                            </mask>
                            <use id="Icon-Server" fill="currentColor" xlink:href="#path-server"></use>
                        </g>
                    </g>
                </g>
            </g>
        </g>
    </g>
</svg>