<?xml version="1.0" encoding="UTF-8"?>
<svg width="15px" height="13px" viewBox="0 0 15 13" version="1.1" xmlns="http://www.w3.org/2000/svg" xmlns:xlink="http://www.w3.org/1999/xlink">
    <defs>
        <path d="M7.5,7.75 C9.223125,7.75 10.625,9.151875 10.625,10.875 L10.625,10.875 L10.625,12.125 C10.625,12.470625 10.345625,12.75 10,12.75 C9.654375,12.75 9.375,12.470625 9.375,12.125 L9.375,12.125 L9.375,10.875 C9.375,9.84125 8.53375,9 7.5,9 L7.5,9 L3.125,9 C2.09125,9 1.25,9.84125 1.25,10.875 L1.25,10.875 L1.25,12.125 C1.25,12.470625 0.97,12.75 0.625,12.75 C0.28,12.75 0,12.470625 0,12.125 L0,12.125 L0,10.875 C0,9.151875 1.401875,7.75 3.125,7.75 L3.125,7.75 Z M12.5,3.375 C12.845625,3.375 13.125,3.655 13.125,4 L13.125,4 L13.125,5.25 L14.375,5.25 C14.720625,5.25 15,5.53 15,5.875 C15,6.22 14.720625,6.5 14.375,6.5 L14.375,6.5 L13.125,6.5 L13.125,7.75 C13.125,8.095625 12.845625,8.375 12.5,8.375 C12.154375,8.375 11.875,8.095625 11.875,7.75 L11.875,7.75 L11.875,6.5 L10.625,6.5 C10.279375,6.5 10,6.22 10,5.875 C10,5.53 10.279375,5.25 10.625,5.25 L10.625,5.25 L11.875,5.25 L11.875,4 C11.875,3.655 12.154375,3.375 12.5,3.375 Z M5.3125,0.25 C7.035625,0.25 8.4375,1.651875 8.4375,3.375 C8.4375,5.098125 7.035625,6.5 5.3125,6.5 C3.589375,6.5 2.1875,5.098125 2.1875,3.375 C2.1875,1.651875 3.589375,0.25 5.3125,0.25 Z M5.3125,1.5 C4.27875,1.5 3.4375,2.34125 3.4375,3.375 C3.4375,4.40875 4.27875,5.25 5.3125,5.25 C6.34625,5.25 7.1875,4.40875 7.1875,3.375 C7.1875,2.34125 6.34625,1.5 5.3125,1.5 Z" id="path-user-add"></path>
    </defs>
    <g id="Group-user-add" stroke="none" stroke-width="1" fill="none" fill-rule="evenodd">
        <g id="Settings---Group-user-add---1.2-user-add" transform="translate(-522.000000, -144.000000)">
            <g id="Group-user-add" transform="translate(461.000000, 89.000000)">
                <g id="card/workspace-user-add" transform="translate(44.000000, 44.000000)">
                    <g id="Icon/Card/Info-user-add">
                        <g transform="translate(17.000000, 11.000000)">
                            <mask id="mask-user-add" fill="white">
                                <use xlink:href="#path-user-add"></use>
                            </mask>
                            <use id="Icon-Group-user-add-Plus" fill="currentColor" xlink:href="#path-user-add"></use>
                        </g>
                    </g>
                </g>
            </g>
        </g>
    </g>
</svg>