<?xml version="1.0" encoding="UTF-8"?>
<svg width="15px" height="13px" viewBox="0 0 15 13" version="1.1" xmlns="http://www.w3.org/2000/svg" xmlns:xlink="http://www.w3.org/1999/xlink">
    <desc>Warning</desc>
    <defs>
        <path d="M9.3825625,2.15125 L14.6781875,10.9925 C14.8438125,11.28 14.9313125,11.596875 14.9351835,11.9175 C14.9406875,12.419375 14.7500625,12.891875 14.3994375,13.25 C14.0494375,13.6075 13.5806875,13.808125 13.0800625,13.81375 L2.4856875,13.81375 C2.1569375,13.81 1.8406875,13.723125 1.5619375,13.5625 C0.6669375,13.045 0.3588125,11.895625 0.8763125,11.00125 L6.1750625,2.155 C6.1756875,2.15375 6.1763125,2.1525 6.1769375,2.15125 C6.3331875,1.894375 6.5513125,1.67625 6.8075625,1.52125 C7.6906875,0.985625 8.8469375,1.268125 9.3825625,2.15125 Z M7.4556875,2.59 C7.3706875,2.64125 7.2975625,2.71375 7.2456875,2.799375 L1.9531875,11.634375 C1.7863125,11.924375 1.8888125,12.3075 2.1875625,12.48 C2.2794375,12.53375 2.3856875,12.5625 2.4931875,12.56375 L13.0731875,12.56375 C13.2338125,12.561875 13.3894375,12.495 13.5069375,12.375625 C13.6231875,12.25625 13.6869375,12.098125 13.6851027,11.931875 C13.6838125,11.825 13.6544375,11.719375 13.6006875,11.62625 L8.3125625,2.796875 C8.1350625,2.505625 7.7506875,2.41125 7.4556875,2.59 Z M8.2235,10.246 C8.27975,10.30225 8.3235,10.371 8.35475,10.45225 C8.386,10.52725 8.40475,10.6085 8.40475,10.68975 C8.40475,10.8585 8.34225,11.01475 8.2235,11.12725 C8.10475,11.246 7.9485,11.31475 7.77975,11.31475 C7.611,11.31475 7.45475,11.246 7.336,11.12725 C7.27975,11.070375 7.236,11.00225 7.20475,10.92725 C7.1735,10.85225 7.15475,10.771 7.15475,10.68975 C7.15475,10.6085 7.1735,10.52725 7.20475,10.45225 C7.236,10.371 7.27975,10.30225 7.336,10.246 C7.5735,10.01475 7.99225,10.01475 8.2235,10.246 Z M7.77975,5.0635 C8.12475,5.0635 8.40475,5.3435 8.40475,5.6885 L8.40475,8.1885 C8.40475,8.534125 8.12475,8.8135 7.77975,8.8135 C7.43475,8.8135 7.15475,8.534125 7.15475,8.1885 L7.15475,5.6885 C7.15475,5.3435 7.43475,5.0635 7.77975,5.0635 Z" id="path-warning"></path>
    </defs>
    <g id="Circles---Health" stroke="none" stroke-width="1" fill="none" fill-rule="evenodd">
        <g id="Icon/Alert/Alert-Triangle" transform="translate(0.000000, -1.000000)">
            <mask id="mask-warning" fill="CurrentColor">
                <use xlink:href="#path-warning"></use>
            </mask>
            <use id="Icon-Alert-Triangle" fill="CurrentColor" fill-rule="evenodd" xlink:href="#path-warning"></use>
        </g>
    </g>
</svg>