<?xml version="1.0" encoding="UTF-8"?>
<svg width="15px" height="15px" viewBox="0 0 15 15" version="1.1" xmlns="http://www.w3.org/2000/svg" xmlns:xlink="http://www.w3.org/1999/xlink">
    <defs>
        <path d="M7.500125,6.8744375 L1.35075,6.8744375 C1.90575,4.2106875 4.143875,2.1663125 6.90325,1.9025625 C10.111375,1.5950625 13.00825,3.7819375 13.6495,6.8744375 L7.500125,6.8744375 Z M6.7845,0.6581875 C3.197625,1.0006875 0.345125,3.8531875 0.002625,7.4400625 C-0.013625,7.6156875 0.043875,7.7894375 0.162625,7.9200625 C0.281375,8.0500625 0.448875,8.1244375 0.625125,8.1244375 L6.875125,8.1244375 L6.875125,11.8744375 C6.875125,13.2531875 7.996375,14.3744375 9.375125,14.3744375 C10.753875,14.3744375 11.875125,13.2531875 11.875125,11.8744375 C11.875125,11.5288125 11.59575,11.2494375 11.250125,11.2494375 C10.9045,11.2494375 10.625125,11.5288125 10.625125,11.8744375 C10.625125,12.5638125 10.0645,13.1244375 9.375125,13.1244375 C8.68575,13.1244375 8.125125,12.5638125 8.125125,11.8744375 L8.125125,8.1244375 L14.375125,8.1244375 C14.551375,8.1244375 14.7195,8.0500625 14.837625,7.9200625 C14.956375,7.7894375 15.013875,7.6156875 14.997,7.4400625 C14.602625,3.3069375 10.921375,0.2713125 6.7845,0.6581875 L6.7845,0.6581875 Z" id="path-workspaces-1"></path>
    </defs>
    <g id="mask-workspaces" stroke="none" stroke-width="1" fill="none" fill-rule="evenodd">
        <g id="Root---mask-workspaces---0.0" transform="translate(-23.000000, -109.000000)">
            <g id="Group-workspaces12">
                <g id="sidebar/expand/settings-copy-2">
                    <g id="Icon/Miscellaneous/Placeholder" transform="translate(23.000000, 109.000000)">
                        <mask id="mask-workspaces-2" fill="white">
                            <use xlink:href="#path-workspaces-1"></use>
                        </mask>
                        <use id="Icon-Umbrella" fill="currentColor" xlink:href="#path-workspaces-1"></use>
                    </g>
                </g>
            </g>
        </g>
    </g>
</svg>