<?xml version="1.0" encoding="UTF-8"?>
<svg width="368px" height="469px" viewBox="0 0 368 469" version="1.1" xmlns="http://www.w3.org/2000/svg" xmlns:xlink="http://www.w3.org/1999/xlink">
    <!-- Generator: Sketch 63.1 (92452) - https://sketch.com -->
    <title>Group 2</title>
    <desc>Created with Sketch.</desc>
    <defs>
        <rect id="path-1" x="0" y="0" width="368" height="468.775385" rx="4.52923077"></rect>
        <rect id="path-3" x="0" y="0" width="368" height="468.775385" rx="4.52923077"></rect>
        <polygon id="path-5" points="-0.00491916816 0.109929958 69.2588997 0.109929958 69.2588997 180.169231 -0.00491916816 180.169231"></polygon>
        <polygon id="path-7" points="0.581159047 0.500378632 29.5289994 0.500378632 29.5289994 168.713846 0.581159047 168.713846"></polygon>
        <polygon id="path-9" points="0.347958154 0.67342016 89.7573853 0.67342016 89.7573853 186.830769 0.347958154 186.830769"></polygon>
        <polygon id="path-11" points="0.915357538 0.654763454 34.7419175 0.654763454 34.7419175 183.433846 0.915357538 183.433846"></polygon>
        <polygon id="path-13" points="0 0.979152521 89.979847 0.979152521 89.979847 134.379151 0 134.379151"></polygon>
    </defs>
    <g id="Symbols" stroke="none" stroke-width="1" fill="none" fill-rule="evenodd">
        <g id="illustration/modal/add-user-copy">
            <g id="Group-2">
                <rect id="Rectangle" fill="#3945D8" x="0" y="0" width="368" height="468.775385" rx="4.52923077"></rect>
                <mask id="mask-2" fill="white">
                    <use xlink:href="#path-1"></use>
                </mask>
                <g id="Mask"></g>
                <rect id="Rectangle" fill="#3945D8" fill-rule="nonzero" mask="url(#mask-2)" x="0" y="0" width="368" height="468.775385" rx="4.52923077"></rect>
                <mask id="mask-4" fill="white">
                    <use xlink:href="#path-3"></use>
                </mask>
                <use id="path-1" fill="#10AA80" xlink:href="#path-3"></use>
                <g id="illustration/htpothesis" mask="url(#mask-4)">
                    <g transform="translate(-101.907692, -52.086154)">
                        <path d="M391.762722,350.73027 C391.762722,362.647808 382.101873,372.308657 370.183202,372.308657 C358.266796,372.308657 348.605947,362.647808 348.605947,350.73027 C348.605947,338.812731 358.266796,329.151882 370.183202,329.151882 C382.101873,329.151882 391.762722,338.812731 391.762722,350.73027 Z" id="Stroke-1" stroke="#FFFFFF" stroke-width="3.39692308" fill="none" opacity="0.160039993" stroke-linecap="round" stroke-linejoin="round"></path>
                        <polygon id="Fill-3" stroke="none" fill="#FFFFFF" fill-rule="evenodd" opacity="0.160039993" points="377.691874 352.311537 371.643087 352.311537 371.643087 358.290122 368.690028 358.290122 368.690028 352.311537 362.67521 352.311537 362.67521 349.182971 368.690028 349.182971 368.690028 343.170417 371.643087 343.170417 371.643087 349.182971 377.691874 349.182971"></polygon>
                        <path d="M532.877701,227.320281 C532.877701,251.938914 512.919646,271.89697 488.301012,271.89697 C463.682378,271.89697 443.724322,251.938914 443.724322,227.320281 C443.724322,202.701647 463.682378,182.743591 488.301012,182.743591 C512.919646,182.743591 532.877701,202.701647 532.877701,227.320281 Z" id="Stroke-6" stroke="#FFFFFF" stroke-width="3.39692308" fill="none" opacity="0.160039993" stroke-linecap="round" stroke-linejoin="round"></path>
                        <path d="M372.188746,163.128172 C372.188746,253.178042 299.186308,326.18048 209.136438,326.18048 C119.086568,326.18048 46.0841305,253.178042 46.0841305,163.128172 C46.0841305,73.0741608 119.086568,0.0758646154 209.136438,0.0758646154 C299.186308,0.0758646154 372.188746,73.0741608 372.188746,163.128172 Z" id="Stroke-11" stroke="#FFFFFF" stroke-width="10.6414277" fill="none" opacity="0.160039993" stroke-linecap="round" stroke-linejoin="round"></path>
                        <polygon id="Fill-13" stroke="none" fill="#FFFFFF" fill-rule="evenodd" opacity="0.160039993" points="106.170151 166.39522 93.6762683 166.39522 93.6762683 178.7453 87.5731298 178.7453 87.5731298 166.39522 75.1505822 166.39522 75.1505822 159.932007 87.5731298 159.932007 87.5731298 147.510592 93.6762683 147.510592 93.6762683 159.932007 106.170151 159.932007"></polygon>
                        <path d="M488.300785,327.731968 C488.300785,349.172214 470.919862,366.552005 449.480748,366.552005 C428.040502,366.552005 410.660711,349.172214 410.660711,327.731968 C410.660711,306.291722 428.040502,288.911931 449.480748,288.911931 C470.919862,288.911931 488.300785,306.291722 488.300785,327.731968 Z" id="Stroke-16" stroke="#FFFFFF" stroke-width="3.39692308" fill="none" opacity="0.160039993" stroke-linecap="round" stroke-linejoin="round"></path>
                        <polygon id="Fill-18" stroke="none" fill="#FFFFFF" fill-rule="evenodd" opacity="0.160039993" points="462.987594 330.577004 452.107249 330.577004 452.107249 341.332795 446.791065 341.332795 446.791065 330.577004 435.974129 330.577004 435.974129 324.949435 446.791065 324.949435 446.791065 314.131367 452.107249 314.131367 452.107249 324.949435 462.987594 324.949435"></polygon>
                        <path d="M377.209738,454.615084 C377.209738,456.53661 375.65055,458.094666 373.729024,458.094666 C371.806366,458.094666 370.24831,456.53661 370.24831,454.615084 C370.24831,452.692426 371.806366,451.13437 373.729024,451.13437 C375.65055,451.13437 377.209738,452.692426 377.209738,454.615084 Z" id="Stroke-21" stroke="#FFFFFF" stroke-width="1.13230769" fill="none" opacity="0.160039993" stroke-linecap="round" stroke-linejoin="round"></path>
                        <polygon id="Fill-23" stroke="none" fill="#FFFFFF" fill-rule="evenodd" opacity="0.160039993" points="374.939574 454.869401 373.964657 454.869401 373.964657 455.834127 373.487956 455.834127 373.487956 454.869401 372.517568 454.869401 372.517568 454.365524 373.487956 454.365524 373.487956 453.395136 373.964657 453.395136 373.964657 454.365524 374.939574 454.365524"></polygon>
                        <path d="M321.557494,298.353226 C321.557494,302.65373 318.071119,306.141238 313.769482,306.141238 C309.468977,306.141238 305.982602,302.65373 305.982602,298.353226 C305.982602,294.052721 309.468977,290.566346 313.769482,290.566346 C318.071119,290.566346 321.557494,294.052721 321.557494,298.353226 Z" id="Stroke-25" stroke="#FFFFFF" stroke-width="10.6414277" fill="none" opacity="0.160039993" stroke-linecap="round" stroke-linejoin="round"></path>
                        <polygon id="Fill-27" stroke="none" fill="#FFFFFF" fill-rule="evenodd" opacity="0.160039993" points="316.479774 298.924362 314.296684 298.924362 314.296684 301.081408 313.23005 301.081408 313.23005 298.924362 311.060549 298.924362 311.060549 297.795451 313.23005 297.795451 313.23005 295.624817 314.296684 295.624817 314.296684 297.795451 316.479774 297.795451"></polygon>
                        <path d="M127.180913,295.272556 C127.180913,301.050722 122.496556,305.733947 116.719522,305.733947 C110.940224,305.733947 106.256999,301.050722 106.256999,295.272556 C106.256999,289.49439 110.940224,284.811166 116.719522,284.811166 C122.496556,284.811166 127.180913,289.49439 127.180913,295.272556 Z" id="Stroke-30" stroke="#FFFFFF" stroke-width="0.5" fill="none" opacity="0.160039993" stroke-linecap="round" stroke-linejoin="round"></path>
                        <polygon id="Fill-32" stroke="none" fill="#FFFFFF" fill-rule="evenodd" opacity="0.160039993" points="120.358306 296.039468 117.426762 296.039468 117.426762 298.938176 115.994393 298.938176 115.994393 296.039468 113.0787 296.039468 113.0787 294.523308 115.994393 294.523308 115.994393 291.607616 117.426762 291.607616 117.426762 294.523308 120.358306 294.523308"></polygon>
                        <g id="Group-4" stroke="none" stroke-width="1" fill="none" fill-rule="evenodd" transform="translate(0.259525, 367.309745)" opacity="0.160039993">
                            <path d="M424.615385,125.686154 C424.615385,133.19031 418.531848,139.273846 411.027692,139.273846 C403.523536,139.273846 397.44,133.19031 397.44,125.686154 C397.44,118.181998 403.523536,112.098462 411.027692,112.098462 C418.531848,112.098462 424.615385,118.181998 424.615385,125.686154 Z" id="Stroke-6-Copy" stroke="#FFFFFF" stroke-width="1.01907692" stroke-linecap="round" stroke-linejoin="round"></path>
                            <polygon id="Fill-8-Copy" fill="#FFFFFF" points="414.424615 126.633705 410.776101 126.633705 410.776101 130.215385 408.993837 130.215385 408.993837 126.633705 405.366154 126.633705 405.366154 124.75962 408.993837 124.75962 408.993837 121.156923 410.776101 121.156923 410.776101 124.75962 414.424615 124.75962"></polygon>
                            <path d="M182.318183,39.6837612 C182.318183,61.1240074 164.93726,78.5037982 143.498146,78.5037982 C122.0579,78.5037982 104.67811,61.1240074 104.67811,39.6837612 C104.67811,18.2435151 122.0579,0.863724308 143.498146,0.863724308 C164.93726,0.863724308 182.318183,18.2435151 182.318183,39.6837612 Z" id="Stroke-16-Copy" stroke="#FFFFFF" stroke-width="3.39692308" stroke-linecap="round" stroke-linejoin="round"></path>
                            <polygon id="Fill-18-Copy" fill="#FFFFFF" points="157.004992 42.5287975 146.124647 42.5287975 146.124647 53.2845883 140.808463 53.2845883 140.808463 42.5287975 129.991527 42.5287975 129.991527 36.9012283 140.808463 36.9012283 140.808463 26.0831606 146.124647 26.0831606 146.124647 36.9012283 157.004992 36.9012283"></polygon>
                        </g>
                        <g id="Group-38" stroke="none" stroke-width="1" fill="none" fill-rule="evenodd" transform="translate(181.169231, 95.113846)">
                            <path d="M125.484716,225.830503 C119.66239,224.188657 106.210575,222.921605 102.855547,224.865777 C99.1959286,226.988854 92.5153132,231.880423 97.5042609,236.248866 C102.011978,240.310454 104.541553,235.555894 107.271547,234.65571 C113.576236,232.62435 123.388815,232.952719 125.601344,231.469396 C127.811609,229.987205 129.138673,226.863168 125.484716,225.830503" id="Fill-1" fill="#101010"></path>
                            <path d="M132.974026,96.4344566 C263.360389,132.547146 183.83842,232.82205 124.388869,231.439503 C121.746063,231.370432 121.855897,224.172352 124.831601,224.260672 C158.003687,225.291072 212.412204,162.728807 134.332795,137.536094 C129.62466,136.018801 126.698777,94.695232 132.974026,96.4344566" id="Fill-3" fill="#101010"></path>
                            <g id="Group-7" transform="translate(75.732308, 245.729058)">
                                <mask id="mask-6" fill="white">
                                    <use xlink:href="#path-5"></use>
                                </mask>
                                <g id="Clip-6"></g>
                                <path d="M39.6467889,180.169344 L69.2588997,180.169344 C68.1435766,106.969049 65.5268135,24.0003348 60.7167705,2.25436554 C59.7384566,-2.23296985 -2.12404185,0.874082462 0.0511212308,6.48466708 C8.25129354,27.6859963 25.2857305,108.254218 39.6467889,180.169344" id="Fill-5" fill="#0A0A0A" mask="url(#mask-6)"></path>
                            </g>
                            <g id="Group-10" transform="translate(99.643077, 257.184443)">
                                <mask id="mask-8" fill="white">
                                    <use xlink:href="#path-7"></use>
                                </mask>
                                <g id="Clip-9"></g>
                                <path d="M27.3255286,168.713959 L29.5289994,168.713959 C23.7270548,122.093455 12.0529625,34.0225625 2.66839631,1.290944 C2.55969477,0.713467077 1.90748554,0.377171692 1.36397785,0.542488615 C0.820470154,0.696482462 0.493233231,1.30792862 0.601934769,1.88540554 C7.45805785,25.7657748 17.0939963,86.2366671 27.3255286,168.713959" id="Fill-8" fill="#0A0A0A" mask="url(#mask-8)"></path>
                            </g>
                            <g id="Group-13" transform="translate(45.292308, 239.067520)">
                                <mask id="mask-10" fill="white">
                                    <use xlink:href="#path-9"></use>
                                </mask>
                                <g id="Clip-12"></g>
                                <path d="M34.6534843,186.830882 C57.7378412,124.386378 81.4608197,53.5684578 89.7436505,8.915904 C90.8317982,2.98827323 26.9028382,-2.84650831 26.2506289,3.27474708 C21.9444628,48.9724209 11.0482658,121.994944 0.347958154,186.830882 L34.6534843,186.830882 Z" id="Fill-11" fill="#0A0A0A" mask="url(#mask-10)"></path>
                            </g>
                            <g id="Group-16" transform="translate(53.218462, 242.464443)">
                                <mask id="mask-12" fill="white">
                                    <use xlink:href="#path-11"></use>
                                </mask>
                                <g id="Clip-15"></g>
                                <path d="M3.18110523,183.433959 C3.40869908,182.35487 3.63629292,181.274649 3.86501908,180.195559 C12.5622745,138.888975 32.8928591,38.8201502 34.7419175,1.79595323 C34.7419175,1.19696246 34.3059791,0.685159385 33.6549022,0.656851692 C33.1113945,0.619485538 32.5678868,1.08826092 32.5678868,1.68725169 C31.262336,27.6476702 20.0638129,92.5481502 1.69098831,179.746033 C1.43168985,180.977984 1.17352369,182.20767 0.915357538,183.433959 L3.18110523,183.433959 Z" id="Fill-14" fill="#0A0A0A" mask="url(#mask-12)"></path>
                            </g>
                            <path d="M50.4515545,103.144852 C62.4109883,140.584606 70.8908406,231.236027 70.1299298,247.98399 C70.0212283,251.233713 114.705487,259.12703 133.622951,249.393713 C140.907087,245.680876 146.127025,105.316618 142.102804,100.323141 C138.080847,95.329664 98.179456,89.7315348 92.7443791,91.8602732 C81.2197514,96.3238302 59.0401083,106.386649 50.4515545,103.144852" id="Fill-17" fill="#101010"></path>
                            <path d="M96.9845317,63.6512049 C96.9845317,63.6512049 109.596175,65.8342942 111.116864,63.6512049 C115.900864,56.4089649 107.421012,6.65876185 92.7440394,4.41113108 C74.3700825,1.60640492 67.6283225,21.3028972 75.7832025,39.6723249 C85.0239655,60.2803249 91.9819963,79.8760418 80.0236948,97.5026757 C83.9380825,98.8229465 107.529713,98.7165095 109.703744,93.2701095 C97.309504,82.7588972 96.9845317,63.6512049 96.9845317,63.6512049" id="Fill-19" fill="#171717"></path>
                            <path d="M108.725657,25.6397489 C106.769029,25.2253243 85.8938043,33.2499889 85.8938043,33.2499889 C83.1762658,39.0666535 81.5457428,19.1165243 81.5457428,19.1165243 L106.551626,18.0295089 L113.07485,22.3787028 C113.07485,22.3787028 110.683417,26.0541735 108.725657,25.6397489" id="Fill-21" fill="#101010"></path>
                            <path d="M58.8222523,8.64245169 C58.0613415,7.03117785 51.9729231,-1.32072369 50.4511015,0.179584 C48.8205785,1.67989169 44.1441477,10.0578363 46.2106092,12.8738855 C48.1672369,15.6888025 57.5189662,14.2836086 57.5189662,14.2836086 C57.5189662,14.2836086 59.6929969,10.2537255 58.8222523,8.64245169" id="Fill-23" fill="#0B0B0B"></path>
                            <path d="M63.0628578,8.64245169 C60.5615902,7.66300554 56.6472025,6.77527631 56.1036948,10.0521748 C55.4514855,13.3302055 57.1907102,15.6786117 60.2366178,15.6944949 C63.3878302,15.7103163 65.6728271,9.62076554 63.0628578,8.64245169" id="Fill-25" fill="#171717"></path>
                            <path d="M82.8506142,58.0089157 C83.6115249,57.1291126 84.2637342,36.1780234 84.2637342,36.1780234 L85.6768542,33.3155495 C85.6768542,33.3155495 84.3724357,23.2255557 84.2637342,21.3368665 C88.9379003,21.2077834 102.963796,11.1427003 101.224571,5.82085415 C98.8320049,-1.25720123 70.2378388,-3.51162585 63.0624049,10.052288 C51.5389095,31.8865772 75.1305403,53.1920788 82.8506142,58.0089157" id="Fill-27" fill="#0B0B0B"></path>
                            <path d="M86.1115471,36.0500726 C85.1332332,34.1625157 74.913024,29.232448 74.4793502,32.0790695 C73.2825009,40.5634511 84.3723225,47.5158203 86.1115471,46.6428111 C87.7420702,45.7686695 86.9822917,37.9387618 86.1115471,36.0500726" id="Fill-29" fill="#171717"></path>
                            <path d="M85.6769674,48.1355323 C87.0900874,69.2032492 112.313374,71.9932554 115.357017,69.2927015 C118.29309,66.5910154 114.379835,44.5925415 112.530777,43.9040985 C110.68285,43.2156554 103.833521,46.9228308 102.637804,48.1355323 C101.332254,49.3493662 101.223552,52.3669662 101.223552,52.3669662 C101.223552,52.3669662 91.8740874,50.9980062 85.6769674,32.61952 C85.1334597,30.9754092 82.7408935,31.1112862 82.7408935,32.8992 C82.7408935,36.2474338 85.5682658,46.2106092 85.6769674,48.1355323" id="Fill-31" fill="#0B0B0B"></path>
                            <path d="M86.6556209,19.6918498 C92.1993994,22.1093268 105.356815,25.1937329 108.943966,23.7228652 C112.857221,22.1172529 120.141356,18.1802191 115.792162,13.1731545 C111.878907,8.53635446 108.72543,12.9025329 105.89919,13.4233945 C99.3759655,14.5794806 89.699264,12.9206498 87.3066978,14.0891914 C84.915264,15.2577329 83.1760394,18.1734252 86.6556209,19.6918498" id="Fill-33" fill="#101010"></path>
                            <g id="Group-37" transform="translate(0.000000, 12.605982)">
                                <mask id="mask-14" fill="white">
                                    <use xlink:href="#path-13"></use>
                                </mask>
                                <g id="Clip-36"></g>
                                <path d="M61.6497378,134.263724 C-62.6198991,80.7644505 29.7933932,-7.77182031 88.5046794,1.67841969 C91.1135163,2.106432 90.0253686,9.22298585 87.0904271,8.730432 C54.3644702,3.20137354 -8.04266831,57.7865305 65.8890978,93.3591089 C70.3469932,95.5025674 67.6283225,136.838592 61.6497378,134.263724" id="Fill-35" fill="#101010" mask="url(#mask-14)"></path>
                            </g>
                        </g>
                    </g>
                </g>
            </g>
        </g>
    </g>
</svg>