<?xml version="1.0" encoding="UTF-8"?>
<svg width="325px" height="414px" viewBox="0 0 325 414" version="1.1" xmlns="http://www.w3.org/2000/svg" xmlns:xlink="http://www.w3.org/1999/xlink">
    <!-- Generator: Sketch 63.1 (92452) - https://sketch.com -->
    <title>illustration-circle copy</title>
    <desc>Created with Sketch.</desc>
    <defs>
        <rect id="path-1" x="0" y="0" width="325" height="414" rx="4"></rect>
    </defs>
    <g id="Symbols" stroke="none" stroke-width="1" fill="none" fill-rule="evenodd">
        <g id="illustration-circle-copy">
            <rect id="Rectangle" fill="#3945D8" x="0" y="0" width="325" height="414" rx="4"></rect>
            <mask id="mask-2" fill="white">
                <use xlink:href="#path-1"></use>
            </mask>
            <g id="Mask"></g>
            <g id="illustration/htpothesis" mask="url(#mask-2)">
                <g transform="translate(-73.000000, 50.000000)">
                    <path d="M139.037494,372.966787 C164.626062,371.137146 189.54119,368.142399 215.466498,367.31141 C232.6378,366.646453 247.788937,365.814962 263.613429,364.317745 C282.131456,362.654214 311.42366,361.157625 329.941703,359.826973 C346.102903,358.66265 349.806571,359.661459 363.274283,359.662086 C349.133232,360.660063 332.635369,362.490127 318.830995,363.155241 C298.292788,364.31936 277.081157,364.651251 256.542958,365.981809 C250.819196,366.314421 244.422048,366.647001 239.035017,367.811826 C232.637916,369.143042 226.914193,370.307851 219.843652,370.473961 C212.099725,370.640039 204.69246,370.140377 196.948541,370.472895 C189.541314,370.805428 182.470789,371.304417 175.063578,371.969829 C156.882236,373.466936 138.700848,373.965407 120.18279,374.963181" id="Path" fill="#000000" fill-rule="nonzero" opacity="0.260904948" transform="translate(241.728537, 367.113007) scale(-1, 1) rotate(-7.000000) translate(-241.728537, -367.113007) "></path>
                    <g id="Group-3" stroke-width="1" fill="none" fill-rule="evenodd" transform="translate(0.374384, 136.678082)" opacity="0.133486793">
                        <g id="Group-2" transform="translate(43.290640, 23.301370)">
                            <g id="Group" transform="translate(233.103448, 0.000000)">
                                <g fill-rule="nonzero">
                                    <g id="Deploy_12_">
                                        <g id="Group">
                                            <g id="Group-6_12_">
                                                <g id="Group">
                                                    <g id="Group-17-Copy-7_12_">
                                                        <g id="Group">
                                                            <path d="M3.49655172,1.16506849 L133.035468,0.998630137 C134.700493,0.998630137 136.032512,2.16369863 136.032512,3.66164384 L136.032512,44.4390411 C136.032512,45.9369863 134.700493,47.1020548 133.035468,47.1020548 L3.49655172,47.2684932 C1.83152709,47.2684932 0.499507389,46.1034247 0.499507389,44.6054795 L0.499507389,3.82808219 C0.499507389,2.33013699 1.83152709,1.16506849 3.49655172,1.16506849 Z" id="Rectangle_12_" fill="#3F47D3"></path>
                                                            <path d="M129.039409,10.1527397 L102.565517,10.1527397 C101.066995,10.1527397 99.9014778,8.98767123 99.9014778,7.48972603 L99.9014778,7.48972603 C99.9014778,5.99178082 101.066995,4.82671233 102.565517,4.82671233 L129.039409,4.82671233 C130.537931,4.82671233 131.703448,5.99178082 131.703448,7.48972603 L131.703448,7.48972603 C131.869951,8.98767123 130.537931,10.1527397 129.039409,10.1527397 Z" id="Path" fill="#26329E"></path>
                                                        </g>
                                                    </g>
                                                </g>
                                            </g>
                                        </g>
                                    </g>
                                    <path d="M54.279803,23.4678082 L11.8216749,23.4678082 C10.3231527,23.4678082 8.991133,22.3027397 8.991133,20.6383562 L8.991133,20.6383562 C8.991133,19.140411 10.1566502,17.8089041 11.8216749,17.8089041 L54.279803,17.8089041 C55.7783251,17.8089041 57.1103448,18.9739726 57.1103448,20.6383562 L57.1103448,20.6383562 C57.1103448,22.1363014 55.9448276,23.4678082 54.279803,23.4678082 Z" id="Path" fill="#26329E"></path>
                                </g>
                                <g transform="translate(8.325123, 4.993151)">
                                    <ellipse id="Oval" stroke="#26329E" stroke-width="0.4369" cx="4.99507389" cy="4.1609589" rx="3.33004926" ry="3.32876712"></ellipse>
                                    <rect id="Rectangle" fill="#26329E" fill-rule="nonzero" x="0.333004926" y="0" width="9.15763547" height="9.98630137"></rect>
                                </g>
                                <g id="Group-13_20_" transform="translate(9.990148, 28.294521)" fill="#26329E" fill-rule="nonzero">
                                    <path d="M5.99408867,12.4828767 C2.66403941,12.4828767 0,9.81986301 0,6.49109589 C0,3.16232877 2.66403941,0.499315068 5.99408867,0.499315068 C9.32413793,0.499315068 11.9881773,3.16232877 11.9881773,6.49109589 C11.9881773,9.81986301 9.32413793,12.4828767 5.99408867,12.4828767 Z" id="Combined-Shape_20_"></path>
                                </g>
                                <g id="Group-13_19_" transform="translate(24.975369, 28.294521)" fill="#26329E" fill-rule="nonzero">
                                    <path d="M6.16059113,12.4828767 C2.83054187,12.4828767 0.166502463,9.81986301 0.166502463,6.49109589 C0.166502463,3.16232877 2.83054187,0.499315068 6.16059113,0.499315068 C9.49064039,0.499315068 12.1546798,3.16232877 12.1546798,6.49109589 C12.1546798,9.81986301 9.49064039,12.4828767 6.16059113,12.4828767 Z" id="Combined-Shape_19_"></path>
                                </g>
                                <g id="Group-13_18_" transform="translate(39.960591, 28.294521)" fill="#26329E" fill-rule="nonzero">
                                    <path d="M6.49359606,12.4828767 C3.1635468,12.4828767 0.499507389,9.81986301 0.499507389,6.49109589 C0.499507389,3.16232877 3.1635468,0.499315068 6.49359606,0.499315068 C9.82364532,0.499315068 12.4876847,3.16232877 12.4876847,6.49109589 C12.4876847,9.81986301 9.82364532,12.4828767 6.49359606,12.4828767 Z" id="Combined-Shape_18_"></path>
                                </g>
                            </g>
                            <g id="Group-Copy-2" transform="translate(0.000000, 36.616438)">
                                <g id="Group">
                                    <g id="Deploy_12_">
                                        <g id="Group">
                                            <g id="Group-6_12_">
                                                <g id="Group">
                                                    <g id="Group-17-Copy-7_12_">
                                                        <g id="Group">
                                                            <path d="M3.49655172,1.16506849 L133.035468,0.998630137 C134.700493,0.998630137 136.032512,2.16369863 136.032512,3.66164384 L136.032512,44.4390411 C136.032512,45.9369863 134.700493,47.1020548 133.035468,47.1020548 L3.49655172,47.2684932 C1.83152709,47.2684932 0.499507389,46.1034247 0.499507389,44.6054795 L0.499507389,3.82808219 C0.499507389,2.33013699 1.83152709,1.16506849 3.49655172,1.16506849 Z" id="Rectangle_12_" fill="#0A84FF"></path>
                                                            <path d="M129.039409,10.1527397 L102.565517,10.1527397 C101.066995,10.1527397 99.9014778,8.98767123 99.9014778,7.48972603 L99.9014778,7.48972603 C99.9014778,5.99178082 101.066995,4.82671233 102.565517,4.82671233 L129.039409,4.82671233 C130.537931,4.82671233 131.703448,5.99178082 131.703448,7.48972603 L131.703448,7.48972603 C131.869951,8.98767123 130.537931,10.1527397 129.039409,10.1527397 Z" id="Path" fill="#48A2FC"></path>
                                                        </g>
                                                    </g>
                                                </g>
                                            </g>
                                        </g>
                                    </g>
                                    <path d="M54.279803,23.4678082 L11.8216749,23.4678082 C10.3231527,23.4678082 8.991133,22.3027397 8.991133,20.6383562 L8.991133,20.6383562 C8.991133,19.140411 10.1566502,17.8089041 11.8216749,17.8089041 L54.279803,17.8089041 C55.7783251,17.8089041 57.1103448,18.9739726 57.1103448,20.6383562 L57.1103448,20.6383562 C57.1103448,22.1363014 55.9448276,23.4678082 54.279803,23.4678082 Z" id="Path" fill="#48A2FC"></path>
                                </g>
                                <g id="Group-13_19_" transform="translate(24.975369, 28.294521)" fill="#48A2FC">
                                    <path d="M6.16059113,12.4828767 C2.83054187,12.4828767 0.166502463,9.81986301 0.166502463,6.49109589 C0.166502463,3.16232877 2.83054187,0.499315068 6.16059113,0.499315068 C9.49064039,0.499315068 12.1546798,3.16232877 12.1546798,6.49109589 C12.1546798,9.81986301 9.49064039,12.4828767 6.16059113,12.4828767 Z" id="Combined-Shape_19_"></path>
                                </g>
                                <g id="Group-13_18_" transform="translate(39.960591, 28.294521)" fill="#48A2FC">
                                    <path d="M6.49359606,12.4828767 C3.1635468,12.4828767 0.499507389,9.81986301 0.499507389,6.49109589 C0.499507389,3.16232877 3.1635468,0.499315068 6.49359606,0.499315068 C9.82364532,0.499315068 12.4876847,3.16232877 12.4876847,6.49109589 C12.4876847,9.81986301 9.82364532,12.4828767 6.49359606,12.4828767 Z" id="Combined-Shape_18_"></path>
                                </g>
                            </g>
                        </g>
                        <g id="Group-Copy" fill-rule="nonzero">
                            <g id="Group">
                                <g id="Deploy_12_">
                                    <g id="Group">
                                        <g id="Group-6_12_">
                                            <g id="Group">
                                                <g id="Group-17-Copy-7_12_">
                                                    <g id="Group">
                                                        <path d="M3.49655172,1.16506849 L133.035468,0.998630137 C134.700493,0.998630137 136.032512,2.16369863 136.032512,3.66164384 L136.032512,44.4390411 C136.032512,45.9369863 134.700493,47.1020548 133.035468,47.1020548 L3.49655172,47.2684932 C1.83152709,47.2684932 0.499507389,46.1034247 0.499507389,44.6054795 L0.499507389,3.82808219 C0.499507389,2.33013699 1.83152709,1.16506849 3.49655172,1.16506849 Z" id="Rectangle_12_" fill="#FFFFFF"></path>
                                                        <path d="M129.039409,10.1527397 L102.565517,10.1527397 C101.066995,10.1527397 99.9014778,8.98767123 99.9014778,7.48972603 L99.9014778,7.48972603 C99.9014778,5.99178082 101.066995,4.82671233 102.565517,4.82671233 L129.039409,4.82671233 C130.537931,4.82671233 131.703448,5.99178082 131.703448,7.48972603 L131.703448,7.48972603 C131.869951,8.98767123 130.537931,10.1527397 129.039409,10.1527397 Z" id="Path" fill="#F1EDED"></path>
                                                    </g>
                                                </g>
                                            </g>
                                        </g>
                                    </g>
                                </g>
                            </g>
                        </g>
                    </g>
                    <g id="Group" stroke-width="1" fill="none" fill-rule="evenodd" transform="translate(103.605911, 0.198630)">
                        <path d="M151.017734,93.0390411 C211.791133,95.5356164 194.974384,114.676027 175.660099,128.490411 C174.328079,129.322603 177.658128,130.986986 178.657143,130.487671 C205.297537,113.344521 222.780296,88.3787671 150.018719,71.9013699 C146.855172,71.2356164 147.854187,92.8726027 151.017734,93.0390411 Z" id="Path" fill="#161616" fill-rule="nonzero"></path>
                        <path d="M179.82266,127.824658 C178.823645,126.659589 166.668966,130.820548 167.334975,132.984247 C168.000985,135.147945 171.830542,137.311644 173.162562,136.978767 C174.494581,136.479452 178.823645,133.65 179.656158,132.484932 C180.655172,131.153425 180.988177,128.989726 179.82266,127.824658 Z" id="Path" fill="#0E0E0E" fill-rule="nonzero"></path>
                        <g transform="translate(98.236453, 93.205479)">
                            <g id="Deploy_3_">
                                <g id="Group">
                                    <g id="Group-6_3_">
                                        <g id="Group">
                                            <g id="Group-17-Copy-7_3_">
                                                <g>
                                                    <path d="M4.66206897,0.499315068 L176.825616,0.332876712 C178.990148,0.332876712 180.821675,2.16369863 180.821675,4.32739726 L180.821675,35.7842466 C180.821675,37.9479452 178.990148,39.7787671 176.825616,39.7787671 L4.82857143,39.9452055 C2.66403941,39.9452055 0.832512315,38.1143836 0.832512315,35.9506849 L0.832512315,4.49383562 C0.666009852,2.33013699 2.49753695,0.499315068 4.66206897,0.499315068 Z" id="Rectangle_3_" fill="#10AA80"></path>
                                                    <path d="M174.588239,11.8171233 L169.072845,11.8171233 C168.760653,11.8171233 168.500493,10.3040473 168.500493,8.48835616 L168.500493,8.48835616 C168.500493,6.67266501 168.760653,5.15958904 169.072845,5.15958904 L174.588239,5.15958904 C174.900431,5.15958904 175.160591,6.67266501 175.160591,8.48835616 L175.160591,8.48835616 C175.160591,10.3040473 174.926447,11.8171233 174.588239,11.8171233 Z" id="Path" fill="#0E916D"></path>
                                                    <path d="M71.5960591,12.4828767 L36.2975369,12.4828767 C34.2995074,12.4828767 32.6344828,10.8184932 32.6344828,8.82123288 L32.6344828,8.82123288 C32.6344828,6.8239726 34.2995074,5.15958904 36.2975369,5.15958904 L71.5960591,5.15958904 C73.5940887,5.15958904 75.2591133,6.8239726 75.2591133,8.82123288 L75.2591133,8.82123288 C75.2591133,10.8184932 73.7605911,12.4828767 71.5960591,12.4828767 Z" id="Path-Copy" fill="#0E916D"></path>
                                                    <g id="Group-13_3_" transform="translate(11.655172, 4.993151)" fill="#26329E">
                                                        <path d="M5.82758621,10.8184932 C3.1635468,10.8184932 1.16551724,8.65479452 1.16551724,6.15821918 C1.16551724,3.49520548 3.33004926,1.49794521 5.82758621,1.49794521 C8.49162562,1.49794521 10.4896552,3.66164384 10.4896552,6.15821918 C10.4896552,8.82123288 8.32512315,10.8184932 5.82758621,10.8184932 Z" id="Combined-Shape_3_"></path>
                                                    </g>
                                                </g>
                                            </g>
                                        </g>
                                    </g>
                                </g>
                            </g>
                            <path d="M111.025842,30.1253425 L18.1800692,30.1253425 C14.8934932,30.1253425 12.1546798,28.4609589 12.1546798,26.4636986 L12.1546798,26.4636986 C12.1546798,24.4664384 14.8934932,22.8020548 18.1800692,22.8020548 L111.025842,22.8020548 C114.312418,22.8020548 117.051232,24.4664384 117.051232,26.4636986 L117.051232,26.4636986 C117.051232,28.4609589 114.312418,30.1253425 111.025842,30.1253425 Z" id="Path" fill="#0E916D"></path>
                        </g>
                        <path d="M90.4108374,20.3054795 C103.231527,17.6424658 115.719212,-8.98767123 129.039409,3.49520548 C161.007882,33.4541096 128.373399,91.2082192 124.876847,95.5356164 C121.213793,99.8630137 125.875862,120.002055 117.883744,129.156164 C108.060099,140.307534 93.9073892,128.323973 81.4197044,137.644521 C75.5921182,141.971918 75.9251232,153.456164 63.1044335,153.789041 C49.1182266,154.121918 46.9536946,143.80274 39.2945813,144.634932 C23.1438424,146.465753 13.4866995,160.613014 4.82857143,149.628082 C-4.99507389,136.812329 14.9852217,120.834247 16.8167488,114.509589 C20.8128079,100.695205 -4.32906404,98.5315068 0.666009852,78.7253425 C5.32807882,60.0842466 26.1408867,60.0842466 36.4640394,50.5972603 C49.7842365,38.6136986 45.4551724,17.309589 58.2758621,11.9835616 C72.5950739,5.82534247 76.7576355,23.3013699 90.4108374,20.3054795 Z" id="Path" fill="#0E0E0E" fill-rule="nonzero"></path>
                        <path d="M185.483744,130.820548 C184.484729,131.486301 172.496552,136.146575 171.497537,135.314384 C170.665025,134.482192 175.493596,127.824658 177.658128,127.991096 C179.82266,128.157534 186.482759,129.988356 185.483744,130.820548 Z" id="Path" fill="#0E0E0E" fill-rule="nonzero"></path>
                        <path d="M38.9615764,324.388356 C38.129064,327.717123 24.9753695,347.356849 22.9773399,347.023973 C19.6472906,346.358219 30.6364532,320.726712 33.6334975,319.894521 C37.6295567,319.062329 39.2945813,322.557534 38.9615764,324.388356 Z" id="Path" fill="#0C0C0C" fill-rule="nonzero"></path>
                        <path d="M152.849261,202.056164 C145.190148,272.958904 40.9596059,325.386986 36.9635468,323.556164 C33.1339901,321.725342 34.2995074,319.062329 36.9635468,317.89726 C89.4118227,294.928767 116.884729,223.193836 122.545813,181.084932 C123.544828,174.427397 153.681773,194.566438 152.849261,202.056164 Z" id="Path" fill="#131313" fill-rule="nonzero"></path>
                        <g transform="translate(29.970443, 186.410959)" fill="#0C0C0C" fill-rule="nonzero" id="Path">
                            <path d="M93.2413793,11.3178082 C102.06601,16.1445205 109.558621,42.6082192 101.899507,62.7472603 C98.5694581,71.5684932 113.055172,50.0979452 113.055172,50.0979452 L124.37734,25.4650685 L101.066995,4.99315068 L90.5773399,0 C90.7438424,0.166438356 90.4108374,9.65342466 93.2413793,11.3178082 Z"></path>
                            <path d="M0.499507389,136.978767 C46.4541872,120.334932 101.066995,57.0883562 108.892611,11.6506849 L107.560591,11.4842466 C103.897537,33.1212329 89.2453202,59.7513699 67.6,84.7171233 C46.1211823,109.35 21.4788177,127.991096 0.166502463,135.813699 L0.499507389,136.978767 Z"></path>
                        </g>
                        <path d="M240.596059,359.839726 C245.091626,362.169863 259.57734,383.307534 258.078818,385.80411 C256.746798,388.300685 236.933005,369.160274 236.266995,366.830137 C234.934975,362.169863 238.931034,359.007534 240.596059,359.839726 Z" id="Path" fill="#0C0C0C" fill-rule="nonzero"></path>
                        <path d="M129.705419,161.278767 C115.386207,169.434247 117.550739,192.236301 123.378325,195.731507 C206.296552,243.332877 235.101478,330.546575 237.765517,361.337671 C238.098522,364.333562 241.262069,362.336301 241.262069,359.173973 C244.092611,255.15 165.336946,168.602055 147.854187,159.780822 C141.860099,156.95137 136.365517,157.450685 129.705419,161.278767 Z" id="Path" fill="#131313" fill-rule="nonzero"></path>
                        <g transform="translate(118.216749, 163.109589)" fill-rule="nonzero" id="Path">
                            <path d="M19.3142857,2.49657534 C19.6472906,5.49246575 3.49655172,6.32465753 0.999014778,9.4869863 C-1.3320197,12.6493151 3.82955665,1.83082192 3.82955665,1.83082192 C3.82955665,1.83082192 18.9812808,-0.499315068 19.3142857,2.49657534 Z" fill="#131313"></path>
                            <path d="M119.382266,201.723288 C121.380296,179.586986 107.560591,135.64726 86.7477833,97.2 C74.9261084,75.3965753 61.1064039,56.089726 47.120197,41.609589 C30.4699507,24.6328767 20.146798,17.1431507 2.99704433,12.6493151 C2.66403941,12.4828767 2.16453202,12.8157534 2.16453202,13.1486301 C1.99802956,13.4815068 2.33103448,13.9808219 2.66403941,13.9808219 C20.9793103,18.6410959 50.2837438,32.7883562 85.582266,97.6993151 C109.225616,140.973288 119.715271,182.749315 118.050246,201.390411 C118.050246,202.056164 118.383251,202.389041 118.716256,202.389041 C119.049261,202.389041 119.382266,202.056164 119.382266,201.723288 Z" fill="#0C0C0C"></path>
                        </g>
                        <path d="M111.723153,78.3924658 C127.207882,113.344521 130.038424,142.471233 128.872906,160.613014 C128.706404,163.941781 147.687685,167.769863 151.350739,161.611644 C153.015764,158.94863 157.51133,124.662329 156.012808,111.34726 C159.342857,109.849315 162.672906,104.023973 161.340887,100.861644 C155.846305,87.5465753 156.512315,73.7321918 156.512315,73.7321918 C156.512315,73.7321918 149.352709,71.5684932 144.524138,68.7390411 C142.692611,67.740411 141.360591,70.569863 140.195074,69.4047945 C137.864039,67.0746575 132.535961,68.0732877 131.037438,69.4047945 C130.038424,70.4034247 127.873892,68.0732877 127.041379,68.9054795 C123.04532,72.5671233 119.049261,74.7308219 111.723153,78.3924658 Z" id="Path" fill="#161616" fill-rule="nonzero"></path>
                        <path d="M157.844335,101.860274 C155.846305,102.193151 133.368473,105.022603 130.537931,104.023973 C127.707389,103.025342 123.71133,109.183562 125.542857,111.014384 C128.206897,113.510959 148.6867,111.846575 152.183251,111.014384 C155.013793,110.34863 157.178325,107.519178 157.178325,107.519178 C157.178325,107.519178 159.842365,101.527397 157.844335,101.860274 Z" id="Path" fill="#111111" fill-rule="nonzero"></path>
                        <path d="M120.048276,165.939041 C122.37931,166.604795 137.19803,168.602055 137.697537,165.273288 C138.030542,161.944521 122.046305,160.613014 120.214778,162.443836 C118.383251,164.108219 117.550739,165.273288 120.048276,165.939041 Z" id="Path" fill="#0E0E0E" fill-rule="nonzero"></path>
                        <path d="M113.55468,77.2273973 C117.883744,75.3965753 125.04335,92.8726027 122.712315,93.3719178 C111.723153,95.8684932 76.0916256,150.626712 121.380296,161.445205 C123.378325,161.944521 122.046305,165.939041 118.549754,165.606164 C70.5970443,160.613014 80.0876847,91.2082192 113.55468,77.2273973 Z" id="Path" fill="#161616" fill-rule="nonzero"></path>
                        <path d="M132.535961,20.8047945 C143.525123,26.7965753 148.6867,52.5945205 144.857143,54.4253425 C142.026601,55.7568493 138.030542,52.9273973 138.030542,52.9273973 C138.030542,52.9273973 137.031527,65.0773973 146.189163,69.2383562 C143.025616,73.3993151 131.869951,74.8972603 126.874877,68.9054795 C133.20197,64.4116438 130.371429,51.0965753 129.372414,47.4349315 C121.546798,20.4719178 127.374384,17.8089041 132.535961,20.8047945 Z" id="Path" fill="#1D1D1D" fill-rule="nonzero"></path>
                        <path d="M140.361576,54.0924658 C137.697537,52.9273973 132.868966,49.7650685 129.871921,43.6068493 C130.204926,45.1047945 128.539901,47.7678082 128.539901,47.7678082 L129.205911,63.2465753 C129.039409,63.2465753 131.370443,58.0869863 140.361576,54.0924658 Z" id="Path" fill="#000000" fill-rule="nonzero"></path>
                        <path d="M131.037438,17.9753425 C132.535961,20.9712329 131.869951,49.7650685 125.70936,55.4239726 C119.548768,61.0828767 114.553695,44.6054795 114.553695,44.6054795 L119.382266,21.969863 C119.382266,21.969863 129.538916,14.8130137 131.037438,17.9753425 Z" id="Path" fill="#0E0E0E" fill-rule="nonzero"></path>
                    </g>
                </g>
            </g>
        </g>
    </g>
</svg>