<?xml version="1.0" encoding="UTF-8"?>
<svg width="16px" height="15px" viewBox="0 0 16 15" version="1.1" xmlns="http://www.w3.org/2000/svg" xmlns:xlink="http://www.w3.org/1999/xlink">
    <path d="M10.625,10.625 C10.970625,10.625 11.25,10.904375 11.25,11.25 C11.25,11.595625 10.970625,11.875 10.625,11.875 L1.875,11.875 C1.53,11.875 1.25,11.595625 1.25,11.25 C1.25,10.904375 1.53,10.625 1.875,10.625 L10.625,10.625 Z M13.125,8.125 C13.470625,8.125 13.75,8.404375 13.75,8.75 C13.75,9.095625 13.470625,9.375 13.125,9.375 L1.875,9.375 C1.53,9.375 1.25,9.095625 1.25,8.75 C1.25,8.404375 1.53,8.125 1.875,8.125 L13.125,8.125 Z M10.625,5.625 C10.970625,5.625 11.25,5.905 11.25,6.25 C11.25,6.595 10.970625,6.875 10.625,6.875 L1.875,6.875 C1.53,6.875 1.25,6.595 1.25,6.25 C1.25,5.905 1.53,5.625 1.875,5.625 L10.625,5.625 Z M13.125,3.125 C13.470625,3.125 13.75,3.405 13.75,3.75 C13.75,4.095 13.470625,4.375 13.125,4.375 L1.875,4.375 C1.53,4.375 1.25,4.095 1.25,3.75 C1.25,3.405 1.53,3.125 1.875,3.125 L13.125,3.125 Z" id="path-1"></path>
</svg>