<?xml version="1.0" encoding="UTF-8"?>
<svg width="28px" height="28px" viewBox="0 0 28 28" version="1.1" xmlns="http://www.w3.org/2000/svg" xmlns:xlink="http://www.w3.org/1999/xlink">
    <!-- Generator: Sketch 63.1 (92452) - https://sketch.com -->
    <title>user</title>
    <desc>Created with Sketch.</desc>
    <defs>
        <path d="M15,13.5 C17.06775,13.5 18.75,15.18225 18.75,17.25 L18.75,17.25 L18.75,18.75 C18.75,19.16475 18.41475,19.5 18,19.5 C17.58525,19.5 17.25,19.16475 17.25,18.75 L17.25,18.75 L17.25,17.25 C17.25,16.0095 16.2405,15 15,15 L15,15 L9,15 C7.7595,15 6.75,16.0095 6.75,17.25 L6.75,17.25 L6.75,18.75 C6.75,19.16475 6.414,19.5 6,19.5 C5.586,19.5 5.25,19.16475 5.25,18.75 L5.25,18.75 L5.25,17.25 C5.25,15.18225 6.93225,13.5 9,13.5 L9,13.5 Z M12,4.5 C14.06775,4.5 15.75,6.18225 15.75,8.25 C15.75,10.31775 14.06775,12 12,12 C9.93225,12 8.25,10.31775 8.25,8.25 C8.25,6.18225 9.93225,4.5 12,4.5 Z M12,6 C10.7595,6 9.75,7.0095 9.75,8.25 C9.75,9.4905 10.7595,10.5 12,10.5 C13.2405,10.5 14.25,9.4905 14.25,8.25 C14.25,7.0095 13.2405,6 12,6 Z" id="path-1"></path>
    </defs>
    <g id="Avatar" stroke="none" stroke-width="1" fill="none" fill-rule="evenodd">
        <g id="avatar/example/3-copy">
            <g id="user">
                <circle id="Oval-Copy" fill="#434242" cx="12" cy="12" r="12"></circle>
                <mask id="mask-2" fill="white">
                    <use xlink:href="#path-1"></use>
                </mask>
                <use id="Icon-User" fill="#2C2C2E" xlink:href="#path-1"></use>
            </g>
        </g>
    </g>
</svg>