<?xml version="1.0" encoding="UTF-8"?>
<svg width="13px" height="15px" viewBox="0 0 13 15" version="1.1" xmlns="http://www.w3.org/2000/svg" xmlns:xlink="http://www.w3.org/1999/xlink">
    <!-- Generator: Sketch 62 (91390) - https://sketch.com -->
    <title>Icon/Layout/Calendar Copy 2</title>
    <desc>Created with Sketch.</desc>
        <path fill='#636366' d="M10.875,13.125 L2.125,13.125 C1.780625,13.125 1.5,12.845 1.5,12.5 L1.5,6.875 L11.5,6.875 L11.5,12.5 C11.5,12.845 11.22,13.125 10.875,13.125 M2.125,3.125 L3.375,3.125 L3.375,3.75 C3.375,4.095 3.655,4.375 4,4.375 C4.345,4.375 4.625,4.095 4.625,3.75 L4.625,3.125 L8.375,3.125 L8.375,3.75 C8.375,4.095 8.654375,4.375 9,4.375 C9.345625,4.375 9.625,4.095 9.625,3.75 L9.625,3.125 L10.875,3.125 C11.22,3.125 11.5,3.405625 11.5,3.75 L11.5,5.625 L1.5,5.625 L1.5,3.75 C1.5,3.405625 1.780625,3.125 2.125,3.125 M10.875,1.875 L9.625,1.875 L9.625,1.25 C9.625,0.905 9.345625,0.625 9,0.625 C8.654375,0.625 8.375,0.905 8.375,1.25 L8.375,1.875 L4.625,1.875 L4.625,1.25 C4.625,0.905 4.345,0.625 4,0.625 C3.655,0.625 3.375,0.905 3.375,1.25 L3.375,1.875 L2.125,1.875 C1.09125,1.875 0.25,2.71625 0.25,3.75 L0.25,12.5 C0.25,13.53375 1.09125,14.375 2.125,14.375 L10.875,14.375 C11.90875,14.375 12.75,13.53375 12.75,12.5 L12.75,3.75 C12.75,2.71625 11.90875,1.875 10.875,1.875" ></path>
    <g id="Blue" stroke="none" stroke-width="1" fill="none" fill-rule="evenodd">
        <g id="Hypothesis---1.1---Modal-Builts" transform="translate(-447.000000, -350.000000)">
            <g id="Group-13" transform="translate(358.000000, 81.000000)">
                <g id="Group-8" transform="translate(0.000000, 25.000000)">
                    <g id="Group-12" transform="translate(89.000000, 192.000000)">
                        <g id="Icon/Layout/Calendar-Copy-2" transform="translate(0.000000, 52.000000)">
                            <mask id="mask-2" fill="white">
                                <use xlink:href="#path-1"></use>
                            </mask>
                            <use id="Icon-Calendar-Today" fill="#636366" xlink:href="#path-1"></use>
                        </g>
                    </g>
                </g>
            </g>
        </g>
    </g>
</svg>