<?xml version="1.0" encoding="UTF-8"?>
<svg width="157px" height="25px" viewBox="0 0 157 25" version="1.1" xmlns="http://www.w3.org/2000/svg" xmlns:xlink="http://www.w3.org/1999/xlink">
    <!-- Generator: sketchtool 61.2 (101010) - https://sketch.com -->
    <title>1E7B0379-2C53-46C4-BAE3-88BBCF0CB77C</title>
    <desc>Created with sketchtool.</desc>
    <g id="Page-1" stroke="none" stroke-width="1" fill="none" fill-rule="evenodd">
        <g id="Circle---0.0" transform="translate(-37.000000, -20.000000)" fill="#FEFEFE">
            <g id="Group" transform="translate(37.000000, 20.000000)">
                <g id="logo/charles">
                    <path d="M28.0360165,17.4683864 C30.088577,17.4683864 31.7581264,19.1577887 31.7581264,21.2341932 C31.7581264,23.3105977 30.088577,25 28.0360165,25 C25.9840127,25 24.3144633,23.3105977 24.3144633,21.2341932 C24.3144633,19.1577887 25.9840127,17.4683864 28.0360165,17.4683864 Z M9.98667816,4.13258569 C15.4935749,4.13258569 19.9733563,8.66620024 19.9733563,14.2385803 C19.9733563,19.8109604 15.4935749,24.3440117 9.98667816,24.3440117 C4.47922473,24.3440117 -2.34479103e-13,19.8109604 -2.34479103e-13,14.2385803 C-2.34479103e-13,8.66620024 4.47922473,4.13258569 9.98667816,4.13258569 Z M28.0360165,18.6457291 C26.6253335,18.6457291 25.4774139,19.8067355 25.4774139,21.2341932 C25.4774139,22.6616508 26.6253335,23.8232206 28.0360165,23.8232206 C29.4466995,23.8232206 30.5946191,22.6616508 30.5946191,21.2341932 C30.5946191,19.8067355 29.4466995,18.6457291 28.0360165,18.6457291 Z M52.0344957,2.79734382 C53.250333,2.79734382 54.3926856,2.97929679 55.4609968,3.34263941 C56.5293081,3.70598203 57.4784851,4.23325131 58.3079711,4.9227573 C58.5467963,5.10921685 58.7126935,5.30525286 58.8051061,5.51030203 C58.8975186,5.7153512 58.9437249,5.96715608 58.9437249,6.26515336 C58.9437249,6.67525169 58.8329412,7.02056801 58.6124871,7.29997566 C58.3909197,7.57938332 58.1237027,7.71908715 57.8102795,7.71908715 C57.4417427,7.71908715 57.0642987,7.58895979 56.6773908,7.32814176 C55.8852038,6.73158388 55.1481303,6.31697897 54.4661702,6.08320039 C53.7847669,5.85054845 53.0293222,5.73394082 52.2003929,5.73394082 C50.2842244,5.73394082 48.8329022,6.34007517 47.8480962,7.55178055 C46.8616202,8.76348593 46.3689389,10.5441464 46.3689389,12.8926354 C46.3689389,15.2608406 46.8616202,17.0505142 47.8480962,18.2622196 C48.8329022,19.4744883 50.2842244,20.0800593 52.2003929,20.0800593 C52.9925799,20.0800593 53.7246431,19.9589451 54.3971392,19.7167167 C55.0696353,19.4744883 55.8300903,19.0643899 56.6773908,18.4858584 C56.8616592,18.3743206 57.0459276,18.2813725 57.2301959,18.2064507 C57.4139076,18.1320922 57.6076399,18.0943497 57.8102795,18.0943497 C58.1237027,18.0943497 58.3909197,18.2340535 58.6124871,18.5140245 C58.8329412,18.7939954 58.9437249,19.1387484 58.9437249,19.5488468 C58.9437249,19.8288177 58.8975186,20.0755527 58.8051061,20.289615 C58.7126935,20.5042407 58.5467963,20.7047833 58.3079711,20.8912428 C57.4784851,21.5807488 56.5293081,22.1074548 55.4609968,22.4707974 C54.3926856,22.8347033 53.250333,23.016093 52.0344957,23.016093 C50.1550695,23.016093 48.5105717,22.606558 47.1015588,21.785798 C45.6919892,20.9661646 44.6092037,19.7910752 43.8543157,18.2622196 C43.0983143,16.7339273 42.721427,14.9442537 42.721427,12.8926354 C42.721427,10.8421437 43.0983143,9.05697663 43.8543157,7.5376975 C44.6092037,6.01841837 45.6919892,4.84839881 47.1015588,4.02820215 C48.5105717,3.20800548 50.1550695,2.79734382 52.0344957,2.79734382 Z M83.7890592,8.75390945 C85.6684853,8.75390945 87.0635807,9.22540987 87.9754587,10.1667207 C88.8878933,11.1074683 89.3438323,12.5388692 89.3438323,14.4592335 L89.3438323,14.4592335 L89.3438323,21.2821882 C89.3438323,21.785798 89.1963063,22.1823766 88.9012542,22.4707974 C88.6067588,22.7603448 88.200923,22.9045552 87.6859736,22.9045552 C87.2060964,22.9045552 86.8147349,22.7552749 86.5107756,22.4567143 C86.2068162,22.1592804 86.0548366,21.7677717 86.0548366,21.2821882 L86.0548366,21.2821882 L86.0548366,20.667604 C85.74197,21.3942893 85.248732,21.9632444 84.5762359,22.3733427 C83.9037398,22.7828777 83.1254704,22.9884902 82.2408708,22.9884902 C81.3379001,22.9884902 80.5184346,22.8020307 79.7813611,22.4291116 C79.0442876,22.0561925 78.4636474,21.5435696 78.0405538,20.8912428 C77.6163468,20.2383528 77.4048,19.5111042 77.4048,18.7100605 C77.4048,17.7028409 77.6575428,16.9108104 78.1646984,16.3322788 C78.6712972,15.7548739 79.495773,15.3357624 80.6381256,15.0738177 C81.7804782,14.813563 83.3553883,14.6828723 85.3639693,14.6828723 L85.3639693,14.6828723 L86.0548366,14.6828723 L86.0548366,14.0395587 C86.0548366,13.1258506 85.8611043,12.4594408 85.474753,12.039766 C85.0878451,11.6206545 84.4609986,11.4110988 83.5953269,11.4110988 C83.0608929,11.4110988 82.5175517,11.4905272 81.9647466,11.6482573 C81.4119414,11.8071141 80.7572598,12.0352594 80.0023718,12.33382 C79.5236081,12.5760485 79.1734425,12.6971627 78.9524318,12.6971627 C78.6206373,12.6971627 78.34841,12.5760485 78.1368632,12.33382 C77.9247598,12.0915916 77.8189864,11.7744414 77.8189864,11.3829327 C77.8189864,11.0657825 77.8974814,10.7908814 78.0539146,10.5576661 C78.2103479,10.3250142 78.4731113,10.105882 78.8416481,9.90083282 C79.486309,9.54650335 80.2556713,9.26709569 81.1491781,9.0614832 C82.0426849,8.85643404 82.9222741,8.75390945 83.7890592,8.75390945 Z M116.289102,8.75430378 C117.505496,8.75430378 118.5649,9.02469828 119.467314,9.56492397 C120.369729,10.105713 121.070616,10.8701408 121.567751,11.8582074 C122.065443,12.8468373 122.313732,14.0117869 122.313732,15.3536197 C122.313732,16.15579 121.963567,16.5563119 121.264349,16.5563119 L121.264349,16.5563119 L113.11089,16.5563119 C113.221674,17.8429391 113.580747,18.7893199 114.189222,19.3948909 C114.796584,20.0010252 115.681184,20.3040924 116.841908,20.3040924 C117.431455,20.3040924 117.951415,20.2297339 118.403457,20.0798903 C118.854386,19.93061 119.365995,19.7261242 119.937728,19.4647428 C120.489976,19.1667455 120.894699,19.0174652 121.153008,19.0174652 C121.466432,19.0174652 121.719731,19.1391428 121.913463,19.3808078 C122.106639,19.6235996 122.203505,19.949763 122.203505,20.3598613 C122.203505,20.9378295 121.862247,21.4222864 121.180843,21.8137951 C120.554554,22.1681245 119.844758,22.4526021 119.053128,22.6666644 C118.260384,22.8812901 117.505496,22.9883212 116.786794,22.9883212 C114.612316,22.9883212 112.88988,22.3551474 111.618372,21.0871098 C110.347421,19.8190723 109.711668,18.0851675 109.711668,15.8853955 C109.711668,14.4866673 109.988349,13.2473591 110.541154,12.1657811 C111.093402,11.0847664 111.871672,10.2459801 112.875962,9.64885894 C113.880253,9.05230106 115.018152,8.75430378 116.289102,8.75430378 Z M130.27279,8.75385312 C131.047163,8.75385312 131.793143,8.85187113 132.511846,9.04790715 C133.230548,9.24337984 133.875209,9.52785739 134.445829,9.90077648 C135.035933,10.2736956 135.330428,10.7677289 135.330428,11.3828764 C135.330428,11.7563588 135.229108,12.0678758 135.026469,12.3196807 C134.823829,12.5714855 134.574984,12.6971063 134.280488,12.6971063 C134.077292,12.6971063 133.879663,12.6554205 133.68593,12.5714855 C133.492755,12.4875506 133.248363,12.3613665 132.953867,12.1934966 C132.419433,11.9140889 131.959041,11.7045332 131.571576,11.5648293 C131.185225,11.4251255 130.705904,11.3547103 130.134728,11.3547103 C129.453325,11.3547103 128.914437,11.4944141 128.518065,11.7743851 C128.121693,12.0537927 127.924064,12.4362883 127.924064,12.9207451 C127.924064,13.3871756 128.126704,13.7415051 128.531983,13.9837335 C128.937262,14.2259619 129.719985,14.4681903 130.880709,14.7109821 C132.115474,14.9718001 133.082465,15.2697974 133.782796,15.6055372 C134.483128,15.9412771 134.985273,16.3603886 135.289232,16.8639983 C135.593192,17.3676081 135.745171,18.0109217 135.745171,18.7939391 C135.745171,20.0619767 135.224655,21.077646 134.184179,21.8420738 C133.142589,22.6065016 131.755844,22.9884339 130.024501,22.9884339 C128.01592,22.9884339 126.394804,22.587912 125.160595,21.7857416 C124.570491,21.4319755 124.275996,20.9283657 124.275996,20.276039 C124.275996,19.9031199 124.376759,19.600616 124.579955,19.3668375 C124.782594,19.1341855 125.030883,19.0175779 125.326492,19.0175779 C125.639359,19.0175779 126.071916,19.1668582 126.625278,19.4648555 C127.214269,19.7442631 127.753157,19.9594521 128.241941,20.1081691 C128.729612,20.2574494 129.351448,20.3318079 130.106893,20.3318079 C130.880709,20.3318079 131.484174,20.2016805 131.917288,19.9402991 C132.350402,19.6794811 132.566402,19.3155752 132.566402,18.849708 C132.566402,18.5325578 132.479,18.2813162 132.304753,18.0942933 C132.128835,17.9083971 131.815968,17.7360206 131.364483,17.5771638 C130.912997,17.4188704 130.226584,17.2369174 129.305799,17.0318682 C127.665754,16.6966917 126.491113,16.2206847 125.782431,15.6055372 C125.072636,14.9903897 124.718017,14.142027 124.718017,13.0604489 C124.718017,12.2402523 124.956842,11.499484 125.436719,10.8375808 C125.915483,10.1756776 126.574062,9.66305465 127.413012,9.29971203 C128.250848,8.93580609 129.203922,8.75385312 130.27279,8.75385312 Z M63.5036714,2.90961388 C64.0191775,2.90961388 64.4339205,3.0493177 64.7473438,3.32872536 C65.060767,3.60869634 65.2172003,3.99062858 65.2172003,4.47564872 L65.2172003,4.47564872 L65.2172003,10.991593 C65.6775929,10.2643444 66.2905219,9.70947237 67.0548738,9.32754013 C67.8192257,8.94560789 68.6899077,8.75407845 69.6663631,8.75407845 C72.8351112,8.75407845 74.420042,10.627687 74.420042,14.3754676 L74.420042,14.3754676 L74.420042,21.2547544 C74.420042,21.7769538 74.268619,22.1870522 73.964103,22.4850494 C73.6601437,22.7830467 73.240947,22.932327 72.7065131,22.932327 C72.1720791,22.932327 71.7484288,22.7830467 71.4355623,22.4850494 C71.1215823,22.1870522 70.9657057,21.7769538 70.9657057,21.2547544 L70.9657057,21.2547544 L70.9657057,14.3754676 C70.9657057,13.387401 70.7675198,12.664659 70.3717046,12.2078049 C69.9753328,11.7515142 69.3534966,11.5228055 68.5056394,11.5228055 C67.5108128,11.5228055 66.7136154,11.8399557 66.1151607,12.4736929 C65.516706,13.10743 65.2172003,13.9557928 65.2172003,15.0182178 L65.2172003,15.0182178 L65.2172003,21.2547544 C65.2172003,21.7769538 65.060767,22.1870522 64.7473438,22.4850494 C64.4339205,22.7830467 64.0102703,22.932327 63.4758363,22.932327 C62.9414023,22.932327 62.5222057,22.7830467 62.2182464,22.4850494 C61.914287,22.1870522 61.7628641,21.7769538 61.7628641,21.2547544 L61.7628641,21.2547544 L61.7628641,4.53085427 C61.7628641,4.04696077 61.923751,3.65545205 62.2460815,3.35689145 C62.5684119,3.05889418 62.9876086,2.90961388 63.5036714,2.90961388 Z M100.398042,8.80990365 C100.876806,8.77328773 101.254807,8.87524899 101.530931,9.1174774 C101.807612,9.36026913 101.945674,9.72361175 101.945674,10.2080686 C101.945674,10.7116783 101.825426,11.0851607 101.586601,11.3268258 C101.346663,11.5690543 100.914105,11.727911 100.287815,11.8022695 L100.287815,11.8022695 L99.458886,11.8862045 C98.3710901,11.9983055 97.5744495,12.3712246 97.0684073,13.0049617 C96.5606951,13.6386989 96.3079523,14.4312928 96.3079523,15.3821801 L96.3079523,15.3821801 L96.3079523,21.2548108 C96.3079523,21.7955998 96.1414984,22.2102047 95.8108174,22.4991888 C95.479023,22.7876096 95.0642799,22.9323833 94.5665883,22.9323833 C94.0694534,22.9323833 93.659164,22.7876096 93.3368335,22.4991888 C93.0139463,22.2102047 92.8530594,21.7955998 92.8530594,21.2548108 L92.8530594,21.2548108 L92.8530594,10.4322707 C92.8530594,9.91007129 93.0139463,9.50898611 93.3368335,9.22957845 C93.659164,8.94960748 94.0599894,8.80990365 94.5393099,8.80990365 C95.0180737,8.80990365 95.4049816,8.94566422 95.7000337,9.21549541 C95.9945291,9.48588991 96.1414984,9.87289205 96.1414984,10.3759385 L96.1414984,10.3759385 L96.1414984,11.4946958 C96.491664,10.6744991 97.0127371,10.040762 97.7036044,9.59292107 C98.3944716,9.14564349 99.1632772,8.89383861 100.011691,8.83806974 L100.011691,8.83806974 Z M105.151777,2.90933222 C105.649468,2.90933222 106.063655,3.04903604 106.394893,3.32900702 C106.726687,3.60841468 106.892584,4.01851301 106.892584,4.55930202 L106.892584,4.55930202 L106.892584,21.2544728 C106.892584,21.7952618 106.726687,22.21043 106.394893,22.4988508 C106.063655,22.787835 105.649468,22.9326087 105.151777,22.9326087 C104.654085,22.9326087 104.243796,22.787835 103.921465,22.4988508 C103.599135,22.21043 103.438248,21.7952618 103.438248,21.2544728 L103.438248,21.2544728 L103.438248,4.55930202 C103.438248,4.01851301 103.599135,3.60841468 103.921465,3.32900702 C104.243796,3.04903604 104.654085,2.90933222 105.151777,2.90933222 Z M9.98667816,6.12167527 C5.56368033,6.12167527 1.96515825,9.76298795 1.96515825,14.2385803 C1.96515825,18.7141727 5.56368033,22.3554854 9.98667816,22.3554854 C14.409676,22.3554854 18.0081981,18.7141727 18.0081981,14.2385803 C18.0081981,9.76298795 14.409676,6.12167527 9.98667816,6.12167527 Z M86.0548366,16.5283148 L85.5571449,16.5283148 C84.3229365,16.5283148 83.3648522,16.584647 82.6828922,16.6961847 C82.0014889,16.8082858 81.5132612,17.0037585 81.2182091,17.2831661 C80.9237137,17.5631371 80.7767444,17.9456327 80.7767444,18.4300895 C80.7767444,19.0272107 80.9838376,19.5161741 81.3980239,19.8981063 C81.8127669,20.2806019 82.3238194,20.471568 82.9322947,20.471568 C83.8530799,20.471568 84.6046277,20.1594877 85.1847113,19.5347637 C85.7647948,18.9106031 86.0548366,18.1039261 86.0548366,17.1158595 L86.0548366,17.1158595 L86.0548366,16.5283148 Z M29.1793155,0 C33.3306427,0 36.7075974,3.41767389 36.7075974,7.61836519 C36.7075974,11.8190565 33.3306427,15.2367304 29.1793155,15.2367304 C25.0279883,15.2367304 21.6504769,11.8190565 21.6504769,7.61836519 C21.6504769,3.41767389 25.0279883,0 29.1793155,0 Z M116.372051,11.2148938 C115.432338,11.2148938 114.681347,11.5134544 114.119635,12.1100123 C113.557922,12.7065701 113.221674,13.5645094 113.11089,14.6827033 L113.11089,14.6827033 L119.357087,14.6827033 C119.319788,13.5453564 119.043108,12.6834739 118.527601,12.0959292 C118.012095,11.5083845 117.293393,11.2148938 116.372051,11.2148938 Z M29.1793155,1.17677942 C25.6687523,1.17677942 22.8134275,4.0666207 22.8134275,7.61836519 C22.8134275,11.1701097 25.6687523,14.059951 29.1793155,14.059951 C32.689322,14.059951 35.5452035,11.1701097 35.5452035,7.61836519 C35.5452035,4.0666207 32.689322,1.17677942 29.1793155,1.17677942 Z M142.758225,5.00196036 C143.185773,5.00196036 143.587711,5.06617906 143.964599,5.19405312 C144.339816,5.32192719 144.674394,5.50726009 144.966106,5.75005183 C145.050724,5.81596049 145.108621,5.88468576 145.141467,5.95679096 C145.173756,6.02889616 145.190457,6.11790102 145.190457,6.22267889 C145.190457,6.36688929 145.150931,6.48856682 145.073549,6.58714815 C144.995054,6.68516616 144.900972,6.73473848 144.791301,6.73473848 C144.661033,6.73473848 144.528538,6.68854609 144.392146,6.59672462 C144.113238,6.38660556 143.853815,6.24070519 143.614433,6.15846019 C143.373938,6.07677852 143.107834,6.03565602 142.816122,6.03565602 C142.141399,6.03565602 141.630904,6.2485917 141.284078,6.67558969 C140.936696,7.10258768 140.763005,7.72900161 140.763005,8.55595814 C140.763005,9.38911121 140.936696,10.0189051 141.284078,10.4459031 C141.630904,10.8723377 142.141399,11.0858367 142.816122,11.0858367 C143.09503,11.0858367 143.352783,11.0430243 143.589938,10.9573993 C143.82598,10.8723377 144.093754,10.7281273 144.392146,10.5242048 C144.456723,10.4847723 144.521857,10.4520996 144.586992,10.4261868 C144.651569,10.3997107 144.719487,10.3867543 144.791301,10.3867543 C144.900972,10.3867543 144.995054,10.4363266 145.073549,10.5343446 C145.150931,10.6329259 145.190457,10.7540401 145.190457,10.8982505 C145.190457,10.9968319 145.173756,11.0841468 145.141467,11.1596319 C145.108621,11.2345537 145.050724,11.3055323 144.966106,11.3708776 C144.674394,11.6136693 144.339816,11.7990022 143.964599,11.9274396 C143.587711,12.0553137 143.185773,12.1189691 142.758225,12.1189691 C142.096307,12.1189691 141.517336,11.9747587 141.021315,11.6857745 C140.525293,11.3973537 140.143953,10.9838755 139.878406,10.4459031 C139.612302,9.90793067 139.47925,9.27757348 139.47925,8.55595814 C139.47925,7.83377948 139.612302,7.20567558 139.878406,6.67051979 C140.143953,6.13592732 140.525293,5.72413902 141.021315,5.43515489 C141.517336,5.14617076 142.096307,5.00196036 142.758225,5.00196036 Z M146.853326,10.612928 C147.060976,10.612928 147.232996,10.6833432 147.368832,10.824737 C147.505224,10.9655675 147.573141,11.1413239 147.573141,11.351443 C147.573141,11.5615621 147.505224,11.7367552 147.368832,11.878149 C147.232996,12.0195428 147.060976,12.0893947 146.853326,12.0893947 C146.645676,12.0893947 146.473655,12.0195428 146.337263,11.878149 C146.201428,11.7367552 146.13351,11.5615621 146.13351,11.351443 C146.13351,11.1413239 146.201428,10.9655675 146.337263,10.824737 C146.473655,10.6833432 146.645676,10.612928 146.853326,10.612928 Z M156.280184,10.612928 C156.487277,10.612928 156.659298,10.6839066 156.79569,10.824737 C156.932082,10.9655675 157,11.1413239 157,11.351443 C157,11.5615621 156.932082,11.7367552 156.79569,11.878149 C156.659298,12.0195428 156.487277,12.0893947 156.280184,12.0893947 C156.072534,12.0893947 155.90107,12.0195428 155.764121,11.878149 C155.628286,11.7367552 155.560368,11.5615621 155.560368,11.351443 C155.560368,11.1413239 155.628286,10.9655675 155.764121,10.824737 C155.90107,10.6839066 156.072534,10.612928 156.280184,10.612928 Z M151.328319,5.09045823 C152.450074,5.09045823 153.321313,5.39408873 153.940366,6.0007864 C154.559418,6.60804739 154.869501,7.45979008 154.869501,8.55601448 C154.869501,9.65843541 154.559418,10.5129947 153.940366,11.1196924 C153.321313,11.7269534 152.450074,12.0305839 151.328319,12.0305839 L151.328319,12.0305839 L149.40213,12.0305839 C149.213965,12.0305839 149.066439,11.9781949 148.959552,11.8734171 C148.852109,11.7680759 148.799222,11.6204855 148.799222,11.4300827 L148.799222,11.4300827 L148.799222,5.69095936 C148.799222,5.50055656 148.852109,5.35296623 148.959552,5.24762503 C149.066439,5.14284716 149.213965,5.09045823 149.40213,5.09045823 L149.40213,5.09045823 Z M151.250381,6.12415389 L150.054028,6.12415389 L150.054028,10.9968882 L151.250381,10.9968882 C152.826405,10.9968882 153.614695,10.1834514 153.614695,8.55601448 C153.614695,6.93477409 152.826405,6.12415389 151.250381,6.12415389 L151.250381,6.12415389 Z" id="Combined-Shape"></path>
                </g>
            </g>
        </g>
    </g>
</svg>