<svg width="33px" height="22px" viewBox="0 0 33 22" version="1.1" xmlns="http://www.w3.org/2000/svg" xmlns:xlink="http://www.w3.org/1999/xlink">
    <path d="M25.2042801,15.3721794 C27.0495247,15.3721794 28.5504438,16.8588535 28.5504438,18.6860895 C28.5504438,20.5133255 27.0495247,21.9999996 25.2042801,21.9999996 C23.359536,21.9999996 21.858617,20.5133255 21.858617,18.6860895 C21.858617,16.8588535 23.359536,15.3721794 25.2042801,15.3721794 Z M8.97798791,3.63667526 C13.9286683,3.63667526 17.9559758,7.62625602 17.9559758,12.5299505 C17.9559758,17.4336449 13.9286683,21.4227299 8.97798791,21.4227299 C4.026807,21.4227299 -2.11386464e-13,17.4336449 -2.11386464e-13,12.5299505 C-2.11386464e-13,7.62625602 4.026807,3.63667526 8.97798791,3.63667526 Z M25.2042802,16.4082411 C23.9360812,16.4082411 22.9041055,17.4299267 22.9041055,18.6860895 C22.9041055,19.9422523 23.9360812,20.9644337 25.2042802,20.9644337 C26.4724792,20.9644337 27.5044549,19.9422523 27.5044549,18.6860895 C27.5044549,17.4299267 26.4724792,16.4082411 25.2042802,16.4082411 Z M8.97798801,5.38707412 C5.0017288,5.38707412 1.76667033,8.59142933 1.76667033,12.5299507 C1.76667033,16.4684721 5.0017288,19.6728273 8.97798801,19.6728273 C12.9542472,19.6728273 16.1893057,16.4684721 16.1893057,12.5299507 C16.1893057,8.59142933 12.9542472,5.38707412 8.97798801,5.38707412 Z M26.2321014,0 C29.9641298,0 33,3.00755306 33,6.70416145 C33,10.4007698 29.9641298,13.4083229 26.2321014,13.4083229 C22.500073,13.4083229 19.4637023,10.4007698 19.4637023,6.70416145 C19.4637023,3.00755306 22.500073,0 26.2321014,0 Z M26.2321015,1.03556586 C23.0761177,1.03556586 20.5091908,3.5786261 20.5091908,6.70416114 C20.5091908,9.82969618 23.0761177,12.3727564 26.2321015,12.3727564 C29.3875849,12.3727564 31.9550123,9.82969618 31.9550123,6.70416114 C31.9550123,3.5786261 29.3875849,1.03556586 26.2321015,1.03556586 Z" id="Combined-Shape" fill="#F4F4FA"></path>
</svg>