<svg xmlns="http://www.w3.org/2000/svg" xmlns:xlink="http://www.w3.org/1999/xlink" width="15" height="15" viewBox="0 0 12 12">
    <defs>
        <path id="a" d="M12 6A6 6 0 1 1 0 6a6 6 0 0 1 12 0z"/>
    </defs>
    <g fill="none" fill-rule="evenodd">
        <path stroke="#3945D8" stroke-width=".571" d="M11.714 6A5.714 5.714 0 1 0 .286 6a5.714 5.714 0 0 0 11.428 0z"/>
        <g>
            <mask id="b" fill="#fff">
                <use xlink:href="#a"/>
            </mask>
            <g stroke="#3945D8" stroke-linecap="round" stroke-linejoin="round" mask="url(#b)">
                <path stroke-width=".519" d="M11.28 6.44c0-2.868-2.352-5.192-5.255-5.192C3.124 1.248.771 3.572.771 6.44c0 2.867 2.353 5.191 5.254 5.191 2.903 0 5.255-2.324 5.255-5.191z" opacity=".111"/>
                <path stroke-width=".56" d="M11.465 5.868c0-3.231-2.435-5.851-5.44-5.851-3.004 0-5.44 2.62-5.44 5.851 0 3.232 2.436 5.852 5.44 5.852 3.005 0 5.44-2.62 5.44-5.852z" opacity=".424"/>
                <path stroke-width=".539" d="M11.781 5.868c0-2.828-2.577-5.122-5.756-5.122C2.846.746.27 3.04.27 5.868c0 2.829 2.577 5.123 5.756 5.123 3.18 0 5.756-2.294 5.756-5.123z" opacity=".168"/>
                <path stroke-width=".565" d="M8.792 9.031c1.654-1.76 1.621-4.47-.072-6.052-1.693-1.581-4.407-1.436-6.06.325-1.654 1.76-1.622 4.47.071 6.052 1.694 1.581 4.407 1.436 6.06-.325z" opacity=".127"/>
                <path stroke-width=".525" d="M12.357 6.762c0-2.21-2.558-4-5.714-4-3.156 0-5.714 1.79-5.714 4 0 2.209 2.558 4 5.714 4 3.156 0 5.714-1.791 5.714-4z" opacity=".027"/>
            </g>
            <g stroke="#3945D8" stroke-linecap="round" stroke-linejoin="round" mask="url(#b)" opacity=".325">
                <path stroke-width=".519" d="M11.429 6c0-2.367-2.303-4.286-5.144-4.286-2.84 0-5.142 1.919-5.142 4.286 0 2.367 2.302 4.286 5.142 4.286 2.841 0 5.144-1.919 5.144-4.286z" opacity=".311"/>
                <path stroke-width=".56" d="M11.429 6c0-2.682-2.303-4.857-5.143-4.857S1.143 3.318 1.143 6c0 2.682 2.302 4.857 5.143 4.857 2.84 0 5.143-2.175 5.143-4.857z" opacity=".424"/>
                <path stroke-width=".539" d="M10.857 6c0-2.367-2.43-4.286-5.428-4.286C2.43 1.714 0 3.634 0 6c0 2.367 2.43 4.286 5.429 4.286 2.998 0 5.428-1.92 5.428-4.286z" opacity=".168"/>
                <path stroke-width=".565" d="M9.312 9.246c2.095-1.996 2.054-5.066-.09-6.86C7.076.595 3.64.76 1.544 2.755-.55 4.75-.509 7.82 1.635 9.614c2.146 1.792 5.582 1.627 7.677-.368z" opacity=".424"/>
                <path stroke-width=".525" d="M9.143 6c0-2.367-1.79-4.286-4-4.286s-4 1.919-4 4.286c0 2.367 1.79 4.286 4 4.286s4-1.919 4-4.286z" opacity=".217"/>
            </g>
        </g>
    </g>
</svg>
