<?xml version="1.0" encoding="UTF-8"?>
<svg width="23px" height="23px" viewBox="0 0 23 23" version="1.1" xmlns="http://www.w3.org/2000/svg" xmlns:xlink="http://www.w3.org/1999/xlink">
    <!-- Generator: sketchtool 55.2 (78181) - https://sketchapp.com -->
    <title>B1167C53-CCF5-488C-826D-AF2309763655</title>
    <desc>Created with sketchtool.</desc>
    <defs>
        <path d="M21,10.5 C21,16.299 16.299,21 10.5,21 C4.701,21 2.27373675e-13,16.299 2.27373675e-13,10.5 C2.27373675e-13,4.701 4.701,0 10.5,0 C16.299,0 21,4.701 21,10.5 Z" id="path-1"></path>
    </defs>
    <g id="Symbols" stroke="none" stroke-width="1" fill="none" fill-rule="evenodd">
        <g id="menu" transform="translate(-19.000000, -231.000000)">
            <g id="Group-2">
                <g id="menu">
                    <g id="icon/circles/white" transform="translate(20.000000, 232.000000)">
                        <g id="Group-22">
                            <path d="M21,10.5 C21,16.299 16.299,21 10.5,21 C4.701,21 2.27373675e-13,16.299 2.27373675e-13,10.5 C2.27373675e-13,4.701 4.701,0 10.5,0 C16.299,0 21,4.701 21,10.5 Z" id="Stroke-1" stroke="#FFFFFF" stroke-width="1.043" stroke-linecap="round" stroke-linejoin="round"></path>
                            <g id="Group-11-+-Group-11-Copy-Mask">
                                <mask id="mask-2" fill="white">
                                    <use xlink:href="#path-1"></use>
                                </mask>
                                <g id="Mask"></g>
                                <g id="Group-11" mask="url(#mask-2)" stroke="#FFFFFF" stroke-linecap="round" stroke-linejoin="round">
                                    <g transform="translate(11.000000, 10.500000) scale(1, -1) translate(-11.000000, -10.500000) translate(0.000000, 0.000000)">
                                        <path d="M19.7402,9.7302 C19.7402,14.7482 15.6232,18.8152 10.5442,18.8152 C5.4662,18.8152 1.3492,14.7482 1.3492,9.7302 C1.3492,4.7122 5.4662,0.6452 10.5442,0.6452 C15.6232,0.6452 19.7402,4.7122 19.7402,9.7302 Z" id="Stroke-1" stroke-width="0.908" opacity="0.111351376"></path>
                                        <path d="M20.0644,10.7302 C20.0644,16.3852 15.8024,20.9702 10.5444,20.9702 C5.2864,20.9702 1.0244,16.3852 1.0244,10.7302 C1.0244,5.0752 5.2864,0.4902 10.5444,0.4902 C15.8024,0.4902 20.0644,5.0752 20.0644,10.7302 Z" id="Stroke-3" stroke-width="0.98" opacity="0.424432664"></path>
                                        <path d="M20.6172,10.7302 C20.6172,15.6802 16.1072,19.6942 10.5442,19.6942 C4.9812,19.6942 0.4712,15.6802 0.4712,10.7302 C0.4712,5.7802 4.9812,1.7662 10.5442,1.7662 C16.1072,1.7662 20.6172,5.7802 20.6172,10.7302 Z" id="Stroke-5" stroke-width="0.943" opacity="0.168038504"></path>
                                        <path d="M16.9652732,5.69267902 C20.4293244,9.39037333 20.3616672,15.0798971 16.8155251,18.4023192 C13.269383,21.7238392 7.58707601,21.4189306 4.12392683,17.7212362 C0.659875554,14.0235419 0.727532806,8.33401811 4.27367488,5.01159602 C7.81981696,1.69007602 13.502124,1.9949847 16.9652732,5.69267902 Z" id="Stroke-7" stroke-width="0.989" opacity="0"></path>
                                        <path d="M15.3851671,5.19505878 C18.2798356,8.27647072 18.2232991,13.0177406 15.260033,15.7864256 C12.2967668,18.554359 7.54845507,18.3002684 4.65454035,15.2188565 C1.75987181,12.1374445 1.81640831,7.3961747 4.77967446,4.62748962 C7.74294061,1.85955628 12.4912524,2.11364685 15.3851671,5.19505878 Z" id="Stroke-7-Copy" stroke-width="0.989" opacity="0.127487909"></path>
                                        <path d="M21.625,11.6672 C21.625,14.1525237 19.6106293,16.1672 17.125,16.1672 C14.6398662,16.1672 12.625,14.1525237 12.625,11.6672 C12.625,9.18187627 14.6398662,7.1672 17.125,7.1672 C19.6106293,7.1672 21.625,9.18187627 21.625,11.6672 Z" id="Stroke-9" stroke-width="0.919" opacity="0.0265066964"></path>
                                    </g>
                                </g>
                                <g id="Group-11-Copy" opacity="0.324869792" mask="url(#mask-2)" stroke="#FFFFFF" stroke-linecap="round" stroke-linejoin="round">
                                    <g transform="translate(10.000000, 10.500000) scale(1, -1) translate(-10.000000, -10.500000) translate(0.000000, 2.000000)">
                                        <path d="M20,8.5 C20,12.6425427 15.9705291,16 10.9995106,16 C6.02947094,16 2,12.6425427 2,8.5 C2,4.35745735 6.02947094,1 10.9995106,1 C15.9705291,1 20,4.35745735 20,8.5 Z" id="Stroke-1" stroke-width="0.908" opacity="0.310849144"></path>
                                        <path d="M20,8.5 C20,13.1940918 15.9707983,17 11,17 C6.02920168,17 2,13.1940918 2,8.5 C2,3.8059082 6.02920168,0 11,0 C15.9707983,0 20,3.8059082 20,8.5 Z" id="Stroke-3" stroke-width="0.98" opacity="0.424432664"></path>
                                        <path d="M19,8.5 C19,12.6415663 14.7465502,16 9.5,16 C4.25344982,16 0,12.6415663 0,8.5 C0,4.35843373 4.25344982,1 9.5,1 C14.7465502,1 19,4.35843373 19,8.5 Z" id="Stroke-5" stroke-width="0.943" opacity="0.168038504"></path>
                                        <path d="M16.2960636,2.81984798 C19.9626437,6.31211484 19.8910309,11.685554 16.1375604,14.8233971 C12.3840899,17.9603882 6.36956171,17.6724189 2.7039364,14.180152 C-0.96264375,10.6878852 -0.891030856,5.31444602 2.86243961,2.17660292 C6.61591007,-0.960388187 12.6304383,-0.672418878 16.2960636,2.81984798 Z" id="Stroke-7" stroke-width="0.989" opacity="0.424432664"></path>
                                        <path d="M16,8.5 C16,12.6422062 12.8665345,16 9,16 C5.13423632,16 2,12.6422062 2,8.5 C2,4.35779379 5.13423632,1 9,1 C12.8665345,1 16,4.35779379 16,8.5 Z" id="Stroke-9" stroke-width="0.919" opacity="0.217447917"></path>
                                    </g>
                                </g>
                            </g>
                        </g>
                    </g>
                </g>
            </g>
        </g>
    </g>
</svg>