<svg xmlns="http://www.w3.org/2000/svg" xmlns:xlink="http://www.w3.org/1999/xlink" width="10" height="10" viewBox="0 0 10 10">
    <defs>
        <path id="a" d="M8.571 4.286a4.286 4.286 0 1 1-8.571 0 4.286 4.286 0 0 1 8.571 0z"/>
    </defs>
    <g fill="none" fill-rule="evenodd">
        <path stroke="#3945D8" stroke-width=".5" d="M9.321 5.286a4.036 4.036 0 1 0-8.071 0 4.036 4.036 0 0 0 8.071 0z"/>
        <g transform="translate(1 1)">
            <mask id="b" fill="#fff">
                <use xlink:href="#a"/>
            </mask>
            <g stroke="#3945D8" stroke-linecap="round" stroke-linejoin="round" stroke-width=".5" mask="url(#b)">
                <path d="M8.057 4.6c0-2.048-1.68-3.708-3.753-3.708C2.23.892.55 2.552.55 4.6s1.68 3.708 3.753 3.708c2.073 0 3.753-1.66 3.753-3.708z" opacity=".111"/>
                <path d="M8.19 4.192c0-2.308-1.74-4.18-3.886-4.18S.418 1.884.418 4.192s1.74 4.18 3.886 4.18S8.19 6.5 8.19 4.191z" opacity=".424"/>
                <path d="M8.415 4.192c0-2.02-1.84-3.659-4.111-3.659C2.034.533.192 2.171.192 4.192c0 2.02 1.841 3.659 4.112 3.659 2.27 0 4.111-1.639 4.111-3.66z" opacity=".168"/>
                <path d="M6.28 6.451c1.181-1.258 1.158-3.193-.051-4.323-1.21-1.13-3.148-1.026-4.33.232C.72 3.617.742 5.553 1.952 6.683c1.21 1.13 3.147 1.026 4.329-.232z" opacity=".127"/>
                <path d="M8.827 4.83c0-1.578-1.828-2.857-4.082-2.857C2.49 1.973.663 3.252.663 4.83c0 1.578 1.828 2.857 4.082 2.857 2.254 0 4.082-1.28 4.082-2.857z" opacity=".027"/>
            </g>
            <g stroke="#3945D8" stroke-linecap="round" stroke-linejoin="round" stroke-width=".5" mask="url(#b)" opacity=".325">
                <path d="M8.163 4.286c0-1.691-1.644-3.062-3.673-3.062S.816 2.594.816 4.286c0 1.69 1.645 3.06 3.674 3.06s3.673-1.37 3.673-3.06z" opacity=".311"/>
                <path d="M8.163 4.286C8.163 2.37 6.52.816 4.49.816 2.46.816.816 2.37.816 4.286c0 1.916 1.645 3.47 3.674 3.47s3.673-1.554 3.673-3.47z" opacity=".424"/>
                <path d="M7.755 4.286c0-1.69-1.736-3.062-3.877-3.062C1.736 1.224 0 2.595 0 4.286c0 1.69 1.736 3.06 3.878 3.06 2.141 0 3.877-1.37 3.877-3.06z" opacity=".168"/>
                <path d="M6.651 6.604c1.497-1.425 1.468-3.619-.064-4.9C5.055.425 2.6.543 1.104 1.968c-1.497 1.426-1.468 3.619.064 4.9C2.7 8.147 5.155 8.03 6.651 6.604z" opacity=".424"/>
                <path d="M6.53 4.286c0-1.691-1.278-3.062-2.857-3.062-1.577 0-2.857 1.371-2.857 3.062 0 1.69 1.28 3.06 2.857 3.06 1.579 0 2.858-1.37 2.858-3.06z" opacity=".217"/>
            </g>
        </g>
    </g>
</svg>
