<?xml version="1.0" encoding="UTF-8"?>
<svg width="263px" height="279px" viewBox="0 0 263 279" version="1.1" xmlns="http://www.w3.org/2000/svg" xmlns:xlink="http://www.w3.org/1999/xlink">
    <!-- Generator: sketchtool 63.1 (101010) - https://sketch.com -->
    <title>74363D93-7B56-466F-9E13-06C39501FC2E</title>
    <desc>Created with sketchtool.</desc>
    <g id="Circles" stroke="none" stroke-width="1" fill="none" fill-rule="evenodd">
        <g id="Circles---0.0---Expand" transform="translate(-1053.000000, -114.000000)">
            <g id="illustration/circles" transform="translate(1053.000000, 117.000000)">
                <g>
                    <g id="cards" transform="translate(0.000000, 110.000000)" opacity="0.133486793">
                        <g id="card-built" transform="translate(166.000000, 32.000000)" fill-rule="nonzero">
                            <path d="M2.1,0.7 L79.9,0.6 C80.9,0.6 81.7,1.3 81.7,2.2 L81.7,26.7 C81.7,27.6 80.9,28.3 79.9,28.3 L2.1,28.4 C1.1,28.4 0.3,27.7 0.3,26.8 L0.3,2.3 C0.3,1.4 1.1,0.7 2.1,0.7 Z" id="bg-card-built" fill="#3F47D3"></path>
                            <path d="M18.7,17.3 C20.7,17.3 22.3,18.9 22.3,20.9 C22.3,22.9 20.7,24.5 18.7,24.5 C16.7,24.5 15.1,22.9 15.1,20.9 C15.1,18.9 16.7,17.3 18.7,17.3 Z M27.9,17.3 C29.9,17.3 31.5,18.9 31.5,20.9 C31.5,22.9 29.9,24.5 27.9,24.5 C25.9,24.5 24.3,22.9 24.3,20.9 C24.3,18.9 25.9,17.3 27.9,17.3 Z M8.6,17 C10.6,17 12.2,18.6 12.2,20.6 C12.2,22.6 10.6,24.2 8.6,24.2 C6.6,24.2 5,22.6 5,20.6 C5,18.6 6.6,17 8.6,17 Z M32.2,11 C33.0526316,11 33.8155125,11.6282548 33.8934539,12.5446567 L33.9,12.7 C33.9,13.6 33.2,14.4 32.2,14.4 L6.7,14.4 C5.84736842,14.4 5.08448753,13.7717452 5.00654614,12.8553433 L5,12.7 C5,11.8 5.7,11 6.7,11 L32.2,11 Z M7,4 C8.1045695,4 9,4.8954305 9,6 C9,7.1045695 8.1045695,8 7,8 C5.8954305,8 5,7.1045695 5,6 C5,4.8954305 5.8954305,4 7,4 Z M77.5,2.9 C78.35,2.9 79.0216049,3.52438272 79.0936043,4.35193759 L79.1,4.5 C79.2,5.4 78.4,6.1 77.5,6.1 L61.6,6.1 C60.75,6.1 60.0783951,5.47561728 60.0063957,4.64806241 L60,4.5 C60,3.6 60.7,2.9 61.6,2.9 L77.5,2.9 Z" id="elements-card-built" fill="#26329E"></path>
                        </g>
                        <g id="card-feature" transform="translate(26.000000, 36.000000)">
                            <path d="M2.1,0.7 L79.9,0.6 C80.9,0.6 81.7,1.3 81.7,2.2 L81.7,26.7 C81.7,27.6 80.9,28.3 79.9,28.3 L2.1,28.4 C1.1,28.4 0.3,27.7 0.3,26.8 L0.3,2.3 C0.3,1.4 1.1,0.7 2.1,0.7 Z" id="bg-card-feature" fill="#0A84FF"></path>
                            <path d="M9.6,17.3 C11.6,17.3 13.2,18.9 13.2,20.9 C13.2,22.9 11.6,24.5 9.6,24.5 C7.6,24.5 6,22.9 6,20.9 C6,18.9 7.6,17.3 9.6,17.3 Z M18.7,17.3 C20.7,17.3 22.3,18.9 22.3,20.9 C22.3,22.9 20.7,24.5 18.7,24.5 C16.7,24.5 15.1,22.9 15.1,20.9 C15.1,18.9 16.7,17.3 18.7,17.3 Z M27.9,17.3 C29.9,17.3 31.5,18.9 31.5,20.9 C31.5,22.9 29.9,24.5 27.9,24.5 C25.9,24.5 24.3,22.9 24.3,20.9 C24.3,18.9 25.9,17.3 27.9,17.3 Z M32.6,10.7 C33.4526316,10.7 34.2155125,11.3282548 34.2934539,12.2446567 L34.3,12.4 C34.3,13.3 33.6,14.1 32.6,14.1 L7.1,14.1 C6.24736842,14.1 5.48448753,13.4717452 5.40654614,12.5553433 L5.4,12.4 C5.4,11.5 6.1,10.7 7.1,10.7 L32.6,10.7 Z M8,3.5 C9.1045695,3.5 10,4.3954305 10,5.5 C10,6.6045695 9.1045695,7.5 8,7.5 C6.8954305,7.5 6,6.6045695 6,5.5 C6,4.3954305 6.8954305,3.5 8,3.5 Z M77.5,2.9 C78.35,2.9 79.0216049,3.52438272 79.0936043,4.35193759 L79.1,4.5 C79.2,5.4 78.4,6.1 77.5,6.1 L61.6,6.1 C60.75,6.1 60.0783951,5.47561728 60.0063957,4.64806241 L60,4.5 C60,3.6 60.7,2.9 61.6,2.9 L77.5,2.9 Z" id="elements-card-feature" fill="#48A2FC"></path>
                        </g>
                        <g id="card-action" fill-rule="nonzero">
                            <path d="M2.1,0.7 L79.9,0.6 C80.9,0.6 81.7,1.3 81.7,2.2 L81.7,26.7 C81.7,27.6 80.9,28.3 79.9,28.3 L2.1,28.4 C1.1,28.4 0.3,27.7 0.3,26.8 L0.3,2.3 C0.3,1.4 1.1,0.7 2.1,0.7 Z" id="bg-card-action" fill="#FFFFFF"></path>
                            <path d="M9.6,17.3 C11.6,17.3 13.2,18.9 13.2,20.9 C13.2,22.9 11.6,24.5 9.6,24.5 C7.6,24.5 6,22.9 6,20.9 C6,18.9 7.6,17.3 9.6,17.3 Z M18.7,17.3 C20.7,17.3 22.3,18.9 22.3,20.9 C22.3,22.9 20.7,24.5 18.7,24.5 C16.7,24.5 15.1,22.9 15.1,20.9 C15.1,18.9 16.7,17.3 18.7,17.3 Z M27.9,17.3 C29.9,17.3 31.5,18.9 31.5,20.9 C31.5,22.9 29.9,24.5 27.9,24.5 C25.9,24.5 24.3,22.9 24.3,20.9 C24.3,18.9 25.9,17.3 27.9,17.3 Z M32.6,10.7 C33.4526316,10.7 34.2155125,11.3282548 34.2934539,12.2446567 L34.3,12.4 C34.3,13.3 33.6,14.1 32.6,14.1 L7.1,14.1 C6.24736842,14.1 5.48448753,13.4717452 5.40654614,12.5553433 L5.4,12.4 C5.4,11.5 6.1,10.7 7.1,10.7 L32.6,10.7 Z M8,3.5 C9.1045695,3.5 10,4.3954305 10,5.5 C10,6.6045695 9.1045695,7.5 8,7.5 C6.8954305,7.5 6,6.6045695 6,5.5 C6,4.3954305 6.8954305,3.5 8,3.5 Z M77.5,2.9 C78.35,2.9 79.0216049,3.52438272 79.0936043,4.35193759 L79.1,4.5 C79.2,5.4 78.4,6.1 77.5,6.1 L61.6,6.1 C60.75,6.1 60.0783951,5.47561728 60.0063957,4.64806241 L60,4.5 C60,3.6 60.7,2.9 61.6,2.9 L77.5,2.9 Z" id="elements-card-action" fill="#CFCFCF"></path>
                        </g>
                        <g id="card-release" transform="translate(181.000000, 7.000000)" fill-rule="nonzero">
                            <path d="M2.3,0.6 L80.1,0.5 C81.1,0.5 81.9,1.3 81.9,2.3 L81.9,16.5 C81.9,17.5 81.1,18.3 80.1,18.3 L2.3,18.4 C1.3,18.4 0.5,17.6 0.5,16.6 L0.5,2.4 C0.5,1.5 1.3,0.6 2.3,0.6 Z" id="bg-release" fill="#0AC5AB"></path>
                            <path d="M32.8,10.6 C33.6526316,10.6 34.4155125,11.2282548 34.4934539,12.1446567 L34.5,12.3 C34.5,13.3 33.7,14 32.8,14 L7.3,14 C6.44736842,14 5.68448753,13.3717452 5.60654614,12.4553433 L5.6,12.3 C5.6,11.4 6.3,10.6 7.3,10.6 L32.8,10.6 Z M8,3.4 C9.2,3.4 10.1,4.3 10.1,5.5 C10.2,6.6 9.2,7.6 8,7.6 C6.8,7.6 5.9,6.7 5.9,5.5 C5.9,4.3 6.8,3.4 8,3.4 Z M77.7,2.9 C78.55,2.9 79.2216049,3.52438272 79.2936043,4.35193759 L79.3,4.5 C79.3,5.3 78.6,6.1 77.7,6.1 L61.8,6.1 C60.95,6.1 60.2783951,5.47561728 60.2063957,4.64806241 L60.2,4.5 C60.2,3.6 60.9,2.9 61.8,2.9 L77.7,2.9 Z" id="elements-card-card-release" fill="#0BA88E"></path>
                        </g>
                    </g>
                    <g id="circle-2" transform="translate(79.725787, 0.000000)" stroke="#0062FF" stroke-linecap="round" stroke-linejoin="round">
                        <path d="M86.4686638,50.7817587 C86.4686638,73.2324914 68.0468373,91.4320334 45.3182489,91.4320334 C22.5896606,91.4320334 4.16783405,73.2324914 4.16783405,50.7817587 C4.16783405,28.3310259 22.5896606,10.1314839 45.3182489,10.1314839 C68.0468373,10.1314839 86.4686638,28.3310259 86.4686638,50.7817587 Z" id="Path" stroke-width="4.8842008" opacity="0.1114" transform="translate(45.318249, 50.781759) scale(-1, 1) rotate(-180.000000) translate(-45.318249, -50.781759) "></path>
                        <path d="M87.9412985,46.3082834 C87.9412985,71.6209289 68.8804041,92.1266724 45.3460345,92.1266724 C21.8116649,92.1266724 2.72298491,71.6209289 2.72298491,46.3082834 C2.72298491,20.995638 21.7838793,0.489894439 45.3182489,0.489894439 C68.8526185,0.489894439 87.9412985,20.995638 87.9412985,46.3082834 Z" id="Stroke-3_15_" stroke-width="5.27150073" opacity="0.4244" transform="translate(45.332142, 46.308283) scale(-1, 1) rotate(-180.000000) translate(-45.332142, -46.308283) "></path>
                        <path d="M90.4142133,46.3082834 C90.4142133,68.453375 70.2418965,86.4306326 45.3460345,86.4306326 C20.4501724,86.4306326 0.250070043,68.453375 0.250070043,46.3082834 C0.250070043,24.1631918 20.4223869,6.18593431 45.3182489,6.18593431 C70.214111,6.18593431 90.4142133,24.1631918 90.4142133,46.3082834 Z" id="Stroke-5_15_" stroke-width="5.07247345" opacity="0.168" transform="translate(45.332142, 46.308283) scale(-1, 1) rotate(-180.000000) translate(-45.332142, -46.308283) "></path>
                        <path d="M74.0763039,15.0217425 C89.5806465,31.5819365 89.2750054,57.0335097 73.4094504,71.8987845 C57.5161099,86.7640593 32.0923222,85.4025668 16.5879795,68.8423729 C1.08363685,52.2821789 1.38927802,26.8306056 17.254833,11.9653309 C33.1481735,-2.89994392 58.5719612,-1.53845147 74.0763039,15.0217425 Z" id="Stroke-7_27_" stroke-width="5.31989652" opacity="0.244768415" transform="translate(45.332142, 41.932058) scale(-1, 1) rotate(-180.000000) translate(-45.332142, -41.932058) "></path>
                        <path d="M66.990986,26.2122751 C79.9390571,39.993913 79.6889871,61.2220811 66.4352748,73.614441 C53.1815625,86.0068009 31.9256088,84.867593 18.9775377,71.085955 C6.02946659,57.3043171 6.27953664,36.076149 19.5332489,23.6837891 C32.7869612,11.2636436 54.0429149,12.4028516 66.990986,26.2122751 Z" id="Stroke-7-Copy_15_" stroke-width="5.31989652" opacity="0.1275" transform="translate(42.984262, 48.638746) scale(-1, 1) rotate(-180.000000) translate(-42.984262, -48.638746) "></path>
                        <path d="M94.9154741,53.3102446 C94.9154741,70.6206487 74.8820851,84.6245711 50.1529364,84.6245711 C25.4515733,84.6245711 5.39039871,70.5928632 5.39039871,53.3102446 C5.39039871,36.0276261 25.4237877,21.9959181 50.1529364,21.9959181 C74.8820851,21.9959181 94.9154741,36.0276261 94.9154741,53.3102446 Z" id="Stroke-9_15_" stroke-width="4.94338461" opacity="0.0265067" transform="translate(50.152936, 53.310245) scale(-1, 1) rotate(-180.000000) translate(-50.152936, -53.310245) "></path>
                    </g>
                    <g id="circle-1" opacity="0.3249" transform="translate(77.780797, 8.891379)" stroke="#0062FF" stroke-linecap="round" stroke-linejoin="round">
                        <path d="M89.5806465,38.4366839 C89.5806465,56.9696527 71.5478179,72.0016408 49.291584,72.0016408 C27.0631358,72.0016408 9.03030711,56.9696527 9.03030711,38.4366839 C9.03030711,19.9037152 27.0631358,4.87172704 49.291584,4.87172704 C71.5478179,4.87172704 89.5806465,19.9037152 89.5806465,38.4366839 Z" id="Path" stroke-width="4.8842008" opacity="0.3108" transform="translate(49.305477, 38.436684) scale(-1, 1) rotate(-180.000000) translate(-49.305477, -38.436684) "></path>
                        <path d="M89.5806465,38.4366839 C89.5806465,59.4425675 71.5478179,76.475116 49.3193696,76.475116 C27.0909213,76.475116 9.05809267,59.4425675 9.05809267,38.4366839 C9.05809267,17.4308003 27.0909213,0.398251826 49.3193696,0.398251826 C71.5478179,0.398251826 89.5806465,17.4308003 89.5806465,38.4366839 Z" id="Path" stroke-width="5.27150073" opacity="0.4244" transform="translate(49.319370, 38.436684) scale(-1, 1) rotate(-180.000000) translate(-49.319370, -38.436684) "></path>
                        <path d="M85.1071713,38.4366839 C85.1071713,56.9696527 66.0740625,72.0016408 42.595264,72.0016408 C19.1164655,72.0016408 0.083356681,56.9696527 0.083356681,38.4366839 C0.083356681,19.9037152 19.1164655,4.87172704 42.595264,4.87172704 C66.0740625,4.87172704 85.1071713,19.9037152 85.1071713,38.4366839 Z" id="Path" stroke-width="5.07247345" opacity="0.168" transform="translate(42.595264, 38.436684) scale(-1, 1) rotate(-180.000000) translate(-42.595264, -38.436684) "></path>
                        <path d="M73.0204526,13.0378876 C89.4417187,28.6533725 89.108292,52.7156678 72.298028,66.7473757 C55.5155496,80.7790837 28.5913416,79.5009479 12.197861,63.885463 C-4.22340517,48.2421925 -3.88997845,24.2076828 12.8925,10.1481893 C29.702764,-3.88351866 56.5991864,-2.60538288 73.0204526,13.0378876 Z" id="Path" stroke-width="5.31989652" opacity="0.4244" transform="translate(42.607501, 38.449180) scale(-1, 1) rotate(-180.000000) translate(-42.607501, -38.449180) "></path>
                        <path d="M71.6867457,38.4366839 C71.6867457,56.9696527 57.6550377,72.0016408 40.3724192,72.0016408 C23.0620151,72.0016408 9.05809267,56.9696527 9.05809267,38.4366839 C9.05809267,19.9037152 23.0620151,4.87172704 40.3724192,4.87172704 C57.6550377,4.87172704 71.6867457,19.9037152 71.6867457,38.4366839 Z" id="Path" stroke-width="4.94338461" opacity="0.2174" transform="translate(40.372419, 38.436684) scale(-1, 1) rotate(-180.000000) translate(-40.372419, -38.436684) "></path>
                    </g>
                    <path d="M169.612074,47.3465948 C169.612074,22.6452317 149.578685,2.58405711 124.849537,2.58405711 C100.120388,2.58405711 80.0869989,22.6174461 80.0869989,47.3465948 C80.0869989,72.0757435 100.120388,92.1091325 124.849537,92.1091325 C149.578685,92.1091325 169.612074,72.047958 169.612074,47.3465948 Z" id="principal-circle" stroke="#0062FF" stroke-width="5.37908033"></path>
                    <g id="men" transform="translate(82.297044, 60.486078)" fill-rule="nonzero">
                        <path d="M82.4525577,9.71989049 C82.4525577,8.60846808 87.0649607,-1.11647804 87.5928863,0.106086616 C88.0930264,1.32865127 85.7868249,10.3867439 84.6476169,11.081383 C83.508409,11.776022 82.4525577,10.9980263 82.4525577,9.71989049 Z" id="Path" fill="#1D1D1D"></path>
                        <path d="M63.9195889,48.9253161 C62.9193087,50.453522 65.8923637,65.2632256 67.392784,64.7353 C89.8157312,56.899772 95.511771,24.1961674 84.008549,9.94217498 C83.4528378,9.24753597 82.5636999,10.4978862 82.8415555,11.1091685 C91.8718626,30.0033495 72.7831827,47.1192547 63.9195889,48.9253161 Z" id="Path" fill="#161616"></path>
                        <path d="M67.392784,64.7353 C89.8157312,56.899772 95.511771,24.1961674 84.008549,9.94217498 C83.8418357,9.74767605 83.6473368,9.71989049 83.4806234,9.77546161 C97.095548,38.6446588 74.2558174,58.8447612 65.3644381,60.2340392 C66.0312915,62.901453 66.8092872,64.9575844 67.392784,64.7353 Z" id="Path" fill="#111111"></path>
                        <path d="M84.7865447,196.355499 C85.8701816,196.994567 93.3722829,204.718953 92.8999284,205.219093 C92.4275738,205.747019 82.0635598,201.051259 82.8415555,197.105709 C83.1194111,195.716431 84.3419758,196.077644 84.7865447,196.355499 Z" id="Path" fill="#0C0C0C"></path>
                        <path d="M45.7478325,101.41224 C56.7231288,116.916582 80.535354,184.602207 82.8415555,196.355499 C83.0916256,197.60585 84.7031881,197.494707 84.7865447,196.355499 C85.5645404,181.212369 75.8118087,109.553409 69.3377732,98.3280424 C68.0596374,96.1329832 43.8584144,98.7448258 45.7478325,101.41224 Z" id="Path" fill="#111111"></path>
                        <path d="M69.0043465,99.6617493 C65.8645781,123.585117 69.6767034,150.960222 68.2100663,151.315106 L54.5836406,127.419524 C54.6114262,127.419524 68.2541363,96.271911 69.0043465,99.6617493 Z" id="Path" fill="#0C0C0C"></path>
                        <path d="M84.0919057,197.716992 C83.9251924,197.716992 83.758479,197.578064 83.7306934,197.411351 C82.369201,186.074842 65.8367926,119.583996 60.6686784,111.85961 C60.5575361,111.692897 60.6131072,111.470612 60.752035,111.35947 C60.9187484,111.248328 61.1410329,111.303899 61.2243896,111.442827 C66.4480749,119.222784 83.06384,185.935914 84.4253325,197.300208 C84.453118,197.494707 84.3141902,197.661421 84.1196913,197.689206 C84.1196913,197.716992 84.1196913,197.716992 84.0919057,197.716992 Z" id="Path" fill="#0C0C0C"></path>
                        <path d="M16.6285652,198.995128 C15.5727139,200.10655 9.90445962,213.554761 11.1825954,214.860682 C12.4885167,216.166604 21.1853971,202.190467 20.9908982,200.60669 C20.8241848,199.022913 17.6844165,197.883705 16.6285652,198.995128 Z" id="Path" fill="#0C0C0C"></path>
                        <path d="M15.0957542,213.742646 C24.0431226,212.577309 32.755034,210.670396 41.8201309,210.140697 C47.824286,209.716939 53.12207,209.18724 58.655311,208.233783 C65.1303802,207.174387 75.3727625,206.22093 81.8478317,205.373412 C87.4988013,204.631835 88.7938151,205.267473 93.5029564,205.267473 C88.5583581,205.903111 82.78966,207.068447 77.9627902,207.492206 C70.7813497,208.233783 63.3644522,208.445663 56.1830118,209.29318 C54.1816267,209.505059 51.9447846,209.716939 50.0611281,210.458516 C47.824286,211.306033 45.822901,212.047611 43.3506018,212.153551 C40.6428456,212.25949 38.0528179,211.941671 35.3450617,212.153551 C32.755034,212.36543 30.2827348,212.683249 27.6927071,213.107008 C21.3353664,214.060465 14.9780256,214.378284 8.50295639,215.013922" id="Path" fill="#000000" opacity="0.260904948"></path>
                        <path d="M68.9765609,97.5500467 C69.6156288,106.302498 24.3251654,198.661701 19.1014801,200.995688 C17.7122021,201.60697 16.5452085,200.634476 17.1842764,199.439696 C21.7688939,190.881744 44.4696967,108.886555 45.3866202,97.9390446 C47.1926816,97.1610489 68.7542764,94.438064 68.9765609,97.5500467 Z" id="Path" fill="#131313"></path>
                        <path d="M17.0175631,201.718112 C16.9619919,201.718112 16.9342064,201.718112 16.8786353,201.690327 C16.7119219,201.60697 16.6007797,201.412471 16.6841363,201.245758 C21.7133228,188.770041 46.914826,125.057751 48.6375307,97.0499066 C48.6653163,96.8554077 48.8320297,96.7164799 48.998743,96.7164799 C49.1932419,96.7164799 49.3321697,96.8831933 49.3321697,97.0776922 C48.6375307,108.553129 44.0251277,127.030526 35.6616741,152.009745 C28.4374284,173.543554 20.435187,193.799228 17.3232042,201.495828 C17.2954187,201.634756 17.1564909,201.718112 17.0175631,201.718112 Z" id="Path" fill="#0C0C0C"></path>
                        <path d="M37.2732366,52.3985112 C42.1357096,50.953662 47.3316094,45.8411189 47.3316094,45.8411189 L52.7497937,45.0631232 C52.7497937,45.0631232 59.112687,48.425176 64.3363723,48.9253161 C68.337493,54.9269972 71.2549768,93.7156394 68.9765609,98.3280424 C64.8920835,102.440305 48.1096051,100.217461 45.4144057,98.3280424 C44.9142656,90.5203 40.913145,58.3168355 37.2732366,52.3985112 Z" id="Path" fill="#161616"></path>
                        <path d="M4.81970208,19.1947666 C1.04086587,18.9724821 -0.57069663,9.58096269 0.179513499,8.77518144 C0.929723628,7.96940019 7.09811802,18.6390554 6.34790789,18.8057687 C5.62548333,19.0002676 4.81970208,19.1947666 4.81970208,19.1947666 Z" id="Path" fill="#1D1D1D"></path>
                        <path d="M38.4124445,52.0095133 C43.1637753,54.5935704 44.1918411,69.347703 42.2746374,69.7644864 C7.82054259,77.1554454 -1.68211904,33.2542601 4.81970208,18.4445564 C5.06977212,17.8332741 6.34790789,18.2778431 6.37569346,18.8335543 C7.26483139,44.007272 18.7958389,53.5932903 38.4124445,52.0095133 Z" id="Path" fill="#161616"></path>
                        <path d="M47.3038238,19.9727623 C54.6947829,16.9163506 56.3897021,35.3937482 55.0282096,36.1717439 C53.6667172,36.9497396 51.1660167,36.1717439 51.1660167,36.1717439 C51.1660167,36.1717439 52.0829402,44.8686243 55.4172075,46.5913291 C53.7778594,48.3973905 48.7208874,48.0083926 46.1368303,46.5913291 C51.1104456,42.4512806 39.773937,23.084745 47.3038238,19.9727623 Z" id="Path" fill="#1D1D1D"></path>
                        <path d="M47.5816794,32.8930478 C48.2763184,33.9488991 49.6655965,35.5048905 52.1385113,36.3940284 C52.9442926,36.6996696 53.1665771,38.2834465 52.1385113,38.505731 C51.1104456,38.7280155 48.4986029,37.4220942 47.5816794,32.8930478 Z" id="Path" fill="#1A1A1A"></path>
                        <path d="M52.7220081,23.0569595 C53.7500738,20.6951868 56.0284898,10.0255317 44.9976223,8.77518144 C48.054034,14.4434358 39.1070835,17.4998474 38.0512322,22.6679616 C36.9953809,27.8360758 41.6633551,32.9486189 44.2196266,33.4765446 C47.1926816,34.0878269 47.0259682,32.3373366 46.914826,31.5593409 C46.8036838,30.7813452 44.38634,25.1964476 45.8034036,24.1683819 C47.164896,23.1958873 50.0545943,23.5570995 52.7220081,23.0569595 Z" id="Path" fill="#0E0E0E"></path>
                        <path d="M46.5258281,28.8641416 C46.1646159,28.4195726 43.8861999,27.6693625 43.8306288,28.8641416 C43.7194866,31.364842 46.8592549,32.4762644 47.3038238,31.9483388 C47.7483928,31.4204131 46.8870404,29.280925 46.5258281,28.8641416 Z" id="Path" fill="#1D1D1D"></path>
                        <path d="M4.81970208,18.4445564 C-1.68211904,33.2542601 7.82054259,77.1554454 42.2746374,69.7644864 C43.1082042,69.597773 43.3860598,66.7636459 43.0526331,63.3738075 C19.4071213,67.763926 0.290655741,46.9247558 5.37541328,18.1389153 C5.1531288,18.1389153 4.90305876,18.222272 4.81970208,18.4445564 Z" id="Path" fill="#111111"></path>
                    </g>
                </g>
            </g>
        </g>
    </g>
</svg>