<svg width="25px" height="25px" viewBox="0 0 15 15" version="1.1" xmlns="http://www.w3.org/2000/svg" xmlns:xlink="http://www.w3.org/1999/xlink">
        <path d="M7.5,1.875 C4.39875,1.875 1.875,4.39875 1.875,7.5 C1.875,10.601875 4.39875,13.125 7.5,13.125 C10.601875,13.125 13.125,10.601875 13.125,7.5 C13.125,4.39875 10.601875,1.875 7.5,1.875 M7.5,14.375 C3.709375,14.375 0.625,11.290625 0.625,7.5 C0.625,3.709375 3.709375,0.625 7.5,0.625 C11.290625,0.625 14.375,3.709375 14.375,7.5 C14.375,11.290625 11.290625,14.375 7.5,14.375" id="path-1" fill="#636366"></path>
        <g id="sidebar/expand/circles-copy" transform="translate(-23.000000, -109.000000)">
            <g id="Circles" transform="translate(0.000000, 93.000000)">
                <g id="Icon/Miscellaneous/Placeholder" transform="translate(23.000000, 16.000000)">
            </g>
        </g>
    </g>
</svg>