<svg xmlns="http://www.w3.org/2000/svg" xmlns:xlink="http://www.w3.org/1999/xlink" width="15" height="15" viewBox="0 0 15 15">
    <defs>
        <path id="a" d="M14.96 7.48A7.48 7.48 0 1 1 0 7.48a7.48 7.48 0 0 1 14.96 0z"/>
    </defs>
    <g fill="none" fill-rule="evenodd">
        <path stroke="#FFF" stroke-width=".712" d="M14.604 7.48a7.124 7.124 0 1 0-14.248 0 7.124 7.124 0 0 0 14.248 0z"/>
        <g>
            <mask id="b" fill="#fff">
                <use xlink:href="#a"/>
            </mask>
            <g stroke="#FFF" stroke-linecap="round" stroke-linejoin="round" mask="url(#b)">
                <path stroke-width=".647" d="M14.063 8.029c0-3.575-2.933-6.473-6.551-6.473-3.618 0-6.55 2.898-6.55 6.473 0 3.575 2.932 6.472 6.55 6.472s6.551-2.897 6.551-6.472z" opacity=".111"/>
                <path stroke-width=".698" d="M14.294 7.316c0-4.028-3.036-7.295-6.782-7.295S.73 3.288.73 7.316c0 4.029 3.036 7.295 6.782 7.295s6.782-3.266 6.782-7.295z" opacity=".424"/>
                <path stroke-width=".672" d="M14.688 7.316C14.688 3.79 11.475.93 7.512.93S.336 3.79.336 7.316c0 3.527 3.213 6.386 7.176 6.386s7.176-2.86 7.176-6.386z" opacity=".168"/>
                <path stroke-width=".705" d="M10.96 11.26c2.063-2.196 2.022-5.573-.089-7.546-2.11-1.972-5.493-1.79-7.555.405-2.062 2.195-2.022 5.572.09 7.545 2.11 1.972 5.493 1.79 7.554-.404z" opacity=".127"/>
                <path stroke-width=".655" d="M15.406 6.649a3.206 3.206 0 1 0-6.412 0 3.206 3.206 0 0 0 6.412 0z" opacity=".027"/>
            </g>
            <g stroke="#FFF" stroke-linecap="round" stroke-linejoin="round" mask="url(#b)" opacity=".325">
                <path stroke-width=".647" d="M14.248 7.48c0-2.95-2.87-5.343-6.412-5.343-3.54 0-6.411 2.392-6.411 5.343s2.87 5.343 6.411 5.343c3.541 0 6.412-2.392 6.412-5.343z" opacity=".311"/>
                <path stroke-width=".698" d="M14.248 7.48c0-3.344-2.87-6.055-6.412-6.055-3.54 0-6.411 2.711-6.411 6.055s2.87 6.056 6.411 6.056c3.542 0 6.412-2.712 6.412-6.056z" opacity=".424"/>
                <path stroke-width=".672" d="M13.536 7.48c0-2.95-3.03-5.343-6.768-5.343S0 4.53 0 7.48s3.03 5.343 6.768 5.343 6.768-2.392 6.768-5.343z" opacity=".168"/>
                <path stroke-width=".705" d="M11.61 11.527c2.611-2.488 2.56-6.316-.114-8.552-2.674-2.234-6.958-2.03-9.57.459-2.612 2.488-2.56 6.316.113 8.551 2.674 2.235 6.959 2.03 9.57-.458z" opacity=".424"/>
                <path stroke-width=".655" d="M11.398 7.48c0-2.95-2.232-5.343-4.986-5.343-2.754 0-4.987 2.392-4.987 5.343s2.233 5.343 4.987 5.343 4.986-2.392 4.986-5.343z" opacity=".217"/>
            </g>
        </g>
    </g>
</svg>
