<svg xmlns="http://www.w3.org/2000/svg" xmlns:xlink="http://www.w3.org/1999/xlink" width="21" height="21" viewBox="0 0 21 21">
    <defs>
        <path id="a" fill="#fff" d="M20.945 10.472c0 5.784-4.689 10.473-10.473 10.473C4.69 20.945 0 16.256 0 10.472 0 4.69 4.689 0 10.472 0c5.784 0 10.473 4.689 10.473 10.472z"/>
    </defs>
    <g fill="none" fill-rule="evenodd">
        <path stroke="#FFF" stroke-width=".997" d="M20.446 10.472C20.446 4.964 15.981.5 10.472.5 4.964.499.5 4.964.5 10.472c0 5.509 4.465 9.974 9.973 9.974 5.509 0 9.974-4.465 9.974-9.974z"/>
        <g>
            <g stroke="#FFF" stroke-linecap="round" stroke-linejoin="round" mask="url(#b)">
                <path stroke-width=".906" d="M19.688 11.24c0-5.005-4.106-9.061-9.172-9.061-5.064 0-9.17 4.056-9.17 9.061s4.106 9.061 9.17 9.061c5.066 0 9.172-4.056 9.172-9.06z" opacity=".111"/>
                <path stroke-width=".977" d="M20.012 10.243C20.012 4.603 15.76.03 10.517.03c-5.245 0-9.495 4.573-9.495 10.213 0 5.64 4.25 10.213 9.495 10.213 5.244 0 9.495-4.573 9.495-10.213z" opacity=".424"/>
                <path stroke-width=".941" d="M20.563 10.243c0-4.937-4.498-8.94-10.047-8.94C4.968 1.302.47 5.305.47 10.242c0 4.937 4.498 8.94 10.046 8.94 5.549 0 10.047-4.003 10.047-8.94z" opacity=".168"/>
                <path stroke-width=".986" d="M15.345 15.763c2.887-3.073 2.83-7.802-.125-10.563-2.956-2.76-7.691-2.507-10.578.566-2.887 3.073-2.83 7.802.125 10.563 2.956 2.761 7.691 2.508 10.578-.566z" opacity=".127"/>
                <path stroke-width=".917" d="M21.568 9.308a4.488 4.488 0 1 0-8.976 0 4.488 4.488 0 0 0 8.976 0z" opacity=".027"/>
            </g>
            <g stroke="#FFF" stroke-linecap="round" stroke-linejoin="round" mask="url(#b)" opacity=".325">
                <path stroke-width=".906" d="M19.947 10.472c0-4.131-4.019-7.48-8.976-7.48-4.957 0-8.976 3.349-8.976 7.48 0 4.132 4.019 7.48 8.976 7.48 4.957 0 8.976-3.348 8.976-7.48z" opacity=".311"/>
                <path stroke-width=".977" d="M19.947 10.472c0-4.681-4.018-8.477-8.976-8.477-4.958 0-8.976 3.796-8.976 8.477 0 4.682 4.018 8.478 8.976 8.478 4.958 0 8.976-3.796 8.976-8.478z" opacity=".424"/>
                <path stroke-width=".941" d="M18.95 10.472c0-4.13-4.242-7.48-9.475-7.48S0 6.342 0 10.472c0 4.131 4.242 7.48 9.475 7.48s9.475-3.349 9.475-7.48z" opacity=".168"/>
                <path stroke-width=".986" d="M16.253 16.138c3.657-3.484 3.586-8.843-.158-11.972-3.744-3.13-9.742-2.842-13.398.641C-.96 8.29-.89 13.65 2.855 16.78c3.743 3.129 9.742 2.842 13.398-.641z" opacity=".424"/>
                <path stroke-width=".917" d="M15.958 10.472c0-4.131-3.125-7.48-6.982-7.48-3.855 0-6.981 3.349-6.981 7.48 0 4.132 3.126 7.48 6.981 7.48 3.857 0 6.982-3.348 6.982-7.48z" opacity=".217"/>
            </g>
        </g>
    </g>
</svg>
