<?xml version="1.0" encoding="UTF-8"?>
<svg width="16px" height="15px" viewBox="0 0 16 15" version="1.1" xmlns="http://www.w3.org/2000/svg" xmlns:xlink="http://www.w3.org/1999/xlink">
    <path d="M13.125,10.6251562 C13.470625,10.6251562 13.75,10.9051562 13.75,11.2501562 C13.75,11.5951562 13.470625,11.8751562 13.125,11.8751562 L13.125,11.8751562 L6.875,11.8751562 C6.53,11.8751562 6.25,11.5951562 6.25,11.2501562 C6.25,10.9051562 6.53,10.6251562 6.875,10.6251562 L6.875,10.6251562 Z M2.05835933,3.30820316 C2.30273432,3.06382817 2.69773432,3.06382817 2.94210931,3.30820316 L2.94210931,3.30820316 L6.69210925,7.05820309 C6.81398425,7.18007809 6.87523425,7.34007809 6.87523425,7.50007808 C6.87523425,7.66007808 6.81398425,7.82007808 6.69210925,7.94195307 L6.69210925,7.94195307 L2.94210931,11.691953 C2.69773432,11.936328 2.30273432,11.936328 2.05835933,11.691953 C1.81398433,11.447578 1.81398433,11.052578 2.05835933,10.808203 L2.05835933,10.808203 L5.36648427,7.50007808 L2.05835933,4.19195315 C1.81398433,3.94757815 1.81398433,3.55257816 2.05835933,3.30820316 Z" id="path-1"></path>
</svg>