<svg xmlns="http://www.w3.org/2000/svg" width="17" height="15" viewBox="0 0 17 15">
    <path fill="#FFF" fill-rule="evenodd" d="M8.147 12.333v1.709c0 .08-.09.146-.202.146H.35c-.112 0-.202-.065-.202-.146v-1.709c0-.08.09-.145.202-.145h7.596c.112 0 .202.065.202.145zm8-7.976v1.661c0 .094-.156.17-.347.17H.495c-.193 0-.348-.076-.348-.17V4.357c0-.093.155-.17.348-.17H15.8c.191 0 .347.077.347.17zm0 4v1.661c0 .094-.156.17-.347.17H.495c-.193 0-.348-.076-.348-.17V8.357c0-.093.155-.17.348-.17H15.8c.191 0 .347.077.347.17zm0-8.053v1.767c0 .064-.227.117-.504.117H.65c-.277 0-.503-.053-.503-.117V.304C.147.24.373.188.65.188h14.993c.277 0 .504.052.504.116z"/>
</svg>
