<?xml version="1.0" encoding="UTF-8"?>
<svg width="20px" height="20px" viewBox="0 0 20 20" version="1.1" xmlns="http://www.w3.org/2000/svg" xmlns:xlink="http://www.w3.org/1999/xlink" fill='#636366'>
        <path d="M3,2 C2.449,2 2,2.449 2,3 L2,16.586 L4.293,14.293 C4.48,14.105 4.735,14 5,14 L17,14 C17.552,14 18,13.552 18,13 L18,3 C18,2.449 17.552,2 17,2 L3,2 Z M1,20 C0.871,20 0.741,19.976 0.617,19.924 C0.244,19.77 0,19.404 0,19 L0,3 C0,1.346 1.346,0 3,0 L17,0 C18.654,0 20,1.346 20,3 L20,13 C20,14.654 18.654,16 17,16 L5.414,16 L1.707,19.707 C1.516,19.898 1.26,20 1,20 L1,20 Z" id="path-1"></path>
</svg>
