<svg xmlns="http://www.w3.org/2000/svg" xmlns:xlink="http://www.w3.org/1999/xlink" width="15" height="15" viewBox="0 0 15 15">
    <defs>
        <path id="a" d="M12.5 5c1.034 0 1.875.841 1.875 1.875V12.5a1.877 1.877 0 0 1-1.875 1.875H6.875A1.877 1.877 0 0 1 5 12.5V6.875C5 5.841 5.841 5 6.875 5zm0 1.25H6.875a.626.626 0 0 0-.625.625V12.5c0 .345.28.625.625.625H12.5c.345 0 .625-.28.625-.625V6.875a.626.626 0 0 0-.625-.625zM8.125.625C9.159.625 10 1.466 10 2.5v.625a.625.625 0 1 1-1.25 0V2.5a.626.626 0 0 0-.625-.625H2.5a.626.626 0 0 0-.625.625v5.625c0 .345.28.625.625.625h.625a.625.625 0 1 1 0 1.25H2.5A1.877 1.877 0 0 1 .625 8.125V2.5C.625 1.466 1.466.625 2.5.625z"/>
    </defs>
    <use fill="#4C4B5E" fill-rule="evenodd" xlink:href="#a"/>
</svg>
