<svg xmlns="http://www.w3.org/2000/svg" width="21" height="21" viewBox="0 0 21 21">
    <g fill="#FFF" fill-rule="nonzero" stroke="#FFF" stroke-width=".5">
        <path d="M8.23 3H3.77a.772.772 0 0 0-.77.77v4.46c0 .424.346.77.77.77h4.46c.424 0 .77-.346.77-.77V3.77A.772.772 0 0 0 8.23 3zm.308 5.23a.31.31 0 0 1-.309.308H3.771a.31.31 0 0 1-.31-.309V3.771c0-.17.14-.31.31-.31h4.458c.17 0 .31.14.31.31v4.458zM17.23 3h-4.46a.772.772 0 0 0-.77.77v4.46c0 .424.346.77.77.77h4.46c.424 0 .77-.346.77-.77V3.77a.772.772 0 0 0-.77-.77zm.308 5.23a.31.31 0 0 1-.309.308h-4.458a.31.31 0 0 1-.31-.309V3.771c0-.17.14-.31.31-.31h4.458c.17 0 .31.14.31.31v4.458zM8.23 12H3.77a.772.772 0 0 0-.77.77v4.46c0 .424.346.77.77.77h4.46c.424 0 .77-.346.77-.77v-4.46a.772.772 0 0 0-.77-.77zm.308 5.23a.31.31 0 0 1-.309.308H3.771a.31.31 0 0 1-.31-.309v-4.458c0-.17.14-.31.31-.31h4.458c.17 0 .31.14.31.31v4.458zM17.77 14.77h-2.54v-2.54a.23.23 0 1 0-.46 0v2.54h-2.54a.23.23 0 1 0 0 .46h2.54v2.54a.23.23 0 1 0 .46 0v-2.54h2.54a.23.23 0 1 0 0-.46z"/>
    </g>
</svg>
