<?xml version="1.0" encoding="UTF-8"?>
<svg width="111px" height="142px" viewBox="0 0 111 142" version="1.1" xmlns="http://www.w3.org/2000/svg" xmlns:xlink="http://www.w3.org/1999/xlink">
    <!-- Generator: Sketch 61.2 (89653) - https://sketch.com -->
    <title>Group 61</title>
    <desc>Created with Sketch.</desc>
    <defs>
        <polygon id="path-1" points="0 0.484288889 110.235169 0.484288889 110.235169 95.7078178 0 95.7078178"></polygon>
        <polygon id="path-3" points="0 0.710219574 91.612749 0.710219574 91.612749 92.6826156 0 92.6826156"></polygon>
        <polygon id="path-5" points="0 141.760156 110.235333 141.760156 110.235333 0.822222222 0 0.822222222"></polygon>
    </defs>
    <g id="Segments---Import-CSV" stroke="none" stroke-width="1" fill="none" fill-rule="evenodd">
        <g id="Circle---3.1---Create-circle---CSV-" transform="translate(-338.000000, -395.000000)">
            <g id="banner" transform="translate(323.000000, 380.000000)">
                <g id="Group-61" transform="translate(15.000000, 15.000000)">
                    <g id="Group-3" transform="translate(0.000000, 0.337933)">
                        <mask id="mask-2" fill="white">
                            <use xlink:href="#path-1"></use>
                        </mask>
                        <g id="Clip-2"></g>
                        <path d="M21.0520133,49.2251289 C39.9080356,48.8723956 40.9177244,74.8981956 49.2098356,80.94564 C60.7842578,89.3997289 86.1218578,75.5115733 90.4566133,94.03624 C90.5906356,94.6019289 90.7115022,95.1585733 90.8208578,95.7078178 L110.235169,91.7636178 L110.235169,4.07279556 C110.235169,2.09041778 108.628547,0.483795556 106.646169,0.483795556 L3.58883556,0.483795556 C1.60645778,0.483795556 -0.000164444444,2.09041778 -0.000164444444,4.07279556 L-0.000164444444,69.5463511 C5.52599111,64.7297733 11.2215244,49.4093067 21.0520133,49.2251289" id="Fill-1" fill="#FDD000" mask="url(#mask-2)"></path>
                    </g>
                    <path d="M32.6266,133.898231 C27.1160667,134.686742 23.0945778,137.677164 19.7358,141.531742 L106.646333,141.531742 C108.628711,141.531742 110.235333,139.92512 110.235333,137.942742 L110.235333,92.1022089 L90.8210222,96.0455867 C98.1741556,132.793987 52.4076222,131.064031 32.6266,133.898231" id="Fill-4" fill="#4752A0"></path>
                    <g id="Group-8" transform="translate(0.000000, 48.849044)">
                        <mask id="mask-4" fill="white">
                            <use xlink:href="#path-3"></use>
                        </mask>
                        <g id="Clip-7"></g>
                        <path d="M90.8208578,47.19646 C90.7115022,46.6480378 90.5906356,46.0905711 90.4566133,45.5248822 C86.1218578,27.0010378 60.7842578,40.8883711 49.2098356,32.4342822 C40.9177244,26.3868378 39.9080356,0.361037778 21.0520133,0.713771111 C11.2215244,0.897948889 5.52599111,16.2192378 -0.000164444444,21.0358156 L-0.000164444444,65.64466 L-0.000164444444,89.0944378 C-0.000164444444,91.0759933 1.60645778,92.6826156 3.58883556,92.6826156 L19.7356356,92.6826156 C23.0944133,88.8280378 27.1159022,85.8376156 32.6264356,85.0491044 C52.4074578,82.2149044 98.1739911,83.94486 90.8208578,47.19646" id="Fill-6" fill="#6E7AB9" mask="url(#mask-4)"></path>
                    </g>
                    <path d="M21.1246978,90.1619289 C21.9658311,91.0030622 21.9658311,92.3663067 21.1246978,93.20744 C20.2835644,94.0485733 18.92032,94.0485733 18.0791867,93.20744 C17.2380533,92.3663067 17.2380533,91.0030622 18.0791867,90.1619289 C18.92032,89.3216178 20.2835644,89.3216178 21.1246978,90.1619289" id="Fill-9" fill="#0062FF"></path>
                    <polygon id="Fill-11" fill="#0062FF" points="93.7632622 52.0802956 89.7541067 51.66754 90.16604 47.6583844 94.1760178 48.07114"></polygon>
                    <path d="M9.37349778,62.2488822 L10.9792978,68.2404156 L15.3650311,63.85386 L9.37349778,62.2488822 Z M10.3576978,63.2330822 L14.0206978,64.2139933 L11.3394311,66.8960822 L10.3576978,63.2330822 Z" id="Fill-13" fill="#E5F1F9"></path>
                    <path d="M80.1552378,67.7864667 C78.9967267,67.7864667 78.0577489,68.7254444 78.0577489,69.8839556 C78.0577489,71.0424667 78.9967267,71.9822667 80.1552378,71.9822667 C81.3137489,71.9822667 82.2527267,71.0424667 82.2527267,69.8839556 C82.2527267,68.7254444 81.3137489,67.7864667 80.1552378,67.7864667 M80.1552378,68.2962444 C81.0309044,68.2962444 81.7429489,69.0082889 81.7429489,69.8839556 C81.7429489,70.7596222 81.0309044,71.4716667 80.1552378,71.4716667 C79.2795711,71.4716667 78.5667044,70.7596222 78.5667044,69.8839556 C78.5667044,69.0082889 79.2795711,68.2962444 80.1552378,68.2962444" id="Fill-15" fill="#FCFFFF"></path>
                    <mask id="mask-6" fill="white">
                        <use xlink:href="#path-5"></use>
                    </mask>
                    <g id="Clip-18"></g>
                    <path d="M36.2526,77.4122222 L39.6327556,77.4122222 L39.6327556,74.0320667 L36.2526,74.0320667 L36.2526,77.4122222 Z M36.7114,76.9542444 L39.1747778,76.9542444 L39.1747778,74.4908667 L36.7114,74.4908667 L36.7114,76.9542444 Z" id="Fill-17" fill="#E5F1F9" mask="url(#mask-6)"></path>
                    <path d="M84.5477956,84.5179489 L82.3425956,86.7231489 L84.5477956,88.9283489 L86.7529956,86.7231489 L84.5477956,84.5179489 Z M84.5477956,85.1847711 L86.0861733,86.7231489 L84.5477956,88.2615267 L83.0094178,86.7231489 L84.5477956,85.1847711 Z" id="Fill-19" fill="#FCFFFF" mask="url(#mask-6)"></path>
                    <path d="M39.4071378,141.759991 L44.55836,141.759991 C43.0109378,121.195391 38.5248933,87.9348578 34.3891156,77.5732133 C33.9780044,76.5388578 17.4307822,81.2000356 18.0828044,82.3569022 C25.6102489,95.6892356 34.3660933,123.570791 39.4071378,141.759991" id="Fill-20" fill="#353D49" mask="url(#mask-6)"></path>
                    <path d="M11.2460267,141.759991 L18.2398489,141.759991 C25.7656489,122.758436 34.44996,95.5634356 34.3718489,77.5921244 C34.3669156,76.0019467 18.0178489,80.0612578 18.0244267,80.8267467 C18.13296,94.4443911 14.69196,121.752036 11.2460267,141.759991" id="Fill-21" fill="#4C5862" mask="url(#mask-6)"></path>
                    <path d="M13.0875578,141.759991 L13.6927133,141.759991 C14.8742467,136.533124 16.1544467,130.384547 17.5119356,123.240258 C21.3352689,103.117191 23.6004911,86.2238133 23.2814689,80.2018578 C23.2732467,80.04728 23.1384022,79.9305244 22.9879356,79.9375913 C22.83418,79.9461467 22.71578,80.07688 22.7248244,80.2314578 C23.20418,89.2997467 18.0784467,119.782813 13.0875578,141.759991" id="Fill-22" fill="#5E6B75" mask="url(#mask-6)"></path>
                    <path d="M31.5726756,44.4089622 C35.6582978,52.3327178 43.1758756,60.9167178 59.5487867,56.1700289 C59.9294756,56.0598511 60.1276311,57.0456956 59.5487867,57.4214511 C48.4783867,64.5830067 38.2252756,63.9350956 30.8236311,58.17214 C29.9956533,57.5291622 29.3995422,44.2617844 31.5726756,44.4089622" id="Fill-23" fill="#FF3C29" mask="url(#mask-6)"></path>
                    <path d="M31.5726756,44.3350444 C30.3031644,51.0262889 30.8433644,71.9872 34.5088311,77.6909556 C34.8640311,79.2860667 20.7694978,84.7612444 18.5832089,82.4458667 C15.0904089,78.7475111 7.06140889,56.1980667 8.90154222,46.0863778 C9.20329778,44.4115111 17.97312,40.6638222 19.5813867,40.4196222 C23.2838533,39.8572222 30.1938089,43.0474444 31.5726756,44.3350444" id="Fill-24" fill="#FF5745" mask="url(#mask-6)"></path>
                    <path d="M14.0442956,52.8045911 C13.5320511,55.0467911 12.1005622,64.1093244 12.9260733,69.58368 C13.2335844,71.6211467 11.2479178,69.0245689 11.2479178,69.0245689 L9.01065111,62.5923244 L9.01065111,57.55868 L10.9683622,53.0841467 L13.2048067,51.1264356 C13.2048067,51.1264356 14.3213844,51.6008578 14.0442956,52.8045911" id="Fill-25" fill="#FF4534" mask="url(#mask-6)"></path>
                    <path d="M21.8942978,32.7151533 C21.8942978,32.7151533 23.4038978,34.6654644 24.5451422,34.2617533 C26.5784978,33.5455978 27.1203422,22.8361533 25.4314978,21.6661311 C24.5311644,21.0445311 21.4494756,21.1037311 19.9061644,22.3296644 C17.6713644,24.1015533 17.9484533,40.2335533 14.6036533,42.2175756 C17.0810089,43.2839978 22.0422978,42.6459533 24.3247867,40.8913311 C20.33372,38.7667089 21.8942978,32.7151533 21.8942978,32.7151533" id="Fill-26" fill="#FFC3C0" mask="url(#mask-6)"></path>
                    <path d="M22.4339222,33.2290422 C21.2565,31.6479089 20.2106333,30.1226867 19.6375444,28.7545089 C19.3078333,31.0016422 20.4737444,35.8338422 21.5944333,36.3049756 C22.7159444,36.7761089 22.6855222,33.5669756 22.4339222,33.2290422" id="Fill-27" fill="#FF95A3" mask="url(#mask-6)"></path>
                    <path d="M17.6965244,30.5055432 C17.9793689,30.5317422 20.8234356,25.9198978 21.6736133,23.8758533 C22.8650133,24.4094756 26.5387022,24.8279867 27.1989467,24.7597422 C31.1225911,24.3543867 31.5394578,17.6286089 28.7455467,16.8047422 C26.6455911,16.1847867 24.7520133,19.3782978 23.6617467,19.6775867 C22.8033467,19.9135644 19.50048,19.4498311 17.6965244,20.7818311 C15.54888,22.36872 17.4145022,30.47912 17.6965244,30.5055432" id="Fill-28" fill="#5A4D69" mask="url(#mask-6)"></path>
                    <path d="M20.7561778,26.7969622 C20.2940889,26.1802956 19.4274667,25.3802733 18.7984667,25.67874 C18.1160222,26.0018733 19.5590222,29.4584956 20.4766222,29.3137844 C20.9346,29.2414289 21.2174444,27.4136289 20.7561778,26.7969622" id="Fill-29" fill="#FFC3C0" mask="url(#mask-6)"></path>
                    <path d="M8.49026667,45.7040444 C11.3294,44.6836667 15.1658889,51.3148889 13.7648222,53.6434222 C5.27702222,67.7511111 8.362,88.1035778 10.7390444,91.7476667 C11.0523111,92.2270222 10.0705778,92.5962 9.74086667,92.2484 C0.176777778,82.1926222 -0.808244444,49.0480222 8.49026667,45.7040444" id="Fill-30" fill="#FF3C29" mask="url(#mask-6)"></path>
                    <path d="M66.08718,51.9322133 L4.32102444,98.6443022 C3.70271333,99.1072133 3.57691333,99.98288 4.04146889,100.601191 C4.50273556,101.21868 5.38004667,101.34448 5.99835778,100.881569 L66.4563578,51.8220356 L66.08718,51.9322133 Z" id="Fill-31" fill="#4862A7" mask="url(#mask-6)"></path>
                    <path d="M14.8833733,91.1170222 C15.17444,91.4187778 15.50744,92.3158222 15.4424844,92.7951778 C15.3783511,93.2737111 13.0128178,94.7002667 12.6461067,94.7520667 C12.2793956,94.8038667 11.80744,93.6338444 11.80744,93.6338444 C11.80744,93.6338444 10.5510844,93.3888222 10.1292844,92.7951778 C9.94181778,92.5328889 10.0791289,92.2163333 10.1292844,91.9556889 C10.22384,91.4557778 14.5923067,90.8152667 14.8833733,91.1170222" id="Fill-32" fill="#FFC3C0" mask="url(#mask-6)"></path>
                    <polygon id="Fill-33" fill="#4752A0" mask="url(#mask-6)" points="13.48502 7.22141333 13.21862 11.3761022 16.9498644 9.52939111"></polygon>
                    <path d="M8.43328667,29.7847533 C8.94553111,31.0106867 8.36668667,32.4191533 7.14157556,32.9313978 C5.91564222,33.4436422 4.50717556,32.8647978 3.99493111,31.6388644 C3.48268667,30.4137533 4.06153111,29.0052867 5.28664222,28.4930422 C6.51257556,27.9807978 7.92104222,28.55882 8.43328667,29.7847533" id="Fill-34" fill="#FFE4DB" mask="url(#mask-6)"></path>
                    <polygon id="Fill-35" fill="#E5F1F9" mask="url(#mask-6)" points="44.6030067 19.2427956 41.2573844 20.6405733 39.8596067 17.2949511 43.2052289 15.8979956"></polygon>
                    <path d="M43.8594711,33.9673156 L40.3674933,32.53336 L38.9335378,36.0253378 L42.4255156,37.4592933 L43.8594711,33.9673156 Z M43.1918267,34.2460489 L42.1467822,36.7916489 L39.6011822,35.7466044 L40.6462267,33.2010044 L43.1918267,34.2460489 Z" id="Fill-36" fill="#E5F1F9" mask="url(#mask-6)"></path>
                    <path d="M54.6824644,4.75515778 L51.4683978,6.09784667 L52.8119089,9.31191333 L56.0251533,7.96922444 L54.6824644,4.75515778 Z M54.39962,5.44418 L55.3361311,7.68638 L53.0947533,8.62289111 L52.1582422,6.38151333 L54.39962,5.44418 Z" id="Fill-37" fill="#FFC500" mask="url(#mask-6)"></path>
                    <path d="M100.215404,30.8800356 C103.687649,41.8978133 102.570249,59.1036356 92.6016267,63.2961467 C84.5931822,66.8111467 72.25656,62.26508 67.9004267,54.0075022 C66.6802489,51.6707467 66.8940267,50.96528 66.8940267,50.96528 C66.8940267,50.96528 66.5001822,50.9513022 65.9238044,50.7523244 C65.0530711,50.4522133 64.2990933,49.8832356 63.7432711,49.1498133 C60.5826489,44.9811467 58.8050044,39.0060578 58.8740711,33.9461022 C58.9357378,29.3819467 60.1600267,19.7167244 72.5435156,15.1887467 C84.9270044,10.6599467 96.74316,19.86308 100.215404,30.8800356" id="Fill-38" fill="#FF5745" mask="url(#mask-6)"></path>
                    <path d="M71.5958222,65.3731622 C71.5662222,65.3731622 71.5374444,65.3641178 71.5119556,65.3452067 C68.7040667,63.2378511 66.3747111,60.6494956 64.5872,57.65414 C64.5469111,57.58754 64.5691111,57.5020289 64.6357111,57.4625622 C64.7014889,57.4230956 64.7878222,57.4444733 64.8272889,57.5102511 C66.5958889,60.4751844 68.9014,63.0355844 71.6796889,65.1215622 C71.7413556,65.1676067 71.7536889,65.2555844 71.7076444,65.3172511 C71.6805111,65.3542511 71.6385778,65.3731622 71.5958222,65.3731622" id="Fill-39" fill="#FCFFFF" mask="url(#mask-6)"></path>
                    <path d="M98.4830644,63.8483511 C98.44442,63.8483511 98.4065978,63.8319067 98.3786422,63.8014844 C98.3276644,63.7439289 98.3325978,63.6559511 98.3901533,63.6041511 C101.058264,61.2254622 103.057087,58.0294844 104.018264,54.6057511 C104.039642,54.5309289 104.116931,54.4881733 104.190931,54.5087289 C104.265753,54.5292844 104.308509,54.6065733 104.287953,54.6813956 C103.311976,58.1561067 101.283553,61.3989511 98.5759756,63.8129956 C98.5496644,63.83684 98.5167756,63.8483511 98.4830644,63.8483511" id="Fill-40" fill="#FCFFFF" mask="url(#mask-6)"></path>
                    <path d="M106.559918,33.2109533 C106.494962,33.2109533 106.436584,33.1657311 106.422607,33.0991311 C105.38414,28.04822 103.570318,23.6369978 101.032118,19.9879756 C100.987718,19.9246644 101.00334,19.8375089 101.066651,19.7939311 C101.129962,19.7495311 101.217118,19.7651533 101.261518,19.8284644 C103.821096,23.5087311 105.65054,27.9544867 106.697229,33.0423978 C106.712851,33.1188644 106.663518,33.1928644 106.588696,33.2084867 C106.578829,33.2101311 106.568962,33.2109533 106.559918,33.2109533" id="Fill-41" fill="#FCFFFF" mask="url(#mask-6)"></path>
                    <path d="M67.5915178,52.4472533 C67.5471178,52.4472533 67.50354,52.4258756 67.4764067,52.3872311 C67.4328289,52.3230978 67.4484511,52.2359422 67.5117622,52.1923644 C67.8324289,51.9711867 68.0379844,51.62832 68.0774511,51.2517422 C68.1111622,50.9294311 68.0198956,50.6301422 67.82914,50.4278756 C67.4862733,50.0677422 66.8358956,50.0364978 66.3483178,50.3588089 C66.2841844,50.4015644 66.1978511,50.3834756 66.1550956,50.3193422 C66.11234,50.2543867 66.1304289,50.1680533 66.1945622,50.1252978 C66.8013622,49.7240533 67.5915178,49.7725644 68.0322289,50.2354756 C68.2797178,50.49612 68.3972956,50.8768089 68.3561844,51.28052 C68.3084956,51.7384978 68.05854,52.1553644 67.6712733,52.4225867 C67.6466067,52.4390311 67.6194733,52.4472533 67.5915178,52.4472533" id="Fill-42" fill="#FCFFFF" mask="url(#mask-6)"></path>
                    <path d="M53.3442978,32.4698022 L53.3426533,32.4698022 C53.2653644,32.46898 53.2036978,32.4048467 53.2045119,32.32838 C53.2678311,27.65158 54.3038311,23.4796244 56.2862089,19.9284467 C59.3350089,14.4631356 65.0658978,10.1472911 72.0095644,8.08926889 C75.6626978,7.00558 79.5476978,6.80989111 83.2452311,7.52111333 C83.3208756,7.53591333 83.3710311,7.60909111 83.3562311,7.68473556 C83.3414311,7.76120222 83.2682533,7.80971333 83.1926089,7.79573556 C79.5386533,7.09273556 75.6996978,7.28678 72.08932,8.35649111 C65.2155422,10.39478 59.5438533,14.6621133 56.5304089,20.0649356 C54.5710533,23.5750022 53.5465644,27.7025578 53.4840756,32.3316689 C53.4832533,32.4081356 53.4207644,32.4698022 53.3442978,32.4698022" id="Fill-43" fill="#FCFFFF" mask="url(#mask-6)"></path>
                    <path d="M56.5742333,59.1262467 C56.2807,59.3268689 55.8621889,59.6648022 55.8621889,59.6648022 C56.0751444,59.9879356 59.1946556,57.7901356 59.4955889,57.54758 L73.2563,46.4352467 L56.5742333,59.1262467 Z" id="Fill-44" fill="#4862A7" mask="url(#mask-6)"></path>
                    <path d="M88.89102,116.462598 C88.8375756,116.462598 88.7865978,116.431353 88.7635756,116.379553 C86.8001089,111.988064 85.94582,107.567798 86.2237311,103.241264 C86.4843756,99.1827756 87.6543978,96.7292644 88.6871089,94.5643533 C89.8324644,92.1651089 90.8207756,90.0931089 90.4885978,86.4309311 C90.32662,84.64342 89.86782,83.0532422 89.3835311,81.3693311 C88.6607978,78.8623756 87.8426867,76.0199533 87.8056867,71.8249756 C87.7925311,70.3137311 87.89202,69.25882 88.0079533,68.0369978 C88.0465978,67.6390422 88.0860644,67.2172422 88.1255311,66.7510422 C88.1321089,66.6737533 88.2003533,66.6178422 88.2759978,66.6231907 C88.3532867,66.6301756 88.4108422,66.6975978 88.4042644,66.7740644 C88.3647978,67.2419089 88.3245089,67.6637089 88.2866867,68.0641311 C88.1666422,69.3278867 88.0712644,70.3260644 88.0852422,71.8225089 C88.12142,75.9796644 88.9345978,78.8015311 89.6515756,81.2920422 C90.1407978,82.9891089 90.6028867,84.59162 90.7673311,86.4054422 C91.1060867,90.1440867 90.0536422,92.3492867 88.9395311,94.68522 C87.9175089,96.8271089 86.75982,99.2551311 86.5024644,103.259353 C86.2278422,107.539842 87.0747311,111.915709 89.0184644,116.266087 C89.0505311,116.335976 89.0184644,116.41902 88.9477533,116.450264 C88.9296644,116.458487 88.9099311,116.462598 88.89102,116.462598" id="Fill-45" fill="#FCFFFF" mask="url(#mask-6)"></path>
                    <path d="M89.50448,66.57558 L91.4737022,69.6827578 C91.8996133,70.3545133 90.7435689,71.0270911 89.6607022,70.7376689 L88.94948,70.5477356 C88.5301467,70.4359133 88.0384578,70.4663356 87.6511911,70.6291356 C86.6472578,71.0492911 85.3547244,70.5288244 85.6260578,69.8126689 L86.79608,66.6652022 L89.50448,66.57558 Z" id="Fill-46" fill="#FF5745" mask="url(#mask-6)"></path>
                    <path d="M90.6438333,64.8865711 L90.6438333,64.8906822 C90.6537,65.1957267 90.4497889,65.4604822 90.1661222,65.5385933 C90.0814333,65.3823711 89.9383667,65.2623267 89.7558333,65.2171044 L86.7374556,64.4524378 C86.3904778,64.3628156 86.0361,64.5749489 85.9489444,64.9211044 C85.9431889,64.9474156 85.9374333,64.9737267 85.9341444,64.9992156 C85.9579889,64.6736156 86.2243889,64.4113267 86.5549222,64.3981711 L89.9696111,64.2616822 C90.3256333,64.2477044 90.6298556,64.5280822 90.6438333,64.8865711" id="Fill-47" fill="#FF5745" mask="url(#mask-6)"></path>
                    <path d="M90.1347956,66.2062378 C90.0295511,66.4060378 89.82564,66.5433489 89.5855511,66.5532156 L86.8089067,66.6650378 C86.4520622,66.6790156 86.14784,66.3986378 86.1346844,66.0417933 C86.1338622,66.0401489 86.1338622,66.0401489 86.1338622,66.0376822 C86.1289289,65.8921489 86.1725067,65.7573044 86.2522622,65.64466 C86.3024178,65.6734378 86.3575067,65.6972822 86.4175289,65.7120822 L89.4359067,66.4767489 C89.70724,66.5449933 89.9876178,66.42906 90.1347956,66.2062378" id="Fill-48" fill="#FF5745" mask="url(#mask-6)"></path>
                    <path d="M90.6434222,65.0287333 C90.5694222,65.0287333 90.5069333,64.972 90.5044667,64.8971778 C90.4929556,64.6102222 90.2578,64.3874 89.9749556,64.4013778 L89.1140889,64.4531778 C89.0376222,64.4589333 88.9710222,64.3997333 88.9660889,64.3224444 C88.9619778,64.2451556 89.0203556,64.1793778 89.0976444,64.1744444 L89.9609778,64.1218222 C90.3959333,64.1086667 90.7659333,64.4457778 90.7832,64.8807333 C90.7864889,64.9580222 90.7264667,65.0254444 90.6491778,65.0287333 C90.6475333,65.0287333 90.6450667,65.0287333 90.6434222,65.0287333" id="Fill-49" fill="#FCFFFF" mask="url(#mask-6)"></path>
                    <path d="M86.7828422,66.8052267 C86.3618644,66.8052267 86.0115978,66.4714044 85.9951533,66.04796 C85.9885756,65.8695378 86.0387311,65.7034489 86.13822,65.5636711 C86.1834422,65.50036 86.2705978,65.4863822 86.3339089,65.5307822 C86.3963978,65.5760044 86.4111978,65.66316 86.3659756,65.7264711 C86.3026644,65.8152711 86.2697756,65.92216 86.2738867,66.03316 C86.2853978,66.3168267 86.5221978,66.53636 86.8033978,66.5248489 C86.8815089,66.5248489 86.94482,66.5824044 86.9481089,66.6596933 C86.9513978,66.7369822 86.8913756,66.8019378 86.8140867,66.8044044 C86.8033978,66.8052267 86.7935311,66.8052267 86.7828422,66.8052267" id="Fill-50" fill="#FCFFFF" mask="url(#mask-6)"></path>
                    <path d="M90.2447267,65.8264533 C90.2463711,65.8848311 90.2397933,65.9448533 90.2249933,66.0056978 C90.2077267,66.07312 90.1797711,66.1356089 90.1427711,66.1931644 C90.1411267,66.1980978 90.13866,66.2022089 90.1345489,66.20632 C89.9873711,66.42832 89.7069933,66.5450756 89.4364822,66.4768311 L86.4181044,65.7121644 C86.35726,65.6973644 86.3029933,65.6726978 86.2528378,65.6447422 C86.0596156,65.5304533 85.9362822,65.3265422 85.9288822,65.1028978 C85.92806,65.0708311 85.9288822,65.0387644 85.9346378,65.0042311 C85.9346378,65.0042311 85.9338156,65.0017644 85.9338156,64.9992978 C85.9379267,64.9738089 85.9436822,64.9474978 85.9486156,64.9211867 C86.0357711,64.5750311 86.3909711,64.3628978 86.7371267,64.45252 L89.7555044,65.2171867 C89.9380378,65.2624089 90.0819267,65.3824533 90.1666156,65.5386756 C90.2143044,65.6250089 90.2414378,65.7236756 90.2447267,65.8264533" id="Fill-51" fill="#FF5745" mask="url(#mask-6)"></path>
                    <path d="M90.1664511,65.6787 C90.1171178,65.6787 90.0686067,65.6523889 90.04394,65.6055222 C89.9740511,65.4764333 89.85894,65.3876333 89.7216289,65.3531 L86.7032511,64.5876111 C86.6284289,64.5687 86.5832067,64.4930556 86.6021178,64.4182333 C86.6210289,64.3434111 86.6966733,64.2973667 86.7723178,64.3171 L89.7898733,65.0817667 C90.0044733,65.1352111 90.1820733,65.2733444 90.2889622,65.4723222 C90.3259622,65.5405667 90.3012956,65.6252556 90.2330511,65.6614333 C90.2116733,65.6729444 90.1886511,65.6787 90.1664511,65.6787" id="Fill-52" fill="#FCFFFF" mask="url(#mask-6)"></path>
                    <path d="M89.4361533,66.6165267 C89.4246422,66.6165267 89.4131311,66.6157044 89.40162,66.6124156 L86.3840644,65.8477489 C86.3166422,65.8304822 86.2508644,65.8041711 86.1834422,65.7663489 C85.9441756,65.6249267 85.7986422,65.3799044 85.7887426,65.1077489 C85.7871311,65.03046 85.8471533,64.9655044 85.9244422,64.9630378 C86.0033756,64.9646822 86.0658644,65.0214156 86.0691533,65.0978822 C86.0749089,65.27466 86.1694644,65.4333489 86.32322,65.5246156 C86.3659756,65.54846 86.4087311,65.5657267 86.4523089,65.5764156 L89.4706867,66.3419044 C89.5455089,66.3599933 89.5907311,66.43646 89.57182,66.5112822 C89.5561978,66.5745933 89.4986422,66.6165267 89.4361533,66.6165267" id="Fill-53" fill="#FCFFFF" mask="url(#mask-6)"></path>
                    <path d="M68.7931133,48.0824044 C67.6765356,48.0824044 66.6249133,47.7206267 65.7870689,47.0390044 C65.7270467,46.9904933 65.7180022,46.9025156 65.7665133,46.8424933 C65.8158467,46.7824711 65.9030022,46.7734267 65.9638467,46.8219378 C66.87898,47.5668711 68.0679133,47.9056267 69.3119356,47.7748933 C70.6718911,47.6334711 71.9323578,46.9567822 72.7710244,45.91996 C72.8195356,45.8599378 72.9075133,45.8508933 72.9675356,45.8994044 C73.0275578,45.9479156 73.0374244,46.0358933 72.9889133,46.0959156 C72.10338,47.1902933 70.7738467,47.9039822 69.3415356,48.0536267 C69.1573578,48.0725378 68.9740022,48.0824044 68.7931133,48.0824044" id="Fill-54" fill="#FCFFFF" mask="url(#mask-6)"></path>
                    <path d="M72.9074311,54.0515733 C72.88852,54.0515733 72.8687867,54.0474622 72.8498756,54.0384178 C71.4948533,53.4266844 70.6528978,52.0445289 70.7548533,50.5998844 C70.84612,49.3098178 71.6584756,48.17844 72.8753644,47.6472844 C72.9460756,47.61604 73.0282978,47.6489289 73.0595422,47.71964 C73.0907867,47.7903511 73.0578978,47.8725733 72.9871867,47.9038178 C71.8664978,48.39304 71.1174533,49.4339733 71.0344089,50.6196178 C70.9398533,51.9475067 71.7160311,53.2194844 72.9649867,53.7843511 C73.0356978,53.8155956 73.0669422,53.89864 73.0348756,53.9693511 C73.0110311,54.0203289 72.9600533,54.0515733 72.9074311,54.0515733" id="Fill-55" fill="#FCFFFF" mask="url(#mask-6)"></path>
                    <path d="M98.6203756,33.3418511 C98.5603533,33.3418511 98.5052644,33.3032067 98.4863533,33.2431844 C98.0415311,31.79114 97.4396644,30.3193622 96.6971978,28.86814 C96.6626644,28.7990733 96.6889756,28.7152067 96.7580422,28.6798511 C96.8271089,28.6444956 96.9109756,28.6716289 96.9463311,28.7406956 C97.6961978,30.2067178 98.3046422,31.6941178 98.7543978,33.1609622 C98.7765978,33.2349622 98.7354867,33.3130733 98.6614867,33.3360956 C98.6475089,33.3402067 98.6343533,33.3418511 98.6203756,33.3418511" id="Fill-56" fill="#FCFFFF" mask="url(#mask-6)"></path>
                    <path d="M93.5605844,24.0809978 C93.52194,24.0809978 93.4841178,24.0653756 93.4561622,24.0341311 C92.4398956,22.8937089 91.30934,21.8856644 90.0965622,21.0354867 C86.2798067,18.3624422 81.4122511,17.1225311 76.7436733,17.6298422 C76.6663844,17.6397089 76.59814,17.5829756 76.5890956,17.5065089 C76.5808733,17.4300422 76.6367844,17.3609756 76.7132511,17.3519311 C81.4492511,16.8363978 86.3850511,18.0960422 90.2568956,20.8069089 C91.4877622,21.6685978 92.63394,22.6922644 93.6650067,23.8483089 C93.7159844,23.9058644 93.7110511,23.9946644 93.6534956,24.0456422 C93.6271844,24.0694867 93.5934733,24.0809978 93.5605844,24.0809978" id="Fill-57" fill="#FCFFFF" mask="url(#mask-6)"></path>
                    <path d="M86.2476578,63.1943556 C84.3581911,63.1943556 82.5312133,62.8802667 80.8958133,62.2685333 C80.8234578,62.2414 80.7864578,62.1608222 80.8135911,62.0884667 C80.8407244,62.0161111 80.9213022,61.9791111 80.9936578,62.0062444 C83.0196133,62.7651556 85.34568,63.0562222 87.7219022,62.8506667 C87.7991911,62.8432667 87.8666133,62.9008222 87.8731911,62.9781111 C87.8797689,63.0545778 87.8230356,63.1228222 87.7457467,63.1294 C87.2433689,63.1729778 86.7434578,63.1943556 86.2476578,63.1943556" id="Fill-58" fill="#FCFFFF" mask="url(#mask-6)"></path>
                    <path d="M76.2071733,59.4879422 C76.1751067,59.4879422 76.1422178,59.4764311 76.1167289,59.4542311 C75.5748844,58.9888533 75.0560622,58.48072 74.57424,57.9429867 C74.5232622,57.8854311 74.5281956,57.7966311 74.5849289,57.7456533 C74.6424844,57.6938533 74.7312844,57.6987867 74.7830844,57.7563422 C75.2558622,58.2850311 75.76564,58.7849422 76.29844,59.2420978 C76.3568178,59.2922533 76.3633956,59.3802311 76.31324,59.4386089 C76.2861067,59.4706756 76.24664,59.4879422 76.2071733,59.4879422" id="Fill-59" fill="#FCFFFF" mask="url(#mask-6)"></path>
                    <path d="M62.7215778,54.1989156 C60.3198667,55.5744933 58.0793111,58.6866044 58.2388222,58.8272044 C58.6976222,59.2350267 62.1402667,57.6308711 62.7215778,56.97556 C63.3037111,56.3210711 63.5832667,53.70476 62.7215778,54.1989156" id="Fill-60" fill="#FFC3C0" mask="url(#mask-6)"></path>
                </g>
            </g>
        </g>
    </g>
</svg>