<?xml version="1.0" encoding="UTF-8"?>
<svg width="20px" height="14px" viewBox="0 0 20 14" version="1.1" xmlns="http://www.w3.org/2000/svg" xmlns:xlink="http://www.w3.org/1999/xlink" fill='#636366'>

        <path d="M10,12 C10.553,12 11,12.447 11,13 C11,13.553 10.553,14 10,14 L1,14 C0.448,14 0,13.553 0,13 C0,12.447 0.448,12 1,12 L10,12 Z M19,6 C19.553,6 20,6.448 20,7 C20,7.552 19.553,8 19,8 L1,8 C0.448,8 0,7.552 0,7 C0,6.448 0.448,6 1,6 L19,6 Z M19,0 C19.553,0 20,0.448 20,1 C20,1.552 19.553,2 19,2 L1,2 C0.448,2 0,1.552 0,1 C0,0.448 0.448,0 1,0 L19,0 Z" id="path-1"></path>
</svg>
