<svg xmlns="http://www.w3.org/2000/svg" width="15" height="15" viewBox="0 0 15 15">
    <g fill="#FFF" fill-rule="evenodd">
        <path d="M7.248 10.952v1.22c0 .058-.064.105-.144.105H1.678c-.08 0-.144-.047-.144-.104v-1.22c0-.058.064-.105.144-.105h5.426c.08 0 .144.047.144.104" opacity=".5"/>
        <path d="M12.962 5.255v1.187c0 .066-.111.12-.248.12H1.782c-.138 0-.248-.054-.248-.12V5.255c0-.067.11-.121.248-.121h10.932c.137 0 .248.054.248.12M12.962 8.112v1.187c0 .066-.111.12-.248.12H1.782c-.138 0-.248-.054-.248-.12V8.112c0-.067.11-.12.248-.12h10.932c.137 0 .248.053.248.12" opacity=".6"/>
        <path d="M12.962 2.36v1.262c0 .046-.162.083-.36.083H1.892c-.197 0-.358-.037-.358-.083V2.36c0-.046.16-.083.358-.083h10.71c.198 0 .36.037.36.083" opacity=".7"/>
    </g>
</svg>
