<?xml version="1.0" encoding="UTF-8"?>
<svg width="15px" height="15px" viewBox="0 0 15 15" version="1.1" xmlns="http://www.w3.org/2000/svg" xmlns:xlink="http://www.w3.org/1999/xlink">
        <path fill="#4c4b5e" d="M5.8375,1.87512495 C6.1825,1.87512495 6.4625,2.15512495 6.4625,2.50012495 C6.4625,2.84512495 6.1825,3.12512495 5.8375,3.12512495 L5.8375,3.12512495 L2.5,3.12512495 C2.155625,3.12512495 1.875,3.40574995 1.875,3.75012495 L1.875,3.75012495 L1.875,12.5001249 C1.875,12.8451249 2.155625,13.1251249 2.5,13.1251249 L2.5,13.1251249 L11.25,13.1251249 C11.595,13.1251249 11.875,12.8451249 11.875,12.5001249 L11.875,12.5001249 L11.875,9.16262495 C11.875,8.81699995 12.154375,8.53762495 12.5,8.53762495 C12.845625,8.53762495 13.125,8.81699995 13.125,9.16262495 L13.125,9.16262495 L13.125,12.5001249 C13.125,13.5338749 12.28375,14.3751249 11.25,14.3751249 L11.25,14.3751249 L2.5,14.3751249 C1.46625,14.3751249 0.625,13.5338749 0.625,12.5001249 L0.625,12.5001249 L0.625,3.75012495 C0.625,2.71637495 1.46625,1.87512495 2.5,1.87512495 L2.5,1.87512495 Z M10.8080624,0.80812501 C11.0524374,0.563750012 11.4474374,0.563750012 11.6918124,0.80812501 L11.6918124,0.80812501 L14.1918123,3.30812499 C14.4361873,3.55249999 14.4361873,3.94749998 14.1918123,4.19187498 L14.1918123,4.19187498 L7.94181238,10.4418749 C7.82493739,10.5593749 7.66556239,10.6249999 7.49993739,10.6249999 L7.49993739,10.6249999 L4.99993741,10.6249999 C4.65493741,10.6249999 4.37493742,10.3456249 4.37493742,9.99999993 L4.37493742,9.99999993 L4.37493742,7.49999995 C4.37493742,7.33437495 4.44118741,7.17499996 4.55806241,7.05812496 L4.55806241,7.05812496 Z M11.2499376,2.13374995 L5.62493742,7.75875016 L5.62493742,9.37500022 L7.24118748,9.37500022 L12.8661877,3.75000001 L11.2499376,2.13374995 Z" id="path-1"></path>
</svg>
