<?xml version="1.0" encoding="UTF-8"?>
<svg width="24px" height="24px" viewBox="0 0 24 24" version="1.1" xmlns="http://www.w3.org/2000/svg" xmlns:xlink="http://www.w3.org/1999/xlink" fill='#636366'>
    <path d="M5.1354,13 L12.0004,13 C12.2864,13 12.5604,13.123 12.7494,13.338 C12.9394,13.554 13.0284,13.84 12.9924,14.124 L12.4154,18.739 L18.8654,11 L12.0004,11 C11.7134,11 11.4404,10.877 11.2504,10.662 C11.0604,10.447 10.9724,10.161 11.0084,9.876 L11.5844,5.26 L5.1354,13 Z M10.9994,23 C10.8654,23 10.7304,22.973 10.6024,22.917 C10.1954,22.74 9.9524,22.316 10.0084,21.876 L10.8674,15 L3.0004,15 C2.6124,15 2.2594,14.775 2.0944,14.424 C1.9294,14.073 1.9834,13.658 2.2324,13.359 L12.2324,1.36 C12.5164,1.018 12.9924,0.907 13.3984,1.083 C13.8054,1.259 14.0474,1.684 13.9924,2.124 L13.1334,9 L21.0004,9 C21.3874,9 21.7414,9.225 21.9054,9.576 C22.0704,9.927 22.0164,10.342 21.7684,10.64 L11.7684,22.641 C11.5734,22.873 11.2904,23 10.9994,23 L10.9994,23 Z" id="path-1"></path>
</svg>
