<?xml version="1.0" encoding="UTF-8"?>
<svg width="20px" height="20px" viewBox="0 0 15 15" version="1.1" xmlns="http://www.w3.org/2000/svg" xmlns:xlink="http://www.w3.org/1999/xlink">
    <g id="ic_git" fill="#FFFFFF" fill-rule="nonzero">
        <path d="M7.5,0 C11.6421356,0 15,3.35786438 15,7.5 C15,11.6421356 11.6421356,15 7.5,15 C3.35786438,15 0,11.6421356 0,7.5 C0,3.35786438 3.35786438,0 7.5,0 Z M7.5,0.714285714 C3.75235348,0.714285714 0.714285714,3.75235348 0.714285714,7.5 C0.714285714,11.2476465 3.75235348,14.2857143 7.5,14.2857143 C11.2476465,14.2857143 14.2857143,11.2476465 14.2857143,7.5 C14.2857143,3.75235348 11.2476465,0.714285714 7.5,0.714285714 Z M7.08101667,3.16976604 C7.30756297,2.94341132 7.67456211,2.94341132 7.90071663,3.16976604 L7.90071663,3.16976604 L11.8301637,7.09919004 C12.0566121,7.32544681 12.0566121,7.69274678 11.8301637,7.9191015 L11.8301637,7.9191015 L7.91913025,11.8303074 C7.692486,12.0565642 7.32558481,12.0565642 7.09933234,11.8303074 L7.09933234,11.8303074 L3.16968935,7.90088342 C2.94343688,7.6745287 2.94343688,7.30752258 3.16968935,7.08097196 L3.16968935,7.08097196 L5.86415057,4.38665531 L6.88453941,5.40725948 C6.77993438,5.65780703 6.82900472,5.95732791 7.03302372,6.16125285 C7.09972412,6.22815041 7.17670873,6.27810321 7.25888441,6.31169891 L7.25888441,6.31169891 L7.25888441,8.78269718 C7.17670873,8.81639083 7.09952823,8.86673541 7.03302372,8.93324119 C6.76367554,9.2025945 6.76367554,9.6390448 7.03302372,9.9087899 C7.30217601,10.1780453 7.73891183,10.1780453 8.00826001,9.9087899 C8.27760819,9.6390448 8.27760819,9.2025945 8.00826001,8.93324119 C7.95350887,8.8786849 7.89150982,8.83529453 7.82588681,8.80277624 L7.82588681,8.80277624 L7.82588681,6.3545016 L8.75636233,7.2848969 C8.65371619,7.53446498 8.70376598,7.83222282 8.90641375,8.0349724 C9.17605576,8.3045216 9.61249776,8.3045216 9.88204182,8.0349724 C10.15139,7.76552114 10.15139,7.32897289 9.88204182,7.05971753 C9.68918853,6.86656672 9.41082943,6.81279401 9.16939552,6.89604867 L9.16939552,6.89604867 L8.17182781,5.89846197 C8.25508089,5.65702346 8.20111331,5.37885495 8.00826001,5.18590003 C7.81658205,4.99421843 7.54067157,4.93966214 7.30011917,5.02095786 L7.30011917,5.02095786 L6.26513655,3.98585759 Z" id="Combined-Shape"></path>
    </g>
</svg>
