<svg xmlns="http://www.w3.org/2000/svg" width="18" height="18" viewBox="0 0 18 18">
    <g fill="none" fill-rule="evenodd" transform="translate(1 1)">
        <circle cx="7.828" cy="7.828" r="7.828" stroke="#FFF" stroke-width=".783"/>
        <path fill="#FFF" fill-rule="nonzero" d="M9.785 13.072c0-.782-.235-1.252-.548-1.487 1.722-.235 3.6-.86 3.6-3.992 0-.861-.313-1.566-.782-2.192.078-.235.313-1.017-.078-2.113 0 0-.627-.235-2.114.86a9.025 9.025 0 0 0-2.035-.234 8.36 8.36 0 0 0-1.957.235c-1.487-1.018-2.192-.861-2.192-.861-.391 1.174-.078 1.957 0 2.191-.47.548-.783 1.253-.783 2.192 0 3.053 1.8 3.758 3.601 3.992-.235.235-.391.548-.47 1.096-.47.235-1.565.548-2.27-.704 0 0-.391-.783-1.174-.861 0 0-.783 0-.078.47 0 0 .548.234.86 1.174 0 0 .47 1.409 2.662.939V15.42a7.886 7.886 0 0 0 1.957.235c.705 0 1.331-.079 1.957-.235v-.157c-.156-.235-.156-1.174-.156-2.192z"/>
    </g>
</svg>
