<svg xmlns="http://www.w3.org/2000/svg" width="17" height="17" viewBox="0 0 17 17">
    <g fill="none" fill-rule="evenodd" transform="translate(1 1)">
        <circle cx="7.5" cy="7.5" r="7.5" stroke="#FFF" stroke-width=".75"/>
        <path fill="#FFF" fill-rule="nonzero" d="M9.375 12.525c0-.75-.225-1.2-.525-1.425 1.65-.225 3.45-.825 3.45-3.825 0-.825-.3-1.5-.75-2.1.075-.225.3-.975-.075-2.025 0 0-.6-.225-2.025.825A8.647 8.647 0 0 0 7.5 3.75c-.6 0-1.275.075-1.875.225C4.2 3 3.525 3.15 3.525 3.15c-.375 1.125-.075 1.875 0 2.1-.45.525-.75 1.2-.75 2.1 0 2.925 1.725 3.6 3.45 3.825-.225.225-.375.525-.45 1.05-.45.225-1.5.525-2.175-.675 0 0-.375-.75-1.125-.825 0 0-.75 0-.075.45 0 0 .525.225.825 1.125 0 0 .45 1.35 2.55.9v1.575c.6.15 1.2.225 1.875.225s1.275-.075 1.875-.225v-.15c-.15-.225-.15-1.125-.15-2.1z"/>
    </g>
</svg>
