<svg xmlns="http://www.w3.org/2000/svg" width="17" height="17" viewBox="0 0 17 17">
    <g fill="none" fill-rule="evenodd">
        <circle cx="7.5" cy="7.5" r="7.5" stroke="#FFF" stroke-width=".75" transform="translate(1 1)"/>
        <path fill="#FFF" d="M10.479 7.94L8.49 14.137 6.503 7.94h3.976zm-4.048 0l1.97 6.138L3.676 7.94h2.754zm-2.81.037l4.691 6.099-5.152-3.824a.397.397 0 0 1-.158-.357l.017-.08.601-1.838zm9.74 0l.601 1.838a.397.397 0 0 1-.082.38l-.06.057-5.153 3.824 4.694-6.099zm-.057-.037l-4.721 6.134L10.55 7.94h2.754zm-8.27-3.916c.063 0 .14.032.17.12l.61 1.886a2805.961 2805.961 0 0 0 .587 1.81l.01.032H3.657L4.86 4.146a.177.177 0 0 1 .134-.118l.039-.004zm6.916 0c.05 0 .109.02.146.074l.024.047 1.204 3.727H10.57l1.206-3.726a.177.177 0 0 1 .134-.118l.04-.004z"/>
    </g>
</svg>
