<?xml version="1.0" encoding="UTF-8"?>
<svg width="248px" height="234px" viewBox="0 0 248 234" version="1.1" xmlns="http://www.w3.org/2000/svg" xmlns:xlink="http://www.w3.org/1999/xlink">
    <!-- Generator: Sketch 63.1 (92452) - https://sketch.com -->
    <title>illustration/circles</title>
    <desc>Created with Sketch.</desc>
    <g id="Hypothesis" stroke="none" stroke-width="1" fill="none" fill-rule="evenodd">
        <g id="Hypotheses---0.0---Sem-hipótese" transform="translate(-1053.000000, -176.000000)">
            <g id="Group-8" transform="translate(750.000000, 117.000000)">
                <g id="illustration/htpothesis" transform="translate(125.000000, 0.000000)">
                    <path d="M261.279377,282.970551 C276.647798,281.870551 291.611787,280.070551 307.182424,279.570551 C317.495443,279.170551 326.595166,278.670551 336.099321,277.770551 C347.221205,276.770551 364.814003,275.870551 375.935886,275.070551 C385.642258,274.370551 387.866634,274.970551 395.955277,274.970551 C387.462202,275.570551 377.553615,276.670551 369.262756,277.070551 C356.927576,277.770551 344.187964,277.970551 331.852784,278.770551 C328.415111,278.970551 324.573005,279.170551 321.337548,279.870551 C317.495443,280.670551 314.05777,281.370551 309.811233,281.470551 C305.160263,281.570551 300.71151,281.270551 296.06054,281.470551 C291.611787,281.670551 287.365249,281.970551 282.916496,282.370551 C271.996828,283.270551 261.077161,283.570551 249.955277,284.170551" id="Path" fill="#000000" fill-rule="nonzero" opacity="0.260904948" transform="translate(322.955277, 279.450884) scale(-1, 1) rotate(-7.000000) translate(-322.955277, -279.450884) "></path>
                    <g id="Group-3" stroke-width="1" fill-rule="evenodd" transform="translate(178.000000, 141.000000)" opacity="0.133486793">
                        <g id="Group-2" transform="translate(26.000000, 14.000000)">
                            <g id="Group" transform="translate(140.000000, 0.000000)">
                                <g fill-rule="nonzero">
                                    <g id="Deploy_12_">
                                        <g id="Group">
                                            <g id="Group-6_12_">
                                                <g id="Group">
                                                    <g id="Group-17-Copy-7_12_">
                                                        <g id="Group">
                                                            <path d="M2.1,0.7 L79.9,0.6 C80.9,0.6 81.7,1.3 81.7,2.2 L81.7,26.7 C81.7,27.6 80.9,28.3 79.9,28.3 L2.1,28.4 C1.1,28.4 0.3,27.7 0.3,26.8 L0.3,2.3 C0.3,1.4 1.1,0.7 2.1,0.7 Z" id="Rectangle_12_" fill="#3F47D3"></path>
                                                            <path d="M77.5,6.1 L61.6,6.1 C60.7,6.1 60,5.4 60,4.5 L60,4.5 C60,3.6 60.7,2.9 61.6,2.9 L77.5,2.9 C78.4,2.9 79.1,3.6 79.1,4.5 L79.1,4.5 C79.2,5.4 78.4,6.1 77.5,6.1 Z" id="Path" fill="#26329E"></path>
                                                        </g>
                                                    </g>
                                                </g>
                                            </g>
                                        </g>
                                    </g>
                                    <path d="M32.6,14.1 L7.1,14.1 C6.2,14.1 5.4,13.4 5.4,12.4 L5.4,12.4 C5.4,11.5 6.1,10.7 7.1,10.7 L32.6,10.7 C33.5,10.7 34.3,11.4 34.3,12.4 L34.3,12.4 C34.3,13.3 33.6,14.1 32.6,14.1 Z" id="Path" fill="#26329E"></path>
                                </g>
                                <g transform="translate(5.000000, 3.000000)">
                                    <circle id="Oval" stroke="#26329E" stroke-width="0.4369" cx="3" cy="2.5" r="2"></circle>
                                    <rect id="Rectangle" fill="#26329E" fill-rule="nonzero" x="0.2" y="0" width="5.5" height="6"></rect>
                                </g>
                                <g id="Group-13_20_" transform="translate(6.000000, 17.000000)" fill="#26329E" fill-rule="nonzero">
                                    <path d="M3.6,7.5 C1.6,7.5 0,5.9 0,3.9 C0,1.9 1.6,0.3 3.6,0.3 C5.6,0.3 7.2,1.9 7.2,3.9 C7.2,5.9 5.6,7.5 3.6,7.5 Z" id="Combined-Shape_20_"></path>
                                </g>
                                <g id="Group-13_19_" transform="translate(15.000000, 17.000000)" fill="#26329E" fill-rule="nonzero">
                                    <path d="M3.7,7.5 C1.7,7.5 0.1,5.9 0.1,3.9 C0.1,1.9 1.7,0.3 3.7,0.3 C5.7,0.3 7.3,1.9 7.3,3.9 C7.3,5.9 5.7,7.5 3.7,7.5 Z" id="Combined-Shape_19_"></path>
                                </g>
                                <g id="Group-13_18_" transform="translate(24.000000, 17.000000)" fill="#26329E" fill-rule="nonzero">
                                    <path d="M3.9,7.5 C1.9,7.5 0.3,5.9 0.3,3.9 C0.3,1.9 1.9,0.3 3.9,0.3 C5.9,0.3 7.5,1.9 7.5,3.9 C7.5,5.9 5.9,7.5 3.9,7.5 Z" id="Combined-Shape_18_"></path>
                                </g>
                            </g>
                            <g id="Group-Copy-2" transform="translate(0.000000, 22.000000)">
                                <g id="Group">
                                    <g id="Deploy_12_">
                                        <g id="Group">
                                            <g id="Group-6_12_">
                                                <g id="Group">
                                                    <g id="Group-17-Copy-7_12_">
                                                        <g id="Group">
                                                            <path d="M2.1,0.7 L79.9,0.6 C80.9,0.6 81.7,1.3 81.7,2.2 L81.7,26.7 C81.7,27.6 80.9,28.3 79.9,28.3 L2.1,28.4 C1.1,28.4 0.3,27.7 0.3,26.8 L0.3,2.3 C0.3,1.4 1.1,0.7 2.1,0.7 Z" id="Rectangle_12_" fill="#0A84FF"></path>
                                                            <path d="M77.5,6.1 L61.6,6.1 C60.7,6.1 60,5.4 60,4.5 L60,4.5 C60,3.6 60.7,2.9 61.6,2.9 L77.5,2.9 C78.4,2.9 79.1,3.6 79.1,4.5 L79.1,4.5 C79.2,5.4 78.4,6.1 77.5,6.1 Z" id="Path" fill="#48A2FC"></path>
                                                        </g>
                                                    </g>
                                                </g>
                                            </g>
                                        </g>
                                    </g>
                                    <path d="M32.6,14.1 L7.1,14.1 C6.2,14.1 5.4,13.4 5.4,12.4 L5.4,12.4 C5.4,11.5 6.1,10.7 7.1,10.7 L32.6,10.7 C33.5,10.7 34.3,11.4 34.3,12.4 L34.3,12.4 C34.3,13.3 33.6,14.1 32.6,14.1 Z" id="Path" fill="#48A2FC"></path>
                                </g>
                                <g id="Group" transform="translate(5.000000, 3.000000)">
                                    <circle id="Oval" stroke="#26329E" stroke-width="0.4369" cx="3" cy="2.5" r="2"></circle>
                                    <rect id="Rectangle" fill="#48A2FC" x="0.2" y="0" width="5.5" height="6"></rect>
                                </g>
                                <g id="Group-13_20_" transform="translate(6.000000, 17.000000)" fill="#48A2FC">
                                    <path d="M3.6,7.5 C1.6,7.5 0,5.9 0,3.9 C0,1.9 1.6,0.3 3.6,0.3 C5.6,0.3 7.2,1.9 7.2,3.9 C7.2,5.9 5.6,7.5 3.6,7.5 Z" id="Combined-Shape_20_"></path>
                                </g>
                                <g id="Group-13_19_" transform="translate(15.000000, 17.000000)" fill="#48A2FC">
                                    <path d="M3.7,7.5 C1.7,7.5 0.1,5.9 0.1,3.9 C0.1,1.9 1.7,0.3 3.7,0.3 C5.7,0.3 7.3,1.9 7.3,3.9 C7.3,5.9 5.7,7.5 3.7,7.5 Z" id="Combined-Shape_19_"></path>
                                </g>
                                <g id="Group-13_18_" transform="translate(24.000000, 17.000000)" fill="#48A2FC">
                                    <path d="M3.9,7.5 C1.9,7.5 0.3,5.9 0.3,3.9 C0.3,1.9 1.9,0.3 3.9,0.3 C5.9,0.3 7.5,1.9 7.5,3.9 C7.5,5.9 5.9,7.5 3.9,7.5 Z" id="Combined-Shape_18_"></path>
                                </g>
                            </g>
                        </g>
                        <g id="Group-Copy">
                            <g id="Group" fill-rule="nonzero">
                                <g id="Deploy_12_">
                                    <g id="Group">
                                        <g id="Group-6_12_">
                                            <g id="Group">
                                                <g id="Group-17-Copy-7_12_">
                                                    <g id="Group">
                                                        <path d="M2.1,0.7 L79.9,0.6 C80.9,0.6 81.7,1.3 81.7,2.2 L81.7,26.7 C81.7,27.6 80.9,28.3 79.9,28.3 L2.1,28.4 C1.1,28.4 0.3,27.7 0.3,26.8 L0.3,2.3 C0.3,1.4 1.1,0.7 2.1,0.7 Z" id="Rectangle_12_" fill="#FFFFFF"></path>
                                                        <path d="M77.5,6.1 L61.6,6.1 C60.7,6.1 60,5.4 60,4.5 L60,4.5 C60,3.6 60.7,2.9 61.6,2.9 L77.5,2.9 C78.4,2.9 79.1,3.6 79.1,4.5 L79.1,4.5 C79.2,5.4 78.4,6.1 77.5,6.1 Z" id="Path" fill="#F1EDED"></path>
                                                    </g>
                                                </g>
                                            </g>
                                        </g>
                                    </g>
                                </g>
                                <path d="M32.6,14.1 L7.1,14.1 C6.2,14.1 5.4,13.4 5.4,12.4 L5.4,12.4 C5.4,11.5 6.1,10.7 7.1,10.7 L32.6,10.7 C33.5,10.7 34.3,11.4 34.3,12.4 L34.3,12.4 C34.3,13.3 33.6,14.1 32.6,14.1 Z" id="Path" fill="#F1EDED"></path>
                            </g>
                            <g id="Group" transform="translate(5.000000, 3.000000)">
                                <circle id="Oval" stroke="#26329E" stroke-width="0.4369" cx="3" cy="2.5" r="2"></circle>
                                <rect id="Rectangle" fill="#F1EDED" fill-rule="nonzero" x="0.2" y="0" width="5.5" height="6"></rect>
                            </g>
                            <g id="Group-13_20_" transform="translate(6.000000, 17.000000)" fill="#F1EDED" fill-rule="nonzero">
                                <path d="M3.6,7.5 C1.6,7.5 0,5.9 0,3.9 C0,1.9 1.6,0.3 3.6,0.3 C5.6,0.3 7.2,1.9 7.2,3.9 C7.2,5.9 5.6,7.5 3.6,7.5 Z" id="Combined-Shape_20_"></path>
                            </g>
                            <g id="Group-13_19_" transform="translate(15.000000, 17.000000)" fill="#F1EDED" fill-rule="nonzero">
                                <path d="M3.7,7.5 C1.7,7.5 0.1,5.9 0.1,3.9 C0.1,1.9 1.7,0.3 3.7,0.3 C5.7,0.3 7.3,1.9 7.3,3.9 C7.3,5.9 5.7,7.5 3.7,7.5 Z" id="Combined-Shape_19_"></path>
                            </g>
                            <g id="Group-13_18_" transform="translate(24.000000, 17.000000)" fill="#F1EDED" fill-rule="nonzero">
                                <path d="M3.9,7.5 C1.9,7.5 0.3,5.9 0.3,3.9 C0.3,1.9 1.9,0.3 3.9,0.3 C5.9,0.3 7.5,1.9 7.5,3.9 C7.5,5.9 5.9,7.5 3.9,7.5 Z" id="Combined-Shape_18_"></path>
                            </g>
                        </g>
                    </g>
                    <g id="Group" stroke-width="1" fill-rule="evenodd" transform="translate(240.000000, 59.000000)">
                        <path d="M90.7,55.9 C127.2,57.4 117.1,68.9 105.5,77.2 C104.7,77.7 106.7,78.7 107.3,78.4 C123.3,68.1 133.8,53.1 90.1,43.2 C88.2,42.8 88.8,55.8 90.7,55.9 Z" id="Path" fill="#161616" fill-rule="nonzero"></path>
                        <path d="M108,76.8 C107.4,76.1 100.1,78.6 100.5,79.9 C100.9,81.2 103.2,82.5 104,82.3 C104.8,82 107.4,80.3 107.9,79.6 C108.5,78.8 108.7,77.5 108,76.8 Z" id="Path" fill="#0E0E0E" fill-rule="nonzero"></path>
                        <g transform="translate(59.000000, 56.000000)">
                            <g id="Deploy_3_">
                                <g id="Group">
                                    <g id="Group-6_3_">
                                        <g id="Group">
                                            <g id="Group-17-Copy-7_3_">
                                                <g>
                                                    <path d="M2.8,0.3 L106.2,0.2 C107.5,0.2 108.6,1.3 108.6,2.6 L108.6,21.5 C108.6,22.8 107.5,23.9 106.2,23.9 L2.9,24 C1.6,24 0.5,22.9 0.5,21.6 L0.5,2.7 C0.4,1.4 1.5,0.3 2.8,0.3 Z" id="Rectangle_3_" fill="#10AA80"></path>
                                                    <path d="M104.85625,7.1 L101.54375,7.1 C101.35625,7.1 101.2,6.19090909 101.2,5.1 L101.2,5.1 C101.2,4.00909091 101.35625,3.1 101.54375,3.1 L104.85625,3.1 C105.04375,3.1 105.2,4.00909091 105.2,5.1 L105.2,5.1 C105.2,6.19090909 105.059375,7.1 104.85625,7.1 Z" id="Path" fill="#0E916D"></path>
                                                    <path d="M43,7.5 L21.8,7.5 C20.6,7.5 19.6,6.5 19.6,5.3 L19.6,5.3 C19.6,4.1 20.6,3.1 21.8,3.1 L43,3.1 C44.2,3.1 45.2,4.1 45.2,5.3 L45.2,5.3 C45.2,6.5 44.3,7.5 43,7.5 Z" id="Path-Copy" fill="#0E916D"></path>
                                                    <g id="Group-13_3_" transform="translate(7.000000, 3.000000)" fill="#26329E">
                                                        <path d="M3.5,6.5 C1.9,6.5 0.7,5.2 0.7,3.7 C0.7,2.1 2,0.9 3.5,0.9 C5.1,0.9 6.3,2.2 6.3,3.7 C6.3,5.3 5,6.5 3.5,6.5 Z" id="Combined-Shape_3_"></path>
                                                    </g>
                                                </g>
                                            </g>
                                        </g>
                                    </g>
                                </g>
                            </g>
                            <path d="M66.681201,18.1 L10.918799,18.1 C8.94490862,18.1 7.3,17.1 7.3,15.9 L7.3,15.9 C7.3,14.7 8.94490862,13.7 10.918799,13.7 L66.681201,13.7 C68.6550914,13.7 70.3,14.7 70.3,15.9 L70.3,15.9 C70.3,17.1 68.6550914,18.1 66.681201,18.1 Z" id="Path" fill="#0E916D"></path>
                        </g>
                        <path d="M54.3,12.2 C62,10.6 69.5,-5.4 77.5,2.1 C96.7,20.1 77.1,54.8 75,57.4 C72.8,60 75.6,72.1 70.8,77.6 C64.9,84.3 56.4,77.1 48.9,82.7 C45.4,85.3 45.6,92.2 37.9,92.4 C29.5,92.6 28.2,86.4 23.6,86.9 C13.9,88 8.1,96.5 2.9,89.9 C-3,82.2 9,72.6 10.1,68.8 C12.5,60.5 -2.6,59.2 0.4,47.3 C3.2,36.1 15.7,36.1 21.9,30.4 C29.9,23.2 27.3,10.4 35,7.2 C43.6,3.5 46.1,14 54.3,12.2 Z" id="Path" fill="#0E0E0E" fill-rule="nonzero"></path>
                        <path d="M111.4,78.6 C110.8,79 103.6,81.8 103,81.3 C102.5,80.8 105.4,76.8 106.7,76.9 C108,77 112,78.1 111.4,78.6 Z" id="Path" fill="#0E0E0E" fill-rule="nonzero"></path>
                        <path d="M23.4,194.9 C22.9,196.9 15,208.7 13.8,208.5 C11.8,208.1 18.4,192.7 20.2,192.2 C22.6,191.7 23.6,193.8 23.4,194.9 Z" id="Path" fill="#0C0C0C" fill-rule="nonzero"></path>
                        <path d="M91.8,121.4 C87.2,164 24.6,195.5 22.2,194.4 C19.9,193.3 20.6,191.7 22.2,191 C53.7,177.2 70.2,134.1 73.6,108.8 C74.2,104.8 92.3,116.9 91.8,121.4 Z" id="Path" fill="#131313" fill-rule="nonzero"></path>
                        <g transform="translate(18.000000, 112.000000)" fill="#0C0C0C" fill-rule="nonzero" id="Path">
                            <path d="M56,6.8 C61.3,9.7 65.8,25.6 61.2,37.7 C59.2,43 67.9,30.1 67.9,30.1 L74.7,15.3 L60.7,3 L54.4,0 C54.5,0.1 54.3,5.8 56,6.8 Z"></path>
                            <path d="M0.3,82.3 C27.9,72.3 60.7,34.3 65.4,7 L64.6,6.9 C62.4,19.9 53.6,35.9 40.6,50.9 C27.7,65.7 12.9,76.9 0.1,81.6 L0.3,82.3 Z"></path>
                        </g>
                        <path d="M144.5,216.2 C147.2,217.6 155.9,230.3 155,231.8 C154.2,233.3 142.3,221.8 141.9,220.4 C141.1,217.6 143.5,215.7 144.5,216.2 Z" id="Path" fill="#0C0C0C" fill-rule="nonzero"></path>
                        <path d="M77.9,96.9 C69.3,101.8 70.6,115.5 74.1,117.6 C123.9,146.2 141.2,198.6 142.8,217.1 C143,218.9 144.9,217.7 144.9,215.8 C146.6,153.3 99.3,101.3 88.8,96 C85.2,94.3 81.9,94.6 77.9,96.9 Z" id="Path" fill="#131313" fill-rule="nonzero"></path>
                        <g transform="translate(71.000000, 98.000000)" fill-rule="nonzero" id="Path">
                            <path d="M11.6,1.5 C11.8,3.3 2.1,3.8 0.6,5.7 C-0.8,7.6 2.3,1.1 2.3,1.1 C2.3,1.1 11.4,-0.3 11.6,1.5 Z" fill="#131313"></path>
                            <path d="M71.7,121.2 C72.9,107.9 64.6,81.5 52.1,58.4 C45,45.3 36.7,33.7 28.3,25 C18.3,14.8 12.1,10.3 1.8,7.6 C1.6,7.5 1.3,7.7 1.3,7.9 C1.2,8.1 1.4,8.4 1.6,8.4 C12.6,11.2 30.2,19.7 51.4,58.7 C65.6,84.7 71.9,109.8 70.9,121 C70.9,121.4 71.1,121.6 71.3,121.6 C71.5,121.6 71.7,121.4 71.7,121.2 Z" fill="#0C0C0C"></path>
                        </g>
                        <path d="M67.1,47.1 C76.4,68.1 78.1,85.6 77.4,96.5 C77.3,98.5 88.7,100.8 90.9,97.1 C91.9,95.5 94.6,74.9 93.7,66.9 C95.7,66 97.7,62.5 96.9,60.6 C93.6,52.6 94,44.3 94,44.3 C94,44.3 89.7,43 86.8,41.3 C85.7,40.7 84.9,42.4 84.2,41.7 C82.8,40.3 79.6,40.9 78.7,41.7 C78.1,42.3 76.8,40.9 76.3,41.4 C73.9,43.6 71.5,44.9 67.1,47.1 Z" id="Path" fill="#161616" fill-rule="nonzero"></path>
                        <path d="M94.8,61.2 C93.6,61.4 80.1,63.1 78.4,62.5 C76.7,61.9 74.3,65.6 75.4,66.7 C77,68.2 89.3,67.2 91.4,66.7 C93.1,66.3 94.4,64.6 94.4,64.6 C94.4,64.6 96,61 94.8,61.2 Z" id="Path" fill="#111111" fill-rule="nonzero"></path>
                        <path d="M72.1,99.7 C73.5,100.1 82.4,101.3 82.7,99.3 C82.9,97.3 73.3,96.5 72.2,97.6 C71.1,98.6 70.6,99.3 72.1,99.7 Z" id="Path" fill="#0E0E0E" fill-rule="nonzero"></path>
                        <path d="M68.2,46.4 C70.8,45.3 75.1,55.8 73.7,56.1 C67.1,57.6 45.7,90.5 72.9,97 C74.1,97.3 73.3,99.7 71.2,99.5 C42.4,96.5 48.1,54.8 68.2,46.4 Z" id="Path" fill="#161616" fill-rule="nonzero"></path>
                        <path d="M79.6,12.5 C86.2,16.1 89.3,31.6 87,32.7 C85.3,33.5 82.9,31.8 82.9,31.8 C82.9,31.8 82.3,39.1 87.8,41.6 C85.9,44.1 79.2,45 76.2,41.4 C80,38.7 78.3,30.7 77.7,28.5 C73,12.3 76.5,10.7 79.6,12.5 Z" id="Path" fill="#1D1D1D" fill-rule="nonzero"></path>
                        <path d="M84.3,32.5 C82.7,31.8 79.8,29.9 78,26.2 C78.2,27.1 77.2,28.7 77.2,28.7 L77.6,38 C77.5,38 78.9,34.9 84.3,32.5 Z" id="Path" fill="#000000" fill-rule="nonzero"></path>
                        <path d="M78.7,10.8 C79.6,12.6 79.2,29.9 75.5,33.3 C71.8,36.7 68.8,26.8 68.8,26.8 L71.7,13.2 C71.7,13.2 77.8,8.9 78.7,10.8 Z" id="Path" fill="#0E0E0E" fill-rule="nonzero"></path>
                    </g>
                </g>
            </g>
        </g>
    </g>
</svg>