<?xml version="1.0" encoding="UTF-8"?>
<svg width="20px" height="16px" viewBox="2 5 20 14" version="1.1" xmlns="http://www.w3.org/2000/svg" xmlns:xlink="http://www.w3.org/1999/xlink">
        <path fill='#636366' d="M20,13 C21.1045695,13 22,13.8954305 22,15 L22,17 C22,18.1045695 21.1045695,19 20,19 L4,19 C2.8954305,19 2,18.1045695 2,17 L2,15 C2,13.8954305 2.8954305,13 4,13 L20,13 Z M19.5,15 L4.5,15 C4.22385763,15 4,15.2238576 4,15.5 L4,15.5 L4,16.5 C4,16.7761424 4.22385763,17 4.5,17 L4.5,17 L19.5,17 C19.7761424,17 20,16.7761424 20,16.5 L20,16.5 L20,15.5 C20,15.2238576 19.7761424,15 19.5,15 L19.5,15 Z M20,5 C21.1045695,5 22,5.8954305 22,7 L22,9 C22,10.1045695 21.1045695,11 20,11 L4,11 C2.8954305,11 2,10.1045695 2,9 L2,7 C2,5.8954305 2.8954305,5 4,5 L20,5 Z M19.5,7 L4.5,7 C4.22385763,7 4,7.22385763 4,7.5 L4,7.5 L4,8.5 C4,8.77614237 4.22385763,9 4.5,9 L4.5,9 L19.5,9 C19.7761424,9 20,8.77614237 20,8.5 L20,8.5 L20,7.5 C20,7.22385763 19.7761424,7 19.5,7 L19.5,7 Z" id="path-1"></path>
</svg>
