<?xml version="1.0" encoding="UTF-8"?>
<svg width="11px" height="13px" viewBox="0 0 11 13" version="1.1" xmlns="http://www.w3.org/2000/svg" xmlns:xlink="http://www.w3.org/1999/xlink">
    <!-- Generator: sketchtool 59.1 (101010) - https://sketch.com -->
    <title>0E6FF5F3-4F0C-4816-8CAA-B8BCD66CEAD2</title>
    <desc>Created with sketchtool.</desc>
    <defs>
        <path d="M2.70833333,2.58970832 L2.70833333,6.50000014 C2.70833333,8.96404191 5.62791667,10.805167 6.49945833,11.300792 C7.37045833,10.8046253 10.2916667,8.95700025 10.2916667,6.50000014 L10.2916667,2.58970832 L6.5,1.64179161 L2.70833333,2.58970832 Z M6.5,12.4583333 C6.417125,12.4583333 6.33370833,12.439375 6.257875,12.4014583 C6.06883333,12.3066667 1.625,10.044125 1.625,6.5 L1.625,2.16666667 C1.625,1.91804167 1.79454167,1.701375 2.03504167,1.64125 L6.368375,0.557916667 C6.45504167,0.53625 6.54495833,0.53625 6.631625,0.557916667 L10.9644167,1.64125 C11.206,1.701375 11.375,1.91804167 11.375,2.16666667 L11.375,6.5 C11.375,10.044125 6.93116667,12.3066667 6.742125,12.4014583 C6.66629167,12.439375 6.582875,12.4583333 6.5,12.4583333 L6.5,12.4583333 Z" id="path-1"></path>
    </defs>
    <g id="Permissions" stroke="none" stroke-width="1" fill="none" fill-rule="evenodd" opacity="0.5">
        <g id="Permissions---2.3" transform="translate(-352.000000, -738.000000)">
            <g id="card/tenant/1-copy-2-card/tenant" transform="translate(323.000000, 668.000000)">
                <g id="text/14px/black" transform="translate(28.000000, 68.000000)">
                    <g id="Icon/Security/Shield" transform="translate(0.000000, 2.000000)">
                        <mask id="mask-2" fill="white">
                            <use xlink:href="#path-1"></use>
                        </mask>
                        <use id="Icon-Shield" fill="#FAFAFB" xlink:href="#path-1"></use>
                    </g>
                </g>
            </g>
        </g>
    </g>
</svg>