<svg width="24px" height="24px" viewBox="0 0 24 24" version="1.1" xmlns="http://www.w3.org/2000/svg" xmlns:xlink="http://www.w3.org/1999/xlink">
    <path d="M18.7124,10.7075 C18.5124,10.8975 18.2624,10.9975 18.0024,10.9975 C17.7424,10.9975 17.4924,10.8975 17.2924,10.7075 L13.0024,6.4075 L13.0024,19.9975 C13.0024,20.5475 12.5524,20.9975 12.0024,20.9975 C11.4524,20.9975 11.0024,20.5475 11.0024,19.9975 L11.0024,6.4075 L6.7124,10.7075 C6.3224,11.0975 5.6824,11.0975 5.2924,10.7075 C4.9024,10.3175 4.9024,9.6775 5.2924,9.2875 L11.2924,3.2875 C11.3824,3.1975 11.4924,3.1275 11.6124,3.0775 C11.6624,3.0575 11.7024,3.0375 11.7524,3.0375 C11.9124,2.9875 12.0924,2.9875 12.2524,3.0375 C12.3024,3.0375 12.3424,3.0575 12.3924,3.0775 C12.5124,3.1275 12.6224,3.1975 12.7124,3.2875 L18.7124,9.2875 C19.1024,9.6775 19.1024,10.3175 18.7124,10.7075" fill="#636366" transform="translate(12.002400, 11.998750) rotate(-90.000000) translate(-12.002400, -11.998750) "></path>
</svg>