<?xml version="1.0" encoding="UTF-8"?>
<svg width="15px" height="15px" viewBox="0 0 15 15" version="1.1" xmlns="http://www.w3.org/2000/svg" xmlns:xlink="http://www.w3.org/1999/xlink">
    <!-- Generator: sketchtool 61.2 (101010) - https://sketch.com -->
    <title>1DB3D779-4F94-45D6-9EE4-62F2E62A64BB</title>
    <desc>Created with sketchtool.</desc>
    <defs>
        <path d="M7.5,0.625 C11.290625,0.625 14.375,3.709375 14.375,7.5 C14.375,11.290625 11.290625,14.375 7.5,14.375 C3.709375,14.375 0.625,11.290625 0.625,7.5 C0.625,3.709375 3.709375,0.625 7.5,0.625 Z M7.5,1.875 C4.39875,1.875 1.875,4.39875 1.875,7.5 C1.875,10.601875 4.39875,13.125 7.5,13.125 C10.601875,13.125 13.125,10.601875 13.125,7.5 C13.125,4.39875 10.601875,1.875 7.5,1.875 Z M7.94375,9.55749981 C8,9.61374981 8.04375,9.6824998 8.075,9.7637498 C8.1125,9.8387498 8.125,9.91999979 8.125,10.0012498 C8.125,10.1699998 8.0625,10.3262498 7.94375,10.4387498 C7.825,10.5574998 7.66875,10.6262498 7.5,10.6262498 C7.33125,10.6262498 7.175,10.5574998 7.05625,10.4387498 C6.9375,10.3262498 6.875,10.1699998 6.875,10.0012498 C6.875,9.91999979 6.89375,9.8387498 6.925,9.7637498 C6.95625,9.6824998 7,9.61374981 7.05625,9.55749981 C7.11875,9.50124981 7.18125,9.45124981 7.2625,9.41937482 C7.4875,9.32624982 7.76875,9.38249982 7.94375,9.55749981 Z M7.5,4.375 C7.845,4.375 8.125,4.655 8.125,5 L8.125,7.5 C8.125,7.845 7.845,8.125 7.5,8.125 C7.155,8.125 6.875,7.845 6.875,7.5 L6.875,5 C6.875,4.655 7.155,4.375 7.5,4.375 Z" id="path-1"></path>
    </defs>
    <g id="Asset-Artboard-Page" stroke="none" stroke-width="1" fill="none" fill-rule="evenodd">
        <g id="Icon/Card/Info">
            <mask id="mask-2" fill="white">
                <use xlink:href="#path-1"></use>
            </mask>
            <use id="icon-card-info" fill="#FFFFFF" transform="translate(7.500000, 7.500000) rotate(-180.000000) translate(-7.500000, -7.500000) " xlink:href="#path-1"></use>
        </g>
    </g>
</svg>