<svg xmlns="http://www.w3.org/2000/svg" width="21" height="21" viewBox="0 0 21 21">
    <g fill="#FFF" fill-rule="evenodd">
        <path d="M10.147 15.333v1.709c0 .08-.09.146-.202.146H2.35c-.112 0-.202-.065-.202-.146v-1.709c0-.08.09-.145.202-.145h7.596c.112 0 .202.065.202.145" opacity=".5"/>
        <path d="M18.147 7.357v1.661c0 .094-.156.17-.347.17H2.495c-.193 0-.348-.076-.348-.17V7.357c0-.093.155-.17.348-.17H17.8c.191 0 .347.077.347.17M18.147 11.357v1.661c0 .094-.156.17-.347.17H2.495c-.193 0-.348-.076-.348-.17v-1.661c0-.093.155-.17.348-.17H17.8c.191 0 .347.077.347.17" opacity=".6"/>
        <path d="M18.147 3.304v1.767c0 .064-.227.117-.504.117H2.65c-.277 0-.503-.053-.503-.117V3.304c0-.064.226-.116.503-.116h14.993c.277 0 .504.052.504.116" opacity=".7"/>
    </g>
</svg>
