<svg xmlns="http://www.w3.org/2000/svg" width="40" height="39" viewBox="0 0 40 39">
    <path fill="#FFF" fill-rule="nonzero" d="M20.026.128c.477 0 .955.106 1.38.319L34.83 6.84c.875.424 1.512 1.194 1.724 2.149l3.317 14.407a3.2 3.2 0 0 1-.61 2.706l-9.287 11.541c-.61.743-1.512 1.194-2.467 1.194l-14.964.027a3.13 3.13 0 0 1-2.468-1.194L.79 26.13c-.61-.77-.849-1.752-.61-2.707L3.496 9.017c.213-.956.85-1.725 1.725-2.15L18.646.447a3.096 3.096 0 0 1 1.38-.319zm0 5.545a.852.852 0 0 0-.584.266.816.816 0 0 0-.232.493l-.007.117v.212c0 .186.027.345.08.504.026.08.026.16.053.266v.026c.053.53.133 1.008.08 1.433-.027.186-.133.265-.213.345l-.033.033-.02.02-.026.345c-.478.053-.955.106-1.433.212a10.228 10.228 0 0 0-5.253 2.972l-.266-.186h-.053c-.053 0-.106.027-.159.027a.428.428 0 0 1-.239-.08c-.287-.2-.575-.472-.877-.787l-.184-.195c-.053-.053-.106-.132-.186-.185a4.406 4.406 0 0 0-.345-.372c-.026-.026-.08-.053-.132-.106-.018-.018-.036-.024-.045-.033l-.008-.02a.927.927 0 0 0-.584-.212.755.755 0 0 0-.61.291c-.243.317-.197.789.099 1.11l.086.084c.027 0 .027.027.054.027.053.026.08.08.132.106.16.106.292.186.451.265a.758.758 0 0 1 .16.081l.079.052c.478.292.876.53 1.194.823.133.132.133.265.133.398v.053l.265.238c-.053.08-.106.133-.133.213-1.326 2.096-1.83 4.563-1.486 7.004l-.344.106c0 .027-.027.027-.027.053a.617.617 0 0 1-.292.292c-.398.133-.875.186-1.433.239h-.026c-.08 0-.186 0-.265.026-.16 0-.319.027-.505.053-.053 0-.106.027-.159.027-.017 0-.035 0-.053.008l-.026.019c-.478.106-.77.557-.69.981.08.372.424.61.849.61.053 0 .094 0 .14-.007l.072-.02c.027 0 .053 0 .053-.026.053 0 .106-.026.16-.026.185-.053.318-.106.477-.186.08-.026.16-.08.239-.106h.026c.504-.186.955-.345 1.38-.398h.053c.16 0 .265.08.345.133.018 0 .024.011.033.02l.02.006.371-.053a10.493 10.493 0 0 0 3.476 4.988c.372.292.743.53 1.141.77l-.16.344c0 .027.027.027.027.054.053.106.106.238.053.424-.159.398-.398.796-.69 1.247v.027c-.052.08-.106.132-.159.212-.106.133-.185.265-.291.424-.027.027-.054.08-.08.133 0 .018-.012.035-.02.045l-.007.008c-.212.451-.053.955.345 1.141.106.053.213.08.319.08.283 0 .566-.168.737-.41l.059-.095c0-.026.026-.053.026-.053.027-.053.053-.106.08-.132.08-.186.106-.319.159-.478l.04-.12.04-.119c.185-.53.318-.955.557-1.326.106-.16.239-.186.345-.239.017 0 .023 0 .033-.008l.02-.019.185-.344c1.168.45 2.441.69 3.715.69.77 0 1.565-.08 2.308-.266.478-.106.929-.239 1.38-.398l.16.292c.026 0 .026 0 .052.026.133.027.239.08.345.24.212.37.371.822.557 1.326v.026l.08.24c.053.158.08.318.159.477.027.053.053.08.08.132 0 .018.011.036.02.046l.006.007c.16.319.478.505.796.505a.706.706 0 0 0 .318-.08c.186-.106.345-.265.398-.478a1.005 1.005 0 0 0-.008-.555l-.045-.108c0-.026-.026-.026-.026-.053-.027-.053-.053-.106-.08-.133-.08-.159-.185-.291-.292-.424-.053-.08-.106-.133-.159-.212v-.027c-.292-.451-.557-.849-.69-1.247-.053-.186 0-.292.027-.424 0-.018.012-.024.02-.034l.006-.02-.132-.318a10.28 10.28 0 0 0 3.502-3.423c.478-.742.849-1.565 1.114-2.387l.319.053c.026 0 .026-.027.053-.027.106-.053.186-.133.345-.133h.053c.424.054.875.213 1.38.398h.026c.08.027.16.08.239.107.159.08.292.132.477.185.053 0 .106.027.16.027.017 0 .035 0 .053.008l.026.018c.08.027.133.027.212.027a.893.893 0 0 0 .85-.61c0-.29-.242-.667-.644-.833l-.126-.043h-.027c-.026 0-.053 0-.053-.026-.053 0-.106-.027-.159-.027-.186-.026-.345-.053-.504-.053-.08 0-.16 0-.265-.027h-.027c-.557-.053-1.008-.106-1.433-.238a.517.517 0 0 1-.291-.292c0-.018-.012-.024-.02-.034l-.007-.02-.345-.105c.16-1.22.106-2.494-.186-3.741a10.932 10.932 0 0 0-1.485-3.476l.265-.239v-.053a.6.6 0 0 1 .133-.398c.254-.233.56-.433.917-.653l.277-.17c.08-.052.159-.079.238-.132.16-.08.292-.16.451-.265.027-.027.08-.053.133-.106.018-.018.035-.024.045-.034l.008-.02c.372-.318.451-.849.186-1.193a.755.755 0 0 0-.61-.292.91.91 0 0 0-.472.139l-.112.073-.053.053c-.053.027-.08.08-.133.106-.132.133-.239.239-.345.372-.035.035-.07.082-.114.125l-.071.06c-.372.398-.717.717-1.062.955a.428.428 0 0 1-.238.08c-.054 0-.107 0-.16-.026h-.053l-.318.212c-.345-.372-.716-.69-1.088-1.008a10.596 10.596 0 0 0-5.545-2.203l-.027-.345-.053-.053c-.08-.08-.185-.159-.212-.344-.026-.425.027-.903.08-1.433v-.027c0-.08.026-.185.053-.265.026-.16.053-.318.08-.504v-.239c0-.478-.372-.876-.823-.876zm.239 18.44c.1.06.184.134.253.213l.065.079 2.043 3.688c-.239.08-.504.133-.77.212-.61.133-1.22.212-1.857.212a8.99 8.99 0 0 1-2.68-.424l2.097-3.794c.212-.239.557-.345.849-.186zm-3.131-1.247c.02.12.025.224.004.325l-.03.1-1.62 3.9a8.363 8.363 0 0 1-3.316-4.166l4.219-.716a.715.715 0 0 1 .743.557zm6.42-.584L27.8 23a5.34 5.34 0 0 1-.77 1.618c-.663 1.062-1.539 1.91-2.547 2.574l-1.671-4.006a.714.714 0 0 1 .371-.823.847.847 0 0 1 .372-.08zm-2.918-3.422l.796 1.008-.265 1.247-1.168.557-1.167-.557-.292-1.247.796-1.008h1.3zm6.447-3.025a8.5 8.5 0 0 1 1.009 2.52c.212.903.265 1.805.185 2.68l-4.06-1.167a.72.72 0 0 1-.503-.849.632.632 0 0 1 .159-.292l3.21-2.892zm-14.194 0l3.157 2.813c.292.238.318.69.08.981a.528.528 0 0 1-.319.213l-4.112 1.193a8.541 8.541 0 0 1 1.194-5.2zm6.076-3.927l-.24 4.246c-.026.371-.318.69-.716.69a.63.63 0 0 1-.318-.08l-3.529-2.52a8.094 8.094 0 0 1 3.954-2.176c.291-.053.557-.106.849-.16zm2.069.027a8.053 8.053 0 0 1 4.776 2.308l-3.476 2.468a.707.707 0 0 1-.929-.16c-.08-.079-.106-.185-.132-.291l-.239-4.325z"/>
</svg>
