<svg width="24px" height="24px" viewBox="0 0 24 24" version="1.1" xmlns="http://www.w3.org/2000/svg" xmlns:xlink="http://www.w3.org/1999/xlink">
    <defs>
        <path d="M20,13 C21.1045695,13 22,13.8954305 22,15 L22,21 C22,22.1045695 21.1045695,23 20,23 L4,23 C2.8954305,23 2,22.1045695 2,21 L2,15 C2,13.8954305 2.8954305,13 4,13 L20,13 Z M19.5,15 L4.5,15 C4.22385763,15 4,15.2238576 4,15.5 L4,15.5 L4,20.5 C4,20.7761424 4.22385763,21 4.5,21 L4.5,21 L19.5,21 C19.7761424,21 20,20.7761424 20,20.5 L20,20.5 L20,15.5 C20,15.2238576 19.7761424,15 19.5,15 L19.5,15 Z M14,1 C15.1045695,1 16,1.8954305 16,3 L16,9 C16,10.1045695 15.1045695,11 14,11 L4,11 C2.8954305,11 2,10.1045695 2,9 L2,3 C2,1.8954305 2.8954305,1 4,1 L14,1 Z M13.5,3 L4.5,3 C4.22385763,3 4,3.22385763 4,3.5 L4,3.5 L4,8.5 C4,8.77614237 4.22385763,9 4.5,9 L4.5,9 L13.5,9 C13.7761424,9 14,8.77614237 14,8.5 L14,8.5 L14,3.5 C14,3.22385763 13.7761424,3 13.5,3 L13.5,3 Z" id="path-1"></path>
    </defs>
        <use id="Icon-Kanban" fill="#F4F4FA" transform="translate(12.000000, 12.000000) rotate(90.000000) translate(-12.000000, -12.000000) " xlink:href="#path-1"></use>
</svg>