<?xml version="1.0" encoding="UTF-8"?>
<svg width="16px" height="15px" viewBox="0 0 16 15" version="1.1" xmlns="http://www.w3.org/2000/svg" xmlns:xlink="http://www.w3.org/1999/xlink">
    <path d="M14.3096249,10.3456251 C14.4639999,10.6543751 14.3383749,11.0293751 14.0296249,11.1843751 L7.77962497,14.309375 C7.69212497,14.353125 7.59587497,14.375 7.50024997,14.375 C7.40462497,14.375 7.30837497,14.353125 7.22087497,14.309375 L0.970874997,11.1843751 C0.662124998,11.0293751 0.536499999,10.6543751 0.690874998,10.3456251 C0.845874998,10.0368751 1.220875,9.91250014 1.52962499,10.0656251 L7.50024997,13.05125 L13.4708749,10.0656251 C13.7802499,9.91250014 14.1539999,10.0368751 14.3096249,10.3456251 Z M14.3096249,7.22062501 C14.4639999,7.52937501 14.3383749,7.90437501 14.0296249,8.05937501 L7.77962497,11.184375 C7.69212497,11.228125 7.59587497,11.25 7.50024997,11.25 C7.40462497,11.25 7.30837497,11.228125 7.22087497,11.184375 L0.970874997,8.05937501 C0.662124998,7.90437501 0.536499999,7.52937501 0.690874998,7.22062501 C0.845874998,6.91250001 1.220875,6.78562501 1.52962499,6.94062501 L7.50024997,9.92625 L13.4708749,6.94062501 C13.7802499,6.78687501 14.1539999,6.91187501 14.3096249,7.22062501 Z M7.7795,0.690625 L14.0295,3.815625 C14.241375,3.921875 14.375125,4.138125 14.375125,4.375 C14.375125,4.611875 14.241375,4.828125 14.0295,4.934375 L7.7795,8.059375 C7.692,8.103125 7.59575,8.125 7.500125,8.125 C7.4045,8.125 7.308875,8.103125 7.22075,8.059375 L0.970749999,4.934375 C0.758874999,4.828125 0.625124999,4.611875 0.625124999,4.375 C0.625124999,4.138125 0.758874999,3.921875 0.970749999,3.815625 L7.22075,0.690625 C7.396375,0.603125 7.603875,0.603125 7.7795,0.690625 Z M7.50012495,1.94875002 L2.64762498,4.375 L7.50012495,6.80124998 L12.3526249,4.375 L7.50012495,1.94875002 Z" id="path-1"></path>
</svg>