<svg xmlns="http://www.w3.org/2000/svg" width="23" height="16" viewBox="0 0 23 16">
    <g fill="#FFF" fill-rule="nonzero">
        <path d="M22.55 1.778h-.448V.444a.447.447 0 0 0-.45-.444h-2.695a.447.447 0 0 0-.45.444v1.334h-2.964V.444a.447.447 0 0 0-.45-.444h-2.695a.447.447 0 0 0-.449.444v1.334H11.5a.447.447 0 0 0-.45.444v4h-.898V4.89a.447.447 0 0 0-.449-.445H7.008a.447.447 0 0 0-.45.445v1.333H4.493V4.89a.447.447 0 0 0-.449-.445H1.348a.447.447 0 0 0-.45.445v1.333H.45A.447.447 0 0 0 0 6.667v8.889C0 15.8.201 16 .45 16h22.1c.249 0 .45-.199.45-.444V2.222a.447.447 0 0 0-.45-.444zM11.95 7.11h10.152v3.556H11.949V7.11zM19.405.89h1.797v.889h-1.797v-.89zm-6.558 0h1.797v.889h-1.797v-.89zm9.254 1.778v3.555H11.949V2.667h10.153zM7.457 5.333h1.797v.89H7.457v-.89zm-5.66 0h1.797v.89H1.797v-.89zm-.899 6.223h2.067c.248 0 .45-.2.45-.445a.447.447 0 0 0-.45-.444H.898V7.11h10.153v3.556H6.559a.447.447 0 0 0-.45.444c0 .246.201.445.45.445h4.492v3.555H.898v-3.555zm21.204 3.555H11.949v-3.555h10.153v3.555z"/>
        <path d="M4.762 10.667c-.248 0-.45.199-.45.444s.202.445.45.445.449-.2.449-.445a.447.447 0 0 0-.45-.444z"/>
    </g>
</svg>
