<?xml version="1.0" encoding="UTF-8"?>
<svg width="24px" height="24px" viewBox="0 0 24 24" version="1.1" xmlns="http://www.w3.org/2000/svg" xmlns:xlink="http://www.w3.org/1999/xlink" fill='#636366'>
    <path d="M21,17 C21.553,17 22,17.447 22,18 C22,18.553 21.553,19 21,19 L8,19 C7.448,19 7,18.553 7,18 C7,17.447 7.448,17 8,17 L21,17 Z M3.38,17.08 C3.5,17.13 3.61,17.2 3.71,17.29 C3.8,17.39 3.87,17.5 3.92,17.62 C3.97,17.74 4,17.87 4,18 C4,18.13 3.97,18.26 3.92,18.38 C3.87,18.5 3.8,18.609 3.71,18.71 C3.52,18.899 3.27,19 3,19 C2.87,19 2.74,18.97 2.62,18.92 C2.5,18.87 2.39,18.8 2.29,18.71 C2.1,18.52 2,18.27 2,18 C2,17.87 2.03,17.74 2.08,17.62 C2.13,17.49 2.2,17.39 2.29,17.29 C2.57,17.02 3.01,16.93 3.38,17.08 Z M21,11 C21.553,11 22,11.448 22,12 C22,12.552 21.553,13 21,13 L8,13 C7.448,13 7,12.552 7,12 C7,11.448 7.448,11 8,11 L21,11 Z M3.71,11.29 C3.8,11.39 3.87,11.49 3.92,11.62 C3.97,11.74 4,11.87 4,12 C4,12.06 3.99,12.13 3.98,12.2 C3.97,12.26 3.95,12.32 3.92,12.38 C3.9,12.44 3.87,12.5 3.83,12.56 L3.71,12.71 L3.71,12.71 C3.52,12.89 3.26,13 3,13 C2.94,13 2.87,12.99 2.81,12.98 C2.74,12.97 2.68,12.95 2.62,12.92 C2.56,12.9 2.5,12.87 2.44,12.83 C2.39,12.8 2.34,12.75 2.29,12.71 C2.11,12.52 2,12.27 2,12 C2,11.87 2.03,11.74 2.08,11.62 C2.13,11.49 2.2,11.39 2.29,11.29 C2.34,11.25 2.39,11.2 2.44,11.17 C2.5,11.13 2.56,11.1 2.62,11.08 C2.68,11.05 2.74,11.03 2.81,11.02 C3.13,10.96 3.47,11.06 3.71,11.29 Z M21,5 C21.553,5 22,5.448 22,6 C22,6.552 21.553,7 21,7 L8,7 C7.448,7 7,6.552 7,6 C7,5.448 7.448,5 8,5 L21,5 Z M3.38,5.08 C3.51,5.13 3.61,5.2 3.71,5.29 C3.89,5.48 4,5.74 4,6 C4,6.06 3.99,6.13 3.98,6.2 C3.97,6.26 3.95,6.32 3.92,6.38 C3.9,6.44 3.87,6.5 3.83,6.56 L3.71,6.71 L3.71,6.71 C3.52,6.89 3.26,7 3,7 C2.94,7 2.87,6.99 2.8,6.98 C2.74,6.97 2.68,6.95 2.62,6.92 C2.56,6.9 2.5,6.87 2.44,6.83 C2.39,6.8 2.34,6.75 2.29,6.71 C2.25,6.66 2.21,6.61 2.17,6.56 C2.13,6.5 2.1,6.44 2.08,6.38 C2.05,6.32 2.03,6.26 2.02,6.2 C2.01,6.13 2,6.06 2,6 C2,5.87 2.03,5.74 2.08,5.62 C2.13,5.5 2.2,5.39 2.29,5.29 C2.57,5.02 3.01,4.92 3.38,5.08 Z" id="path-1"></path>
</svg>