<?xml version="1.0" encoding="UTF-8"?>
<svg width="24px" height="24px" viewBox="0 0 24 24" version="1.1" xmlns="http://www.w3.org/2000/svg" xmlns:xlink="http://www.w3.org/1999/xlink" fill='#636366'>
    <path d="M13,14 C15.757,14 18,16.243 18,19 L18,21 C18,21.553 17.553,22 17,22 C16.447,22 16,21.553 16,21 L16,19 C16,17.346 14.654,16 13,16 L5,16 C3.346,16 2,17.346 2,19 L2,21 C2,21.553 1.552,22 1,22 C0.448,22 0,21.553 0,21 L0,19 C0,16.243 2.243,14 5,14 L13,14 Z M20.25,14.162 C22.457,14.732 23.999,16.722 23.9999955,18.999 L23.9999955,21 C23.9999955,21.553 23.553,22 22.9999955,22 C22.447,22 21.9999955,21.553 21.9999955,21 L21.9999955,19 C21.999,17.634 21.074,16.44 19.75,16.098 C19.215,15.96 18.894,15.414 19.032,14.88 C19.17,14.345 19.715,14.02 20.25,14.162 Z M9,2 C11.757,2 14,4.243 14,7 C14,9.757 11.757,12 9,12 C6.243,12 4,9.757 4,7 C4,4.243 6.243,2 9,2 Z M16.248,2.1609 C18.919,2.8449 20.535,5.5739 19.852,8.2449 C19.398,10.0149 18.018,11.3959 16.248,11.8489 C16.165,11.8699 16.081,11.8799 15.999,11.8799 C15.554,11.8799 15.146,11.5799 15.031,11.1279 C14.895,10.5929 15.217,10.0479 15.752,9.9109 C16.813,9.6389 17.643,8.8109 17.914,7.7489 C18.324,6.1469 17.354,4.5089 15.752,4.0989 C15.217,3.9619 14.895,3.4169 15.031,2.8819 C15.168,2.3469 15.715,2.0229 16.248,2.1609 Z M9,4 C7.346,4 6,5.346 6,7 C6,8.654 7.346,10 9,10 C10.654,10 12,8.654 12,7 C12,5.346 10.654,4 9,4 Z" id="path-1"></path>
</svg>