<?xml version="1.0" encoding="UTF-8"?>
<svg width="12px" height="20px" viewBox="0 0 12 20" version="1.1" xmlns="http://www.w3.org/2000/svg" xmlns:xlink="http://www.w3.org/1999/xlink">
    <g id="icon/more" stroke="none" stroke-width="1" fill="none" fill-rule="evenodd">
        <path d="M6,12 C6.55228475,12 7,12.4477153 7,13 C7,13.5522847 6.55228475,14 6,14 C5.44771525,14 5,13.5522847 5,13 C5,12.4477153 5.44771525,12 6,12 Z M6,8.5 C6.55228475,8.5 7,8.94771525 7,9.5 C7,10.0522847 6.55228475,10.5 6,10.5 C5.44771525,10.5 5,10.0522847 5,9.5 C5,8.94771525 5.44771525,8.5 6,8.5 Z M6,5 C6.55228475,5 7,5.44771525 7,6 C7,6.55228475 6.55228475,7 6,7 C5.44771525,7 5,6.55228475 5,6 C5,5.44771525 5.44771525,5 6,5 Z" id="Combined-Shape" fill="#DCDDE0" fill-opacity="0.5"></path>
    </g>
</svg>