<?xml version="1.0" encoding="UTF-8"?>
<svg width="200px" height="200px" viewBox="0 0 200 200" version="1.1" xmlns="http://www.w3.org/2000/svg" xmlns:xlink="http://www.w3.org/1999/xlink">
    <!-- Generator: sketchtool 61.2 (101010) - https://sketch.com -->
    <title>1E617D95-B455-44E4-A727-E1F4DBC8AE2D@1,5x</title>
    <desc>Created with sketchtool.</desc>
    <defs>
        <path d="M0.326126126,99.8554955 C0.326126126,154.895856 44.9448649,199.514955 99.9852252,199.514955 L99.9852252,199.514955 C155.025586,199.514955 199.644685,154.895856 199.644685,99.8554955 L199.644685,99.8554955 C199.644685,44.8154955 155.025586,0.196036036 99.9852252,0.196036036 L99.9852252,0.196036036 C44.9448649,0.196036036 0.326126126,44.8154955 0.326126126,99.8554955" id="path-1"></path>
        <path d="M0.326126126,99.8554955 C0.326126126,154.895856 44.9448649,199.514955 99.9852252,199.514955 L99.9852252,199.514955 C155.025586,199.514955 199.644685,154.895856 199.644685,99.8554955 L199.644685,99.8554955 C199.644685,44.8154955 155.025586,0.196036036 99.9852252,0.196036036 L99.9852252,0.196036036 C44.9448649,0.196036036 0.326126126,44.8154955 0.326126126,99.8554955" id="path-3"></path>
        <path d="M0.326126126,99.8554955 C0.326126126,154.895856 44.9448649,199.514955 99.9852252,199.514955 L99.9852252,199.514955 C155.025586,199.514955 199.644685,154.895856 199.644685,99.8554955 L199.644685,99.8554955 C199.644685,44.8154955 155.025586,0.196036036 99.9852252,0.196036036 L99.9852252,0.196036036 C44.9448649,0.196036036 0.326126126,44.8154955 0.326126126,99.8554955 L0.326126126,99.8554955 Z" id="path-5"></path>
        <path d="M0.284324324,79.3088288 L0.284324324,120.402523 C9.75567568,165.583423 49.8273874,199.514955 97.8230631,199.514955 L97.8230631,199.514955 C152.863423,199.514955 197.482523,154.895856 197.482523,99.8554955 L197.482523,99.8554955 C197.482523,44.8154955 152.863423,0.196036036 97.8230631,0.196036036 L97.8230631,0.196036036 C49.8273874,0.196036036 9.75567568,34.1279279 0.284324324,79.3088288 L0.284324324,79.3088288 Z" id="path-7"></path>
        <path d="M0.284324324,79.3088288 L0.284324324,120.402523 C9.75567568,165.583423 49.8273874,199.514955 97.8230631,199.514955 L97.8230631,199.514955 C152.863423,199.514955 197.482523,154.895856 197.482523,99.8554955 L197.482523,99.8554955 C197.482523,44.8154955 152.863423,0.196036036 97.8230631,0.196036036 L97.8230631,0.196036036 C49.8273874,0.196036036 9.75567568,34.1279279 0.284324324,79.3088288" id="path-9"></path>
        <path d="M0.284324324,79.3088288 L0.284324324,120.402523 C9.75567568,165.583423 49.8273874,199.514955 97.8230631,199.514955 L97.8230631,199.514955 C152.863423,199.514955 197.482523,154.895856 197.482523,99.8554955 L197.482523,99.8554955 C197.482523,44.8154955 152.863423,0.196036036 97.8230631,0.196036036 L97.8230631,0.196036036 C49.8273874,0.196036036 9.75567568,34.1279279 0.284324324,79.3088288" id="path-11"></path>
        <path d="M0.284324324,79.3088288 L0.284324324,120.402523 C9.75567568,165.583423 49.8273874,199.514955 97.8230631,199.514955 L97.8230631,199.514955 C152.863423,199.514955 197.482523,154.895856 197.482523,99.8554955 L197.482523,99.8554955 C197.482523,44.8154955 152.863423,0.196036036 97.8230631,0.196036036 L97.8230631,0.196036036 C49.8273874,0.196036036 9.75567568,34.1279279 0.284324324,79.3088288" id="path-13"></path>
        <path d="M0.284324324,79.3088288 L0.284324324,120.402523 C9.75567568,165.583423 49.8273874,199.514955 97.8230631,199.514955 L97.8230631,199.514955 C152.863423,199.514955 197.482523,154.895856 197.482523,99.8554955 L197.482523,99.8554955 C197.482523,44.8154955 152.863423,0.196036036 97.8230631,0.196036036 L97.8230631,0.196036036 C49.8273874,0.196036036 9.75567568,34.1279279 0.284324324,79.3088288" id="path-15"></path>
        <path d="M0.284324324,79.3088288 L0.284324324,120.402523 C9.75567568,165.583423 49.8273874,199.514955 97.8230631,199.514955 L97.8230631,199.514955 C152.863423,199.514955 197.482523,154.895856 197.482523,99.8554955 L197.482523,99.8554955 C197.482523,44.8154955 152.863423,0.196036036 97.8230631,0.196036036 L97.8230631,0.196036036 C49.8273874,0.196036036 9.75567568,34.1279279 0.284324324,79.3088288" id="path-17"></path>
        <path d="M0.284324324,79.3088288 L0.284324324,120.402523 C9.75567568,165.583423 49.8273874,199.514955 97.8230631,199.514955 L97.8230631,199.514955 C152.863423,199.514955 197.482523,154.895856 197.482523,99.8554955 L197.482523,99.8554955 C197.482523,44.8154955 152.863423,0.196036036 97.8230631,0.196036036 L97.8230631,0.196036036 C49.8273874,0.196036036 9.75567568,34.1279279 0.284324324,79.3088288" id="path-19"></path>
        <path d="M0.284324324,79.3088288 L0.284324324,120.402523 C9.75567568,165.583423 49.8273874,199.514955 97.8230631,199.514955 L97.8230631,199.514955 C152.863423,199.514955 197.482523,154.895856 197.482523,99.8554955 L197.482523,99.8554955 C197.482523,44.8154955 152.863423,0.196036036 97.8230631,0.196036036 L97.8230631,0.196036036 C49.8273874,0.196036036 9.75567568,34.1279279 0.284324324,79.3088288" id="path-21"></path>
        <path d="M0.284324324,79.3088288 L0.284324324,120.402523 C9.75567568,165.583423 49.8273874,199.514955 97.8230631,199.514955 L97.8230631,199.514955 C152.863423,199.514955 197.482523,154.895856 197.482523,99.8554955 L197.482523,99.8554955 C197.482523,44.8154955 152.863423,0.196036036 97.8230631,0.196036036 L97.8230631,0.196036036 C49.8273874,0.196036036 9.75567568,34.1279279 0.284324324,79.3088288" id="path-23"></path>
        <path d="M0.284324324,79.3088288 L0.284324324,120.402523 C9.75567568,165.583423 49.8273874,199.514955 97.8230631,199.514955 L97.8230631,199.514955 C152.863423,199.514955 197.482523,154.895856 197.482523,99.8554955 L197.482523,99.8554955 C197.482523,44.8154955 152.863423,0.196036036 97.8230631,0.196036036 L97.8230631,0.196036036 C49.8273874,0.196036036 9.75567568,34.1279279 0.284324324,79.3088288" id="path-25"></path>
        <path d="M0.284324324,79.3088288 L0.284324324,120.402523 C9.75567568,165.583423 49.8273874,199.514955 97.8230631,199.514955 L97.8230631,199.514955 C152.863423,199.514955 197.482523,154.895856 197.482523,99.8554955 L197.482523,99.8554955 C197.482523,44.8154955 152.863423,0.196036036 97.8230631,0.196036036 L97.8230631,0.196036036 C49.8273874,0.196036036 9.75567568,34.1279279 0.284324324,79.3088288" id="path-27"></path>
        <path d="M0.284324324,79.3088288 L0.284324324,120.402523 C9.75567568,165.583423 49.8273874,199.514955 97.8230631,199.514955 L97.8230631,199.514955 C152.863423,199.514955 197.482523,154.895856 197.482523,99.8554955 L197.482523,99.8554955 C197.482523,44.8154955 152.863423,0.196036036 97.8230631,0.196036036 L97.8230631,0.196036036 C49.8273874,0.196036036 9.75567568,34.1279279 0.284324324,79.3088288" id="path-29"></path>
        <path d="M0.284324324,79.3088288 L0.284324324,120.402523 C9.75567568,165.583423 49.8273874,199.514955 97.8230631,199.514955 L97.8230631,199.514955 C152.863423,199.514955 197.482523,154.895856 197.482523,99.8554955 L197.482523,99.8554955 C197.482523,44.8154955 152.863423,0.196036036 97.8230631,0.196036036 L97.8230631,0.196036036 C49.8273874,0.196036036 9.75567568,34.1279279 0.284324324,79.3088288" id="path-31"></path>
        <path d="M0.284324324,79.3088288 L0.284324324,120.402523 C9.75567568,165.583423 49.8273874,199.514955 97.8230631,199.514955 L97.8230631,199.514955 C152.863423,199.514955 197.482523,154.895856 197.482523,99.8554955 L197.482523,99.8554955 C197.482523,44.8154955 152.863423,0.196036036 97.8230631,0.196036036 L97.8230631,0.196036036 C49.8273874,0.196036036 9.75567568,34.1279279 0.284324324,79.3088288" id="path-33"></path>
        <path d="M0.284324324,79.3088288 L0.284324324,120.402523 C9.75567568,165.583423 49.8273874,199.514955 97.8230631,199.514955 L97.8230631,199.514955 C152.863423,199.514955 197.482523,154.895856 197.482523,99.8554955 L197.482523,99.8554955 C197.482523,44.8154955 152.863423,0.196036036 97.8230631,0.196036036 L97.8230631,0.196036036 C49.8273874,0.196036036 9.75567568,34.1279279 0.284324324,79.3088288" id="path-35"></path>
        <path d="M0.284324324,79.3088288 L0.284324324,120.402523 C9.75567568,165.583423 49.8273874,199.514955 97.8230631,199.514955 L97.8230631,199.514955 C152.863423,199.514955 197.482523,154.895856 197.482523,99.8554955 L197.482523,99.8554955 C197.482523,44.8154955 152.863423,0.196036036 97.8230631,0.196036036 L97.8230631,0.196036036 C49.8273874,0.196036036 9.75567568,34.1279279 0.284324324,79.3088288" id="path-37"></path>
        <path d="M0.284324324,79.3088288 L0.284324324,120.402523 C9.75567568,165.583423 49.8273874,199.514955 97.8230631,199.514955 L97.8230631,199.514955 C152.863423,199.514955 197.482523,154.895856 197.482523,99.8554955 L197.482523,99.8554955 C197.482523,44.8154955 152.863423,0.196036036 97.8230631,0.196036036 L97.8230631,0.196036036 C49.8273874,0.196036036 9.75567568,34.1279279 0.284324324,79.3088288 L0.284324324,79.3088288 Z" id="path-39"></path>
        <path d="M0.326126126,99.8554955 C0.326126126,154.895856 44.9448649,199.514955 99.9852252,199.514955 L99.9852252,199.514955 C155.025586,199.514955 199.644685,154.895856 199.644685,99.8554955 L199.644685,99.8554955 C199.644685,44.8154955 155.025586,0.196036036 99.9852252,0.196036036 L99.9852252,0.196036036 C44.9448649,0.196036036 0.326126126,44.8154955 0.326126126,99.8554955 L0.326126126,99.8554955 Z" id="path-41"></path>
        <path d="M0.326126126,99.8554955 C0.326126126,154.895856 44.9448649,199.514955 99.9852252,199.514955 L99.9852252,199.514955 C155.025586,199.514955 199.644685,154.895856 199.644685,99.8554955 L199.644685,99.8554955 C199.644685,44.8154955 155.025586,0.196036036 99.9852252,0.196036036 L99.9852252,0.196036036 C44.9448649,0.196036036 0.326126126,44.8154955 0.326126126,99.8554955 L0.326126126,99.8554955 Z" id="path-43"></path>
        <path d="M0.326126126,99.8554955 C0.326126126,154.895856 44.9448649,199.514955 99.9852252,199.514955 L99.9852252,199.514955 C155.025586,199.514955 199.644685,154.895856 199.644685,99.8554955 L199.644685,99.8554955 C199.644685,44.8154955 155.025586,0.196036036 99.9852252,0.196036036 L99.9852252,0.196036036 C44.9448649,0.196036036 0.326126126,44.8154955 0.326126126,99.8554955 L0.326126126,99.8554955 Z" id="path-45"></path>
        <path d="M0.326126126,99.8554955 C0.326126126,154.895856 44.9448649,199.514955 99.9852252,199.514955 L99.9852252,199.514955 C155.025586,199.514955 199.644685,154.895856 199.644685,99.8554955 L199.644685,99.8554955 C199.644685,44.8154955 155.025586,0.196036036 99.9852252,0.196036036 L99.9852252,0.196036036 C44.9448649,0.196036036 0.326126126,44.8154955 0.326126126,99.8554955 L0.326126126,99.8554955 Z" id="path-47"></path>
        <path d="M0.326126126,99.8554955 C0.326126126,154.895856 44.9448649,199.514955 99.9852252,199.514955 L99.9852252,199.514955 C155.025586,199.514955 199.644685,154.895856 199.644685,99.8554955 L199.644685,99.8554955 C199.644685,44.8154955 155.025586,0.196036036 99.9852252,0.196036036 L99.9852252,0.196036036 C44.9448649,0.196036036 0.326126126,44.8154955 0.326126126,99.8554955 L0.326126126,99.8554955 Z" id="path-49"></path>
        <path d="M0.326126126,99.8554955 C0.326126126,154.895856 44.9448649,199.514955 99.9852252,199.514955 L99.9852252,199.514955 C155.025586,199.514955 199.644685,154.895856 199.644685,99.8554955 L199.644685,99.8554955 C199.644685,44.8154955 155.025586,0.196036036 99.9852252,0.196036036 L99.9852252,0.196036036 C44.9448649,0.196036036 0.326126126,44.8154955 0.326126126,99.8554955 L0.326126126,99.8554955 Z" id="path-51"></path>
        <path d="M0.326126126,99.8554955 C0.326126126,154.895856 44.9448649,199.514955 99.9852252,199.514955 L99.9852252,199.514955 C155.025586,199.514955 199.644685,154.895856 199.644685,99.8554955 L199.644685,99.8554955 C199.644685,44.8154955 155.025586,0.196036036 99.9852252,0.196036036 L99.9852252,0.196036036 C44.9448649,0.196036036 0.326126126,44.8154955 0.326126126,99.8554955" id="path-53"></path>
        <path d="M0.326126126,99.8554955 C0.326126126,154.895856 44.9448649,199.514955 99.9852252,199.514955 L99.9852252,199.514955 C155.025586,199.514955 199.644685,154.895856 199.644685,99.8554955 L199.644685,99.8554955 C199.644685,44.8154955 155.025586,0.196036036 99.9852252,0.196036036 L99.9852252,0.196036036 C44.9448649,0.196036036 0.326126126,44.8154955 0.326126126,99.8554955" id="path-55"></path>
        <path d="M0.326126126,99.8554955 C0.326126126,154.895856 44.9448649,199.514955 99.9852252,199.514955 L99.9852252,199.514955 C155.025586,199.514955 199.644685,154.895856 199.644685,99.8554955 L199.644685,99.8554955 C199.644685,44.8154955 155.025586,0.196036036 99.9852252,0.196036036 L99.9852252,0.196036036 C44.9448649,0.196036036 0.326126126,44.8154955 0.326126126,99.8554955" id="path-57"></path>
        <path d="M0.326126126,99.8554955 C0.326126126,154.895856 44.9448649,199.514955 99.9852252,199.514955 L99.9852252,199.514955 C155.025586,199.514955 199.644685,154.895856 199.644685,99.8554955 L199.644685,99.8554955 C199.644685,44.8154955 155.025586,0.196036036 99.9852252,0.196036036 L99.9852252,0.196036036 C44.9448649,0.196036036 0.326126126,44.8154955 0.326126126,99.8554955 L0.326126126,99.8554955 Z" id="path-59"></path>
        <path d="M0.326126126,99.8554955 C0.326126126,154.895856 44.9448649,199.514955 99.9852252,199.514955 L99.9852252,199.514955 C155.025586,199.514955 199.644685,154.895856 199.644685,99.8554955 L199.644685,99.8554955 C199.644685,44.8154955 155.025586,0.196036036 99.9852252,0.196036036 L99.9852252,0.196036036 C44.9448649,0.196036036 0.326126126,44.8154955 0.326126126,99.8554955" id="path-61"></path>
        <path d="M0.326126126,99.8554955 C0.326126126,154.895856 44.9448649,199.514955 99.9852252,199.514955 L99.9852252,199.514955 C155.025586,199.514955 199.644685,154.895856 199.644685,99.8554955 L199.644685,99.8554955 C199.644685,44.8154955 155.025586,0.196036036 99.9852252,0.196036036 L99.9852252,0.196036036 C44.9448649,0.196036036 0.326126126,44.8154955 0.326126126,99.8554955" id="path-63"></path>
        <path d="M0.326126126,99.8554955 C0.326126126,154.895856 44.9448649,199.514955 99.9852252,199.514955 L99.9852252,199.514955 C155.025586,199.514955 199.644685,154.895856 199.644685,99.8554955 L199.644685,99.8554955 C199.644685,44.8154955 155.025586,0.196036036 99.9852252,0.196036036 L99.9852252,0.196036036 C44.9448649,0.196036036 0.326126126,44.8154955 0.326126126,99.8554955" id="path-65"></path>
        <path d="M0.326126126,99.8554955 C0.326126126,154.895856 44.9448649,199.514955 99.9852252,199.514955 L99.9852252,199.514955 C155.025586,199.514955 199.644685,154.895856 199.644685,99.8554955 L199.644685,99.8554955 C199.644685,44.8154955 155.025586,0.196036036 99.9852252,0.196036036 L99.9852252,0.196036036 C44.9448649,0.196036036 0.326126126,44.8154955 0.326126126,99.8554955" id="path-67"></path>
    </defs>
    <g id="Notifcations" stroke="none" stroke-width="1" fill="none" fill-rule="evenodd">
        <g id="Notifications---0.0-Copy" transform="translate(-1343.000000, -127.000000)">
            <g id="ilustration-notification" transform="translate(1343.000000, 127.000000)">
                <path d="M199.644685,99.9601441 C199.644685,155.000505 155.025586,199.619604 99.9852252,199.619604 C44.9448649,199.619604 0.325765766,155.000505 0.325765766,99.9601441 C0.325765766,44.9197838 44.9448649,0.300684685 99.9852252,0.300684685 C155.025586,0.300684685 199.644685,44.9197838 199.644685,99.9601441" id="Fill-1" fill="#6D22D2"></path>
                <g id="Group-12" transform="translate(0.000000, 0.104505)">
                    <g id="Group-5">
                        <mask id="mask-2" fill="white">
                            <use xlink:href="#path-1"></use>
                        </mask>
                        <g id="Clip-4"></g>
                        <path d="M228.119315,274.518162 L10.0403964,274.518162 C5.84616216,274.518162 2.44616216,271.118162 2.44616216,266.923928 L2.44616216,-15.6421982 C2.44616216,-19.8364324 5.84616216,-23.2364324 10.0403964,-23.2364324 L228.119315,-23.2364324 C232.31355,-23.2364324 235.71355,-19.8364324 235.71355,-15.6421982 L235.71355,266.923928 C235.71355,271.118162 232.31355,274.518162 228.119315,274.518162" id="Fill-3" fill="#6D22D2" mask="url(#mask-2)"></path>
                    </g>
                    <g id="Group-8">
                        <mask id="mask-4" fill="white">
                            <use xlink:href="#path-3"></use>
                        </mask>
                        <g id="Clip-7"></g>
                        <path d="M117.867856,64.7833153 C189.959027,84.7501622 145.990739,140.192685 113.121189,139.428 C111.659928,139.389081 111.720829,135.408901 113.365874,135.45827 C131.707135,136.028 161.789658,101.43773 118.619568,87.5083604 C116.016324,86.6694414 114.399027,63.8218739 117.867856,64.7833153" id="Fill-6" fill="#DF4773" mask="url(#mask-4)"></path>
                    </g>
                    <g id="Group-11">
                        <mask id="mask-6" fill="white">
                            <use xlink:href="#path-5"></use>
                        </mask>
                        <g id="Clip-10"></g>
                        <path d="M173.542667,83.9225586 C173.542667,90.5117477 168.201045,95.8533694 161.611856,95.8533694 C155.022667,95.8533694 149.681045,90.5117477 149.681045,83.9225586 C149.681045,77.3333694 155.022667,71.9917477 161.611856,71.9917477 C168.201045,71.9917477 173.542667,77.3333694 173.542667,83.9225586 Z" id="Stroke-9" stroke="#FFFFFF" stroke-width="1.72432432" stroke-linecap="round" stroke-linejoin="round" mask="url(#mask-6)"></path>
                    </g>
                </g>
                <g id="Group-64" transform="translate(2.162162, 0.104505)">
                    <g id="Group-15">
                        <mask id="mask-8" fill="white">
                            <use xlink:href="#path-7"></use>
                        </mask>
                        <g id="Clip-14"></g>
                        <polygon id="Fill-13" fill="#00D3D4" mask="url(#mask-8)" points="241.594811 343.783712 -9.23077477 343.783712 -9.23077477 219.237045 241.594811 168.286054"></polygon>
                    </g>
                    <g id="Group-18">
                        <mask id="mask-10" fill="white">
                            <use xlink:href="#path-9"></use>
                        </mask>
                        <g id="Clip-17"></g>
                        <path d="M-90.9009009,159.811279 C-80.1246847,131.239387 -15.9099099,131.123712 -3.08432432,125.184973 C9.74126126,119.246234 22.0320721,80.3305586 44.8320721,79.9038919 C84.7322523,79.1575856 86.8702703,134.229297 104.415856,147.027135 C128.908468,164.916505 182.525045,135.528757 191.698739,174.727676 C210.936216,256.141009 111.808288,252.278306 69.3243243,258.364793 C22.9225225,265.003712 26.3956757,345.437225 -30.2486486,321.225333 C-75.8497297,301.726595 -26.3297297,242.157225 -27.0428829,222.672541 C-27.6655856,204.726234 -104.973694,197.011279 -90.9009009,159.811279" id="Fill-16" fill="#FFCB4C" mask="url(#mask-10)"></path>
                    </g>
                    <g id="Group-21">
                        <mask id="mask-12" fill="white">
                            <use xlink:href="#path-11"></use>
                        </mask>
                        <g id="Clip-20"></g>
                        <path d="M117.627784,148.574667 C122.616973,171.135027 123.338414,312.865477 122.316432,314.489261 C121.354991,316.113045 119.190306,315.269441 119.190306,315.269441 C119.190306,315.269441 92.7409369,173.289982 84.0850811,150.914486 C82.8829189,147.811784 117.086523,146.093946 117.627784,148.574667" id="Fill-19" fill="#151B50" mask="url(#mask-12)"></path>
                    </g>
                    <g id="Group-24">
                        <mask id="mask-14" fill="white">
                            <use xlink:href="#path-13"></use>
                        </mask>
                        <g id="Clip-23"></g>
                        <path d="M119.992,315.498595 L121.201009,315.498595 C119.81218,300.398414 117.251459,276.696072 114.38155,253.252468 C111.556685,230.089225 104.403171,174.085261 98.7523604,154.375712 C98.6921802,154.056432 98.3318198,153.870486 98.0312793,153.962018 C97.7307387,154.047423 97.5498378,154.385081 97.6103784,154.70436 C101.577586,168.52418 107.228396,204.496072 113.179027,253.396252 C116.218667,278.13427 118.66227,301.011387 119.992,315.498595" id="Fill-22" fill="#282D6B" mask="url(#mask-14)"></path>
                    </g>
                    <g id="Group-27">
                        <mask id="mask-16" fill="white">
                            <use xlink:href="#path-15"></use>
                        </mask>
                        <g id="Clip-26"></g>
                        <path d="M116.846414,148.574667 C107.408577,199.448541 61.7231712,311.754486 57.5750631,318.38836 C56.5538018,320.024757 54.3891171,318.922414 54.9303784,316.200613 C60.5808288,289.956288 77.3523604,192.031964 81.7404685,145.455387 C82.1015495,142.071964 117.447495,145.29755 116.846414,148.574667" id="Fill-25" fill="#282D6B" mask="url(#mask-16)"></path>
                    </g>
                    <g id="Group-30">
                        <mask id="mask-18" fill="white">
                            <use xlink:href="#path-17"></use>
                        </mask>
                        <g id="Clip-29"></g>
                        <path d="M55.4711351,321.99582 C55.3514955,321.99582 55.2311351,321.971315 55.1705946,321.920144 C54.8700541,321.758342 54.7504144,321.392216 54.9305946,321.102486 C56.1327568,318.933117 64.2480721,284.461045 72.5432072,244.905009 C82.7024865,196.693838 88.8941982,160.809874 89.6156396,146.45636 C89.6156396,146.125189 89.9161802,145.86609 90.2167207,145.885489 C90.5770811,145.902847 90.8178018,146.185009 90.8178018,146.516541 C89.7958198,166.987171 78.5547387,222.315459 73.7457297,245.153297 C65.9907748,281.949694 57.3947387,319.143928 55.9525766,321.686991 C55.8322162,321.885189 55.652036,321.99582 55.4711351,321.99582" id="Fill-28" fill="#434788" mask="url(#mask-18)"></path>
                    </g>
                    <g id="Group-33">
                        <mask id="mask-20" fill="white">
                            <use xlink:href="#path-19"></use>
                        </mask>
                        <g id="Clip-32"></g>
                        <path d="M70.078991,68.4934054 C76.6912432,89.1935856 81.3798919,139.315027 80.958991,148.574847 C80.8991712,150.371604 105.605477,154.736288 116.064937,149.354306 C120.091964,147.302054 122.97809,69.6944865 120.753586,66.9334054 C118.529441,64.1723243 96.4681802,61.0771892 93.4624144,62.2544865 C87.0908829,64.7218739 74.8274595,70.2858378 70.078991,68.4934054" id="Fill-31" fill="#E56986" mask="url(#mask-20)"></path>
                    </g>
                    <g id="Group-36">
                        <mask id="mask-22" fill="white">
                            <use xlink:href="#path-21"></use>
                        </mask>
                        <g id="Clip-35"></g>
                        <path d="M95.8070631,46.6574414 C95.8070631,46.6574414 102.780036,47.8646486 103.621838,46.6574414 C106.266162,42.6534775 101.577514,15.1464505 93.4625586,13.9032072 C83.3036396,12.3525766 79.5767928,23.243027 84.0852613,33.3994234 C89.1948108,44.794018 93.0416577,55.6282523 86.429045,65.3734775 C88.5933694,66.1039279 101.638054,66.0448288 102.840216,63.034018 C95.9872432,57.2217658 95.8070631,46.6574414 95.8070631,46.6574414" id="Fill-34" fill="#F1B0BC" mask="url(#mask-22)"></path>
                    </g>
                    <g id="Group-39">
                        <mask id="mask-24" fill="white">
                            <use xlink:href="#path-23"></use>
                        </mask>
                        <g id="Clip-38"></g>
                        <path d="M102.299063,25.6409369 C101.217261,25.4117477 89.6752793,29.8488649 89.6752793,29.8488649 C88.1725766,33.0647207 87.270955,22.0340901 87.270955,22.0340901 L101.096901,21.433009 L104.703748,23.8376937 C104.703748,23.8376937 103.380865,25.8697658 102.299063,25.6409369" id="Fill-37" fill="#EB8B9B" mask="url(#mask-24)"></path>
                    </g>
                    <g id="Group-42">
                        <mask id="mask-26" fill="white">
                            <use xlink:href="#path-25"></use>
                        </mask>
                        <g id="Clip-41"></g>
                        <path d="M74.7071712,16.2428829 C74.286991,15.3520721 70.9201441,10.7340541 70.0790631,11.563964 C69.1774414,12.3931532 66.5918559,17.0255856 67.7341982,18.5823423 C68.8163604,20.1387387 73.9864505,19.3621622 73.9864505,19.3621622 C73.9864505,19.3621622 75.1886126,17.1336937 74.7071712,16.2428829" id="Fill-40" fill="#B5535D" mask="url(#mask-26)"></path>
                    </g>
                    <g id="Group-45">
                        <mask id="mask-28" fill="white">
                            <use xlink:href="#path-27"></use>
                        </mask>
                        <g id="Clip-44"></g>
                        <path d="M77.0518198,16.2428829 C75.6694775,15.7012613 73.5047928,15.2108108 73.2042523,17.0227027 C72.8438919,18.834955 73.8053333,20.1333333 75.4892973,20.1416411 C77.232,20.150991 78.4947027,16.7837838 77.0518198,16.2428829" id="Fill-43" fill="#EAB7A9" mask="url(#mask-28)"></path>
                    </g>
                    <g id="Group-48">
                        <mask id="mask-30" fill="white">
                            <use xlink:href="#path-29"></use>
                        </mask>
                        <g id="Clip-47"></g>
                        <path d="M87.9924324,43.5375495 C88.4133333,43.0514234 88.7736937,31.4676396 88.7736937,31.4676396 L89.554955,29.8849369 C89.554955,29.8849369 88.8335135,24.3058378 88.7736937,23.2615135 C91.3585586,23.1901622 99.1131532,17.6254775 98.150991,14.6831351 C96.8291892,10.7696216 81.0190991,9.52277477 77.0518919,17.0225946 C70.68,29.0943063 83.723964,40.8744865 87.9924324,43.5375495" id="Fill-46" fill="#B5535D" mask="url(#mask-30)"></path>
                    </g>
                    <g id="Group-51">
                        <mask id="mask-32" fill="white">
                            <use xlink:href="#path-31"></use>
                        </mask>
                        <g id="Clip-50"></g>
                        <path d="M89.7958198,31.3966847 C89.2545586,30.3530811 83.6044685,27.6276757 83.3637477,29.2006486 C82.7024865,33.8918198 88.8336577,37.7361441 89.7958198,37.2532613 C90.6974414,36.7703784 90.2765405,32.4406486 89.7958198,31.3966847" id="Fill-49" fill="#F1B0BC" mask="url(#mask-32)"></path>
                    </g>
                    <g id="Group-54">
                        <mask id="mask-34" fill="white">
                            <use xlink:href="#path-33"></use>
                        </mask>
                        <g id="Clip-53"></g>
                        <path d="M89.5550991,38.0788468 C90.3363604,49.7274955 104.282667,51.2698378 105.96555,49.7765045 C107.588973,48.2828108 105.425009,36.1195676 104.403027,35.7393874 C103.381045,35.3588468 99.594018,37.4078559 98.9331171,38.0788468 C98.2116757,38.7498378 98.1511351,40.4183063 98.1511351,40.4183063 C98.1511351,40.4183063 92.9817658,39.6615495 89.5550991,29.5001081 C89.2545586,28.5905586 87.932036,28.6658739 87.932036,29.6547027 C87.932036,31.5062342 89.4952793,37.0143423 89.5550991,38.0788468" id="Fill-52" fill="#B5535D" mask="url(#mask-34)"></path>
                    </g>
                    <g id="Group-57">
                        <mask id="mask-36" fill="white">
                            <use xlink:href="#path-35"></use>
                        </mask>
                        <g id="Clip-56"></g>
                        <path d="M90.0963604,22.3521441 C93.1619459,23.6890811 100.43582,25.3943063 102.419604,24.5813333 C104.583207,23.6934054 108.610955,21.5161081 106.20627,18.7478198 C104.042667,16.1845766 102.299243,18.5986306 100.73636,18.8865586 C97.1295135,19.5258378 91.7792432,18.6083604 90.4567207,19.2544865 C89.1341982,19.9006126 88.1727568,21.5125045 90.0963604,22.3521441" id="Fill-55" fill="#F1B0BC" mask="url(#mask-36)"></path>
                    </g>
                    <g id="Group-60">
                        <mask id="mask-38" fill="white">
                            <use xlink:href="#path-37"></use>
                        </mask>
                        <g id="Clip-59"></g>
                        <path d="M76.2704865,92.6688649 C7.56201802,63.0894054 58.6575135,14.1373333 91.1184144,19.3621982 C92.5605766,19.598955 91.9594955,23.5340901 90.3364324,23.2616577 C72.2427387,20.2043604 37.7378739,50.3852613 78.6146306,70.0526486 C81.0794955,71.2375135 79.5767928,94.093009 76.2704865,92.6688649" id="Fill-58" fill="#DF4773" mask="url(#mask-38)"></path>
                    </g>
                    <mask id="mask-40" fill="white">
                        <use xlink:href="#path-39"></use>
                    </mask>
                    <g id="Clip-62"></g>
                    <path d="M-4.79171171,32.9927928 L3.32324324,32.9927928 L3.32324324,24.8778378 L-4.79171171,24.8778378 L-4.79171171,32.9927928 Z M-3.69117117,31.8922523 L2.22306306,31.8922523 L2.22306306,25.978018 L-3.69117117,25.978018 L-3.69117117,31.8922523 Z" id="Fill-61" fill="#F8BE16" mask="url(#mask-40)"></path>
                    <polygon id="Fill-63" fill="#F6B413" mask="url(#mask-40)" points="148.409189 35.7980901 152.102162 39.4914234 148.409189 43.1847568 144.716216 39.4914234"></polygon>
                </g>
                <g id="Group-107" transform="translate(0.000000, 0.104505)">
                    <g id="Group-67">
                        <mask id="mask-42" fill="white">
                            <use xlink:href="#path-41"></use>
                        </mask>
                        <g id="Clip-66"></g>
                        <path d="M31.7096577,-19.802991 C31.7096577,-6.1910991 20.6750631,4.8434955 7.06317117,4.8434955 C-6.54872072,4.8434955 -17.5833153,-6.1910991 -17.5833153,-19.802991 C-17.5833153,-33.4148829 -6.54872072,-44.4494775 7.06317117,-44.4494775 C20.6750631,-44.4494775 31.7096577,-33.4148829 31.7096577,-19.802991 Z" id="Stroke-65" stroke="#FFFFFF" stroke-width="3.56216216" stroke-linecap="round" stroke-linejoin="round" mask="url(#mask-42)"></path>
                    </g>
                    <g id="Group-70">
                        <mask id="mask-44" fill="white">
                            <use xlink:href="#path-43"></use>
                        </mask>
                        <g id="Clip-69"></g>
                        <path d="M226.918919,71.2068108 C226.918919,83.0608649 217.309189,92.6705946 205.455135,92.6705946 C193.601081,92.6705946 183.991351,83.0608649 183.991351,71.2068108 C183.991351,59.3523964 193.601081,49.743027 205.455135,49.743027 C217.309189,49.743027 226.918919,59.3523964 226.918919,71.2068108 Z" id="Stroke-68" stroke="#FFFFFF" stroke-width="3.10234234" stroke-linecap="round" stroke-linejoin="round" mask="url(#mask-44)"></path>
                    </g>
                    <g id="Group-73">
                        <mask id="mask-46" fill="white">
                            <use xlink:href="#path-45"></use>
                        </mask>
                        <g id="Clip-72"></g>
                        <path d="M165.496396,141.360252 C165.496396,142.423315 164.634775,143.284937 163.571712,143.284937 C162.509009,143.284937 161.647387,142.423315 161.647387,141.360252 C161.647387,140.297189 162.509009,139.435568 163.571712,139.435568 C164.634775,139.435568 165.496396,140.297189 165.496396,141.360252 Z" id="Stroke-71" stroke="#FFFFFF" stroke-width="0.5" stroke-linecap="round" stroke-linejoin="round" mask="url(#mask-46)"></path>
                    </g>
                    <g id="Group-76">
                        <mask id="mask-48" fill="white">
                            <use xlink:href="#path-47"></use>
                        </mask>
                        <g id="Clip-75"></g>
                        <polygon id="Fill-74" fill="#FFFFFF" mask="url(#mask-48)" points="164.241477 141.501369 163.702018 141.501369 163.702018 142.034342 163.438595 142.034342 163.438595 141.501369 162.902018 141.501369 162.902018 141.22245 163.438595 141.22245 163.438595 140.685874 163.702018 140.685874 163.702018 141.22245 164.241477 141.22245"></polygon>
                    </g>
                    <g id="Group-79">
                        <mask id="mask-50" fill="white">
                            <use xlink:href="#path-49"></use>
                        </mask>
                        <g id="Clip-78"></g>
                        <path d="M134.726306,54.9633514 C134.726306,57.3413694 132.798378,59.2692973 130.420721,59.2692973 C128.042342,59.2692973 126.114775,57.3413694 126.114775,54.9633514 C126.114775,52.5853333 128.042342,50.6577658 130.420721,50.6577658 C132.798378,50.6577658 134.726306,52.5853333 134.726306,54.9633514 Z" id="Stroke-77" stroke="#FFFFFF" stroke-width="0.622342342" stroke-linecap="round" stroke-linejoin="round" mask="url(#mask-50)"></path>
                    </g>
                    <g id="Group-82">
                        <mask id="mask-52" fill="white">
                            <use xlink:href="#path-51"></use>
                        </mask>
                        <g id="Clip-81"></g>
                        <path d="M27.2550991,53.2600721 C27.2550991,56.4546667 24.6651892,59.0442162 21.4705946,59.0442162 C18.2763604,59.0442162 15.6864505,56.4546667 15.6864505,53.2600721 C15.6864505,50.0654775 18.2763604,47.4759279 21.4705946,47.4759279 C24.6651892,47.4759279 27.2550991,50.0654775 27.2550991,53.2600721 Z" id="Stroke-80" stroke="#FFFFFF" stroke-width="0.836036036" stroke-linecap="round" stroke-linejoin="round" mask="url(#mask-52)"></path>
                    </g>
                    <g id="Group-85">
                        <mask id="mask-54" fill="white">
                            <use xlink:href="#path-53"></use>
                        </mask>
                        <g id="Clip-84"></g>
                        <path d="M129.651027,140.350631 L90.1303063,140.350631 C87.9472432,140.350631 86.1778739,138.581261 86.1778739,136.398559 L86.1778739,96.8774775 C86.1778739,94.6947748 87.9472432,92.9254054 90.1303063,92.9254054 L129.651027,92.9254054 C131.83373,92.9254054 133.603459,94.6947748 133.603459,96.8774775 L133.603459,136.398559 C133.603459,138.581261 131.83373,140.350631 129.651027,140.350631" id="Fill-83" fill="#CF6383" mask="url(#mask-54)"></path>
                    </g>
                    <g id="Group-88">
                        <mask id="mask-56" fill="white">
                            <use xlink:href="#path-55"></use>
                        </mask>
                        <g id="Clip-87"></g>
                        <path d="M130.069874,139.931856 L90.5491532,139.931856 C88.3664505,139.931856 86.5967207,138.162126 86.5967207,135.979423 L86.5967207,96.4587027 C86.5967207,94.276 88.3664505,92.5062703 90.5491532,92.5062703 L130.069874,92.5062703 C132.252577,92.5062703 134.022306,94.276 134.022306,96.4587027 L134.022306,135.979423 C134.022306,138.162126 132.252577,139.931856 130.069874,139.931856" id="Fill-86" fill="#DA6785" mask="url(#mask-56)"></path>
                    </g>
                    <g id="Group-91">
                        <mask id="mask-58" fill="white">
                            <use xlink:href="#path-57"></use>
                        </mask>
                        <g id="Clip-90"></g>
                        <path d="M130.198342,139.512901 L91.2585225,139.512901 C88.9150991,139.512901 87.0156396,137.613441 87.0156396,135.270378 L87.0156396,89.1038919 C87.0156396,86.7608288 88.9150991,84.861009 91.2585225,84.861009 L130.198342,84.861009 C132.541405,84.861009 134.441225,86.7608288 134.441225,89.1038919 L134.441225,135.270378 C134.441225,137.613441 132.541405,139.512901 130.198342,139.512901" id="Fill-89" fill="#F8F6F5" mask="url(#mask-58)"></path>
                    </g>
                    <g id="Group-94">
                        <mask id="mask-60" fill="white">
                            <use xlink:href="#path-59"></use>
                        </mask>
                        <g id="Clip-93"></g>
                        <path d="M111.147423,125.131568 C110.759315,125.800396 110.044721,126.212288 109.271387,126.212288 C108.498054,126.212288 107.783099,125.800396 107.395351,125.131568 L111.147423,125.131568 Z M120.115712,120.79355 L98.4267027,120.79355 C100.22382,120.79355 101.680396,119.336973 101.680396,117.540577 L101.680396,112.118234 C101.680396,107.925441 105.078955,104.526883 109.271387,104.526883 C113.46382,104.526883 116.862378,107.925441 116.862378,112.118234 L116.862378,117.540577 C116.862378,119.336973 118.318955,120.79355 120.115712,120.79355 Z" id="Stroke-92" stroke="#373737" stroke-width="1.5845045" stroke-linecap="round" stroke-linejoin="round" mask="url(#mask-60)"></path>
                    </g>
                    <g id="Group-97">
                        <mask id="mask-62" fill="white">
                            <use xlink:href="#path-61"></use>
                        </mask>
                        <g id="Clip-96"></g>
                        <path d="M116.755279,98.1618739 C120.220505,98.1618739 123.029874,100.971243 123.029874,104.436468 C123.029874,107.902054 120.220505,110.711063 116.755279,110.711063 C113.290054,110.711063 110.480685,107.902054 110.480685,104.436468 C110.480685,100.971243 113.290054,98.1618739 116.755279,98.1618739" id="Fill-95" fill="#00DA5A" mask="url(#mask-62)"></path>
                    </g>
                    <g id="Group-100">
                        <mask id="mask-64" fill="white">
                            <use xlink:href="#path-63"></use>
                        </mask>
                        <g id="Clip-99"></g>
                        <path d="M113.727243,136.326667 C110.508505,135.418919 103.070306,134.718018 101.215532,135.793333 C99.1924685,136.967027 95.4980541,139.671532 98.2566126,142.087027 C100.748865,144.332432 102.147784,141.703964 103.656973,141.206306 C107.143459,140.083063 112.568685,140.264685 113.791027,139.444505 C115.01373,138.624685 115.747423,136.897117 113.727243,136.326667" id="Fill-98" fill="#F1B0BC" mask="url(#mask-64)"></path>
                    </g>
                    <g id="Group-103">
                        <mask id="mask-66" fill="white">
                            <use xlink:href="#path-65"></use>
                        </mask>
                        <g id="Clip-102"></g>
                        <path d="M156.352072,94.8070991 L138.187748,94.8070991 L138.187748,97.9526847 L136.454054,97.9526847 C150.174054,113.917009 128.022342,135.913766 113.365766,135.45827 C111.720721,135.409261 111.66018,139.389441 113.121081,139.428 C134.501982,139.925297 160.576577,116.640613 156.352072,94.8070991" id="Fill-101" fill="#DF4773" mask="url(#mask-66)"></path>
                    </g>
                    <g id="Group-106">
                        <mask id="mask-68" fill="white">
                            <use xlink:href="#path-67"></use>
                        </mask>
                        <g id="Clip-105"></g>
                        <path d="M124.266991,66.7487568 L124.266991,80.3725405 L138.155279,80.3725405 L138.155279,90.4633514 L147.325369,93.1192072 L153.06555,109.490018 L140.751315,109.490018 C140.445369,122.790198 124.676721,135.809658 113.36609,135.458306 C111.720685,135.409297 111.660144,139.389477 113.121045,139.428036 C144.967532,140.168577 187.232036,88.1476757 124.266991,66.7487568" id="Fill-104" fill="#DF4773" mask="url(#mask-68)"></path>
                    </g>
                </g>
            </g>
        </g>
    </g>
</svg>