<?xml version="1.0" encoding="UTF-8"?>
<svg width="15px" height="15px" viewBox="0 0 15 15" version="1.1" xmlns="http://www.w3.org/2000/svg" xmlns:xlink="http://www.w3.org/1999/xlink">
    <path fill="#4c4b5e" d="M5.68692135,3.55796203 C8.10522474,1.06875557 11.0699067,-0.322389392 14.5477772,0.0638490364 C14.7521828,0.0865083425 14.9134412,0.247870186 14.936102,0.452147388 C15.3174454,3.88366117 13.9690096,6.82571075 11.5033244,9.24350605 C10.758606,9.97375415 9.96101221,10.6056974 9.19431962,11.1413958 C9.22178734,12.0344935 8.8500576,12.9865283 8.20902982,13.6275124 L8.20902982,13.6275124 L6.96588682,14.8705707 C6.66843435,15.1678884 6.15810713,14.9152027 6.22036728,14.495433 C6.32989479,13.755343 6.3803667,13.2093449 6.37212639,12.8375261 C5.87324405,13.0982227 5.45722261,13.2996389 5.33888253,13.3757422 C5.16492033,13.4874366 4.93659498,13.4629462 4.79044382,13.316805 L4.79044382,13.316805 L4.03382276,12.5602355 C2.75268275,13.5115836 2.04893702,13.615725 1.80355877,13.615725 C1.52018352,13.615725 1.34908254,13.4101889 1.34141446,13.1908055 C1.3377521,13.0872364 1.35503388,12.3560727 2.40189716,10.9284211 L2.40189716,10.9284211 L1.68258639,10.2091593 C1.53746527,10.0640481 1.51217209,9.83802713 1.62135627,9.66430565 C1.69105559,9.55364118 1.90129804,9.11167 2.17563184,8.58409692 C2.06198417,8.5753994 1.92521787,8.57299615 1.76064046,8.5806637 C1.31039883,8.60160638 0.841730968,8.69167147 0.553319965,8.76914803 C0.361045962,8.82053207 0.158357111,8.73664681 0.0589011018,8.56441306 C-0.0405549075,8.39217934 -0.0119427194,8.17451255 0.128714862,8.03386452 L0.128714862,8.03386452 L1.37185786,6.79080625 C2.05351498,6.10919557 3.01499943,5.71689178 3.88217806,5.75213961 C4.39456541,5.0244092 4.99484941,4.27035737 5.68692135,3.55796203 Z M8.25595382,11.7622383 C7.88811535,11.9930658 7.53710084,12.199403 7.2138974,12.3813642 C7.25418338,12.6210037 7.26402599,12.9315966 7.23552822,13.3578894 L7.23552822,13.3578894 L7.58734388,13.0059832 C7.9154686,12.6779953 8.1511187,12.2268688 8.25595382,11.7622383 Z M5.69298716,9.26364767 C5.31152925,9.27188742 5.00446311,9.33036676 4.68423533,9.6504583 C3.33362492,11.0009767 2.72269718,11.9475183 2.44676109,12.517549 C3.00607241,12.2456372 3.94134812,11.6363532 5.30580683,10.2719874 C5.62500455,9.95281144 5.6846324,9.63535208 5.69298716,9.26364767 Z M5.3816864,11.4218908 C5.15095759,11.6379554 4.93224591,11.8328484 4.72532246,12.0086298 L4.72532246,12.0086298 L5.17853975,12.4619307 C5.42368912,12.3352445 5.59261553,12.2538769 5.99753544,12.0376978 L5.99753544,12.0376978 Z M10.4954881,1.37099428 C7.82688523,2.31032612 5.45172907,4.5913644 3.3969151,8.19431084 L3.3969151,8.19431084 L4.14941604,8.94676048 C4.80738225,8.34914952 5.45676482,8.38531288 6.131555,8.38531288 C6.37430092,8.38531288 6.57103844,8.58203699 6.57103844,8.82476638 C6.57103844,9.54700362 6.5927837,10.165214 6.00966703,10.8067703 L6.00966703,10.8067703 L6.79764708,11.5948111 C10.3946588,9.52869306 12.6752802,7.15518644 13.6201696,4.50141378 C12.9395425,4.28935456 12.2839797,3.87919797 11.7023508,3.29749432 C11.1179752,2.71315849 10.7067607,2.05455045 10.4954881,1.37099428 Z M2.9562872,8.99665679 C2.74512912,9.39559815 2.63010807,9.63088888 2.53500113,9.81857214 L2.53500113,9.81857214 L2.95010695,10.2335353 C3.12521364,10.0255959 3.31954771,9.80621251 3.53482594,9.57527056 L3.53482594,9.57527056 Z M3.25396855,6.69559133 C2.80029346,6.80911681 2.34410049,7.06168811 1.99331489,7.41233537 L1.99331489,7.41233537 L1.70330162,7.70244335 C2.01151226,7.6872227 2.33151113,7.69901013 2.6193499,7.7625249 C2.80567256,7.43098926 3.01694505,7.07175892 3.25396855,6.69559133 Z M7.97292191,3.91890901 C8.82968573,3.06220359 10.2239011,3.06220359 11.0807794,3.91890901 C11.9375432,4.77572888 11.9375432,6.16984929 11.0807794,7.02655474 C10.2239011,7.88337461 8.82968573,7.88326015 7.97292191,7.02655474 C7.1161581,6.16984929 7.1161581,4.77572888 7.97292191,3.91890901 Z M10.4592079,4.54043816 C9.94498938,4.02636912 9.108483,4.02648356 8.59449341,4.54043816 C8.08038935,5.05450719 8.08038935,5.89095655 8.59449341,6.40502558 C9.108483,6.91909462 9.94510382,6.91909462 10.4592079,6.40502558 C10.9733119,5.89095655 10.9733119,5.05450719 10.4592079,4.54043816 Z M14.0953611,0.904418274 C13.146237,0.833693713 12.2270987,0.906478197 11.3385181,1.121284 C11.5083601,1.66464991 11.8440385,2.196114 12.3238079,2.67596516 C12.8018606,3.15387084 13.3311863,3.48883969 13.8726437,3.65935679 C14.0906687,2.77049343 14.1655182,1.85198987 14.0953611,0.904418274 Z" id="path-1"></path>
</svg>
