<svg xmlns="http://www.w3.org/2000/svg" width="21" height="21" viewBox="0 0 21 21">
    <g fill="#FFF" fill-rule="nonzero">
        <path d="M17.406 6.629v-.014a17.655 17.655 0 0 1-.016-.526A1.795 1.795 0 0 0 15.7 4.33c-1.947-.108-3.454-.743-4.74-1.998l-.012-.01a1.084 1.084 0 0 0-1.473 0l-.01.01C8.176 3.587 6.67 4.222 4.722 4.331a1.795 1.795 0 0 0-1.69 1.758c-.003.19-.008.363-.015.526l-.001.031c-.038 1.986-.085 4.457.742 6.7a8.529 8.529 0 0 0 2.046 3.187c1.029 1.004 2.376 1.801 4.004 2.369a1.238 1.238 0 0 0 .641.045 1.24 1.24 0 0 0 .165-.045c1.626-.57 2.972-1.366 4-2.37a8.542 8.542 0 0 0 2.046-3.188c.83-2.25.783-4.726.745-6.715zM15.728 13c-.872 2.364-2.652 3.988-5.441 4.964a.223.223 0 0 1-.15 0c-2.793-.974-4.574-2.597-5.446-4.961-.762-2.068-.718-4.337-.68-6.338v-.011c.008-.172.013-.352.016-.55a.798.798 0 0 1 .752-.781c1.102-.062 2.07-.275 2.96-.651a7.743 7.743 0 0 0 2.411-1.62.092.092 0 0 1 .123 0 7.746 7.746 0 0 0 2.412 1.62c.89.376 1.858.59 2.96.65a.798.798 0 0 1 .752.782c.003.199.008.379.016.55.038 2.004.08 4.274-.685 6.346z"/>
        <path d="M10.211 6.28a4.226 4.226 0 0 0-4.22 4.222 4.226 4.226 0 0 0 4.22 4.221 4.226 4.226 0 0 0 4.221-4.221 4.226 4.226 0 0 0-4.22-4.221zm0 7.45a3.23 3.23 0 0 1-3.227-3.228 3.23 3.23 0 0 1 3.227-3.227 3.23 3.23 0 0 1 3.227 3.227 3.23 3.23 0 0 1-3.227 3.227z"/>
        <path d="M11.425 9.192l-1.961 1.96-.532-.532a.497.497 0 0 0-.703.703l.884.883a.495.495 0 0 0 .702 0l2.312-2.312a.497.497 0 0 0-.702-.702z"/>
    </g>
</svg>
