<svg xmlns="http://www.w3.org/2000/svg" width="16" height="17" viewBox="0 0 16 17">
    <g fill="none" fill-rule="evenodd">
        <path fill="#FFF" d="M7.875 10.165a2.391 2.391 0 0 1-2.388-2.388 2.39 2.39 0 0 1 2.388-2.388 2.39 2.39 0 0 1 2.388 2.388 2.391 2.391 0 0 1-2.388 2.388m5.368 3.943a5.62 5.62 0 0 0-1.366-2.287 5.627 5.627 0 0 0-2.151-1.348 3.275 3.275 0 0 0 1.421-2.697 3.276 3.276 0 0 0-3.272-3.271 3.276 3.276 0 0 0-3.272 3.272c0 1.117.564 2.106 1.421 2.696a5.627 5.627 0 0 0-2.151 1.348 5.62 5.62 0 0 0-1.366 2.287c.226.231.469.447.723.649.487-2.12 2.38-3.708 4.645-3.708 2.265 0 4.158 1.588 4.645 3.708a7.54 7.54 0 0 0 .723-.65"/>
        <path stroke="#FFF" stroke-width=".75" d="M7.875 1.375a7.5 7.5 0 1 1 0 15 7.5 7.5 0 0 1 0-15z"/>
    </g>
</svg>
