<?xml version="1.0" encoding="UTF-8"?>
<svg width="15px" height="15px" viewBox="0 0 15 15" version="1.1" xmlns="http://www.w3.org/2000/svg" xmlns:xlink="http://www.w3.org/1999/xlink">
    <!-- Generator: sketchtool 60.1 (101010) - https://sketch.com -->
    <title>7CB1D892-179A-4185-94A9-5B333E726CC7</title>
    <desc>Created with sketchtool.</desc>
    <g id="Dark-Moove" stroke="none" stroke-width="1" fill="none" fill-rule="evenodd">
        <g id="Moove---Dev---1.2" transform="translate(-160.000000, -849.000000)" fill="#DDDDDD">
            <g id="button/add-problem" transform="translate(60.000000, 831.000000)">
                <g id="icon/plus-circle">
                    <g transform="translate(100.000000, 18.000000)">
                        <path d="M7.5,0 C11.6352273,0 15,3.36477273 15,7.5 C15,11.6352273 11.6352273,15 7.5,15 C3.36477273,15 0,11.6352273 0,7.5 C0,3.36477273 3.36477273,0 7.5,0 Z M7.5,1.36363636 C4.11681818,1.36363636 1.36363636,4.11681818 1.36363636,7.5 C1.36363636,10.8838636 4.11681818,13.6363636 7.5,13.6363636 C10.8838636,13.6363636 13.6363636,10.8838636 13.6363636,7.5 C13.6363636,4.11681818 10.8838636,1.36363636 7.5,1.36363636 Z M7.5,4.09090909 C7.87636364,4.09090909 8.18181818,4.39636364 8.18181818,4.77272727 L8.18181818,4.77272727 L8.18181818,6.81818182 L10.2272727,6.81818182 C10.6043182,6.81818182 10.9090909,7.12363636 10.9090909,7.5 C10.9090909,7.87636364 10.6043182,8.18181818 10.2272727,8.18181818 L10.2272727,8.18181818 L8.18181818,8.18181818 L8.18181818,10.2272727 C8.18181818,10.6043182 7.87636364,10.9090909 7.5,10.9090909 C7.12363636,10.9090909 6.81818182,10.6043182 6.81818182,10.2272727 L6.81818182,10.2272727 L6.81818182,8.18181818 L4.77272727,8.18181818 C4.39636364,8.18181818 4.09090909,7.87636364 4.09090909,7.5 C4.09090909,7.12363636 4.39636364,6.81818182 4.77272727,6.81818182 L4.77272727,6.81818182 L6.81818182,6.81818182 L6.81818182,4.77272727 C6.81818182,4.39636364 7.12363636,4.09090909 7.5,4.09090909 Z" id="Icon-Plus-Circle"></path>
                    </g>
                </g>
            </g>
        </g>
    </g>
</svg>