<?xml version="1.0" encoding="UTF-8"?>
<svg width="24px" height="24px" viewBox="0 0 32 32" version="1.1" xmlns="http://www.w3.org/2000/svg" xmlns:xlink="http://www.w3.org/1999/xlink" >
    <path d="M17,1.41666667 C25.5920833,1.41666667 32.5833333,8.40791667 32.5833333,17 C32.5833333,25.5920833 25.5920833,32.5833333 17,32.5833333 C8.40791667,32.5833333 1.41666667,25.5920833 1.41666667,17 C1.41666667,8.40791667 8.40791667,1.41666667 17,1.41666667 Z M17,4.25 C9.9705,4.25 4.25,9.9705 4.25,17 C4.25,24.0309167 9.9705,29.75 17,29.75 C24.0309167,29.75 29.75,24.0309167 29.75,17 C29.75,9.9705 24.0309167,4.25 17,4.25 Z M17,9.91666667 C17.782,9.91666667 18.4166667,10.5513333 18.4166667,11.3333333 L18.4166667,11.3333333 L18.4166667,15.5833333 L22.6666667,15.5833333 C23.4500833,15.5833333 24.0833333,16.218 24.0833333,17 C24.0833333,17.782 23.4500833,18.4166667 22.6666667,18.4166667 L22.6666667,18.4166667 L18.4166667,18.4166667 L18.4166667,22.6666667 C18.4166667,23.4500833 17.782,24.0833333 17,24.0833333 C16.218,24.0833333 15.5833333,23.4500833 15.5833333,22.6666667 L15.5833333,22.6666667 L15.5833333,18.4166667 L11.3333333,18.4166667 C10.5513333,18.4166667 9.91666667,17.782 9.91666667,17 C9.91666667,16.218 10.5513333,15.5833333 11.3333333,15.5833333 L11.3333333,15.5833333 L15.5833333,15.5833333 L15.5833333,11.3333333 C15.5833333,10.5513333 16.218,9.91666667 17,9.91666667 Z" id="path-1"></path>
</svg>