<svg xmlns="http://www.w3.org/2000/svg" width="21" height="21" viewBox="0 0 21 21">
    <path fill="#FFF" fill-rule="evenodd" d="M16.167 15.41c-.284-.849-.756-1.51-1.417-2.172a5.468 5.468 0 0 0-2.361-1.416h-.095c.945-.566 1.512-1.606 1.606-2.74 0-.755-.189-1.51-.567-2.171-.472-.945-1.416-1.417-2.36-1.606H10.5c-1.889 0-3.494 1.606-3.494 3.495 0 1.227.66 2.36 1.605 2.928h-.094c-.85.283-1.7.85-2.361 1.417-.662.66-1.134 1.321-1.417 2.17-1.133-1.321-1.795-3.021-1.795-4.91 0-4.155 3.4-7.555 7.556-7.555 4.156 0 7.556 3.4 7.556 7.555 0 1.984-.756 3.684-1.89 5.005M7.857 8.8A2.64 2.64 0 0 1 10.5 6.155 2.64 2.64 0 0 1 13.144 8.8a2.64 2.64 0 0 1-2.644 2.644c-1.511 0-2.644-1.132-2.644-2.644m2.644 9.256c-1.889 0-3.683-.757-5.006-1.89.662-2.172 2.645-3.777 5.006-3.777s4.344 1.605 5.006 3.778c-1.417 1.132-3.117 1.889-5.006 1.889M10.5 2A8.464 8.464 0 0 0 2 10.5c0 2.361.944 4.438 2.456 5.95.283.283.566.566.85.755C6.722 18.339 8.516 19 10.5 19c1.983 0 3.683-.661 5.194-1.795.284-.19.567-.472.85-.755A8.514 8.514 0 0 0 19 10.5C19 5.778 15.128 2 10.5 2"/>
</svg>
