<svg xmlns="http://www.w3.org/2000/svg" width="35" height="35" viewBox="0 0 35 35">
    <g fill="#FFF" fill-rule="nonzero">
        <path d="M16.758 29.849l-.021-9.681-8.333-4.857-8.319 4.84.02 9.756 8.299 4.818 8.354-4.876zm-7.51 2.432l.016-6.778 5.792-3.384.015 6.763-5.822 3.399zm-.846-15.02l5.82 3.393-5.8 3.388-5.82-3.406 5.8-3.375zm-6.627 4.845L7.578 25.5l-.014 6.788-5.775-3.353-.014-6.83zM25.745 15.312l-8.318 4.838.02 9.757 8.299 4.818 8.353-4.876-.021-9.681-8.333-4.856zm-.001 1.95l5.82 3.392-5.8 3.388-5.821-3.406 5.8-3.375zm-6.628 4.844L24.92 25.5l-.015 6.788-5.773-3.353-.015-6.83zm7.475 10.175l.014-6.778 5.792-3.384.015 6.763-5.821 3.399zM25.427 4.855L17.093 0 8.775 4.838l.02 9.757 8.298 4.818 8.353-4.876-.02-9.682zM17.092 1.95l5.82 3.392-5.8 3.39-5.82-3.407 5.8-3.375zm-6.627 4.844l5.803 3.397-.015 6.787-5.774-3.352-.014-6.832zm7.473 10.176l.015-6.778 5.792-3.385.015 6.764-5.822 3.399z"/>
    </g>
</svg>
