<svg xmlns="http://www.w3.org/2000/svg" width="14" height="18" viewBox="0 0 14 18">
    <g fill="#000" fill-rule="nonzero">
        <path d="M8.346 8.156a.344.344 0 0 0-.336.352c0 .194.15.351.336.351a.344.344 0 0 0 .337-.351.344.344 0 0 0-.337-.352zM7 6.047a.344.344 0 0 0-.337.351c0 .195.151.352.337.352a.344.344 0 0 0 .337-.352A.344.344 0 0 0 7 6.047zM2.962 15.188a.344.344 0 0 0-.337.351c0 .194.15.352.337.352a.344.344 0 0 0 .336-.352.344.344 0 0 0-.336-.351z"/>
        <path d="M13.677 14.332L9.356 6.306V2.05c.392-.145.673-.536.673-.994C10.029.473 9.576 0 9.019 0H4.981c-.557 0-1.01.473-1.01 1.055 0 .458.281.849.673.994v4.257L.323 14.332a2.532 2.532 0 0 0 .02 2.45C.768 17.544 1.53 18 2.375 18h9.248c.846 0 1.607-.456 2.034-1.218a2.532 2.532 0 0 0 .02-2.45zM5.274 6.571a.364.364 0 0 0 .043-.173V2.11h.337a.344.344 0 0 0 .336-.351.344.344 0 0 0-.336-.352H4.98a.345.345 0 0 1-.337-.351c0-.194.151-.352.337-.352h4.038c.186 0 .337.158.337.352a.345.345 0 0 1-.337.351h-.673a.344.344 0 0 0-.336.352c0 .194.15.351.336.351h.337V6.4c0 .06.015.12.043.172l1.983 3.684a6.256 6.256 0 0 0-3.527.753c-1.426.77-3.013.907-4.51.395L5.274 6.57zm7.803 9.856c-.305.545-.848.87-1.453.87H2.376a1.655 1.655 0 0 1-1.453-.87 1.809 1.809 0 0 1-.014-1.75l1.427-2.65a6.201 6.201 0 0 0 2.459.371 6.32 6.32 0 0 0 2.696-.765 5.594 5.594 0 0 1 3.628-.619l1.972 3.663c.296.55.29 1.205-.014 1.75z"/>
        <path d="M5.654 8.156c-.557 0-1.01.473-1.01 1.055 0 .581.453 1.055 1.01 1.055.557 0 1.01-.474 1.01-1.055 0-.582-.453-1.055-1.01-1.055zm0 1.406a.345.345 0 0 1-.337-.351c0-.194.151-.352.337-.352.185 0 .336.158.336.352a.345.345 0 0 1-.336.351zM11.038 15.188h-6.73a.344.344 0 0 0-.337.351c0 .194.15.352.337.352h6.73a.344.344 0 0 0 .337-.352.344.344 0 0 0-.337-.351z"/>
    </g>
</svg>
