<?xml version="1.0" ?><svg id="Layer_1" style="enable-background:new 0 0 30 30;" version="1.1" viewBox="0 0 30 30" xml:space="preserve" xmlns="http://www.w3.org/2000/svg" xmlns:xlink="http://www.w3.org/1999/xlink"><polygon points="11,22 8,19 8,14 16,22 "/><path d="M26.979,3.021C26.979,3.021,18,3,11,10c-2.99,2.99-3,8-1,10s7.01,1.99,10-1C27,12,26.979,3.021,26.979,3.021z M17,11  c0-1.105,0.895-2,2-2c1.105,0,2,0.895,2,2s-0.895,2-2,2C17.895,13,17,12.105,17,11z"/><path d="M18.811,18.676c0,0,0.757,3.784-0.757,5.297C15.784,26.243,12,27,12,27l1-7L18.811,18.676z"/><path d="M11.324,11.189c0,0-3.784-0.757-5.297,0.757C3.757,14.216,3,18,3,18l7-1L11.324,11.189z"/><path d="M9.542,22.34c-0.045,0.064-0.072,0.138-0.13,0.195c-0.975,0.975-2.438,0.488-2.438,0.488s-0.488-1.463,0.488-2.438  c0.058-0.058,0.131-0.084,0.195-0.13L7.2,19.997c-0.38,0.1-0.741,0.29-1.038,0.587c-1.366,1.366-1.149,4.4-1.149,4.4  s3.016,0.235,4.4-1.149C9.71,23.538,9.9,23.177,10,22.797L9.542,22.34z"/></svg>