<?xml version="1.0" encoding="UTF-8"?>
<svg width="16px" height="14px" viewBox="0 0 16 14" version="1.1" xmlns="http://www.w3.org/2000/svg" xmlns:xlink="http://www.w3.org/1999/xlink">
    <!-- Generator: sketchtool 60.1 (101010) - https://sketch.com -->
    <title>2DDF9865-0954-4023-AEE9-31F1536FB10C</title>
    <desc>Created with sketchtool.</desc>
    <g id="Asset-Artboard-Page" stroke="none" stroke-width="1" fill="none" fill-rule="evenodd">
        <g id="Icon-Search" transform="translate(0.014085, 0.000000)" fill="#FFFFFF">
            <path d="M1.42857143,5.95 C1.42857143,3.444 3.51428571,1.4 6.07142857,1.4 C8.62857143,1.4 10.7142857,3.444 10.7142857,5.95 C10.7142857,7.203 10.1928571,8.344 9.35,9.163 C8.51428571,9.989 7.35,10.5 6.07142857,10.5 C3.51428571,10.5 1.42857143,8.456 1.42857143,5.95 M14.0785718,12.803 L10.8428574,9.632 C11.6571432,8.617 12.1428575,7.336 12.1428575,5.95 C12.1428575,2.667 9.42142882,0 6.07142873,0 C2.72142864,0 1.90323947e-14,2.667 1.90323947e-14,5.95 C1.90323947e-14,9.233 2.72142864,11.9 6.07142873,11.9 C7.48571449,11.9 8.79285738,11.424 9.82857169,10.626 L13.0642861,13.797 C13.2071432,13.93 13.3857146,14 13.5714289,14 C13.7571432,14 13.9357147,13.93 14.0785718,13.797 C14.3571432,13.524 14.3571432,13.076 14.0785718,12.803"></path>
        </g>
    </g>
</svg>