<svg width="25px" height="25px" viewBox="0 0 15 15" version="1.1" xmlns="http://www.w3.org/2000/svg" xmlns:xlink="http://www.w3.org/1999/xlink">
    <path d="M7.50025,0 C8.534,0 9.37525,0.84125 9.37525,1.875 C9.375875,2.090625 9.47275,2.236875 9.6215,2.300625 C9.779625,2.37 9.955875,2.33875 10.075875,2.221875 C10.4615,1.835625 10.932125,1.64 11.433375,1.64 L11.434625,1.64 C11.930875,1.64 12.398375,1.831875 12.752125,2.18125 C12.75525,2.18375 12.75775,2.186875 12.760875,2.189375 L12.760875,2.18875 C13.492125,2.919375 13.49275,4.109375 12.76275,4.840625 C12.6115,4.99375 12.579625,5.169375 12.647125,5.3225 C12.664625,5.3625 12.678375,5.404375 12.6865,5.446875 C12.7615,5.556875 12.885875,5.624375 13.0215,5.625 L13.12525,5.625 C14.159,5.625 15.00025,6.46625 15.00025,7.5 C15.00025,8.53375 14.159,9.375 13.12525,9.375 C12.909625,9.375625 12.763375,9.471875 12.699625,9.62125 C12.699,9.623125 12.69775,9.625 12.697125,9.6275 C12.629625,9.78 12.6615,9.95625 12.778375,10.075625 C13.542125,10.838125 13.54275,12.0275 12.81275,12.759375 C12.079625,13.491875 10.890875,13.491875 10.159,12.7625 C10.005875,12.61125 9.829,12.578125 9.67775,12.646875 C9.522125,12.71375 9.425875,12.859375 9.42525,13.021875 L9.42525,13.125 C9.42525,14.15875 8.584,15 7.55025,15 C6.515875,15 5.67525,14.15875 5.67525,13.125 C5.670875,12.915625 5.567125,12.77 5.409625,12.711875 C5.219625,12.629375 5.043375,12.661875 4.924625,12.778125 C4.160875,13.540625 2.9715,13.541875 2.240875,12.8125 L2.227125,12.79875 L2.227125,12.79875 C1.88025,12.44625 1.689625,11.980625 1.689625,11.485625 C1.689625,10.984375 1.884,10.51375 2.238375,10.159375 C2.388375,10.00625 2.420875,9.830625 2.353375,9.676875 C2.2865,9.5225 2.140875,9.425625 1.978375,9.425 L1.87525,9.425 C0.840875,9.425 0.00025,8.58375 0.00025,7.55 C0.00025,6.51625 0.840875,5.675 1.87525,5.675 C2.084625,5.67125 2.23025,5.566875 2.288375,5.409375 C2.370875,5.22 2.339,5.04375 2.222125,4.925 C1.458375,4.16125 1.45775,2.971875 2.188375,2.240625 C2.919625,1.508125 4.109,1.506875 4.840875,2.238125 C4.994,2.389375 5.17025,2.42125 5.32275,2.353125 C5.36275,2.335625 5.404625,2.3225 5.4465,2.313125 C5.5565,2.239375 5.624625,2.114375 5.62525,1.97875 L5.62525,1.875 C5.62525,0.84125 6.465875,0 7.50025,0 Z M7.50025,1.25 C7.15525,1.25 6.87525,1.530625 6.87525,1.875 L6.87525,1.98125 C6.87275,2.64375 6.478375,3.239375 5.8715,3.499375 C5.818375,3.521875 5.76275,3.5375 5.705875,3.545 C5.113375,3.75375 4.455875,3.61125 4.00025,3.165625 C3.714,2.879375 3.317125,2.87875 3.073375,3.123125 C2.829,3.3675 2.829,3.764375 3.073375,4.008125 C3.592125,4.536875 3.722125,5.254375 3.447125,5.8775 C3.22525,6.483125 2.63025,6.90875 1.945875,6.925 L1.87525,6.925 L1.87525,6.925 C1.53025,6.925 1.25025,7.205625 1.25025,7.55 C1.25025,7.894375 1.53025,8.175 1.87525,8.175 L1.9815,8.175 C2.644625,8.178125 3.239,8.571875 3.499625,9.17875 C3.7715,9.79625 3.6415,10.513125 3.165875,11 C3.004625,11.160625 2.939625,11.3175 2.939625,11.485 C2.939625,11.6185 2.981225,11.7456 3.058345,11.85126 L3.12275,11.92625 L3.12775,11.931875 C3.372125,12.17125 3.765875,12.16875 4.00775,11.926875 C4.3565,11.585625 4.785875,11.413125 5.2165,11.413125 C5.44025,11.413125 5.664625,11.459375 5.877125,11.553125 C6.48275,11.774375 6.908375,12.369375 6.924625,13.054375 L6.92525,13.125 L6.92525,13.125 C6.92525,13.47 7.20525,13.75 7.55025,13.75 C7.894625,13.75 8.17525,13.47 8.17525,13.125 L8.17525,13.01875 C8.178375,12.355625 8.572125,11.76 9.179,11.500625 C9.794625,11.228125 10.512125,11.358125 10.999625,11.835 C11.128625,11.963 11.254825,12.0306 11.385585,12.05252 L11.48525,12.060625 C11.6515,12.06 11.808375,11.995 11.9265,11.876875 C12.045875,11.758125 12.110875,11.60125 12.110875,11.43375 C12.11025,11.266875 12.04525,11.11 11.927125,10.9925 C11.409,10.46375 11.279,9.74875 11.552125,9.12625 C11.812125,8.52125 12.4065,8.128125 13.065875,8.125 C13.469625,8.125 13.75025,7.844375 13.75025,7.5 C13.75025,7.155625 13.469625,6.875 13.12525,6.875 L13.019,6.875 C12.355875,6.8725 11.760875,6.47875 11.500875,5.87125 C11.478375,5.81875 11.46275,5.763125 11.455875,5.70625 C11.2465,5.113125 11.389,4.455625 11.834625,4 C12.11775,3.716875 12.120875,3.325 11.884625,3.08125 L11.875875,3.0725 L11.875875,3.0725 C11.75775,2.954375 11.600875,2.89 11.434625,2.89 L11.434,2.89 C11.267125,2.89 11.11025,2.955 10.99275,3.073125 C10.46275,3.5925 9.744625,3.721875 9.122125,3.446875 C8.5215,3.189375 8.12775,2.594375 8.12525,1.93375 C8.12525,1.530625 7.844625,1.25 7.50025,1.25 Z M7.5,5 C8.87875,5 10,6.12125 10,7.5 C10,8.87875 8.87875,10 7.5,10 C6.12125,10 5,8.87875 5,7.5 C5,6.12125 6.12125,5 7.5,5 Z M7.5,6.25 C6.810625,6.25 6.25,6.810625 6.25,7.5 C6.25,8.189375 6.810625,8.75 7.5,8.75 C8.189375,8.75 8.75,8.189375 8.75,7.5 C8.75,6.810625 8.189375,6.25 7.5,6.25 Z" id="path-1" fill="#636366"></path>
        <g id="sidebar/expand/circles" transform="translate(-22.000000, -247.000000)">
            <g id="Setting" transform="translate(0.000000, 231.000000)">
                <g id="Icon/Miscellaneous/Settings" transform="translate(22.000000, 16.000000)">
            </g>
        </g>
    </g>
</svg>