<?xml version="1.0" encoding="UTF-8"?>
<svg width="24px" height="24px" viewBox="0 0 24 24" version="1.1" xmlns="http://www.w3.org/2000/svg" xmlns:xlink="http://www.w3.org/1999/xlink" fill="#636366">
<path d="M20,19 C20,19.552 19.552,20 19,20 L10,20 L10,4 L19,4 C19.552,4 20,4.449 20,5 L20,19 Z M4,19 L4,5 C4,4.449 4.449,4 5,4 L8,4 L8,20 L5,20 C4.449,20 4,19.552 4,19 L4,19 Z M19,2 L5,2 C3.346,2 2,3.346 2,5 L2,19 C2,20.654 3.346,22 5,22 L19,22 C20.654,22 22,20.654 22,19 L22,5 C22,3.346 20.654,2 19,2 L19,2 Z" id="path-1"></path>
</svg>