<?xml version="1.0" ?><svg contentScriptType="text/ecmascript" contentStyleType="text/css" enable-background="new 0 0 16px 16px" height="100%" id="Layer_1" preserveAspectRatio="xMidYMid meet" version="1.1" viewBox="0.0 0 1536.0 16px" width="100%" xml:space="preserve" xmlns="http://www.w3.org/2000/svg" xmlns:xlink="http://www.w3.org/1999/xlink" zoomAndPan="magnify"><path d="M1284,862c0-18.667-6-34-18-46l-91-90c-12.667-12.667-27.667-19-45-19s-32.333,6.333-45,19l-408,407L451,907  c-12.667-12.667-27.667-19-45-19s-32.333,6.333-45,19l-91,90c-12,12-18,27.333-18,46c0,18,6,33,18,45l362,362  c12.667,12.667,27.667,19,45,19c18,0,33.333-6.333,46-19l543-543C1278,895,1284,880,1284,862z M1536,1024  c0,139.333-34.333,267.833-103,385.5s-161.833,210.833-279.5,279.5S907.333,1792,768,1792s-267.833-34.333-385.5-103  S171.667,1527.167,103,1409.5S0,1163.333,0,1024s34.333-267.833,103-385.5S264.833,427.667,382.5,359S628.667,256,768,256  s267.833,34.333,385.5,103s210.833,161.833,279.5,279.5S1536,884.667,1536,1024z"/></svg>