<?xml version="1.0" encoding="UTF-8"?>
<svg width="20px" height="20px" viewBox="0 0 20 20" version="1.1" xmlns="http://www.w3.org/2000/svg" xmlns:xlink="http://www.w3.org/1999/xlink">
    <path fill="#636366" d="M11.6666667,0.833333333 C13.045,0.833333333 14.1666667,1.955 14.1666667,3.33333333 L14.1666667,3.33333333 L14.1666667,4.16666667 L17.5,4.16666667 C17.9608333,4.16666667 18.3333333,4.54 18.3333333,5 C18.3333333,5.46 17.9608333,5.83333333 17.5,5.83333333 L17.5,5.83333333 L16.6666667,5.83333333 L16.6666667,16.6666667 C16.6666667,18.045 15.545,19.1666667 14.1666667,19.1666667 L14.1666667,19.1666667 L5.83333333,19.1666667 C4.455,19.1666667 3.33333333,18.045 3.33333333,16.6666667 L3.33333333,16.6666667 L3.33333333,5.83333333 L2.5,5.83333333 C2.04,5.83333333 1.66666667,5.46 1.66666667,5 C1.66666667,4.54 2.04,4.16666667 2.5,4.16666667 L2.5,4.16666667 L5.83333333,4.16666667 L5.83333333,3.33333333 C5.83333333,1.955 6.955,0.833333333 8.33333333,0.833333333 L8.33333333,0.833333333 Z M15,5.83333333 L5,5.83333333 L5,16.6666667 C5,17.1266667 5.37416667,17.5 5.83333333,17.5 L5.83333333,17.5 L14.1666667,17.5 C14.6266667,17.5 15,17.1266667 15,16.6666667 L15,16.6666667 L15,5.83333333 Z M8.33333333,8.33333333 C8.79333333,8.33333333 9.16666667,8.70666667 9.16666667,9.16666667 L9.16666667,9.16666667 L9.16666667,14.1666667 C9.16666667,14.6275 8.79333333,15 8.33333333,15 C7.87333333,15 7.5,14.6275 7.5,14.1666667 L7.5,14.1666667 L7.5,9.16666667 C7.5,8.70666667 7.87333333,8.33333333 8.33333333,8.33333333 Z M11.6666667,8.33333333 C12.1275,8.33333333 12.5,8.70666667 12.5,9.16666667 L12.5,9.16666667 L12.5,14.1666667 C12.5,14.6275 12.1275,15 11.6666667,15 C11.2058333,15 10.8333333,14.6275 10.8333333,14.1666667 L10.8333333,14.1666667 L10.8333333,9.16666667 C10.8333333,8.70666667 11.2058333,8.33333333 11.6666667,8.33333333 Z M11.6666667,2.5 L8.33333333,2.5 C7.87416667,2.5 7.5,2.87416667 7.5,3.33333333 L7.5,3.33333333 L7.5,4.16666667 L12.5,4.16666667 L12.5,3.33333333 C12.5,2.87416667 12.1266667,2.5 11.6666667,2.5 L11.6666667,2.5 Z" id="path-1"></path>
</svg>
