<svg xmlns="http://www.w3.org/2000/svg" xmlns:xlink="http://www.w3.org/1999/xlink" width="13" height="14" viewBox="0 0 13 14">
<!--    <defs>-->
        <path fill="#636366" d="M5.958 5v5.746a.32.32 0 0 1-.319.32h-.638a.32.32 0 0 1-.32-.32V5.001a.32.32 0 0 1 .32-.32h.638a.32.32 0 0 1 .32.32zm2.66-.318H7.98A.32.32 0 0 0 7.66 5v5.745c0 .177.144.32.32.32h.638a.32.32 0 0 0 .32-.32V5.001a.32.32 0 0 0-.32-.32zm3.512-2.554c.352 0 .638.286.638.638v.32a.32.32 0 0 1-.32.319h-.531v8.937c0 .706-.572 1.277-1.277 1.277H2.98a1.277 1.277 0 0 1-1.278-1.277V3.405H1.17a.32.32 0 0 1-.319-.32v-.319c0-.352.286-.638.639-.638h1.979L4.374.62C4.604.235 5.02 0 5.469 0H8.15c.448 0 .864.235 1.094.62l.905 1.508h1.98zm-7.172 0H8.66l-.464-.774a.16.16 0 0 0-.137-.077h-2.5a.16.16 0 0 0-.138.077l-.464.774zm5.682 1.277H2.98v8.778c0 .088.07.16.159.16h7.341a.16.16 0 0 0 .16-.16V3.405z"/>
<!--    </defs>-->
<!--    <use fill="#3945D8" xlink:href="#a"/>-->
</svg>
