<?xml version="1.0" encoding="UTF-8"?>
<svg width="16px" height="15px" viewBox="0 0 16 15" version="1.1" xmlns="http://www.w3.org/2000/svg" xmlns:xlink="http://www.w3.org/1999/xlink">
    <path d="M13.125,9.99912482 C13.470625,9.99912482 13.75,10.2784998 13.75,10.6241248 L13.75,10.6241248 L13.75,12.4991248 C13.75,13.5328748 12.90875,14.3741248 11.875,14.3741248 L11.875,14.3741248 L3.125,14.3741248 C2.09125,14.3741248 1.25,13.5328748 1.25,12.4991248 L1.25,12.4991248 L1.25,10.6241248 C1.25,10.2784998 1.53,9.99912482 1.875,9.99912482 C2.22,9.99912482 2.5,10.2784998 2.5,10.6241248 L2.5,10.6241248 L2.5,12.4991248 C2.5,12.8441248 2.780625,13.1241248 3.125,13.1241248 L3.125,13.1241248 L11.875,13.1241248 C12.22,13.1241248 12.5,12.8441248 12.5,12.4991248 L12.5,12.4991248 L12.5,10.6241248 C12.5,10.2784998 12.779375,9.99912482 13.125,9.99912482 Z M7.26125001,0.672249984 C7.41375,0.609124985 7.58625,0.609124985 7.73874999,0.672249984 C7.81499999,0.704124983 7.88437499,0.749749982 7.94187499,0.807249981 L7.94187499,0.807249981 L10.4418749,3.30724994 C10.6862499,3.55162494 10.6862499,3.94662493 10.4418749,4.19099992 C10.3199999,4.31287492 10.1599999,4.37412492 9.99999993,4.37412492 C9.83999994,4.37412492 9.67999994,4.31287492 9.55812494,4.19099992 L9.55812494,4.19099992 L8.12499998,2.75787495 L8.12499998,9.99912483 C8.12499998,10.3447498 7.84499999,10.6241248 7.5,10.6241248 C7.15500001,10.6241248 6.87500002,10.3447498 6.87500002,9.99912483 L6.87500002,9.99912483 L6.87500002,2.75787495 L5.44187506,4.19099992 C5.19750006,4.43537492 4.80250007,4.43537492 4.55812508,4.19099992 C4.31375009,3.94662493 4.31375009,3.55162494 4.55812508,3.30724994 L4.55812508,3.30724994 L7.05750001,0.807249981 C7.11562501,0.749749982 7.18500001,0.704124983 7.26125001,0.672249984 Z" id="path-1"></path>
</svg>