<?xml version="1.0" encoding="UTF-8"?>
<svg width="14px" height="14px" viewBox="0 0 14 14" version="1.1" xmlns="http://www.w3.org/2000/svg" xmlns:xlink="http://www.w3.org/1999/xlink">
    <!-- Generator: sketchtool 57.1 (101010) - https://sketch.com -->
    <title>198D02E0-1C07-4646-83B2-EE8287CF9B80</title>
    <desc>Created with sketchtool.</desc>
    <g id="Moove" stroke="none" stroke-width="1" fill="none" fill-rule="evenodd">
        <g id="3.1---Card-aberto" transform="translate(-107.000000, -158.000000)" fill="#CCCCCC" fill-rule="nonzero" stroke="#CCCCCC" stroke-width="0.5">
            <g id="Group-19" transform="translate(99.000000, 84.000000)">
                <g id="icon/card-icon/card_comment-copy" transform="translate(0.000000, 71.000000)">
                    <g id="iconfinder_Artboard_19_3030708" transform="translate(8.456376, 4.026846)">
                        <path d="M4.02684564,6.04026846 C2.35887156,6.04026846 1.00671141,4.6881083 1.00671141,3.02013423 C1.00671141,1.35216015 2.35887156,0 4.02684564,0 C5.69481971,0 7.04697987,1.35216015 7.04697987,3.02013423 C7.04697987,4.6881083 5.69481971,6.04026846 4.02684564,6.04026846 Z M4.02684564,0.431447747 C2.59715357,0.431447747 1.43815916,1.59044216 1.43815916,3.02013423 C1.43815916,4.44982629 2.59715357,5.60882071 4.02684564,5.60882071 C5.4565377,5.60882071 6.61553212,4.44982629 6.61553212,3.02013423 C6.61553212,1.59044216 5.4565377,0.431447747 4.02684564,0.431447747 Z" id="Shape"></path>
                        <path d="M8.65771812,6.04026846 L8.65771812,5.60882071 C9.8967846,5.60882071 10.9012464,4.44982629 10.9012464,3.02013423 C10.9012464,1.59044216 9.8967846,0.431447747 8.65771812,0.431447747 L8.65771812,0 C10.1032957,0 11.2751678,1.35216017 11.2751678,3.02013423 C11.2751678,4.68810829 10.1032957,6.04026846 8.65771812,6.04026846 Z" id="Path"></path>
                        <path d="M8.4609518,12.0805369 L0.196766321,12.0805369 C0.0880952826,12.0805369 0,11.9960269 0,11.8917785 L0,10.192953 C0,7.89948866 1.93809622,6.04026846 4.32885906,6.04026846 C6.7196219,6.04026846 8.65771812,7.89948866 8.65771812,10.192953 L8.65771812,11.8917785 C8.65771812,11.9418404 8.63698744,11.9898518 8.6000866,12.0252509 C8.56318576,12.0606499 8.51313747,12.0805369 8.4609518,12.0805369 Z M0.393532642,11.7030201 L8.26418548,11.7030201 L8.26418548,10.192953 C8.26418548,8.10798542 6.50227983,6.41778523 4.32885906,6.41778523 C2.15543829,6.41778523 0.393532642,8.10798542 0.393532642,10.192953 L0.393532642,11.7030201 Z" id="Shape"></path>
                        <path d="M12.885906,12.0805369 L9.66442953,12.0805369 L9.66442953,11.7030201 L12.6845638,11.7030201 L12.6845638,10.192953 C12.6845638,8.10798542 10.8816836,6.41778523 8.65771812,6.41778523 L8.65771812,6.04026846 C11.1040801,6.04026846 13.0872483,7.89948866 13.0872483,10.192953 L13.0872483,11.8917785 C13.0872483,11.9960269 12.9971043,12.0805369 12.885906,12.0805369 Z" id="Path"></path>
                    </g>
                </g>
            </g>
        </g>
    </g>
</svg>