<?xml version="1.0" encoding="UTF-8"?>
<svg width="14px" height="14px" viewBox="0 0 14 14" version="1.1" xmlns="http://www.w3.org/2000/svg" xmlns:xlink="http://www.w3.org/1999/xlink">
    <!-- Generator: sketchtool 60.1 (101010) - https://sketch.com -->
    <title>4549544D-474C-4CC1-906E-BC594754805D</title>
    <desc>Created with sketchtool.</desc>
    <defs>
        <path d="M7,8.16666667 C8.60825,8.16666667 9.91666667,9.47508333 9.91666667,11.0833333 L9.91666667,11.0833333 L9.91666667,12.25 C9.91666667,12.5725833 9.65591667,12.8333333 9.33333333,12.8333333 C9.01075,12.8333333 8.75,12.5725833 8.75,12.25 L8.75,12.25 L8.75,11.0833333 C8.75,10.1185 7.96483333,9.33333333 7,9.33333333 L7,9.33333333 L2.91666667,9.33333333 C1.95183333,9.33333333 1.16666667,10.1185 1.16666667,11.0833333 L1.16666667,11.0833333 L1.16666667,12.25 C1.16666667,12.5725833 0.905333333,12.8333333 0.583333333,12.8333333 C0.261333333,12.8333333 0,12.5725833 0,12.25 L0,12.25 L0,11.0833333 C0,9.47508333 1.30841667,8.16666667 2.91666667,8.16666667 L2.91666667,8.16666667 Z M11.6666667,4.08333333 C11.98925,4.08333333 12.25,4.34466667 12.25,4.66666667 L12.25,4.66666667 L12.25,5.83333333 L13.4166667,5.83333333 C13.73925,5.83333333 14,6.09466667 14,6.41666667 C14,6.73866667 13.73925,7 13.4166667,7 L13.4166667,7 L12.25,7 L12.25,8.16666667 C12.25,8.48925 11.98925,8.75 11.6666667,8.75 C11.3440833,8.75 11.0833333,8.48925 11.0833333,8.16666667 L11.0833333,8.16666667 L11.0833333,7 L9.91666667,7 C9.59408333,7 9.33333333,6.73866667 9.33333333,6.41666667 C9.33333333,6.09466667 9.59408333,5.83333333 9.91666667,5.83333333 L9.91666667,5.83333333 L11.0833333,5.83333333 L11.0833333,4.66666667 C11.0833333,4.34466667 11.3440833,4.08333333 11.6666667,4.08333333 Z M4.95833333,1.16666667 C6.56658333,1.16666667 7.875,2.47508333 7.875,4.08333333 C7.875,5.69158333 6.56658333,7 4.95833333,7 C3.35008333,7 2.04166667,5.69158333 2.04166667,4.08333333 C2.04166667,2.47508333 3.35008333,1.16666667 4.95833333,1.16666667 Z M4.95833333,2.33333333 C3.9935,2.33333333 3.20833333,3.1185 3.20833333,4.08333333 C3.20833333,5.04816667 3.9935,5.83333333 4.95833333,5.83333333 C5.92316667,5.83333333 6.70833333,5.04816667 6.70833333,4.08333333 C6.70833333,3.1185 5.92316667,2.33333333 4.95833333,2.33333333 Z" id="path-1"></path>
    </defs>
    <g id="Asset-Artboard-Page" stroke="none" stroke-width="1" fill="none" fill-rule="evenodd">
        <g id="Icon/User/Plus">
            <mask id="mask-2" fill="white">
                <use xlink:href="#path-1"></use>
            </mask>
            <use id="Icon-User-Plus" fill="#FAFAFB" xlink:href="#path-1"></use>
        </g>
    </g>
</svg>