<?xml version="1.0" encoding="UTF-8"?>
<svg width="398px" height="302px" viewBox="0 0 398 302" version="1.1" xmlns="http://www.w3.org/2000/svg" xmlns:xlink="http://www.w3.org/1999/xlink">
    <!-- Generator: Sketch 63.1 (92452) - https://sketch.com -->
    <title>example-csv@1,5x</title>
    <desc>Created with Sketch.</desc>
    <g id="Circles---Create-circle" stroke="none" stroke-width="1" fill="none" fill-rule="evenodd">
        <g id="Circles---Create-Circle---Create-Segments---CSV---3.0" transform="translate(-513.000000, -343.000000)">
            <g id="Group-12" transform="translate(513.000000, 303.000000)">
                <g id="Group-13">
                    <g id="example-csv" transform="translate(0.000000, 40.000000)">
                        <rect id="Rectangle" fill="#3A3A3C" x="0" y="0" width="398" height="302" rx="4"></rect>
                        <rect id="Container" stroke="#48484A" x="329.999142" y="271" width="60" height="24"></rect>
                        <rect id="Container" stroke="#48484A" x="329.999142" y="271" width="60" height="24"></rect>
                        <rect id="Container" stroke="#48484A" x="269.999357" y="271" width="60" height="24"></rect>
                        <rect id="Container" stroke="#48484A" x="269.999357" y="271" width="60" height="24"></rect>
                        <rect id="Container" stroke="#48484A" x="209.999571" y="271" width="60" height="24"></rect>
                        <rect id="Container" stroke="#48484A" x="209.999571" y="271" width="60" height="24"></rect>
                        <rect id="Container" stroke="#48484A" x="149.999786" y="271" width="60" height="24"></rect>
                        <rect id="Container" stroke="#48484A" x="149.999786" y="271" width="60" height="24"></rect>
                        <rect id="Container" stroke="#48484A" x="30" y="271" width="120" height="24"></rect>
                        <rect id="Container" stroke="#48484A" x="30" y="271" width="120" height="24"></rect>
                        <text id="Value" font-family="Lato-Regular, Lato" font-size="10" font-weight="normal" fill="#C7C7D4">
                            <tspan x="36" y="286">Value</tspan>
                        </text>
                        <rect id="Container" stroke="#48484A" x="329.999142" y="247" width="60" height="24"></rect>
                        <rect id="Container" stroke="#48484A" x="329.999142" y="247" width="60" height="24"></rect>
                        <rect id="Container" stroke="#48484A" x="269.999357" y="247" width="60" height="24"></rect>
                        <rect id="Container" stroke="#48484A" x="269.999357" y="247" width="60" height="24"></rect>
                        <rect id="Container" stroke="#48484A" x="209.999571" y="247" width="60" height="24"></rect>
                        <rect id="Container" stroke="#48484A" x="209.999571" y="247" width="60" height="24"></rect>
                        <rect id="Container" stroke="#48484A" x="149.999786" y="247" width="60" height="24"></rect>
                        <rect id="Container" stroke="#48484A" x="149.999786" y="247" width="60" height="24"></rect>
                        <rect id="Container" stroke="#48484A" x="30" y="247" width="120" height="24"></rect>
                        <rect id="Container" stroke="#48484A" x="30" y="247" width="120" height="24"></rect>
                        <text id="Value" font-family="Lato-Regular, Lato" font-size="10" font-weight="normal" fill="#C7C7D4">
                            <tspan x="36" y="262">Value</tspan>
                        </text>
                        <rect id="Container" stroke="#48484A" x="329.999142" y="223" width="60" height="24"></rect>
                        <rect id="Container" stroke="#48484A" x="329.999142" y="223" width="60" height="24"></rect>
                        <rect id="Container" stroke="#48484A" x="269.999357" y="223" width="60" height="24"></rect>
                        <rect id="Container" stroke="#48484A" x="269.999357" y="223" width="60" height="24"></rect>
                        <rect id="Container" stroke="#48484A" x="209.999571" y="223" width="60" height="24"></rect>
                        <rect id="Container" stroke="#48484A" x="209.999571" y="223" width="60" height="24"></rect>
                        <rect id="Container" stroke="#48484A" x="149.999786" y="223" width="60" height="24"></rect>
                        <rect id="Container" stroke="#48484A" x="149.999786" y="223" width="60" height="24"></rect>
                        <rect id="Container" stroke="#48484A" x="30" y="223" width="120" height="24"></rect>
                        <rect id="Container" stroke="#48484A" x="30" y="223" width="120" height="24"></rect>
                        <text id="Value" font-family="Lato-Regular, Lato" font-size="10" font-weight="normal" fill="#C7C7D4">
                            <tspan x="36" y="238">Value</tspan>
                        </text>
                        <rect id="Container" stroke="#48484A" x="329.999142" y="199" width="60" height="24"></rect>
                        <rect id="Container" stroke="#48484A" x="329.999142" y="199" width="60" height="24"></rect>
                        <rect id="Container" stroke="#48484A" x="269.999357" y="199" width="60" height="24"></rect>
                        <rect id="Container" stroke="#48484A" x="269.999357" y="199" width="60" height="24"></rect>
                        <rect id="Container" stroke="#48484A" x="209.999571" y="199" width="60" height="24"></rect>
                        <rect id="Container" stroke="#48484A" x="209.999571" y="199" width="60" height="24"></rect>
                        <rect id="Container" stroke="#48484A" x="149.999786" y="199" width="60" height="24"></rect>
                        <rect id="Container" stroke="#48484A" x="149.999786" y="199" width="60" height="24"></rect>
                        <rect id="Container" stroke="#48484A" x="30" y="199" width="120" height="24"></rect>
                        <rect id="Container" stroke="#48484A" x="30" y="199" width="120" height="24"></rect>
                        <text id="Value" font-family="Lato-Regular, Lato" font-size="10" font-weight="normal" fill="#C7C7D4">
                            <tspan x="36" y="214">Value</tspan>
                        </text>
                        <rect id="Container" stroke="#48484A" x="329.999142" y="175" width="60" height="24"></rect>
                        <rect id="Container" stroke="#48484A" x="329.999142" y="175" width="60" height="24"></rect>
                        <rect id="Container" stroke="#48484A" x="269.999357" y="175" width="60" height="24"></rect>
                        <rect id="Container" stroke="#48484A" x="269.999357" y="175" width="60" height="24"></rect>
                        <rect id="Container" stroke="#48484A" x="209.999571" y="175" width="60" height="24"></rect>
                        <rect id="Container" stroke="#48484A" x="209.999571" y="175" width="60" height="24"></rect>
                        <rect id="Container" stroke="#48484A" x="149.999786" y="175" width="60" height="24"></rect>
                        <rect id="Container" stroke="#48484A" x="149.999786" y="175" width="60" height="24"></rect>
                        <rect id="Container" stroke="#48484A" x="30" y="175" width="120" height="24"></rect>
                        <rect id="Container" stroke="#48484A" x="30" y="175" width="120" height="24"></rect>
                        <text id="Value" font-family="Lato-Regular, Lato" font-size="10" font-weight="normal" fill="#C7C7D4">
                            <tspan x="36" y="190">Value</tspan>
                        </text>
                        <rect id="Container" stroke="#48484A" x="329.999142" y="151" width="60" height="24"></rect>
                        <rect id="Container" stroke="#48484A" x="329.999142" y="151" width="60" height="24"></rect>
                        <rect id="Container" stroke="#48484A" x="269.999357" y="151" width="60" height="24"></rect>
                        <rect id="Container" stroke="#48484A" x="269.999357" y="151" width="60" height="24"></rect>
                        <rect id="Container" stroke="#48484A" x="209.999571" y="151" width="60" height="24"></rect>
                        <rect id="Container" stroke="#48484A" x="209.999571" y="151" width="60" height="24"></rect>
                        <rect id="Container" stroke="#48484A" x="149.999786" y="151" width="60" height="24"></rect>
                        <rect id="Container" stroke="#48484A" x="149.999786" y="151" width="60" height="24"></rect>
                        <rect id="Container" stroke="#48484A" x="30" y="151" width="120" height="24"></rect>
                        <rect id="Container" stroke="#48484A" x="30" y="151" width="120" height="24"></rect>
                        <text id="Value" font-family="Lato-Regular, Lato" font-size="10" font-weight="normal" fill="#C7C7D4">
                            <tspan x="36" y="166">Value</tspan>
                        </text>
                        <rect id="Container" stroke="#48484A" x="329.999142" y="127" width="60" height="24"></rect>
                        <rect id="Container" stroke="#48484A" x="329.999142" y="127" width="60" height="24"></rect>
                        <rect id="Container" stroke="#48484A" x="269.999357" y="127" width="60" height="24"></rect>
                        <rect id="Container" stroke="#48484A" x="269.999357" y="127" width="60" height="24"></rect>
                        <rect id="Container" stroke="#48484A" x="209.999571" y="127" width="60" height="24"></rect>
                        <rect id="Container" stroke="#48484A" x="209.999571" y="127" width="60" height="24"></rect>
                        <rect id="Container" stroke="#48484A" x="149.999786" y="127" width="60" height="24"></rect>
                        <rect id="Container" stroke="#48484A" x="149.999786" y="127" width="60" height="24"></rect>
                        <rect id="Container" stroke="#48484A" x="30" y="127" width="120" height="24"></rect>
                        <rect id="Container" stroke="#48484A" x="30" y="127" width="120" height="24"></rect>
                        <text id="Value" font-family="Lato-Regular, Lato" font-size="10" font-weight="normal" fill="#C7C7D4">
                            <tspan x="36" y="142">Value</tspan>
                        </text>
                        <rect id="Container" stroke="#48484A" x="329.999142" y="103" width="60" height="24"></rect>
                        <rect id="Container" stroke="#48484A" x="329.999142" y="103" width="60" height="24"></rect>
                        <rect id="Container" stroke="#48484A" x="269.999357" y="103" width="60" height="24"></rect>
                        <rect id="Container" stroke="#48484A" x="269.999357" y="103" width="60" height="24"></rect>
                        <rect id="Container" stroke="#48484A" x="209.999571" y="103" width="60" height="24"></rect>
                        <rect id="Container" stroke="#48484A" x="209.999571" y="103" width="60" height="24"></rect>
                        <rect id="Container" stroke="#48484A" x="149.999786" y="103" width="60" height="24"></rect>
                        <rect id="Container" stroke="#48484A" x="149.999786" y="103" width="60" height="24"></rect>
                        <rect id="Container" stroke="#48484A" x="30" y="103" width="120" height="24"></rect>
                        <rect id="Container" stroke="#48484A" x="30" y="103" width="120" height="24"></rect>
                        <text id="Value" font-family="Lato-Regular, Lato" font-size="10" font-weight="normal" fill="#C7C7D4">
                            <tspan x="36" y="118">Value</tspan>
                        </text>
                        <rect id="Container" stroke="#48484A" x="329.999142" y="79" width="60" height="24"></rect>
                        <rect id="Container" stroke="#48484A" x="329.999142" y="79" width="60" height="24"></rect>
                        <rect id="Container" stroke="#48484A" x="269.999357" y="79" width="60" height="24"></rect>
                        <rect id="Container" stroke="#48484A" x="269.999357" y="79" width="60" height="24"></rect>
                        <rect id="Container" stroke="#48484A" x="209.999571" y="79" width="60" height="24"></rect>
                        <rect id="Container" stroke="#48484A" x="209.999571" y="79" width="60" height="24"></rect>
                        <rect id="Container" stroke="#48484A" x="30" y="79" width="120" height="24"></rect>
                        <rect id="Container" stroke="#48484A" x="30" y="79" width="120" height="24"></rect>
                        <text id="Value" font-family="Lato-Regular, Lato" font-size="10" font-weight="normal" fill="#C7C7D4">
                            <tspan x="36" y="94">Value</tspan>
                        </text>
                        <rect id="Container" stroke="#48484A" x="149.999786" y="79" width="60" height="24"></rect>
                        <rect id="Container" stroke="#48484A" x="149.999786" y="79" width="60" height="24"></rect>
                        <rect id="Container" stroke="#48484A" x="329.999142" y="55" width="60" height="24"></rect>
                        <rect id="Container" stroke="#48484A" x="329.999142" y="55" width="60" height="24"></rect>
                        <rect id="Container" stroke="#48484A" x="269.999357" y="55" width="60" height="24"></rect>
                        <rect id="Container" stroke="#48484A" x="269.999357" y="55" width="60" height="24"></rect>
                        <rect id="Container" stroke="#48484A" x="209.999571" y="55" width="60" height="24"></rect>
                        <rect id="Container" stroke="#48484A" x="209.999571" y="55" width="60" height="24"></rect>
                        <rect id="Container" stroke="#48484A" x="149.999786" y="55" width="60" height="24"></rect>
                        <rect id="Container" stroke="#48484A" x="149.999786" y="55" width="60" height="24"></rect>
                        <rect id="Container" fill="#1C1C1E" x="30" y="55" width="120" height="24"></rect>
                        <text id="Key" font-family="Lato-Regular, Lato" font-size="10" font-weight="normal" fill="#F2F2F9">
                            <tspan x="36" y="70">Key</tspan>
                        </text>
                        <rect id="Container" fill="#2C2C2E" x="6" y="271" width="24" height="24"></rect>
                        <text id="↳Text..." font-family="Lato-Regular, Lato" font-size="10" font-weight="normal" fill="#636366">
                            <tspan x="12" y="287.5">10</tspan>
                        </text>
                        <rect id="Container" fill="#FFFFFF" x="6" y="247" width="24" height="24"></rect>
                        <rect id="Container" fill="#2C2C2E" x="6" y="247" width="24" height="24"></rect>
                        <text id="↳Text..." font-family="Lato-Regular, Lato" font-size="10" font-weight="normal" fill="#636366">
                            <tspan x="15" y="263.5">9</tspan>
                        </text>
                        <rect id="Container" fill="#FFFFFF" x="6" y="223" width="24" height="24"></rect>
                        <rect id="Container" fill="#2C2C2E" x="6" y="223" width="24" height="24"></rect>
                        <text id="↳Text..." font-family="Lato-Regular, Lato" font-size="10" font-weight="normal" fill="#636366">
                            <tspan x="15" y="239.5">8</tspan>
                        </text>
                        <rect id="Container" fill="#FFFFFF" x="6" y="199" width="24" height="24"></rect>
                        <rect id="Container" fill="#2C2C2E" x="6" y="199" width="24" height="24"></rect>
                        <text id="↳Text..." font-family="Lato-Regular, Lato" font-size="10" font-weight="normal" fill="#636366">
                            <tspan x="15" y="215.5">7</tspan>
                        </text>
                        <rect id="Container" fill="#FFFFFF" x="6" y="175" width="24" height="24"></rect>
                        <rect id="Container" fill="#2C2C2E" x="6" y="175" width="24" height="24"></rect>
                        <text id="↳Text..." font-family="Lato-Regular, Lato" font-size="10" font-weight="normal" fill="#636366">
                            <tspan x="15" y="191.5">6</tspan>
                        </text>
                        <rect id="Container" fill="#FFFFFF" x="6" y="151" width="24" height="24"></rect>
                        <rect id="Container" fill="#2C2C2E" x="6" y="151" width="24" height="24"></rect>
                        <text id="↳Text..." font-family="Lato-Regular, Lato" font-size="10" font-weight="normal" fill="#636366">
                            <tspan x="15" y="167.5">5</tspan>
                        </text>
                        <rect id="Container" fill="#FFFFFF" x="6" y="127" width="24" height="24"></rect>
                        <rect id="Container" fill="#2C2C2E" x="6" y="127" width="24" height="24"></rect>
                        <text id="↳Text..." font-family="Lato-Regular, Lato" font-size="10" font-weight="normal" fill="#636366">
                            <tspan x="15" y="143.5">4</tspan>
                        </text>
                        <rect id="Container" fill="#FFFFFF" x="6" y="103" width="24" height="24"></rect>
                        <rect id="Container" fill="#2C2C2E" x="6" y="103" width="24" height="24"></rect>
                        <text id="↳Text..." font-family="Lato-Regular, Lato" font-size="10" font-weight="normal" fill="#636366">
                            <tspan x="15" y="119.5">3</tspan>
                        </text>
                        <rect id="Container" fill="#FFFFFF" x="6" y="79" width="24" height="24"></rect>
                        <rect id="Container" fill="#2C2C2E" x="6" y="79" width="24" height="24"></rect>
                        <text id="↳Text..." font-family="Lato-Regular, Lato" font-size="10" font-weight="normal" fill="#636366">
                            <tspan x="15" y="95.5">2</tspan>
                        </text>
                        <rect id="Container" fill="#FFFFFF" x="6" y="55" width="24" height="24"></rect>
                        <rect id="Container" fill="#2C2C2E" x="6" y="55" width="24" height="24"></rect>
                        <text id="↳Text..." font-family="Lato-Regular, Lato" font-size="10" font-weight="normal" fill="#636366">
                            <tspan x="15" y="71.5">1</tspan>
                        </text>
                        <rect id="Container" fill="#FFFFFF" x="6" y="31" width="24" height="24"></rect>
                        <rect id="Container" fill="#2C2C2E" x="6" y="31" width="24" height="24"></rect>
                        <text id="↳Text..." font-family="PingFangSC-Regular, PingFang SC" font-size="10" font-weight="normal" fill="#636366">
                            <tspan x="13" y="47">◢</tspan>
                        </text>
                        <rect id="Container" fill="#FFFFFF" x="329.999142" y="31" width="60" height="24"></rect>
                        <rect id="Container" fill="#2C2C2E" x="329.999142" y="31" width="60" height="24"></rect>
                        <text id="↳Text..." font-family="Lato-Regular, Lato" font-size="10" font-weight="normal" fill="#636366">
                            <tspan x="356.999142" y="47.5">E</tspan>
                        </text>
                        <rect id="Container" fill="#FFFFFF" x="269.999357" y="31" width="60" height="24"></rect>
                        <rect id="Container" fill="#2C2C2E" x="269.999357" y="31" width="60" height="24"></rect>
                        <text id="↳Text..." font-family="Lato-Regular, Lato" font-size="10" font-weight="normal" fill="#636366">
                            <tspan x="295.999357" y="47.5">D</tspan>
                        </text>
                        <rect id="Container" fill="#FFFFFF" x="209.999571" y="31" width="60" height="24"></rect>
                        <rect id="Container" fill="#2C2C2E" x="209.999571" y="31" width="60" height="24"></rect>
                        <text id="↳Text..." font-family="Lato-Regular, Lato" font-size="10" font-weight="normal" fill="#636366">
                            <tspan x="236.999571" y="47.5">C</tspan>
                        </text>
                        <rect id="Container" fill="#FFFFFF" x="149.999786" y="31" width="60" height="24"></rect>
                        <rect id="Container" fill="#2C2C2E" x="149.999786" y="31" width="60" height="24"></rect>
                        <text id="↳Text..." font-family="Lato-Regular, Lato" font-size="10" font-weight="normal" fill="#636366">
                            <tspan x="176.999786" y="47.5">B</tspan>
                        </text>
                        <rect id="Container" fill="#1C1C1E" x="30" y="31" width="120" height="24"></rect>
                        <g id="Group-4" transform="translate(30.000000, 55.000000)" stroke="#48484A">
                            <rect id="Container" x="0.5" y="0.5" width="119" height="23"></rect>
                        </g>
                        <text id="↳Text..." font-family="Lato-Regular, Lato" font-size="10" font-weight="normal" fill="#636366">
                            <tspan x="87" y="47.5">A</tspan>
                        </text>
                        <circle id="Oval" fill="#FF6158" cx="10.4" cy="16.4" r="4.4"></circle>
                        <circle id="Oval-Copy" fill="#FFBD2F" cx="27.2" cy="16.4" r="4.4"></circle>
                        <circle id="Oval-Copy-2" fill="#27CA42" cx="44" cy="16.4" r="4.4"></circle>
                    </g>
                </g>
            </g>
        </g>
    </g>
</svg>