<?xml version="1.0" encoding="UTF-8"?>
<svg width="227px" height="233px" viewBox="0 0 227 233" version="1.1" xmlns="http://www.w3.org/2000/svg" xmlns:xlink="http://www.w3.org/1999/xlink">
    <defs>
        <polygon id="path-1" points="0.0156077419 0.0236903226 6.24142452 0.0236903226 6.24142452 6.24973006 0.0156077419 6.24973006"></polygon>
    </defs>
    <g id="Hypothesis" stroke="none" stroke-width="1" fill="none" fill-rule="evenodd">
        <g id="Hypotheses---0.0---Sem-hipótese" transform="translate(-1066.000000, -177.000000)">
            <g id="illustration/circles" transform="translate(1066.000000, 177.000000)">
                <path d="M70.2793766,222.970551 C85.6477977,221.870551 100.611787,220.070551 116.182424,219.570551 C126.495443,219.170551 135.595166,218.670551 145.099321,217.770551 C156.221205,216.770551 173.814003,215.870551 184.935886,215.070551 C194.642258,214.370551 196.866634,214.970551 204.955277,214.970551 C196.462202,215.570551 186.553615,216.670551 178.262756,217.070551 C165.927576,217.770551 153.187964,217.970551 140.852784,218.770551 C137.415111,218.970551 133.573005,219.170551 130.337548,219.870551 C126.495443,220.670551 123.05777,221.370551 118.811233,221.470551 C114.160263,221.570551 109.71151,221.270551 105.06054,221.470551 C100.611787,221.670551 96.3652492,221.970551 91.9164957,222.370551 C80.9968282,223.270551 70.0771606,223.570551 58.9552769,224.170551" id="Path-empty-hypothesis" fill="#000000" fill-rule="nonzero" opacity="0.260904948" transform="translate(131.955277, 219.450884) scale(-1, 1) rotate(-7.000000) translate(-131.955277, -219.450884) "></path>
                <path d="M32.5449868,44.3004893 C33.7289455,45.484448 33.7289455,47.4042003 32.5449868,48.588159 C31.3610281,49.7721177 29.4412759,49.7721177 28.2573172,48.588159 C27.0733585,47.4042003 27.0733585,45.484448 28.2573172,44.3004893 C29.4412759,43.1162519 31.3610281,43.1162519 32.5449868,44.3004893" id="Fill-empty-hypothesis-27" fill="#0A84FF"></path>
                <g id="Group-31" transform="translate(167.156129, 0.255019)">
                    <mask id="mask-2" fill="white">
                        <use xlink:href="#path-1"></use>
                    </mask>
                    <g id="Clip-30"></g>
                    <polygon id="Fill-empty-hypothesis-29" fill="#0A84FF" mask="url(#mask-2)" points="5.66059355 6.24973006 0.0156077419 5.6688991 0.59643871 0.0236345806 6.24142452 0.604744258"></polygon>
                </g>
                <g id="Group-34" transform="translate(16.000000, 4.600826)" fill="#FFD60A">
                    <path d="M-1.8189894e-12,0.399174194 L2.26033548,8.83488 L8.43570581,2.65950968 L-1.8189894e-12,0.399174194 Z M1.38546581,1.78464 L6.54298839,3.16648258 L2.76730839,6.94216258 L1.38546581,1.78464 Z" id="Fill-empty-hypothesis-32"></path>
                </g>
                <path d="M156.539763,34.0584145 C154.908754,34.0584145 153.586276,35.3806132 153.586276,37.0119009 C153.586276,38.6429099 154.908754,39.9651086 156.539763,39.9651086 C158.17105,39.9651086 159.49297,38.6429099 159.49297,37.0119009 C159.49297,35.3806132 158.17105,34.0584145 156.539763,34.0584145 M156.539763,34.7758132 C157.772495,34.7758132 158.775572,35.7788893 158.775572,37.0119009 C158.775572,38.2446338 157.772495,39.2477099 156.539763,39.2477099 C155.306751,39.2477099 154.303954,38.2446338 154.303954,37.0119009 C154.303954,35.7788893 155.306751,34.7758132 156.539763,34.7758132" id="Fill-empty-hypothesis-35" fill="#0A84FF"></path>
                <path d="M53.8451788,26.34944 L58.6041466,26.34944 L58.6041466,21.5904723 L53.8451788,21.5904723 L53.8451788,26.34944 Z M54.4903917,25.7045058 L57.9589337,25.7045058 L57.9589337,22.2359639 L54.4903917,22.2359639 L54.4903917,25.7045058 Z" id="Fill-empty-hypothesis-37" fill="#FFD60A"></path>
                <g id="Group-57">
                    <g id="Group-56">
                        <g id="cards" transform="translate(0.000000, 79.131783)">
                            <g id="card-built" transform="translate(145.052641, 7.154163)">
                                <path d="M2.08085079,0.69361693 L79.1714182,0.594528797 C80.1622995,0.594528797 80.9550046,1.28814573 80.9550046,2.17993892 L80.9550046,26.4565315 C80.9550046,27.3483247 80.1622995,28.0419416 79.1714182,28.0419416 L2.08085079,28.1410297 C1.08996946,28.1410297 0.297264399,27.4474128 0.297264399,26.5556196 L0.297264399,2.27902706 C0.297264399,1.38723386 1.08996946,0.69361693 2.08085079,0.69361693 Z" id="bg-card-built" fill="#3945D8"></path>
                                <path d="M18.5294809,17.142247 C20.5112435,17.142247 22.0966536,18.7276571 22.0966536,20.7094198 C22.0966536,22.6911824 20.5112435,24.2765926 18.5294809,24.2765926 C16.5477182,24.2765926 14.9623081,22.6911824 14.9623081,20.7094198 C14.9623081,18.7276571 16.5477182,17.142247 18.5294809,17.142247 Z M27.6455891,17.142247 C29.6273517,17.142247 31.2127619,18.7276571 31.2127619,20.7094198 C31.2127619,22.6911824 29.6273517,24.2765926 27.6455891,24.2765926 C25.6638264,24.2765926 24.0784163,22.6911824 24.0784163,20.7094198 C24.0784163,18.7276571 25.6638264,17.142247 27.6455891,17.142247 Z M8.52157943,16.8449826 C10.5033421,16.8449826 12.0887522,18.4303927 12.0887522,20.4121554 C12.0887522,22.393918 10.5033421,23.9793282 8.52157943,23.9793282 C6.53981677,23.9793282 4.95440665,22.393918 4.95440665,20.4121554 C4.95440665,18.4303927 6.53981677,16.8449826 8.52157943,16.8449826 Z M31.9063788,10.8996946 C32.7512355,10.8996946 33.5071599,11.5222206 33.5843906,12.4302661 L33.5908771,12.5841929 C33.5908771,13.4759861 32.8972601,14.2686911 31.9063788,14.2686911 L6.63890491,14.2686911 C5.79404819,14.2686911 5.03812377,13.6461651 4.9608931,12.7381197 L4.95440665,12.5841929 C4.95440665,11.6923997 5.64802358,10.8996946 6.63890491,10.8996946 L31.9063788,10.8996946 Z M6.9361693,3.96352532 C8.0306666,3.96352532 8.91793196,4.85079068 8.91793196,5.94528797 C8.91793196,7.03978527 8.0306666,7.92705063 6.9361693,7.92705063 C5.84167201,7.92705063 4.95440665,7.03978527 4.95440665,5.94528797 C4.95440665,4.85079068 5.84167201,3.96352532 6.9361693,3.96352532 Z M76.793303,2.87355585 C77.6355521,2.87355585 78.3010329,3.49224503 78.3723757,4.3122537 L78.3787131,4.45896598 C78.4778013,5.35075918 77.6850962,6.04437611 76.793303,6.04437611 L61.0382899,6.04437611 C60.1960407,6.04437611 59.53056,5.42568693 59.4592172,4.60567826 L59.4528797,4.45896598 C59.4528797,3.56717278 60.1464967,2.87355585 61.0382899,2.87355585 L76.793303,2.87355585 Z" id="elements-card-built" fill="#26329E" fill-rule="nonzero"></path>
                            </g>
                            <g id="card-feature" transform="translate(0.000000, 0.449612)">
                                <path d="M2.08085079,0.69361693 L79.1714182,0.594528797 C80.1622995,0.594528797 80.9550046,1.28814573 80.9550046,2.17993892 L80.9550046,26.4565315 C80.9550046,27.3483247 80.1622995,28.0419416 79.1714182,28.0419416 L2.08085079,28.1410297 C1.08996946,28.1410297 0.297264399,27.4474128 0.297264399,26.5556196 L0.297264399,2.27902706 C0.297264399,1.38723386 1.08996946,0.69361693 2.08085079,0.69361693 Z" id="bg-card-feature" fill="#0A84FF"></path>
                                <path d="M9.51246076,17.142247 C11.4942234,17.142247 13.0796335,18.7276571 13.0796335,20.7094198 C13.0796335,22.6911824 11.4942234,24.2765926 9.51246076,24.2765926 C7.5306981,24.2765926 5.94528797,22.6911824 5.94528797,20.7094198 C5.94528797,18.7276571 7.5306981,17.142247 9.51246076,17.142247 Z M18.5294809,17.142247 C20.5112435,17.142247 22.0966536,18.7276571 22.0966536,20.7094198 C22.0966536,22.6911824 20.5112435,24.2765926 18.5294809,24.2765926 C16.5477182,24.2765926 14.9623081,22.6911824 14.9623081,20.7094198 C14.9623081,18.7276571 16.5477182,17.142247 18.5294809,17.142247 Z M27.6455891,17.142247 C29.6273517,17.142247 31.2127619,18.7276571 31.2127619,20.7094198 C31.2127619,22.6911824 29.6273517,24.2765926 27.6455891,24.2765926 C25.6638264,24.2765926 24.0784163,22.6911824 24.0784163,20.7094198 C24.0784163,18.7276571 25.6638264,17.142247 27.6455891,17.142247 Z M32.3027313,10.6024302 C33.147588,10.6024302 33.9035125,11.2249562 33.9807431,12.1330017 L33.9872296,12.2869285 C33.9872296,13.1787217 33.2936127,13.9714267 32.3027313,13.9714267 L7.03525744,13.9714267 C6.19040072,13.9714267 5.4344763,13.3489007 5.35724563,12.4408553 L5.35075918,12.2869285 C5.35075918,11.3951353 6.04437611,10.6024302 7.03525744,10.6024302 L32.3027313,10.6024302 Z M7.92705063,3.46808465 C9.02154793,3.46808465 9.90881329,4.35535002 9.90881329,5.44984731 C9.90881329,6.5443446 9.02154793,7.43160997 7.92705063,7.43160997 C6.83255334,7.43160997 5.94528797,6.5443446 5.94528797,5.44984731 C5.94528797,4.35535002 6.83255334,3.46808465 7.92705063,3.46808465 Z M76.793303,2.87355585 C77.6355521,2.87355585 78.3010329,3.49224503 78.3723757,4.3122537 L78.3787131,4.45896598 C78.4778013,5.35075918 77.6850962,6.04437611 76.793303,6.04437611 L61.0382899,6.04437611 C60.1960407,6.04437611 59.53056,5.42568693 59.4592172,4.60567826 L59.4528797,4.45896598 C59.4528797,3.56717278 60.1464967,2.87355585 61.0382899,2.87355585 L76.793303,2.87355585 Z" id="elements-card-feature" fill="#48A2FC"></path>
                            </g>
                            <g id="card-action" transform="translate(26.753796, 32.157815)">
                                <path d="M2.08085079,0.69361693 L79.1714182,0.594528797 C80.1622995,0.594528797 80.9550046,1.28814573 80.9550046,2.17993892 L80.9550046,26.4565315 C80.9550046,27.3483247 80.1622995,28.0419416 79.1714182,28.0419416 L2.08085079,28.1410297 C1.08996946,28.1410297 0.297264399,27.4474128 0.297264399,26.5556196 L0.297264399,2.27902706 C0.297264399,1.38723386 1.08996946,0.69361693 2.08085079,0.69361693 Z" id="bg-card-action" fill="#2C2C2E"></path>
                                <path d="M9.51246076,17.142247 C11.4942234,17.142247 13.0796335,18.7276571 13.0796335,20.7094198 C13.0796335,22.6911824 11.4942234,24.2765926 9.51246076,24.2765926 C7.5306981,24.2765926 5.94528797,22.6911824 5.94528797,20.7094198 C5.94528797,18.7276571 7.5306981,17.142247 9.51246076,17.142247 Z M18.5294809,17.142247 C20.5112435,17.142247 22.0966536,18.7276571 22.0966536,20.7094198 C22.0966536,22.6911824 20.5112435,24.2765926 18.5294809,24.2765926 C16.5477182,24.2765926 14.9623081,22.6911824 14.9623081,20.7094198 C14.9623081,18.7276571 16.5477182,17.142247 18.5294809,17.142247 Z M27.6455891,17.142247 C29.6273517,17.142247 31.2127619,18.7276571 31.2127619,20.7094198 C31.2127619,22.6911824 29.6273517,24.2765926 27.6455891,24.2765926 C25.6638264,24.2765926 24.0784163,22.6911824 24.0784163,20.7094198 C24.0784163,18.7276571 25.6638264,17.142247 27.6455891,17.142247 Z M32.3027313,10.6024302 C33.147588,10.6024302 33.9035125,11.2249562 33.9807431,12.1330017 L33.9872296,12.2869285 C33.9872296,13.1787217 33.2936127,13.9714267 32.3027313,13.9714267 L7.03525744,13.9714267 C6.19040072,13.9714267 5.4344763,13.3489007 5.35724563,12.4408553 L5.35075918,12.2869285 C5.35075918,11.3951353 6.04437611,10.6024302 7.03525744,10.6024302 L32.3027313,10.6024302 Z M7.92705063,3.46808465 C9.02154793,3.46808465 9.90881329,4.35535002 9.90881329,5.44984731 C9.90881329,6.5443446 9.02154793,7.43160997 7.92705063,7.43160997 C6.83255334,7.43160997 5.94528797,6.5443446 5.94528797,5.44984731 C5.94528797,4.35535002 6.83255334,3.46808465 7.92705063,3.46808465 Z M76.793303,2.87355585 C77.6355521,2.87355585 78.3010329,3.49224503 78.3723757,4.3122537 L78.3787131,4.45896598 C78.4778013,5.35075918 77.6850962,6.04437611 76.793303,6.04437611 L61.0382899,6.04437611 C60.1960407,6.04437611 59.53056,5.42568693 59.4592172,4.60567826 L59.4528797,4.45896598 C59.4528797,3.56717278 60.1464967,2.87355585 61.0382899,2.87355585 L76.793303,2.87355585 Z" id="elements-card-action" fill="#3A3A3C"></path>
                            </g>
                        </g>
                        <g id="Group" transform="translate(47.059432, 0.000000)">
                            <path d="M89.8729366,55.3902663 C126.040105,56.8765883 116.032204,68.2717236 104.53798,76.4960386 C103.745275,76.9914793 105.727038,77.9823606 106.321567,77.6850962 C122.175668,67.4790185 132.579922,52.6157986 89.2784078,42.8060734 C87.3957332,42.4097209 87.990262,55.2911782 89.8729366,55.3902663 Z" id="Path-empty-hypothesis" fill="#3A3A3C"></path>
                            <path d="M107.015184,76.0996861 C106.420655,75.4060691 99.187221,77.8832725 99.5835736,79.1714182 C99.9799261,80.4595639 102.258953,81.7477097 103.051658,81.5495334 C103.844363,81.252269 106.420655,79.5677707 106.916095,78.8741538 C107.510624,78.0814487 107.7088,76.793303 107.015184,76.0996861 Z" id="Path-empty-hypothesis" fill="#0E0E0E" fill-rule="nonzero"></path>
                            <g transform="translate(58.461998, 55.489354)">
                                <g id="Deploy_3_">
                                    <g id="Group">
                                        <g id="Group-6_3_">
                                            <g id="Group">
                                                <g id="Group-17-Copy-7_3_">
                                                    <g>
                                                        <path d="M2.77446772,0.297264399 L105.231597,0.198176266 C106.519743,0.198176266 107.609712,1.28814573 107.609712,2.57629146 L107.609712,21.3039486 C107.609712,22.5920943 106.519743,23.6820638 105.231597,23.6820638 L2.87355585,23.7811519 C1.58541013,23.7811519 0.495440665,22.6911824 0.495440665,21.4030367 L0.495440665,2.67537959 C0.396352532,1.38723386 1.48632199,0.297264399 2.77446772,0.297264399 Z" id="Rectangle_3_" fill="#10AA80"></path>
                                                        <path d="M103.9001,7.03525744 L100.617806,7.03525744 C100.432016,7.03525744 100.277191,6.13445623 100.277191,5.05349478 L100.277191,5.05349478 C100.277191,3.97253333 100.432016,3.07173212 100.617806,3.07173212 L103.9001,3.07173212 C104.085891,3.07173212 104.240716,3.97253333 104.240716,5.05349478 L104.240716,5.05349478 C104.240716,6.13445623 104.101373,7.03525744 103.9001,7.03525744 Z" id="Path-empty-hypothesis" fill="#0A936D"></path>
                                                        <path d="M42.6078972,7.43160997 L21.601213,7.43160997 C20.4121554,7.43160997 19.4212741,6.44072864 19.4212741,5.25167104 L19.4212741,5.25167104 C19.4212741,4.06261345 20.4121554,3.07173212 21.601213,3.07173212 L42.6078972,3.07173212 C43.7969547,3.07173212 44.7878361,4.06261345 44.7878361,5.25167104 L44.7878361,5.25167104 C44.7878361,6.44072864 43.8960429,7.43160997 42.6078972,7.43160997 Z" id="Path-Copy" fill="#0A936D"></path>
                                                        <g id="Group-13_3_" transform="translate(7.535653, 3.572127)" fill="#26329E">
                                                            <path d="M2.86860145,5.84124544 C1.28319132,5.84124544 0.0941337263,4.55309971 0.0941337263,3.06677771 C0.0941337263,1.48136759 1.38227945,0.292309992 2.86860145,0.292309992 C4.45401157,0.292309992 5.64306917,1.58045572 5.64306917,3.06677771 C5.64306917,4.65218784 4.35492344,5.84124544 2.86860145,5.84124544 Z" id="Combined-Shape_3_"></path>
                                                        </g>
                                                    </g>
                                                </g>
                                            </g>
                                        </g>
                                    </g>
                                </g>
                                <path d="M66.0731571,17.9349521 L10.819234,17.9349521 C8.86334294,17.9349521 7.2334337,16.9440707 7.2334337,15.7550131 L7.2334337,15.7550131 C7.2334337,14.5659555 8.86334294,13.5750742 10.819234,13.5750742 L66.0731571,13.5750742 C68.0290482,13.5750742 69.6589574,14.5659555 69.6589574,15.7550131 L69.6589574,15.7550131 C69.6589574,16.9440707 68.0290482,17.9349521 66.0731571,17.9349521 Z" id="Path-empty-hypothesis" fill="#0A936D"></path>
                            </g>
                            <path d="M53.8048562,12.0887522 C61.4346424,10.5033421 68.8662524,-5.35075918 76.793303,2.08085079 C95.8182245,19.9167147 76.3969505,54.3002968 74.3160997,56.8765883 C72.1361608,59.4528797 74.9106285,71.4425438 70.1543981,76.8923911 C64.3081983,83.531296 55.885707,76.3969505 48.454097,81.9458859 C44.9860123,84.5221774 45.1841886,91.3592585 37.5544024,91.5574348 C29.2309992,91.7556111 27.9428535,85.6121468 23.3847994,86.1075875 C13.7732505,87.197557 8.02613877,95.6200483 2.87355585,89.0802315 C-2.97264399,81.4504453 8.91793196,71.9379845 10.0079014,68.1726354 C12.3860166,59.9483204 -2.57629146,58.6601747 0.396352532,46.8686869 C3.17082025,35.770816 15.5568369,35.770816 21.7003011,30.1227924 C29.6273517,22.9884468 27.0510603,10.3051658 34.6808465,7.13434557 C43.202426,3.46808465 45.6796293,13.8723386 53.8048562,12.0887522 Z" id="Path-empty-hypothesis" fill="#0E0E0E" fill-rule="nonzero"></path>
                            <path d="M108.459211,77.9841871 C107.864682,78.3805396 100.730336,81.1550073 100.135808,80.6595667 C99.6403669,80.164126 102.513923,76.2006007 103.802068,76.2996888 C105.090214,76.398777 109.05374,77.4887464 108.459211,77.9841871 Z" id="Path-empty-hypothesis" fill="#FFAEA9" fill-rule="nonzero" transform="translate(104.299283, 78.508232) scale(-1, 1) rotate(31.000000) translate(-104.299283, -78.508232) "></path>
                            <path d="M23.1866231,193.122771 C22.6911824,195.104534 14.8632199,206.796933 13.6741623,206.598757 C11.6923997,206.202405 18.2322165,190.942832 20.0158028,190.447391 C22.393918,189.951951 23.3847994,192.032802 23.1866231,193.122771 Z" id="Path-empty-hypothesis" fill="#3A3A3C" fill-rule="nonzero"></path>
                            <path d="M90.962906,120.292993 C86.4048519,162.504538 24.3756807,193.7173 21.9975655,192.62733 C19.7185385,191.537361 20.4121554,189.951951 21.9975655,189.258334 C53.2103274,175.584172 69.5598693,132.877186 72.9288658,107.807889 C73.5233946,103.844363 91.4583467,115.834027 90.962906,120.292993 Z" id="Path-empty-hypothesis" fill="#2C2C2E"></path>
                            <g transform="translate(71.343456, 110.978709)" fill="#1C1C1E" id="Path-empty-hypothesis" opacity="0.311686198">
                                <path d="M1.98176266,6.73799304 C7.2334337,9.61154889 11.6923997,25.366562 7.13434557,37.3562261 C5.15258291,42.6078972 13.7732505,29.825528 13.7732505,29.825528 L20.5112435,15.1604843 L6.63890491,2.97264399 L0.396352532,0 C0.495440665,0.0990881329 0.297264399,5.74711171 1.98176266,6.73799304 Z"></path>
                            </g>
                            <path d="M143.182352,214.228543 C145.857732,215.615777 154.478399,228.19997 153.586606,229.686292 C152.793901,231.172614 141.002413,219.777479 140.606061,218.390245 C139.813356,215.615777 142.191471,213.733103 143.182352,214.228543 Z" id="Path-empty-hypothesis" fill="#3A3A3C" fill-rule="nonzero"></path>
                            <path d="M21.085337,221.928238 C36.3136185,220.838268 51.1411557,219.054682 66.5698093,218.559241 C76.7887877,218.162888 85.8055333,217.667448 95.2230232,216.775655 C106.24349,215.784773 123.675865,214.89298 134.696332,214.100275 C144.314194,213.406658 146.518287,214.001187 154.533172,214.001187 C146.117543,214.595716 136.299309,215.685685 128.084052,216.082038 C115.861352,216.775655 103.237908,216.973831 91.0152085,217.766536 C87.6088824,217.964712 83.801812,218.162888 80.595858,218.856505 C76.7887877,219.64921 73.3824616,220.342827 69.1746469,220.441916 C64.5660881,220.541004 60.1579013,220.243739 55.5493425,220.441916 C51.1411557,220.640092 46.9333411,220.937356 42.5251543,221.333709 C31.7050596,222.225502 20.8849649,222.522766 9.86449802,223.117295" id="Path-empty-hypothesis" fill="#000000" fill-rule="nonzero" opacity="0.260904948" transform="translate(82.198835, 218.440665) scale(-1, 1) rotate(-7.000000) translate(-82.198835, -218.440665) "></path>
                            <path d="M77.1896555,96.0164008 C68.6680761,100.871719 69.9562218,114.446794 73.4243065,116.527644 C122.770197,144.86685 139.912444,196.789032 141.497854,215.120337 C141.69603,216.903923 143.578705,215.714865 143.578705,213.832191 C145.263203,151.902108 98.394516,100.376279 87.990262,95.1246076 C84.4230892,93.4401093 81.1531809,93.7373737 77.1896555,96.0164008 Z" id="Path-empty-hypothesis" fill="#48484A"></path>
                            <g transform="translate(70.352574, 97.106370)" fill="#131313" fill-rule="nonzero" id="Path-empty-hypothesis">
                                <path d="M11.4942234,1.48632199 C11.6923997,3.26990839 2.08085079,3.76534905 0.594528797,5.64802358 C-0.792705063,7.5306981 2.27902706,1.08996946 2.27902706,1.08996946 C2.27902706,1.08996946 11.2960472,-0.297264399 11.4942234,1.48632199 Z"></path>
                            </g>
                            <path d="M66.4881372,46.6705106 C75.7033335,67.4790185 77.3878318,84.8194418 76.6942149,95.6200483 C76.5951267,97.6018109 87.8911739,99.880838 90.0711128,96.2145771 C91.0619941,94.6291669 93.7373737,74.2170116 92.8455805,66.2899609 C94.8273432,65.3981677 96.8091059,61.9300831 96.0164008,60.0474085 C92.7464924,52.1203579 93.1428449,43.8960429 93.1428449,43.8960429 C93.1428449,43.8960429 88.8820552,42.6078972 86.0084994,40.9233989 C84.9185299,40.3288701 84.1258248,42.0133684 83.4322079,41.3197514 C82.0449741,39.9325176 78.8741538,40.5270464 77.9823606,41.3197514 C77.3878318,41.9142802 76.0996861,40.5270464 75.6042454,41.022487 C73.2261302,43.202426 70.848015,44.4905717 66.4881372,46.6705106 Z" id="Path-empty-hypothesis" fill="#3A3A3C"></path>
                            <path d="M93.93555,60.6419373 C92.7464924,60.8401136 79.3695945,62.5246119 77.6850962,61.9300831 C76.0005979,61.3355543 73.6224828,65.0018152 74.7124522,66.0917847 C76.2978623,67.5781066 88.4857027,66.5872253 90.5665535,66.0917847 C92.2510517,65.6954321 93.5391975,64.0109339 93.5391975,64.0109339 C93.5391975,64.0109339 95.1246076,60.4437611 93.93555,60.6419373 Z" id="Path-empty-hypothesis" fill="#2C2C2E"></path>
                            <path d="M71.4425438,98.7908685 C72.8297777,99.187221 81.6486215,100.376279 81.9458859,98.394516 C82.1440622,96.4127533 72.6316014,95.6200483 71.541632,96.7100177 C70.4516625,97.7008991 69.9562218,98.394516 71.4425438,98.7908685 Z" id="Path-empty-hypothesis" fill="#FFAEA9" fill-rule="nonzero"></path>
                            <path d="M67.5781066,45.9768937 C70.1543981,44.8869242 74.4151878,55.2911782 73.027954,55.5884426 C66.4881372,57.0747646 45.2832767,89.6747603 72.2352489,96.1154889 C73.4243065,96.4127533 72.6316014,98.7908685 70.5507506,98.5926923 C42.0133684,95.6200483 47.6613919,54.3002968 67.5781066,45.9768937 Z" id="Path-empty-hypothesis" fill="#3A3A3C"></path>
                            <path d="M78.8741538,12.3860166 C85.4139706,15.9531894 88.4857027,31.31185 86.2066756,32.4018195 C84.5221774,33.1945245 82.1440622,31.5100263 82.1440622,31.5100263 C82.1440622,31.5100263 81.5495334,38.74346 86.9993807,41.2206633 C85.1167062,43.6978666 78.4778013,44.5896598 75.5051573,41.022487 C79.2705063,38.3471074 77.5860081,30.4200568 76.9914793,28.2401179 C72.334337,12.1878403 75.8024217,10.6024302 78.8741538,12.3860166 Z" id="Path-empty-hypothesis" fill="#FFAEA9" fill-rule="nonzero"></path>
                            <path d="M83.531296,32.2036432 C81.9458859,31.5100263 79.0723301,29.6273517 77.2887437,25.9610908 C77.4869199,26.852884 76.4960386,28.4382941 76.4960386,28.4382941 L77.2887437,35.6717278 C77.1896555,35.6717278 78.1805369,34.5817584 83.531296,32.2036432 Z" id="Path-empty-hypothesis" fill="#FF887D" fill-rule="nonzero"></path>
                            <path d="M77.9823606,10.7015184 C78.8741538,12.4851047 78.4778013,29.6273517 74.8115404,32.9963483 C71.1452794,36.3653448 68.1726354,26.5556196 68.1726354,26.5556196 L71.0461913,13.0796335 C71.0461913,13.0796335 77.0905674,8.81884383 77.9823606,10.7015184 Z" id="Path-empty-hypothesis" fill="#0E0E0E" fill-rule="nonzero"></path>
                            <path d="M76.2978623,27.7446772 C77.1896555,28.618658 79.9641233,38.0712876 76.2978623,39.6352532 C72.6316014,41.1992187 67.3799304,36.3183112 67.3799304,36.3183112 L70.2534862,30.0624489 C70.2534862,30.0624489 75.4060691,26.8706965 76.2978623,27.7446772 Z" id="Path-Copy-2" fill="#0E0E0E" fill-rule="nonzero"></path>
                        </g>
                    </g>
                </g>
                <path d="M180.105105,50 L177,53.1048258 L180.105105,56.2099303 L183.20993,53.1048258 L180.105105,50 Z M180.105105,50.9389729 L182.270957,53.1048258 L180.105105,55.2709574 L177.939252,53.1048258 L180.105105,50.9389729 Z" id="Fill-empty-hypothesis-39" fill="#FFD60A"></path>
            </g>
        </g>
    </g>
</svg>