<?xml version="1.0" encoding="UTF-8"?>
<svg width="13px" height="15px" viewBox="0 0 13 15" version="1.1" xmlns="http://www.w3.org/2000/svg" xmlns:xlink="http://www.w3.org/1999/xlink">
    <!-- Generator: Sketch 64 (93537) - https://sketch.com -->
    <title>Trash</title>
    <defs>
        <path d="M8.75,0.625 C9.78375,0.625 10.625,1.46625 10.625,2.5 L10.625,2.5 L10.625,3.125 L13.125,3.125 C13.470625,3.125 13.75,3.405 13.75,3.75 C13.75,4.095 13.470625,4.375 13.125,4.375 L13.125,4.375 L12.5,4.375 L12.5,12.5 C12.5,13.53375 11.65875,14.375 10.625,14.375 L10.625,14.375 L4.375,14.375 C3.34125,14.375 2.5,13.53375 2.5,12.5 L2.5,12.5 L2.5,4.375 L1.875,4.375 C1.53,4.375 1.25,4.095 1.25,3.75 C1.25,3.405 1.53,3.125 1.875,3.125 L1.875,3.125 L4.375,3.125 L4.375,2.5 C4.375,1.46625 5.21625,0.625 6.25,0.625 L6.25,0.625 Z M11.25,4.375 L3.75,4.375 L3.75,12.5 C3.75,12.845 4.030625,13.125 4.375,13.125 L4.375,13.125 L10.625,13.125 C10.97,13.125 11.25,12.845 11.25,12.5 L11.25,12.5 L11.25,4.375 Z M6.25,6.25 C6.595,6.25 6.875,6.53 6.875,6.875 L6.875,6.875 L6.875,10.625 C6.875,10.970625 6.595,11.25 6.25,11.25 C5.905,11.25 5.625,10.970625 5.625,10.625 L5.625,10.625 L5.625,6.875 C5.625,6.53 5.905,6.25 6.25,6.25 Z M8.75,6.25 C9.095625,6.25 9.375,6.53 9.375,6.875 L9.375,6.875 L9.375,10.625 C9.375,10.970625 9.095625,11.25 8.75,11.25 C8.404375,11.25 8.125,10.970625 8.125,10.625 L8.125,10.625 L8.125,6.875 C8.125,6.53 8.404375,6.25 8.75,6.25 Z M8.75,1.875 L6.25,1.875 C5.905625,1.875 5.625,2.155625 5.625,2.5 L5.625,2.5 L5.625,3.125 L9.375,3.125 L9.375,2.5 C9.375,2.155625 9.095,1.875 8.75,1.875 L8.75,1.875 Z" id="path-trash"></path>
    </defs>
    <g id="Circles---Create-circle" stroke="none" stroke-width="1" fill="none" fill-rule="evenodd">
        <g id="Circles---Create-Circle---Create-Segments---CSV---3.3" transform="translate(-647.000000, -829.000000)">
            <g id="Group-8" transform="translate(513.000000, 791.000000)">
                <g id="Group-13">
                    <g id="Icon/Controls/Trash/1" transform="translate(133.000000, 38.000000)">
                        <mask id="mask-trash" fill="currentColor">
                            <use xlink:href="#path-trash"></use>
                        </mask>
                        <use id="Icon-Trash-1" fill="currentColor" fill-rule="evenodd" xlink:href="#path-trash"></use>
                    </g>
                </g>
            </g>
        </g>
    </g>
</svg>