<?xml version="1.0" encoding="UTF-8"?>
<svg width="16px" height="16px" viewBox="0 0 16 16" version="1.1" xmlns="http://www.w3.org/2000/svg" xmlns:xlink="http://www.w3.org/1999/xlink">
    <title>Icon/Alert/Info Copy</title>
    <g id="Credentials---Actions-config" stroke="none" stroke-width="1" fill="none" fill-rule="evenodd">
        <g id="Settings---Workspace---13.0---Actions-config" transform="translate(-748.000000, -159.000000)" fill="currentColor">
            <g id="Combined-Shape" transform="translate(744.000000, 155.000000)">
                <path d="M10.3,12.5 L10.3176053,12.5001925 C10.3393995,12.5006693 10.361178,12.5020314 10.3828821,12.5042789 L10.4003503,12.5062331 L10.4003503,12.5062331 L10.404,12.507 L10.4092999,12.5074044 L10.4347992,12.5113729 C10.4501773,12.5139879 10.4654936,12.5170539 10.4807269,12.5205708 C10.4864579,12.5218255 10.4917297,12.5231031 10.4969809,12.5244327 C10.5167739,12.5295303 10.5329299,12.5342547 10.5488657,12.539466 L10.5746305,12.5484121 C10.5753113,12.5486604 10.5759918,12.5489096 10.5766721,12.5491598 C10.585617,12.552429 10.5946011,12.5559266 10.6035046,12.5595801 C10.614898,12.5642578 10.6260194,12.5691257 10.6370055,12.5742357 C10.6558131,12.5829774 10.6744145,12.592536 10.6925755,12.6027838 C10.7054231,12.6100371 10.7178995,12.6175389 10.7301485,12.6253652 C10.7426126,12.6333194 10.7551881,12.6418591 10.7675008,12.6507405 C10.7707842,12.6530397 10.7733761,12.6549387 10.7759591,12.6568552 C10.78992,12.6674372 10.7976725,12.673527 10.8053079,12.679755 C10.8238111,12.6948345 10.8418705,12.710963 10.8591663,12.7278693 C10.8612577,12.7299121 10.8634764,12.7321055 10.8656854,12.7343146 C10.8902272,12.7593471 10.9074324,12.7787353 10.923677,12.798929 C10.9287321,12.805203 10.9340557,12.8120335 10.9392695,12.8189513 L10.8656854,12.7343146 C10.8964296,12.7650588 10.9241484,12.7976827 10.9488417,12.8318164 C10.9622456,12.8505026 10.9745014,12.8690677 10.9859834,12.8881513 C10.9893671,12.8937665 10.9929439,12.8998847 10.996441,12.9060539 C11.024792,12.9561248 11.0477762,13.0091608 11.0648604,13.0647793 C11.0685867,13.0769174 11.0719998,13.0890528 11.0751303,13.1013013 C11.0765663,13.1069101 11.0780165,13.1128593 11.0793997,13.1188341 C11.0829461,13.1345064 11.0860121,13.1498227 11.0886271,13.1652008 C11.091694,13.1828625 11.0941424,13.2009652 11.0959751,13.2192495 C11.0976804,13.2364885 11.0988682,13.2539018 11.0994894,13.2713316 L11.0994788,13.2708497 L11.1,13.3 L11.1,18.3 C11.1,18.7418278 10.7418278,19.1 10.3,19.1 C9.89215895,19.1 9.55559842,18.7948119 9.50623314,18.4003503 L9.5,18.3 L9.5,15.23 L5.36568542,19.3656854 C5.05326599,19.6781049 4.54673401,19.6781049 4.23431458,19.3656854 C3.92189514,19.053266 3.92189514,18.546734 4.23431458,18.2343146 L8.368,14.1 L5.3,14.1 C4.8581722,14.1 4.5,13.7418278 4.5,13.3 C4.5,12.892159 4.80518815,12.5555984 5.1996497,12.5062331 L5.3,12.5 L10.3,12.5 Z M10.8,4 C15.6601058,4 19.6,7.9398942 19.6,12.8 C19.6,15.1523225 18.671751,17.3598803 17.0480964,18.9968781 C16.7369581,19.3105734 16.2304303,19.3126462 15.916735,19.0015079 C15.6030397,18.6903696 15.6009669,18.1838418 15.9121053,17.8701465 C17.2414668,16.5298602 18,14.7259199 18,12.8 C18,8.8235498 14.7764502,5.6 10.8,5.6 C8.89434927,5.6 7.10786382,6.34253998 5.77129661,7.64711773 C5.45511636,7.95573052 4.94862153,7.94959587 4.64000874,7.63341562 C4.33139596,7.31723536 4.3375306,6.81074053 4.65371086,6.50212774 C6.28621099,4.90869992 8.47246256,4 10.8,4 Z M10.8,7 C14.0032515,7 16.6,9.59674845 16.6,12.8 C16.6,14.3602651 15.9799773,15.8243391 14.8976318,16.9048038 C14.5849408,17.2169514 14.078409,17.2165109 13.7662614,16.9038199 C13.4541137,16.5911288 13.4545543,16.084597 13.7672453,15.7724494 C14.551913,14.9891453 15,13.9310669 15,12.8 C15,10.4804041 13.1195959,8.6 10.8,8.6 C9.6794416,8.6 8.63040475,9.03973328 7.84892961,9.81149054 C7.53456167,10.1219492 7.0280396,10.1187802 6.71758091,9.80441221 C6.40712222,9.49004426 6.41029129,8.98352219 6.72465924,8.6730635 C7.80264219,7.60848558 9.25425804,7 10.8,7 Z"></path>
            </g>
        </g>
    </g>
</svg>