<?xml version="1.0" encoding="UTF-8"?>
<svg width="20px" height="21px" viewBox="0 0 20 21" version="1.1" xmlns="http://www.w3.org/2000/svg" xmlns:xlink="http://www.w3.org/1999/xlink">
    <defs>
        <path d="M10,0.833333333 C15.0541667,0.833333333 19.1666667,4.94583333 19.1666667,10 C19.1666667,15.0541667 15.0541667,19.1666667 10,19.1666667 C4.94583333,19.1666667 0.833333333,15.0541667 0.833333333,10 C0.833333333,4.94583333 4.94583333,0.833333333 10,0.833333333 Z M10,2.5 C5.865,2.5 2.5,5.865 2.5,10 C2.5,14.1358333 5.865,17.5 10,17.5 C14.1358333,17.5 17.5,14.1358333 17.5,10 C17.5,5.865 14.1358333,2.5 10,2.5 Z M10,5.83333333 C10.46,5.83333333 10.8333333,6.20666667 10.8333333,6.66666667 L10.8333333,6.66666667 L10.8333333,9.16666667 L13.3333333,9.16666667 C13.7941667,9.16666667 14.1666667,9.54 14.1666667,10 C14.1666667,10.46 13.7941667,10.8333333 13.3333333,10.8333333 L13.3333333,10.8333333 L10.8333333,10.8333333 L10.8333333,13.3333333 C10.8333333,13.7941667 10.46,14.1666667 10,14.1666667 C9.54,14.1666667 9.16666667,13.7941667 9.16666667,13.3333333 L9.16666667,13.3333333 L9.16666667,10.8333333 L6.66666667,10.8333333 C6.20666667,10.8333333 5.83333333,10.46 5.83333333,10 C5.83333333,9.54 6.20666667,9.16666667 6.66666667,9.16666667 L6.66666667,9.16666667 L9.16666667,9.16666667 L9.16666667,6.66666667 C9.16666667,6.20666667 9.54,5.83333333 10,5.83333333 Z" id="path-add"></path>
    </defs>
    <g id="Workspaces-add" stroke="none" stroke-width="1" fill="none" fill-rule="evenodd">
        <g id="Settings---Workspace---1.0" transform="translate(-546.000000, -208.000000)">
            <rect x="0" y="0" width="1920" height="1241"></rect>
            <g id="Group-add-4" transform="translate(465.000000, 89.000000)">
                <g id="Group-add-2" transform="translate(4.000000, 70.000000)">
                    <g id="1.-Buttons/2.-Default/2.-Left-Icon-Button/2.-Rounded/1.-White" transform="translate(44.000000, 34.000000)">
                        <rect id="placeholder" x="0" y="0" width="138" height="50" rx="25"></rect>
                        <g id="Group-add" transform="translate(33.000000, 15.000000)">
                            <g id="Icon/Math/Plus/Circle">
                                <mask id="mask-add" fill="white">
                                    <use xlink:href="#path-add"></use>
                                </mask>
                                <use id="Icon-Plus-Circle-add" fill="currentColor" xlink:href="#path-add"></use>
                            </g>
                        </g>
                    </g>
                </g>
            </g>
        </g>
    </g>
</svg>