<?xml version="1.0" encoding="UTF-8"?>
<svg width="562px" height="100%" viewBox="0 0 562 990" version="1.1" xmlns="http://www.w3.org/2000/svg" xmlns:xlink="http://www.w3.org/1999/xlink">
    <g id="Login" stroke="none" stroke-width="1" fill="none" fill-rule="evenodd">
        <g id="Login---1.2---Password---Error" transform="translate(-943.000000, 0.000000)" stroke="#0062FF" stroke-width="20">
            <g id="Group-5" transform="translate(250.000000, -380.000000)">
                <g id="circle-login-add-ds" transform="translate(703.000000, 0.000000)">
                    <g id="Group-10">
                        <path d="M1687,960 C1687,1388.5769 1335.13099,1736 901,1736 C466.869007,1736 115,1388.5769 115,960 C115,531.423103 466.869007,184 901,184 C1335.13099,184 1687,531.423103 1687,960 Z" id="Path" opacity="0.1114" stroke-linecap="round" stroke-linejoin="round" transform="translate(901.000000, 960.000000) scale(-1, 1) rotate(-180.000000) translate(-901.000000, -960.000000) "></path>
                        <path d="M1716,875 C1716,1358.39903 1351.86306,1750 902.265406,1750 C452.667754,1750 88,1358.39903 88,875 C88,391.60097 452.136942,0 901.734594,0 C1351.33225,0 1716,391.60097 1716,875 Z" id="Stroke-3_15_" opacity="0.4244" stroke-linecap="round" stroke-linejoin="round" transform="translate(902.000000, 875.000000) scale(-1, 1) rotate(-180.000000) translate(-902.000000, -875.000000) "></path>
                        <path d="M1763,875 C1763,1297.78532 1377.51525,1641 901.765485,1641 C426.015716,1641 40,1297.78532 40,875 C40,452.214681 425.484746,109 901.234515,109 C1376.98428,109 1763,452.214681 1763,875 Z" id="Stroke-5_15_" opacity="0.168" stroke-linecap="round" stroke-linejoin="round" transform="translate(901.500000, 875.000000) scale(-1, 1) rotate(-180.000000) translate(-901.500000, -875.000000) "></path>
                        <path d="M1450.59511,277.261465 C1746.77208,593.408256 1740.93347,1079.29829 1437.85632,1363.08778 C1134.24839,1646.87726 648.581854,1620.88533 352.404886,1304.73854 C56.2279183,988.591744 62.0665324,502.70171 365.143681,218.912225 C668.751612,-64.8772601 1154.41815,-38.8853259 1450.59511,277.261465 Z" id="Stroke-7_27_" opacity="0.244768415" stroke-linecap="round" stroke-linejoin="round" transform="translate(901.500000, 791.000000) scale(-1, 1) rotate(-180.000000) translate(-901.500000, -791.000000) "></path>
                        <path d="M1315.57419,490.841117 C1562.90703,753.955658 1558.13022,1159.23693 1304.95905,1395.82782 C1051.78788,1632.41872 645.758647,1610.66933 398.425807,1347.55479 C151.092966,1084.44025 155.869781,679.158984 409.04095,442.568086 C662.212119,205.446716 1068.24135,227.196103 1315.57419,490.841117 Z" id="Stroke-7-Copy_15_" opacity="0.1275" stroke-linecap="round" stroke-linejoin="round" transform="translate(857.000000, 919.000000) scale(-1, 1) rotate(-180.000000) translate(-857.000000, -919.000000) "></path>
                        <path d="M1710,894 C1710,1247.92964 1365.46361,1535 940.234564,1535 C515.536392,1535 171,1247.92964 171,894 C171,540.070364 515.536392,253 940.234564,253 C1365.46361,253 1710,540.070364 1710,894 Z" id="Path" opacity="0.3108" stroke-linecap="round" stroke-linejoin="round" transform="translate(940.500000, 894.000000) scale(-1, 1) rotate(-180.000000) translate(-940.500000, -894.000000) "></path>
                        <path d="M1710,894.5 C1710,1295.69357 1365.56867,1621 941,1621 C516.431332,1621 172,1295.69357 172,894.5 C172,493.306428 516.431332,168 941,168 C1365.56867,168 1710,493.306428 1710,894.5 Z" id="Path" opacity="0.4244" stroke-linecap="round" stroke-linejoin="round" transform="translate(941.000000, 894.500000) scale(-1, 1) rotate(-180.000000) translate(-941.000000, -894.500000) "></path>
                        <path d="M1624,894 C1624,1247.92964 1260.45752,1535 812,1535 C363.542484,1535 0,1247.92964 0,894 C0,540.070364 363.542484,253 812,253 C1260.45752,253 1624,540.070364 1624,894 Z" id="Path" opacity="0.168" stroke-linecap="round" stroke-linejoin="round" transform="translate(812.000000, 894.000000) scale(-1, 1) rotate(-180.000000) translate(-812.000000, -894.000000) "></path>
                        <path d="M1393.69559,409.175538 C1707.50819,707.412117 1701.13636,1166.9724 1379.88996,1434.96078 C1059.17455,1702.94917 544.649321,1678.53835 231.367708,1380.30177 C-82.4448908,1081.53452 -76.0730614,622.504906 244.642353,353.98585 C565.888753,85.9974649 1079.88299,110.408288 1393.69559,409.175538 Z" id="Path" opacity="0.4244" stroke-linecap="round" stroke-linejoin="round" transform="translate(812.500000, 894.500000) scale(-1, 1) rotate(-180.000000) translate(-812.500000, -894.500000) "></path>
                        <path d="M1368,894 C1368,1247.92964 1099.81677,1535 769.5,1535 C438.652174,1535 171,1247.92964 171,894 C171,540.070364 438.652174,253 769.5,253 C1099.81677,253 1368,540.070364 1368,894 Z" id="Path" opacity="0.2174" stroke-linecap="round" stroke-linejoin="round" transform="translate(769.500000, 894.000000) scale(-1, 1) rotate(-180.000000) translate(-769.500000, -894.000000) "></path>
                        <path d="M1753,894.5 C1753,422.960273 1370.34637,40 898,40 C425.653631,40 43,422.429857 43,894.5 C43,1366.57014 425.653631,1749 898,1749 C1370.34637,1749 1753,1366.03973 1753,894.5 Z" id="principal-circle"></path>
                    </g>
                </g>
            </g>
        </g>
    </g>
</svg>