<?xml version="1.0" encoding="UTF-8"?>
<svg width="16px" height="16px" viewBox="0 0 16 16" version="1.1" xmlns="http://www.w3.org/2000/svg" xmlns:xlink="http://www.w3.org/1999/xlink">
    <defs>
        <path d="M3.64226667,10.6666667 L12.3582667,10.6666667 C12.1302667,10.274 12.0002667,9.81866667 12.0002667,9.33333333 L12.0002667,6 C12.0002667,3.794 10.2056,2 8.00026667,2 C5.79426667,2 4.00026667,3.794 4.00026667,6 L4.00026667,9.33333333 C4.00026667,9.81866667 3.8696,10.274 3.64226667,10.6666667 M14.6669333,12 L1.3336,12 C0.964933333,12 0.666933333,11.702 0.666933333,11.3333333 C0.666933333,10.9646667 0.964933333,10.6666667 1.3336,10.6666667 C2.06893333,10.6666667 2.66693333,10.0686667 2.66693333,9.33333333 L2.66693333,6 C2.66693333,3.05933333 5.05893333,0.666666667 8.00026667,0.666666667 C10.9409333,0.666666667 13.3336,3.05933333 13.3336,6 L13.3336,9.33333333 C13.3336,10.0686667 13.9316,10.6666667 14.6669333,10.6666667 C15.0349333,10.6666667 15.3336,10.9646667 15.3336,11.3333333 C15.3336,11.702 15.0349333,12 14.6669333,12 M7.99626667,15.33 C7.65626667,15.33 7.3116,15.2433333 6.99693333,15.0613333 C6.6956,14.886 6.44426667,14.6346667 6.2696,14.334 C6.0856,14.0153333 6.19426667,13.6073333 6.51226667,13.4233333 C6.83226667,13.2373333 7.23893333,13.3473333 7.4236,13.666 C7.4816,13.7653333 7.56493333,13.8493333 7.6656,13.9073333 C7.9836,14.0933333 8.39226667,13.9826667 8.57693333,13.6653333 C8.76226667,13.3473333 9.17026667,13.2393333 9.48826667,13.424 C9.80693333,13.6086667 9.9156,14.016 9.7296,14.3346667 C9.3596,14.9733333 8.68693333,15.33 7.99626667,15.33" id="path-bell"></path>
    </defs>
    <g id="Circles---Group-metrics" stroke="none" stroke-width="1" fill="none" fill-rule="evenodd">
        <g id="Circles---2.0---Expand---0.1-circle---Metric-group-added" transform="translate(-842.000000, -635.000000)">
            <g id="group/circles/active" transform="translate(438.000000, 0.000000)">
                <g id="Release" transform="translate(31.000000, 402.000000)">
                    <g id="Group-8" transform="translate(44.000000, 196.000000)">
                        <g id="Group-6-Copy" transform="translate(20.000000, 25.000000)">
                            <g id="Icon/User/Circle-Copy-6" transform="translate(309.000000, 12.000000)">
                                <mask id="mask-2" fill="white">
                                    <use xlink:href="#path-bell"></use>
                                </mask>
                                <use id="Icon-Notifications" fill="currentColor" xlink:href="#path-bell"></use>
                            </g>
                        </g>
                    </g>
                </g>
            </g>
        </g>
    </g>
</svg>