<?xml version="1.0" encoding="UTF-8"?>
<svg width="16px" height="16px" viewBox="0 0 16 16" version="1.1" xmlns="http://www.w3.org/2000/svg" xmlns:xlink="http://www.w3.org/1999/xlink">
    <title>Icon/Math/Plus/Circle</title>
    <g id="Symbols" stroke="none" stroke-width="1" fill="none" fill-rule="evenodd">
        <g id="1.-Buttons/3.-Small/1.-Button/2.-Rounded/1.-White-Copy-2" transform="translate(-27.000000, -12.000000)">
            <g id="Icon/Math/Plus/Circle" transform="translate(27.000000, 12.000000)">
                <path d="M8,0.666666667 C12.0433333,0.666666667 15.3333333,3.95666667 15.3333333,8 C15.3333333,12.0433333 12.0433333,15.3333333 8,15.3333333 C3.95666667,15.3333333 0.666666667,12.0433333 0.666666667,8 C0.666666667,3.95666667 3.95666667,0.666666667 8,0.666666667 Z M8,2 C4.692,2 2,4.692 2,8 C2,11.3086667 4.692,14 8,14 C11.3086667,14 14,11.3086667 14,8 C14,4.692 11.3086667,2 8,2 Z M6.22855184,5.99649087 L6.3927606,6.00195212 C7.5866437,6.08161707 8.54391637,7.02329727 8.6249006,8.197828 L8.63045229,8.35937549 L8.6249006,8.52092346 C8.54391637,9.69546123 7.5866437,10.6372225 6.3927606,10.7168945 L6.22855184,10.7223563 L6.06434308,10.7168945 C4.81619256,10.6336011 3.82665139,9.60806539 3.82665139,8.35937549 C3.82665139,7.05639472 4.90411021,5.99649087 6.22855184,5.99649087 Z M9.92312922,8.99302933 L10.0320154,8.99970513 C10.4244469,9.04816737 10.7363609,9.35502716 10.7856213,9.74109978 L10.792407,9.84822164 L10.7856213,9.9553435 C10.7363609,10.3414161 10.4244469,10.6482759 10.0320154,10.6967381 L9.92312922,10.7034139 L9.81424299,10.6967381 C9.38613595,10.6438703 9.05385139,10.2834879 9.05385139,9.84822164 C9.05385139,9.37668318 9.44382424,8.99302933 9.92312922,8.99302933 Z M9.92312922,9.26024087 L9.82633532,9.2679527 C9.54271803,9.31361299 9.32556179,9.55650049 9.32556179,9.84822164 C9.32556179,10.1400293 9.54271803,10.3828476 9.82633532,10.4284932 L9.92312922,10.4362024 L10.0199469,10.4284932 C10.2721004,10.3879193 10.4716351,10.1915547 10.5128632,9.94347318 L10.5206966,9.84822164 L10.5128632,9.75299347 C10.4664816,9.47395626 10.2197432,9.26024087 9.92312922,9.26024087 Z M6.22855184,6.46149087 L6.07800563,6.46721211 C5.08432253,6.54302279 4.29940795,7.36276376 4.29940795,8.35937549 C4.29940795,9.35607878 5.08432253,10.1758241 6.07800563,10.251635 L6.22855184,10.2573563 L6.37909805,10.251635 C7.32048204,10.1798142 8.07449484,9.44030701 8.15125689,8.51519646 L8.15769573,8.35937549 L8.15188089,8.21128114 C8.0748298,7.23377414 7.24167143,6.46149087 6.22855184,6.46149087 Z M10.3609935,5.16899087 L10.5100013,5.17524806 C11.3450185,5.24567689 12.0125107,5.90235759 12.0840993,6.72392162 L12.0904595,6.87052933 L12.0840993,7.01713782 C12.0125107,7.83871043 11.3450185,8.49546858 10.5100013,8.56590599 L10.3609935,8.57216395 L10.211971,8.56590599 C9.32775209,8.4913252 8.63142967,7.75941597 8.63142967,6.87052933 C8.63142967,5.9322601 9.40727039,5.16899087 10.3609935,5.16899087 Z M10.3609935,5.43187549 L10.2203462,5.43847466 C9.47965266,5.50832545 8.89854641,6.1240135 8.89854641,6.87052933 C8.89854641,7.61713567 9.47965266,8.23282904 10.2203462,8.30268014 L10.3609935,8.30927933 L10.5016092,8.30268014 C11.1958662,8.23719473 11.7500712,7.69196514 11.8166349,7.00888258 L11.8233428,6.87052933 L11.8166349,6.73219207 C11.7456337,6.00365084 11.1198049,5.43187549 10.3609935,5.43187549 Z" id="Combined-Shape" fill="currentColor"></path>
                <g id="Brand/Charles/Sign/White" transform="translate(3.826651, 5.027847)">
                    <g id="Brand/Charles/Colors" transform="translate(0.000000, 0.096154)"></g>
                </g>
            </g>
        </g>
    </g>
</svg>