<?xml version="1.0" encoding="UTF-8"?>
<svg width="24px" height="25px" viewBox="0 0 24 25" version="1.1" xmlns="http://www.w3.org/2000/svg" xmlns:xlink="http://www.w3.org/1999/xlink">
    <defs>
        <path d="M11,2 C6.038,2 2,6.038 2,11 C2,15.963 6.038,20 11,20 C15.963,20 20,15.963 20,11 C20,6.038 15.963,2 11,2 M11,22 C4.935,22 0,17.065 0,11 C0,4.935 4.935,0 11,0 C17.065,0 22,4.935 22,11 C22,17.065 17.065,22 11,22 M9.29325,14.70725 L6.29325,11.70725 C5.90225,11.31625 5.90225,10.68425 6.29325,10.29325 C6.68425,9.90225 7.31625,9.90225 7.70725,10.29325 L10.00025,12.58625 L14.29325,8.29325 C14.68425,7.90225 15.31625,7.90225 15.70725,8.29325 C16.09825,8.68425 16.09825,9.31625 15.70725,9.70725 L10.70725,14.70725 C10.51225,14.90225 10.25625,15.00025 10.00025,15.00025 C9.74425,15.00025 9.48825,14.90225 9.29325,14.70725 Z" id="checkmark-circle"></path>
    </defs>
    <g id="User-group" stroke="none" stroke-width="1" fill="none" fill-rule="evenodd">
        <g id="Root---User-group---3.1" transform="translate(-1159.000000, -298.000000)">
            <rect x="0" y="0" width="1920" height="1241"></rect>
            <g id="bg">
                <g id="Group-6"></g>
                <rect id="Rectangle" opacity="0.798316592" x="0" y="0" width="1920" height="1241" rx="4"></rect>
            </g>
            <g id="Group-13" transform="translate(690.000000, 117.000000)">
                <g id="Group-8">
                    <rect id="Rectangle-Copy-2" x="0" y="0" width="543" height="639" rx="4"></rect>
                    <g id="Group-17" transform="translate(1.000000, 173.000000)">
                        <g id="Group-12-Copy" transform="translate(46.000000, 0.000000)">
                            <g id="Icon/Help/Help" transform="translate(423.000000, 9.000000)">
                                <mask id="mask-2" fill="white">
                                    <use xlink:href="#checkmark-circle"></use>
                                </mask>
                                <use id="Icon-checkmark" fill="currentColor" xlink:href="#checkmark-circle"></use>
                            </g>
                        </g>
                    </g>
                </g>
            </g>
        </g>
    </g>
</svg>
