<?xml version="1.0" encoding="UTF-8"?>
<svg width="10px" height="12px" viewBox="0 0 10 12" version="1.1" xmlns="http://www.w3.org/2000/svg" xmlns:xlink="http://www.w3.org/1999/xlink">
    <defs>
        <path d="M6,0.5 C6.827,0.5 7.5,1.173 7.5,2 L7.5,2 L7.5,2.5 L9.5,2.5 C9.7765,2.5 10,2.724 10,3 C10,3.276 9.7765,3.5 9.5,3.5 L9.5,3.5 L9,3.5 L9,10 C9,10.827 8.327,11.5 7.5,11.5 L7.5,11.5 L2.5,11.5 C1.673,11.5 1,10.827 1,10 L1,10 L1,3.5 L0.5,3.5 C0.224,3.5 0,3.276 0,3 C0,2.724 0.224,2.5 0.5,2.5 L0.5,2.5 L2.5,2.5 L2.5,2 C2.5,1.173 3.173,0.5 4,0.5 L4,0.5 Z M8,3.5 L2,3.5 L2,10 C2,10.276 2.2245,10.5 2.5,10.5 L2.5,10.5 L7.5,10.5 C7.776,10.5 8,10.276 8,10 L8,10 L8,3.5 Z M4,5 C4.276,5 4.5,5.224 4.5,5.5 L4.5,5.5 L4.5,8.5 C4.5,8.7765 4.276,9 4,9 C3.724,9 3.5,8.7765 3.5,8.5 L3.5,8.5 L3.5,5.5 C3.5,5.224 3.724,5 4,5 Z M6,5 C6.2765,5 6.5,5.224 6.5,5.5 L6.5,5.5 L6.5,8.5 C6.5,8.7765 6.2765,9 6,9 C5.7235,9 5.5,8.7765 5.5,8.5 L5.5,8.5 L5.5,5.5 C5.5,5.224 5.7235,5 6,5 Z M6,1.5 L4,1.5 C3.7245,1.5 3.5,1.7245 3.5,2 L3.5,2 L3.5,2.5 L6.5,2.5 L6.5,2 C6.5,1.7245 6.276,1.5 6,1.5 L6,1.5 Z" id="path-delete"></path>
    </defs>
    <g id="Circles---Home" stroke="none" stroke-width="1" fill="none" fill-rule="evenodd">
        <g id="Circles---3.0---Expand---3-circles---Options" transform="translate(-962.000000, -114.000000)">
            <g id="Group-10-delete" transform="translate(952.000000, 39.000000)">
                <g id="Menu-lateral-delete" transform="translate(9.000000, 12.000000)">
                    <g id="Archive-delete" transform="translate(0.000000, 62.000000)">
                        <g id="Icon/Miscellaneous/Folder-delete" transform="translate(1.000000, 1.000000)">
                            <mask id="mask-delete" fill="white">
                                <use xlink:href="#path-delete"></use>
                            </mask>
                            <use id="Icon-Trash-1-delete" fill="currentColor" xlink:href="#path-delete"></use>
                        </g>
                    </g>
                </g>
            </g>
        </g>
    </g>
</svg>