<?xml version="1.0" encoding="UTF-8"?>
<svg width="16px" height="16px" viewBox="0 0 22 22" version="1.1" xmlns="http://www.w3.org/2000/svg" xmlns:xlink="http://www.w3.org/1999/xlink">
    <title>Group 19</title>
    <defs>
        <path d="M11,2 C6.038,2 2,6.038 2,11 C2,15.963 6.038,20 11,20 C15.963,20 20,15.963 20,11 C20,6.038 15.963,2 11,2 M11,22 C4.935,22 0,17.065 0,11 C0,4.935 4.935,0 11,0 C17.065,0 22,4.935 22,11 C22,17.065 17.065,22 11,22" id="path-1"></path>
        <polygon id="path-3" points="2.38802974e-06 0.00389754092 15.1076344 0.00389754092 15.1076344 8.75476748 2.38802974e-06 8.75476748"></polygon>
        <polygon id="path-5" points="0.00644967758 0.0800088472 1.60229268 0.0800088472 1.60229268 1.53064021 0.00644967758 1.53064021"></polygon>
    </defs>
    <g id="Settings" stroke="none" stroke-width="1" fill="none" fill-rule="evenodd">
        <g id="Group-19">
            <mask id="mask-2" fill="white">
                <use xlink:href="#path-1"></use>
            </mask>
            <use id="icon-card-git-copy" fill="#98989E" xlink:href="#path-1"></use>
            <g id="Group-23" transform="translate(4.000000, 6.000000)">
                <g id="Group-3" transform="translate(0.000000, 2.230289)">
                    <mask id="mask-4" fill="white">
                        <use xlink:href="#path-3"></use>
                    </mask>
                    <g id="Clip-2"></g>
                    <path d="M5.47830791,3.02196334 C7.07629616,3.02196334 8.67428441,3.01892349 10.2721511,3.02512479 C10.5099889,3.02609754 10.7372481,2.97758154 10.9680335,2.9419545 C11.1169861,2.91897323 11.2594943,2.87045723 11.3976251,2.80868748 C11.487483,2.76843987 11.4907661,2.71165547 11.4465059,2.63432169 C11.1984541,2.19974476 11.1521268,1.72917601 11.2298254,1.24729902 C11.2753015,0.965930519 11.3741574,0.696478231 11.5057221,0.43942853 C11.5660327,0.321482357 11.6393539,0.21314211 11.7084193,0.101762013 C11.7800382,-0.0139954686 11.8189483,-0.0182512583 11.9289908,0.043153708 C12.1611138,0.173137686 12.3719577,0.331817847 12.544986,0.533055905 C12.7143664,0.730038173 12.860644,0.94221969 12.9610806,1.18759637 C13.0189594,1.32913178 13.0538568,1.47540935 13.1004273,1.61901185 C13.1248677,1.69452172 13.1641426,1.71993487 13.2397741,1.70169577 C13.6243759,1.60891955 14.0095856,1.64941035 14.3882293,1.72492022 C14.6185283,1.77076116 14.8384919,1.86426694 15.0281785,2.01723218 C15.1152398,2.08739191 15.123873,2.16399613 15.0871516,2.25239496 C14.9445218,2.59626277 14.730638,2.88614285 14.4373533,3.11960332 C14.1880856,3.31804471 13.9029477,3.44474566 13.600665,3.51952596 C13.3918881,3.57120341 13.1743565,3.60743842 12.9540282,3.5975893 C12.824409,3.59187439 12.7751634,3.62823099 12.7296873,3.7473931 C12.6348439,3.99605282 12.520424,4.23571458 12.40722,4.47634909 C12.2701836,4.76744511 12.1160024,5.04881361 11.9506345,5.32398081 C11.8200426,5.54114768 11.6685365,5.74481762 11.5184895,5.94946031 C11.32248,6.21648072 11.1025164,6.46222218 10.8663809,6.69094048 C10.5516957,6.99553343 10.2148803,7.27507802 9.84414022,7.51376703 C9.57590387,7.6864305 9.29818319,7.84085487 9.01219412,7.97825608 C8.85144686,8.05558986 8.67951296,8.11638686 8.5146315,8.18606021 C8.31995952,8.26825775 8.1178703,8.32370461 7.91930731,8.38839262 C7.79345753,8.42961298 7.66213602,8.46706393 7.52996335,8.49272026 C7.25236426,8.54646481 6.97671068,8.6134631 6.6970445,8.65212999 C6.06560689,8.73955607 5.42906234,8.77895252 4.79276098,8.73943448 C4.40280904,8.71523727 4.01273551,8.67547604 3.62594502,8.6013037 C3.35369607,8.54913988 3.083879,8.48907244 2.82233033,8.40480781 C2.2985034,8.23591375 1.81407294,7.9961304 1.41791971,7.59414066 C1.13484889,7.30681405 0.899564518,6.99139924 0.711580205,6.63646637 C0.576367685,6.38111899 0.469729753,6.11604408 0.373062529,5.84343035 C0.218151782,5.40654313 0.119903836,4.95822608 0.0649433515,4.50176223 C0.0364903572,4.26428917 0.0113204007,4.02414103 0.0084021449,3.78289855 C0.00657823501,3.64172792 -0.0195644734,3.50311077 0.0307754396,3.36254812 C0.108960377,3.14416531 0.265451846,3.02232812 0.496237244,3.02220653 C1.28538226,3.02159856 2.07440568,3.02196334 2.86355069,3.02196334 C3.73513643,3.02196334 4.60672217,3.02196334 5.47830791,3.02196334" id="Fill-1" fill="#98989E" mask="url(#mask-4)"></path>
                </g>
                <path d="M6.5876707,2.55254973 C6.54936859,2.78722614 6.72580148,3.28782861 6.35323748,3.28260007 C5.98419972,3.26472575 5.61479717,3.26010518 5.24600259,3.28491035 C5.06519232,3.29719135 4.98554825,3.23371928 4.98481869,3.05072032 C5.00050431,1.41491634 4.74090114,1.90019796 6.34594184,1.82517447 C6.53088631,1.82553925 6.58754911,1.88281002 6.5876707,2.0675113 C6.5877923,2.22923131 6.5876707,2.39082972 6.5876707,2.55254973" id="Fill-4" fill="#98989E"></path>
                <path d="M5.77766016,3.52874279 C6.8840439,3.50491036 6.53202929,3.47597099 6.58480108,4.81994939 C6.58358514,4.92257472 6.51220947,4.97279304 6.38125274,4.9736442 C5.97537199,4.97473855 5.56924806,4.97583289 5.16324571,4.9736442 C5.00797019,4.98397969 4.98401617,4.85241499 4.98474573,4.72498449 C4.98413776,4.40154447 4.98365139,4.07810444 4.98462414,3.75466442 C4.98511051,3.57142228 5.02949232,3.52886438 5.21322085,3.52874279 C5.40132675,3.52874279 5.58955425,3.52874279 5.77766016,3.52874279" id="Fill-6" fill="#98989E"></path>
                <path d="M3.91877984,1.82512583 C4.11661326,1.82500424 4.31456828,1.8236667 4.51240171,1.82549061 C4.65114045,1.82670655 4.70452022,1.87947835 4.70512819,2.01785231 C4.70670891,2.36743504 4.70597935,2.71689617 4.70573616,3.0664789 C4.70561456,3.2345218 4.63594121,3.29799387 4.46777671,3.28692881 C4.09253765,3.26236683 3.717177,3.26224523 3.34193793,3.28692881 C3.21073802,3.29556199 3.12088006,3.21530995 3.12063687,3.08325887 C3.18167705,1.72323007 2.81616551,1.81223687 3.91877984,1.82512583" id="Fill-8" fill="#98989E"></path>
                <path d="M7.61861753,1.82494344 C7.8134111,1.82494344 8.00820468,1.82421388 8.20287666,1.82518663 C8.36313755,1.82591619 8.41128877,1.87382423 8.41141036,2.03068048 C8.41153196,3.72898377 8.60340728,3.16843547 7.07776745,3.28638164 C6.9168986,3.29756829 6.82655426,3.22254479 6.82643267,3.06277029 C6.82606788,2.716349 6.82594629,2.36968453 6.82643267,2.02314165 C6.82667585,1.88197102 6.88114996,1.82652416 7.02438769,1.82530822 C7.2224643,1.8237275 7.42054091,1.82494344 7.61861753,1.82494344" id="Fill-10" fill="#98989E"></path>
                <path d="M3.91344186,3.52874279 C4.11796296,3.52874279 4.32248405,3.52777003 4.52700515,3.52922916 C4.64859914,3.53008032 4.70392441,3.58175777 4.70465397,3.70383813 C4.68228068,5.39521057 4.9894271,4.8988639 3.34474676,4.97437377 C3.15129071,4.97413058 3.12052743,4.94288092 3.12040584,4.7510056 C3.12028424,4.41127198 3.12004106,4.07153837 3.12052743,3.73180475 C3.12064903,3.57628604 3.16685474,3.52935076 3.31969839,3.52874279 C3.51753182,3.52813482 3.71548684,3.52862119 3.91344186,3.52874279" id="Fill-12" fill="#98989E"></path>
                <g id="Group-16" transform="translate(6.809264, 0.041597)">
                    <mask id="mask-6" fill="white">
                        <use xlink:href="#path-5"></use>
                    </mask>
                    <g id="Clip-15"></g>
                    <path d="M0.810594193,1.52526289 C-0.279252764,1.53474722 0.0759232891,1.63846689 0.0173149846,0.270656068 C0.0176797665,0.124864871 0.0495373926,0.0879002974 0.196666124,0.0832797256 C0.592332976,0.077078432 0.988486205,0.0815774097 1.38427465,0.0815774097 C1.57542041,0.0831581316 1.60229268,0.11173272 1.60229268,0.298622687 C1.60217109,0.64163934 1.60241427,0.984777588 1.60217109,1.32779424 C1.60217109,1.48939266 1.56909752,1.52343898 1.40445925,1.5248981 C1.20650423,1.52647883 1.00854921,1.52526289 0.810594193,1.52526289" id="Fill-14" fill="#98989E" mask="url(#mask-6)"></path>
                </g>
                <path d="M7.62449052,3.52868199 C7.82232394,3.52868199 8.02027896,3.52795242 8.21823399,3.52880358 C8.36135011,3.52953315 8.41096046,3.57744118 8.41120365,3.71739587 C8.41205481,4.08023234 8.41193322,4.44294722 8.41120365,4.8056621 C8.41083887,4.92664812 8.3758198,4.97066515 8.25422581,4.97175949 C7.8353345,4.97540731 7.4164432,4.97613688 6.99767349,4.97102993 C6.85480054,4.96932761 6.82659074,4.93017435 6.82646914,4.78888213 C6.82611831,4.4392994 6.82586117,4.08971667 6.82659074,3.74013394 C6.82683393,3.57719799 6.87571471,3.52941155 7.04071776,3.52880358 C7.23526815,3.52819561 7.42994013,3.52868199 7.62449052,3.52868199" id="Fill-17" fill="#98989E"></path>
                <path d="M9.48099976,4.97427649 C9.2797617,4.97439808 9.07852364,4.97512765 8.87728559,4.9741549 C8.73575018,4.97342533 8.68857171,4.92588208 8.68808533,4.78203639 C8.68711258,4.46881026 8.68759896,4.15546254 8.68784214,3.84211482 C8.66060509,3.71894011 8.68686939,3.52986145 8.85406113,3.52828073 C10.5155214,3.61169421 10.264673,3.08227396 10.2708743,4.83091717 C10.2981114,5.07702341 9.65183932,4.94205408 9.48099976,4.97427649" id="Fill-19" fill="#98989E"></path>
                <path d="M2.08121494,4.97427649 C1.87997688,4.97427649 1.67861723,4.97561402 1.47737917,4.9740333 C1.33231754,4.97281736 1.29766325,4.93633916 1.29754166,4.79042637 C1.29717687,4.43075134 1.29705528,4.07107631 1.29766325,3.71152288 C1.29778484,3.56682602 1.33365507,3.52961826 1.47920308,3.52925348 C3.09518724,3.60439857 2.87996588,3.10294494 2.88215457,4.80659837 C2.88166819,4.9215047 2.82305989,4.97147983 2.6851723,4.97342533 C2.48393424,4.97622199 2.28257459,4.9741549 2.08121494,4.97427649" id="Fill-21" fill="#98989E"></path>
            </g>
        </g>
    </g>
</svg>