<?xml version="1.0" encoding="UTF-8"?>
<svg width="229px" height="246px" viewBox="0 0 229 246" version="1.1" xmlns="http://www.w3.org/2000/svg" xmlns:xlink="http://www.w3.org/1999/xlink">
    <!-- Generator: Sketch 64 (93537) - https://sketch.com -->
    <title>Ativo 4</title>
    <desc>Created with Sketch.</desc>
    <g id="Sem-métricas" stroke="none" stroke-width="1" fill="none" fill-rule="evenodd">
        <g id="Metrics---Sem-Métricas---0.0" transform="translate(-1030.000000, -149.000000)">
            <g id="Ativo-4" transform="translate(1030.000000, 149.000000)">
                <path d="M140.491393,231.097988 C143.026093,232.192788 152.117692,239.737388 150.011392,240.034887 C147.905092,240.332387 137.647293,234.084888 138.111393,232.894888 C138.575493,231.704888 137.968593,229.991288 140.491393,231.097988 Z" id="Path" fill="#0C0C0C" fill-rule="nonzero"></path>
                <path d="M137.504493,104.838995 C141.324393,122.082094 141.871793,230.443488 141.074493,231.692988 C140.277193,232.942488 138.694493,232.287988 138.694493,232.287988 C138.694493,232.287988 118.476394,123.759994 111.859994,106.623994 C110.943694,104.255895 137.087993,102.934995 137.504493,104.838995 Z" id="Path" fill="#131313" fill-rule="nonzero"></path>
                <path d="M139.313293,232.466488 L140.241493,232.466488 C139.170493,220.911588 137.218893,202.799789 135.029293,184.86649 C132.863493,167.159291 127.389493,124.343094 123.129294,109.265794 C123.098762,109.151523 123.023538,109.05434 122.920568,108.99614 C122.817598,108.939148 122.695541,108.923615 122.581894,108.956394 C122.349257,109.035348 122.211609,109.274958 122.260594,109.515694 C125.295093,120.082894 129.614793,147.595692 134.160593,184.97359 C136.433493,203.894589 138.301793,221.339988 139.313293,232.466488 Z" id="Path" fill="#0C0C0C" fill-rule="nonzero"></path>
                <path d="M136.231193,107.171394 C132.494593,135.636193 128.365293,169.051391 126.627893,169.491691 L121.487094,146.703192 C121.487094,146.703192 135.338693,103.137295 136.231193,107.171394 Z" id="Path" fill="#0C0C0C" fill-rule="nonzero"></path>
                <path d="M186.777326,86.0097882 C187.741226,86.1287882 201.057325,87.6281881 200.474225,88.984788 C199.54684,90.8650987 197.778992,92.1909846 195.714226,92.5547879 C193.691226,92.7094878 184.778126,88.7110881 185.004226,87.7947881 C185.230326,86.8784882 185.813426,85.8907882 186.777326,86.0097882 Z" id="Path" fill="#222222" fill-rule="nonzero"></path>
                <path d="M139.896393,42.4115978 C147.036392,67.9727965 173.037891,92.9270952 184.66419,97.2705949 C185.85419,97.7108949 184.84269,99.6505948 183.47419,99.6505948 C178.880791,99.5077948 146.584192,89.8568953 138.111393,69.2103964 C136.028893,64.0814967 139.229993,39.9006979 139.896393,42.4115978 Z" id="Path" fill="#1C1C1C" fill-rule="nonzero"></path>
                <path d="M139.8088,42.3989916 C150.792499,72.92249 179.471498,83.9418894 186.682897,85.6078894 C188.384597,85.9886893 183.922098,88.8208892 183.922098,88.8208892 L151.792099,81.9307895 L141.2249,69.5190902 L138,57.0597908 C138,57.0597908 138.6545,39.1264918 139.8088,42.3989916 Z" id="Path" fill="#0E0E0E" fill-rule="nonzero"></path>
                <g id="Group-8" transform="translate(105.000000, 53.000000)">
                    <path d="M2.37999988,0.135778028 L102.470895,0.00487803469 C103.051455,-0.0341355405 103.623295,0.162098252 104.057572,0.549365816 C104.491849,0.93663338 104.75203,1.48235653 104.779495,2.06357793 L104.779495,33.5509763 C104.75203,34.1321977 104.491849,34.6779208 104.057572,35.0651884 C103.623295,35.452456 103.051455,35.6486898 102.470895,35.6096762 L2.37999988,35.7643762 C1.78843001,35.8203252 1.19968837,35.6321111 0.750280059,35.2433729 C0.300871751,34.8546347 0.0298306123,34.2991368 9.9475983e-14,33.7056763 L9.9475983e-14,2.19447792 C0.0298306123,1.60101744 0.300871751,1.04551948 0.750280059,0.656781293 C1.19968837,0.268043107 1.78843001,0.0798289639 2.37999988,0.135778028 L2.37999988,0.135778028 Z" id="bg-card-feature" fill="#6FC3AA"></path>
                    <path d="M41.1263979,12.3451774 C42.1762218,12.2732579 43.1130347,13.0001838 43.3040977,14.0349773 L43.3040977,14.2015773 C43.2646022,14.7387101 43.0125513,15.2379207 42.6037863,15.5886097 C42.1950214,15.9392988 41.6632905,16.1125131 41.1263979,16.0698772 L8.32999957,16.0698772 C7.28017562,16.1417967 6.34336269,15.4148708 6.15229968,14.3800773 L6.15229968,14.2015773 C6.19479383,13.6665777 6.44813399,13.1703886 6.85655902,12.822223 C7.26498405,12.4740574 7.79501843,12.3024518 8.32999957,12.3451774 L41.1263979,12.3451774 Z" id="Path" fill="#5FA58D"></path>
                    <circle id="Oval" fill="#5FA58D" fill-rule="nonzero" cx="32.4750983" cy="21.0440769" r="2.37999988"></circle>
                    <path d="M27.4413986,20.8774769 C27.2606906,19.8348841 26.3190522,19.0990682 25.2636987,19.175777 L8.32999957,19.175777 C7.79186454,19.1330616 7.25880883,19.3059246 6.84815443,19.6563199 C6.43750004,20.0067152 6.18290345,20.5059252 6.14039968,21.0440769 L6.14039968,21.2106769 C6.32657297,22.2550686 7.27197376,22.9898094 8.32999957,22.9123768 L25.2755987,22.9123768 C25.8144506,22.9583511 26.3492764,22.7866567 26.7606778,22.4356241 C27.1720791,22.0845914 27.4258002,21.5834495 27.4651986,21.0440769 L27.4413986,20.8774769 Z" id="Path" fill="#5FA58D"></path>
                    <path d="M72.7089962,17.8429771 C72.8221806,23.2993217 76.590474,27.9974795 81.8921879,29.2922139 C87.1939017,30.5869482 92.7035493,28.1545612 95.318995,23.3645768 L90.5589953,21.2225769 C89.0006557,23.8004166 85.9245561,25.0359492 83.0160352,24.2522491 C80.1075143,23.468549 78.0686081,20.8547795 78.0163959,17.8429771 C78.0286096,15.8894546 78.8989169,14.0400515 80.3963958,12.7854774 L77.349996,8.56097759 C74.4516346,10.7714566 72.7383627,14.1980006 72.7089962,17.8429771 L72.7089962,17.8429771 Z" id="Path" fill="#5FA58D"></path>
                    <path d="M94.4383951,10.8100775 C93.4512264,9.5118179 92.2077261,8.43033724 90.7850953,7.63277764 C86.9157502,5.52907283 82.2330789,5.57860108 78.4090959,7.76367763 L81.4435958,12.1309774 C83.5591165,11.0565591 86.0669922,11.0876852 88.1551954,12.2142774 C88.9420864,12.6629991 89.6301899,13.2661016 90.1781953,13.9873773 C91.0261282,15.1507734 91.473005,16.5582265 91.4514952,17.9976771 C91.4529035,18.7149503 91.3321785,19.4272277 91.0944953,20.103977 L95.854495,22.2578769 C96.3890127,20.9011243 96.6635199,19.4559249 96.663695,17.9976771 C96.7248929,15.4233433 95.9434982,12.8994803 94.4383951,10.8100775 Z" id="Path" fill="#5FA58D"></path>
                </g>
                <path d="M92.4034952,233.156688 C94.3312951,235.120188 99.9480948,245.532687 97.9131949,245.056687 C95.878295,244.580687 88.7025954,234.858388 89.5117953,233.942088 C90.3209953,233.025788 90.4399953,231.193188 92.4034952,233.156688 Z" id="Path" fill="#0C0C0C" fill-rule="nonzero"></path>
                <path d="M136.909493,104.838995 C129.709993,143.728193 94.7596951,229.598588 91.6299952,234.667988 C90.8445953,235.917488 89.2499954,235.084488 89.6069953,233.001988 C93.8909951,212.938589 106.707294,138.039993 110.063094,102.447095 C110.336794,99.8647948 137.373593,102.339995 136.909493,104.838995 Z" id="Path" fill="#131313" fill-rule="nonzero"></path>
                <path d="M89.9758953,237.430131 C89.8959014,237.435866 89.8159433,237.414824 89.7497953,237.369288 C89.6409065,237.314023 89.5598583,237.216021 89.5260142,237.098695 C89.49217,236.981368 89.5087635,236.855256 89.5712953,236.750488 C90.4875953,235.084488 96.711295,208.725989 103.030195,178.440491 C110.800894,141.550493 115.537094,114.180494 116.120194,103.161095 C116.123234,103.042156 116.174278,102.929509 116.261704,102.848809 C116.349129,102.768109 116.465492,102.726225 116.584294,102.732042 C116.842523,102.739152 117.048394,102.950385 117.048394,103.208695 C116.262994,118.869094 107.671194,161.161692 103.958395,178.630891 C98.0083949,206.762489 91.4514952,235.203488 90.3447953,237.143188 C90.2889947,237.302867 90.1444617,237.414764 89.9758953,237.430131 Z" id="Path" fill="#0E0E0E" fill-rule="nonzero"></path>
                <path d="M101.149995,43.6015977 C106.207494,59.4285969 109.789394,97.7584949 109.479994,104.838995 C109.479994,106.207494 128.329593,109.598994 136.326393,105.433995 C139.396593,103.863195 141.609993,44.5178977 139.896393,42.3639978 C138.182793,40.2100979 121.332394,37.889598 119.023794,38.793998 C114.156694,40.7217979 104.779495,44.9700977 101.149995,43.6015977 Z" id="Path" fill="#161616" fill-rule="nonzero"></path>
                <path d="M120.820694,26.9058986 C120.820694,26.9058986 126.151893,27.8340986 126.770693,26.9058986 C128.793693,23.8475988 125.211793,2.82029985 118.999994,1.9158999 C111.241194,0.725899962 108.385194,9.05589953 111.859994,16.8146991 C115.763194,25.5254987 118.702494,33.8197982 113.656894,41.2691979 C115.310994,41.8284978 125.283193,41.7808978 126.199493,39.4722979 C120.963494,34.9859982 120.820694,26.9058986 120.820694,26.9058986 Z" id="Path" fill="#222222" fill-rule="nonzero"></path>
                <path d="M125.782993,10.8408994 C124.961893,10.6623994 116.132094,14.0538993 116.132094,14.0538993 C114.942094,16.5171991 114.299494,8.10389958 114.299494,8.10389958 L124.866693,7.6397996 L127.627493,9.5199995 C127.627493,9.5199995 126.615993,11.0193994 125.782993,10.8408994 Z" id="Path" fill="#181818" fill-rule="nonzero"></path>
                <path d="M104.719995,3.65329981 C104.398695,2.97499985 101.828295,-0.559299971 101.149995,0.0832999957 C100.471695,0.725899962 98.4843949,4.26019978 99.3530948,5.45019972 C100.221795,6.64019965 104.113095,6.04519969 104.113095,6.04519969 C104.113095,6.04519969 105.053195,4.33159977 104.719995,3.65329981 Z" id="Path" fill="#0E0E0E" fill-rule="nonzero"></path>
                <path d="M106.481194,3.65329981 C105.422095,3.23679983 103.767995,2.86789985 103.541895,4.24829978 C103.350435,4.80564059 103.444403,5.4214376 103.793439,5.89628205 C104.14245,6.3711265 104.702112,6.6446575 105.291195,6.62829965 C106.623994,6.64019965 107.587894,4.06979979 106.481194,3.65329981 Z" id="Path" fill="#222222" fill-rule="nonzero"></path>
                <path d="M114.846894,24.5258987 C115.168194,24.1450987 115.441894,15.2914992 115.441894,15.2914992 L116.036894,14.1014993 C116.036894,14.1014993 115.489494,9.82939949 115.441894,9.03209953 C117.417294,9.03209953 123.355394,4.72429975 122.581894,2.47519987 C121.570394,-0.523599973 109.491894,-1.47559992 106.445494,4.26019978 C101.614095,13.4826993 111.586294,22.4909988 114.846894,24.5258987 Z" id="Path" fill="#0E0E0E" fill-rule="nonzero"></path>
                <path d="M116.227294,15.2438992 C115.810794,14.4465992 111.467294,12.3640994 111.312594,13.5659993 C110.800894,17.1359991 115.489494,20.087199 116.227294,19.718299 C116.965094,19.349399 116.619994,16.0411992 116.227294,15.2438992 Z" id="Path" fill="#222222" fill-rule="nonzero"></path>
                <path d="M116.036894,20.3489989 C116.643794,29.2501985 127.306193,30.4401984 128.591393,29.2977985 C129.876593,28.1553985 128.174893,18.849599 127.401393,18.587799 C126.627893,18.325999 123.724294,19.861099 123.224494,20.3727989 C122.84914,20.8933892 122.641565,21.5161147 122.629494,22.1577988 C122.629494,22.1577988 118.678694,21.5865989 116.048794,13.8277993 C115.937467,13.5806706 115.680693,13.4323063 115.410992,13.4592765 C115.14129,13.4862466 114.91898,13.6825193 114.858794,13.9467993 C114.799294,15.3271992 116.001194,19.539799 116.036894,20.3489989 Z" id="Path" fill="#0E0E0E" fill-rule="nonzero"></path>
                <path d="M116.453394,8.32999957 C118.833394,9.34149951 124.354994,10.6504994 125.878193,10.0316995 C127.401393,9.41289951 130.638193,7.6516996 128.769893,5.56919971 C127.115793,3.60569981 125.782993,5.45019972 124.592994,5.6762997 C121.832194,6.16419968 117.738594,5.46209972 116.727094,5.96189969 C115.715594,6.46169966 114.989694,7.6873996 116.453394,8.32999957 Z" id="Path" fill="#222222" fill-rule="nonzero"></path>
                <path d="M105.909994,62.0822968 C53.3714972,39.4722979 92.4391952,2.04679989 117.262594,6.03329969 C118.369294,6.22369968 117.905194,9.22249952 116.667594,9.02019953 C102.827895,6.64019965 76.445596,29.7618984 107.694994,44.7915977 C109.563294,45.7078976 108.408994,63.1770967 105.909994,62.0822968 Z" id="Path" fill="#161616" fill-rule="nonzero"></path>
                <path d="M100.435995,244.164187 C106.243194,243.414487 112.157494,241.427187 117.821894,241.724687 C121.461266,241.867943 125.104089,241.548046 128.662793,240.772687 C132.934893,239.880188 139.456093,239.582688 143.656793,239.082888 C147.333892,238.606888 147.905092,239.796888 150.796792,240.391887 C147.595692,240.796487 143.656793,241.950787 140.634193,242.022187 C136.040793,242.307787 131.483093,241.712787 126.853993,242.176887 C125.40712,242.139785 123.980688,242.524301 122.748494,243.283587 C121.296065,243.801241 119.735732,243.940483 118.214594,243.688187 C116.548594,243.509687 114.977794,244.152287 113.276094,244.152287 C111.607417,244.181809 109.945537,244.373105 108.313794,244.723487 C104.148795,245.461287 100.186095,245.175687 96.056795,245.377987" id="Path-2" fill="#000000" fill-rule="nonzero" opacity="0.26"></path>
                <g id="Group" opacity="0.13" transform="translate(16.469999, 57.119997)">
                    <path d="M1.54659987,0.999599948 L60.2611968,0.916299952 C60.5990708,0.893469822 60.932121,1.00617327 61.1867,1.22948822 C61.4412791,1.45280317 61.5964129,1.76833128 61.6177967,2.10629989 L61.6177967,20.6226989 C61.5964129,20.9606675 61.4412791,21.2761956 61.1867,21.4995106 C60.932121,21.7228255 60.5990708,21.835529 60.2611968,21.8126989 L1.54659987,21.8959989 C0.840627398,21.9436869 0.228904553,21.411754 0.178099939,20.7059989 L0.178099939,2.20149989 C0.199490248,1.86037811 0.355879449,1.54182737 0.612688523,1.31628201 C0.869497597,1.09073665 1.20557096,0.976776788 1.54659987,0.999599948 L1.54659987,0.999599948 Z" id="bg-card-feature-2" fill="#4B82FA"></path>
                    <path d="M57.6669969,11.3525994 C57.6361753,11.0211227 57.3573005,10.7680696 57.024397,10.7694994 L54.2159971,10.7694994 C53.930239,10.7562497 53.6713494,10.936984 53.5852972,11.2097994 L52.3000972,14.9820992 L49.7415974,5.46209972 C49.6644836,5.17982019 49.4033376,4.98765618 49.1108974,4.99799974 C48.8231677,4.98744569 48.5623333,5.16616553 48.4682974,5.43829972 L46.3619975,11.7452994 L44.5531976,8.50849956 C44.4349149,8.31338488 44.222039,8.19562375 43.9938977,8.19909957 C43.7610292,8.20196062 43.5494874,8.33532395 43.4464977,8.54419955 L42.2564977,10.7456994 L40.5071978,10.7456994 C40.1522997,10.7456994 39.8645979,11.0334012 39.8645979,11.3882994 L39.8645979,11.3882994 C39.8954195,11.7197761 40.1742943,11.9728292 40.5071978,11.9713994 L42.7205977,11.9713994 C42.959621,11.968008 43.1761842,11.8297761 43.2798977,11.6143994 L44.0295977,10.1268995 L45.9930976,13.5659993 C46.1218285,13.7940214 46.3760412,13.9211278 46.6356975,13.8872993 C46.8860885,13.8605935 47.0965992,13.687507 47.1711975,13.4469993 L49.0989974,7.7587996 L51.6574973,17.2787991 C51.7394076,17.5629202 52.0046312,17.7544706 52.3000972,17.7428991 C52.5847019,17.7551604 52.844552,17.581927 52.9426972,17.3144991 L54.6800971,11.9951994 L57.060097,11.9951994 C57.4149951,11.9951994 57.7026969,11.7074976 57.7026969,11.3525994 L57.6669969,11.3525994 Z" id="Path" fill="#6BA0F8" fill-rule="nonzero"></path>
                    <path d="M24.2636987,8.16339957 C24.8803943,8.11144244 25.4339738,8.54085458 25.5369986,9.15109952 L25.5369986,9.25819952 C25.4863306,9.91143561 24.917149,10.4008254 24.2636987,10.3529995 L5.00949969,10.3529995 C4.39770923,10.3913527 3.85687738,9.95868726 3.75999975,9.35339951 L3.75999975,9.25819952 C3.78426212,8.9422022 3.9335736,8.64893733 4.17483243,8.44342055 C4.41609125,8.23790378 4.72936412,8.13711532 5.04519969,8.16339957 L24.2636987,8.16339957 Z" id="Path" fill="#6BA0F8"></path>
                    <circle id="Oval" fill="#6BA0F8" fill-rule="nonzero" cx="5.36649967" cy="13.2684993" r="1.39229993"></circle>
                    <circle id="Oval" fill="#6BA0F8" fill-rule="nonzero" cx="9.13879947" cy="13.2684993" r="1.39229993"></circle>
                    <circle id="Oval" fill="#6BA0F8" fill-rule="nonzero" cx="12.9110993" cy="13.2684993" r="1.39229993"></circle>
                </g>
                <g id="Group" opacity="0.13" transform="translate(0.000000, 95.199995)">
                    <path d="M2.0110999,0.678299965 L88.8810954,0.57119997 C89.3929872,0.532019644 89.8988258,0.702531511 90.2825376,1.04360866 C90.6662493,1.38468581 90.8948905,1.86704476 90.9159953,2.37999988 L90.9159953,29.7499985 C90.8915269,30.256413 90.6648413,30.7318217 90.2867661,31.0696286 C89.9086909,31.4074355 89.4108594,31.5793763 88.9048954,31.5468984 L2.03489989,31.6539984 C1.52102165,31.6932072 1.0133853,31.5211004 0.629308879,31.1774531 C0.245232459,30.8338058 0.0179543525,30.3483575 -2.10065288e-16,29.8332984 L-2.10065288e-16,2.46329987 C0.0275400829,1.95899901 0.255554513,1.48663877 0.63328183,1.15137784 C1.01100915,0.816116907 1.50709539,0.645784242 2.0110999,0.678299965 Z" id="bg-card-feature-3" fill="#4349CD"></path>
                    <path d="M85.0611956,16.0054992 C85.0235166,15.5163277 84.6116551,15.1409602 84.1210956,15.1486992 L79.9679958,15.1486992 C79.5426335,15.1257859 79.1538224,15.3882334 79.0159959,15.7912992 L77.123896,21.4199989 L73.3396962,7.37799962 C73.2320892,6.95246244 72.8378271,6.66300418 72.3995962,6.68779965 C71.9742338,6.66488636 71.5854228,6.92733383 71.4475963,7.33039962 L68.3416964,16.6599991 L65.6522966,11.8999994 C65.4865399,11.6028185 65.1714569,11.4201617 64.8311966,11.4239994 C64.4857068,11.4364674 64.1749365,11.6375541 64.0219967,11.9475994 L62.3559968,15.2081992 L59.6665969,15.2081992 C59.147394,15.2081992 58.7264969,15.6290963 58.7264969,16.1482992 L58.7264969,16.2315992 C58.7693833,16.7200606 59.1762748,17.0960489 59.6665969,17.1002991 L62.9390967,17.1002991 C63.2967221,17.0983192 63.6230683,16.8960765 63.7839967,16.5766991 L64.8906966,14.2799993 L67.8299965,19.396999 C68.017898,19.7260917 68.3811976,19.9145478 68.7584483,19.8786191 C69.1356991,19.8426905 69.4568937,19.5890445 69.5792964,19.230399 L72.4114962,10.8170994 L76.219496,24.8590987 C76.3575943,25.263852 76.7378822,25.5359146 77.165546,25.5359146 C77.5932098,25.5359146 77.9734976,25.263852 78.1115959,24.8590987 L80.6819958,16.9931991 L84.1567956,16.9931991 C84.4082012,16.9932193 84.6491405,16.8925414 84.8257896,16.7136563 C85.0024386,16.5347712 85.1000779,16.2925846 85.096971,16.0411992 L85.0611956,16.0054992 Z" id="Path" fill="#2E3599" fill-rule="nonzero"></path>
                    <path d="M35.6285981,11.2811994 C36.5396116,11.2173957 37.3535861,11.8470741 37.520698,12.7448993 L37.520698,12.8995993 C37.4873483,13.366274 37.2684444,13.800141 36.9128995,14.1042549 C36.5573545,14.4083688 36.0948024,14.5573824 35.6285981,14.5179992 L7.13999963,14.5179992 C6.24024111,14.5845049 5.43066774,13.9735061 5.24789973,13.0899993 L5.24789973,12.9471993 C5.2689226,12.4720443 5.48251625,12.0259337 5.83948142,11.7116247 C6.19644659,11.3973158 6.66600546,11.2419085 7.13999963,11.2811994 L35.6285981,11.2811994 Z" id="Path" fill="#2E3599"></path>
                    <circle id="Oval" fill="#2E3599" fill-rule="nonzero" cx="28.1196985" cy="18.837699" r="2.07059989"></circle>
                    <path d="M23.7999988,18.682999 C23.6328869,17.7851738 22.8189123,17.1554954 21.9078989,17.2192991 L7.13999963,17.2192991 C6.67379535,17.1799159 6.21124323,17.3289295 5.85569829,17.6330434 C5.50015336,17.9371573 5.28124951,18.3710243 5.24789973,18.837699 L5.24789973,19.039999 C5.43579458,19.9187339 6.24393763,20.5235705 7.13999963,20.4560989 L21.8602989,20.4560989 C22.3335701,20.5056913 22.8067685,20.3616604 23.1721523,20.0568003 C23.5375362,19.7519401 23.7640065,19.3121984 23.7999988,18.837699 L23.7999988,18.682999 Z" id="Path" fill="#2E3599"></path>
                </g>
                <g id="Group" opacity="0.13" transform="translate(157.000000, 107.000000)">
                    <path d="M1.73739991,0.130899993 L69.7339964,0.0594999969 C70.6145963,0.0594999969 71.3166963,0.559299971 71.3166963,1.24949993 L71.3166963,18.742499 C71.3166963,19.373199 70.6145963,19.932499 69.7339964,19.932499 L1.73739991,20.003899 C0.856799955,20.003899 0.166599991,19.504099 0.166599991,18.813899 L0.166599991,1.27329993 C0.166599991,0.630699967 0.856799955,0.130899993 1.73739991,0.130899993 Z" id="bg-card-feature-4" fill="#FFFFFF"></path>
                    <path d="M46.1243976,10.1268995 C46.1557495,9.74477873 46.4788675,9.45293017 46.8621976,9.46049951 L50.1108974,9.46049951 C50.4399047,9.446992 50.739213,9.64974922 50.8486974,9.96029948 L52.3599973,14.2799993 L55.3230971,3.29629983 C55.4153327,2.96687061 55.7188757,2.74166125 56.0608971,2.74889986 C56.3962445,2.73565325 56.7007369,2.94348137 56.810597,3.26059983 L59.1905969,10.5671994 L61.2968968,6.81869964 C61.431115,6.59107759 61.6752525,6.45092456 61.9394968,6.44979966 C62.2076678,6.45992642 62.4491921,6.61486655 62.5701967,6.85439964 L63.8791967,9.41289951 L65.9735966,9.41289951 C66.1702519,9.40964834 66.3598092,9.48633615 66.4988845,9.62541151 C66.6379599,9.76448686 66.7146477,9.95404409 66.7114958,10.1506995 L66.7114958,10.2220995 C66.6745152,10.6014614 66.3547429,10.890288 65.9735966,10.8884994 L63.4269967,10.8884994 C63.1502072,10.8870812 62.8974964,10.73086 62.7724967,10.4838995 L61.8799968,8.80599954 L59.6070969,12.7924993 C59.4560391,13.0441991 59.1737717,13.1866777 58.8815561,13.1587266 C58.5893405,13.1307755 58.339201,12.9373711 58.238597,12.6615993 L56.0489971,6.06899968 L53.0739972,17.0645991 C52.9726365,17.3911508 52.6660713,17.6101259 52.3242973,17.6000991 C51.9941626,17.6176144 51.6926778,17.4133828 51.5864973,17.1002991 L49.5753974,10.9360994 L46.8621976,10.9360994 C46.6644672,10.939289 46.4737332,10.8629672 46.3327844,10.7242556 C46.1918355,10.585544 46.1124976,10.3960556 46.1124976,10.1982995 L46.1243976,10.1268995 Z" id="Path" fill="#CDCDCD" fill-rule="nonzero"></path>
                    <path d="M28.0363985,6.21179968 C28.7648062,6.16586981 29.4088137,6.68107585 29.5238985,7.40179961 L29.5238985,7.52079961 C29.4966838,7.88642285 29.3238973,8.22583592 29.0442682,8.46296146 C28.764639,8.70008699 28.4015548,8.81509226 28.0363985,8.78219954 L5.7476997,8.78219954 C5.02189735,8.8274708 4.38162005,8.31111813 4.27209978,7.5921996 L4.27209978,7.47319961 C4.32915211,6.71471058 4.9890302,6.14529965 5.7476997,6.19989968 L28.0363985,6.21179968 Z" id="Path" fill="#CDCDCD"></path>
                    <circle id="Oval" fill="#CDCDCD" fill-rule="nonzero" cx="22.1696988" cy="12.1260994" r="1.61839992"></circle>
                    <path d="M18.754399,12.0189994 C18.6445591,11.2952358 17.9971211,10.7772854 17.2668991,10.8289994 L5.7595997,10.8289994 C5.39444349,10.7961067 5.03135923,10.911112 4.75173006,11.1482375 C4.4721009,11.3853631 4.29931446,11.7247761 4.27209978,12.0903994 L4.27209978,12.2093994 C4.38718451,12.9301231 5.03119206,13.4453292 5.7595997,13.3993993 L17.2668991,13.3993993 C17.6339793,13.4322403 17.9987892,13.3156352 18.2787685,13.075973 C18.5587478,12.8363107 18.7302272,12.4938522 18.754399,12.1260994 L18.754399,12.0189994 Z" id="Path" fill="#CDCDCD"></path>
                </g>
                <path d="M117.464894,8.54419955 C117.464894,8.54419955 90.3328953,6.42599967 92.8199952,28.3219985 C92.8199952,28.3219985 94.6763951,11.1859994 113.990094,8.85359954 C114.132894,8.85359954 117.048394,9.04399953 117.191194,9.02019953 C117.333994,8.99639953 117.464894,8.54419955 117.464894,8.54419955 Z" id="Path" fill="#0E0E0E" fill-rule="nonzero"></path>
                <path d="M81.0627958,27.4294986 C81.0627958,27.4294986 78.8255959,45.4103976 108.289994,56.4654971 C108.289994,56.4654971 108.063894,61.4872968 106.385994,62.4154967 C106.409794,62.3797968 73.1254962,50.8843973 81.0627958,27.4294986 Z" id="Path" fill="#0E0E0E" fill-rule="nonzero"></path>
            </g>
        </g>
    </g>
</svg>