<?xml version="1.0" encoding="UTF-8"?>
<svg width="310px" height="218px" viewBox="0 0 310 218" version="1.1" xmlns="http://www.w3.org/2000/svg" xmlns:xlink="http://www.w3.org/1999/xlink">
    <defs>
        <path d="M0.580382968,6.22603974 L0.580382968,-5.77315973e-15 L6.80619974,-5.77315973e-15 L6.80619974,6.22603974 L0.580382968,6.22603974 Z" id="path-1"></path>
    </defs>
    <g id="Users-empty-users" stroke="none" stroke-width="1" fill="none" fill-rule="evenodd">
        <g id="Root---User---0.0" transform="translate(-1027.000000, -153.000000)">
            <g id="illustration-empty-users/users" transform="translate(1027.000000, 153.000000)">
                <g id="Group-empty-users">
                    <path d="M110.781106,57.4807988 C113.477983,37.6646185 78.4185868,28.4600614 59.1886841,36.374808 C20.9633897,52.0870456 -26.5250896,209.854327 54.4984639,209.854327 C109.139529,209.854327 168.177675,210.147465 202.826677,210.147465 C227.27445,210.147465 237.9447,177.43318 231.495648,165.297235 C220.121864,143.956733 197.843318,131.175883 188.697389,131.293139 C179.551459,131.410394 129.131592,128.948029 124.206861,119.567588 C119.340758,110.304403 108.377368,75.1277522 110.781106,57.4807988 Z" id="Path-empty-users" fill="#48484A" fill-rule="nonzero"></path>
                    <path d="M82.6397849,42.296211 C60.8888889,56.7772657 51.0394265,73.5448029 50.3945212,97.406298 C50.2772657,102.096518 53.3259089,106.786738 53.3259089,106.786738 L65.6377368,117.398361 C61.9441884,121.443676 50.68766,134.283154 50.3945212,140.204557 C50.0427547,147.239887 53.5442908,141.592934 58,143 C64.6835637,145.110599 69.4336918,138.938044 76,138 C81.5696365,137.179211 88.0921659,145.558372 90.8476703,146.965438 C96.827701,150.072709 114.474654,170.111367 130.128264,172.690988 C137.573989,173.922171 145.078341,171.570405 151.527394,171.277266 C157.448797,171.042755 162.549411,170.808244 165.891193,171.863543 C175.271633,174.853559 186.117768,188.279314 180.548131,192.383257 C163.780594,204.753712 26.4874552,181.18638 14.7619048,171.571429 C8.31285202,166.294931 12.9313876,192.676395 14.6902202,196.487199 C24.8914491,218.355351 161.78725,218.062212 172.926523,217.006912 C174.743984,216.831029 177.44086,216.655146 180.724014,216.479263 C197.726062,215.423963 230.205837,213.43062 234.485663,204.695084 C239.586278,194.317972 239.938044,161.017409 231.554275,151.930108 C223.170507,142.842806 207.223758,133.051971 201.067844,133.169227 C194.970558,133.286482 115.471326,138.445725 115.471326,138.445725 L93.1927803,125.547619 L92.5478751,125.019969 L102.514593,103.855351 L115.412698,65.7473118 C115.412698,65.7473118 119.047619,55.0184332 116.585253,49.3315412 C114.122888,43.6446493 109.139529,36.9024578 103.687148,32.9157706 C98.234767,28.9290835 81.1154634,25.2941628 79.6497696,27.6392729 C79.0048643,28.6359447 80.1187916,31.156938 81.2913466,33.7951869 C82.874296,37.2542243 84.515873,41.0650282 82.6397849,42.296211 Z" id="Path-empty-users" fill="#333335" opacity="0.458519345"></path>
                    <path d="M130.714542,59.2396313 C148.713262,79.5248336 183.479519,89.1397849 183.479519,89.1397849 C183.479519,89.1397849 163.956477,93.4196109 160.614695,93.8300051 C157.272913,94.2403994 134.40809,93.8300051 126.610599,86.2083973 C123.503328,83.1597542 128.017665,56.1909882 130.714542,59.2396313 Z" id="Path-empty-users" fill="#2C2C2E"></path>
                    <path d="M80.8809524,51.031746 C75.4871992,53.1423451 60.0094726,65.5128008 60.0094726,71.9618536 C60.1853559,123.495648 108.84639,160.782898 116.643881,161.77957 C121.62724,152.985407 138.043011,114.291091 140.68126,113.118536 C121.509985,93.4782386 128.134921,70.0857655 130.714542,59.1810036 C115.412698,46.6932924 101.400666,46.2828981 101.400666,46.2828981 C101.400666,46.2828981 84.2227343,49.7419355 80.8809524,51.031746 Z" id="Path-empty-users" fill="#3A3A3C"></path>
                    <g opacity="0.25" transform="translate(67.455197, 77.531490)" fill="#2C2C2E" fill-rule="nonzero" id="Path-empty-users">
                        <path d="M12.2532002,1.05529954 C12.1945725,29.4897593 27.4964158,47.9575013 27.4964158,47.9575013 L43.9121864,63.7869944 L49.7749616,85.4792627 L42.0791091,82.110087 L6.35432668,44.516129 L0.52764977,35.0593958 L6.39042499,12.78085 C6.39042499,12.78085 12.311828,-2.75550435 12.2532002,1.05529954 Z"></path>
                    </g>
                    <path d="M126.024322,100.279058 C127.783154,98.9892473 144.433436,95.0611879 147.130312,96.1751152 C149.827189,97.2890425 143.495392,104.383001 141.267537,104.383001 C139.039683,104.383001 127.196877,105.555556 127.196877,105.555556 C127.196877,105.555556 124.324117,101.568868 126.024322,100.279058 Z" id="Path-empty-users" fill="#FFADA8" fill-rule="nonzero"></path>
                    <path d="M164.718638,82.6907322 C164.718638,82.6907322 131.593958,106.669483 131.887097,107.900666 C132.180236,109.131848 134.290835,112.180492 135.404762,112.590886 C136.518689,113.00128 201.243728,105.321045 203.999232,104.383001 C206.754736,103.444956 233.723502,82.74936 235.071941,80.9318996 C236.361751,79.1730671 164.718638,82.6907322 164.718638,82.6907322 Z" id="Path-empty-users" fill="#202CBF"></path>
                    <polygon id="Path-empty-users" fill="#323DC9" points="172.340246 80.9318996 131.887097 110.245776 181.134409 112.590886 235.071941 90.31234 238.003328 76.827957"></polygon>
                    <path d="M285.609063,201.294675 C287.719662,204.81234 310.056836,211.613159 309.587814,208.154122 C309.177419,204.81234 289.947517,193.966206 287.954173,195.4319 C285.960829,196.897593 284.143369,198.890937 285.609063,201.294675 Z" id="Path-empty-users" fill="#59595C"></path>
                    <path d="M143.612647,160.665643 C171.578085,176.729647 225.515617,113.411674 226.277778,116.108551 C233.25448,142.315156 276.639017,192.500512 284.90553,199.946237 C286.957501,201.763697 290.475166,196.897593 289.009473,195.256016 C264.678955,168.111367 243.924731,90.1364567 233.313108,86.7946749 C221.646185,83.1011265 129.541987,130.824117 130.128264,138.387097 C130.773169,145.950077 141.267537,159.317204 143.612647,160.665643 Z" id="Path-empty-users" fill="#48484A"></path>
                    <g transform="translate(134.656938, 103.540195)" fill="#2C2C2E" fill-rule="nonzero" id="Path-empty-users">
                        <path d="M153.062724,96.406042 C152.945469,96.406042 152.828213,96.3474142 152.710958,96.2887865 C141.337174,87.1428571 104.460317,34.7882744 94.7281106,2.42575525 C92.8520225,3.65693804 90.1551459,5.47439836 86.9306196,7.7608807 C67.7593446,21.0693804 27.8924731,48.8003072 0.747823861,48.389913 C0.396057348,48.389913 0.161546339,48.0967742 0.161546339,47.8036354 C0.161546339,47.4518689 0.4546851,47.2173579 0.747823861,47.2173579 C0.923707117,47.2173579 1.09959037,47.2173579 1.33410138,47.2173579 C28.0683564,47.2173579 67.3489503,19.9554531 86.2857143,6.76420891 C89.9206349,4.24321557 92.7933948,2.24987199 94.7867384,1.0186892 C94.9626216,0.901433692 95.1385049,0.901433692 95.3143881,0.960061444 C95.4902714,1.0186892 95.6075269,1.19457245 95.6661546,1.37045571 C105.105223,33.7329749 142.099334,86.2634409 153.473118,95.4093702 C153.707629,95.5852535 153.766257,95.9956477 153.590374,96.2301587 C153.414491,96.3474142 153.238607,96.406042 153.062724,96.406042 Z"></path>
                    </g>
                    <path d="M104.332053,20.6039427 C104.449309,22.1282642 103.394009,37.2542243 99.6418331,40.5373784 C98.6451613,41.4167947 96.7104455,40.5373784 96.7104455,40.5373784 C96.7104455,40.5373784 95.1861239,46.5174091 101.986943,46.4001536 C101.869688,51.2076293 93.9549411,57.5394265 80.8809524,51.0903738 C83.1674347,49.4487967 87.1541219,43.703277 85.6884281,37.0197133 C79.4152586,33.1502816 78.59447,19.3727599 82.6397849,14.7411674 C88.6784434,7.70583717 103.452637,9.93369176 104.332053,20.6039427 Z" id="Path-empty-users" fill="#FFADA8" fill-rule="nonzero"></path>
                    <path d="M96.7104455,40.5373784 C90.0659669,37.0197133 86.7437276,35.2608807 86.7437276,35.2608807 C86.7437276,35.2608807 90.2613927,38.58312 97.296723,45.2275986 L96.7104455,40.5373784 Z" id="Path-empty-users" fill="#F5877D" fill-rule="nonzero"></path>
                    <path d="M97.8830005,6.53328213 C88.6784434,-3.78520225 68.4518689,12.1615463 76.7770097,18.8451101 C70.3865847,23.9457245 73.4938556,28.6945725 77.3632873,28.811828 C71.7936508,43.1169995 92.1961086,40.8891449 89.2060932,20.0762929 C91.0821813,19.8417819 97.2380952,22.3627752 101.986943,17.0862775 C104.859703,23.7112135 109.960317,17.3794163 109.608551,13.5686124 C109.198157,8.93701997 102.631848,0.846390169 97.8830005,6.53328213 Z" id="Path-empty-users" fill="#1C1C1E"></path>
                    <path d="M87.9162826,34.0883257 C86.5092166,34.9677419 81.5844854,31.3328213 82.0535074,27.6392729 C82.4639017,24.4147465 87.3300051,24.1216078 87.9162826,25.8804403 C88.5025602,27.5806452 89.2060932,33.2675371 87.9162826,34.0883257 Z" id="Path-empty-users" fill="#FFADA7" fill-rule="nonzero"></path>
                    <path d="M62.7063492,67.4475166 C48.8701997,74.4828469 41.1313364,139.61828 53.9121864,151.285202 C68.1001024,164.183308 119.223502,120.974654 129.541987,105.555556 C130.538658,104.089862 127.548643,98.344342 124.265489,101.451613 C105.152842,119.508961 72.6730671,125.488991 72.6730671,125.488991 C72.6730671,125.488991 95.4792627,50.797235 62.7063492,67.4475166 Z" id="Path-empty-users" fill="#2C2C30"></path>
                    <path d="M230.557604,203.581157 C230.557604,208.330005 252.601639,219.645161 256.588326,217.59319 C260.575013,215.482591 235.892729,198.246032 233.371736,198.773682 C230.850742,199.301331 230.557604,200.591142 230.557604,203.581157 Z" id="Path-empty-users" fill="#59595C"></path>
                    <path d="M114.885049,160.665643 C89.3819764,135.279826 174.450845,72.3136201 175.857911,89.7260625 C177.558116,111.066564 207.399642,172.391193 234.485663,199.946237 C235.071941,200.532514 232.668203,203.75704 230.38172,201.705069 C208.044547,181.59575 166.770609,159.258577 161.200973,137.800819 C146.309524,158.672299 124.969022,170.690988 114.885049,160.665643 Z" id="Path-empty-users" fill="#48484A"></path>
                    <path d="M158.269585,119.626216 C157.214286,128.303123 164.13236,146.008705 164.13236,146.008705 C164.13236,146.008705 145.840502,170.866871 127.783154,169.459805 C121.334101,168.990783 109.784434,158.730927 113.126216,158.90681 C125.086278,159.610343 148.068356,134.576293 158.269585,119.626216 Z" id="Path-empty-users" fill="#2C2C2E"></path>
                    <path d="M184.47619,31.2155658 L249.728879,29.749872 C251.487711,29.8671275 252.367127,31.5673323 251.78085,33.5020481 L237.123912,78.4109063 C236.479007,80.4042499 234.485663,82.0458269 232.668203,82.1044547 L167.122376,84.9772145 C164.894521,85.0358423 163.663338,83.218382 164.425499,80.9905274 L179.258321,34.9677419 C179.961854,32.7398874 182.306964,31.0983103 184.47619,31.2155658 Z" id="Path-empty-users" fill="#3945D8"></path>
                    <path d="M212.500256,52.7905786 C214.610855,52.7905786 216.31106,54.4907834 216.31106,56.6013825 C216.31106,58.7119816 214.610855,60.4121864 212.500256,60.4121864 C210.389657,60.4121864 208.689452,58.7119816 208.689452,56.6013825 C208.689452,54.5494112 210.389657,52.7905786 212.500256,52.7905786 Z" id="Path-empty-users" fill="#202CBF" fill-rule="nonzero"></path>
                    <g>
                        <path d="M25.1756387,33.8881781 C26.3595974,35.0721368 26.3595974,36.991889 25.1756387,38.1758477 C23.99168,39.3598065 22.0719277,39.3598065 20.887969,38.1758477 C19.7040103,36.991889 19.7040103,35.0721368 20.887969,33.8881781 C22.0719277,32.7039406 23.99168,32.7039406 25.1756387,33.8881781" id="Fill-empty-users-27" fill="#0A84FF"></path>
                        <g id="Group-empty-users-31" transform="translate(220.419617, 5.000000)">
                            <mask id="mask-2" fill="white">
                                <use xlink:href="#path-1"></use>
                            </mask>
                            <use id="Combined-Shape" fill="#10AA80" xlink:href="#path-1"></use>
                        </g>
                        <g id="Group-empty-users-34" transform="translate(0.000000, 0.345806)" fill="#FFD60A">
                            <path d="M-2.78709677e-05,0.220459355 L2.26030761,8.65616516 L8.43567794,2.48079484 L-2.78709677e-05,0.220459355 Z M1.38543794,1.60592516 L6.54296052,2.98776774 L2.76728052,6.76344774 L1.38543794,1.60592516 Z" id="Fill-empty-users-32"></path>
                        </g>
                        <path d="M208.953486,14 C207.322477,14 206,15.3221987 206,16.9534865 C206,18.5844955 207.322477,19.9066942 208.953486,19.9066942 C210.584774,19.9066942 211.906694,18.5844955 211.906694,16.9534865 C211.906694,15.3221987 210.584774,14 208.953486,14 M208.953486,14.7173987 C210.186219,14.7173987 211.189295,15.7204748 211.189295,16.9534865 C211.189295,18.1862194 210.186219,19.1892955 208.953486,19.1892955 C207.720475,19.1892955 206.717677,18.1862194 206.717677,16.9534865 C206.717677,15.7204748 207.720475,14.7173987 208.953486,14.7173987" id="Fill-empty-users-35" fill="#FF453A"></path>
                        <path d="M57.845151,11.9157058 L62.6041187,11.9157058 L62.6041187,7.15673806 L57.845151,7.15673806 L57.845151,11.9157058 Z M58.4903639,11.2707716 L61.9589058,11.2707716 L61.9589058,7.80222968 L58.4903639,7.80222968 L58.4903639,11.2707716 Z" id="Fill-empty-users-37" fill="#FFD60A"></path>
                        <path d="M149.105105,36 L146,39.1048258 L149.105105,42.2099303 L152.20993,39.1048258 L149.105105,36 Z M149.105105,36.9389729 L151.270957,39.1048258 L149.105105,41.2709574 L146.939252,39.1048258 L149.105105,36.9389729 Z" id="Fill-empty-users-39" fill="#FFD60A"></path>
                    </g>
                </g>
            </g>
        </g>
    </g>
</svg>