<?xml version="1.0" encoding="UTF-8"?>
<svg width="263px" height="292px" viewBox="0 0 263 292" version="1.1" xmlns="http://www.w3.org/2000/svg" xmlns:xlink="http://www.w3.org/1999/xlink">
    <title>3CE2DCCA-3C59-44E7-982E-7DC1BC07D3F1</title>
    <defs>
        <path d="M0.201233604,39.3026596 C-0.799891557,40.8252506 2.1825807,55.7013796 3.68789167,55.174897 C26.1761394,47.3127757 31.8944259,14.5025151 20.3488775,0.203036363 C19.7920155,-0.489557185 18.8998659,0.763521525 19.1855433,1.36414088 C28.2458375,20.3155628 9.09597425,37.4796196 0.201233604,39.3026596" id="path-Fill-error-4031"></path>
        <path d="M0.211469198,4.09603716 C11.2319286,19.6363314 35.1198563,87.5433868 37.407784,99.3297404 C37.6544421,100.581704 39.2868447,100.465761 39.3467673,99.3297404 C40.1330073,84.1445223 30.3463956,12.2477378 23.8491156,0.999015226 C22.572904,-1.20975897 -1.68877338,1.41652232 0.211469198,4.09603716" id="path-Fill-error-4033"></path>
        <path d="M35.6239095,33.9717465 C40.393747,36.5617955 41.4336128,51.3651813 39.4982528,51.7799013 C4.91790697,59.1810368 -4.59724142,15.1691555 1.91425277,0.29163295 C2.17874826,-0.314839308 3.44409019,0.128309079 3.46192761,0.678760692 C4.37860374,25.9421207 15.9453341,35.5550962 35.6239095,33.9717465" id="path-Fill-error-4035"></path>
        <polygon id="path-Fill-error-4037" points="0.0156077419 0.0236903226 6.24142452 0.0236903226 6.24142452 6.24973006 0.0156077419 6.24973006"></polygon>
    </defs>
    <g id="Workspace---Normal-user---Em-análise" stroke="none" stroke-width="1" fill="none" fill-rule="evenodd">
        <g id="Error-403" transform="translate(-834.000000, -206.000000)">
            <g id="illustration/workspaces" transform="translate(834.000000, 209.000000)">
                <g id="Group-error-403">
                    <g id="illustration/circles">
                        <g id="Rectangle-2" transform="translate(123.132636, 44.037870) rotate(-5.000000) translate(-123.132636, -44.037870) translate(83.132636, 4.037870)" stroke="#0062FF" stroke-width="5.5">
                            <polygon id="Rectangle" opacity="0.4" transform="translate(40.500000, 39.500000) rotate(12.000000) translate(-40.500000, -39.500000) " points="7.44827586 6.44827586 73.5517241 6.44827586 73.5517241 72.5517241 7.44827586 72.5517241"></polygon>
                            <polygon id="Rectangle-Copy" opacity="0.4" transform="translate(40.500000, 39.500000) rotate(8.000000) translate(-40.500000, -39.500000) " points="7.44827586 6.44827586 73.5517241 6.44827586 73.5517241 72.5517241 7.44827586 72.5517241"></polygon>
                            <polygon id="Rectangle-Copy-2" opacity="0.4" transform="translate(39.756319, 40.788094) rotate(-15.000000) translate(-39.756319, -40.788094) " points="7.75631873 8.78809374 71.7563187 8.78809374 71.7563187 72.7880937 7.75631873 72.7880937"></polygon>
                            <polygon id="Rectangle-Copy-3" opacity="0.4" transform="translate(40.500000, 39.500000) rotate(-8.000000) translate(-40.500000, -39.500000) " points="7.44827586 6.44827586 73.5517241 6.44827586 73.5517241 72.5517241 7.44827586 72.5517241"></polygon>
                            <rect id="Rectangle-Copy-6" opacity="0.4" x="5.91284426" y="4.9961947" width="69" height="69"></rect>
                            <polygon id="Rectangle-Copy-4" opacity="0.4" transform="translate(40.500000, 39.500000) rotate(4.000000) translate(-40.500000, -39.500000) " points="7.44827586 6.44827586 73.5517241 6.44827586 73.5517241 72.5517241 7.44827586 72.5517241"></polygon>
                            <rect id="Rectangle-Copy-5" x="1.91664956" y="1.90903896" width="76" height="76"></rect>
                        </g>
                        <g id="cards" transform="translate(0.000000, 121.000000)">
                            <g id="card-built" transform="translate(166.000000, 32.000000)">
                                <path d="M2.1,0.7 L79.9,0.6 C80.9,0.6 81.7,1.3 81.7,2.2 L81.7,26.7 C81.7,27.6 80.9,28.3 79.9,28.3 L2.1,28.4 C1.1,28.4 0.3,27.7 0.3,26.8 L0.3,2.3 C0.3,1.4 1.1,0.7 2.1,0.7 Z" id="bg-card-built" fill="#3945D8"></path>
                                <path d="M18.7,17.3 C20.7,17.3 22.3,18.9 22.3,20.9 C22.3,22.9 20.7,24.5 18.7,24.5 C16.7,24.5 15.1,22.9 15.1,20.9 C15.1,18.9 16.7,17.3 18.7,17.3 Z M27.9,17.3 C29.9,17.3 31.5,18.9 31.5,20.9 C31.5,22.9 29.9,24.5 27.9,24.5 C25.9,24.5 24.3,22.9 24.3,20.9 C24.3,18.9 25.9,17.3 27.9,17.3 Z M8.6,17 C10.6,17 12.2,18.6 12.2,20.6 C12.2,22.6 10.6,24.2 8.6,24.2 C6.6,24.2 5,22.6 5,20.6 C5,18.6 6.6,17 8.6,17 Z M32.2,11 C33.0526316,11 33.8155125,11.6282548 33.8934539,12.5446567 L33.9,12.7 C33.9,13.6 33.2,14.4 32.2,14.4 L6.7,14.4 C5.84736842,14.4 5.08448753,13.7717452 5.00654614,12.8553433 L5,12.7 C5,11.8 5.7,11 6.7,11 L32.2,11 Z M7,4 C8.1045695,4 9,4.8954305 9,6 C9,7.1045695 8.1045695,8 7,8 C5.8954305,8 5,7.1045695 5,6 C5,4.8954305 5.8954305,4 7,4 Z M77.5,2.9 C78.35,2.9 79.0216049,3.52438272 79.0936043,4.35193759 L79.1,4.5 C79.2,5.4 78.4,6.1 77.5,6.1 L61.6,6.1 C60.75,6.1 60.0783951,5.47561728 60.0063957,4.64806241 L60,4.5 C60,3.6 60.7,2.9 61.6,2.9 L77.5,2.9 Z" id="elements-card-built" fill="#26329E" fill-rule="nonzero"></path>
                            </g>
                            <g id="card-feature" transform="translate(26.000000, 36.000000)">
                                <path d="M2.1,0.7 L79.9,0.6 C80.9,0.6 81.7,1.3 81.7,2.2 L81.7,26.7 C81.7,27.6 80.9,28.3 79.9,28.3 L2.1,28.4 C1.1,28.4 0.3,27.7 0.3,26.8 L0.3,2.3 C0.3,1.4 1.1,0.7 2.1,0.7 Z" id="bg-card-feature" fill="#0A84FF"></path>
                                <path d="M9.6,17.3 C11.6,17.3 13.2,18.9 13.2,20.9 C13.2,22.9 11.6,24.5 9.6,24.5 C7.6,24.5 6,22.9 6,20.9 C6,18.9 7.6,17.3 9.6,17.3 Z M18.7,17.3 C20.7,17.3 22.3,18.9 22.3,20.9 C22.3,22.9 20.7,24.5 18.7,24.5 C16.7,24.5 15.1,22.9 15.1,20.9 C15.1,18.9 16.7,17.3 18.7,17.3 Z M27.9,17.3 C29.9,17.3 31.5,18.9 31.5,20.9 C31.5,22.9 29.9,24.5 27.9,24.5 C25.9,24.5 24.3,22.9 24.3,20.9 C24.3,18.9 25.9,17.3 27.9,17.3 Z M32.6,10.7 C33.4526316,10.7 34.2155125,11.3282548 34.2934539,12.2446567 L34.3,12.4 C34.3,13.3 33.6,14.1 32.6,14.1 L7.1,14.1 C6.24736842,14.1 5.48448753,13.4717452 5.40654614,12.5553433 L5.4,12.4 C5.4,11.5 6.1,10.7 7.1,10.7 L32.6,10.7 Z M8,3.5 C9.1045695,3.5 10,4.3954305 10,5.5 C10,6.6045695 9.1045695,7.5 8,7.5 C6.8954305,7.5 6,6.6045695 6,5.5 C6,4.3954305 6.8954305,3.5 8,3.5 Z M77.5,2.9 C78.35,2.9 79.0216049,3.52438272 79.0936043,4.35193759 L79.1,4.5 C79.2,5.4 78.4,6.1 77.5,6.1 L61.6,6.1 C60.75,6.1 60.0783951,5.47561728 60.0063957,4.64806241 L60,4.5 C60,3.6 60.7,2.9 61.6,2.9 L77.5,2.9 Z" id="elements-card-feature" fill="#48A2FC"></path>
                            </g>
                            <g id="card-action">
                                <path d="M2.1,0.7 L79.9,0.6 C80.9,0.6 81.7,1.3 81.7,2.2 L81.7,26.7 C81.7,27.6 80.9,28.3 79.9,28.3 L2.1,28.4 C1.1,28.4 0.3,27.7 0.3,26.8 L0.3,2.3 C0.3,1.4 1.1,0.7 2.1,0.7 Z" id="bg-card-action" fill="#2C2C2E"></path>
                                <path d="M9.6,17.3 C11.6,17.3 13.2,18.9 13.2,20.9 C13.2,22.9 11.6,24.5 9.6,24.5 C7.6,24.5 6,22.9 6,20.9 C6,18.9 7.6,17.3 9.6,17.3 Z M18.7,17.3 C20.7,17.3 22.3,18.9 22.3,20.9 C22.3,22.9 20.7,24.5 18.7,24.5 C16.7,24.5 15.1,22.9 15.1,20.9 C15.1,18.9 16.7,17.3 18.7,17.3 Z M27.9,17.3 C29.9,17.3 31.5,18.9 31.5,20.9 C31.5,22.9 29.9,24.5 27.9,24.5 C25.9,24.5 24.3,22.9 24.3,20.9 C24.3,18.9 25.9,17.3 27.9,17.3 Z M32.6,10.7 C33.4526316,10.7 34.2155125,11.3282548 34.2934539,12.2446567 L34.3,12.4 C34.3,13.3 33.6,14.1 32.6,14.1 L7.1,14.1 C6.24736842,14.1 5.48448753,13.4717452 5.40654614,12.5553433 L5.4,12.4 C5.4,11.5 6.1,10.7 7.1,10.7 L32.6,10.7 Z M8,3.5 C9.1045695,3.5 10,4.3954305 10,5.5 C10,6.6045695 9.1045695,7.5 8,7.5 C6.8954305,7.5 6,6.6045695 6,5.5 C6,4.3954305 6.8954305,3.5 8,3.5 Z M77.5,2.9 C78.35,2.9 79.0216049,3.52438272 79.0936043,4.35193759 L79.1,4.5 C79.2,5.4 78.4,6.1 77.5,6.1 L61.6,6.1 C60.75,6.1 60.0783951,5.47561728 60.0063957,4.64806241 L60,4.5 C60,3.6 60.7,2.9 61.6,2.9 L77.5,2.9 Z" id="elements-card-action" fill="#3A3A3C"></path>
                            </g>
                            <g id="card-release" transform="translate(181.000000, 7.000000)" fill-rule="nonzero">
                                <path d="M2.3,0.6 L80.1,0.5 C81.1,0.5 81.9,1.3 81.9,2.3 L81.9,16.5 C81.9,17.5 81.1,18.3 80.1,18.3 L2.3,18.4 C1.3,18.4 0.5,17.6 0.5,16.6 L0.5,2.4 C0.5,1.5 1.3,0.6 2.3,0.6 Z" id="bg-release" fill="#0AC5AB"></path>
                                <path d="M32.8,10.6 C33.6526316,10.6 34.4155125,11.2282548 34.4934539,12.1446567 L34.5,12.3 C34.5,13.3 33.7,14 32.8,14 L7.3,14 C6.44736842,14 5.68448753,13.3717452 5.60654614,12.4553433 L5.6,12.3 C5.6,11.4 6.3,10.6 7.3,10.6 L32.8,10.6 Z M8,3.4 C9.2,3.4 10.1,4.3 10.1,5.5 C10.2,6.6 9.2,7.6 8,7.6 C6.8,7.6 5.9,6.7 5.9,5.5 C5.9,4.3 6.8,3.4 8,3.4 Z M77.7,2.9 C78.55,2.9 79.2216049,3.52438272 79.2936043,4.35193759 L79.3,4.5 C79.3,5.3 78.6,6.1 77.7,6.1 L61.8,6.1 C60.95,6.1 60.2783951,5.47561728 60.2063957,4.64806241 L60.2,4.5 C60.2,3.6 60.9,2.9 61.8,2.9 L77.7,2.9 Z" id="elements-card-card-release" fill="#0BA88E"></path>
                            </g>
                        </g>
                    </g>
                    <g id="Group-error-403-40" transform="translate(67.000000, 71.000000)">
                        <path d="M32.5152355,215.239335 C41.3573407,214.139335 49.966759,212.339335 58.9252078,211.839335 C64.8587258,211.439335 70.0941828,210.939335 75.5623269,210.039335 C81.9612188,209.039335 92.0831025,208.139335 98.4819945,207.339335 C104.066482,206.639335 105.34626,207.239335 110,207.239335 C105.113573,207.839335 99.4127424,208.939335 94.6426593,209.339335 C87.5457064,210.039335 80.2160665,210.239335 73.1191136,211.039335 C71.1412742,211.239335 68.9307479,211.439335 67.0692521,212.139335 C64.8587258,212.939335 62.8808864,213.639335 60.4376731,213.739335 C57.7617729,213.839335 55.2022161,213.539335 52.5263158,213.739335 C49.966759,213.939335 47.5235457,214.239335 44.9639889,214.639335 C38.6814404,215.539335 32.398892,215.839335 26,216.439335" id="Path" fill="#000000" fill-rule="nonzero" transform="translate(68.000000, 211.719668) rotate(-1.000000) translate(-68.000000, -211.719668) "></path>
                        <path d="M98.047807,10.1315148 C98.0547747,9.01779097 102.683585,-0.732309677 103.201985,0.491504516 C103.716762,1.71504 101.404029,10.8087794 100.258253,11.4977497 C99.1091334,12.1864413 98.037216,11.4141368 98.047807,10.1315148" id="Fill-error-403-1" fill="#FFAEA9"></path>
                        <g id="Fill-error-403-3-Copy" transform="translate(79.243120, 10.143921)">
                            <mask id="mask-2" fill="white">
                                <use xlink:href="#path-Fill-error-4031"></use>
                            </mask>
                            <use id="Mask" fill="#3A3A3C" xlink:href="#path-Fill-error-4031"></use>
                            <path d="M2.97997265,48.4305916 C1.87009776,50.1185778 5.17654853,66.6106636 6.84537767,66.0269905 C31.7764676,57.3108266 38.1159172,20.9364693 25.3162047,5.08367398 C24.6988523,4.31584573 23.7097906,5.70504324 24.0265005,6.37090638 C34.0709918,27.3809739 12.8409267,46.4095193 2.97997265,48.4305916" fill="#2C2C2E" mask="url(#mask-2)"></path>
                        </g>
                        <path d="M100.367591,197.329685 C101.456789,197.975455 108.983622,205.70491 108.503963,206.233344 C108.024861,206.762056 97.6248093,202.05019 98.428608,198.103661 C98.7176299,196.698129 99.923328,197.06491 100.367591,197.329685" id="Fill-error-403-5" fill="#3A3A3C"></path>
                        <g id="Fill-error-403-11" transform="translate(61.020824, 98.000000)">
                            <mask id="mask-4" fill="white">
                                <use xlink:href="#path-Fill-error-4033"></use>
                            </mask>
                            <use id="Mask" fill="#2C2C2E" xlink:href="#path-Fill-error-4033"></use>
                            <path d="M35.113291,0.461586973 C35.7515361,9.24512246 -9.66587807,101.891564 -14.9081284,104.211543 C-16.3078084,104.832508 -17.478389,103.843646 -16.8437671,102.663311 C-12.23586,94.072085 10.5344419,11.8187276 11.4405271,0.848714715 C13.2772239,0.0736231025 34.8841916,-2.66135496 35.113291,0.461586973" fill="#1C1C1E" opacity="0.29796782" mask="url(#mask-4)" transform="translate(9.049565, 51.701469) rotate(-13.000000) translate(-9.049565, -51.701469) "></path>
                        </g>
                        <g id="Fill-error-403-11" transform="translate(35.362405, 96.763256)"></g>
                        <path d="M84.517344,98.2248434 C85.1555892,107.008379 39.738175,199.65482 34.4959246,201.974799 C33.0962446,202.595765 31.925664,201.606903 32.5602859,200.426567 C37.168193,191.835341 59.938495,109.581984 60.8445801,98.6119711 C62.6812769,97.8368795 84.2882446,95.1019014 84.517344,98.2248434" id="Fill-error-403-11-Copy" fill="#48484A"></path>
                        <path d="M32.0068243,199.970097 C30.9351855,201.083542 25.248672,214.580058 26.5566565,215.889993 C27.8610178,217.199929 36.5826797,203.18334 36.3959443,201.59358 C36.212832,200.003542 33.078463,198.857209 32.0068243,199.970097" id="Fill-error-403-9" fill="#3A3A3C"></path>
                        <path d="M20.161663,19.6377166 C16.3717688,19.419487 14.7677946,9.98990245 15.5116707,9.18526761 C16.2555468,8.38119019 22.4565585,19.0797399 21.7093378,19.2505889 C20.9654617,19.4219954 20.161663,19.6377166 20.161663,19.6377166" id="Fill-error-403-15" fill="#FFAEA9"></path>
                        <g id="Fill-error-403-17-Copy" transform="translate(18.247410, 18.571940)">
                            <mask id="mask-6" fill="white">
                                <use xlink:href="#path-Fill-error-4035"></use>
                            </mask>
                            <use id="Mask" fill="#3A3A3C" xlink:href="#path-Fill-error-4035"></use>
                            <path d="M36.8330152,47.2688494 C42.1435904,50.1525222 43.3013417,66.6341099 41.1465775,67.095845 C2.64599328,75.3360183 -7.94785024,26.3346823 -0.698173435,9.7705532 C-0.403693133,9.09532756 1.00509566,9.58871395 1.02495524,10.2015681 C2.04555136,38.3289363 14.9235566,49.0316972 36.8330152,47.2688494" fill="#2C2C2E" mask="url(#mask-6)"></path>
                        </g>
                        <path d="M52.7079019,52.9307303 C57.5800258,51.4675045 62.7835355,46.3495587 62.7835355,46.3495587 L68.2088981,45.5753032 C68.2088981,45.5753032 74.5863329,48.9451819 79.8322065,49.4465806 C83.8548232,55.4733987 86.7631587,94.3768103 84.4821987,98.9989316 C80.3926916,103.113801 63.562529,100.888862 60.8445523,98.9989316 C60.3791071,91.1814039 56.3743277,58.875329 52.7079019,52.9307303" id="Fill-error-403-13" fill="#3A3A3C"></path>
                        <path d="M62.783424,20.4123345 C70.1937569,17.3434622 71.8860821,35.8815577 70.5323892,36.6716996 C69.1784175,37.4612841 66.6577672,36.6716996 66.6577672,36.6716996 C66.6577672,36.6716996 67.5674756,45.3863938 70.9200743,47.1241486 C69.2843272,48.9262854 64.2148769,48.5341409 61.6200898,47.1241486 C66.5908769,42.9529796 55.2356872,23.5366699 62.783424,20.4123345" id="Fill-error-403-19" fill="#FFAEA9"></path>
                        <path d="M67,36.8611926 C67,38.0490456 67,39.3937201 67,39.3937201 C67,39.3937201 63.1695767,38.0169244 62,32.2488007 C62.8837116,33.6043662 67,35.5949289 67,36.8611926 Z" id="Fill-error-403-21" fill="#FF887D"></path>
                        <path d="M68.2090095,23.5093006 C69.2524986,21.1455639 71.5264908,10.4294555 60.4566999,9.18529548 C63.5096857,14.8784981 54.5480547,17.9490426 53.4836625,23.1218942 C52.4189915,28.2966968 57.0971334,33.4319226 59.6846741,33.9617497 C62.6565554,34.5707303 62.5121837,32.8159742 62.3956831,32.026111 C62.2794612,31.24656 59.8538508,25.6442168 61.2853037,24.6205161 C62.6423412,23.6506065 65.5297734,23.9914684 68.2090095,23.5093006" id="Fill-error-403-23" fill="#0B0B0B"></path>
                        <path d="M62.0078586,29.3159381 C61.6519463,28.8747406 59.3498044,28.1303071 59.2968495,29.3159381 C59.1803489,31.8151277 62.3250302,32.9316387 62.7835076,32.41296 C63.2417063,31.8942813 62.3640495,29.7576929 62.0078586,29.3159381" id="Fill-error-403-25" fill="#FFAEA9"></path>
                        <path d="M16.544959,60.1217745 C17.7289177,61.3057332 17.7289177,63.2254854 16.544959,64.4094441 C15.3610003,65.5934028 13.441248,65.5934028 12.2572893,64.4094441 C11.0733306,63.2254854 11.0733306,61.3057332 12.2572893,60.1217745 C13.441248,58.937537 15.3610003,58.937537 16.544959,60.1217745" id="Fill-error-403-27" fill="#0A84FF"></path>
                        <g id="Group-error-403-31" transform="translate(113.156129, 0.255019)">
                            <mask id="mask-8" fill="white">
                                <use xlink:href="#path-Fill-error-4037"></use>
                            </mask>
                            <g id="Clip-30"></g>
                            <polygon id="Fill-error-403-29" fill="#0A84FF" mask="url(#mask-8)" points="5.66059355 6.24973006 0.0156077419 5.6688991 0.59643871 0.0236345806 6.24142452 0.604744258"></polygon>
                        </g>
                        <g id="Group-error-403-34" transform="translate(0.000000, 20.600826)" fill="#FFD60A">
                            <path d="M-2.78709677e-05,0.220459355 L2.26030761,8.65616516 L8.43567794,2.48079484 L-2.78709677e-05,0.220459355 Z M1.38543794,1.60592516 L6.54296052,2.98776774 L2.76728052,6.76344774 L1.38543794,1.60592516 Z" id="Fill-error-403-32"></path>
                        </g>
                        <path d="M112.539763,24.0584145 C110.908754,24.0584145 109.586276,25.3806132 109.586276,27.0119009 C109.586276,28.6429099 110.908754,29.9651086 112.539763,29.9651086 C114.17105,29.9651086 115.49297,28.6429099 115.49297,27.0119009 C115.49297,25.3806132 114.17105,24.0584145 112.539763,24.0584145 M112.539763,24.7758132 C113.772495,24.7758132 114.775572,25.7788893 114.775572,27.0119009 C114.775572,28.2446338 113.772495,29.2477099 112.539763,29.2477099 C111.306751,29.2477099 110.303954,28.2446338 110.303954,27.0119009 C110.303954,25.7788893 111.306751,24.7758132 112.539763,24.7758132" id="Fill-error-403-35" fill="#0A84FF"></path>
                        <path d="M37.845151,42.1707252 L42.6041187,42.1707252 L42.6041187,37.4117574 L37.845151,37.4117574 L37.845151,42.1707252 Z M38.4903639,41.525791 L41.9589058,41.525791 L41.9589058,38.057249 L38.4903639,38.057249 L38.4903639,41.525791 Z" id="Fill-error-403-37" fill="#FFD60A"></path>
                        <path d="M105.841617,52.175009 L102.736512,55.2798348 L105.841617,58.3849394 L108.946442,55.2798348 L105.841617,52.175009 Z M105.841617,53.1139819 L108.007469,55.2798348 L105.841617,57.4459665 L103.675764,55.2798348 L105.841617,53.1139819 Z" id="Fill-error-403-39" fill="#FFD60A"></path>
                    </g>
                </g>
            </g>
        </g>
    </g>
</svg>