<?xml version="1.0" encoding="UTF-8"?>
<svg width="16px" height="16px" viewBox="0 0 24 24" version="1.1" xmlns="http://www.w3.org/2000/svg" xmlns:xlink="http://www.w3.org/1999/xlink">
    <title>Icon/logos/GCP</title>
    <defs>
        <path d="M12,3 C7.038,3 3,7.038 3,12 C3,16.963 7.038,21 12,21 C16.963,21 21,16.963 21,12 C21,7.038 16.963,3 12,3 M12,23 C5.935,23 1,18.065 1,12 C1,5.935 5.935,1 12,1 C18.065,1 23,5.935 23,12 C23,18.065 18.065,23 12,23" id="path-gcp"></path>
        <polygon id="path-3" points="0.0187581526 0.0577304341 5.4947327 0.0577304341 5.4947327 9.57598594 0.0187581526 9.57598594"></polygon>
        <polygon id="path-5" points="0 0.00806992941 8.51054713 0.00806992941 8.51054713 8.06177701 0 8.06177701"></polygon>
    </defs>
    <g id="Icon/logos/GCP" stroke="none" stroke-width="1" fill="none" fill-rule="evenodd">
        <mask id="mask-gcp-2" fill="white">
            <use xlink:href="#path-gcp"></use>
        </mask>
        <use id="icon-card-git-copy" fill="#98989E" xlink:href="#path-gcp"></use>
        <g id="Group-13" transform="translate(5.000000, 6.000000)">
            <g id="Group-3" transform="translate(8.064000, 2.520000)">
                <mask id="mask-gcp-4" fill="white">
                    <use xlink:href="#path-3"></use>
                </mask>
                <g id="Clip-2"></g>
                <path d="M1.20105902,9.5710777 C1.42230463,9.56856692 1.64326446,9.56611453 1.86342413,9.56605614 C2.09632929,9.56167687 2.27630925,9.44355341 2.40862224,9.20491248 C2.68730826,8.70234765 2.97050949,8.19890697 3.2107876,7.77271658 C3.60343997,7.07617936 3.99643527,6.3798757 4.38937341,5.68357204 C4.7193843,5.09891053 5.04933803,4.51424902 5.37917745,3.92947073 C5.55024129,3.62613341 5.49834487,3.44138668 5.43301712,3.31427112 C5.04133638,2.58853878 4.62662232,1.85807682 4.22551106,1.15173004 C4.0220977,0.793564288 3.81262595,0.424596337 3.60698355,0.0577304341 C3.30606438,0.0603579951 3.00331626,0.0598908732 2.70925564,0.0595405317 C2.29888533,0.0591318 1.87839865,0.0583727268 1.460141,0.0661386293 C2.06295098,1.15657643 2.67519147,2.23609526 3.30006314,3.33494126 C3.38276591,3.48068331 3.38156566,3.64312497 3.29691964,3.79248721 C3.00383065,4.30281795 2.71028442,4.82459317 2.42639733,5.32926004 C2.02368574,6.04524121 1.60714273,6.78557112 1.18591304,7.50406307 L1.14070372,7.57827707 L0.0187581526,9.57037702 C0.412439307,9.57983624 0.811550153,9.57539858 1.20105902,9.5710777" id="Fill-1" fill="#98989E" mask="url(#mask-gcp-4)"></path>
            </g>
            <path d="M11.0018541,1.95569256 C11.1960436,1.9559313 11.393875,1.95622972 11.592,1.95569256 C11.5885932,1.94954513 11.5852451,1.94345739 11.5818382,1.93736965 C11.3776631,1.56935954 11.1665569,1.18887552 10.9501642,0.822297827 C10.9054054,0.746499443 10.8672841,0.670522007 10.8303376,0.59705129 C10.7517455,0.440679821 10.6839025,0.30567514 10.577762,0.215612335 L10.558672,0.199378351 C10.558672,0.199378351 10.3236004,0.00278002231 10.1788687,0.00260097101 C8.15679511,-0.000383217338 5.98963741,-0.00217373035 3.84221584,0.00510768922 C3.63727714,0.00582389443 3.47251559,0.111941632 3.35268901,0.320536398 C2.98181399,0.966135705 2.49422554,1.81871832 2.01174733,2.68735586 C1.9502481,2.79800957 1.88563573,2.90687276 1.82313794,3.01209524 C1.70947891,3.20350108 1.60093012,3.38631246 1.512,3.5758681 C1.67781884,3.86366322 1.84222796,4.15533779 2.00187926,4.43871632 C2.20711165,4.80296635 2.41751303,5.17628831 2.63243728,5.544 C2.64565344,5.51881345 2.65881087,5.4932688 2.67208578,5.46748541 C2.70862114,5.39670046 2.74639001,5.32352816 2.78850552,5.25071397 C2.94533737,4.97473623 3.10446003,4.6972664 3.26364142,4.41979657 C3.67704312,3.69893603 4.53069004,2.11994229 4.55019123,2.09039882 C4.584612,2.0382949 4.65069283,1.97258307 4.76987329,1.95557319 C4.76987329,1.95557319 10.4186981,1.95485699 11.0018541,1.95569256" id="Fill-4" fill="#98989E"></path>
            <g id="Group-8" transform="translate(0.000000, 4.032000)">
                <mask id="mask-gcp-6" fill="white">
                    <use xlink:href="#path-5"></use>
                </mask>
                <g id="Clip-7"></g>
                <path d="M3.18071932,7.69377346 C3.18249201,7.70059228 3.18402834,7.70610664 3.18532831,7.71067228 L3.187101,7.71197675 L3.25534956,7.79629299 C3.38422409,7.97957111 3.56474299,8.06133769 3.84051441,8.06139699 C5.03749356,8.06187134 6.23453179,8.06204922 7.43139276,8.06104122 L8.51054713,6.17898664 L8.29167905,6.17880875 C7.17340732,6.17768216 6.01702277,6.17655558 4.87948782,6.17252358 C4.87481974,6.17311652 4.87003347,6.17394664 4.86518812,6.17465816 C4.57948964,6.21776499 4.45705587,6.0694704 4.40552969,5.95378758 C4.30814994,5.84118805 4.25260567,5.71607746 4.20663391,5.61249064 C4.17679364,5.54536969 4.15061692,5.48631275 4.11959485,5.44213864 C4.05666437,5.37916828 4.0039564,5.29307322 3.95207568,5.20822334 C3.88158172,5.09289628 3.7863292,4.92918522 3.66082277,4.70778099 C3.43267761,4.30493675 3.14550189,3.78279275 2.89206636,3.32207746 C2.67367099,2.92504405 2.4851159,2.58214616 2.36924109,2.37858946 C2.35795496,2.35884452 2.3417644,2.33530475 2.3246284,2.31034193 C2.27694305,2.24102711 2.2143671,2.14995134 2.18198597,2.03011793 C1.88842856,1.54740452 1.60462095,1.04998616 1.32979496,0.568517929 C1.22455629,0.384053929 1.11724947,0.195972988 1.00899722,0.00806992941 C0.974666135,0.0686685176 0.940335046,0.129267106 0.906003956,0.189865694 C0.657413777,0.628938635 0.400314687,1.08295369 0.136065749,1.52475416 C-0.0466394648,1.83017816 -0.0453985821,2.09202099 0.140083846,2.40040969 C0.430982218,2.89587134 0.720344259,3.39898193 1.00019287,3.88549016 C1.31094536,4.42589675 1.63227491,4.98468452 1.95401808,5.52989393 L1.97062227,5.55805864 L1.9807266,5.58924734 C1.98557196,5.60424875 1.98982641,5.61966522 1.9939036,5.63508169 C1.99425814,5.63662334 1.99467176,5.63810569 1.99508539,5.63964734 C2.29236545,6.15461675 2.59053185,6.66928969 2.88869825,7.18390334 L3.09356208,7.53759275 L3.14697913,7.56469016 L3.18071932,7.69377346 Z" id="Fill-6" fill="#98989E" mask="url(#mask-gcp-6)"></path>
            </g>
            <path d="M8.99898544,6.06334809 C9.02973463,4.90548159 8.06186991,4.03723652 6.99621825,4.04810084 C5.86765509,4.05958437 5.0187174,4.9253526 5.00029049,6.02214248 C4.98101572,7.17060825 5.92372715,8.04228713 6.99293984,8.048 C8.07509659,8.05371437 9.03561315,7.15631013 8.99898544,6.06334809" id="Fill-9" fill="#98989E"></path>
            <path d="M4.57143124,2.00799078 C4.57393124,2.03069078 4.56673124,2.04979078 4.55003124,2.06529078 C4.54683124,2.04889078 4.54233124,2.03249078 4.54193124,2.01599078 C4.54193124,2.01359078 4.56113124,2.01069078 4.57143124,2.00799078" id="Fill-11" fill="#4B8AF3"></path>
        </g>
    </g>
</svg>