<?xml version="1.0" encoding="UTF-8"?>
<svg width="22px" height="22px" viewBox="0 0 23 23" version="1.1" xmlns="http://www.w3.org/2000/svg" xmlns:xlink="http://www.w3.org/1999/xlink">
    <defs>
        <path d="M11,0 C17.065,0 22,4.935 22,11 C22,17.065 17.065,22 11,22 C4.935,22 0,17.065 0,11 C0,4.935 4.935,0 11,0 Z M11,2 C6.038,2 2,6.038 2,11 C2,15.963 6.038,20 11,20 C15.963,20 20,15.963 20,11 C20,6.038 15.963,2 11,2 Z M10.4413556,5.22635472 C10.7434173,4.92454843 11.2327495,4.92454843 11.5342888,5.22635472 L11.5342888,5.22635472 L16.7735516,10.4655867 C17.0754828,10.7672624 17.0754828,11.2569957 16.7735516,11.558802 L16.7735516,11.558802 L11.5588403,16.7737432 C11.256648,17.0754189 10.7674464,17.0754189 10.4657765,16.7737432 L10.4657765,16.7737432 L5.22625247,11.5345112 C4.92458251,11.2327049 4.92458251,10.7433634 5.22625247,10.4412959 L5.22625247,10.4412959 L8.81886743,6.84887375 L10.1793859,8.20967931 C10.0399125,8.54374271 10.1053396,8.94310388 10.377365,9.2150038 C10.4662988,9.30420055 10.568945,9.37080428 10.6785125,9.41559855 L10.6785125,9.41559855 L10.6785125,12.7102629 C10.568945,12.7551878 10.4660376,12.8223139 10.377365,12.9109883 C10.0182341,13.270126 10.0182341,13.8520597 10.377365,14.2117199 C10.7362347,14.570727 11.3185491,14.570727 11.67768,14.2117199 C12.0368109,13.8520597 12.0368109,13.270126 11.67768,12.9109883 C11.6046785,12.8382465 11.5220131,12.7803927 11.4345157,12.737035 L11.4345157,12.737035 L11.4345157,9.4726688 L12.6751498,10.7131959 C12.5382883,11.0459533 12.6050213,11.4429638 12.8752183,11.7132965 C13.234741,12.0726955 13.8166637,12.0726955 14.1760558,11.7132965 C14.5351867,11.3540282 14.5351867,10.7719639 14.1760558,10.4129567 C13.918918,10.1554223 13.5477726,10.0837253 13.2258607,10.1947316 L13.2258607,10.1947316 L11.8957704,8.86461595 C12.0067745,8.54269794 11.9348177,8.1718066 11.67768,7.91453338 C11.4221094,7.6589579 11.0542288,7.58621618 10.7334922,7.69461049 L10.7334922,7.69461049 L9.3535154,6.31447679 Z" id="path-git"></path>
    </defs>
    <g id="Workspaces-git" stroke="none" stroke-width="1" fill="none" fill-rule="evenodd">
        <g id="Settings---Workspace---5.0-git" transform="translate(-469.000000, -159.000000)">
            <rect fill="transparent" x="0" y="0" width="1920" height="1241"></rect>
            <g id="Icon/User/Group-git" transform="translate(470.000000, 160.000000)">
                <mask id="mask-git" fill="white">
                    <use xlink:href="#path-git"></use>
                </mask>
                <use id="icon-card-git" fill="currentColor" xlink:href="#path-git"></use>
            </g>
        </g>
    </g>
</svg>
