<?xml version="1.0" encoding="UTF-8"?>
<svg width="24px" height="25px" viewBox="0 0 24 25" version="1.1" xmlns="http://www.w3.org/2000/svg" xmlns:xlink="http://www.w3.org/1999/xlink">
    <defs>
        <path d="M11,0 C17.065,0 22,4.935 22,11 C22,17.065 17.065,22 11,22 C4.935,22 0,17.065 0,11 C0,4.935 4.935,0 11,0 Z M11,2 C6.038,2 2,6.038 2,11 C2,15.963 6.038,20 11,20 C15.963,20 20,15.963 20,11 C20,6.038 15.963,2 11,2 Z M11,10 C11.552,10 12,10.448 12,11 L12,11 L12,15 C12,15.553 11.552,16 11,16 C10.448,16 10,15.553 10,15 L10,15 L10,11 C10,10.448 10.448,10 11,10 Z M10.2901,6.2919 C10.5301,6.0619 10.8701,5.9519 11.2001,6.0219 C11.2601,6.0319 11.3201,6.0519 11.3801,6.0719 C11.4401,6.1019 11.5001,6.1319 11.5601,6.1719 C11.6101,6.2019 11.6601,6.2419 11.7101,6.2919 C11.8901,6.4819 12.0001,6.7319 12.0001,7.0019 C12.0001,7.1319 11.9801,7.2619 11.9201,7.3819 C11.8701,7.5019 11.8001,7.6119 11.7101,7.7119 L11.7101,7.7119 L11.5601,7.8319 C11.5001,7.8719 11.4401,7.9019 11.3801,7.9219 C11.3201,7.9519 11.2601,7.9719 11.2001,7.9819 C11.1301,7.9919 11.0601,8.0019 11.0001,8.0019 C10.7401,8.0019 10.4801,7.8919 10.2901,7.7119 C10.1101,7.5219 10.0001,7.2619 10.0001,7.0019 C10.0001,6.7419 10.1101,6.4819 10.2901,6.2919 Z" id="path-info"></path>
    </defs>
    <g id="Workspaces-info" stroke="none" stroke-width="1" fill="none" fill-rule="evenodd">
        <g id="Settings---Workspace---2.0---Add-git-info" transform="translate(-585.000000, -154.000000)">
            <rect fill="transparent" x="0" y="0" width="1920" height="1241"></rect>
            <g id="Group-info" transform="translate(513.000000, 156.000000)">
                <g id="Icon/Alert/Info-info" transform="translate(73.000000, 0.000000)">
                    <mask id="mask-info" fill="white">
                        <use xlink:href="#path-info"></use>
                    </mask>
                    <use id="Icon-Info" fill="currentColor" xlink:href="#path-info"></use>
                </g>
            </g>
        </g>
    </g>
</svg>