<?xml version="1.0" encoding="UTF-8"?>
<svg width="12px" height="12px" viewBox="0 0 12 12" version="1.1" xmlns="http://www.w3.org/2000/svg" xmlns:xlink="http://www.w3.org/1999/xlink">
    <!-- Generator: sketchtool 64 (101010) - https://sketch.com -->
    <title>85CDBB9B-D82E-41C5-BDBC-5D0400DECB3F</title>
    <desc>Created with sketchtool.</desc>
    <defs>
        <filter x="-8.6%" y="-18.5%" width="117.1%" height="137.1%" filterUnits="objectBoundingBox" id="filter-1">
            <feOffset dx="0" dy="2" in="SourceAlpha" result="shadowOffsetOuter1"></feOffset>
            <feGaussianBlur stdDeviation="5" in="shadowOffsetOuter1" result="shadowBlurOuter1"></feGaussianBlur>
            <feColorMatrix values="0 0 0 0 0   0 0 0 0 0   0 0 0 0 0  0 0 0 0.320886145 0" type="matrix" in="shadowBlurOuter1" result="shadowMatrixOuter1"></feColorMatrix>
            <feMerge>
                <feMergeNode in="shadowMatrixOuter1"></feMergeNode>
                <feMergeNode in="SourceGraphic"></feMergeNode>
            </feMerge>
        </filter>
        <path d="M6,0.5 C9.03250089,0.5 11.5,2.96803613 11.5,6 C11.5,9.03196387 9.03250089,11.5 6,11.5 C2.96749911,11.5 0.5,9.03196387 0.5,6 C0.5,2.96803613 2.96749911,0.5 6,0.5 Z M6,1.50026563 C3.51886291,1.50026563 1.49946865,3.51930228 1.49946865,6 C1.49946865,8.48167168 3.51886291,10.4997344 6,10.4997344 C8.48211123,10.4997344 10.5005313,8.48167168 10.5005313,6 C10.5005313,3.51930228 8.48211123,1.50026563 6,1.50026563 Z M6.81204392,3.55952718 C6.90263904,3.42804144 7.15396741,3.36473349 7.32639036,3.49037542 L7.32639036,3.49037542 L7.43841658,3.5712148 C7.67318456,3.75529485 7.84560751,3.97541172 7.92840949,4.24325305 C7.94594403,4.30266513 7.9712717,4.37571277 7.89139214,4.42051532 C7.814435,4.46239596 7.74916755,4.41856738 7.69266738,4.37863467 C7.44913213,4.21208606 7.28352816,3.99976094 7.22118314,3.73094563 C7.20170032,3.64523641 7.15494155,3.57998052 7.11402763,3.55660528 C7.12571732,3.64328847 7.13253631,3.73873738 7.15299327,3.83321233 C7.17637265,3.9452187 7.1987779,4.06014698 7.24553666,4.16533558 C7.27281261,4.22669559 7.26989019,4.27442005 7.25332979,4.32409244 L7.25332979,4.32409244 L6.83542331,4.08157429 C6.94744952,4.19455463 7.07213957,4.29292545 7.18903649,4.39714007 C7.33710592,4.53154772 7.47056323,4.67666903 7.51439957,4.86659288 C7.53583068,4.96301576 7.53680482,5.06236055 7.55239107,5.15975739 C7.56115834,5.19871613 7.57771874,5.23475297 7.60207226,5.26786789 C7.69948636,5.3974057 7.82027984,5.51622986 7.8952887,5.65550735 C8.03653914,5.91750487 7.98003897,6.17755445 7.82807297,6.42591642 C7.82027984,6.43955197 7.7930039,6.45026563 7.77352108,6.45318753 C7.68974495,6.46682309 7.60596883,6.48338056 7.52121856,6.48727643 C7.4627701,6.48922437 7.40432164,6.47364087 7.34587318,6.46682309 C7.35951116,6.39182752 7.42088204,6.346051 7.40237336,6.27008146 C7.3819164,6.2905348 7.37217499,6.30222242 7.36243358,6.31293607 C7.25332979,6.42883832 7.1227949,6.52623517 6.97375133,6.60025677 C6.7448282,6.71421109 6.51103436,6.69180981 6.27626638,6.60999646 C6.00350691,6.51357358 5.75217853,6.38403577 5.50961743,6.23599256 C5.51643642,6.25936781 5.5232554,6.28274305 5.5398158,6.29930051 C5.56904003,6.3304675 5.60021254,6.35968656 5.63528162,6.38598371 C5.78140276,6.49312024 5.92849805,6.59830884 6.08143819,6.71031521 L6.08143819,6.71031521 L5.60703153,6.7570657 C5.68496281,7.28885249 5.7609458,7.81479547 5.83790294,8.34463432 C5.77166135,8.35534797 5.71223875,8.36119178 5.65573858,8.3728794 C5.61190223,8.38164512 5.59729012,8.36606163 5.582678,8.33197273 C5.54566064,8.24723747 5.50864329,8.16152825 5.45798796,8.08361077 C5.23393553,7.73687799 4.86863266,7.58883478 4.44682961,7.67064813 L4.44682961,7.67064813 L4.51014878,7.67357004 C4.62607156,7.69499734 4.74686504,7.705711 4.85791711,7.74077386 C5.04884874,7.80115991 5.16964222,7.93459359 5.2641339,8.08653267 C5.39856536,8.30470161 5.49890188,8.52968833 5.46772937,8.7838941 C5.42876373,9.09166814 5.13846971,9.3000974 4.78972724,9.26113866 C4.68939072,9.250425 4.31044988,8.89784842 4.12828551,8.77123251 C4.10880269,8.7468833 4.09321644,8.72350806 4.07373362,8.70597662 C3.99385406,8.63682486 3.9139745,8.56669913 3.83214665,8.49949531 C3.76298264,8.44300514 3.72109458,8.37677528 3.71330145,8.29496193 C3.69674106,8.1040641 3.79025859,7.94628121 3.93637974,7.81771737 C4.10393199,7.67064813 4.28999292,7.54111032 4.46241587,7.39891093 C4.67770103,7.22262263 4.83453773,7.02490703 4.76342543,6.74440411 C4.7293305,6.60999646 4.69426142,6.47851071 4.56957138,6.36845228 L4.56957138,6.36845228 L4.56957138,6.45805738 C4.52865746,6.41617673 4.50430393,6.36942624 4.47605384,6.32559766 C4.44780375,6.28176908 4.41370882,6.24183637 4.38253631,6.2009297 L4.38253631,6.2009297 L4.36792419,6.20774748 C4.36110521,6.2379405 4.35526036,6.26813352 4.34844137,6.29832655 L4.34844137,6.29832655 L4.33382926,6.29832655 C4.31532058,6.24378431 4.29583776,6.18826811 4.27440666,6.12496016 L4.27440666,6.12496016 L4.24226001,6.21066938 C4.21888062,6.17463255 4.20426851,6.13664778 4.19550124,6.0957411 C4.18381155,6.03730299 4.18088913,5.97594298 4.16725115,5.91750487 C4.1399752,5.80744643 4.097113,5.69933593 4.0805526,5.58927749 C4.06594049,5.49577652 4.07763018,5.39935364 4.07763018,5.29513901 C4.2588204,5.37792633 4.43611406,5.3759784 4.61340772,5.31559235 C4.72640808,5.27760758 4.8267446,5.21916947 4.8530464,5.10813706 C4.8696068,5.03411546 4.87155508,4.95522401 4.86376196,4.88022844 C4.84525328,4.66692934 4.77121856,4.46531787 4.67964931,4.26857624 C4.62607156,4.15267399 4.5676231,4.03774571 4.51112292,3.92184346 C4.50235565,3.94619267 4.5082005,3.96469807 4.51404534,3.98320347 C4.57151966,4.18676288 4.63678711,4.38837436 4.68549416,4.59388171 C4.7507616,4.87048876 4.65821821,5.03995927 4.40299327,5.17144502 C4.28317393,5.23280503 4.16919943,5.23475297 4.04840595,5.18215867 C3.79025859,5.06723039 3.60419766,4.88802019 3.47074035,4.66400744 C3.40157634,4.55005313 3.40449876,4.44096866 3.48827488,4.33480609 C3.51165427,4.30558704 3.52821467,4.27442005 3.55743889,4.23059146 L3.55743889,4.23059146 L3.43177471,4.2695502 L3.4220333,4.25396671 L3.73862912,4.03190189 L3.64121502,4.02703205 L3.63926674,4.01339649 L3.84578463,3.9267133 L3.7191463,3.91989552 L3.71817216,3.90333806 C3.89059511,3.83905614 4.06204392,3.76990437 4.23836344,3.71244023 C4.40688983,3.657898 4.51696776,3.69101293 4.62120085,3.82055073 C4.72640808,3.95008854 4.87350337,4.0163184 5.04495218,4.0504073 C5.06638328,4.05430317 5.08976266,4.05235523 5.11021962,4.04358952 C5.285565,3.96469807 5.49208289,3.93547902 5.63138505,3.79814946 C5.65184201,3.77769612 5.68496281,3.76795644 5.71321289,3.75432088 C5.72587673,3.74945104 5.74048884,3.74945104 5.75802338,3.74652913 C5.73561814,3.78548787 5.71613532,3.81762883 5.6966525,3.85074376 L5.6966525,3.85074376 L5.70834219,3.85658757 L5.86323061,3.76698247 L5.86323061,3.76698247 L5.87199787,3.77477422 C5.85251505,3.80496724 5.83400638,3.83516026 5.80867871,3.87801488 L5.80867871,3.87801488 L6.03955012,3.77964406 L6.04831739,3.78938374 L5.98597237,3.87314503 C6.10579171,3.87314503 6.21294722,3.87217106 6.32010273,3.874119 C6.44187035,3.87704091 6.54805172,3.8400301 6.62987956,3.76406056 C6.69709529,3.70075261 6.76138859,3.63257482 6.81204392,3.55952718 Z M9.07633723,6.34449265 C9.14063053,7.02334868 9.20297556,7.69830884 9.26726886,8.38106074 L9.26726886,8.38106074 L6.075983,8.89044625 C5.98441374,8.20964229 5.89381863,7.53370816 5.8003011,6.84803435 C5.95324123,6.82952895 6.09838824,6.80420577 6.24256111,6.79836196 C6.30880269,6.79544006 6.37894084,6.83050292 6.44615657,6.84803435 C6.61370882,6.89088897 6.78320935,6.90257659 6.94199433,6.83050292 C7.02966702,6.79057021 7.10272759,6.72726226 7.1835813,6.67564193 C7.2098831,6.65908447 7.23910733,6.63863113 7.26833156,6.63278732 C7.84307474,6.53928635 8.41586964,6.44675934 8.98963868,6.35423234 C9.01496635,6.35033646 9.03931987,6.34838852 9.07633723,6.34449265 Z M8.90196599,6.69706924 L8.88930216,6.69706924 L8.44119731,7.52883832 L7.83235919,7.17236586 C7.67162593,7.41098814 7.51381509,7.6408447 7.36087496,7.87362316 C7.33262487,7.91550381 7.3072972,7.92134762 7.25664187,7.90673809 C7.08519306,7.85901364 6.91082182,7.81713299 6.73547644,7.77233044 L6.73547644,7.77233044 L6.72183847,7.78693997 L6.23866454,8.44339472 C6.22697485,8.45897822 6.22210414,8.47553568 6.22307829,8.49404108 C6.22697485,8.55637507 6.23574212,8.61870905 6.24450939,8.68786081 L6.24450939,8.68786081 L9.06269926,8.22814769 C9.0091215,7.71584027 8.95456961,7.20645475 8.90196599,6.69706924 L8.90196599,6.69706924 Z M7.53680482,5.68570037 C7.37412327,5.7188153 7.21046759,5.74706039 7.05070847,5.78796706 C6.94550124,5.81426421 6.91725115,5.9165309 7.00005313,5.97009917 C7.09941552,6.03438109 7.21241587,6.09087126 7.32833865,6.12885603 C7.44523557,6.1668408 7.50952887,6.13567381 7.57771874,6.04119887 C7.61863266,5.98470869 7.65175345,5.92529662 7.67708112,5.86296264 C7.72481403,5.74511245 7.68000354,5.69544006 7.53972724,5.7003099 C7.5387531,5.69544006 7.53777896,5.69057021 7.53680482,5.68570037 Z M5.94505845,4.86074907 C5.86030818,4.88315035 5.77068721,4.89581194 5.69080765,4.9279529 C5.47357421,5.01366212 5.43168615,5.23085709 5.59339355,5.38377014 C5.62846263,5.4159111 5.65768686,5.42370285 5.70736805,5.40714539 C5.80185972,5.37500443 5.89829968,5.34870728 5.99571378,5.32727997 C6.09702444,5.3048787 6.12235211,5.28832123 6.13696422,5.1996901 C6.14865391,5.12664247 6.14183493,5.05554277 6.08436061,4.99418275 C6.07267092,4.98152116 6.06487779,4.95327608 6.07267092,4.94256242 C6.11358484,4.88607225 6.06974849,4.88120241 6.02493801,4.87633257 C5.99961034,4.87438463 5.97428268,4.87633257 5.94992915,4.87633257 L5.94992915,4.87633257 Z M7.29911442,4.73900301 C7.21728657,4.69517443 7.13448459,4.69225252 7.06142402,4.7175757 C7.06142402,4.7487427 7.0633723,4.76822206 7.06044988,4.78770143 C7.05752745,4.81107668 7.03804463,4.83932176 7.0468119,4.85587923 C7.09162239,4.93379671 7.14130358,5.00879228 7.19488133,5.08281388 C7.20559688,5.09742341 7.23871768,5.10424119 7.26112292,5.10618913 C7.32054552,5.10911103 7.37899398,5.1071631 7.44620971,5.1071631 C7.441339,4.97275545 7.46471838,4.82860811 7.29911442,4.73900301 Z" id="path-new-relic"></path>
    </defs>
    <g id="Workspaces" stroke="none" stroke-width="1" fill="currentColor" fill-rule="evenodd">
        <g id="Settings---Workspace---12.0---Add-metrics-provider" transform="translate(-524.000000, -279.000000)">
            <g id="Group-10" transform="translate(514.000000, 239.000000)">
                <g id="Icon/logos/Prometheus-Copy" transform="translate(10.000000, 40.000000)">
                    <mask id="mask-new-relic" fill="currentColor">
                        <use xlink:href="#path-new-relic"></use>
                    </mask>
                    <use id="Mask" fill="currentColor" fill-rule="evenodd" xlink:href="#path-new-relic"></use>
                </g>
            </g>
        </g>
    </g>
</svg>