<?xml version="1.0" encoding="UTF-8"?>
<svg width="16px" height="16px" viewBox="0 0 16 16" version="1.1" xmlns="http://www.w3.org/2000/svg" xmlns:xlink="http://www.w3.org/1999/xlink">
    <title>pack</title>
    <defs>
        <path d="M13.6283333,11.6143333 L8.667,14.095 L8.667,7.583 L14.0003333,4.91633333 L14.0003333,11.017 C14.0003333,11.2716667 13.8583333,11.5003333 13.6283333,11.6143333 L13.6283333,11.6143333 Z M2.36633333,11.615 C2.139,11.5003333 1.99833333,11.2703333 2.00031229,11.011 L2.00031229,4.91633333 L7.33366667,7.583 L7.33366667,14.099 L2.36633333,11.615 Z M7.70366667,1.40166667 C7.79633333,1.355 7.89833333,1.33233333 8.00033333,1.33233333 C8.101,1.33233333 8.203,1.355 8.295,1.401 L13.1723333,3.839 L8.00033333,6.42566667 L2.82766667,3.839 L7.70366667,1.40166667 Z M14.225,2.875 L8.89166667,0.208333333 C8.89166667,0.208333333 8.891,0.207666667 8.891,0.207666667 C8.333,-0.069 7.66766667,-0.0696666667 7.10833333,0.208333333 L1.777,2.87433333 C1.09233333,3.21366667 0.667666667,3.89966667 0.666936859,4.66433333 L0.666936859,11.0063333 C0.661,11.7716667 1.083,12.4616667 1.76833333,12.807 L7.10166667,15.4736667 C7.38166667,15.6136667 7.68966667,15.6836667 7.997,15.6836667 C8.30433333,15.6836667 8.61166667,15.6136667 8.89166667,15.4736667 L14.223,12.8076667 C14.9076667,12.4683333 15.3336667,11.7823333 15.3336667,11.017 L15.3336667,4.66433333 C15.3336667,3.89966667 14.9076667,3.21366667 14.225,2.875 L14.225,2.875 Z" id="path-package1"></path>
    </defs>
    <g id="Hypothesis" stroke="none" stroke-width="1" fill="none" fill-rule="evenodd">
        <g id="Hypotheses---2.0---Generate-release" transform="translate(-1150.000000, -530.000000)">
            <g id="Group-package-10" transform="translate(438.000000, 0.000000)">
                <g id="Group-package-8" transform="translate(30.000000, 59.000000)">
                    <g id="Group-package-5" transform="translate(594.000000, 0.000000)">
                        <g id="1.-Buttons/3.-Small/2.-Left-Icon-Button/1.-Rectagnle/1.-White" transform="translate(5.000000, 459.000000)">
                            <g id="Group-package" transform="translate(83.000000, 12.000000)">
                                <g id="Group-package-7">
                                    <g id="Icon/Miscellaneous/Box">
                                        <mask id="mask-package2" fill="white">
                                            <use xlink:href="#path-package1"></use>
                                        </mask>
                                        <use id="Icon-Box" fill="currentColor" fill-rule="evenodd" xlink:href="#path-package1"></use>
                                    </g>
                                </g>
                            </g>
                        </g>
                    </g>
                </g>
            </g>
        </g>
    </g>
</svg>