<?xml version="1.0" encoding="UTF-8"?>
<svg width="24px" height="20px" viewBox="0 0 24 20" version="1.1" xmlns="http://www.w3.org/2000/svg" xmlns:xlink="http://www.w3.org/1999/xlink">
    <defs>
        <path d="M7.0002,13.003 C7.5522,13.003 8.0002,13.451 8.0002,14.003 C8.0002,14.556 7.5522,15.003 7.0002,15.003 L7.0002,15.003 L3.5242,15.003 L6.3242,17.635 C7.8582,19.168 9.8662,20 12.0032,20.001 L12.0032,20.001 C14.1412,20.001 16.1502,19.169 17.6612,17.66 C18.4992,16.821 19.1512,15.788 19.5482,14.669 C19.7322,14.149 20.3032,13.877 20.8242,14.061 C21.3452,14.246 21.6172,14.817 21.4322,15.337 C20.9382,16.734 20.1232,18.026 19.0752,19.074 C17.1862,20.961 14.6762,22.001 12.0052,22.001 L12.0052,22.001 C9.3322,22 6.8212,20.959 4.9322,19.071 L4.9322,19.071 L2.0002,16.315 L2.0002,20.003 C2.0002,20.556 1.5522,21.003 1.0002,21.003 C0.4482,21.003 0.0002,20.556 0.0002,20.003 L0.0002,20.003 L0.0002,14.003 C0.0002,13.953 0.0212,13.91 0.0292,13.861 C0.0392,13.786 0.0452,13.709 0.0742,13.637 C0.1042,13.561 0.1542,13.499 0.2002,13.433 C0.2272,13.396 0.2392,13.353 0.2712,13.319 C0.2752,13.315 0.2802,13.314 0.2832,13.31 C0.3472,13.244 0.4282,13.197 0.5092,13.15 C0.5422,13.132 0.5682,13.102 0.6022,13.087 C0.6512,13.066 0.7072,13.065 0.7602,13.052 C0.8342,13.033 0.9072,13.008 0.9842,13.007 C0.9902,13.006 0.9942,13.003 1.0002,13.003 L1.0002,13.003 Z M7.6877,2.981 C10.0967,1.83 12.8097,1.686 15.3307,2.579 C16.7277,3.073 18.0197,3.889 19.0677,4.936 L19.0677,4.936 L21.9997,7.692 L21.9997,4.003 C21.9997,3.451 22.4477,3.003 22.9997,3.003 C23.5527,3.003 23.9997,3.451 23.9997,4.003 L23.9997,4.003 L23.9997,10.003 C23.9997,10.053 23.9787,10.096 23.9717,10.144 C23.9607,10.221 23.9547,10.297 23.9257,10.37 C23.8967,10.446 23.8467,10.508 23.7997,10.573 C23.7737,10.61 23.7607,10.654 23.7287,10.688 C23.7257,10.691 23.7207,10.692 23.7167,10.696 C23.6267,10.789 23.5207,10.865 23.4007,10.917 C23.3967,10.919 23.3937,10.923 23.3907,10.924 C23.2707,10.975 23.1387,11.003 22.9997,11.003 L22.9997,11.003 L16.9997,11.003 C16.4477,11.003 15.9997,10.556 15.9997,10.003 C15.9997,9.451 16.4477,9.003 16.9997,9.003 L16.9997,9.003 L20.4757,9.003 L17.6757,6.372 C16.8147,5.512 15.7817,4.86 14.6627,4.464 C12.6467,3.75 10.4767,3.865 8.5487,4.786 C6.6197,5.706 5.1657,7.322 4.4527,9.337 C4.2677,9.858 3.6977,10.13 3.1767,9.946 C2.6557,9.762 2.3827,9.19 2.5667,8.67 C3.4577,6.152 5.2767,4.131 7.6877,2.981 Z" id="path-refresh"></path>
    </defs>
    <g id="Circles---Home" stroke="none" stroke-width="1" fill="none" fill-rule="evenodd">
        <g id="Icon/Controls/Refresh/2" transform="translate(0.000000, -2.000000)">
            <mask id="mask-2" fill="white">
                <use xlink:href="#path-refresh"></use>
            </mask>
            <use id="Icon-Refresh-2" fill="currentColor" fill-rule="evenodd" xlink:href="#path-refresh"></use>
        </g>
    </g>
</svg>