<?xml version="1.0" encoding="UTF-8"?>
<svg width="12px" height="12px" viewBox="0 0 12 12" version="1.1" xmlns="http://www.w3.org/2000/svg" xmlns:xlink="http://www.w3.org/1999/xlink">
    <defs>
        <path d="M8.66573333,3.33333333 L2.27506667,3.33333333 L4.4704,1.138 C4.73106667,0.877333333 4.73106667,0.456 4.4704,0.195333333 C4.20973333,-0.0653333333 3.7884,-0.0653333333 3.52773333,0.195333333 L0.1944,3.528 C0.133066667,3.59 0.0844,3.664 0.0504,3.74533333 C-0.0169333333,3.908 -0.0169333333,4.092 0.0504,4.25466667 C0.0844,4.336 0.133066667,4.41 0.1944,4.472 L3.52773333,7.80466667 C3.65773333,7.93466667 3.8284,8 3.99906667,8 C4.16973333,8 4.3404,7.93466667 4.4704,7.80466667 C4.73106667,7.544 4.73106667,7.12266667 4.4704,6.862 L2.27506667,4.66666667 L8.66573333,4.66666667 C9.7684,4.66666667 10.6657333,5.564 10.6657333,6.66666667 L10.6657333,11.3333333 C10.6657333,11.702 10.9637333,12 11.3324,12 C11.7010667,12 11.9990667,11.702 11.9990667,11.3333333 L11.9990667,6.66666667 C11.9990667,4.82866667 10.5037333,3.33333333 8.66573333,3.33333333" id="path-1"></path>
    </defs>
    <g id="Page-1" stroke="none" stroke-width="1" fill="none" fill-rule="evenodd">
        <g id="Settings---Access-tokens---5.0" transform="translate(-935.000000, -15.000000)">
            <g id="override" transform="translate(933.000000, 13.000000)">
                <g id="Icon/Miscellaneous/Rocket" transform="translate(2.000000, 2.000000)">
                    <mask id="mask-2" fill="white">
                        <use xlink:href="#path-1"></use>
                    </mask>
                    <use id="Icon-Arrow-Corner-Up-Left" fill="#98989E" xlink:href="#path-1"></use>
                </g>
            </g>
        </g>
    </g>
</svg>