<?xml version="1.0" encoding="UTF-8"?>
<svg width="16px" height="16px" viewBox="0 0 16 16" version="1.1" xmlns="http://www.w3.org/2000/svg" xmlns:xlink="http://www.w3.org/1999/xlink">
    <defs>
        <path d="M8,2 C4.692,2 2,4.692 2,8 C2,11.3086667 4.692,14 8,14 C11.3086667,14 14,11.3086667 14,8 C14,4.692 11.3086667,2 8,2 M8,15.3333333 C3.95666667,15.3333333 0.666666667,12.0433333 0.666666667,8 C0.666666667,3.95666667 3.95666667,0.666666667 8,0.666666667 C12.0433333,0.666666667 15.3333333,3.95666667 15.3333333,8 C15.3333333,12.0433333 12.0433333,15.3333333 8,15.3333333 M10.7248787,4 C10.7248787,4 11.8007836,8.35837263 11.0912055,9.27190085 C10.3816276,10.1854291 7.53706581,12.3173216 3.99446387,11.9600459 L3.99746387,11.96 L4.26358265,11.9041366 C4.80362179,11.77224 5.31001937,11.5468302 5.78428713,11.2496076 C7.55860435,11.2184652 9.27284242,10.2343344 9.95831143,9.24351124 C10.1982408,8.89670113 10.2145282,8.31452322 10.1122758,7.4582338 C10.0826343,7.21000788 10.042806,6.94830927 9.995299,6.6796648 C9.97033809,6.53851476 9.94420782,6.40074453 9.91767736,6.26849293 L9.85891125,5.98955547 C10.192068,5.29270881 10.4795803,4.61310834 10.7248787,4 Z M9.39206197,5.93333333 C9.39206197,5.93333333 9.97911218,8.42959041 9.59568288,8.98382503 C9.21225354,9.53805966 7.62167789,10.8749733 5.53201232,10.7967055 C7.1954833,10.1823024 8.81132934,7.66256494 9.39206197,5.93333333 Z" id="path-spinnaker"></path>
    </defs>
    <g id="Workspaces-spinnaker" stroke="none" stroke-width="1" fill="none" fill-rule="evenodd">
        <g id="Settings---Workspace---8.0----CD-configuration-spinnaker" transform="translate(-679.000000, -235.000000)">
            <g id="Group-spinnaker-7" transform="translate(513.000000, 156.000000)">
                <g id="Group-spinnaker-6" transform="translate(0.000000, 67.000000)">
                    <g id="1.-Buttons/3.-Small/1.-Button/2.-Rounded/1.-White-Copy" transform="translate(135.000000, 0.000000)">
                        <g id="Group-spinnaker" transform="translate(31.000000, 12.000000)">
                            <g id="Icon/Math/Plus/Circle">
                                <mask id="mask-spinnaker" fill="white">
                                    <use xlink:href="#path-spinnaker"></use>
                                </mask>
                                <use id="Mask" fill="currentColor" xlink:href="#path-spinnaker"></use>
                            </g>
                        </g>
                    </g>
                </g>
            </g>
        </g>
    </g>
</svg>