<?xml version="1.0" encoding="UTF-8"?>
<svg width="13px" height="15px" viewBox="0 0 13 15" version="1.1" xmlns="http://www.w3.org/2000/svg" xmlns:xlink="http://www.w3.org/1999/xlink">
    <title>337C962F-D6EC-429B-8700-532348926B66</title>
    <defs>
        <path d="M6.5,0.625 C8.276875,0.625 9.82125,1.8875 10.175625,3.62875 C10.24375,3.966875 10.025625,4.296875 9.6875,4.365625 C9.346875,4.43625 9.01875,4.215625 8.95,3.8775 C8.714375,2.716875 7.684375,1.875 6.5,1.875 L6.5,1.875 C5.83,1.875625 5.201875,2.13625 4.73,2.60875 C4.25875,3.081875 3.999375,3.71 4,4.3775 L4,4.3775 L4,6.253125 L10.875,6.253125 C11.90875,6.253125 12.75,7.094375 12.75,8.128125 L12.75,8.128125 L12.75,12.503125 C12.75,13.536875 11.90875,14.378125 10.875,14.378125 L10.875,14.378125 L2.125,14.378125 C1.09125,14.378125 0.25,13.536875 0.25,12.503125 L0.25,12.503125 L0.25,8.128125 C0.25,7.094375 1.09125,6.253125 2.125,6.253125 L2.125,6.253125 L2.75,6.253125 L2.75,4.378125 C2.749375,3.376875 3.138125,2.435 3.845625,1.72625 C4.553125,1.016875 5.495,0.62625 6.49625,0.625 L6.49625,0.625 Z M10.875,7.503125 L2.125,7.503125 C1.780625,7.503125 1.5,7.78375 1.5,8.128125 L1.5,8.128125 L1.5,12.503125 C1.5,12.848125 1.780625,13.128125 2.125,13.128125 L2.125,13.128125 L10.875,13.128125 C11.22,13.128125 11.5,12.848125 11.5,12.503125 L11.5,12.503125 L11.5,8.128125 C11.5,7.78375 11.22,7.503125 10.875,7.503125 L10.875,7.503125 Z" id="path-1-token"></path>
    </defs>
    <g id="Page-1-token" stroke="none" stroke-width="1" fill="none" fill-rule="evenodd">
        <g id="Settings---Access-tokens---0.0--token" transform="translate(-24.000000, -155.000000)">
            <g id="Icon/Layout/Kanban-token" transform="translate(24.000000, 155.000000)">
                <mask id="mask-2-token" fill="white">
                    <use xlink:href="#path-1-token"></use>
                </mask>
                <use id="Icon-Unlock" fill="currentColor" xlink:href="#path-1-token"></use>
            </g>
        </g>
    </g>
</svg>