<?xml version="1.0" encoding="UTF-8"?>
<svg width="16px" height="16px" viewBox="0 0 20 22" version="1.1" xmlns="http://www.w3.org/2000/svg" xmlns:xlink="http://www.w3.org/1999/xlink">
    <!-- Generator: Sketch 64 (93537) - https://sketch.com -->
    <title>Upload</title>
    <defs>
        <path d="M21,15.9986 C21.553,15.9986 22,16.4456 22,16.9986 L22,16.9986 L22,19.9986 C22,21.6526 20.654,22.9986 19,22.9986 L19,22.9986 L5,22.9986 C3.346,22.9986 2,21.6526 2,19.9986 L2,19.9986 L2,16.9986 C2,16.4456 2.448,15.9986 3,15.9986 C3.552,15.9986 4,16.4456 4,16.9986 L4,16.9986 L4,19.9986 C4,20.5506 4.449,20.9986 5,20.9986 L5,20.9986 L19,20.9986 C19.552,20.9986 20,20.5506 20,19.9986 L20,19.9986 L20,16.9986 C20,16.4456 20.447,15.9986 21,15.9986 Z M11.618,1.0756 C11.862,0.9746 12.138,0.9746 12.382,1.0756 C12.504,1.1266 12.615,1.1996 12.707,1.2916 L12.707,1.2916 L16.707,5.2916 C17.098,5.6826 17.098,6.3146 16.707,6.7056 C16.512,6.9006 16.256,6.9986 16,6.9986 C15.744,6.9986 15.488,6.9006 15.293,6.7056 L15.293,6.7056 L13,4.4126 L13,15.9986 C13,16.5516 12.552,16.9986 12,16.9986 C11.448,16.9986 11,16.5516 11,15.9986 L11,15.9986 L11,4.4126 L8.707,6.7056 C8.316,7.0966 7.684,7.0966 7.293,6.7056 C6.902,6.3146 6.902,5.6826 7.293,5.2916 L7.293,5.2916 L11.292,1.2916 C11.385,1.1996 11.496,1.1266 11.618,1.0756 Z" id="path-upload"></path>
    </defs>
    <g id="Page-1" stroke="none" stroke-width="1" fill="none" fill-rule="evenodd">
        <g id="Icon/Controls/Upload" transform="translate(-2.000000, -1.000000)">
            <mask id="mask-upload" fill="currentColor">
                <use xlink:href="#path-upload"></use>
            </mask>
            <use id="Icon-Upload" fill="currentColor" fill-rule="evenodd" xlink:href="#path-upload"></use>
        </g>
    </g>
</svg>