<?xml version="1.0" encoding="UTF-8"?>
<svg width="145px" height="232px" viewBox="0 0 145 232" version="1.1" xmlns="http://www.w3.org/2000/svg" xmlns:xlink="http://www.w3.org/1999/xlink">
    <title>illustration/circles copy 2</title>
    <g id="User-group" stroke="none" stroke-width="1" fill="none" fill-rule="evenodd">
        <g id="Root---User-group---3.4" transform="translate(-885.000000, -330.000000)">
            <g id="Group-13" transform="translate(655.000000, 117.000000)">
                <g id="Group" transform="translate(0.000000, 153.000000)">
                    <g id="user-not-found" transform="translate(230.000000, 60.000000)">
                        <g id="man" transform="translate(11.600028, 0.000000)">
                            <path d="M66.1985356,92.5413731 C63.8126476,91.8685731 58.3003276,91.3493571 56.9254956,92.1460451 C55.4258476,93.0160451 52.6882476,95.0205251 54.7326316,96.8106371 C56.5798156,98.4750051 57.6163916,96.5266691 58.7350956,96.1577891 C61.3186476,95.3253731 65.3396716,95.4599331 66.2463276,94.8520931 C67.1520556,94.2447171 67.6958636,92.9645411 66.1985356,92.5413731" id="Fill-1" fill="#101010"></path>
                            <g id="Fill-3-Copy-2" transform="translate(64.974712, 39.495247)" fill="#3A3A3C">
                                <path d="M4.29281241,0.0218767062 C57.7228764,14.8202287 25.1361564,55.9111407 0.77476441,55.3445967 C-0.30821159,55.3162927 -0.26320359,52.3666447 0.95618841,52.4028367 C14.5495324,52.8250767 36.8451964,27.1881487 4.84961241,16.8646127 C2.92030041,16.2428527 1.72132441,-0.690827294 4.29281241,0.0218767062" id="Mask"></path>
                            </g>
                            <g id="Group" transform="translate(45.378728, 43.104596)">
                                <polygon id="Fill-1" fill="#3945D8" transform="translate(22.923880, 44.053563) rotate(71.000000) translate(-22.923880, -44.053563) " points="16.587944 51.8480747 29.2598161 57.199134 29.2598161 40.1824217 19.0884828 30.9079925"></polygon>
                                <polygon id="Fill-2" fill="#3945D8" transform="translate(23.751577, 41.214874) rotate(71.000000) translate(-23.751577, -41.214874) " points="19.8302029 50.7161753 24.4183124 52.6536547 27.6729517 34.6473808 22.3307417 29.7760931"></polygon>
                                <polygon id="Fill-3" fill="#FF9398" transform="translate(14.688023, 20.134950) rotate(71.000000) translate(-14.688023, -20.134950) " points="8.352 16.2638089 8.352 33.2805212 21.0240457 27.9294618 18.5235068 6.98937965"></polygon>
                                <polygon id="Fill-4" fill="#F4828B" transform="translate(16.574626, 21.643412) rotate(71.000000) translate(-16.574626, -21.643412) " points="18.369562 9.79053481 12.2791511 15.3638681 14.3092881 33.4962882 20.8701009 30.730617"></polygon>
                                <path d="M34.2457835,-8.75495802 C31.2682493,-1.33194432 28.6134547,8.20102371 28.6134547,18.5981013 C28.6134547,35.1931698 31.6413086,49.5845854 36.0746419,56.7126219 L48.7013999,56.7126219 C53.131263,49.5845854 56.1625872,35.1966402 56.1625872,18.5981013 C56.1625872,8.20102371 53.5077926,-1.33194432 50.5302584,-8.75495802 C47.8494365,-8.23007218 45.1240209,-7.96684843 42.3923588,-7.96893062 C39.657747,-7.96632788 36.9293817,-8.22955163 34.2457835,-8.75495802" id="Fill-5" fill="#E2E2E2" transform="translate(42.388021, 23.978832) rotate(71.000000) translate(-42.388021, -23.978832) "></path>
                                <path d="M52.9398998,23.232897 C52.9398998,12.8358194 50.2851053,3.30285138 47.307571,-4.12016232 C44.6267491,-3.59527648 41.9013336,-3.33205273 39.1696715,-3.33413492 C38.5484843,-3.33413492 37.9307674,-3.34975136 37.3182559,-3.37577876 C35.8232422,3.04726234 35.055087,9.61779202 35.027845,16.2124404 C35.027845,34.768066 37.937708,51.2087053 42.4126852,61.3474176 L45.4821829,61.3474176 C49.9120459,54.2124404 52.9398998,39.8279655 52.9398998,23.232897" id="Fill-7" fill="#F2F2F9" transform="translate(43.983872, 28.613628) rotate(71.000000) translate(-43.983872, -28.613628) "></path>
                                <path d="M71.8700024,18.7011023 C74.5685229,19.1265635 77.3020937,19.2879333 80.0318471,19.1827826 C82.7619476,19.0819698 85.475911,18.7165452 88.135564,18.0913671 C83.9763859,8.75586025 79.4188151,2.88217076 79.4188151,2.88217076 C79.4188151,2.88217076 75.3165503,9.07998811 71.8700024,18.7011023" id="Fill-10" fill="#5377C4" transform="translate(80.002783, 11.048043) rotate(73.000000) translate(-80.002783, -11.048043) "></path>
                                <path d="M82.7115453,-1.13813932 L82.7006138,-1.12026718 C82.4498832,-0.744084528 78.5032622,5.36801593 75.1622119,14.6792305 C77.2773718,15.0123812 79.4150887,15.1819063 81.5564494,15.1860707 L82.7115453,-1.13813932 Z" id="Fill-12" fill="#4D58E2" transform="translate(78.936879, 7.023966) rotate(73.000000) translate(-78.936879, -7.023966) "></path>
                                <polygon id="Fill-17" fill="#F4828B" transform="translate(11.485860, 34.613794) rotate(71.000000) translate(-11.485860, -34.613794) " points="10.1489198 40.0163005 12.822801 40.0163005 12.822801 29.2112868 10.1489198 29.2112868"></polygon>
                                <path d="M68.8540953,16.8806129 C68.8530542,20.1166859 66.228972,22.73938 62.9927254,22.7385126 C59.7564788,22.7374713 57.1339583,20.1132156 57.1348257,16.8771426 C57.1356935,13.64159 59.7589081,11.019243 62.9944606,11.019243 C66.2307072,11.019243 68.8540953,13.6426311 68.8540953,16.8788777 L68.8540953,16.8806129 Z" id="Fill-18" fill="#C5C5CF" opacity="0.230352493" transform="translate(62.994460, 16.878878) rotate(71.000000) translate(-62.994460, -16.878878) "></path>
                                <path d="M68.180249,14.9221763 C68.180249,18.1592904 65.5559933,20.7835461 62.3188792,20.7835461 C59.081765,20.7835461 56.4575093,18.1592904 56.4575093,14.9221763 C56.4575093,11.6850621 59.081765,9.06080611 62.3188792,9.06080611 C65.5551258,9.05976533 68.1792079,11.6824594 68.180249,14.918706 L68.180249,14.9221763 Z" id="Fill-19" fill="#5377C4" transform="translate(62.318879, 14.922176) rotate(71.000000) translate(-62.318879, -14.922176) "></path>
                                <path d="M54.3098716,12.077468 L54.3098716,12.3134497 C54.3095245,15.5496963 56.9325656,18.1734315 60.1688122,18.173952 C61.827278,18.1741255 63.4083556,17.4713858 64.5195519,16.2401164 L54.3098716,12.077468 Z" id="Fill-21" fill="#4D58E2" transform="translate(59.414712, 15.125710) rotate(71.000000) translate(-59.414712, -15.125710) "></path>
                                <path d="M51.3230263,19.5476156 C52.068451,19.5476156 52.6729807,20.1519717 52.6729807,20.8975699 C52.6729807,21.6431681 52.068451,22.2476977 51.3230263,22.2476977 C50.5774282,22.2476977 49.973072,21.6431681 49.973072,20.8975699 C49.973072,20.1519717 50.5774282,19.5476156 51.3230263,19.5476156" id="Fill-24" fill="#3945D8" transform="translate(51.323026, 20.897657) rotate(71.000000) translate(-51.323026, -20.897657) "></path>
                                <path d="M46.2157745,21.3061834 C46.9611992,21.3061834 47.5657288,21.9105396 47.5657288,22.6561377 C47.5657288,23.4017359 46.9611992,24.0062656 46.2157745,24.0062656 C45.4701763,24.0062656 44.8658202,23.4017359 44.8658202,22.6561377 C44.8658202,21.9105396 45.4701763,21.3061834 46.2157745,21.3061834" id="Fill-26" fill="#3945D8" transform="translate(46.215775, 22.656224) rotate(71.000000) translate(-46.215775, -22.656224) "></path>
                            </g>
                            <path d="M35.4512508,42.2669267 C40.3520188,57.6090867 43.8269148,94.7564627 43.5151068,101.619487 C43.4705628,102.951167 61.7813948,106.185711 69.5334428,102.197167 C72.5183548,100.675711 74.6573948,43.1568787 73.0083388,41.1106387 C71.3602108,39.0643987 55.0093148,36.7703827 52.7821148,37.6427027 C48.0595228,39.4717907 38.9706908,43.5953587 35.4512508,42.2669267" id="Fill-17" fill="#3A3A3C"></path>
                            <path d="M54.5196556,26.0831171 C54.5196556,26.0831171 59.6876876,26.9777091 60.3108396,26.0831171 C62.2712396,23.1153731 58.7963436,2.72860506 52.7819756,1.80756506 C45.2526476,0.658237059 42.4899916,8.72951706 45.8317196,16.2569891 C49.6184236,24.7017891 52.4697036,32.7317731 47.5693996,39.9548611 C49.1734476,40.4958851 58.8408876,40.4522691 59.7317676,38.2204291 C54.6528236,33.9131171 54.5196556,26.0831171 54.5196556,26.0831171" id="Fill-19" fill="#FFAEA9"></path>
                            <path d="M59.3309644,10.5066835 C58.5291724,10.3368595 49.9748684,13.6252275 49.9748684,13.6252275 C48.8612684,16.0087955 48.1931084,7.83357946 48.1931084,7.83357946 L58.4400844,7.38813946 L61.1131884,9.17036346 C61.1131884,9.17036346 60.1332204,10.6765075 59.3309644,10.5066835" id="Fill-21" fill="#101010"></path>
                            <path d="M38.8814172,3.54148666 C38.5696092,2.88121466 36.0746812,-0.541249341 35.4510652,0.0735506591 C34.7829052,0.688350659 32.8665852,4.12148666 33.7133852,5.27545466 C34.5151772,6.42895866 38.3473532,5.85313466 38.3473532,5.85313466 C38.3473532,5.85313466 39.2382332,4.20175866 38.8814172,3.54148666" id="Fill-23" fill="#0B0B0B"></path>
                            <path d="M40.6191436,3.54148666 C39.5941676,3.14012666 37.9901196,2.77635066 37.7673996,4.11916666 C37.5001356,5.46244666 38.2128396,6.42478266 39.4609996,6.43129132 C40.7523116,6.43777466 41.6886636,3.94238266 40.6191436,3.54148666" id="Fill-25" fill="#171717"></path>
                            <path d="M48.727822,23.7710051 C49.03963,23.4104771 49.306894,14.8250851 49.306894,14.8250851 L49.885966,13.6520931 C49.885966,13.6520931 49.351438,9.51738906 49.306894,8.74343706 C51.222286,8.69054106 56.969854,4.56604506 56.25715,2.38524506 C55.276718,-0.515218941 43.559326,-1.43904294 40.618958,4.11921306 C35.89683,13.0665251 45.56427,21.7971491 48.727822,23.7710051" id="Fill-27" fill="#0B0B0B"></path>
                            <path d="M50.0640956,14.7726531 C49.6631996,13.9991651 45.4751356,11.9789091 45.2974236,13.1454051 C44.8069756,16.6221571 49.3513916,19.4711171 50.0640956,19.1133731 C50.7322556,18.7551651 50.4209116,15.5466051 50.0640956,14.7726531" id="Fill-29" fill="#171717"></path>
                            <path d="M49.8860124,19.7250643 C50.4650844,28.3582483 60.8011484,29.5015443 62.0483804,28.3949043 C63.2515324,27.2878003 61.6479484,18.2732083 60.8902364,17.9910963 C60.1329884,17.7089843 57.3262524,19.2281203 56.8362684,19.7250643 C56.3012764,20.2224723 56.2567324,21.4590323 56.2567324,21.4590323 C56.2567324,21.4590323 52.4254844,20.8980563 49.8860124,13.3668723 C49.6632924,12.6931443 48.6828604,12.7488243 48.6828604,13.4814803 C48.6828604,14.8535283 49.8414684,18.9362643 49.8860124,19.7250643" id="Fill-31" fill="#0B0B0B"></path>
                            <path d="M50.2870476,8.06933786 C52.5587916,9.05997786 57.9504716,10.3239139 59.4204236,9.72117786 C61.0240076,9.06322586 64.0089196,7.44989786 62.2266956,5.39808986 C60.6231116,3.49800986 59.3308716,5.28719386 58.1727276,5.50063386 C55.4996236,5.97437786 51.5342796,5.29461786 50.5538476,5.77346586 C49.5738796,6.25231386 48.8611756,7.44711386 50.2870476,8.06933786" id="Fill-33" fill="#FFAEA9"></path>
                            <path d="M40.0400716,60.1846115 C-10.8834644,38.2615395 26.9858956,1.98091546 51.0447596,5.85345946 C52.1138156,6.02885146 51.6679116,8.94509146 50.4652236,8.74325146 C37.0546956,6.47753946 11.4813356,28.8455875 41.7772876,43.4226115 C43.6040556,44.3009635 42.4899916,61.2397475 40.0400716,60.1846115" id="Mask" fill="#3A3A3C"></path>
                            <path d="M87.8795827,210.326175 C89.1222628,211.059038 97.725433,219.917117 97.1837519,220.490662 C96.6420708,221.09607 84.7569506,215.711123 85.6491312,211.186492 C85.9677671,209.593313 87.3697652,210.007539 87.8795827,210.326175 Z" id="Path" fill="#3A3A3C"></path>
                            <path d="M43.1112343,101.448278 C55.6973536,119.228163 83.0044529,196.847876 85.6491312,210.326175 C85.9359035,211.760037 87.7839919,211.632583 87.8795827,210.326175 C88.7717633,192.960517 77.5876421,110.78431 70.1634249,97.9114188 C68.6976996,95.3941949 40.94451,98.3893727 43.1112343,101.448278 Z" id="Path" fill="#1C1C1E"></path>
                            <path d="M69.7810618,99.4408713 C66.1804757,126.875425 70.5520992,158.268322 68.8702067,158.675291 L53.2438569,131.272601 C53.2757205,131.272601 68.9207448,95.5535129 69.7810618,99.4408713 Z" id="Path" fill="#1C1C1E" fill-rule="nonzero" opacity="0.398460751"></path>
                            <path d="M9.71818868,213.353217 C8.50737214,214.62776 2.00719914,230.04974 3.47292442,231.547328 C4.9705133,233.044917 14.943818,217.01753 14.7207728,215.201305 C14.5295912,213.38508 10.9290052,212.078673 9.71818868,213.353217 Z" id="Path" fill="#3A3A3C"></path>
                            <path d="M7.96040993,230.2652 C18.2209663,228.928829 28.211508,226.742041 38.6070716,226.1346 C45.4924449,225.648647 51.5677743,225.041206 57.9131184,223.947812 C65.338521,222.73293 77.0841579,221.639536 84.5095605,220.66763 C90.9899118,219.817212 92.4749924,220.546142 97.8752852,220.546142 C92.2049777,221.275071 85.589619,222.611442 80.0543189,223.097394 C71.8188724,223.947812 63.3134112,224.190789 55.0779647,225.162694 C52.7828402,225.405671 50.2177011,225.648647 48.057584,226.499065 C45.4924449,227.470971 43.1973205,228.321388 40.3621668,228.442876 C37.2569984,228.564365 34.2868374,228.1999 31.181669,228.442876 C28.211508,228.685853 25.3763542,229.050317 22.4061932,229.53627 C15.1157979,230.629664 7.82540261,230.994129 0.4,231.723058" id="Path" fill="#000000" fill-rule="nonzero" opacity="0.250905"></path>
                            <path d="M69.7491982,97.0192382 C70.4820608,107.05627 18.544404,212.970854 12.5540485,215.647395 C10.9608688,216.348395 9.6225979,215.233169 10.3554605,213.863034 C15.6129534,204.049048 41.645509,110.019584 42.6970076,97.4653285 C44.7681411,96.5731479 69.4942894,93.4505157 69.7491982,97.0192382 Z" id="Path" fill="#48484A"></path>
                        </g>
                        <g id="elements" transform="translate(0.000000, 7.023635)">
                            <path d="M16.5449868,49.8431205 C17.7289455,51.0270792 17.7289455,52.9468315 16.5449868,54.1307902 C15.3610281,55.3147489 13.4412759,55.3147489 12.2573172,54.1307902 C11.0733585,52.9468315 11.0733585,51.0270792 12.2573172,49.8431205 C13.4412759,48.6588831 15.3610281,48.6588831 16.5449868,49.8431205 Z M15.8153826,50.572738 C15.0343566,49.7915551 13.7679474,49.7915551 12.9869214,50.572738 C12.2058955,51.353737 12.2058955,52.6201026 12.9869214,53.4011016 C13.7679474,54.1821006 15.0343566,54.1821006 15.8153826,53.4011016 C16.5964085,52.6201026 16.5964085,51.353737 15.8153826,50.572738 Z" id="Combined-Shape" fill="#FF375F"></path>
                            <path d="M93.7525956,1.95843342e-13 L99.3975814,0.581109677 L98.8167505,6.22609548 L93.1717646,5.64526452 L93.7525956,1.95843342e-13 Z M94.6578488,1.11304774 L94.284673,4.73988869 L97.9114973,5.11304774 L98.284673,1.48638585 L94.6578488,1.11304774 Z" id="Combined-Shape" fill="#FF9F0A"></path>
                            <path d="M3.80794063e-13,10.5426312 L2.26033548,18.978337 L8.43570581,12.8029667 L3.80794063e-13,10.5426312 Z M1.38546581,11.928097 L6.54298839,13.3099396 L2.76730839,17.0856196 L1.38546581,11.928097 Z" id="Fill-32" fill="#10AA80"></path>
                            <path d="M112.53979,13.7797605 C110.908781,13.7797605 109.586304,15.1019592 109.586304,16.733247 C109.586304,18.364256 110.908781,19.6864547 112.53979,19.6864547 C114.171078,19.6864547 115.492998,18.364256 115.492998,16.733247 C115.492998,15.1019592 114.171078,13.7797605 112.53979,13.7797605 M112.53979,14.4971592 C113.772523,14.4971592 114.775599,15.5002354 114.775599,16.733247 C114.775599,17.9659799 113.772523,18.969056 112.53979,18.969056 C111.306779,18.969056 110.303981,17.9659799 110.303981,16.733247 C110.303981,15.5002354 111.306779,14.4971592 112.53979,14.4971592" id="Fill-35" fill="#3945D8"></path>
                            <path d="M17.8451788,31.8920712 L22.6041466,31.8920712 L22.6041466,27.1331035 L17.8451788,27.1331035 L17.8451788,31.8920712 Z M18.4903917,31.247137 L21.9589337,31.247137 L21.9589337,27.7785951 L18.4903917,27.7785951 L18.4903917,31.247137 Z" id="Fill-37" fill="#0A84FF"></path>
                            <path d="M107.841644,29.8963551 L104.73654,33.0011809 L107.841644,36.1062854 L110.94647,33.0011809 L107.841644,29.8963551 Z M107.841644,30.835328 L110.007497,33.0011809 L107.841644,35.1673125 L105.675791,33.0011809 L107.841644,30.835328 Z" id="Fill-39" fill="#FF375F"></path>
                        </g>
                    </g>
                </g>
            </g>
        </g>
    </g>
</svg>