<?xml version="1.0" encoding="UTF-8"?>
<svg width="15px" height="15px" viewBox="0 0 15 15" version="1.1" xmlns="http://www.w3.org/2000/svg" xmlns:xlink="http://www.w3.org/1999/xlink">
    <defs>
        <path d="M8.125,7.75 C9.848125,7.75 11.25,9.151875 11.25,10.875 L11.25,12.125 C11.25,12.470625 10.970625,12.75 10.625,12.75 C10.279375,12.75 10,12.470625 10,12.125 L10,10.875 C10,9.84125 9.15875,9 8.125,9 L3.125,9 C2.09125,9 1.25,9.84125 1.25,10.875 L1.25,12.125 C1.25,12.470625 0.97,12.75 0.625,12.75 C0.28,12.75 0,12.470625 0,12.125 L0,10.875 C0,9.151875 1.401875,7.75 3.125,7.75 L8.125,7.75 Z M12.65625,7.85125 C14.035625,8.2075 14.999375,9.45125 15,10.874375 L15,12.125 C15,12.470625 14.720625,12.75 14.3749972,12.75 C14.029375,12.75 13.75,12.470625 13.75,12.125 L13.75,10.875 C13.749375,10.02125 13.17125,9.275 12.34375,9.06125 C12.009375,8.975 11.80875,8.63375 11.895,8.3 C11.98125,7.965625 12.321875,7.7625 12.65625,7.85125 Z M5.625,0.25 C7.348125,0.25 8.75,1.651875 8.75,3.375 C8.75,5.098125 7.348125,6.5 5.625,6.5 C3.901875,6.5 2.5,5.098125 2.5,3.375 C2.5,1.651875 3.901875,0.25 5.625,0.25 Z M10.155,0.3505625 C11.824375,0.7780625 12.834375,2.4836875 12.4075,4.1530625 C12.12375,5.2593125 11.26125,6.1224375 10.155,6.4055625 C10.103125,6.4186875 10.050625,6.4249375 9.999375,6.4249375 C9.72125,6.4249375 9.46625,6.2374375 9.394375,5.9549375 C9.309375,5.6205625 9.510625,5.2799375 9.845,5.1943125 C10.508125,5.0243125 11.026875,4.5068125 11.19625,3.8430625 C11.4525,2.8418125 10.84625,1.8180625 9.845,1.5618125 C9.510625,1.4761875 9.309375,1.1355625 9.394375,0.8011875 C9.48,0.4668125 9.821875,0.2643125 10.155,0.3505625 Z M5.625,1.5 C4.59125,1.5 3.75,2.34125 3.75,3.375 C3.75,4.40875 4.59125,5.25 5.625,5.25 C6.65875,5.25 7.5,4.40875 7.5,3.375 C7.5,2.34125 6.65875,1.5 5.625,1.5 Z" id="path-users"></path>
    </defs>
    <g id="Users" stroke="none" stroke-width="1" fill="none" fill-rule="evenodd">
        <g id="Root---User---0.0" transform="translate(-23.000000, -201.000000)">
            <rect fill="transparent" x="0" y="0" width="1920" height="1241"></rect>
            <g id="sidebar">
                <g id="sidebar/expand/settings-copy-2">
                    <rect id="Rectangle" fill="transparent" transform="translate(67.500000, 603.000000) scale(1, -1) translate(-67.500000, -603.000000) " x="0" y="0" width="135" height="1206"></rect>
                    <rect id="Rectangle-Copy-3" fill="transparent" transform="translate(67.500000, 208.000000) scale(1, -1) translate(-67.500000, -208.000000) " x="0" y="185" width="135" height="46"></rect>
                    <g id="Icon/Layout/Grid" transform="translate(23.000000, 202.000000)">
                        <mask id="mask-users" fill="white">
                            <use xlink:href="#path-users"></use>
                        </mask>
                        <use id="Icon-User-Group" fill="currentColor" xlink:href="#path-users"></use>
                    </g>
                </g>
            </g>
        </g>
    </g>
</svg>