<?xml version="1.0" encoding="UTF-8"?>
<svg width="26px" height="23px" viewBox="0 0 26 23" version="1.1" xmlns="http://www.w3.org/2000/svg" xmlns:xlink="http://www.w3.org/1999/xlink">
    <title>ic_webhook</title>
    <g id="Credentials-Webhook" stroke="none" stroke-width="1" fill="none" fill-rule="evenodd">
        <g id="webhook_1" transform="translate(-468.000000, -916.000000)" fill="#98989E" fill-rule="nonzero" stroke="#98989E" stroke-width="0.72">
            <g id="Webhook-Group-15" transform="translate(469.000000, 92.000000)">
                <g id="ic_webhook" transform="translate(0.000000, 824.000000)">
                    <path d="M1.77004342,14.8562778 L2.55814327,15.9770586 C1.8426788,16.4709906 1.37415342,17.2944466 1.37415342,18.2268389 C1.37415342,19.7378434 2.6046123,20.9627544 4.12246027,20.9627544 C5.47655802,20.9627544 6.60193073,19.9878814 6.82898818,18.7047065 L6.82898818,18.7047065 L6.82898818,17.4529332 L18.5173666,17.4529332 C18.7650762,17.0941524 19.180253,16.8588812 19.6506293,16.8588812 C20.4095532,16.8588812 21.0247828,17.4713368 21.0247828,18.2268389 C21.0247828,18.9823411 20.4095532,19.5947966 19.6506293,19.5947966 C19.143037,19.5947966 18.6997243,19.3208234 18.461771,18.9133206 L18.461771,18.9133206 L8.18749913,18.9133206 L8.14546588,19.1268904 C7.73332291,20.9604563 6.08863654,22.3307122 4.12246027,22.3307122 C1.84568833,22.3307122 0,20.4933456 0,18.2268389 C0,16.8308329 0.700194984,15.5976288 1.77004342,14.8562778 L1.77004342,14.8562778 Z M11.2103204,3.5311453 C11.8652556,3.15301832 12.6996532,3.37210733 13.0739995,4.02049426 C13.3186794,4.44429238 13.306256,4.94659908 13.0854102,5.3493181 L13.0854102,5.3493181 L18.2123652,14.2294646 L18.4272605,14.1533245 C20.2273304,13.5710131 22.2425545,14.2890342 23.2175393,15.9777574 C24.3405784,17.9229182 23.658192,20.41938 21.6933866,21.5537609 C20.4839796,22.2520124 19.0705864,22.2714377 17.9006419,21.7295204 L17.9006419,21.7295204 L18.4834931,20.4952627 C19.264152,20.8582423 20.2080661,20.8459666 21.0155726,20.3797525 C22.3254428,19.6234986 22.780367,17.9591908 22.0316743,16.6624168 C21.2829816,15.3656429 19.6141866,14.9274649 18.3043163,15.6837188 C18.2986042,15.6870168 18.2929082,15.690332 18.2872285,15.6936643 L18.2872285,15.6936643 L18.2755597,15.6734533 L17.5874383,16.0707403 L11.8093177,6.06274205 C11.3639242,6.0405726 10.9401847,5.80189415 10.7022696,5.38981315 C10.3279232,4.7414262 10.5553854,3.90927226 11.2103204,3.5311453 Z M13.9826611,1.15034089 C15.1127714,1.80281039 15.8150743,2.91184075 15.9913458,4.1103535 L16.0195573,4.35114037 L14.6559948,4.47068672 C14.5810105,3.6108537 14.1018388,2.800284 13.2980092,2.33619277 C11.9890487,1.5804641 10.3148684,2.0296729 9.55862282,3.33952873 C8.81801755,4.62229468 9.23242292,6.25476558 10.4792953,7.03154377 L11.2328095,7.46658545 L5.39627243,17.5757644 C5.56212688,17.9221631 5.58001375,18.3331091 5.42191532,18.7038954 C5.2290084,19.2260592 4.72648948,19.5983632 4.13695482,19.5983632 C3.38070923,19.5983632 2.76765102,18.985724 2.76765102,18.2299954 C2.76765102,18.0256352 2.81248038,17.8317384 2.8928479,17.6575896 C2.91658973,17.5988921 2.94468796,17.5411369 2.97725222,17.4847339 C3.22972698,17.0474348 3.68682355,16.8019873 4.15755478,16.799636 L9.310659,7.8741977 C7.79220397,6.62116417 7.3558408,4.41812347 8.37358152,2.65534483 C9.50794996,0.690561096 12.0192204,0.016747884 13.9826611,1.15034089 Z" id="Combined-Shape"></path>
                </g>
            </g>
        </g>
    </g>
</svg>