<?xml version="1.0" encoding="UTF-8"?>
<svg width="131px" height="199px" viewBox="0 0 131 199" version="1.1" xmlns="http://www.w3.org/2000/svg" xmlns:xlink="http://www.w3.org/1999/xlink">
    <title>A769ABD9-C181-48A3-A1D0-B8D0D7D6BE90</title>
    <defs>
        <path d="M0.496903226,5.33051348 L0.496903226,-4.94277374e-15 L5.82722581,-4.94277374e-15 L5.82722581,5.33051348 L0.496903226,5.33051348 Z" id="path-1"></path>
    </defs>
    <g id="Primeiro-acesso---Setiings" stroke="none" stroke-width="1" fill="none" fill-rule="evenodd">
        <g id="Wizard---Config-workspace---0.5" transform="translate(-1007.000000, -247.000000)">
            <g id="Group-2" transform="translate(568.000000, 189.000000)">
                <g id="illustration/circles" transform="translate(439.000000, 58.000000)">
                    <g id="circle-matcher" transform="translate(0.921839, 0.369863)">
                        <path d="M44.9488787,196.430918 C50.1759876,195.489137 55.2655409,193.948041 60.5614275,193.519959 C64.0690927,193.177493 67.1640914,192.749411 70.3966455,191.978863 C74.1794217,191.122698 80.1630858,190.35215 83.945862,189.667219 C87.2471939,189.067904 88.0037491,189.581602 90.754859,189.581602 C87.8661936,190.095301 84.4960839,191.037082 81.6761963,191.379548 C77.4807536,191.978863 73.1477555,192.150096 68.9523128,192.835027 C67.7830911,193.00626 66.4763139,193.177493 65.3758699,193.776808 C64.0690927,194.461739 62.899871,195.061054 61.4555383,195.146671 C59.8736501,195.232287 58.3605396,194.975438 56.7786514,195.146671 C55.2655409,195.317904 53.8212082,195.574753 52.3080978,195.917219 C48.5940993,196.687767 44.8801009,196.944616 41.0973248,197.458315" id="Path" fill="#000000" fill-rule="nonzero" opacity="0.701032366" transform="translate(65.926092, 193.417503) rotate(-1.000000) translate(-65.926092, -193.417503) "></path>
                        <path d="M80.4290894,180.746374 C81.4867043,181.275181 91.0757454,188.220185 90.3001612,189.207293 C89.7008461,189.982877 78.1728445,184.448026 77.9613215,183.56668 C77.7497985,182.685334 79.5124899,180.358582 79.7240129,180.393836 C79.9355359,180.429089 79.3714746,180.217566 80.4290894,180.746374 Z" id="Path" fill="#3A3A3C"></path>
                        <path d="M63.1547139,9.87107172 C65.2699436,8.74294923 67.1736503,-0.423045931 60.686946,0.352538276 C36.7143433,3.24335214 45.8098308,28.9081386 38.8295729,35.9589041 C33.9292909,40.9296938 24.9748187,43.7852538 22.9653505,49.7078969 C18.9111604,61.5884367 34.3875907,67.1937953 43.518332,65.219581 C65.9045125,60.4250604 63.1547139,32.0809831 63.1547139,32.0809831 L61.3920226,18.6845286 C61.3920226,18.6845286 61.2862611,10.8934327 63.1547139,9.87107172 Z" id="Path" fill="#0E0E0E" fill-rule="nonzero"></path>
                        <path d="M74.788477,43.0449234 C99.325141,43.6089847 99.536664,33.4558824 91.357776,16.146253 C91.0757454,15.5821918 89.2778002,15.5116841 89.5598308,16.146253 C94.7421434,28.3793312 94.7421434,38.1446414 72.5674859,33.4558824 C70.4170024,32.9975826 73.6956084,43.0096696 74.788477,43.0449234 Z" id="Path" fill="#3A3A3C"></path>
                        <path d="M75.3172844,76.465552 C78.9131749,106.572321 80.7816277,180.640612 80.2880741,181.028405 C79.7945205,181.416197 79.1599517,181.698227 79.0189363,181.028405 C77.7850524,174.012893 65.1641821,105.338437 58.8890008,80.0614424 C58.6069702,78.6865431 75.211523,75.3374295 75.3172844,76.465552 Z" id="Path" fill="#2C2C2E"></path>
                        <path d="M75.1410153,78.1626477 C73.5545931,85.3688868 67.4556809,111.166565 68.7953263,127.849502 C69.3593876,134.693784 63.5072522,108.106381 63.5072522,108.106381 L72.6732474,80.1369598 C72.6732474,80.1369598 76.0576148,74.0824027 75.1410153,78.1626477 Z" id="Path" fill="#1C1C1E"></path>
                        <path d="M43.3773167,184.060234 C43.4478243,185.576148 43.4478243,197.068896 42.0024174,197.738719 C40.7332796,198.338034 39.9929492,185.294118 40.239726,184.48328 C40.4865028,183.637188 42.4607172,182.544319 42.9190169,183.143634" id="Path" fill="#3A3A3C"></path>
                        <path d="M75.4935536,77.1706285 C75.4935536,77.1706285 49.2647059,164.000806 42.5664786,184.377518 C42.3549557,185.012087 41.262087,184.271757 41.2973409,183.742949 C43.518332,161.109992 50.1460516,93.0701048 52.1907736,85.3142627 C53.5656728,80.13195 57.1968171,77.487913 60.0523771,75.6547139 C62.1676068,74.2798147 75.4935536,77.1706285 75.4935536,77.1706285 Z" id="Path" fill="#48484A"></path>
                        <path d="M52.2259565,36.3114424 C52.3670427,41.2117244 61.2510073,63.386382 60.0171233,75.5842063 C62.3438759,78.6865431 73.1315471,79.4973811 75.4935536,76.8533441 C73.6603546,65.9246575 73.766116,54.0793715 73.766116,54.0793715 C73.766116,54.0793715 77.3972603,52.5987107 76.9742143,49.3906124 C76.7979452,48.1919823 71.7919017,36.0646656 72.0386785,33.3501209 C65.3051974,30.9881144 52.1907736,34.4077357 52.2259565,36.3114424 Z" id="Path" fill="#3A3A3C"></path>
                        <path d="M75.8291053,49.3553586 C75.476567,50.4129734 63.1377274,51.0827961 61.7275743,50.4129734 C60.3174212,49.7431507 58.4842222,53.5505641 59.2598064,54.2908944 C60.0353906,55.0312248 70.9993309,54.1146253 73.0087991,53.9383562 C74.5599675,53.7973409 75.8291053,52.5282031 75.8291053,52.5282031 L76.5341819,49.7078969 C76.5341819,49.7078969 76.2168974,48.1919823 75.8291053,49.3553586 Z" id="Path" fill="#2C2C2E"></path>
                        <path d="M62.9784448,22.9854956 C62.9784448,22.9854956 65.6224819,23.8668413 66.6448429,22.5624496 C68.0902498,20.6939968 65.798751,6.38094279 58.9242546,8.63718775 C51.9792506,10.9286865 65.6224819,28.6966156 57.5846092,33.7731668 C60.8279613,35.0423046 67.4556809,34.6897663 68.8305802,32.6097905 C63.6835214,30.9528606 62.9784448,22.9854956 62.9784448,22.9854956 Z" id="Path" fill="#FFAEA9" fill-rule="nonzero"></path>
                        <path d="M62.9733124,23.3682514 C60.829429,22.627921 59.0753425,20.5479452 59.0753425,20.5479452 C59.0753425,20.5479452 59.5625887,25.2014504 62.6484816,26.5410959 C63.8828388,27.0699033 63.1682109,23.4387591 62.9733124,23.3682514 Z" id="Path" fill="#FF887D" fill-rule="nonzero"></path>
                        <path d="M61.2510073,8.21414182 C61.0042305,10.7171636 59.0300161,15.8289686 56.809025,17.2743755 C54.5880338,18.7197824 53.6361805,15.5116841 53.6361805,15.5116841 L55.3988719,9.87107172 C55.5046334,9.73005641 61.6740532,3.73690572 61.2510073,8.21414182 Z" id="Path" fill="#0E0E0E" fill-rule="nonzero"></path>
                        <path d="M59.9818695,17.2743755 C59.6293312,16.9923449 58.0076551,15.546938 57.1615633,16.569299 C56.1744561,17.7679291 59.9818695,20.4119662 60.3344077,20.0946817 C60.686946,19.7773973 60.3344077,17.5564061 59.9818695,17.2743755 Z" id="Path" fill="#FFAEA9" fill-rule="nonzero"></path>
                        <path d="M55.6103948,76.6770749 C56.597502,76.8533441 64.3533441,79.7441579 63.5777599,80.5197421 C61.6035455,82.5292103 56.4564867,81.5068493 54.6232877,78.1224819 C53.8829573,76.7828364 54.6232877,76.5008058 55.6103948,76.6770749 Z" id="Path" fill="#FFAEA9" fill-rule="nonzero"></path>
                        <path d="M51.8734891,36.3114424 C54.1649879,34.1257051 59.9113618,40.471394 58.2191781,43.0096696 C49.2999597,56.5471394 36.8906124,66.4887188 55.9276793,76.7828364 C56.7385173,77.2058824 56.1039484,78.6512893 55.0463336,78.2634972 C28.8879936,69.4500403 39.6756648,48.0862208 51.8734891,36.3114424 Z" id="Path" fill="#3A3A3C"></path>
                        <path d="M70.8400483,13.8900081 C70.3817486,14.0662772 70.5932716,15.3706688 70.8400483,15.3706688 C76.7274376,15.1943997 81.6629734,15.546938 81.6629734,15.546938 L81.6629734,12.9029009 C81.6629734,12.9029009 72.2149476,13.3964545 70.8400483,13.8900081 Z" id="Path" fill="#0A936D"></path>
                        <path d="M70.910556,13.7489927 C70.8047945,13.6079774 68.9715955,12.9029009 68.4427881,13.3964545 C67.9139807,13.8900081 68.4075342,15.2649073 68.7953263,15.5116841 C69.077357,15.6879533 70.5932716,15.5821918 70.910556,15.1591459 C71.1925866,14.8066076 71.0868251,13.9957695 70.910556,13.7489927 Z" id="Path" fill="#3945D8"></path>
                        <path d="M80.0765512,11.5985093 C79.900282,12.1625705 79.8297744,16.9570911 80.323328,17.1333602 C80.8168815,17.2743755 96.8573731,17.0275987 97.1746575,16.6045528 C97.4566882,16.1815068 97.2451652,11.245971 96.9278807,10.8229251 C96.6105963,10.3998791 80.2880741,11.034448 80.0765512,11.5985093 Z" id="Path" fill="#10AA80"></path>
                        <path d="M86.0697019,9.51853344 C85.1531023,10.1883562 83.9544722,13.07917 85.3646253,12.6913779 C88.8547542,11.7395246 89.5950846,11.2812248 89.9476229,10.5761483 C90.3001612,9.87107172 87.1273167,8.74294923 86.0697019,9.51853344 Z" id="Path" fill="#FFAEA9" fill-rule="nonzero"></path>
                        <path d="M97.2099114,9.23650282 C96.6458501,10.1178485 96.5400886,17.8031829 97.2099114,17.9441982 C97.8797341,18.0852135 116.881547,17.9794521 117.55137,17.6974214 C118.221193,17.380137 119.067284,8.46091861 118.080177,7.96736503 C117.057816,7.40330379 97.7739726,8.3199033 97.2099114,9.23650282 Z" id="Path" fill="#0A936D"></path>
                        <path d="M116.987361,8.67244158 C115.879086,8.67244158 115.49119,16.146253 116.599465,16.569299 C117.707739,17.0275987 118.095635,8.67244158 116.987361,8.67244158 Z" id="Path" fill="#F2F2F9"></path>
                        <g id="Group" transform="translate(0.000000, 8.561644)">
                            <path d="M4.43119753,41.8563168 C5.4448608,42.8699801 5.4448608,44.5136036 4.43119753,45.5272669 C3.41753425,46.5409302 1.77391074,46.5409302 0.760247459,45.5272669 C-0.25341582,44.5136036 -0.25341582,42.8699801 0.760247459,41.8563168 C1.77391074,40.8424149 3.41753425,40.8424149 4.43119753,41.8563168" id="Fill-27" fill="#0A84FF"></path>
                            <g id="Group-31" transform="translate(123.646932, 22.260274)">
                                <mask id="mask-2" fill="white">
                                    <use xlink:href="#path-1"></use>
                                </mask>
                                <use id="Combined-Shape" fill="#10AA80" xlink:href="#path-1"></use>
                            </g>
                            <g id="Group-34" transform="translate(12.842466, 13.994697)" fill="#FF375F">
                                <path d="M3.63483977e-13,0.560097216 L1.93521874,7.78244808 L7.22235086,2.49531595 L3.63483977e-13,0.560097216 Z M1.18618648,1.74628369 L5.60187362,2.9293681 L2.36927088,6.16197084 L1.18618648,1.74628369 Z" id="Fill-32"></path>
                            </g>
                            <path d="M113.83004,29.9657534 C112.433628,29.9657534 111.30137,31.0977729 111.30137,32.4944233 C111.30137,33.8908352 112.433628,35.0228546 113.83004,35.0228546 C115.22669,35.0228546 116.358471,33.8908352 116.358471,32.4944233 C116.358471,31.0977729 115.22669,29.9657534 113.83004,29.9657534 M113.83004,30.5799646 C114.885462,30.5799646 115.74426,31.4387627 115.74426,32.4944233 C115.74426,33.5498453 114.885462,34.4086434 113.83004,34.4086434 C112.774379,34.4086434 111.91582,33.5498453 111.91582,32.4944233 C111.91582,31.4387627 112.774379,30.5799646 113.83004,30.5799646" id="Fill-35" fill="#0A84FF"></path>
                            <path d="M31.6780822,5.1369863 L38.5273973,5.1369863 L38.5273973,0 L31.6780822,0 L31.6780822,5.1369863 Z M32.5342466,4.28082192 L37.6712329,4.28082192 L37.6712329,0.856164384 L32.5342466,0.856164384 L32.5342466,4.28082192 Z" id="Fill-37" fill="#FFD60A"></path>
                            <path d="M119.096836,61.6438356 L116.438356,64.3020769 L119.096836,66.9605568 L121.755077,64.3020769 L119.096836,61.6438356 Z M119.096836,62.4477508 L120.951162,64.3020769 L119.096836,66.1566416 L117.24251,64.3020769 L119.096836,62.4477508 Z" id="Fill-39" fill="#FFD60A"></path>
                        </g>
                    </g>
                </g>
            </g>
        </g>
    </g>
</svg>