<?xml version="1.0" encoding="UTF-8"?>
<svg width="187px" height="188px" viewBox="0 0 187 188" version="1.1" xmlns="http://www.w3.org/2000/svg" xmlns:xlink="http://www.w3.org/1999/xlink">
    <title>D25BDD76-53B3-4C3E-B3B9-CD9AA925DCD7</title>
    <defs>
        <path d="M0.496903226,5.33051348 L0.496903226,-4.94277374e-15 L5.82722581,-4.94277374e-15 L5.82722581,5.33051348 L0.496903226,5.33051348 Z" id="path-1"></path>
        <linearGradient x1="50%" y1="0.267274716%" x2="50%" y2="99.2794552%" id="linearGradient-3">
            <stop stop-color="#30D158" offset="0%"></stop>
            <stop stop-color="#2C2C2E" stop-opacity="0" offset="100%"></stop>
        </linearGradient>
        <linearGradient x1="50%" y1="0.267274716%" x2="50%" y2="99.2794552%" id="linearGradient-4">
            <stop stop-color="#FF453A" offset="0%"></stop>
            <stop stop-color="#2C2C2E" stop-opacity="0" offset="100%"></stop>
        </linearGradient>
        <linearGradient x1="50%" y1="0.267274716%" x2="50%" y2="99.2794552%" id="linearGradient-5">
            <stop stop-color="#FF453A" offset="0%"></stop>
            <stop stop-color="#2C2C2E" stop-opacity="0" offset="100%"></stop>
        </linearGradient>
        <linearGradient x1="50%" y1="0.267274716%" x2="50%" y2="99.2794552%" id="linearGradient-6">
            <stop stop-color="#30D158" offset="0%"></stop>
            <stop stop-color="#2C2C2E" stop-opacity="0" offset="100%"></stop>
        </linearGradient>
    </defs>
    <g id="Primeiro-acesso---Setiings" stroke="none" stroke-width="1" fill="none" fill-rule="evenodd">
        <g id="Wizard---Config-workspace---0.6" transform="translate(-982.000000, -253.000000)">
            <g id="Group-2" transform="translate(568.000000, 189.000000)">
                <g id="illustration/circles" transform="translate(414.000000, 64.000000)">
                    <g id="Group-2" transform="translate(0.008670, 0.075342)">
                        <g id="Group" transform="translate(30.821918, 7.705479)">
                            <path d="M21.5544852,29.0138511 C22.5681485,30.0275144 22.5681485,31.6711379 21.5544852,32.6848011 C20.5408219,33.6984644 18.8971984,33.6984644 17.8835351,32.6848011 C16.8698719,31.6711379 16.8698719,30.0275144 17.8835351,29.0138511 C18.8971984,27.9999492 20.5408219,27.9999492 21.5544852,29.0138511" id="Fill-27" fill="#0A84FF"></path>
                            <g id="Group-31" transform="translate(111.660631, 15.410959)">
                                <mask id="mask-2" fill="white">
                                    <use xlink:href="#path-1"></use>
                                </mask>
                                <use id="Combined-Shape" fill="#0A84FF" xlink:href="#path-1"></use>
                            </g>
                            <g id="Group-34" transform="translate(0.000000, 0.296067)" fill="#FFD60A">
                                <path d="M-2.38621299e-05,0.188749448 L1.93519487,7.41110031 L7.222327,2.12396818 L-2.38621299e-05,0.188749448 Z M1.18616262,1.37493593 L5.60184976,2.55802033 L2.36924702,5.79062307 L1.18616262,1.37493593 Z" id="Fill-32"></path>
                            </g>
                            <path d="M101.843738,23.1164384 C100.447327,23.1164384 99.3150685,24.2484578 99.3150685,25.6451083 C99.3150685,27.0415201 100.447327,28.1735395 101.843738,28.1735395 C103.240389,28.1735395 104.37217,27.0415201 104.37217,25.6451083 C104.37217,24.2484578 103.240389,23.1164384 101.843738,23.1164384 M101.843738,23.7306496 C102.89916,23.7306496 103.757958,24.5894476 103.757958,25.6451083 C103.757958,26.7005303 102.89916,27.5593283 101.843738,27.5593283 C100.788078,27.5593283 99.9295183,26.7005303 99.9295183,25.6451083 C99.9295183,24.5894476 100.788078,23.7306496 101.843738,23.7306496" id="Fill-35" fill="#0A84FF"></path>
                            <path d="M32.4016703,18.7634468 L36.476129,18.7634468 L36.476129,14.6889881 L32.4016703,14.6889881 L32.4016703,18.7634468 Z M32.9540787,18.2112771 L35.9237207,18.2112771 L35.9237207,15.241635 L32.9540787,15.241635 L32.9540787,18.2112771 Z" id="Fill-37" fill="#FFD60A"></path>
                            <path d="M93.4119046,67.6369863 L90.7534247,70.2952276 L93.4119046,72.9537075 L96.0701458,70.2952276 L93.4119046,67.6369863 Z M93.4119046,68.4409015 L95.2662307,70.2952276 L93.4119046,72.1497923 L91.5575784,70.2952276 L93.4119046,68.4409015 Z" id="Fill-39" fill="#FFD60A"></path>
                        </g>
                        <g id="Ativo-4" transform="translate(67.636986, 0.000000)">
                            <path d="M46.6613891,175.337459 C48.5845033,176.1681 55.4824343,181.892299 53.8843534,182.118017 C52.2862726,182.343734 44.5035285,177.603664 44.855648,176.700793 C45.2077675,175.797923 44.7473035,174.497789 46.6613891,175.337459 Z" id="Path" fill="#3A3A3C"></path>
                            <path d="M44.395184,79.5428946 C47.2933985,92.6254887 47.7087189,174.84088 47.1037957,175.788894 C46.4988724,176.736908 45.2980546,176.240329 45.2980546,176.240329 C45.2980546,176.240329 29.9582841,93.8985361 24.9383239,80.8972004 C24.2431136,79.100488 44.0791793,78.0983017 44.395184,79.5428946 Z" id="Path" fill="#2C2C2E"></path>
                            <path d="M43.4291126,81.3125208 C40.5940991,102.909184 37.4611383,128.261789 36.1429473,128.595851 L32.2425466,111.30588 C32.2425466,111.30588 42.7519597,78.2517897 43.4291126,81.3125208 Z" id="Path" fill="#1C1C1E" opacity="0.596888951"></path>
                            <path d="M46.2099538,32.1669008 C51.6271771,49.9607109 64.8090918,62.4623878 73.630137,65.4860101 C74.5330075,65.7925142 73.7655676,67.1427894 72.7272664,67.1427894 C69.2421862,67.0433827 51.2840863,65.194797 44.855648,50.8222362 C43.2756246,47.2518767 45.7043463,30.4189986 46.2099538,32.1669008 Z" id="Path" fill="#1C1C1C" fill-rule="nonzero"></path>
                            <path d="M46.1434959,32.1687415 C54.4769909,55.3273709 76.236171,63.6879521 81.7075664,64.9519708 C82.9986713,65.2408894 79.6129068,67.3897213 79.6129068,67.3897213 L55.2354022,62.1621009 L47.2179118,52.7451611 L44.7711326,43.2921066 C44.7711326,43.2921066 45.2677114,29.6858476 46.1434959,32.1687415 Z" id="Path" fill="#2C2C2E"></path>
                            <g id="Group-6-Copy-9" transform="translate(26.541096, 40.239726)">
                                <rect id="Rectangle-Copy" fill="#3A3A3C" x="0" y="0" width="84.760274" height="27.0339014" rx="1.35169507"></rect>
                                <path d="M21.5753425,18.3219178 L8.30479452,18.3219178 C7.53424658,18.3219178 6.84931507,17.7226027 6.84931507,16.8664384 C6.84931507,16.0958904 7.44863014,15.4109589 8.30479452,15.4109589 L21.5753425,15.4109589 C22.3458904,15.4109589 23.0308219,16.010274 23.0308219,16.8664384 C23.0308219,17.6369863 22.4315068,18.3219178 21.5753425,18.3219178 Z" id="Path-Copy" fill="#48484A"></path>
                                <path d="M30.1369863,11.4726027 L8.30479452,11.4726027 C7.53424658,11.4726027 6.84931507,10.8732877 6.84931507,10.0171233 L6.84931507,10.0171233 C6.84931507,9.24657534 7.44863014,8.56164384 8.30479452,8.56164384 L30.1369863,8.56164384 C30.9075342,8.56164384 31.5924658,9.1609589 31.5924658,10.0171233 L31.5924658,10.0171233 C31.5924658,10.7876712 30.9931507,11.4726027 30.1369863,11.4726027 Z" id="Path" fill="#48484A"></path>
                                <path d="M46.4041096,18.3219178 L33.1335616,18.3219178 C32.3630137,18.3219178 31.6780822,17.7226027 31.6780822,16.8664384 C31.6780822,16.0958904 32.2773973,15.4109589 33.1335616,15.4109589 L46.4041096,15.4109589 C47.1746575,15.4109589 47.859589,16.010274 47.859589,16.8664384 C47.859589,17.6369863 47.260274,18.3219178 46.4041096,18.3219178 Z" id="Path-Copy-2" fill="#48484A"></path>
                                <g id="Group" transform="translate(50.519149, 5.744704)">
                                    <g id="coin_graph" transform="translate(15.090131, 8.000000) scale(-1, 1) translate(-15.090131, -8.000000) translate(0.590131, 0.000000)">
                                        <path d="M0,3.12445283 C1.87020995,3.68194802 3.94613624,4.41157222 5.94084253,2.35714128 C7.93554881,0.302710343 10.4736534,0.302710343 11.2230511,0.302710343 C11.9724488,0.302710343 15.4389582,5.80903525 16.5996061,5.54090019 C17.7602541,5.27276514 18.7252962,8.38599242 21.0112435,8.75080453 C23.2971909,9.11561663 24.8335766,10.3644543 26.1263702,10.6771202 C26.9882326,10.8855642 27.9308461,10.6208335 28.9542108,9.88292818" id="Path-2" stroke="#30D158" stroke-width="0.52687039"></path>
                                        <path d="M0,3.12445283 C2.63075749,3.98253242 4.61103834,3.72676191 5.94084253,2.35714128 C7.93554881,0.302710343 10.4736534,0.302710343 11.2230511,0.302710343 C11.9724488,0.302710343 16.0360389,5.94876126 16.5996061,5.54090019 C17.1631734,5.13303913 19.1033641,8.54001777 21.3864892,8.75080453 C23.6696142,8.96159128 24.6818006,10.5821088 25.9935631,10.7783471 C26.8680715,10.9091727 27.854954,10.6106997 28.9542108,9.88292818 L28.9542108,15.8472036 L0,15.8472036 L0,3.12445283 Z" id="Path-2-Copy" fill="url(#linearGradient-3)"></path>
                                    </g>
                                </g>
                            </g>
                            <path d="M10.1763906,176.899425 C11.6390408,178.389161 15.9005898,186.289278 14.3566812,185.92813 C12.8127725,185.566982 7.36846319,178.19053 7.98241516,177.495319 C8.59636713,176.800109 8.68665418,175.409688 10.1763906,176.899425 Z" id="Path" fill="#3A3A3C"></path>
                            <path d="M43.9437488,79.5428946 C38.481382,109.048704 11.9640742,174.199842 9.58952472,178.04607 C8.99363017,178.994085 7.78378364,178.362075 8.0546448,176.782052 C11.3049787,161.559654 21.0288945,104.732983 23.5749894,77.7281248 C23.7826496,75.7688957 44.2958683,77.6468664 43.9437488,79.5428946 Z" id="Path" fill="#48484A"></path>
                            <path d="M16.812489,33.0811766 C20.6496888,45.0893548 23.3673292,74.1708149 23.1325828,79.5428946 C23.1325828,80.5811957 37.4340522,83.1543767 43.5013422,79.9943298 C45.8307482,78.8025407 47.5100874,33.7763869 46.2099538,32.1421912 C44.9098202,30.5079955 32.1251734,28.747398 30.3736046,29.4335796 C26.680864,30.8962299 19.5662442,34.1194777 16.812489,33.0811766 Z" id="Path" fill="#3A3A3C"></path>
                            <path d="M31.7369391,20.4139029 C31.7369391,20.4139029 35.7817991,21.1181419 36.2512918,20.4139029 C37.7861717,18.0935256 35.0685314,2.13980318 30.3555471,1.45362157 C24.4688312,0.550751029 22.3019419,6.87084481 24.9383239,12.7575607 C27.8997393,19.3665731 30.1298295,25.6595807 26.3016584,31.3115503 C27.5566485,31.7358995 35.1227036,31.6997847 35.8179139,29.9482158 C31.8452835,26.5443939 31.7369391,20.4139029 31.7369391,20.4139029 Z" id="Path" fill="#FFAEA9" fill-rule="nonzero"></path>
                            <path d="M35.5019092,8.22515062 C34.8789285,8.08972004 28.1796291,10.6629011 28.1796291,10.6629011 C27.2767586,12.5318431 26.7892085,6.14854838 26.7892085,6.14854838 L34.8066989,5.79642887 L36.9013586,7.22296432 C36.9013586,7.22296432 36.1339186,8.3605812 35.5019092,8.22515062 Z" id="Path" fill="#050505"></path>
                            <path d="M19.5211007,2.77181256 C19.2773256,2.25717635 17.3271252,-0.424349154 16.812489,0.0632009378 C16.2978528,0.550751029 14.790059,3.23227653 15.4491545,4.13514707 C16.10825,5.03801761 19.0606367,4.58658234 19.0606367,4.58658234 C19.0606367,4.58658234 19.7739044,3.28644877 19.5211007,2.77181256 Z" id="Path" fill="#050505"></path>
                            <path d="M20.8573491,2.77181256 C20.0537943,2.45580787 18.7988042,2.175918 18.6272588,3.22324783 C18.4819953,3.64611054 18.5532901,4.11332483 18.8181095,4.47359633 C19.0829091,4.83386783 19.507533,5.04139985 19.9544785,5.02898891 C20.9656935,5.03801761 21.6970187,3.08781725 20.8573491,2.77181256 Z" id="Path" fill="#222222" fill-rule="nonzero"></path>
                            <path d="M27.204529,18.6081618 C27.448304,18.3192433 27.6559642,11.6018864 27.6559642,11.6018864 L28.1073995,10.6990159 C28.1073995,10.6990159 27.692079,7.45771066 27.6559642,6.8527874 C29.1547293,6.8527874 33.6600533,3.58439604 33.0731875,1.87797072 C32.3057475,-0.397263038 23.1416115,-1.11955947 20.8302629,3.23227653 C17.1646086,10.2295232 24.7306637,17.0642532 27.204529,18.6081618 Z" id="Path" fill="#050505"></path>
                            <path d="M28.2518588,11.5657716 C27.9358541,10.9608484 24.6403766,9.38082491 24.5230035,10.2927242 C24.1347691,13.0013358 27.692079,15.2404547 28.2518588,14.9605648 C28.8116385,14.680675 28.5498061,12.1706949 28.2518588,11.5657716 Z" id="Path" fill="#FFAEA9" fill-rule="nonzero"></path>
                            <path d="M28.1073995,15.4390862 C28.5678635,22.1925579 36.6575835,23.0954284 37.6326837,22.2286727 C38.6077839,21.361917 37.316679,14.3014694 36.7298132,14.1028378 C36.1429473,13.9042063 33.9399432,15.0689093 33.5607376,15.4571436 C33.2759515,15.8521232 33.1184611,16.3245942 33.1093023,16.8114495 C33.1093023,16.8114495 30.1117721,16.3780716 28.1164282,10.4913557 C28.0319629,10.3038555 27.8371447,10.1912893 27.6325182,10.211752 C27.4278918,10.2322146 27.2592216,10.3811296 27.2135577,10.5816427 C27.1684141,11.6289726 28.0803134,14.8251343 28.1073995,15.4390862 Z" id="Path" fill="#050505"></path>
                            <path d="M28.4234042,6.32009378 C30.2291453,7.08753374 34.4184646,8.08069133 35.5741389,7.61119865 C36.7298132,7.14170597 39.185621,5.80545757 37.7681143,4.22543413 C36.5131242,2.73569774 35.5019092,4.13514707 34.5990387,4.30669248 C32.504379,4.6768694 29.3985044,4.14417578 28.6310644,4.5233814 C27.8636244,4.90258703 27.3128734,5.83254369 28.4234042,6.32009378 Z" id="Path" fill="#FFAEA9" fill-rule="nonzero"></path>
                            <path d="M20.4239712,47.1027561 C-19.4377631,29.9482158 10.2034767,1.55293733 29.0373562,4.57755364 C29.8770258,4.72201292 29.5249062,6.99724668 28.5859209,6.84375869 C18.0855365,5.03801761 -1.93110337,22.5807922 21.778277,33.9840471 C23.1957838,34.6792574 22.3199993,47.933397 20.4239712,47.1027561 Z" id="Path" fill="#3A3A3C"></path>
                            <path d="M16.2707667,185.250977 C20.676775,184.682169 25.1640415,183.174375 29.4617053,183.400093 C32.222951,183.508783 34.9868147,183.266073 37.6868559,182.677796 C40.9281612,182.000643 45.8758917,181.774926 49.0630247,181.39572 C51.8528947,181.034572 52.2862726,181.937442 54.480248,182.388878 C52.0515262,182.695854 49.0630247,183.571638 46.7697336,183.62581 C43.2846533,183.842499 39.8266591,183.391064 36.3144927,183.743184 C35.2167284,183.715034 34.1344738,184.006772 33.1995893,184.582853 C32.09761,184.975605 30.9137628,185.08125 29.7596526,184.889829 C28.4956338,184.754399 27.3038447,185.241949 26.0127398,185.241949 C24.7466902,185.264347 23.4857973,185.409486 22.2477697,185.675327 C19.0877228,186.235106 16.0811639,186.018417 12.9482031,186.171905" id="Path-2" fill="#000000" fill-rule="nonzero"></path>
                            <path d="M29.1908441,6.48261048 C29.1908441,6.48261048 8.60539583,4.87550092 10.4923953,21.4883188 C10.4923953,21.4883188 11.9008733,8.48698307 26.5544622,6.71735682 C26.6628066,6.71735682 28.8748395,6.8618161 28.9831839,6.84375869 C29.0915284,6.82570128 29.1908441,6.48261048 29.1908441,6.48261048 Z" id="Path" fill="#2C2C2E"></path>
                            <path d="M1.57203433,20.8111659 C1.57203433,20.8111659 -0.125362287,34.4535398 22.2297123,42.8412071 C22.2297123,42.8412071 22.0581669,46.6513208 20.7851194,47.3555598 C20.8031768,47.3284737 -4.45011217,38.6067443 1.57203433,20.8111659 Z" id="Path" fill="#2C2C2E"></path>
                        </g>
                        <g id="Group-6-Copy-9" transform="translate(0.000000, 50.513699)">
                            <rect id="Rectangle-Copy" fill="#2C2C2E" x="0" y="0" width="84.760274" height="27.0339014" rx="1.35169507"></rect>
                            <g id="coin_graph" transform="translate(50.513699, 5.136986)">
                                <path d="M0,1.59564515 C1.9355475,2.21777432 4.08399823,3.03198854 6.14839146,0.739374248 C8.21278469,-1.55324005 10.8395604,2.21777432 11.615139,2.21777432 C12.3907175,2.21777432 15.9783327,4.59146842 17.179529,4.29224675 C18.3807253,3.99302508 19.3794821,7.46718877 21.7452911,7.87429588 C24.1111002,8.28140299 25.701161,11.5605337 27.0391196,11.9094489 C27.9310919,12.1420591 28.9066366,11.8466365 29.9657534,11.0231811" id="Path-2" stroke="#FF453A" stroke-width="0.5"></path>
                                <path d="M0,1.64350384 C2.72266549,2.62978657 4.77212931,2.33580213 6.14839146,0.761550534 C8.21278469,-1.59982687 10.8395604,2.28429273 11.615139,2.28429273 C12.3907175,2.28429273 16.596273,4.88978385 17.179529,4.42098547 C17.762785,3.95218709 19.7707581,7.86819235 22.1336463,8.11047213 C24.4965345,8.35275191 25.5440826,12.1574459 26.9016727,12.3830037 C27.8067329,12.5333755 28.8280931,12.1903086 29.9657534,11.3538028 L29.9657534,16.2671233 L0,16.2671233 L0,1.64350384 Z" id="Path-2-Copy" fill="url(#linearGradient-4)"></path>
                            </g>
                            <path d="M21.5753425,18.3219178 L8.30479452,18.3219178 C7.53424658,18.3219178 6.84931507,17.7226027 6.84931507,16.8664384 C6.84931507,16.0958904 7.44863014,15.4109589 8.30479452,15.4109589 L21.5753425,15.4109589 C22.3458904,15.4109589 23.0308219,16.010274 23.0308219,16.8664384 C23.0308219,17.6369863 22.4315068,18.3219178 21.5753425,18.3219178 Z" id="Path-Copy" fill="#48484A"></path>
                            <path d="M30.1369863,11.4726027 L8.30479452,11.4726027 C7.53424658,11.4726027 6.84931507,10.8732877 6.84931507,10.0171233 L6.84931507,10.0171233 C6.84931507,9.24657534 7.44863014,8.56164384 8.30479452,8.56164384 L30.1369863,8.56164384 C30.9075342,8.56164384 31.5924658,9.1609589 31.5924658,10.0171233 L31.5924658,10.0171233 C31.5924658,10.7876712 30.9931507,11.4726027 30.1369863,11.4726027 Z" id="Path" fill="#48484A"></path>
                        </g>
                        <g id="Group-6-Copy-10" transform="translate(132.705479, 72.773973)">
                            <rect id="Rectangle-Copy" fill="#2C2C2E" x="0" y="0" width="52.9751712" height="16.8961884" rx="0.844809418"></rect>
                            <g id="coin_graph" transform="translate(31.571062, 3.210616)">
                                <path d="M0,0.99727822 C1.20971719,1.38610895 2.55249889,1.89499284 3.84274466,0.462108905 C5.13299043,-0.970775028 6.77472524,1.38610895 7.25946185,1.38610895 C7.74419846,1.38610895 9.98645797,2.86966777 10.7372056,2.68265422 C11.4879533,2.49564067 12.1121763,4.66699298 13.590807,4.92143492 C15.0694376,5.17587687 16.0632256,7.22533354 16.8994497,7.44340557 C17.4569325,7.58878692 18.0666478,7.40414779 18.7285959,6.88948817" id="Path-2" stroke="#FF453A" stroke-width="0.5"></path>
                                <path d="M0,1.0271899 C1.70166593,1.64361661 2.98258082,1.45987633 3.84274466,0.475969084 C5.13299043,-0.999891791 6.77472524,1.42768296 7.25946185,1.42768296 C7.74419846,1.42768296 10.3726706,3.0561149 10.7372056,2.76311592 C11.1017406,2.47011693 12.3567238,4.91762022 13.833529,5.06904508 C15.3103341,5.22046994 15.9650516,7.5984037 16.8135455,7.73937731 C17.379208,7.83335971 18.0175582,7.61894287 18.7285959,7.09612677 L18.7285959,10.1669521 L0,10.1669521 L0,1.0271899 Z" id="Path-2-Copy" fill="url(#linearGradient-5)"></path>
                            </g>
                            <path d="M13.484589,11.4511986 L5.19049658,11.4511986 C4.70890411,11.4511986 4.28082192,11.0766267 4.28082192,10.541524 C4.28082192,10.0599315 4.65539384,9.63184932 5.19049658,9.63184932 L13.484589,9.63184932 C13.9661815,9.63184932 14.3942637,10.0064212 14.3942637,10.541524 C14.3942637,11.0231164 14.0196918,11.4511986 13.484589,11.4511986 Z" id="Path-Copy" fill="#48484A"></path>
                            <path d="M18.8356164,7.17037671 L5.19049658,7.17037671 C4.70890411,7.17037671 4.28082192,6.79580479 4.28082192,6.26070205 L4.28082192,6.26070205 C4.28082192,5.77910959 4.65539384,5.3510274 5.19049658,5.3510274 L18.8356164,5.3510274 C19.3172089,5.3510274 19.7452911,5.72559932 19.7452911,6.26070205 L19.7452911,6.26070205 C19.7452911,6.74229452 19.3707192,7.17037671 18.8356164,7.17037671 Z" id="Path" fill="#48484A"></path>
                        </g>
                        <g id="Group-6-Copy-9" transform="translate(31.678082, 84.760274)">
                            <rect id="Rectangle-Copy" fill="#2C2C2E" x="0" y="0" width="52.9751712" height="16.8961884" rx="0.844809418"></rect>
                            <path d="M13.484589,11.4511986 L5.19049658,11.4511986 C4.70890411,11.4511986 4.28082192,11.0766267 4.28082192,10.541524 C4.28082192,10.0599315 4.65539384,9.63184932 5.19049658,9.63184932 L13.484589,9.63184932 C13.9661815,9.63184932 14.3942637,10.0064212 14.3942637,10.541524 C14.3942637,11.0231164 14.0196918,11.4511986 13.484589,11.4511986 Z" id="Path-Copy" fill="#48484A"></path>
                            <path d="M18.8356164,7.17037671 L5.19049658,7.17037671 C4.70890411,7.17037671 4.28082192,6.79580479 4.28082192,6.26070205 L4.28082192,6.26070205 C4.28082192,5.77910959 4.65539384,5.3510274 5.19049658,5.3510274 L18.8356164,5.3510274 C19.3172089,5.3510274 19.7452911,5.72559932 19.7452911,6.26070205 L19.7452911,6.26070205 C19.7452911,6.74229452 19.3707192,7.17037671 18.8356164,7.17037671 Z" id="Path" fill="#48484A"></path>
                            <g id="Group" transform="translate(30.718304, 3.590440)">
                                <g id="coin_graph" transform="translate(9.849996, 5.000000) scale(-1, 1) translate(-9.849996, -5.000000) translate(0.349996, 0.000000)">
                                    <path d="M0,1.95278302 C1.16888122,2.30121751 2.46633515,2.75723264 3.71302658,1.4732133 C4.95971801,0.189193964 6.54603339,0.189193964 7.01440693,0.189193964 C7.48278047,0.189193964 9.64934887,3.63064703 10.3747538,3.46306262 C11.1001588,3.29547821 11.7033101,5.24124526 13.1320272,5.46925283 C14.5607443,5.69726039 15.5209854,6.47778397 16.3289814,6.67320015 C16.8676454,6.8034776 17.4567788,6.63802092 18.0963817,6.17683011" id="Path-2" stroke="#30D158" stroke-width="0.5"></path>
                                    <path d="M0,1.95278302 C1.64422343,2.48908276 2.88189896,2.32922619 3.71302658,1.4732133 C4.95971801,0.189193964 6.54603339,0.189193964 7.01440693,0.189193964 C7.48278047,0.189193964 10.0225243,3.71797579 10.3747538,3.46306262 C10.7269834,3.20814946 11.9396026,5.33751111 13.3665557,5.46925283 C14.7935089,5.60099455 15.4261254,6.61381797 16.2459769,6.73646696 C16.7925447,6.81823295 17.4093463,6.63168733 18.0963817,6.17683011 L18.0963817,9.90450227 L0,9.90450227 L0,1.95278302 Z" id="Path-2-Copy" fill="url(#linearGradient-6)"></path>
                                </g>
                            </g>
                        </g>
                    </g>
                </g>
            </g>
        </g>
    </g>
</svg>