<?xml version="1.0" encoding="UTF-8"?>
<svg width="145px" height="232px" viewBox="0 0 145 232" version="1.1" xmlns="http://www.w3.org/2000/svg" xmlns:xlink="http://www.w3.org/1999/xlink">
    <g id="Page-1-workspace-not-found" stroke="none" stroke-width="1" fill="none" fill-rule="evenodd">
        <g id="Settings---Access-tokens---Not-found" transform="translate(-886.000000, -576.000000)">
            <g id="Group-5-workspace-not-found" transform="translate(656.000000, 245.000000)">
                <g id="Group" transform="translate(0.000000, 271.000000)">
                    <g id="user-not-found" transform="translate(230.000000, 60.000000)">
                        <g id="man" transform="translate(12.000028, 0.000000)">
                            <path d="M65.7985356,92.5413731 C63.4126476,91.8685731 57.9003276,91.3493571 56.5254956,92.1460451 C55.0258476,93.0160451 52.2882476,95.0205251 54.3326316,96.8106371 C56.1798156,98.4750051 57.2163916,96.5266691 58.3350956,96.1577891 C60.9186476,95.3253731 64.9396716,95.4599331 65.8463276,94.8520931 C66.7520556,94.2447171 67.2958636,92.9645411 65.7985356,92.5413731" id="Fill-1" fill="#101010"></path>
                            <g id="Fill-3-Copy-2" transform="translate(64.574712, 39.495247)" fill="#3A3A3C">
                                <path d="M4.29281241,0.0218767062 C57.7228764,14.8202287 25.1361564,55.9111407 0.77476441,55.3445967 C-0.30821159,55.3162927 -0.26320359,52.3666447 0.95618841,52.4028367 C14.5495324,52.8250767 36.8451964,27.1881487 4.84961241,16.8646127 C2.92030041,16.2428527 1.72132441,-0.690827294 4.29281241,0.0218767062" id="Mask"></path>
                            </g>
                            <g id="Group" transform="translate(45.174562, 43.402240)">
                                <polygon id="Fill-1" fill="#3945D8" transform="translate(22.728046, 43.755919) rotate(71.000000) translate(-22.728046, -43.755919) " points="16.3921098 51.5504305 29.0639819 56.9014899 29.0639819 39.8847776 18.8926486 30.6103484"></polygon>
                                <polygon id="Fill-2" fill="#3945D8" transform="translate(23.555743, 40.917230) rotate(71.000000) translate(-23.555743, -40.917230) " points="19.6343686 50.4185312 24.2224782 52.3560106 27.4771175 34.3497366 22.1349074 29.478449"></polygon>
                                <polygon id="Fill-3" fill="#FF9398" transform="translate(14.492189, 19.837306) rotate(71.000000) translate(-14.492189, -19.837306) " points="8.15616578 15.9661647 8.15616578 32.9828771 20.8282114 27.6318177 18.3276726 6.69173552"></polygon>
                                <polygon id="Fill-4" fill="#F4828B" transform="translate(16.378792, 21.345767) rotate(71.000000) translate(-16.378792, -21.345767) " points="18.1737278 9.49289069 12.0833169 15.066224 14.1134539 33.1986441 20.6742666 30.4329729"></polygon>
                                <path d="M34.0499493,-9.05260215 C31.072415,-1.62958845 28.4176205,7.90337959 28.4176205,18.3004572 C28.4176205,34.8955257 31.4454744,49.2869412 35.8788077,56.4149778 L48.5055657,56.4149778 C52.9354287,49.2869412 55.9667529,34.898996 55.9667529,18.3004572 C55.9667529,7.90337959 53.3119584,-1.62958845 50.3344242,-9.05260215 C47.6536023,-8.5277163 44.9281867,-8.26449256 42.1965246,-8.26657475 C39.4619128,-8.26397201 36.7335475,-8.52719576 34.0499493,-9.05260215" id="Fill-5" fill="#E2E2E2" transform="translate(42.192187, 23.681188) rotate(71.000000) translate(-42.192187, -23.681188) "></path>
                                <path d="M52.7440656,22.9352529 C52.7440656,12.5381753 50.089271,3.00520725 47.1117368,-4.41780645 C44.4309149,-3.8929206 41.7054994,-3.62969686 38.9738373,-3.63177905 C38.35265,-3.63177905 37.7349331,-3.64739549 37.1224217,-3.67342289 C35.627408,2.74961821 34.8592528,9.32014789 34.8320108,15.9147963 C34.8320108,34.4704219 37.7418738,50.9110611 42.216851,61.0497735 L45.2863487,61.0497735 C49.7162117,53.9147963 52.7440656,39.5303214 52.7440656,22.9352529" id="Fill-7" fill="#F2F2F9" transform="translate(43.788038, 28.315984) rotate(71.000000) translate(-43.788038, -28.315984) "></path>
                                <path d="M71.6741681,18.4034581 C74.3726887,18.8289193 77.1062595,18.9902892 79.8360129,18.8851385 C82.5661133,18.7843257 85.2800768,18.4189011 87.9397298,17.793723 C83.7805517,8.45821613 79.2229809,2.58452663 79.2229809,2.58452663 C79.2229809,2.58452663 75.1207161,8.78234398 71.6741681,18.4034581" id="Fill-10" fill="#5377C4" transform="translate(79.806949, 10.750399) rotate(73.000000) translate(-79.806949, -10.750399) "></path>
                                <path d="M82.5157111,-1.43578345 L82.5047796,-1.4179113 C82.254049,-1.04172865 78.307428,5.0703718 74.9663777,14.3815864 C77.0815376,14.7147371 79.2192544,14.8842622 81.3606152,14.8884266 L82.5157111,-1.43578345 Z" id="Fill-12" fill="#4D58E2" transform="translate(78.741044, 6.726322) rotate(73.000000) translate(-78.741044, -6.726322) "></path>
                                <polygon id="Fill-17" fill="#F4828B" transform="translate(11.290026, 34.316150) rotate(71.000000) translate(-11.290026, -34.316150) " points="9.95308555 39.7186564 12.6269668 39.7186564 12.6269668 28.9136427 9.95308555 28.9136427"></polygon>
                                <path d="M68.6582611,16.5829688 C68.65722,19.8190418 66.0331378,22.4417359 62.7968912,22.4408685 C59.5606446,22.4398272 56.9381241,19.8155715 56.9389914,16.5794984 C56.9398592,13.3439459 59.5630738,10.7215989 62.7986264,10.7215989 C66.0348729,10.7215989 68.6582611,13.344987 68.6582611,16.5812336 L68.6582611,16.5829688 Z" id="Fill-18" fill="#C5C5CF" opacity="0.230352493" transform="translate(62.798626, 16.581234) rotate(71.000000) translate(-62.798626, -16.581234) "></path>
                                <path d="M67.9844148,14.6245322 C67.9844148,17.8616463 65.3601591,20.485902 62.123045,20.485902 C58.8859308,20.485902 56.2616751,17.8616463 56.2616751,14.6245322 C56.2616751,11.387418 58.8859308,8.76316199 62.123045,8.76316199 C65.3592915,8.7621212 67.9833737,11.3848153 67.9844148,14.6210618 L67.9844148,14.6245322 Z" id="Fill-19" fill="#5377C4" transform="translate(62.123045, 14.624532) rotate(71.000000) translate(-62.123045, -14.624532) "></path>
                                <path d="M54.1140374,11.7798239 L54.1140374,12.0158056 C54.1136903,15.2520522 56.7367314,17.8757873 59.972978,17.8763079 C61.6314438,17.8764814 63.2125214,17.1737417 64.3237177,15.9424723 L54.1140374,11.7798239 Z" id="Fill-21" fill="#4D58E2" transform="translate(59.218878, 14.828066) rotate(71.000000) translate(-59.218878, -14.828066) "></path>
                                <path d="M51.1271921,19.2499714 C51.8726168,19.2499714 52.4771465,19.8543276 52.4771465,20.5999258 C52.4771465,21.3455239 51.8726168,21.9500536 51.1271921,21.9500536 C50.3815939,21.9500536 49.7772378,21.3455239 49.7772378,20.5999258 C49.7772378,19.8543276 50.3815939,19.2499714 51.1271921,19.2499714" id="Fill-24" fill="#3945D8" transform="translate(51.127192, 20.600013) rotate(71.000000) translate(-51.127192, -20.600013) "></path>
                                <path d="M46.0199403,21.0085393 C46.7653649,21.0085393 47.3698946,21.6128954 47.3698946,22.3584936 C47.3698946,23.1040918 46.7653649,23.7086215 46.0199403,23.7086215 C45.2743421,23.7086215 44.6699859,23.1040918 44.6699859,22.3584936 C44.6699859,21.6128954 45.2743421,21.0085393 46.0199403,21.0085393" id="Fill-26" fill="#3945D8" transform="translate(46.019940, 22.358580) rotate(71.000000) translate(-46.019940, -22.358580) "></path>
                            </g>
                            <path d="M35.0512508,42.2669267 C39.9520188,57.6090867 43.4269148,94.7564627 43.1151068,101.619487 C43.0705628,102.951167 61.3813948,106.185711 69.1334428,102.197167 C72.1183548,100.675711 74.2573948,43.1568787 72.6083388,41.1106387 C70.9602108,39.0643987 54.6093148,36.7703827 52.3821148,37.6427027 C47.6595228,39.4717907 38.5706908,43.5953587 35.0512508,42.2669267" id="Fill-17" fill="#3A3A3C"></path>
                            <path d="M54.1196556,26.0831171 C54.1196556,26.0831171 59.2876876,26.9777091 59.9108396,26.0831171 C61.8712396,23.1153731 58.3963436,2.72860506 52.3819756,1.80756506 C44.8526476,0.658237059 42.0899916,8.72951706 45.4317196,16.2569891 C49.2184236,24.7017891 52.0697036,32.7317731 47.1693996,39.9548611 C48.7734476,40.4958851 58.4408876,40.4522691 59.3317676,38.2204291 C54.2528236,33.9131171 54.1196556,26.0831171 54.1196556,26.0831171" id="Fill-19" fill="#FFAEA9"></path>
                            <path d="M58.9309644,10.5066835 C58.1291724,10.3368595 49.5748684,13.6252275 49.5748684,13.6252275 C48.4612684,16.0087955 47.7931084,7.83357946 47.7931084,7.83357946 L58.0400844,7.38813946 L60.7131884,9.17036346 C60.7131884,9.17036346 59.7332204,10.6765075 58.9309644,10.5066835" id="Fill-21" fill="#101010"></path>
                            <path d="M38.4814172,3.54148666 C38.1696092,2.88121466 35.6746812,-0.541249341 35.0510652,0.0735506591 C34.3829052,0.688350659 32.4665852,4.12148666 33.3133852,5.27545466 C34.1151772,6.42895866 37.9473532,5.85313466 37.9473532,5.85313466 C37.9473532,5.85313466 38.8382332,4.20175866 38.4814172,3.54148666" id="Fill-23" fill="#0B0B0B"></path>
                            <path d="M40.2191436,3.54148666 C39.1941676,3.14012666 37.5901196,2.77635066 37.3673996,4.11916666 C37.1001356,5.46244666 37.8128396,6.42478266 39.0609996,6.43129132 C40.3523116,6.43777466 41.2886636,3.94238266 40.2191436,3.54148666" id="Fill-25" fill="#171717"></path>
                            <path d="M48.327822,23.7710051 C48.63963,23.4104771 48.906894,14.8250851 48.906894,14.8250851 L49.485966,13.6520931 C49.485966,13.6520931 48.951438,9.51738906 48.906894,8.74343706 C50.822286,8.69054106 56.569854,4.56604506 55.85715,2.38524506 C54.876718,-0.515218941 43.159326,-1.43904294 40.218958,4.11921306 C35.49683,13.0665251 45.16427,21.7971491 48.327822,23.7710051" id="Fill-27" fill="#0B0B0B"></path>
                            <path d="M49.6640956,14.7726531 C49.2631996,13.9991651 45.0751356,11.9789091 44.8974236,13.1454051 C44.4069756,16.6221571 48.9513916,19.4711171 49.6640956,19.1133731 C50.3322556,18.7551651 50.0209116,15.5466051 49.6640956,14.7726531" id="Fill-29" fill="#171717"></path>
                            <path d="M49.4860124,19.7250643 C50.0650844,28.3582483 60.4011484,29.5015443 61.6483804,28.3949043 C62.8515324,27.2878003 61.2479484,18.2732083 60.4902364,17.9910963 C59.7329884,17.7089843 56.9262524,19.2281203 56.4362684,19.7250643 C55.9012764,20.2224723 55.8567324,21.4590323 55.8567324,21.4590323 C55.8567324,21.4590323 52.0254844,20.8980563 49.4860124,13.3668723 C49.2632924,12.6931443 48.2828604,12.7488243 48.2828604,13.4814803 C48.2828604,14.8535283 49.4414684,18.9362643 49.4860124,19.7250643" id="Fill-31" fill="#0B0B0B"></path>
                            <path d="M49.8870476,8.06933786 C52.1587916,9.05997786 57.5504716,10.3239139 59.0204236,9.72117786 C60.6240076,9.06322586 63.6089196,7.44989786 61.8266956,5.39808986 C60.2231116,3.49800986 58.9308716,5.28719386 57.7727276,5.50063386 C55.0996236,5.97437786 51.1342796,5.29461786 50.1538476,5.77346586 C49.1738796,6.25231386 48.4611756,7.44711386 49.8870476,8.06933786" id="Fill-33" fill="#FFAEA9"></path>
                            <path d="M39.6400716,60.1846115 C-11.2834644,38.2615395 26.5858956,1.98091546 50.6447596,5.85345946 C51.7138156,6.02885146 51.2679116,8.94509146 50.0652236,8.74325146 C36.6546956,6.47753946 11.0813356,28.8455875 41.3772876,43.4226115 C43.2040556,44.3009635 42.0899916,61.2397475 39.6400716,60.1846115" id="Mask" fill="#3A3A3C"></path>
                            <path d="M87.4795827,210.326175 C88.7222628,211.059038 97.325433,219.917117 96.7837519,220.490662 C96.2420708,221.09607 84.3569506,215.711123 85.2491312,211.186492 C85.5677671,209.593313 86.9697652,210.007539 87.4795827,210.326175 Z" id="Path" fill="#3A3A3C"></path>
                            <path d="M42.7112343,101.448278 C55.2973536,119.228163 82.6044529,196.847876 85.2491312,210.326175 C85.5359035,211.760037 87.3839919,211.632583 87.4795827,210.326175 C88.3717633,192.960517 77.1876421,110.78431 69.7634249,97.9114188 C68.2976996,95.3941949 40.54451,98.3893727 42.7112343,101.448278 Z" id="Path" fill="#1C1C1E"></path>
                            <path d="M69.3810618,99.4408713 C65.7804757,126.875425 70.1520992,158.268322 68.4702067,158.675291 L52.8438569,131.272601 C52.8757205,131.272601 68.5207448,95.5535129 69.3810618,99.4408713 Z" id="Path" fill="#1C1C1E" fill-rule="nonzero" opacity="0.398460751"></path>
                            <path d="M9.31818868,213.353217 C8.10737214,214.62776 1.60719914,230.04974 3.07292442,231.547328 C4.5705133,233.044917 14.543818,217.01753 14.3207728,215.201305 C14.1295912,213.38508 10.5290052,212.078673 9.31818868,213.353217 Z" id="Path" fill="#3A3A3C"></path>
                            <path d="M7.56040993,230.2652 C17.8209663,228.928829 27.811508,226.742041 38.2070716,226.1346 C45.0924449,225.648647 51.1677743,225.041206 57.5131184,223.947812 C64.938521,222.73293 76.6841579,221.639536 84.1095605,220.66763 C90.5899118,219.817212 92.0749924,220.546142 97.4752852,220.546142 C91.8049777,221.275071 85.189619,222.611442 79.6543189,223.097394 C71.4188724,223.947812 62.9134112,224.190789 54.6779647,225.162694 C52.3828402,225.405671 49.8177011,225.648647 47.657584,226.499065 C45.0924449,227.470971 42.7973205,228.321388 39.9621668,228.442876 C36.8569984,228.564365 33.8868374,228.1999 30.781669,228.442876 C27.811508,228.685853 24.9763542,229.050317 22.0061932,229.53627 C14.7157979,230.629664 7.42540261,230.994129 0,231.723058" id="Path" fill="#000000" fill-rule="nonzero" opacity="0.250905"></path>
                            <path d="M69.3491982,97.0192382 C70.0820608,107.05627 18.144404,212.970854 12.1540485,215.647395 C10.5608688,216.348395 9.2225979,215.233169 9.95546055,213.863034 C15.2129534,204.049048 41.245509,110.019584 42.2970076,97.4653285 C44.3681411,96.5731479 69.0942894,93.4505157 69.3491982,97.0192382 Z" id="Path" fill="#48484A"></path>
                        </g>
                        <g id="elements" transform="translate(0.000000, 7.023635)">
                            <path d="M16.5449868,49.8431205 C17.7289455,51.0270792 17.7289455,52.9468315 16.5449868,54.1307902 C15.3610281,55.3147489 13.4412759,55.3147489 12.2573172,54.1307902 C11.0733585,52.9468315 11.0733585,51.0270792 12.2573172,49.8431205 C13.4412759,48.6588831 15.3610281,48.6588831 16.5449868,49.8431205 Z M15.8153826,50.572738 C15.0343566,49.7915551 13.7679474,49.7915551 12.9869214,50.572738 C12.2058955,51.353737 12.2058955,52.6201026 12.9869214,53.4011016 C13.7679474,54.1821006 15.0343566,54.1821006 15.8153826,53.4011016 C16.5964085,52.6201026 16.5964085,51.353737 15.8153826,50.572738 Z" id="Combined-Shape" fill="#FF375F"></path>
                            <path d="M93.7525956,1.92734717e-13 L99.3975814,0.581109677 L98.8167505,6.22609548 L93.1717646,5.64526452 L93.7525956,1.92734717e-13 Z M94.6578488,1.11304774 L94.284673,4.73988869 L97.9114973,5.11304774 L98.284673,1.48638585 L94.6578488,1.11304774 Z" id="Combined-Shape" fill="#FF9F0A"></path>
                            <path d="M3.80794063e-13,10.5426312 L2.26033548,18.978337 L8.43570581,12.8029667 L3.80794063e-13,10.5426312 Z M1.38546581,11.928097 L6.54298839,13.3099396 L2.76730839,17.0856196 L1.38546581,11.928097 Z" id="Fill-32" fill="#10AA80"></path>
                            <path d="M112.53979,13.7797605 C110.908781,13.7797605 109.586304,15.1019592 109.586304,16.733247 C109.586304,18.364256 110.908781,19.6864547 112.53979,19.6864547 C114.171078,19.6864547 115.492998,18.364256 115.492998,16.733247 C115.492998,15.1019592 114.171078,13.7797605 112.53979,13.7797605 M112.53979,14.4971592 C113.772523,14.4971592 114.775599,15.5002354 114.775599,16.733247 C114.775599,17.9659799 113.772523,18.969056 112.53979,18.969056 C111.306779,18.969056 110.303981,17.9659799 110.303981,16.733247 C110.303981,15.5002354 111.306779,14.4971592 112.53979,14.4971592" id="Fill-35" fill="#3945D8"></path>
                            <path d="M17.8451788,31.8920712 L22.6041466,31.8920712 L22.6041466,27.1331035 L17.8451788,27.1331035 L17.8451788,31.8920712 Z M18.4903917,31.247137 L21.9589337,31.247137 L21.9589337,27.7785951 L18.4903917,27.7785951 L18.4903917,31.247137 Z" id="Fill-37" fill="#0A84FF"></path>
                            <path d="M107.841644,29.8963551 L104.73654,33.0011809 L107.841644,36.1062854 L110.94647,33.0011809 L107.841644,29.8963551 Z M107.841644,30.835328 L110.007497,33.0011809 L107.841644,35.1673125 L105.675791,33.0011809 L107.841644,30.835328 Z" id="Fill-39" fill="#FF375F"></path>
                        </g>
                    </g>
                </g>
            </g>
        </g>
    </g>
</svg>