<?xml version="1.0" encoding="UTF-8"?>
<svg width="15px" height="13px" viewBox="0 0 15 13" version="1.1" xmlns="http://www.w3.org/2000/svg" xmlns:xlink="http://www.w3.org/1999/xlink">
    <!-- Generator: Sketch 63.1 (92452) - https://sketch.com -->
    <title>Icon/Layout/Kanban</title>
    <desc>Created with Sketch.</desc>
    <defs>
        <path d="M12.5,8.125 C13.1903559,8.125 13.75,8.68464406 13.75,9.375 L13.75,13.125 C13.75,13.8153559 13.1903559,14.375 12.5,14.375 L2.5,14.375 C1.80964406,14.375 1.25,13.8153559 1.25,13.125 L1.25,9.375 C1.25,8.68464406 1.80964406,8.125 2.5,8.125 L12.5,8.125 Z M12.1875,9.375 L2.8125,9.375 C2.63991102,9.375 2.5,9.51491102 2.5,9.6875 L2.5,9.6875 L2.5,12.8125 C2.5,12.985089 2.63991102,13.125 2.8125,13.125 L2.8125,13.125 L12.1875,13.125 C12.360089,13.125 12.5,12.985089 12.5,12.8125 L12.5,12.8125 L12.5,9.6875 C12.5,9.51491102 12.360089,9.375 12.1875,9.375 L12.1875,9.375 Z M8.75,0.625 C9.44035594,0.625 10,1.18464406 10,1.875 L10,5.625 C10,6.31535594 9.44035594,6.875 8.75,6.875 L2.5,6.875 C1.80964406,6.875 1.25,6.31535594 1.25,5.625 L1.25,1.875 C1.25,1.18464406 1.80964406,0.625 2.5,0.625 L8.75,0.625 Z M8.4375,1.875 L2.8125,1.875 C2.63991102,1.875 2.5,2.01491102 2.5,2.1875 L2.5,2.1875 L2.5,5.3125 C2.5,5.48508898 2.63991102,5.625 2.8125,5.625 L2.8125,5.625 L8.4375,5.625 C8.61008898,5.625 8.75,5.48508898 8.75,5.3125 L8.75,5.3125 L8.75,2.1875 C8.75,2.01491102 8.61008898,1.875 8.4375,1.875 L8.4375,1.875 Z" id="path-1"></path>
    </defs>
    <g id="graph" stroke="none" stroke-width="1" fill="none" fill-rule="evenodd">
        <g id="sidebar/expand/circles-copy" transform="translate(-23.000000, -156.000000)">
            <g id="Hypotheses" transform="translate(0.000000, 139.000000)">
                <g id="Icon/Layout/Kanban" transform="translate(23.000000, 16.000000)">
                    <mask id="mask-2" fill="white">
                        <use xlink:href="#path-1"></use>
                    </mask>
                    <use id="Icon-Kanban" fill="#636366" fill-rule="evenodd" transform="translate(7.500000, 7.500000) rotate(90.000000) translate(-7.500000, -7.500000) " xlink:href="#path-1"></use>
                </g>
            </g>
        </g>
    </g>
</svg>