<?xml version="1.0" encoding="UTF-8"?>
<svg width="13px" height="13px" viewBox="0 0 13 13" version="1.1" xmlns="http://www.w3.org/2000/svg" xmlns:xlink="http://www.w3.org/1999/xlink">
    <!-- Generator: Sketch 63.1 (92452) - https://sketch.com -->
    <title>Icon/Layout/Grid</title>
    <desc>Created with Sketch.</desc>
    <defs>
        <path d="M13.125,8.125 C13.470625,8.125 13.75,8.404375 13.75,8.75 L13.75,13.125 C13.75,13.470625 13.470625,13.75 13.125,13.75 L8.75,13.75 C8.404375,13.75 8.125,13.470625 8.125,13.125 L8.125,8.75 C8.125,8.404375 8.404375,8.125 8.75,8.125 L13.125,8.125 Z M6.25,8.125 C6.595,8.125 6.875,8.404375 6.875,8.75 L6.875,13.125 C6.875,13.470625 6.595,13.75 6.25,13.75 L1.875,13.75 C1.53,13.75 1.25,13.470625 1.25,13.125 L1.25,8.75 C1.25,8.404375 1.53,8.125 1.875,8.125 L6.25,8.125 Z M12.5,9.375 L9.375,9.375 L9.375,12.5 L12.5,12.5 L12.5,9.375 Z M5.625,9.375 L2.5,9.375 L2.5,12.5 L5.625,12.5 L5.625,9.375 Z M6.25,1.25 C6.595,1.25 6.875,1.53 6.875,1.875 L6.875,6.25 C6.875,6.595 6.595,6.875 6.25,6.875 L1.875,6.875 C1.53,6.875 1.25,6.595 1.25,6.25 L1.25,1.875 C1.25,1.53 1.53,1.25 1.875,1.25 L6.25,1.25 Z M13.125,1.25 C13.470625,1.25 13.75,1.53 13.75,1.875 L13.75,6.25 C13.75,6.595 13.470625,6.875 13.125,6.875 L8.75,6.875 C8.404375,6.875 8.125,6.595 8.125,6.25 L8.125,1.875 C8.125,1.53 8.404375,1.25 8.75,1.25 L13.125,1.25 Z M5.625,2.5 L2.5,2.5 L2.5,5.625 L5.625,5.625 L5.625,2.5 Z M12.5,2.5 L9.375,2.5 L9.375,5.625 L12.5,5.625 L12.5,2.5 Z" id="path-1"></path>
    </defs>
    <g id="graph" stroke="none" stroke-width="1" fill="none" fill-rule="evenodd">
        <g id="sidebar/expand/circles-copy" transform="translate(-24.000000, -202.000000)">
            <g id="Modules" transform="translate(0.000000, 185.000000)">
                <g id="Icon/Layout/Grid" transform="translate(23.000000, 16.000000)">
                    <mask id="mask-2" fill="white">
                        <use xlink:href="#path-1"></use>
                    </mask>
                    <use id="Icon-Grid" fill="#636366" fill-rule="evenodd" xlink:href="#path-1"></use>
                </g>
            </g>
        </g>
    </g>
</svg>