<?xml version="1.0" encoding="UTF-8"?>
<svg width="15px" height="15px" viewBox="0 0 15 15" version="1.1" xmlns="http://www.w3.org/2000/svg" xmlns:xlink="http://www.w3.org/1999/xlink">
    <!-- Generator: sketchtool 61.2 (101010) - https://sketch.com -->
    <title>855E317B-5C97-4DD0-8A6F-63AAE0788045</title>
    <desc>Created with sketchtool.</desc>
    <defs>
        <path d="M7.5,10.625 C8.19035594,10.625 8.75,11.1846441 8.75,11.875 C8.75,12.5653559 8.19035594,13.125 7.5,13.125 C6.80964406,13.125 6.25,12.5653559 6.25,11.875 C6.25,11.1846441 6.80964406,10.625 7.5,10.625 Z M7.5,6.25 C8.19035594,6.25 8.75,6.80964406 8.75,7.5 C8.75,8.19035594 8.19035594,8.75 7.5,8.75 C6.80964406,8.75 6.25,8.19035594 6.25,7.5 C6.25,6.80964406 6.80964406,6.25 7.5,6.25 Z M7.5,1.875 C8.19035594,1.875 8.75,2.43464406 8.75,3.125 C8.75,3.81535594 8.19035594,4.375 7.5,4.375 C6.80964406,4.375 6.25,3.81535594 6.25,3.125 C6.25,2.43464406 6.80964406,1.875 7.5,1.875 Z" id="vertical-dots-1"></path>
    </defs>
    <g id="Asset-Artboard-Page" stroke="none" stroke-width="1" fill="none" fill-rule="evenodd">
        <g id="Icon/Menu/More/More-Vertical">
            <mask id="mask-2" fill="white">
                <use xlink:href="#vertical-dots-1"></use>
            </mask>
            <use id="Icon-More-Vertical" fill="#F2F2F9" xlink:href="#vertical-dots-1"></use>
        </g>
    </g>
</svg>