<?xml version="1.0" encoding="UTF-8"?>
<svg width="16px" height="16px" viewBox="0 0 16 16" version="1.1" xmlns="http://www.w3.org/2000/svg" xmlns:xlink="http://www.w3.org/1999/xlink">
    <defs>
        <path d="M7.33333333,-1.2126596e-12 C11.3766667,-1.2126596e-12 14.6666667,3.29 14.6666667,7.33333333 C14.6666667,11.3766667 11.3766667,14.6666667 7.33333333,14.6666667 C3.29,14.6666667 -7.57912251e-14,11.3766667 -7.57912251e-14,7.33333333 C-7.57912251e-14,3.29 3.29,-1.2126596e-12 7.33333333,-1.2126596e-12 Z M7.33333333,1.33333333 C4.02533333,1.33333333 1.33333333,4.02533333 1.33333333,7.33333333 C1.33333333,10.642 4.02533333,13.3333333 7.33333333,13.3333333 C10.642,13.3333333 13.3333333,10.642 13.3333333,7.33333333 C13.3333333,4.02533333 10.642,1.33333333 7.33333333,1.33333333 Z M2.81292366,8.33509934 C4.12329893,9.09536424 5.73960357,9.55584989 7.41159915,9.55584989 C8.53963447,9.55584989 9.77892807,9.3209713 10.9193254,8.8388521 C11.0893033,8.7615894 11.2345572,8.95011038 11.0676389,9.07373068 C10.0508618,9.82472406 8.57359915,10.2233996 7.30343138,10.2233996 C5.52329893,10.2233996 3.91932542,9.56512141 2.70784639,8.47108168 C2.61200975,8.38454746 2.69857487,8.26710817 2.81292366,8.33509934 Z M11.9237404,8.25783664 C12.0349987,8.39690949 11.8928354,9.35187638 11.3488751,9.80927152 C11.2654623,9.8803532 11.1851091,9.84326711 11.2221643,9.75055188 C11.3457846,9.44459161 11.6208707,8.75540839 11.4910694,8.59161148 C11.3612371,8.42472406 10.6319082,8.51125828 10.3012239,8.55143488 C10.2022967,8.56379691 10.1868442,8.47726269 10.2764998,8.41236203 C10.8575153,8.00441501 11.8124512,8.1218543 11.9237404,8.25783664 Z M10.5855506,4.66666667 C10.6535109,4.66666667 10.7246234,4.66975717 10.7925837,4.6790287 C10.8636963,4.68830022 10.928566,4.70066225 10.9934667,4.71302428 C11.0552769,4.72847682 11.1139965,4.74392936 11.1696565,4.76247241 C11.2252548,4.78101545 11.2685528,4.7995585 11.2994579,4.81810155 C11.342725,4.84282561 11.3736301,4.86754967 11.3921731,4.89536424 C11.4107162,4.9200883 11.4199877,4.95408389 11.4199877,4.99735099 L11.4199877,5.14260486 C11.4199877,5.20750552 11.3952636,5.2415011 11.348906,5.2415011 C11.3241819,5.2415011 11.2840053,5.22913907 11.2314667,5.20441501 C11.0553078,5.12406181 10.8575153,5.08388521 10.6380892,5.08388521 C10.4619303,5.08388521 10.3228574,5.11169978 10.2270517,5.17041943 C10.131246,5.22913907 10.0817978,5.3187638 10.0817978,5.44547461 C10.0817978,5.53200883 10.1127029,5.60618102 10.1745131,5.66490066 C10.2363232,5.72362031 10.350672,5.78233996 10.5144689,5.83487859 L10.953321,5.97395143 C11.1758376,6.04503311 11.336544,6.14392936 11.4323497,6.27064018 C11.5281554,6.39735099 11.5745131,6.54260486 11.5745131,6.70331126 C11.5745131,6.83620309 11.5466985,6.95673289 11.4941599,7.06181015 C11.4385307,7.16688742 11.3643585,7.25960265 11.2685528,7.33377483 C11.1727471,7.41103753 11.0583983,7.46666667 10.9255064,7.50684327 C10.7864336,7.55011038 10.6411797,7.57174393 10.4835638,7.57174393 C10.3228574,7.57174393 10.162151,7.55320088 10.0076256,7.51611479 C9.85310026,7.4790287 9.73257045,7.4388521 9.65221725,7.39249448 C9.60276913,7.36467991 9.56874264,7.33377483 9.55641151,7.30596026 C9.54404948,7.2781457 9.53786847,7.24724062 9.53786847,7.21942605 L9.53786847,7.06181015 C9.53786847,6.99690949 9.56259253,6.96600442 9.60895015,6.96600442 C9.62749319,6.96600442 9.64600533,6.96909492 9.66454838,6.97527594 C9.68312233,6.98145695 9.710906,6.99381898 9.74184198,7.00618102 C9.84688834,7.05253863 9.96126803,7.08962472 10.0817669,7.11434879 C10.2054181,7.13907285 10.325917,7.15143488 10.4495682,7.15143488 C10.6442702,7.15143488 10.7957051,7.11743929 10.9007515,7.04944812 C11.0058596,6.98145695 11.0614888,6.88256071 11.0614888,6.75584989 C11.0614888,6.66931567 11.0336742,6.598234 10.9780142,6.53951435 C10.9224159,6.4807947 10.8173387,6.42825607 10.6658729,6.37880795 L10.2177802,6.2397351 C9.9921731,6.16865342 9.82528569,6.06357616 9.72329893,5.92450331 C9.62131218,5.78852097 9.56874264,5.63708609 9.56874264,5.47637969 C9.56874264,5.34657837 9.59658811,5.23222958 9.65221725,5.13333333 C9.70781549,5.03443709 9.78201858,4.94790287 9.87473381,4.8799117 C9.96744904,4.80883002 10.0725263,4.75629139 10.1961466,4.7192053 C10.3197669,4.68211921 10.4495682,4.66666667 10.5855506,4.66666667 Z M4.21292366,4.67284768 C4.58069408,4.67284768 4.84956825,4.75629139 5.02263668,4.92317881 C5.1926146,5.09006623 5.27914882,5.34348786 5.27914882,5.68344371 L5.27914882,6.68476821 L5.28532984,6.68476821 C5.28532984,6.799117 5.29769187,6.89183223 5.31932542,6.9598234 C5.34404948,7.02781457 5.37495456,7.10198675 5.41822167,7.18233996 C5.43367421,7.20706402 5.43985522,7.23178808 5.43985522,7.25342163 C5.43985522,7.28432671 5.42131218,7.31523179 5.38113558,7.34613687 L5.18643359,7.47593819 C5.15861902,7.49448124 5.13077355,7.50375276 5.10608039,7.50375276 C5.07517531,7.50375276 5.04427023,7.48830022 5.01336516,7.46048565 C4.97009805,7.41412804 4.93301196,7.36467991 4.90210688,7.31523179 C4.8712018,7.26269316 4.84029672,7.20397351 4.80630114,7.13289183 C4.56521063,7.41721854 4.26237178,7.5593819 3.89769187,7.5593819 C3.63808922,7.5593819 3.4310252,7.48520971 3.27959032,7.33686534 C3.12815544,7.18852097 3.05089275,6.99072848 3.05089275,6.74348786 C3.05089275,6.4807947 3.14357708,6.26754967 3.33212895,6.10684327 C3.52064993,5.94613687 3.77098105,5.86578366 4.08930335,5.86578366 C4.1943497,5.86578366 4.30254838,5.87505519 4.41689717,5.89050773 C4.53124595,5.90596026 4.64868525,5.93068433 4.77230555,5.9584989 L4.77230555,5.73289183 C4.77230555,5.49801325 4.72285743,5.33421634 4.62705169,5.2384106 C4.52815544,5.14260486 4.36126803,5.09624724 4.12329893,5.09624724 C4.01513116,5.09624724 3.90387288,5.10860927 3.7895241,5.13642384 C3.67517531,5.16423841 3.56391703,5.198234 3.45574926,5.2415011 C3.40630114,5.26313466 3.36921505,5.27549669 3.34758149,5.2816777 C3.32594794,5.28785872 3.3104954,5.29094923 3.29810246,5.29094923 C3.25486626,5.29094923 3.23323271,5.26004415 3.23323271,5.19514349 L3.23323271,5.04370861 C3.23323271,4.99426049 3.23941372,4.95717439 3.25486626,4.93554084 C3.2703188,4.91390728 3.29810246,4.89227373 3.34140048,4.87064018 C3.44953734,4.81501104 3.57936957,4.76865342 3.73080445,4.73156733 C3.88223933,4.69139073 4.04294573,4.67284768 4.21292366,4.67284768 Z M5.95287951,4.74701987 C6.01156825,4.74701987 6.05177575,4.75629139 6.07340931,4.77792494 C6.09813337,4.79646799 6.11667642,4.8397351 6.13521946,4.89845475 L6.65442476,6.94437086 L7.13651306,4.89845475 C7.1519965,4.83664459 7.17050864,4.79646799 7.19526361,4.77792494 C7.21998767,4.7593819 7.26322388,4.74701987 7.31888392,4.74701987 L7.56612454,4.74701987 C7.62481328,4.74701987 7.66502079,4.75629139 7.68974485,4.77792494 C7.71446891,4.79646799 7.73610246,4.8397351 7.74846449,4.89845475 L8.236,6.966 L8.77142255,4.89845475 C8.7899656,4.83664459 8.81159915,4.79646799 8.83323271,4.77792494 C8.85795677,4.7593819 8.89813337,4.74701987 8.95376251,4.74701987 L9.24117973,4.74701987 C9.29062785,4.74701987 9.31844242,4.77174393 9.31844242,4.82428256 C9.31844242,4.8397351 9.31535191,4.85518764 9.3122614,4.87373068 C9.30913999,4.89227373 9.30298988,4.91699779 9.29062785,4.95099338 L8.54581549,7.33995585 C8.52724154,7.401766 8.50560798,7.4419426 8.48088392,7.46048565 C8.45619076,7.4790287 8.41601416,7.49139073 8.36347553,7.49139073 L8.09766096,7.49139073 C8.03897222,7.49139073 7.99879562,7.48211921 7.97404065,7.46048565 C7.94931659,7.4388521 7.92768304,7.3986755 7.91535191,7.33686534 L7.43632321,5.34348786 L6.96038502,7.33377483 C6.94490158,7.39558499 6.92638944,7.43576159 6.90166538,7.45739514 C6.87694132,7.4790287 6.83367421,7.48830022 6.77804507,7.48830022 L6.5122614,7.48830022 C6.45663226,7.48830022 6.41954617,7.4790287 6.39482211,7.45739514 C6.37009805,7.4388521 6.34846449,7.39558499 6.32992145,7.33686534 L5.60365213,4.94790287 C5.58507818,4.88609272 5.57583756,4.84591611 5.57583756,4.82428256 C5.57583756,4.77483444 5.60053072,4.74701987 5.65000975,4.74701987 L5.95287951,4.74701987 Z M4.20365213,6.23355408 C3.99658811,6.23355408 3.84515324,6.27373068 3.74316648,6.35717439 C3.64117973,6.4406181 3.5917316,6.5580574 3.5917316,6.71258278 C3.5917316,6.85783664 3.6288177,6.96600442 3.70608039,7.0401766 C3.78025257,7.11743929 3.88842034,7.15452539 4.0305837,7.15452539 C4.13257045,7.15452539 4.23761681,7.13598234 4.348906,7.09889625 C4.46016427,7.06181015 4.55906052,6.99381898 4.64250423,6.90110375 C4.69195235,6.84238411 4.72900754,6.77748344 4.74758149,6.70331126 C4.76612454,6.62913907 4.77848657,6.53951435 4.77848657,6.43443709 L4.77848657,6.30463576 C4.68886185,6.28300221 4.59305611,6.26445916 4.49415986,6.25209713 C4.39526361,6.2397351 4.29945787,6.23355408 4.20365213,6.23355408 Z" id="path-aws"></path>
    </defs>
    <g id="Workspaces" stroke="none" stroke-width="1" fill="none" fill-rule="evenodd">
        <g id="Settings---Workspace---6.0---Registry---AWS" transform="translate(-544.000000, -235.000000)">
            <g id="Group-7" transform="translate(513.000000, 156.000000)">
                <g id="Group-6" transform="translate(0.000000, 67.000000)">
                    <g id="1.-Buttons/3.-Small/1.-Button/2.-Rounded/1.-White-Copy-2">
                        <g id="Group" transform="translate(31.000000, 12.000000)">
                            <g id="Icon/Math/Plus/Circle">
                                <g id="icon-card-info-copy" transform="translate(0.666667, 0.666667)">
                                    <mask id="mask-azure" fill="currentColor">
                                        <use xlink:href="#path-aws"></use>
                                    </mask>
                                    <use id="Icon-aws" fill="currentColor" fill-rule="evenodd" xlink:href="#path-aws"></use>
                                </g>
                            </g>
                        </g>
                    </g>
                </g>
            </g>
        </g>
    </g>
</svg>