<?xml version="1.0" encoding="UTF-8"?>
<svg width="181px" height="26px" viewBox="0 0 181 26" version="1.1" xmlns="http://www.w3.org/2000/svg" xmlns:xlink="http://www.w3.org/1999/xlink">
    <defs>
        <linearGradient x1="16.1012966%" y1="86.460883%" x2="87.1582232%" y2="15.6780339%" id="linearGradient-1">
            <stop stop-color="#EF4123" offset="0%"></stop>
            <stop stop-color="#F7941E" offset="100%"></stop>
        </linearGradient>
        <linearGradient x1="97.6206612%" y1="26.3553027%" x2="22.5227641%" y2="83.9674394%" id="linearGradient-2">
            <stop stop-color="#8DC63F" offset="0%"></stop>
            <stop stop-color="#40BA8D" offset="100%"></stop>
        </linearGradient>
    </defs>
    <g id="Page-1" stroke="none" stroke-width="1" fill="none" fill-rule="evenodd">
        <g id="Circles---1.1---Expand---Metrics---Scroll-Copy" transform="translate(-785.000000, -340.000000)">
            <g id="Group-3" transform="translate(785.000000, 340.000000)">
                <g id="Brand/Charles/Color-White">
                    <g id="Combined-Shape">
                        <path d="M56.9382864,0.40976 C58.72545,0.40976 60.288478,0.702693333 61.6265248,1.28856 C62.9645715,1.87486 64.1110458,2.65139333 65.0659477,3.61772667 L65.0659477,3.61772667 L63.5672,5.75146 C63.4779687,5.88796 63.3642093,6.00756 63.2254991,6.10982667 C63.0867888,6.21252667 62.8952164,6.26366 62.6512047,6.26366 C62.3953519,6.26366 62.1344243,6.16096 61.8679991,5.95642667 C61.6015738,5.75146 61.2628332,5.52916 60.8522,5.29082667 C60.4411439,5.05162667 59.9222491,4.82976 59.2946696,4.62479333 C58.6675131,4.42026 57.8707748,4.31756 56.9048776,4.31756 C55.7723589,4.31756 54.731186,4.51992667 53.7817818,4.92379333 C52.8328005,5.32766 52.016186,5.90529333 51.3336299,6.65582667 C50.6506509,7.40679333 50.1178005,8.31982667 49.7346556,9.39492667 C49.3515107,10.47046 49.1599383,11.67946 49.1599383,13.0214933 C49.1599383,14.4098933 49.3515107,15.6440267 49.7346556,16.72476 C50.1178005,17.8059267 50.6366953,18.71636 51.2917631,19.4556267 C51.9468308,20.1953267 52.7186182,20.76126 53.6071252,21.15386 C54.4956322,21.5460267 55.4501112,21.7423267 56.4718308,21.7423267 C57.0824944,21.7423267 57.6347981,21.7085267 58.1287421,21.64006 C58.622686,21.5720267 59.0781463,21.4641267 59.4947,21.3159267 C59.9112537,21.16816 60.3053939,20.9774933 60.6775435,20.74436 C61.0492701,20.5112267 61.4184593,20.2239267 61.7851112,19.8820267 C61.8959103,19.77976 62.012207,19.69786 62.1344243,19.6350267 C62.2566416,19.5726267 62.3902771,19.5409933 62.5340621,19.5409933 C62.7780738,19.5409933 62.9895224,19.6376267 63.1671393,19.8308933 L63.1671393,19.8308933 L64.932735,21.7938933 C63.9558425,23.0340933 62.7535458,23.98396 61.3271136,24.6439267 C59.8998355,25.3038933 58.1871019,25.63366 56.1884897,25.63366 C54.4009033,25.63366 52.793471,25.3207933 51.3670388,24.69506 C49.9401836,24.06976 48.7213939,23.1991933 47.7110925,22.0842267 C46.7003682,20.9688267 45.9260435,19.6376267 45.3872724,18.0906267 C44.8489243,16.5431933 44.5795388,14.8536267 44.5795388,13.0214933 C44.5795388,11.16726 44.8793729,9.46902667 45.4790411,7.92766 C46.0787093,6.38586 46.9223893,5.05769333 48.0109266,3.94229333 C49.0990411,2.82732667 50.4007187,1.95979333 51.9163822,1.33969333 C53.4320458,0.719593333 55.1062958,0.40976 56.9382864,0.40976 Z M94.0791481,7.52635 C95.0788771,7.52635 95.9694986,7.69448333 96.7527042,8.02988333 C97.535064,8.36528333 98.1990126,8.83198333 98.7428584,9.42955 C99.2867042,10.02625 99.7002977,10.7408167 99.9836388,11.5710833 C100.231192,12.2979458 100.370603,13.0855224 100.401588,13.9343936 L100.408228,14.30195 L100.408228,25.3606167 L98.5597439,25.3606167 C98.1706785,25.3606167 97.8657696,25.3008167 97.6437486,25.18165 C97.4530824,25.0791357 97.3034286,24.8868418 97.1947871,24.6047684 L97.1438841,24.45625 L96.7772322,23.2104167 C96.3446084,23.60865 95.9195967,23.9587833 95.5034659,24.25995 C95.0869121,24.5611167 94.6568257,24.8141833 94.2127836,25.01915 C93.7683187,25.2241167 93.2967883,25.3775167 92.7969238,25.4802167 C92.2974822,25.5824833 91.7417953,25.6336167 91.1315547,25.6336167 C90.4096692,25.6336167 89.7431832,25.53395 89.1325196,25.3346167 C88.5218561,25.13485 87.9974636,24.83455 87.5584963,24.4350167 C87.1199519,24.0359167 86.7786738,23.5388833 86.5346621,22.94565 C86.2898047,22.3519833 86.1680103,21.66125 86.1680103,20.8738833 C86.1680103,20.2113167 86.3371692,19.55785 86.6763327,18.9126167 C87.0146505,18.2678167 87.5779495,17.68585 88.3666528,17.1662833 C89.1549332,16.64715 90.2041411,16.2159833 91.5142766,15.87365 C92.7156218,15.5598444 94.1824143,15.3895023 95.9153056,15.3632912 L96.3945103,15.3597167 L96.3945103,14.32795 C96.3945103,13.14755 96.153036,12.27265 95.6700874,11.7054167 C95.1871388,11.1381833 94.4842836,10.85435 93.5632136,10.85435 C92.8967276,10.85435 92.3414636,10.9340833 91.8974215,11.0931167 C91.4529565,11.2530167 91.0672743,11.4319833 90.7399519,11.6308833 C90.4122065,11.8302167 90.109835,12.0091833 89.8319916,12.1682167 C89.554571,12.3276833 89.2492393,12.4074167 88.9159963,12.4074167 C88.6385757,12.4074167 88.4000617,12.33375 88.2000313,12.18555 C88.0500085,12.074725 87.9221086,11.9444 87.8157962,11.7949406 L87.7166598,11.6391167 L86.967286,10.2910167 C88.9324893,8.44805 91.3032509,7.52635 94.0791481,7.52635 Z M150.340461,7.57744 C151.517384,7.57744 152.589005,7.77677333 153.554902,8.17457333 C154.5208,8.57324 155.325996,9.09627333 155.969645,9.74497333 L155.969645,9.74497333 L155.037157,11.2638067 C154.925935,11.4458067 154.809638,11.5740733 154.687421,11.64774 C154.565204,11.7222733 154.41,11.7591067 154.220965,11.7591067 C154.021358,11.7591067 153.807372,11.7019067 153.579853,11.58794 C153.352335,11.4744067 153.088447,11.34614 152.789036,11.2040067 C152.489201,11.0618733 152.1475,10.93404 151.764356,10.8200733 C151.381634,10.70654 150.928711,10.64934 150.406856,10.64934 C149.596585,10.64934 148.95801,10.8257067 148.491977,11.17844 C148.025099,11.5311733 147.792082,11.99224 147.792082,12.5607733 C147.792082,12.93604 147.911339,13.25194 148.150276,13.50804 C148.38879,13.76414 148.705117,13.9886067 149.09968,14.1818733 C149.493821,14.3760067 149.9404,14.5489067 150.440264,14.70274 C150.940129,14.85614 151.450566,15.0242733 151.972421,15.2062733 C152.494276,15.3882733 153.005136,15.59584 153.505,15.8289733 C154.004865,16.0621067 154.451444,16.3580733 154.845585,16.71644 C155.239725,17.0748067 155.556475,17.50424 155.794989,18.0051733 C156.033926,18.5056733 156.153183,19.1088733 156.153183,19.8139067 C156.153183,20.6563067 156.003054,21.43284 155.70322,22.1435067 C155.403386,22.85504 154.964842,23.4690733 154.387587,23.9864733 C153.810332,24.50474 153.096905,24.9081733 152.247304,25.1985067 C151.398127,25.4884067 150.423771,25.6335733 149.324239,25.6335733 C148.735989,25.6335733 148.160849,25.5794067 147.60051,25.4715067 C147.039748,25.3631733 146.5014,25.2128067 145.985043,25.0191067 C145.468685,24.8262733 144.991234,24.59834 144.55269,24.3366067 C144.113722,24.0748733 143.72804,23.7906067 143.39522,23.4833733 L143.39522,23.4833733 L144.344624,21.8791733 C144.466419,21.6859067 144.61105,21.5377067 144.777248,21.43544 C144.94387,21.33274 145.154895,21.2816067 145.410325,21.2816067 C145.665755,21.2816067 145.907229,21.3557067 146.134748,21.5039067 C146.362267,21.6516733 146.626155,21.81114 146.925989,21.98144 C147.225823,22.1521733 147.578096,22.31164 147.983655,22.4594067 C148.38879,22.6076067 148.902187,22.6812733 149.524269,22.6812733 C150.012715,22.6812733 150.431807,22.6214733 150.781965,22.5023067 C151.131701,22.3827067 151.420117,22.2262733 151.647636,22.0330067 C151.875578,21.8393067 152.041776,21.61484 152.1475,21.35874 C152.252802,21.10264 152.305664,20.8383067 152.305664,20.5648733 C152.305664,20.1558067 152.186407,19.8199733 151.94747,19.55824 C151.708533,19.2965067 151.392206,19.0690067 150.998066,18.8753067 C150.603926,18.68204 150.154386,18.5087067 149.649024,18.3548733 C149.144085,18.2014733 148.627727,18.0337733 148.100374,17.85134 C147.573021,17.66934 147.056241,17.45614 146.551302,17.21174 C146.045517,16.9669067 145.5964,16.65664 145.20226,16.2813733 C144.80812,15.9061067 144.491793,15.44504 144.252856,14.89904 C144.013919,14.35304 143.894662,13.6930733 143.894662,12.91914 C143.894662,12.2024067 144.033795,11.5199067 144.311215,10.8712067 C144.588636,10.22294 144.996732,9.65700667 145.53508,9.17340667 C146.073851,8.68980667 146.745412,8.30284 147.550608,8.01250667 C148.355381,7.72260667 149.285755,7.57744 150.340461,7.57744 Z M134.151575,7.57731 C135.228695,7.57731 136.219543,7.75411 137.124966,8.10641 C138.029543,8.45957667 138.809365,8.97437667 139.464856,9.65124333 C140.119924,10.32811 140.630783,11.15881 140.997012,12.14291 C141.363664,13.12701 141.546779,14.2506433 141.546779,15.5133767 C141.546779,15.8318767 141.5324,16.0966433 141.504912,16.30681 C141.477424,16.51741 141.427099,16.68251 141.354783,16.80211 C141.282891,16.9212767 141.185625,17.0066433 141.06383,17.0577767 C140.972167,17.0964517 140.861712,17.1202579 140.732642,17.1297439 L140.597375,17.1344767 L130.038054,17.1344767 C130.159849,18.93281 130.631802,20.25231 131.453491,21.0942767 C132.275181,21.9362433 133.363295,22.35701 134.717835,22.35701 C135.383898,22.35701 135.959038,22.2772767 136.441564,22.11781 C136.924935,21.9587767 137.346564,21.7828433 137.707295,21.58871 C138.068449,21.3954433 138.384776,21.21951 138.657122,21.0600433 C138.929045,20.90101 139.19251,20.8208433 139.448363,20.8208433 C139.614561,20.8208433 139.758769,20.8550767 139.880987,20.92311 C139.97265,20.974785 140.054797,21.0418163 140.127787,21.124935 L140.197737,21.2134433 L141.39665,22.74961 C140.941613,23.29561 140.430753,23.7540767 139.864494,24.1232767 C139.298234,24.4933433 138.707024,24.7888767 138.090863,25.0107433 C137.474702,25.2330433 136.846699,25.3890433 136.20897,25.4800433 C135.569973,25.5710433 134.951274,25.6165433 134.351606,25.6165433 C133.163265,25.6165433 132.058657,25.41461 131.037361,25.0107433 C130.015641,24.6068767 129.127134,24.0097433 128.372262,23.21891 C127.616968,22.4280767 127.02322,21.44961 126.590174,20.28351 C126.157127,19.1169767 125.940604,17.7658433 125.940604,16.23011 C125.940604,15.03541 126.129639,13.91221 126.506863,12.8596433 C126.88451,11.8070767 127.425396,10.8914433 128.130788,10.1118767 C128.835758,9.33274333 129.696354,8.71524333 130.712153,8.26024333 C131.728375,7.80524333 132.874849,7.57731 134.151575,7.57731 Z M72.1940068,-3.16805009e-13 L72.1940068,9.74523333 C72.8600699,9.0961 73.5929507,8.57306667 74.3922264,8.1744 C75.191925,7.77703333 76.1303339,7.5777 77.2070301,7.5777 C78.1395185,7.5777 78.9671283,7.73976667 79.6890138,8.0639 C80.4104764,8.38846667 81.012682,8.84303333 81.4960535,9.42933333 C81.9790021,10.0156333 82.3452311,10.7150333 82.5951633,11.5284 C82.8446727,12.3422 82.9698502,13.2379 82.9698502,14.2163667 L82.9698502,14.2163667 L82.9698502,25.3608333 L78.8563292,25.3608333 L78.8563292,14.2163667 C78.8563292,13.1469 78.6148549,12.3192333 78.1314834,11.7329333 C77.6485348,11.1475 76.923689,10.8541333 75.9577918,10.8541333 C75.2473245,10.8541333 74.5808386,11.0192333 73.9596026,11.3494333 C73.3375208,11.6792 72.7488479,12.1285667 72.1940068,12.6975333 L72.1940068,12.6975333 L72.1940068,25.3608333 L68.07964,25.3608333 L68.07964,-3.16805009e-13 L72.1940068,-3.16805009e-13 Z M113.249205,7.52630667 C114.092885,7.52630667 114.79278,7.72564 115.348044,8.12344 L115.348044,8.12344 L114.81477,11.2807067 C114.781784,11.4856733 114.709046,11.63084 114.59867,11.7162067 C114.487448,11.80114 114.337319,11.84404 114.148707,11.84404 C113.982509,11.84404 113.754144,11.8041733 113.466151,11.72444 C113.176889,11.64514 112.794168,11.6052733 112.316717,11.6052733 C111.461618,11.6052733 110.728738,11.8470733 110.118074,12.3306733 C109.506988,12.8142733 108.991053,13.52234 108.569425,14.4553067 L108.569425,14.4553067 L108.569425,25.3605733 L104.455058,25.3605733 L104.455058,7.85044 L106.870224,7.85044 C107.292275,7.85044 107.586189,7.93060667 107.753233,8.08964 C107.919854,8.24910667 108.030231,8.52210667 108.086053,8.90864 L108.086053,8.90864 L108.335985,11.0246067 C108.946649,9.94387333 109.663037,9.09064 110.484726,8.46490667 C111.305992,7.83960667 112.227485,7.52630667 113.249205,7.52630667 Z M122.44354,0.00039 L122.44354,25.36079 L118.329596,25.36079 L118.329596,0.00039 L122.44354,0.00039 Z M96.3945103,17.93675 C95.1951738,17.93675 94.1929075,18.0143167 93.3881341,18.1685833 C92.5829379,18.3232833 91.936328,18.5213167 91.4478818,18.7618167 C90.9590126,19.0023167 90.6122369,19.28355 90.4067089,19.6042167 C90.2011808,19.9248833 90.0984168,20.2745833 90.0984168,20.65245 C90.0984168,21.3977833 90.3124028,21.93035 90.7399519,22.2510167 C91.1675009,22.57255 91.7253023,22.73245 92.413779,22.73245 C92.8358304,22.73245 93.22405,22.69345 93.5797065,22.6145833 C93.9349402,22.5365833 94.2711435,22.4187167 94.5874706,22.2622833 C94.9037977,22.1049833 95.2091294,21.91215 95.5034659,21.6824833 C95.7239011,21.5105583 95.9462393,21.3147458 96.1701237,21.0952286 L96.3945103,20.8678167 L96.3945103,17.93675 Z M134.235309,10.5980767 C133.035973,10.5980767 132.097564,10.94561 131.420082,11.6393767 C130.795105,12.2801767 130.377683,13.1679921 130.168814,14.3028228 L130.120942,14.5916767 L137.848966,14.5916767 C137.848966,14.0456767 137.777073,13.53131 137.632865,13.0472767 C137.488234,12.5636767 137.266213,12.14031 136.966379,11.7758767 C136.666968,11.4118767 136.288898,11.1245767 135.833861,10.9139767 C135.378823,10.7033767 134.84555,10.5980767 134.235309,10.5980767 Z M163.756874,0.750446667 C164.40729,0.750446667 164.976087,0.857046667 165.462842,1.07024667 C165.950019,1.28344667 166.366996,1.56641333 166.714194,1.91784667 L166.714194,1.91784667 L166.168657,2.69394667 C166.136517,2.74378 166.095496,2.78711333 166.044748,2.82438 C165.994,2.86164667 165.924222,2.88071333 165.835414,2.88071333 C165.7428,2.88071333 165.647648,2.84301333 165.550804,2.76848 C165.453961,2.69394667 165.330475,2.61378 165.181192,2.52668 C165.031909,2.43958 164.842874,2.35898 164.61451,2.28444667 C164.386568,2.20991333 164.096461,2.17264667 163.745033,2.17264667 C163.332708,2.17264667 162.954215,2.24588 162.608286,2.39321333 C162.263201,2.54011333 161.966328,2.74984667 161.717664,3.02328 C161.469423,3.29671333 161.275314,3.62864667 161.135757,4.01994667 C160.996624,4.41124667 160.926846,4.85108 160.926846,5.33988 C160.926846,5.84471333 160.996624,6.29408 161.135757,6.68711333 C161.275314,7.08014667 161.463926,7.41164667 161.702863,7.68074667 C161.940954,7.94984667 162.221335,8.15568 162.544851,8.29868 C162.868367,8.44124667 163.215566,8.51274667 163.587293,8.51274667 C163.809314,8.51274667 164.010613,8.50061333 164.190344,8.47548 C164.369652,8.45034667 164.535851,8.41134667 164.687248,8.35761333 C164.838645,8.30388 164.98243,8.23411333 165.117335,8.14961333 C165.252662,8.06468 165.387143,7.96024667 165.520356,7.83588 C165.560954,7.79904667 165.603243,7.76871333 165.647648,7.74574667 C165.692052,7.72321333 165.740685,7.71151333 165.793547,7.71151333 C165.882356,7.71151333 165.9589,7.74661333 166.023603,7.81724667 L166.023603,7.81724667 L166.665984,8.53138 C166.310328,8.98248 165.873052,9.32828 165.354157,9.56834667 C164.834839,9.80841333 164.211489,9.92888 163.484529,9.92888 C162.834113,9.92888 162.248823,9.81491333 161.729928,9.58698 C161.21061,9.35948 160.767414,9.04271333 160.399916,8.63711333 C160.031996,8.23151333 159.750346,7.74661333 159.554545,7.18414667 C159.358321,6.62081333 159.260208,6.00634667 159.260208,5.33988 C159.260208,4.66474667 159.369316,4.04681333 159.587531,3.48564667 C159.805746,2.92491333 160.112769,2.44174667 160.509024,2.03614667 C160.904433,1.63011333 161.378078,1.31464667 161.929958,1.08888 C162.481416,0.863546667 163.090388,0.750446667 163.756874,0.750446667 Z M168.375081,8.04674 C168.500258,8.04674 168.619093,8.07187333 168.732429,8.12170667 C168.845343,8.17110667 168.942609,8.23784 169.023382,8.32017333 C169.103733,8.40294 169.168859,8.50260667 169.217069,8.61830667 C169.265702,8.73444 169.29023,8.85620667 169.29023,8.98447333 C169.29023,9.11750667 169.265702,9.24014 169.217069,9.35410667 C169.168859,9.46807333 169.103733,9.56644 169.023382,9.64877333 C168.942609,9.73197333 168.845343,9.79697333 168.732429,9.84507333 C168.619093,9.89230667 168.500258,9.91614 168.375081,9.91614 C168.245674,9.91614 168.124303,9.89230667 168.010966,9.84507333 C167.898053,9.79697333 167.799941,9.73197333 167.717476,9.64877333 C167.634588,9.56644 167.569462,9.46807333 167.523366,9.35410667 C167.476847,9.24014 167.453588,9.11750667 167.453588,8.98447333 C167.453588,8.85620667 167.476847,8.73444 167.523366,8.61830667 C167.569462,8.50260667 167.634588,8.40294 167.717476,8.32017333 C167.799941,8.23784 167.898053,8.17110667 168.010966,8.12170667 C168.124303,8.07187333 168.245674,8.04674 168.375081,8.04674 Z M179.846971,8.04695667 C179.972148,8.04695667 180.090982,8.07165667 180.204319,8.12192333 C180.317232,8.17132333 180.414499,8.23762333 180.495272,8.32039 C180.575623,8.40315667 180.640749,8.50239 180.688959,8.61852333 C180.737592,8.73465667 180.76212,8.85642333 180.76212,8.98469 C180.76212,9.11729 180.737592,9.24035667 180.688959,9.35389 C180.640749,9.46829 180.575623,9.56665667 180.495272,9.64899 C180.414499,9.73175667 180.317232,9.79719 180.204319,9.84485667 C180.090982,9.89209 179.972148,9.91592333 179.846971,9.91592333 C179.717564,9.91592333 179.596193,9.89209 179.482856,9.84485667 C179.369943,9.79719 179.271831,9.73175667 179.189366,9.64899 C179.106478,9.56665667 179.041352,9.46829 178.995256,9.35389 C178.948737,9.24035667 178.925478,9.11729 178.925478,8.98469 C178.925478,8.85642333 178.948737,8.73465667 178.995256,8.61852333 C179.041352,8.50239 179.106478,8.40315667 179.189366,8.32039 C179.271831,8.23762333 179.369943,8.17132333 179.482856,8.12192333 C179.596193,8.07165667 179.717564,8.04695667 179.846971,8.04695667 Z M173.968404,0.84981 C174.631084,0.84981 175.234981,0.960743333 175.780095,1.18217667 C176.325633,1.40361 176.792511,1.71171 177.180308,2.10734333 C177.568105,2.50297667 177.869207,2.97574333 178.083193,3.52651 C178.297179,4.07684333 178.404172,4.68134333 178.404172,5.33957667 C178.404172,5.99781 178.297179,6.60187667 178.083193,7.15264333 C177.869207,7.70341 177.568105,8.17747667 177.180308,8.57484333 C176.792511,8.97221 176.325633,9.28074333 175.780095,9.50001 C175.312854,9.68832429 174.802426,9.79577327 174.24881,9.82262983 L173.968404,9.82934333 L170.622864,9.82934333 L170.622864,0.84981 L173.968404,0.84981 Z M173.968404,2.17841 L172.265397,2.17841 L172.265397,8.50031 L173.968404,8.50031 C174.396376,8.50031 174.781212,8.42794333 175.122913,8.28277667 C175.464191,8.13804333 175.753876,7.93004333 175.99239,7.65877667 C176.230904,7.38794333 176.414441,7.05644333 176.543848,6.66514333 C176.673254,6.27427667 176.737957,5.83227667 176.737957,5.33957667 C176.737957,4.84687667 176.673254,4.40487667 176.543848,4.01401 C176.414441,3.62271 176.230904,3.29164333 175.99239,3.02037667 C175.753876,2.74911 175.464191,2.54067667 175.122913,2.39594333 C174.781212,2.25121 174.396376,2.17841 173.968404,2.17841 Z" fill="#FFFFFF"></path>
                        <path d="M28.273215,0.63609 L28.5150263,0.640037488 C32.5297777,0.771287334 35.7563808,4.15880111 35.7563808,8.30435667 L35.7563808,8.30435667 L35.7525284,8.55216086 C35.6244397,12.6664118 32.3185169,15.9730567 28.273215,15.9730567 L28.273215,15.9730567 L28.0313792,15.9691087 C24.0162293,15.8378425 20.7896262,12.4499122 20.7896262,8.30435667 C20.7896262,4.07589 24.1465841,0.63609 28.273215,0.63609 L28.273215,0.63609 Z M28.273215,1.82082333 L28.0465955,1.82492453 C24.6618192,1.9476147 21.9454042,4.80749797 21.9454042,8.30435667 C21.9454042,11.8793567 24.7838902,14.7883233 28.273215,14.7883233 L28.273215,14.7883233 L28.499781,14.7842221 C31.8837831,14.6615318 34.6006028,11.8016393 34.6006028,8.30435667 L34.6006028,8.30435667 L34.5966004,8.07219947 C34.476865,4.60468794 31.6858574,1.82082333 28.273215,1.82082333 L28.273215,1.82082333 Z" fill="#FFFFFF"></path>
                        <path d="M10.3926986,4.36535667 L10.6736579,4.36919154 C16.2749787,4.522262 20.7853972,9.23825393 20.7853972,15.01409 L20.7853972,15.01409 L20.7816543,15.3019827 C20.6322569,21.0415313 16.0294329,25.6632567 10.3926986,25.6632567 L10.3926986,25.6632567 L10.1117393,25.6594215 C4.51041851,25.5063372 -2.32157665e-13,20.7899261 -2.32157665e-13,15.01409 C-2.32157665e-13,9.14199 4.66201869,4.36535667 10.3926986,4.36535667 L10.3926986,4.36535667 Z M10.3926986,6.46095667 L10.1425048,6.46474434 C5.65496579,6.60078051 2.04555374,10.3838682 2.04555374,15.01409 C2.04555374,19.73049 5.78988551,23.5676567 10.3926986,23.5676567 L10.3926986,23.5676567 L10.6428924,23.563869 C15.1304314,23.4278327 18.7398435,19.6447373 18.7398435,15.01409 L18.7398435,15.01409 L18.7361474,14.7577448 C18.6034021,10.1598585 14.9118242,6.46095667 10.3926986,6.46095667 L10.3926986,6.46095667 Z" fill="url(#linearGradient-1)"></path>
                        <path d="M26.3786355,17.8697567 L26.5718904,17.8747814 C28.5563355,17.978206 30.1398832,19.665165 30.1398832,21.7238233 L30.1398832,21.7238233 L30.1349794,21.9218473 C30.0340457,23.955264 28.3877144,25.57789 26.3786355,25.57789 L26.3786355,25.57789 L26.1853806,25.5728652 C24.2009355,25.4694407 22.6173879,23.7824817 22.6173879,21.7238233 C22.6173879,19.5987567 24.3047477,17.8697567 26.3786355,17.8697567 L26.3786355,17.8697567 Z M26.3786355,19.07399 L26.2153743,19.0792147 C24.8655337,19.1658586 23.7930421,20.31924 23.7930421,21.7238233 C23.7930421,23.1850233 24.9530491,24.3736567 26.3786355,24.3736567 L26.3786355,24.3736567 L26.5419419,24.3684338 C27.8921283,24.2818201 28.964229,23.1288233 28.964229,21.7238233 L28.964229,21.7238233 L28.9591337,21.5565313 C28.8746361,20.173349 27.7497983,19.07399 26.3786355,19.07399 L26.3786355,19.07399 Z" fill="url(#linearGradient-2)"></path>
                    </g>
                </g>
            </g>
        </g>
    </g>
</svg>