<?xml version="1.0" encoding="UTF-8"?>
<svg width="12px" height="12px" viewBox="0 0 12 12" version="1.1" xmlns="http://www.w3.org/2000/svg" xmlns:xlink="http://www.w3.org/1999/xlink">
    <!-- Generator: Sketch 64 (93537) - https://sketch.com -->
    <title>Expand</title>
    <defs>
        <path d="M5.42091667,7.75425 C5.649,7.52616667 6.01766667,7.52616667 6.24575,7.75425 C6.47383333,7.98233333 6.47383333,8.351 6.24575,8.57908333 L6.24575,8.57908333 L3.15816667,11.6666667 L5.25,11.6666667 C5.572,11.6666667 5.83333333,11.9274167 5.83333333,12.25 C5.83333333,12.5725833 5.572,12.8333333 5.25,12.8333333 L5.25,12.8333333 L1.75,12.8333333 C1.67416667,12.8333333 1.59833333,12.8181667 1.52716667,12.7884167 C1.38483333,12.7289167 1.27108333,12.61575 1.21158333,12.4728333 C1.18183333,12.4016667 1.16666667,12.3258333 1.16666667,12.25 L1.16666667,12.25 L1.16666667,8.75 C1.16666667,8.42741667 1.428,8.16666667 1.75,8.16666667 C2.072,8.16666667 2.33333333,8.42741667 2.33333333,8.75 L2.33333333,8.75 L2.33333333,10.8418333 Z M12.2499417,1.16678333 C12.325775,1.16678333 12.4016083,1.18195 12.472775,1.2117 C12.6156917,1.27061667 12.7288583,1.38436667 12.7883583,1.52728333 C12.8181083,1.59845 12.833275,1.6737 12.833275,1.75011667 L12.833275,1.75011667 L12.833275,5.25011667 C12.833275,5.57211667 12.572525,5.83345 12.2499417,5.83345 C11.9273583,5.83345 11.6666083,5.57211667 11.6666083,5.25011667 L11.6666083,5.25011667 L11.6666083,3.15828333 L8.579025,6.24586667 C8.465275,6.35961667 8.31594167,6.41678333 8.16660833,6.41678333 C8.017275,6.41678333 7.86794167,6.35961667 7.75419167,6.24586667 C7.52610833,6.01778333 7.52610833,5.64853333 7.75419167,5.42103333 L7.75419167,5.42103333 L10.841775,2.33345 L8.74994167,2.33345 C8.42735833,2.33345 8.16660833,2.07211667 8.16660833,1.75011667 C8.16660833,1.42811667 8.42735833,1.16678333 8.74994167,1.16678333 L8.74994167,1.16678333 Z" id="path-expand"></path>
    </defs>
    <g id="Circles---Health" stroke="none" stroke-width="1" fill="none" fill-rule="evenodd">
        <g id="Icon/Controls/Layout-Controls/Maximize/Maximize-2" transform="translate(-1.000000, -1.000000)">
            <mask id="mask-expand" fill="currentColor">
                <use xlink:href="#path-expand"></use>
            </mask>
            <use id="Icon-Maximize-2" fill="currentColor" fill-rule="evenodd" xlink:href="#path-expand"></use>
        </g>
    </g>
</svg>