<?xml version="1.0" encoding="UTF-8"?>
<svg width="16px" height="16px" viewBox="0 0 16 16" version="1.1" xmlns="http://www.w3.org/2000/svg" xmlns:xlink="http://www.w3.org/1999/xlink">
    <defs>
        <path d="M8,0.666666667 C12.0433333,0.666666667 15.3333333,3.95666667 15.3333333,8 C15.3333333,12.0433333 12.0433333,15.3333333 8,15.3333333 C3.95666667,15.3333333 0.666666667,12.0433333 0.666666667,8 C0.666666667,3.95666667 3.95666667,0.666666667 8,0.666666667 Z M8,2 C4.692,2 2,4.692 2,8 C2,11.3086667 4.692,14 8,14 C11.3086667,14 14,11.3086667 14,8 C14,4.692 11.3086667,2 8,2 Z M9.69025518,7.35542655 L8.00047316,12.6666667 L6.31067072,7.35542655 L9.69025518,7.35542655 Z M6.24989687,7.35542655 L7.92359176,12.6160154 L3.9088717,7.35542655 L6.24989687,7.35542655 Z M3.86056335,7.38780548 L7.84888662,12.6138173 L3.46949081,9.33679832 C3.37299523,9.26383664 3.32339776,9.14718198 3.33499376,9.03138013 L3.34940893,8.96235772 L3.86056335,7.38780548 Z M12.1403238,7.38780754 L12.6513965,8.96217455 C12.6869869,9.07710549 12.6589785,9.20076932 12.5818201,9.28863216 L12.5297427,9.33669747 L8.15034687,12.6136959 L12.1403238,7.38780754 Z M12.0920175,7.35543478 L8.07864479,12.6119691 L9.7510127,7.35543478 L12.0920175,7.35543478 Z M5.06296643,4 C5.1154946,4.00028814 5.18096597,4.02762047 5.20734234,4.10358707 C5.21324232,4.121987 5.46930949,4.92061386 5.72558081,5.71924072 C5.8552374,6.12323646 5.98493482,6.52725278 6.0823559,6.83025473 C6.13104602,6.9817557 6.17169258,7.10802366 6.20019212,7.19640095 L6.21880052,7.25401649 L6.21880052,7.25401649 L6.23275428,7.29710659 L3.89170869,7.29710659 L4.91536493,4.10414277 C4.93591277,4.04653494 4.97831375,4.01675855 5.02065732,4.00547084 L5.06217024,4 L5.06296643,4 Z M10.9409462,4.00001029 C10.9803423,4.00021096 11.0270305,4.01564714 11.0590399,4.05539242 L11.0853425,4.10357678 L12.1092029,7.2970963 L9.76785111,7.2970963 L10.7933651,4.10413248 C10.813913,4.04654009 10.8563139,4.01676755 10.8986575,4.00548081 L10.9401704,4.00001029 L10.9409462,4.00001029 Z" id="path-gitlab"></path>
    </defs>
    <g id="Workspaces-gitlab" stroke="none" stroke-width="1" fill="none" fill-rule="evenodd">
        <g id="Settings---Workspace---4.1" transform="translate(-670.000000, -235.000000)">
            <rect fill="transparent" x="0" y="0" width="1920" height="1241"></rect>
            <g id="Group-gitlab-7" transform="translate(513.000000, 156.000000)">
                <g id="Group-gitlab-6" transform="translate(0.000000, 67.000000)">
                    <g id="1.-Buttons/3.-Small/1.-Button/2.-Rounded/1.-White-Copy-2" transform="translate(126.000000, 0.000000)">
                        <rect id="placeholder" fill="transparent" x="0" y="0" width="113" height="40" rx="20"></rect>
                        <g id="Group-gitlab" transform="translate(31.000000, 12.000000)">
                            <g id="Icon/Math/Plus/Circle-gitlab">
                                <mask id="mask-gitlab" fill="white">
                                    <use xlink:href="#path-gitlab"></use>
                                </mask>
                                <use id="icon-card-gitlab" fill="currentColor" xlink:href="#path-gitlab"></use>
                            </g>
                        </g>
                    </g>
                </g>
            </g>
        </g>
    </g>
</svg>